%FSLAX44Y44*%
%MOMM*%
G71*
G01*
G75*
G04 Layer_Color=2752767*
%ADD10R,0.9500X1.0000*%
%ADD11R,7.0000X7.0000*%
%ADD12O,0.3000X1.6500*%
%ADD13O,1.6500X0.3000*%
%ADD14R,1.3000X1.8500*%
%ADD15R,1.0000X0.9500*%
%ADD16R,1.8500X1.3000*%
G04:AMPARAMS|DCode=17|XSize=1.05mm|YSize=3.82mm|CornerRadius=0.0525mm|HoleSize=0mm|Usage=FLASHONLY|Rotation=180.000|XOffset=0mm|YOffset=0mm|HoleType=Round|Shape=RoundedRectangle|*
%AMROUNDEDRECTD17*
21,1,1.0500,3.7150,0,0,180.0*
21,1,0.9450,3.8200,0,0,180.0*
1,1,0.1050,-0.4725,1.8575*
1,1,0.1050,0.4725,1.8575*
1,1,0.1050,0.4725,-1.8575*
1,1,0.1050,-0.4725,-1.8575*
%
%ADD17ROUNDEDRECTD17*%
G04:AMPARAMS|DCode=18|XSize=7.48mm|YSize=8.55mm|CornerRadius=0.0374mm|HoleSize=0mm|Usage=FLASHONLY|Rotation=90.000|XOffset=0mm|YOffset=0mm|HoleType=Round|Shape=RoundedRectangle|*
%AMROUNDEDRECTD18*
21,1,7.4800,8.4752,0,0,90.0*
21,1,7.4052,8.5500,0,0,90.0*
1,1,0.0748,4.2376,3.7026*
1,1,0.0748,4.2376,-3.7026*
1,1,0.0748,-4.2376,-3.7026*
1,1,0.0748,-4.2376,3.7026*
%
%ADD18ROUNDEDRECTD18*%
G04:AMPARAMS|DCode=19|XSize=0.6mm|YSize=1mm|CornerRadius=0.15mm|HoleSize=0mm|Usage=FLASHONLY|Rotation=90.000|XOffset=0mm|YOffset=0mm|HoleType=Round|Shape=RoundedRectangle|*
%AMROUNDEDRECTD19*
21,1,0.6000,0.7000,0,0,90.0*
21,1,0.3000,1.0000,0,0,90.0*
1,1,0.3000,0.3500,0.1500*
1,1,0.3000,0.3500,-0.1500*
1,1,0.3000,-0.3500,-0.1500*
1,1,0.3000,-0.3500,0.1500*
%
%ADD19ROUNDEDRECTD19*%
%ADD20R,1.0000X0.6000*%
%ADD21R,2.1000X5.8000*%
%ADD22R,0.8000X0.6000*%
%ADD23R,1.6000X3.9000*%
%ADD24R,0.5000X0.6000*%
%ADD25R,0.6000X0.8000*%
%ADD26O,0.6000X1.9000*%
%ADD27R,0.6000X1.2000*%
%ADD28R,1.1500X1.4000*%
%ADD29R,1.8000X1.9000*%
%ADD30R,2.3000X1.9000*%
%ADD31R,0.4000X1.4000*%
%ADD32R,0.8000X0.8000*%
%ADD33R,1.0000X0.4000*%
%ADD34R,0.9000X1.4000*%
%ADD35R,2.2000X1.4000*%
%ADD36R,0.6500X0.4000*%
%ADD37R,1.6002X1.2700*%
%ADD38R,2.2000X1.1000*%
%ADD39C,1.2000*%
%ADD40C,0.2500*%
%ADD41C,0.2540*%
%ADD42C,0.5000*%
%ADD43C,0.4000*%
%ADD44C,1.0160*%
%ADD45C,1.1000*%
%ADD46C,0.8000*%
%ADD47C,0.7500*%
%ADD48C,0.7620*%
%ADD49C,1.0000*%
%ADD50C,0.6000*%
%ADD51C,0.2032*%
%ADD52C,0.3500*%
%ADD53C,2.0000*%
%ADD54C,1.5000*%
%ADD55R,1.5000X1.5000*%
%ADD56R,1.5500X1.5500*%
%ADD57C,1.5500*%
G04:AMPARAMS|DCode=58|XSize=1.55mm|YSize=1.55mm|CornerRadius=0.0465mm|HoleSize=0mm|Usage=FLASHONLY|Rotation=180.000|XOffset=0mm|YOffset=0mm|HoleType=Round|Shape=RoundedRectangle|*
%AMROUNDEDRECTD58*
21,1,1.5500,1.4570,0,0,180.0*
21,1,1.4570,1.5500,0,0,180.0*
1,1,0.0930,-0.7285,0.7285*
1,1,0.0930,0.7285,0.7285*
1,1,0.0930,0.7285,-0.7285*
1,1,0.0930,-0.7285,-0.7285*
%
%ADD58ROUNDEDRECTD58*%
%ADD59R,1.5000X1.5000*%
%ADD60R,0.7000X0.7000*%
%ADD61C,0.7000*%
%ADD62C,0.6000*%
%ADD63C,5.0000*%
%ADD64R,2.1590X2.7430*%
G04:AMPARAMS|DCode=65|XSize=3.1mm|YSize=4mm|CornerRadius=0.0465mm|HoleSize=0mm|Usage=FLASHONLY|Rotation=0.000|XOffset=0mm|YOffset=0mm|HoleType=Round|Shape=RoundedRectangle|*
%AMROUNDEDRECTD65*
21,1,3.1000,3.9070,0,0,0.0*
21,1,3.0070,4.0000,0,0,0.0*
1,1,0.0930,1.5035,-1.9535*
1,1,0.0930,-1.5035,-1.9535*
1,1,0.0930,-1.5035,1.9535*
1,1,0.0930,1.5035,1.9535*
%
%ADD65ROUNDEDRECTD65*%
G04:AMPARAMS|DCode=66|XSize=0.6mm|YSize=1mm|CornerRadius=0.051mm|HoleSize=0mm|Usage=FLASHONLY|Rotation=180.000|XOffset=0mm|YOffset=0mm|HoleType=Round|Shape=RoundedRectangle|*
%AMROUNDEDRECTD66*
21,1,0.6000,0.8980,0,0,180.0*
21,1,0.4980,1.0000,0,0,180.0*
1,1,0.1020,-0.2490,0.4490*
1,1,0.1020,0.2490,0.4490*
1,1,0.1020,0.2490,-0.4490*
1,1,0.1020,-0.2490,-0.4490*
%
%ADD66ROUNDEDRECTD66*%
%ADD67R,0.6000X1.0000*%
%ADD68R,1.2000X1.0000*%
%ADD69R,1.2000X0.7000*%
%ADD70R,0.8000X1.0000*%
%ADD71R,2.8000X1.0000*%
%ADD72R,1.9000X1.3000*%
%ADD73C,0.2000*%
%ADD74C,0.1000*%
%ADD75C,0.1524*%
%ADD76C,0.2000*%
%ADD77C,0.1778*%
%ADD78C,0.3556*%
%ADD79C,0.1016*%
%ADD80R,0.8000X0.3000*%
%ADD81R,0.8250X0.2000*%
%ADD82R,1.6000X0.5000*%
%ADD83R,0.5080X2.1844*%
%ADD84R,1.1024X1.1524*%
%ADD85R,7.1524X7.1524*%
%ADD86O,0.4524X1.8024*%
%ADD87O,1.8024X0.4524*%
%ADD88R,1.4524X2.0024*%
%ADD89R,1.1524X1.1024*%
%ADD90R,2.0024X1.4524*%
G04:AMPARAMS|DCode=91|XSize=1.2024mm|YSize=3.9724mm|CornerRadius=0.1287mm|HoleSize=0mm|Usage=FLASHONLY|Rotation=180.000|XOffset=0mm|YOffset=0mm|HoleType=Round|Shape=RoundedRectangle|*
%AMROUNDEDRECTD91*
21,1,1.2024,3.7150,0,0,180.0*
21,1,0.9450,3.9724,0,0,180.0*
1,1,0.2574,-0.4725,1.8575*
1,1,0.2574,0.4725,1.8575*
1,1,0.2574,0.4725,-1.8575*
1,1,0.2574,-0.4725,-1.8575*
%
%ADD91ROUNDEDRECTD91*%
G04:AMPARAMS|DCode=92|XSize=7.6324mm|YSize=8.7024mm|CornerRadius=0.1136mm|HoleSize=0mm|Usage=FLASHONLY|Rotation=90.000|XOffset=0mm|YOffset=0mm|HoleType=Round|Shape=RoundedRectangle|*
%AMROUNDEDRECTD92*
21,1,7.6324,8.4752,0,0,90.0*
21,1,7.4052,8.7024,0,0,90.0*
1,1,0.2272,4.2376,3.7026*
1,1,0.2272,4.2376,-3.7026*
1,1,0.2272,-4.2376,-3.7026*
1,1,0.2272,-4.2376,3.7026*
%
%ADD92ROUNDEDRECTD92*%
G04:AMPARAMS|DCode=93|XSize=0.7524mm|YSize=1.1524mm|CornerRadius=0.2262mm|HoleSize=0mm|Usage=FLASHONLY|Rotation=90.000|XOffset=0mm|YOffset=0mm|HoleType=Round|Shape=RoundedRectangle|*
%AMROUNDEDRECTD93*
21,1,0.7524,0.7000,0,0,90.0*
21,1,0.3000,1.1524,0,0,90.0*
1,1,0.4524,0.3500,0.1500*
1,1,0.4524,0.3500,-0.1500*
1,1,0.4524,-0.3500,-0.1500*
1,1,0.4524,-0.3500,0.1500*
%
%ADD93ROUNDEDRECTD93*%
%ADD94R,1.1524X0.7524*%
%ADD95R,2.2524X5.9524*%
%ADD96R,0.9524X0.7524*%
%ADD97R,1.7524X4.0524*%
%ADD98R,0.6000X0.7000*%
%ADD99R,0.7524X0.9524*%
%ADD100O,0.7524X2.0524*%
%ADD101R,0.7524X1.3524*%
%ADD102R,1.3024X1.5524*%
%ADD103R,1.9524X2.0524*%
%ADD104R,2.4524X2.0524*%
%ADD105R,0.5524X1.5524*%
%ADD106R,0.9524X0.9524*%
%ADD107R,1.2032X0.6032*%
%ADD108R,1.0524X1.5524*%
%ADD109R,2.3524X1.5524*%
%ADD110R,0.8024X0.5524*%
%ADD111R,1.7526X1.4224*%
%ADD112R,2.3524X1.2524*%
%ADD113C,2.7620*%
%ADD114C,1.6524*%
%ADD115R,1.6524X1.6524*%
%ADD116R,1.7024X1.7024*%
%ADD117C,1.7024*%
G04:AMPARAMS|DCode=118|XSize=1.7024mm|YSize=1.7024mm|CornerRadius=0.1227mm|HoleSize=0mm|Usage=FLASHONLY|Rotation=180.000|XOffset=0mm|YOffset=0mm|HoleType=Round|Shape=RoundedRectangle|*
%AMROUNDEDRECTD118*
21,1,1.7024,1.4570,0,0,180.0*
21,1,1.4570,1.7024,0,0,180.0*
1,1,0.2454,-0.7285,0.7285*
1,1,0.2454,0.7285,0.7285*
1,1,0.2454,0.7285,-0.7285*
1,1,0.2454,-0.7285,-0.7285*
%
%ADD118ROUNDEDRECTD118*%
%ADD119R,1.6524X1.6524*%
%ADD120R,0.8524X0.8524*%
%ADD121C,0.8524*%
%ADD122C,0.7524*%
%ADD123C,5.1524*%
%ADD124R,2.3114X2.8954*%
G04:AMPARAMS|DCode=125|XSize=3.2524mm|YSize=4.1524mm|CornerRadius=0.1227mm|HoleSize=0mm|Usage=FLASHONLY|Rotation=0.000|XOffset=0mm|YOffset=0mm|HoleType=Round|Shape=RoundedRectangle|*
%AMROUNDEDRECTD125*
21,1,3.2524,3.9070,0,0,0.0*
21,1,3.0070,4.1524,0,0,0.0*
1,1,0.2454,1.5035,-1.9535*
1,1,0.2454,-1.5035,-1.9535*
1,1,0.2454,-1.5035,1.9535*
1,1,0.2454,1.5035,1.9535*
%
%ADD125ROUNDEDRECTD125*%
G04:AMPARAMS|DCode=126|XSize=0.7524mm|YSize=1.1524mm|CornerRadius=0.1272mm|HoleSize=0mm|Usage=FLASHONLY|Rotation=180.000|XOffset=0mm|YOffset=0mm|HoleType=Round|Shape=RoundedRectangle|*
%AMROUNDEDRECTD126*
21,1,0.7524,0.8980,0,0,180.0*
21,1,0.4980,1.1524,0,0,180.0*
1,1,0.2544,-0.2490,0.4490*
1,1,0.2544,0.2490,0.4490*
1,1,0.2544,0.2490,-0.4490*
1,1,0.2544,-0.2490,-0.4490*
%
%ADD126ROUNDEDRECTD126*%
%ADD127R,0.7524X1.1524*%
%ADD128R,1.3524X1.1524*%
%ADD129R,1.3524X0.8524*%
%ADD130R,0.9524X1.1524*%
%ADD131R,2.9524X1.1524*%
%ADD132R,2.0524X1.4524*%
%ADD133C,0.1270*%
%ADD134C,0.1500*%
%ADD135C,0.0508*%
%ADD136C,0.0700*%
%ADD137C,0.1200*%
%ADD138C,0.0000*%
%ADD139C,0.0500*%
%ADD140C,0.0677*%
D135*
X588465Y774000D02*
Y778064D01*
X592529D01*
Y774000D01*
X588465D01*
X1090254Y516700D02*
X1088222Y520764D01*
X1092286D01*
X1090254Y516700D01*
X1064854D02*
X1062822Y520764D01*
X1066886D01*
X1064854Y516700D01*
X1039454D02*
X1037422Y520764D01*
X1041486D01*
X1039454Y516700D01*
X1014054D02*
X1012022Y520764D01*
X1016086D01*
X1014054Y516700D01*
Y491300D02*
X1012022Y495364D01*
X1016086D01*
X1014054Y491300D01*
X1039454D02*
X1037422Y495364D01*
X1041486D01*
X1039454Y491300D01*
X1064854D02*
X1062822Y495364D01*
X1066886D01*
X1064854Y491300D01*
X1090254D02*
X1088222Y495364D01*
X1092286D01*
X1090254Y491300D01*
X702654Y1226000D02*
X703670Y1227016D01*
X704686D01*
X703670Y1228032D01*
X704686Y1229048D01*
X703670D01*
X702654Y1230064D01*
X701638Y1229048D01*
X700622D01*
X701638Y1228032D01*
X700622Y1227016D01*
X701638D01*
X702654Y1226000D01*
X627654D02*
X628670Y1227016D01*
X629686D01*
X628670Y1228032D01*
X629686Y1229048D01*
X628670D01*
X627654Y1230064D01*
X626638Y1229048D01*
X625622D01*
X626638Y1228032D01*
X625622Y1227016D01*
X626638D01*
X627654Y1226000D01*
X702654Y1053000D02*
X703670Y1054016D01*
X704686D01*
X703670Y1055032D01*
X704686Y1056048D01*
X703670D01*
X702654Y1057064D01*
X701638Y1056048D01*
X700622D01*
X701638Y1055032D01*
X700622Y1054016D01*
X701638D01*
X702654Y1053000D01*
X627654D02*
X628670Y1054016D01*
X629686D01*
X628670Y1055032D01*
X629686Y1056048D01*
X628670D01*
X627654Y1057064D01*
X626638Y1056048D01*
X625622D01*
X626638Y1055032D01*
X625622Y1054016D01*
X626638D01*
X627654Y1053000D01*
X1185122Y1293000D02*
Y1297064D01*
X1189186D01*
Y1293000D01*
X1185122D01*
X595122Y498000D02*
Y502064D01*
X599186D01*
Y498000D01*
X595122D01*
X771122Y605350D02*
X772138Y607382D01*
X771122Y609414D01*
X773154Y608398D01*
X775186Y609414D01*
X774170Y607382D01*
X775186Y605350D01*
X773154Y606366D01*
X771122Y605350D01*
Y592650D02*
X772138Y594682D01*
X771122Y596714D01*
X773154Y595698D01*
X775186Y596714D01*
X774170Y594682D01*
X775186Y592650D01*
X773154Y593666D01*
X771122Y592650D01*
X980254Y516700D02*
X978222Y520764D01*
X982286D01*
X980254Y516700D01*
X954854D02*
X952822Y520764D01*
X956886D01*
X954854Y516700D01*
X929454D02*
X927422Y520764D01*
X931486D01*
X929454Y516700D01*
X904054D02*
X902022Y520764D01*
X906086D01*
X904054Y516700D01*
Y491300D02*
X902022Y495364D01*
X906086D01*
X904054Y491300D01*
X929454D02*
X927422Y495364D01*
X931486D01*
X929454Y491300D01*
X954854D02*
X952822Y495364D01*
X956886D01*
X954854Y491300D01*
X980254D02*
X978222Y495364D01*
X982286D01*
X980254Y491300D01*
X1047138Y774016D02*
Y773000D01*
X1049170D01*
Y774016D01*
X1050186D01*
Y776048D01*
X1049170D01*
Y777064D01*
X1047138D01*
Y776048D01*
X1046122D01*
Y774016D01*
X1047138D01*
X676956Y735016D02*
Y734000D01*
X678988D01*
Y735016D01*
X680004D01*
Y737048D01*
X678988D01*
Y738064D01*
X676956D01*
Y737048D01*
X675940D01*
Y735016D01*
X676956D01*
X1089138Y583516D02*
Y582500D01*
X1091170D01*
Y583516D01*
X1092186D01*
Y585548D01*
X1091170D01*
Y586564D01*
X1089138D01*
Y585548D01*
X1088122D01*
Y583516D01*
X1089138D01*
X725138Y496016D02*
Y495000D01*
X727170D01*
Y496016D01*
X728186D01*
Y498048D01*
X727170D01*
Y499064D01*
X725138D01*
Y498048D01*
X724122D01*
Y496016D01*
X725138D01*
X650138D02*
Y495000D01*
X652170D01*
Y496016D01*
X653186D01*
Y498048D01*
X652170D01*
Y499064D01*
X650138D01*
Y498048D01*
X649122D01*
Y496016D01*
X650138D01*
X699138D02*
Y495000D01*
X701170D01*
Y496016D01*
X702186D01*
Y498048D01*
X701170D01*
Y499064D01*
X699138D01*
Y498048D01*
X698122D01*
Y496016D01*
X699138D01*
X676138D02*
Y495000D01*
X678170D01*
Y496016D01*
X679186D01*
Y498048D01*
X678170D01*
Y499064D01*
X676138D01*
Y498048D01*
X675122D01*
Y496016D01*
X676138D01*
X1047138Y1105016D02*
Y1104000D01*
X1049170D01*
Y1105016D01*
X1050186D01*
Y1107048D01*
X1049170D01*
Y1108064D01*
X1047138D01*
Y1107048D01*
X1046122D01*
Y1105016D01*
X1047138D01*
Y1048016D02*
Y1047000D01*
X1049170D01*
Y1048016D01*
X1050186D01*
Y1050048D01*
X1049170D01*
Y1051064D01*
X1047138D01*
Y1050048D01*
X1046122D01*
Y1048016D01*
X1047138D01*
X1032343Y824016D02*
Y823000D01*
X1034374D01*
Y824016D01*
X1035390D01*
Y826048D01*
X1034374D01*
Y827064D01*
X1032343D01*
Y826048D01*
X1031327D01*
Y824016D01*
X1032343D01*
X893138Y823016D02*
Y822000D01*
X895170D01*
Y823016D01*
X896186D01*
Y825048D01*
X895170D01*
Y826064D01*
X893138D01*
Y825048D01*
X892122D01*
Y823016D01*
X893138D01*
X952138Y834016D02*
Y833000D01*
X954170D01*
Y834016D01*
X955186D01*
Y836048D01*
X954170D01*
Y837064D01*
X952138D01*
Y836048D01*
X951122D01*
Y834016D01*
X952138D01*
X815138D02*
Y833000D01*
X817170D01*
Y834016D01*
X818186D01*
Y836048D01*
X817170D01*
Y837064D01*
X815138D01*
Y836048D01*
X814122D01*
Y834016D01*
X815138D01*
X761138Y815016D02*
Y814000D01*
X763170D01*
Y815016D01*
X764186D01*
Y817048D01*
X763170D01*
Y818064D01*
X761138D01*
Y817048D01*
X760122D01*
Y815016D01*
X761138D01*
Y827016D02*
Y826000D01*
X763170D01*
Y827016D01*
X764186D01*
Y829048D01*
X763170D01*
Y830064D01*
X761138D01*
Y829048D01*
X760122D01*
Y827016D01*
X761138D01*
Y839016D02*
Y838000D01*
X763170D01*
Y839016D01*
X764186D01*
Y841048D01*
X763170D01*
Y842064D01*
X761138D01*
Y841048D01*
X760122D01*
Y839016D01*
X761138D01*
Y851016D02*
Y850000D01*
X763170D01*
Y851016D01*
X764186D01*
Y853048D01*
X763170D01*
Y854064D01*
X761138D01*
Y853048D01*
X760122D01*
Y851016D01*
X761138D01*
X865623Y764016D02*
Y763000D01*
X867655D01*
Y764016D01*
X868671D01*
Y766048D01*
X867655D01*
Y767064D01*
X865623D01*
Y766048D01*
X864607D01*
Y764016D01*
X865623D01*
X741138Y934016D02*
Y933000D01*
X743170D01*
Y934016D01*
X744186D01*
Y936048D01*
X743170D01*
Y937064D01*
X741138D01*
Y936048D01*
X740122D01*
Y934016D01*
X741138D01*
Y949016D02*
Y948000D01*
X743170D01*
Y949016D01*
X744186D01*
Y951048D01*
X743170D01*
Y952064D01*
X741138D01*
Y951048D01*
X740122D01*
Y949016D01*
X741138D01*
X1193138Y1048016D02*
Y1047000D01*
X1195170D01*
Y1048016D01*
X1196186D01*
Y1050048D01*
X1195170D01*
Y1051064D01*
X1193138D01*
Y1050048D01*
X1192122D01*
Y1048016D01*
X1193138D01*
X904638D02*
Y1047000D01*
X906670D01*
Y1048016D01*
X907686D01*
Y1050048D01*
X906670D01*
Y1051064D01*
X904638D01*
Y1050048D01*
X903622D01*
Y1048016D01*
X904638D01*
X1165138Y941016D02*
Y940000D01*
X1167170D01*
Y941016D01*
X1168186D01*
Y943048D01*
X1167170D01*
Y944064D01*
X1165138D01*
Y943048D01*
X1164122D01*
Y941016D01*
X1165138D01*
Y956016D02*
Y955000D01*
X1167170D01*
Y956016D01*
X1168186D01*
Y958048D01*
X1167170D01*
Y959064D01*
X1165138D01*
Y958048D01*
X1164122D01*
Y956016D01*
X1165138D01*
Y971016D02*
Y970000D01*
X1167170D01*
Y971016D01*
X1168186D01*
Y973048D01*
X1167170D01*
Y974064D01*
X1165138D01*
Y973048D01*
X1164122D01*
Y971016D01*
X1165138D01*
Y986016D02*
Y985000D01*
X1167170D01*
Y986016D01*
X1168186D01*
Y988048D01*
X1167170D01*
Y989064D01*
X1165138D01*
Y988048D01*
X1164122D01*
Y986016D01*
X1165138D01*
Y1001016D02*
Y1000000D01*
X1167170D01*
Y1001016D01*
X1168186D01*
Y1003048D01*
X1167170D01*
Y1004064D01*
X1165138D01*
Y1003048D01*
X1164122D01*
Y1001016D01*
X1165138D01*
X1177138D02*
Y1000000D01*
X1179170D01*
Y1001016D01*
X1180186D01*
Y1003048D01*
X1179170D01*
Y1004064D01*
X1177138D01*
Y1003048D01*
X1176122D01*
Y1001016D01*
X1177138D01*
Y986016D02*
Y985000D01*
X1179170D01*
Y986016D01*
X1180186D01*
Y988048D01*
X1179170D01*
Y989064D01*
X1177138D01*
Y988048D01*
X1176122D01*
Y986016D01*
X1177138D01*
Y971016D02*
Y970000D01*
X1179170D01*
Y971016D01*
X1180186D01*
Y973048D01*
X1179170D01*
Y974064D01*
X1177138D01*
Y973048D01*
X1176122D01*
Y971016D01*
X1177138D01*
Y956016D02*
Y955000D01*
X1179170D01*
Y956016D01*
X1180186D01*
Y958048D01*
X1179170D01*
Y959064D01*
X1177138D01*
Y958048D01*
X1176122D01*
Y956016D01*
X1177138D01*
Y941016D02*
Y940000D01*
X1179170D01*
Y941016D01*
X1180186D01*
Y943048D01*
X1179170D01*
Y944064D01*
X1177138D01*
Y943048D01*
X1176122D01*
Y941016D01*
X1177138D01*
X1153138D02*
Y940000D01*
X1155170D01*
Y941016D01*
X1156186D01*
Y943048D01*
X1155170D01*
Y944064D01*
X1153138D01*
Y943048D01*
X1152122D01*
Y941016D01*
X1153138D01*
Y956016D02*
Y955000D01*
X1155170D01*
Y956016D01*
X1156186D01*
Y958048D01*
X1155170D01*
Y959064D01*
X1153138D01*
Y958048D01*
X1152122D01*
Y956016D01*
X1153138D01*
Y971016D02*
Y970000D01*
X1155170D01*
Y971016D01*
X1156186D01*
Y973048D01*
X1155170D01*
Y974064D01*
X1153138D01*
Y973048D01*
X1152122D01*
Y971016D01*
X1153138D01*
Y986016D02*
Y985000D01*
X1155170D01*
Y986016D01*
X1156186D01*
Y988048D01*
X1155170D01*
Y989064D01*
X1153138D01*
Y988048D01*
X1152122D01*
Y986016D01*
X1153138D01*
Y1001016D02*
Y1000000D01*
X1155170D01*
Y1001016D01*
X1156186D01*
Y1003048D01*
X1155170D01*
Y1004064D01*
X1153138D01*
Y1003048D01*
X1152122D01*
Y1001016D01*
X1153138D01*
X1141138D02*
Y1000000D01*
X1143170D01*
Y1001016D01*
X1144186D01*
Y1003048D01*
X1143170D01*
Y1004064D01*
X1141138D01*
Y1003048D01*
X1140122D01*
Y1001016D01*
X1141138D01*
Y986016D02*
Y985000D01*
X1143170D01*
Y986016D01*
X1144186D01*
Y988048D01*
X1143170D01*
Y989064D01*
X1141138D01*
Y988048D01*
X1140122D01*
Y986016D01*
X1141138D01*
Y971016D02*
Y970000D01*
X1143170D01*
Y971016D01*
X1144186D01*
Y973048D01*
X1143170D01*
Y974064D01*
X1141138D01*
Y973048D01*
X1140122D01*
Y971016D01*
X1141138D01*
Y956016D02*
Y955000D01*
X1143170D01*
Y956016D01*
X1144186D01*
Y958048D01*
X1143170D01*
Y959064D01*
X1141138D01*
Y958048D01*
X1140122D01*
Y956016D01*
X1141138D01*
Y941016D02*
Y940000D01*
X1143170D01*
Y941016D01*
X1144186D01*
Y943048D01*
X1143170D01*
Y944064D01*
X1141138D01*
Y943048D01*
X1140122D01*
Y941016D01*
X1141138D01*
X1118138Y1001016D02*
Y1000000D01*
X1120170D01*
Y1001016D01*
X1121186D01*
Y1003048D01*
X1120170D01*
Y1004064D01*
X1118138D01*
Y1003048D01*
X1117122D01*
Y1001016D01*
X1118138D01*
Y986016D02*
Y985000D01*
X1120170D01*
Y986016D01*
X1121186D01*
Y988048D01*
X1120170D01*
Y989064D01*
X1118138D01*
Y988048D01*
X1117122D01*
Y986016D01*
X1118138D01*
Y971016D02*
Y970000D01*
X1120170D01*
Y971016D01*
X1121186D01*
Y973048D01*
X1120170D01*
Y974064D01*
X1118138D01*
Y973048D01*
X1117122D01*
Y971016D01*
X1118138D01*
Y956016D02*
Y955000D01*
X1120170D01*
Y956016D01*
X1121186D01*
Y958048D01*
X1120170D01*
Y959064D01*
X1118138D01*
Y958048D01*
X1117122D01*
Y956016D01*
X1118138D01*
Y941016D02*
Y940000D01*
X1120170D01*
Y941016D01*
X1121186D01*
Y943048D01*
X1120170D01*
Y944064D01*
X1118138D01*
Y943048D01*
X1117122D01*
Y941016D01*
X1118138D01*
X1106138D02*
Y940000D01*
X1108170D01*
Y941016D01*
X1109186D01*
Y943048D01*
X1108170D01*
Y944064D01*
X1106138D01*
Y943048D01*
X1105122D01*
Y941016D01*
X1106138D01*
Y956016D02*
Y955000D01*
X1108170D01*
Y956016D01*
X1109186D01*
Y958048D01*
X1108170D01*
Y959064D01*
X1106138D01*
Y958048D01*
X1105122D01*
Y956016D01*
X1106138D01*
Y971016D02*
Y970000D01*
X1108170D01*
Y971016D01*
X1109186D01*
Y973048D01*
X1108170D01*
Y974064D01*
X1106138D01*
Y973048D01*
X1105122D01*
Y971016D01*
X1106138D01*
Y986016D02*
Y985000D01*
X1108170D01*
Y986016D01*
X1109186D01*
Y988048D01*
X1108170D01*
Y989064D01*
X1106138D01*
Y988048D01*
X1105122D01*
Y986016D01*
X1106138D01*
Y1001016D02*
Y1000000D01*
X1108170D01*
Y1001016D01*
X1109186D01*
Y1003048D01*
X1108170D01*
Y1004064D01*
X1106138D01*
Y1003048D01*
X1105122D01*
Y1001016D01*
X1106138D01*
X962138D02*
Y1000000D01*
X964170D01*
Y1001016D01*
X965186D01*
Y1003048D01*
X964170D01*
Y1004064D01*
X962138D01*
Y1003048D01*
X961122D01*
Y1001016D01*
X962138D01*
Y986016D02*
Y985000D01*
X964170D01*
Y986016D01*
X965186D01*
Y988048D01*
X964170D01*
Y989064D01*
X962138D01*
Y988048D01*
X961122D01*
Y986016D01*
X962138D01*
Y971016D02*
Y970000D01*
X964170D01*
Y971016D01*
X965186D01*
Y973048D01*
X964170D01*
Y974064D01*
X962138D01*
Y973048D01*
X961122D01*
Y971016D01*
X962138D01*
Y956016D02*
Y955000D01*
X964170D01*
Y956016D01*
X965186D01*
Y958048D01*
X964170D01*
Y959064D01*
X962138D01*
Y958048D01*
X961122D01*
Y956016D01*
X962138D01*
Y941016D02*
Y940000D01*
X964170D01*
Y941016D01*
X965186D01*
Y943048D01*
X964170D01*
Y944064D01*
X962138D01*
Y943048D01*
X961122D01*
Y941016D01*
X962138D01*
X974138D02*
Y940000D01*
X976170D01*
Y941016D01*
X977186D01*
Y943048D01*
X976170D01*
Y944064D01*
X974138D01*
Y943048D01*
X973122D01*
Y941016D01*
X974138D01*
Y956016D02*
Y955000D01*
X976170D01*
Y956016D01*
X977186D01*
Y958048D01*
X976170D01*
Y959064D01*
X974138D01*
Y958048D01*
X973122D01*
Y956016D01*
X974138D01*
Y971016D02*
Y970000D01*
X976170D01*
Y971016D01*
X977186D01*
Y973048D01*
X976170D01*
Y974064D01*
X974138D01*
Y973048D01*
X973122D01*
Y971016D01*
X974138D01*
Y986016D02*
Y985000D01*
X976170D01*
Y986016D01*
X977186D01*
Y988048D01*
X976170D01*
Y989064D01*
X974138D01*
Y988048D01*
X973122D01*
Y986016D01*
X974138D01*
Y1001016D02*
Y1000000D01*
X976170D01*
Y1001016D01*
X977186D01*
Y1003048D01*
X976170D01*
Y1004064D01*
X974138D01*
Y1003048D01*
X973122D01*
Y1001016D01*
X974138D01*
X997138Y941016D02*
Y940000D01*
X999170D01*
Y941016D01*
X1000186D01*
Y943048D01*
X999170D01*
Y944064D01*
X997138D01*
Y943048D01*
X996122D01*
Y941016D01*
X997138D01*
Y956016D02*
Y955000D01*
X999170D01*
Y956016D01*
X1000186D01*
Y958048D01*
X999170D01*
Y959064D01*
X997138D01*
Y958048D01*
X996122D01*
Y956016D01*
X997138D01*
Y971016D02*
Y970000D01*
X999170D01*
Y971016D01*
X1000186D01*
Y973048D01*
X999170D01*
Y974064D01*
X997138D01*
Y973048D01*
X996122D01*
Y971016D01*
X997138D01*
Y986016D02*
Y985000D01*
X999170D01*
Y986016D01*
X1000186D01*
Y988048D01*
X999170D01*
Y989064D01*
X997138D01*
Y988048D01*
X996122D01*
Y986016D01*
X997138D01*
Y1001016D02*
Y1000000D01*
X999170D01*
Y1001016D01*
X1000186D01*
Y1003048D01*
X999170D01*
Y1004064D01*
X997138D01*
Y1003048D01*
X996122D01*
Y1001016D01*
X997138D01*
X1009138D02*
Y1000000D01*
X1011170D01*
Y1001016D01*
X1012186D01*
Y1003048D01*
X1011170D01*
Y1004064D01*
X1009138D01*
Y1003048D01*
X1008122D01*
Y1001016D01*
X1009138D01*
Y986016D02*
Y985000D01*
X1011170D01*
Y986016D01*
X1012186D01*
Y988048D01*
X1011170D01*
Y989064D01*
X1009138D01*
Y988048D01*
X1008122D01*
Y986016D01*
X1009138D01*
Y971016D02*
Y970000D01*
X1011170D01*
Y971016D01*
X1012186D01*
Y973048D01*
X1011170D01*
Y974064D01*
X1009138D01*
Y973048D01*
X1008122D01*
Y971016D01*
X1009138D01*
Y956016D02*
Y955000D01*
X1011170D01*
Y956016D01*
X1012186D01*
Y958048D01*
X1011170D01*
Y959064D01*
X1009138D01*
Y958048D01*
X1008122D01*
Y956016D01*
X1009138D01*
Y941016D02*
Y940000D01*
X1011170D01*
Y941016D01*
X1012186D01*
Y943048D01*
X1011170D01*
Y944064D01*
X1009138D01*
Y943048D01*
X1008122D01*
Y941016D01*
X1009138D01*
X1033138D02*
Y940000D01*
X1035170D01*
Y941016D01*
X1036186D01*
Y943048D01*
X1035170D01*
Y944064D01*
X1033138D01*
Y943048D01*
X1032122D01*
Y941016D01*
X1033138D01*
Y956016D02*
Y955000D01*
X1035170D01*
Y956016D01*
X1036186D01*
Y958048D01*
X1035170D01*
Y959064D01*
X1033138D01*
Y958048D01*
X1032122D01*
Y956016D01*
X1033138D01*
Y971016D02*
Y970000D01*
X1035170D01*
Y971016D01*
X1036186D01*
Y973048D01*
X1035170D01*
Y974064D01*
X1033138D01*
Y973048D01*
X1032122D01*
Y971016D01*
X1033138D01*
Y986016D02*
Y985000D01*
X1035170D01*
Y986016D01*
X1036186D01*
Y988048D01*
X1035170D01*
Y989064D01*
X1033138D01*
Y988048D01*
X1032122D01*
Y986016D01*
X1033138D01*
Y1001016D02*
Y1000000D01*
X1035170D01*
Y1001016D01*
X1036186D01*
Y1003048D01*
X1035170D01*
Y1004064D01*
X1033138D01*
Y1003048D01*
X1032122D01*
Y1001016D01*
X1033138D01*
X1021138D02*
Y1000000D01*
X1023170D01*
Y1001016D01*
X1024186D01*
Y1003048D01*
X1023170D01*
Y1004064D01*
X1021138D01*
Y1003048D01*
X1020122D01*
Y1001016D01*
X1021138D01*
Y986016D02*
Y985000D01*
X1023170D01*
Y986016D01*
X1024186D01*
Y988048D01*
X1023170D01*
Y989064D01*
X1021138D01*
Y988048D01*
X1020122D01*
Y986016D01*
X1021138D01*
Y971016D02*
Y970000D01*
X1023170D01*
Y971016D01*
X1024186D01*
Y973048D01*
X1023170D01*
Y974064D01*
X1021138D01*
Y973048D01*
X1020122D01*
Y971016D01*
X1021138D01*
Y956016D02*
Y955000D01*
X1023170D01*
Y956016D01*
X1024186D01*
Y958048D01*
X1023170D01*
Y959064D01*
X1021138D01*
Y958048D01*
X1020122D01*
Y956016D01*
X1021138D01*
Y941016D02*
Y940000D01*
X1023170D01*
Y941016D01*
X1024186D01*
Y943048D01*
X1023170D01*
Y944064D01*
X1021138D01*
Y943048D01*
X1020122D01*
Y941016D01*
X1021138D01*
X877138D02*
Y940000D01*
X879170D01*
Y941016D01*
X880186D01*
Y943048D01*
X879170D01*
Y944064D01*
X877138D01*
Y943048D01*
X876122D01*
Y941016D01*
X877138D01*
Y956016D02*
Y955000D01*
X879170D01*
Y956016D01*
X880186D01*
Y958048D01*
X879170D01*
Y959064D01*
X877138D01*
Y958048D01*
X876122D01*
Y956016D01*
X877138D01*
Y971016D02*
Y970000D01*
X879170D01*
Y971016D01*
X880186D01*
Y973048D01*
X879170D01*
Y974064D01*
X877138D01*
Y973048D01*
X876122D01*
Y971016D01*
X877138D01*
Y986016D02*
Y985000D01*
X879170D01*
Y986016D01*
X880186D01*
Y988048D01*
X879170D01*
Y989064D01*
X877138D01*
Y988048D01*
X876122D01*
Y986016D01*
X877138D01*
Y1001016D02*
Y1000000D01*
X879170D01*
Y1001016D01*
X880186D01*
Y1003048D01*
X879170D01*
Y1004064D01*
X877138D01*
Y1003048D01*
X876122D01*
Y1001016D01*
X877138D01*
X889138D02*
Y1000000D01*
X891170D01*
Y1001016D01*
X892186D01*
Y1003048D01*
X891170D01*
Y1004064D01*
X889138D01*
Y1003048D01*
X888122D01*
Y1001016D01*
X889138D01*
Y986016D02*
Y985000D01*
X891170D01*
Y986016D01*
X892186D01*
Y988048D01*
X891170D01*
Y989064D01*
X889138D01*
Y988048D01*
X888122D01*
Y986016D01*
X889138D01*
Y971016D02*
Y970000D01*
X891170D01*
Y971016D01*
X892186D01*
Y973048D01*
X891170D01*
Y974064D01*
X889138D01*
Y973048D01*
X888122D01*
Y971016D01*
X889138D01*
Y956016D02*
Y955000D01*
X891170D01*
Y956016D01*
X892186D01*
Y958048D01*
X891170D01*
Y959064D01*
X889138D01*
Y958048D01*
X888122D01*
Y956016D01*
X889138D01*
Y941016D02*
Y940000D01*
X891170D01*
Y941016D01*
X892186D01*
Y943048D01*
X891170D01*
Y944064D01*
X889138D01*
Y943048D01*
X888122D01*
Y941016D01*
X889138D01*
X865138D02*
Y940000D01*
X867170D01*
Y941016D01*
X868186D01*
Y943048D01*
X867170D01*
Y944064D01*
X865138D01*
Y943048D01*
X864122D01*
Y941016D01*
X865138D01*
Y956016D02*
Y955000D01*
X867170D01*
Y956016D01*
X868186D01*
Y958048D01*
X867170D01*
Y959064D01*
X865138D01*
Y958048D01*
X864122D01*
Y956016D01*
X865138D01*
Y971016D02*
Y970000D01*
X867170D01*
Y971016D01*
X868186D01*
Y973048D01*
X867170D01*
Y974064D01*
X865138D01*
Y973048D01*
X864122D01*
Y971016D01*
X865138D01*
Y986016D02*
Y985000D01*
X867170D01*
Y986016D01*
X868186D01*
Y988048D01*
X867170D01*
Y989064D01*
X865138D01*
Y988048D01*
X864122D01*
Y986016D01*
X865138D01*
Y1001016D02*
Y1000000D01*
X867170D01*
Y1001016D01*
X868186D01*
Y1003048D01*
X867170D01*
Y1004064D01*
X865138D01*
Y1003048D01*
X864122D01*
Y1001016D01*
X865138D01*
X853138D02*
Y1000000D01*
X855170D01*
Y1001016D01*
X856186D01*
Y1003048D01*
X855170D01*
Y1004064D01*
X853138D01*
Y1003048D01*
X852122D01*
Y1001016D01*
X853138D01*
Y986016D02*
Y985000D01*
X855170D01*
Y986016D01*
X856186D01*
Y988048D01*
X855170D01*
Y989064D01*
X853138D01*
Y988048D01*
X852122D01*
Y986016D01*
X853138D01*
Y971016D02*
Y970000D01*
X855170D01*
Y971016D01*
X856186D01*
Y973048D01*
X855170D01*
Y974064D01*
X853138D01*
Y973048D01*
X852122D01*
Y971016D01*
X853138D01*
Y956016D02*
Y955000D01*
X855170D01*
Y956016D01*
X856186D01*
Y958048D01*
X855170D01*
Y959064D01*
X853138D01*
Y958048D01*
X852122D01*
Y956016D01*
X853138D01*
Y941016D02*
Y940000D01*
X855170D01*
Y941016D01*
X856186D01*
Y943048D01*
X855170D01*
Y944064D01*
X853138D01*
Y943048D01*
X852122D01*
Y941016D01*
X853138D01*
X830138Y1001016D02*
Y1000000D01*
X832170D01*
Y1001016D01*
X833186D01*
Y1003048D01*
X832170D01*
Y1004064D01*
X830138D01*
Y1003048D01*
X829122D01*
Y1001016D01*
X830138D01*
Y986016D02*
Y985000D01*
X832170D01*
Y986016D01*
X833186D01*
Y988048D01*
X832170D01*
Y989064D01*
X830138D01*
Y988048D01*
X829122D01*
Y986016D01*
X830138D01*
Y971016D02*
Y970000D01*
X832170D01*
Y971016D01*
X833186D01*
Y973048D01*
X832170D01*
Y974064D01*
X830138D01*
Y973048D01*
X829122D01*
Y971016D01*
X830138D01*
Y956016D02*
Y955000D01*
X832170D01*
Y956016D01*
X833186D01*
Y958048D01*
X832170D01*
Y959064D01*
X830138D01*
Y958048D01*
X829122D01*
Y956016D01*
X830138D01*
Y941016D02*
Y940000D01*
X832170D01*
Y941016D01*
X833186D01*
Y943048D01*
X832170D01*
Y944064D01*
X830138D01*
Y943048D01*
X829122D01*
Y941016D01*
X830138D01*
X1059138Y728016D02*
Y727000D01*
X1061170D01*
Y728016D01*
X1062186D01*
Y730048D01*
X1061170D01*
Y731064D01*
X1059138D01*
Y730048D01*
X1058122D01*
Y728016D01*
X1059138D01*
X1131728Y650128D02*
Y649112D01*
X1133760D01*
Y650128D01*
X1134776D01*
Y652160D01*
X1133760D01*
Y653176D01*
X1131728D01*
Y652160D01*
X1130712D01*
Y650128D01*
X1131728D01*
X628138Y583016D02*
Y582000D01*
X630170D01*
Y583016D01*
X631186D01*
Y585048D01*
X630170D01*
Y586064D01*
X628138D01*
Y585048D01*
X627122D01*
Y583016D01*
X628138D01*
X849138Y703516D02*
Y702500D01*
X851170D01*
Y703516D01*
X852186D01*
Y705548D01*
X851170D01*
Y706564D01*
X849138D01*
Y705548D01*
X848122D01*
Y703516D01*
X849138D01*
X859393Y554016D02*
Y553000D01*
X861425D01*
Y554016D01*
X862441D01*
Y556048D01*
X861425D01*
Y557064D01*
X859393D01*
Y556048D01*
X858377D01*
Y554016D01*
X859393D01*
X995138Y662016D02*
Y661000D01*
X997170D01*
Y662016D01*
X998186D01*
Y664048D01*
X997170D01*
Y665064D01*
X995138D01*
Y664048D01*
X994122D01*
Y662016D01*
X995138D01*
Y671016D02*
Y670000D01*
X997170D01*
Y671016D01*
X998186D01*
Y673048D01*
X997170D01*
Y674064D01*
X995138D01*
Y673048D01*
X994122D01*
Y671016D01*
X995138D01*
X963138Y659016D02*
Y658000D01*
X965170D01*
Y659016D01*
X966186D01*
Y661048D01*
X965170D01*
Y662064D01*
X963138D01*
Y661048D01*
X962122D01*
Y659016D01*
X963138D01*
X1120678Y619516D02*
Y618500D01*
X1122710D01*
Y619516D01*
X1123726D01*
Y621548D01*
X1122710D01*
Y622564D01*
X1120678D01*
Y621548D01*
X1119662D01*
Y619516D01*
X1120678D01*
X1097138Y595266D02*
Y594250D01*
X1099170D01*
Y595266D01*
X1100186D01*
Y597298D01*
X1099170D01*
Y598314D01*
X1097138D01*
Y597298D01*
X1096122D01*
Y595266D01*
X1097138D01*
X645138Y553016D02*
Y552000D01*
X647170D01*
Y553016D01*
X648186D01*
Y555048D01*
X647170D01*
Y556064D01*
X645138D01*
Y555048D01*
X644122D01*
Y553016D01*
X645138D01*
X730138D02*
Y552000D01*
X732170D01*
Y553016D01*
X733186D01*
Y555048D01*
X732170D01*
Y556064D01*
X730138D01*
Y555048D01*
X729122D01*
Y553016D01*
X730138D01*
X728138Y630856D02*
Y629840D01*
X730170D01*
Y630856D01*
X731186D01*
Y632888D01*
X730170D01*
Y633904D01*
X728138D01*
Y632888D01*
X727122D01*
Y630856D01*
X728138D01*
X591138Y687016D02*
Y686000D01*
X593170D01*
Y687016D01*
X594186D01*
Y689048D01*
X593170D01*
Y690064D01*
X591138D01*
Y689048D01*
X590122D01*
Y687016D01*
X591138D01*
X909138Y771016D02*
Y770000D01*
X911170D01*
Y771016D01*
X912186D01*
Y773048D01*
X911170D01*
Y774064D01*
X909138D01*
Y773048D01*
X908122D01*
Y771016D01*
X909138D01*
X1047138Y823016D02*
Y822000D01*
X1049170D01*
Y823016D01*
X1050186D01*
Y825048D01*
X1049170D01*
Y826064D01*
X1047138D01*
Y825048D01*
X1046122D01*
Y823016D01*
X1047138D01*
X1034138Y735016D02*
Y734000D01*
X1036170D01*
Y735016D01*
X1037186D01*
Y737048D01*
X1036170D01*
Y738064D01*
X1034138D01*
Y737048D01*
X1033122D01*
Y735016D01*
X1034138D01*
X1151938Y734716D02*
Y733700D01*
X1153970D01*
Y734716D01*
X1154986D01*
Y736748D01*
X1153970D01*
Y737764D01*
X1151938D01*
Y736748D01*
X1150922D01*
Y734716D01*
X1151938D01*
X1066138Y638016D02*
Y637000D01*
X1068170D01*
Y638016D01*
X1069186D01*
Y640048D01*
X1068170D01*
Y641064D01*
X1066138D01*
Y640048D01*
X1065122D01*
Y638016D01*
X1066138D01*
Y653016D02*
Y652000D01*
X1068170D01*
Y653016D01*
X1069186D01*
Y655048D01*
X1068170D01*
Y656064D01*
X1066138D01*
Y655048D01*
X1065122D01*
Y653016D01*
X1066138D01*
Y667016D02*
Y666000D01*
X1068170D01*
Y667016D01*
X1069186D01*
Y669048D01*
X1068170D01*
Y670064D01*
X1066138D01*
Y669048D01*
X1065122D01*
Y667016D01*
X1066138D01*
X1066138Y682016D02*
Y681000D01*
X1068170D01*
Y682016D01*
X1069186D01*
Y684048D01*
X1068170D01*
Y685064D01*
X1066138D01*
Y684048D01*
X1065122D01*
Y682016D01*
X1066138D01*
X1066138Y712016D02*
Y711000D01*
X1068170D01*
Y712016D01*
X1069186D01*
Y714048D01*
X1068170D01*
Y715064D01*
X1066138D01*
Y714048D01*
X1065122D01*
Y712016D01*
X1066138D01*
X847138Y626016D02*
Y625000D01*
X849170D01*
Y626016D01*
X850186D01*
Y628048D01*
X849170D01*
Y629064D01*
X847138D01*
Y628048D01*
X846122D01*
Y626016D01*
X847138D01*
X1135488Y824516D02*
Y823500D01*
X1137520D01*
Y824516D01*
X1138536D01*
Y826548D01*
X1137520D01*
Y827564D01*
X1135488D01*
Y826548D01*
X1134472D01*
Y824516D01*
X1135488D01*
X997488D02*
Y823500D01*
X999520D01*
Y824516D01*
X1000536D01*
Y826548D01*
X999520D01*
Y827564D01*
X997488D01*
Y826548D01*
X996472D01*
Y824516D01*
X997488D01*
X859488D02*
Y823500D01*
X861520D01*
Y824516D01*
X862536D01*
Y826548D01*
X861520D01*
Y827564D01*
X859488D01*
Y826548D01*
X858472D01*
Y824516D01*
X859488D01*
X822122Y1123000D02*
X823138D01*
X824154Y1124016D01*
X825170Y1123000D01*
X826186D01*
Y1124016D01*
X825170Y1125032D01*
X826186Y1126048D01*
Y1127064D01*
X825170D01*
X824154Y1126048D01*
X823138Y1127064D01*
X822122D01*
Y1126048D01*
X823138Y1125032D01*
X822122Y1124016D01*
Y1123000D01*
X768226Y1290251D02*
Y1289235D01*
X770258D01*
Y1290251D01*
X771274D01*
Y1292283D01*
X770258D01*
Y1293299D01*
X768226D01*
Y1292283D01*
X767210D01*
Y1290251D01*
X768226D01*
X783633Y1031912D02*
Y1030896D01*
X785666D01*
Y1031912D01*
X786682D01*
Y1033944D01*
X785666D01*
Y1034960D01*
X783633D01*
Y1033944D01*
X782617D01*
Y1031912D01*
X783633D01*
X797095Y1045534D02*
Y1044518D01*
X799128D01*
Y1045534D01*
X800144D01*
Y1047566D01*
X799128D01*
Y1048582D01*
X797095D01*
Y1047566D01*
X796079D01*
Y1045534D01*
X797095D01*
X810050Y1059250D02*
Y1058234D01*
X812082D01*
Y1059250D01*
X813098D01*
Y1061282D01*
X812082D01*
Y1062298D01*
X810050D01*
Y1061282D01*
X809034D01*
Y1059250D01*
X810050D01*
X1142964Y1139575D02*
Y1138559D01*
X1144996D01*
Y1139575D01*
X1146012D01*
Y1141607D01*
X1144996D01*
Y1142623D01*
X1142964D01*
Y1141607D01*
X1141948D01*
Y1139575D01*
X1142964D01*
X818138Y941016D02*
Y940000D01*
X820170D01*
Y941016D01*
X821186D01*
Y943048D01*
X820170D01*
Y944064D01*
X818138D01*
Y943048D01*
X817122D01*
Y941016D01*
X818138D01*
Y956016D02*
Y955000D01*
X820170D01*
Y956016D01*
X821186D01*
Y958048D01*
X820170D01*
Y959064D01*
X818138D01*
Y958048D01*
X817122D01*
Y956016D01*
X818138D01*
Y971016D02*
Y970000D01*
X820170D01*
Y971016D01*
X821186D01*
Y973048D01*
X820170D01*
Y974064D01*
X818138D01*
Y973048D01*
X817122D01*
Y971016D01*
X818138D01*
Y986016D02*
Y985000D01*
X820170D01*
Y986016D01*
X821186D01*
Y988048D01*
X820170D01*
Y989064D01*
X818138D01*
Y988048D01*
X817122D01*
Y986016D01*
X818138D01*
Y1001016D02*
Y1000000D01*
X820170D01*
Y1001016D01*
X821186D01*
Y1003048D01*
X820170D01*
Y1004064D01*
X818138D01*
Y1003048D01*
X817122D01*
Y1001016D01*
X818138D01*
X965122Y1123000D02*
X966138D01*
X967154Y1124016D01*
X968170Y1123000D01*
X969186D01*
Y1124016D01*
X968170Y1125032D01*
X969186Y1126048D01*
Y1127064D01*
X968170D01*
X967154Y1126048D01*
X966138Y1127064D01*
X965122D01*
Y1126048D01*
X966138Y1125032D01*
X965122Y1124016D01*
Y1123000D01*
X1017481Y1299478D02*
Y1298462D01*
X1019513D01*
Y1299478D01*
X1020529D01*
Y1301510D01*
X1019513D01*
Y1302526D01*
X1017481D01*
Y1301510D01*
X1016465D01*
Y1299478D01*
X1017481D01*
Y1272601D02*
Y1271585D01*
X1019513D01*
Y1272601D01*
X1020529D01*
Y1274633D01*
X1019513D01*
Y1275649D01*
X1017481D01*
Y1274633D01*
X1016465D01*
Y1272601D01*
X1017481D01*
Y1259139D02*
Y1258123D01*
X1019513D01*
Y1259139D01*
X1020529D01*
Y1261171D01*
X1019513D01*
Y1262187D01*
X1017481D01*
Y1261171D01*
X1016465D01*
Y1259139D01*
X1017481D01*
Y1245553D02*
Y1244537D01*
X1019513D01*
Y1245553D01*
X1020529D01*
Y1247585D01*
X1019513D01*
Y1248600D01*
X1017481D01*
Y1247585D01*
X1016465D01*
Y1245553D01*
X1017481D01*
Y1287079D02*
Y1286063D01*
X1019513D01*
Y1287079D01*
X1020529D01*
Y1289111D01*
X1019513D01*
Y1290127D01*
X1017481D01*
Y1289111D01*
X1016465D01*
Y1287079D01*
X1017481D01*
X881972Y1286608D02*
Y1285592D01*
X884004D01*
Y1286608D01*
X885020D01*
Y1288640D01*
X884004D01*
Y1289656D01*
X881972D01*
Y1288640D01*
X880956D01*
Y1286608D01*
X881972D01*
Y1245081D02*
Y1244065D01*
X884004D01*
Y1245081D01*
X885020D01*
Y1247113D01*
X884004D01*
Y1248129D01*
X881972D01*
Y1247113D01*
X880956D01*
Y1245081D01*
X881972D01*
Y1258668D02*
Y1257652D01*
X884004D01*
Y1258668D01*
X885020D01*
Y1260700D01*
X884004D01*
Y1261716D01*
X881972D01*
Y1260700D01*
X880956D01*
Y1258668D01*
X881972D01*
Y1272130D02*
Y1271114D01*
X884004D01*
Y1272130D01*
X885020D01*
Y1274162D01*
X884004D01*
Y1275178D01*
X881972D01*
Y1274162D01*
X880956D01*
Y1272130D01*
X881972D01*
Y1299007D02*
Y1297991D01*
X884004D01*
Y1299007D01*
X885020D01*
Y1301039D01*
X884004D01*
Y1302055D01*
X881972D01*
Y1301039D01*
X880956D01*
Y1299007D01*
X881972D01*
X736808Y1133328D02*
Y1132312D01*
X738840D01*
Y1133328D01*
X739856D01*
Y1135360D01*
X738840D01*
Y1136376D01*
X736808D01*
Y1135360D01*
X735792D01*
Y1133328D01*
X736808D01*
Y1109452D02*
Y1108436D01*
X738840D01*
Y1109452D01*
X739856D01*
Y1111484D01*
X738840D01*
Y1112500D01*
X736808D01*
Y1111484D01*
X735792D01*
Y1109452D01*
X736808D01*
Y1085830D02*
Y1084814D01*
X738840D01*
Y1085830D01*
X739856D01*
Y1087862D01*
X738840D01*
Y1088878D01*
X736808D01*
Y1087862D01*
X735792D01*
Y1085830D01*
X736808D01*
Y1177454D02*
Y1176438D01*
X738840D01*
Y1177454D01*
X739856D01*
Y1179486D01*
X738840D01*
Y1180502D01*
X736808D01*
Y1179486D01*
X735792D01*
Y1177454D01*
X736808D01*
Y1155988D02*
Y1154972D01*
X738840D01*
Y1155988D01*
X739856D01*
Y1158020D01*
X738840D01*
Y1159036D01*
X736808D01*
Y1158020D01*
X735792D01*
Y1155988D01*
X736808D01*
Y1203940D02*
Y1202924D01*
X738840D01*
Y1203940D01*
X739856D01*
Y1205972D01*
X738840D01*
Y1206988D01*
X736808D01*
Y1205972D01*
X735792D01*
Y1203940D01*
X736808D01*
X768226Y1239651D02*
Y1238635D01*
X770258D01*
Y1239651D01*
X771274D01*
Y1241683D01*
X770258D01*
Y1242699D01*
X768226D01*
Y1241683D01*
X767210D01*
Y1239651D01*
X768226D01*
Y1274757D02*
Y1273741D01*
X770258D01*
Y1274757D01*
X771274D01*
Y1276789D01*
X770258D01*
Y1277805D01*
X768226D01*
Y1276789D01*
X767210D01*
Y1274757D01*
X768226D01*
Y1255837D02*
Y1254821D01*
X770258D01*
Y1255837D01*
X771274D01*
Y1257869D01*
X770258D01*
Y1258885D01*
X768226D01*
Y1257869D01*
X767210D01*
Y1255837D01*
X768226D01*
Y1222125D02*
Y1221109D01*
X770258D01*
Y1222125D01*
X771274D01*
Y1224157D01*
X770258D01*
Y1225173D01*
X768226D01*
Y1224157D01*
X767210D01*
Y1222125D01*
X768226D01*
X650482Y1288960D02*
Y1287944D01*
X652514D01*
Y1288960D01*
X653530D01*
Y1290992D01*
X652514D01*
Y1292008D01*
X650482D01*
Y1290992D01*
X649466D01*
Y1288960D01*
X650482D01*
Y1272774D02*
Y1271758D01*
X652514D01*
Y1272774D01*
X653530D01*
Y1274806D01*
X652514D01*
Y1275822D01*
X650482D01*
Y1274806D01*
X649466D01*
Y1272774D01*
X650482D01*
Y1255248D02*
Y1254232D01*
X652514D01*
Y1255248D01*
X653530D01*
Y1257280D01*
X652514D01*
Y1258296D01*
X650482D01*
Y1257280D01*
X649466D01*
Y1255248D01*
X650482D01*
Y1307880D02*
Y1306864D01*
X652514D01*
Y1307880D01*
X653530D01*
Y1309912D01*
X652514D01*
Y1310928D01*
X650482D01*
Y1309912D01*
X649466D01*
Y1307880D01*
X650482D01*
Y1177400D02*
Y1176384D01*
X652514D01*
Y1177400D01*
X653530D01*
Y1179432D01*
X652514D01*
Y1180447D01*
X650482D01*
Y1179432D01*
X649466D01*
Y1177400D01*
X650482D01*
Y1203886D02*
Y1202870D01*
X652514D01*
Y1203886D01*
X653530D01*
Y1205918D01*
X652514D01*
Y1206934D01*
X650482D01*
Y1205918D01*
X649466D01*
Y1203886D01*
X650482D01*
Y1133274D02*
Y1132258D01*
X652514D01*
Y1133274D01*
X653530D01*
Y1135306D01*
X652514D01*
Y1136322D01*
X650482D01*
Y1135306D01*
X649466D01*
Y1133274D01*
X650482D01*
Y1085776D02*
Y1084760D01*
X652514D01*
Y1085776D01*
X653530D01*
Y1087808D01*
X652514D01*
Y1088824D01*
X650482D01*
Y1087808D01*
X649466D01*
Y1085776D01*
X650482D01*
Y1109398D02*
Y1108382D01*
X652514D01*
Y1109398D01*
X653530D01*
Y1111430D01*
X652514D01*
Y1112446D01*
X650482D01*
Y1111430D01*
X649466D01*
Y1109398D01*
X650482D01*
Y1155934D02*
Y1154918D01*
X652514D01*
Y1155934D01*
X653530D01*
Y1157966D01*
X652514D01*
Y1158982D01*
X650482D01*
Y1157966D01*
X649466D01*
Y1155934D01*
X650482D01*
X721870Y1203940D02*
Y1202924D01*
X723902D01*
Y1203940D01*
X724918D01*
Y1205972D01*
X723902D01*
Y1206988D01*
X721870D01*
Y1205972D01*
X720854D01*
Y1203940D01*
X721870D01*
X703122D02*
Y1202924D01*
X705154D01*
Y1203940D01*
X706170D01*
Y1205972D01*
X705154D01*
Y1206988D01*
X703122D01*
Y1205972D01*
X702106D01*
Y1203940D01*
X703122D01*
X721870Y1155988D02*
Y1154972D01*
X723902D01*
Y1155988D01*
X724918D01*
Y1158020D01*
X723902D01*
Y1159036D01*
X721870D01*
Y1158020D01*
X720854D01*
Y1155988D01*
X721870D01*
Y1177454D02*
Y1176438D01*
X723902D01*
Y1177454D01*
X724918D01*
Y1179486D01*
X723902D01*
Y1180502D01*
X721870D01*
Y1179486D01*
X720854D01*
Y1177454D01*
X721870D01*
X703122Y1155988D02*
Y1154972D01*
X705154D01*
Y1155988D01*
X706170D01*
Y1158020D01*
X705154D01*
Y1159036D01*
X703122D01*
Y1158020D01*
X702106D01*
Y1155988D01*
X703122D01*
Y1177454D02*
Y1176438D01*
X705154D01*
Y1177454D01*
X706170D01*
Y1179486D01*
X705154D01*
Y1180502D01*
X703122D01*
Y1179486D01*
X702106D01*
Y1177454D01*
X703122D01*
X1031804Y1299438D02*
Y1298422D01*
X1033836D01*
Y1299438D01*
X1034852D01*
Y1301470D01*
X1033836D01*
Y1302486D01*
X1031804D01*
Y1301470D01*
X1030788D01*
Y1299438D01*
X1031804D01*
X898581Y1299221D02*
Y1298205D01*
X900613D01*
Y1299221D01*
X901629D01*
Y1301253D01*
X900613D01*
Y1302269D01*
X898581D01*
Y1301253D01*
X897565D01*
Y1299221D01*
X898581D01*
X1031804Y1270508D02*
Y1269492D01*
X1033836D01*
Y1270508D01*
X1034852D01*
Y1272540D01*
X1033836D01*
Y1273556D01*
X1031804D01*
Y1272540D01*
X1030788D01*
Y1270508D01*
X1031804D01*
Y1257046D02*
Y1256030D01*
X1033836D01*
Y1257046D01*
X1034852D01*
Y1259078D01*
X1033836D01*
Y1260094D01*
X1031804D01*
Y1259078D01*
X1030788D01*
Y1257046D01*
X1031804D01*
Y1243459D02*
Y1242443D01*
X1033836D01*
Y1243459D01*
X1034852D01*
Y1245491D01*
X1033836D01*
Y1246507D01*
X1031804D01*
Y1245491D01*
X1030788D01*
Y1243459D01*
X1031804D01*
Y1284986D02*
Y1283970D01*
X1033836D01*
Y1284986D01*
X1034852D01*
Y1287018D01*
X1033836D01*
Y1288034D01*
X1031804D01*
Y1287018D01*
X1030788D01*
Y1284986D01*
X1031804D01*
X898581Y1272344D02*
Y1271328D01*
X900613D01*
Y1272344D01*
X901629D01*
Y1274376D01*
X900613D01*
Y1275392D01*
X898581D01*
Y1274376D01*
X897565D01*
Y1272344D01*
X898581D01*
Y1258882D02*
Y1257866D01*
X900613D01*
Y1258882D01*
X901629D01*
Y1260914D01*
X900613D01*
Y1261930D01*
X898581D01*
Y1260914D01*
X897565D01*
Y1258882D01*
X898581D01*
Y1245296D02*
Y1244280D01*
X900613D01*
Y1245296D01*
X901629D01*
Y1247328D01*
X900613D01*
Y1248344D01*
X898581D01*
Y1247328D01*
X897565D01*
Y1245296D01*
X898581D01*
Y1286822D02*
Y1285806D01*
X900613D01*
Y1286822D01*
X901629D01*
Y1288854D01*
X900613D01*
Y1289870D01*
X898581D01*
Y1288854D01*
X897565D01*
Y1286822D01*
X898581D01*
X735586Y1255248D02*
Y1254232D01*
X737618D01*
Y1255248D01*
X738634D01*
Y1257280D01*
X737618D01*
Y1258296D01*
X735586D01*
Y1257280D01*
X734570D01*
Y1255248D01*
X735586D01*
X716838D02*
Y1254232D01*
X718870D01*
Y1255248D01*
X719886D01*
Y1257280D01*
X718870D01*
Y1258296D01*
X716838D01*
Y1257280D01*
X715822D01*
Y1255248D01*
X716838D01*
Y1288960D02*
Y1287944D01*
X718870D01*
Y1288960D01*
X719886D01*
Y1290992D01*
X718870D01*
Y1292008D01*
X716838D01*
Y1290992D01*
X715822D01*
Y1288960D01*
X716838D01*
Y1307880D02*
Y1306864D01*
X718870D01*
Y1307880D01*
X719886D01*
Y1309912D01*
X718870D01*
Y1310928D01*
X716838D01*
Y1309912D01*
X715822D01*
Y1307880D01*
X716838D01*
Y1272774D02*
Y1271758D01*
X718870D01*
Y1272774D01*
X719886D01*
Y1274806D01*
X718870D01*
Y1275822D01*
X716838D01*
Y1274806D01*
X715822D01*
Y1272774D01*
X716838D01*
X735586Y1288960D02*
Y1287944D01*
X737618D01*
Y1288960D01*
X738634D01*
Y1290992D01*
X737618D01*
Y1292008D01*
X735586D01*
Y1290992D01*
X734570D01*
Y1288960D01*
X735586D01*
Y1307880D02*
Y1306864D01*
X737618D01*
Y1307880D01*
X738634D01*
Y1309912D01*
X737618D01*
Y1310928D01*
X735586D01*
Y1309912D01*
X734570D01*
Y1307880D01*
X735586D01*
Y1272774D02*
Y1271758D01*
X737618D01*
Y1272774D01*
X738634D01*
Y1274806D01*
X737618D01*
Y1275822D01*
X735586D01*
Y1274806D01*
X734570D01*
Y1272774D01*
X735586D01*
X703122Y1085830D02*
Y1084814D01*
X705154D01*
Y1085830D01*
X706170D01*
Y1087862D01*
X705154D01*
Y1088878D01*
X703122D01*
Y1087862D01*
X702106D01*
Y1085830D01*
X703122D01*
Y1109452D02*
Y1108436D01*
X705154D01*
Y1109452D01*
X706170D01*
Y1111484D01*
X705154D01*
Y1112500D01*
X703122D01*
Y1111484D01*
X702106D01*
Y1109452D01*
X703122D01*
X721870Y1085830D02*
Y1084814D01*
X723902D01*
Y1085830D01*
X724918D01*
Y1087862D01*
X723902D01*
Y1088878D01*
X721870D01*
Y1087862D01*
X720854D01*
Y1085830D01*
X721870D01*
Y1109452D02*
Y1108436D01*
X723902D01*
Y1109452D01*
X724918D01*
Y1111484D01*
X723902D01*
Y1112500D01*
X721870D01*
Y1111484D01*
X720854D01*
Y1109452D01*
X721870D01*
X703122Y1133328D02*
Y1132312D01*
X705154D01*
Y1133328D01*
X706170D01*
Y1135360D01*
X705154D01*
Y1136376D01*
X703122D01*
Y1135360D01*
X702106D01*
Y1133328D01*
X703122D01*
X721870D02*
Y1132312D01*
X723902D01*
Y1133328D01*
X724918D01*
Y1135360D01*
X723902D01*
Y1136376D01*
X721870D01*
Y1135360D01*
X720854D01*
Y1133328D01*
X721870D01*
X926982Y1120779D02*
Y1119763D01*
X929014D01*
Y1120779D01*
X930030D01*
Y1122811D01*
X929014D01*
Y1123827D01*
X926982D01*
Y1122811D01*
X925966D01*
Y1120779D01*
X926982D01*
X782912Y1122557D02*
Y1121541D01*
X784944D01*
Y1122557D01*
X785960D01*
Y1124589D01*
X784944D01*
Y1125605D01*
X782912D01*
Y1124589D01*
X781896D01*
Y1122557D01*
X782912D01*
X796906Y1085958D02*
Y1084942D01*
X798938D01*
Y1085958D01*
X799954D01*
Y1087990D01*
X798938D01*
Y1089006D01*
X796906D01*
Y1087990D01*
X795890D01*
Y1085958D01*
X796906D01*
X824306D02*
Y1084942D01*
X826338D01*
Y1085958D01*
X827354D01*
Y1087990D01*
X826338D01*
Y1089006D01*
X824306D01*
Y1087990D01*
X823290D01*
Y1085958D01*
X824306D01*
X837906D02*
Y1084942D01*
X839938D01*
Y1085958D01*
X840954D01*
Y1087990D01*
X839938D01*
Y1089006D01*
X837906D01*
Y1087990D01*
X836890D01*
Y1085958D01*
X837906D01*
X851506D02*
Y1084942D01*
X853538D01*
Y1085958D01*
X854554D01*
Y1087990D01*
X853538D01*
Y1089006D01*
X851506D01*
Y1087990D01*
X850490D01*
Y1085958D01*
X851506D01*
X783506D02*
Y1084942D01*
X785538D01*
Y1085958D01*
X786554D01*
Y1087990D01*
X785538D01*
Y1089006D01*
X783506D01*
Y1087990D01*
X782490D01*
Y1085958D01*
X783506D01*
X810706D02*
Y1084942D01*
X812738D01*
Y1085958D01*
X813754D01*
Y1087990D01*
X812738D01*
Y1089006D01*
X810706D01*
Y1087990D01*
X809690D01*
Y1085958D01*
X810706D01*
Y1072458D02*
Y1071442D01*
X812738D01*
Y1072458D01*
X813754D01*
Y1074490D01*
X812738D01*
Y1075506D01*
X810706D01*
Y1074490D01*
X809690D01*
Y1072458D01*
X810706D01*
X783506D02*
Y1071442D01*
X785538D01*
Y1072458D01*
X786554D01*
Y1074490D01*
X785538D01*
Y1075506D01*
X783506D01*
Y1074490D01*
X782490D01*
Y1072458D01*
X783506D01*
X851506D02*
Y1071442D01*
X853538D01*
Y1072458D01*
X854554D01*
Y1074490D01*
X853538D01*
Y1075506D01*
X851506D01*
Y1074490D01*
X850490D01*
Y1072458D01*
X851506D01*
X837906D02*
Y1071442D01*
X839938D01*
Y1072458D01*
X840954D01*
Y1074490D01*
X839938D01*
Y1075506D01*
X837906D01*
Y1074490D01*
X836890D01*
Y1072458D01*
X837906D01*
X824306D02*
Y1071442D01*
X826338D01*
Y1072458D01*
X827354D01*
Y1074490D01*
X826338D01*
Y1075506D01*
X824306D01*
Y1074490D01*
X823290D01*
Y1072458D01*
X824306D01*
X796906D02*
Y1071442D01*
X798938D01*
Y1072458D01*
X799954D01*
Y1074490D01*
X798938D01*
Y1075506D01*
X796906D01*
Y1074490D01*
X795890D01*
Y1072458D01*
X796906D01*
X783506Y1058958D02*
Y1057942D01*
X785538D01*
Y1058958D01*
X786554D01*
Y1060990D01*
X785538D01*
Y1062006D01*
X783506D01*
Y1060990D01*
X782490D01*
Y1058958D01*
X783506D01*
X851506D02*
Y1057942D01*
X853538D01*
Y1058958D01*
X854554D01*
Y1060990D01*
X853538D01*
Y1062006D01*
X851506D01*
Y1060990D01*
X850490D01*
Y1058958D01*
X851506D01*
X837906D02*
Y1057942D01*
X839938D01*
Y1058958D01*
X840954D01*
Y1060990D01*
X839938D01*
Y1062006D01*
X837906D01*
Y1060990D01*
X836890D01*
Y1058958D01*
X837906D01*
X824306D02*
Y1057942D01*
X826338D01*
Y1058958D01*
X827354D01*
Y1060990D01*
X826338D01*
Y1062006D01*
X824306D01*
Y1060990D01*
X823290D01*
Y1058958D01*
X824306D01*
X796906D02*
Y1057942D01*
X798938D01*
Y1058958D01*
X799954D01*
Y1060990D01*
X798938D01*
Y1062006D01*
X796906D01*
Y1060990D01*
X795890D01*
Y1058958D01*
X796906D01*
X810706Y1045458D02*
Y1044442D01*
X812738D01*
Y1045458D01*
X813754D01*
Y1047490D01*
X812738D01*
Y1048506D01*
X810706D01*
Y1047490D01*
X809690D01*
Y1045458D01*
X810706D01*
X783506D02*
Y1044442D01*
X785538D01*
Y1045458D01*
X786554D01*
Y1047490D01*
X785538D01*
Y1048506D01*
X783506D01*
Y1047490D01*
X782490D01*
Y1045458D01*
X783506D01*
X837906D02*
Y1044442D01*
X839938D01*
Y1045458D01*
X840954D01*
Y1047490D01*
X839938D01*
Y1048506D01*
X837906D01*
Y1047490D01*
X836890D01*
Y1045458D01*
X837906D01*
X824306D02*
Y1044442D01*
X826338D01*
Y1045458D01*
X827354D01*
Y1047490D01*
X826338D01*
Y1048506D01*
X824306D01*
Y1047490D01*
X823290D01*
Y1045458D01*
X824306D01*
X810706Y1031958D02*
Y1030942D01*
X812738D01*
Y1031958D01*
X813754D01*
Y1033990D01*
X812738D01*
Y1035006D01*
X810706D01*
Y1033990D01*
X809690D01*
Y1031958D01*
X810706D01*
X851506D02*
Y1030942D01*
X853538D01*
Y1031958D01*
X854554D01*
Y1033990D01*
X853538D01*
Y1035006D01*
X851506D01*
Y1033990D01*
X850490D01*
Y1031958D01*
X851506D01*
X837906D02*
Y1030942D01*
X839938D01*
Y1031958D01*
X840954D01*
Y1033990D01*
X839938D01*
Y1035006D01*
X837906D01*
Y1033990D01*
X836890D01*
Y1031958D01*
X837906D01*
X824306D02*
Y1030942D01*
X826338D01*
Y1031958D01*
X827354D01*
Y1033990D01*
X826338D01*
Y1035006D01*
X824306D01*
Y1033990D01*
X823290D01*
Y1031958D01*
X824306D01*
X796906D02*
Y1030942D01*
X798938D01*
Y1031958D01*
X799954D01*
Y1033990D01*
X798938D01*
Y1035006D01*
X796906D01*
Y1033990D01*
X795890D01*
Y1031958D01*
X796906D01*
X1084776Y1030335D02*
Y1029319D01*
X1086808D01*
Y1030335D01*
X1087824D01*
Y1032367D01*
X1086808D01*
Y1033383D01*
X1084776D01*
Y1032367D01*
X1083760D01*
Y1030335D01*
X1084776D01*
X1111976D02*
Y1029319D01*
X1114008D01*
Y1030335D01*
X1115024D01*
Y1032367D01*
X1114008D01*
Y1033383D01*
X1111976D01*
Y1032367D01*
X1110960D01*
Y1030335D01*
X1111976D01*
X1125576D02*
Y1029319D01*
X1127608D01*
Y1030335D01*
X1128624D01*
Y1032367D01*
X1127608D01*
Y1033383D01*
X1125576D01*
Y1032367D01*
X1124560D01*
Y1030335D01*
X1125576D01*
X1139176D02*
Y1029319D01*
X1141208D01*
Y1030335D01*
X1142224D01*
Y1032367D01*
X1141208D01*
Y1033383D01*
X1139176D01*
Y1032367D01*
X1138160D01*
Y1030335D01*
X1139176D01*
X1071176D02*
Y1029319D01*
X1073208D01*
Y1030335D01*
X1074224D01*
Y1032367D01*
X1073208D01*
Y1033383D01*
X1071176D01*
Y1032367D01*
X1070160D01*
Y1030335D01*
X1071176D01*
X1098376D02*
Y1029319D01*
X1100408D01*
Y1030335D01*
X1101424D01*
Y1032367D01*
X1100408D01*
Y1033383D01*
X1098376D01*
Y1032367D01*
X1097360D01*
Y1030335D01*
X1098376D01*
X1084776Y1043835D02*
Y1042819D01*
X1086808D01*
Y1043835D01*
X1087824D01*
Y1045867D01*
X1086808D01*
Y1046883D01*
X1084776D01*
Y1045867D01*
X1083760D01*
Y1043835D01*
X1084776D01*
X1111976D02*
Y1042819D01*
X1114008D01*
Y1043835D01*
X1115024D01*
Y1045867D01*
X1114008D01*
Y1046883D01*
X1111976D01*
Y1045867D01*
X1110960D01*
Y1043835D01*
X1111976D01*
X1125576D02*
Y1042819D01*
X1127608D01*
Y1043835D01*
X1128624D01*
Y1045867D01*
X1127608D01*
Y1046883D01*
X1125576D01*
Y1045867D01*
X1124560D01*
Y1043835D01*
X1125576D01*
X1139176D02*
Y1042819D01*
X1141208D01*
Y1043835D01*
X1142224D01*
Y1045867D01*
X1141208D01*
Y1046883D01*
X1139176D01*
Y1045867D01*
X1138160D01*
Y1043835D01*
X1139176D01*
X1071176D02*
Y1042819D01*
X1073208D01*
Y1043835D01*
X1074224D01*
Y1045867D01*
X1073208D01*
Y1046883D01*
X1071176D01*
Y1045867D01*
X1070160D01*
Y1043835D01*
X1071176D01*
X1098376D02*
Y1042819D01*
X1100408D01*
Y1043835D01*
X1101424D01*
Y1045867D01*
X1100408D01*
Y1046883D01*
X1098376D01*
Y1045867D01*
X1097360D01*
Y1043835D01*
X1098376D01*
X1084776Y1057335D02*
Y1056319D01*
X1086808D01*
Y1057335D01*
X1087824D01*
Y1059367D01*
X1086808D01*
Y1060383D01*
X1084776D01*
Y1059367D01*
X1083760D01*
Y1057335D01*
X1084776D01*
X1111976D02*
Y1056319D01*
X1114008D01*
Y1057335D01*
X1115024D01*
Y1059367D01*
X1114008D01*
Y1060383D01*
X1111976D01*
Y1059367D01*
X1110960D01*
Y1057335D01*
X1111976D01*
X1125576D02*
Y1056319D01*
X1127608D01*
Y1057335D01*
X1128624D01*
Y1059367D01*
X1127608D01*
Y1060383D01*
X1125576D01*
Y1059367D01*
X1124560D01*
Y1057335D01*
X1125576D01*
X1139176D02*
Y1056319D01*
X1141208D01*
Y1057335D01*
X1142224D01*
Y1059367D01*
X1141208D01*
Y1060383D01*
X1139176D01*
Y1059367D01*
X1138160D01*
Y1057335D01*
X1139176D01*
X1071176D02*
Y1056319D01*
X1073208D01*
Y1057335D01*
X1074224D01*
Y1059367D01*
X1073208D01*
Y1060383D01*
X1071176D01*
Y1059367D01*
X1070160D01*
Y1057335D01*
X1071176D01*
X1098376D02*
Y1056319D01*
X1100408D01*
Y1057335D01*
X1101424D01*
Y1059367D01*
X1100408D01*
Y1060383D01*
X1098376D01*
Y1059367D01*
X1097360D01*
Y1057335D01*
X1098376D01*
X1084776Y1070835D02*
Y1069819D01*
X1086808D01*
Y1070835D01*
X1087824D01*
Y1072867D01*
X1086808D01*
Y1073883D01*
X1084776D01*
Y1072867D01*
X1083760D01*
Y1070835D01*
X1084776D01*
X1111976D02*
Y1069819D01*
X1114008D01*
Y1070835D01*
X1115024D01*
Y1072867D01*
X1114008D01*
Y1073883D01*
X1111976D01*
Y1072867D01*
X1110960D01*
Y1070835D01*
X1111976D01*
X1125576D02*
Y1069819D01*
X1127608D01*
Y1070835D01*
X1128624D01*
Y1072867D01*
X1127608D01*
Y1073883D01*
X1125576D01*
Y1072867D01*
X1124560D01*
Y1070835D01*
X1125576D01*
X1139176D02*
Y1069819D01*
X1141208D01*
Y1070835D01*
X1142224D01*
Y1072867D01*
X1141208D01*
Y1073883D01*
X1139176D01*
Y1072867D01*
X1138160D01*
Y1070835D01*
X1139176D01*
X1071176D02*
Y1069819D01*
X1073208D01*
Y1070835D01*
X1074224D01*
Y1072867D01*
X1073208D01*
Y1073883D01*
X1071176D01*
Y1072867D01*
X1070160D01*
Y1070835D01*
X1071176D01*
X1098376D02*
Y1069819D01*
X1100408D01*
Y1070835D01*
X1101424D01*
Y1072867D01*
X1100408D01*
Y1073883D01*
X1098376D01*
Y1072867D01*
X1097360D01*
Y1070835D01*
X1098376D01*
Y1084335D02*
Y1083319D01*
X1100408D01*
Y1084335D01*
X1101424D01*
Y1086367D01*
X1100408D01*
Y1087383D01*
X1098376D01*
Y1086367D01*
X1097360D01*
Y1084335D01*
X1098376D01*
X1071176D02*
Y1083319D01*
X1073208D01*
Y1084335D01*
X1074224D01*
Y1086367D01*
X1073208D01*
Y1087383D01*
X1071176D01*
Y1086367D01*
X1070160D01*
Y1084335D01*
X1071176D01*
X1139176D02*
Y1083319D01*
X1141208D01*
Y1084335D01*
X1142224D01*
Y1086367D01*
X1141208D01*
Y1087383D01*
X1139176D01*
Y1086367D01*
X1138160D01*
Y1084335D01*
X1139176D01*
X1125576D02*
Y1083319D01*
X1127608D01*
Y1084335D01*
X1128624D01*
Y1086367D01*
X1127608D01*
Y1087383D01*
X1125576D01*
Y1086367D01*
X1124560D01*
Y1084335D01*
X1125576D01*
X1111976D02*
Y1083319D01*
X1114008D01*
Y1084335D01*
X1115024D01*
Y1086367D01*
X1114008D01*
Y1087383D01*
X1111976D01*
Y1086367D01*
X1110960D01*
Y1084335D01*
X1111976D01*
X1084776D02*
Y1083319D01*
X1086808D01*
Y1084335D01*
X1087824D01*
Y1086367D01*
X1086808D01*
Y1087383D01*
X1084776D01*
Y1086367D01*
X1083760D01*
Y1084335D01*
X1084776D01*
X968866Y1033257D02*
Y1032241D01*
X970898D01*
Y1033257D01*
X971914D01*
Y1035289D01*
X970898D01*
Y1036305D01*
X968866D01*
Y1035289D01*
X967850D01*
Y1033257D01*
X968866D01*
X982466D02*
Y1032241D01*
X984498D01*
Y1033257D01*
X985514D01*
Y1035289D01*
X984498D01*
Y1036305D01*
X982466D01*
Y1035289D01*
X981450D01*
Y1033257D01*
X982466D01*
X928066D02*
Y1032241D01*
X930098D01*
Y1033257D01*
X931114D01*
Y1035289D01*
X930098D01*
Y1036305D01*
X928066D01*
Y1035289D01*
X927050D01*
Y1033257D01*
X928066D01*
X955266D02*
Y1032241D01*
X957298D01*
Y1033257D01*
X958314D01*
Y1035289D01*
X957298D01*
Y1036305D01*
X955266D01*
Y1035289D01*
X954250D01*
Y1033257D01*
X955266D01*
X968866Y1046757D02*
Y1045741D01*
X970898D01*
Y1046757D01*
X971914D01*
Y1048789D01*
X970898D01*
Y1049805D01*
X968866D01*
Y1048789D01*
X967850D01*
Y1046757D01*
X968866D01*
X982466D02*
Y1045741D01*
X984498D01*
Y1046757D01*
X985514D01*
Y1048789D01*
X984498D01*
Y1049805D01*
X982466D01*
Y1048789D01*
X981450D01*
Y1046757D01*
X982466D01*
X996066D02*
Y1045741D01*
X998098D01*
Y1046757D01*
X999114D01*
Y1048789D01*
X998098D01*
Y1049805D01*
X996066D01*
Y1048789D01*
X995050D01*
Y1046757D01*
X996066D01*
X928066D02*
Y1045741D01*
X930098D01*
Y1046757D01*
X931114D01*
Y1048789D01*
X930098D01*
Y1049805D01*
X928066D01*
Y1048789D01*
X927050D01*
Y1046757D01*
X928066D01*
X955266D02*
Y1045741D01*
X957298D01*
Y1046757D01*
X958314D01*
Y1048789D01*
X957298D01*
Y1049805D01*
X955266D01*
Y1048789D01*
X954250D01*
Y1046757D01*
X955266D01*
X968866Y1060257D02*
Y1059241D01*
X970898D01*
Y1060257D01*
X971914D01*
Y1062289D01*
X970898D01*
Y1063305D01*
X968866D01*
Y1062289D01*
X967850D01*
Y1060257D01*
X968866D01*
X982466D02*
Y1059241D01*
X984498D01*
Y1060257D01*
X985514D01*
Y1062289D01*
X984498D01*
Y1063305D01*
X982466D01*
Y1062289D01*
X981450D01*
Y1060257D01*
X982466D01*
X996066D02*
Y1059241D01*
X998098D01*
Y1060257D01*
X999114D01*
Y1062289D01*
X998098D01*
Y1063305D01*
X996066D01*
Y1062289D01*
X995050D01*
Y1060257D01*
X996066D01*
X928066D02*
Y1059241D01*
X930098D01*
Y1060257D01*
X931114D01*
Y1062289D01*
X930098D01*
Y1063305D01*
X928066D01*
Y1062289D01*
X927050D01*
Y1060257D01*
X928066D01*
X955266D02*
Y1059241D01*
X957298D01*
Y1060257D01*
X958314D01*
Y1062289D01*
X957298D01*
Y1063305D01*
X955266D01*
Y1062289D01*
X954250D01*
Y1060257D01*
X955266D01*
X968866Y1073757D02*
Y1072741D01*
X970898D01*
Y1073757D01*
X971914D01*
Y1075789D01*
X970898D01*
Y1076805D01*
X968866D01*
Y1075789D01*
X967850D01*
Y1073757D01*
X968866D01*
X982466D02*
Y1072741D01*
X984498D01*
Y1073757D01*
X985514D01*
Y1075789D01*
X984498D01*
Y1076805D01*
X982466D01*
Y1075789D01*
X981450D01*
Y1073757D01*
X982466D01*
X996066D02*
Y1072741D01*
X998098D01*
Y1073757D01*
X999114D01*
Y1075789D01*
X998098D01*
Y1076805D01*
X996066D01*
Y1075789D01*
X995050D01*
Y1073757D01*
X996066D01*
X928066D02*
Y1072741D01*
X930098D01*
Y1073757D01*
X931114D01*
Y1075789D01*
X930098D01*
Y1076805D01*
X928066D01*
Y1075789D01*
X927050D01*
Y1073757D01*
X928066D01*
X955266D02*
Y1072741D01*
X957298D01*
Y1073757D01*
X958314D01*
Y1075789D01*
X957298D01*
Y1076805D01*
X955266D01*
Y1075789D01*
X954250D01*
Y1073757D01*
X955266D01*
Y1087257D02*
Y1086241D01*
X957298D01*
Y1087257D01*
X958314D01*
Y1089289D01*
X957298D01*
Y1090305D01*
X955266D01*
Y1089289D01*
X954250D01*
Y1087257D01*
X955266D01*
X928066D02*
Y1086241D01*
X930098D01*
Y1087257D01*
X931114D01*
Y1089289D01*
X930098D01*
Y1090305D01*
X928066D01*
Y1089289D01*
X927050D01*
Y1087257D01*
X928066D01*
X996066D02*
Y1086241D01*
X998098D01*
Y1087257D01*
X999114D01*
Y1089289D01*
X998098D01*
Y1090305D01*
X996066D01*
Y1089289D01*
X995050D01*
Y1087257D01*
X996066D01*
X982466D02*
Y1086241D01*
X984498D01*
Y1087257D01*
X985514D01*
Y1089289D01*
X984498D01*
Y1090305D01*
X982466D01*
Y1089289D01*
X981450D01*
Y1087257D01*
X982466D01*
X968866D02*
Y1086241D01*
X970898D01*
Y1087257D01*
X971914D01*
Y1089289D01*
X970898D01*
Y1090305D01*
X968866D01*
Y1089289D01*
X967850D01*
Y1087257D01*
X968866D01*
X798376Y1243739D02*
Y1242723D01*
X800408D01*
Y1243739D01*
X801424D01*
Y1245771D01*
X800408D01*
Y1246787D01*
X798376D01*
Y1245771D01*
X797360D01*
Y1243739D01*
X798376D01*
X825576D02*
Y1242723D01*
X827608D01*
Y1243739D01*
X828624D01*
Y1245771D01*
X827608D01*
Y1246787D01*
X825576D01*
Y1245771D01*
X824560D01*
Y1243739D01*
X825576D01*
X839176D02*
Y1242723D01*
X841208D01*
Y1243739D01*
X842224D01*
Y1245771D01*
X841208D01*
Y1246787D01*
X839176D01*
Y1245771D01*
X838160D01*
Y1243739D01*
X839176D01*
X852776D02*
Y1242723D01*
X854808D01*
Y1243739D01*
X855824D01*
Y1245771D01*
X854808D01*
Y1246787D01*
X852776D01*
Y1245771D01*
X851760D01*
Y1243739D01*
X852776D01*
X784776D02*
Y1242723D01*
X786808D01*
Y1243739D01*
X787824D01*
Y1245771D01*
X786808D01*
Y1246787D01*
X784776D01*
Y1245771D01*
X783760D01*
Y1243739D01*
X784776D01*
X811976D02*
Y1242723D01*
X814008D01*
Y1243739D01*
X815024D01*
Y1245771D01*
X814008D01*
Y1246787D01*
X811976D01*
Y1245771D01*
X810960D01*
Y1243739D01*
X811976D01*
X798376Y1257239D02*
Y1256223D01*
X800408D01*
Y1257239D01*
X801424D01*
Y1259271D01*
X800408D01*
Y1260287D01*
X798376D01*
Y1259271D01*
X797360D01*
Y1257239D01*
X798376D01*
X825576D02*
Y1256223D01*
X827608D01*
Y1257239D01*
X828624D01*
Y1259271D01*
X827608D01*
Y1260287D01*
X825576D01*
Y1259271D01*
X824560D01*
Y1257239D01*
X825576D01*
X839176D02*
Y1256223D01*
X841208D01*
Y1257239D01*
X842224D01*
Y1259271D01*
X841208D01*
Y1260287D01*
X839176D01*
Y1259271D01*
X838160D01*
Y1257239D01*
X839176D01*
X852776D02*
Y1256223D01*
X854808D01*
Y1257239D01*
X855824D01*
Y1259271D01*
X854808D01*
Y1260287D01*
X852776D01*
Y1259271D01*
X851760D01*
Y1257239D01*
X852776D01*
X784776D02*
Y1256223D01*
X786808D01*
Y1257239D01*
X787824D01*
Y1259271D01*
X786808D01*
Y1260287D01*
X784776D01*
Y1259271D01*
X783760D01*
Y1257239D01*
X784776D01*
X811976D02*
Y1256223D01*
X814008D01*
Y1257239D01*
X815024D01*
Y1259271D01*
X814008D01*
Y1260287D01*
X811976D01*
Y1259271D01*
X810960D01*
Y1257239D01*
X811976D01*
X798376Y1270739D02*
Y1269723D01*
X800408D01*
Y1270739D01*
X801424D01*
Y1272771D01*
X800408D01*
Y1273787D01*
X798376D01*
Y1272771D01*
X797360D01*
Y1270739D01*
X798376D01*
X825576D02*
Y1269723D01*
X827608D01*
Y1270739D01*
X828624D01*
Y1272771D01*
X827608D01*
Y1273787D01*
X825576D01*
Y1272771D01*
X824560D01*
Y1270739D01*
X825576D01*
X839176D02*
Y1269723D01*
X841208D01*
Y1270739D01*
X842224D01*
Y1272771D01*
X841208D01*
Y1273787D01*
X839176D01*
Y1272771D01*
X838160D01*
Y1270739D01*
X839176D01*
X852776D02*
Y1269723D01*
X854808D01*
Y1270739D01*
X855824D01*
Y1272771D01*
X854808D01*
Y1273787D01*
X852776D01*
Y1272771D01*
X851760D01*
Y1270739D01*
X852776D01*
X784776D02*
Y1269723D01*
X786808D01*
Y1270739D01*
X787824D01*
Y1272771D01*
X786808D01*
Y1273787D01*
X784776D01*
Y1272771D01*
X783760D01*
Y1270739D01*
X784776D01*
X811976D02*
Y1269723D01*
X814008D01*
Y1270739D01*
X815024D01*
Y1272771D01*
X814008D01*
Y1273787D01*
X811976D01*
Y1272771D01*
X810960D01*
Y1270739D01*
X811976D01*
X798376Y1284239D02*
Y1283223D01*
X800408D01*
Y1284239D01*
X801424D01*
Y1286271D01*
X800408D01*
Y1287287D01*
X798376D01*
Y1286271D01*
X797360D01*
Y1284239D01*
X798376D01*
X825576D02*
Y1283223D01*
X827608D01*
Y1284239D01*
X828624D01*
Y1286271D01*
X827608D01*
Y1287287D01*
X825576D01*
Y1286271D01*
X824560D01*
Y1284239D01*
X825576D01*
X839176D02*
Y1283223D01*
X841208D01*
Y1284239D01*
X842224D01*
Y1286271D01*
X841208D01*
Y1287287D01*
X839176D01*
Y1286271D01*
X838160D01*
Y1284239D01*
X839176D01*
X852776D02*
Y1283223D01*
X854808D01*
Y1284239D01*
X855824D01*
Y1286271D01*
X854808D01*
Y1287287D01*
X852776D01*
Y1286271D01*
X851760D01*
Y1284239D01*
X852776D01*
X784776D02*
Y1283223D01*
X786808D01*
Y1284239D01*
X787824D01*
Y1286271D01*
X786808D01*
Y1287287D01*
X784776D01*
Y1286271D01*
X783760D01*
Y1284239D01*
X784776D01*
X811976D02*
Y1283223D01*
X814008D01*
Y1284239D01*
X815024D01*
Y1286271D01*
X814008D01*
Y1287287D01*
X811976D01*
Y1286271D01*
X810960D01*
Y1284239D01*
X811976D01*
Y1297739D02*
Y1296723D01*
X814008D01*
Y1297739D01*
X815024D01*
Y1299771D01*
X814008D01*
Y1300787D01*
X811976D01*
Y1299771D01*
X810960D01*
Y1297739D01*
X811976D01*
X784776D02*
Y1296723D01*
X786808D01*
Y1297739D01*
X787824D01*
Y1299771D01*
X786808D01*
Y1300787D01*
X784776D01*
Y1299771D01*
X783760D01*
Y1297739D01*
X784776D01*
X852776D02*
Y1296723D01*
X854808D01*
Y1297739D01*
X855824D01*
Y1299771D01*
X854808D01*
Y1300787D01*
X852776D01*
Y1299771D01*
X851760D01*
Y1297739D01*
X852776D01*
X839176D02*
Y1296723D01*
X841208D01*
Y1297739D01*
X842224D01*
Y1299771D01*
X841208D01*
Y1300787D01*
X839176D01*
Y1299771D01*
X838160D01*
Y1297739D01*
X839176D01*
X825576D02*
Y1296723D01*
X827608D01*
Y1297739D01*
X828624D01*
Y1299771D01*
X827608D01*
Y1300787D01*
X825576D01*
Y1299771D01*
X824560D01*
Y1297739D01*
X825576D01*
X798376D02*
Y1296723D01*
X800408D01*
Y1297739D01*
X801424D01*
Y1299771D01*
X800408D01*
Y1300787D01*
X798376D01*
Y1299771D01*
X797360D01*
Y1297739D01*
X798376D01*
X936078Y1245745D02*
Y1244730D01*
X938110D01*
Y1245745D01*
X939126D01*
Y1247777D01*
X938110D01*
Y1248793D01*
X936078D01*
Y1247777D01*
X935062D01*
Y1245745D01*
X936078D01*
X963278D02*
Y1244730D01*
X965310D01*
Y1245745D01*
X966326D01*
Y1247777D01*
X965310D01*
Y1248793D01*
X963278D01*
Y1247777D01*
X962262D01*
Y1245745D01*
X963278D01*
X976878D02*
Y1244730D01*
X978910D01*
Y1245745D01*
X979926D01*
Y1247777D01*
X978910D01*
Y1248793D01*
X976878D01*
Y1247777D01*
X975862D01*
Y1245745D01*
X976878D01*
X990478D02*
Y1244730D01*
X992510D01*
Y1245745D01*
X993526D01*
Y1247777D01*
X992510D01*
Y1248793D01*
X990478D01*
Y1247777D01*
X989462D01*
Y1245745D01*
X990478D01*
X922478D02*
Y1244730D01*
X924510D01*
Y1245745D01*
X925526D01*
Y1247777D01*
X924510D01*
Y1248793D01*
X922478D01*
Y1247777D01*
X921462D01*
Y1245745D01*
X922478D01*
X949678D02*
Y1244730D01*
X951710D01*
Y1245745D01*
X952726D01*
Y1247777D01*
X951710D01*
Y1248793D01*
X949678D01*
Y1247777D01*
X948662D01*
Y1245745D01*
X949678D01*
X936078Y1259246D02*
Y1258230D01*
X938110D01*
Y1259246D01*
X939126D01*
Y1261277D01*
X938110D01*
Y1262293D01*
X936078D01*
Y1261277D01*
X935062D01*
Y1259246D01*
X936078D01*
X963278D02*
Y1258230D01*
X965310D01*
Y1259246D01*
X966326D01*
Y1261277D01*
X965310D01*
Y1262293D01*
X963278D01*
Y1261277D01*
X962262D01*
Y1259246D01*
X963278D01*
X976878D02*
Y1258230D01*
X978910D01*
Y1259246D01*
X979926D01*
Y1261277D01*
X978910D01*
Y1262293D01*
X976878D01*
Y1261277D01*
X975862D01*
Y1259246D01*
X976878D01*
X990478D02*
Y1258230D01*
X992510D01*
Y1259246D01*
X993526D01*
Y1261277D01*
X992510D01*
Y1262293D01*
X990478D01*
Y1261277D01*
X989462D01*
Y1259246D01*
X990478D01*
X922478D02*
Y1258230D01*
X924510D01*
Y1259246D01*
X925526D01*
Y1261277D01*
X924510D01*
Y1262293D01*
X922478D01*
Y1261277D01*
X921462D01*
Y1259246D01*
X922478D01*
X949678D02*
Y1258230D01*
X951710D01*
Y1259246D01*
X952726D01*
Y1261277D01*
X951710D01*
Y1262293D01*
X949678D01*
Y1261277D01*
X948662D01*
Y1259246D01*
X949678D01*
X936078Y1272746D02*
Y1271730D01*
X938110D01*
Y1272746D01*
X939126D01*
Y1274778D01*
X938110D01*
Y1275794D01*
X936078D01*
Y1274778D01*
X935062D01*
Y1272746D01*
X936078D01*
X963278D02*
Y1271730D01*
X965310D01*
Y1272746D01*
X966326D01*
Y1274778D01*
X965310D01*
Y1275794D01*
X963278D01*
Y1274778D01*
X962262D01*
Y1272746D01*
X963278D01*
X976878D02*
Y1271730D01*
X978910D01*
Y1272746D01*
X979926D01*
Y1274778D01*
X978910D01*
Y1275794D01*
X976878D01*
Y1274778D01*
X975862D01*
Y1272746D01*
X976878D01*
X990478D02*
Y1271730D01*
X992510D01*
Y1272746D01*
X993526D01*
Y1274778D01*
X992510D01*
Y1275794D01*
X990478D01*
Y1274778D01*
X989462D01*
Y1272746D01*
X990478D01*
X922478D02*
Y1271730D01*
X924510D01*
Y1272746D01*
X925526D01*
Y1274778D01*
X924510D01*
Y1275794D01*
X922478D01*
Y1274778D01*
X921462D01*
Y1272746D01*
X922478D01*
X949678D02*
Y1271730D01*
X951710D01*
Y1272746D01*
X952726D01*
Y1274778D01*
X951710D01*
Y1275794D01*
X949678D01*
Y1274778D01*
X948662D01*
Y1272746D01*
X949678D01*
X936078Y1286246D02*
Y1285229D01*
X938110D01*
Y1286246D01*
X939126D01*
Y1288277D01*
X938110D01*
Y1289294D01*
X936078D01*
Y1288277D01*
X935062D01*
Y1286246D01*
X936078D01*
X963278D02*
Y1285229D01*
X965310D01*
Y1286246D01*
X966326D01*
Y1288277D01*
X965310D01*
Y1289294D01*
X963278D01*
Y1288277D01*
X962262D01*
Y1286246D01*
X963278D01*
X976878D02*
Y1285229D01*
X978910D01*
Y1286246D01*
X979926D01*
Y1288277D01*
X978910D01*
Y1289294D01*
X976878D01*
Y1288277D01*
X975862D01*
Y1286246D01*
X976878D01*
X990478D02*
Y1285229D01*
X992510D01*
Y1286246D01*
X993526D01*
Y1288277D01*
X992510D01*
Y1289294D01*
X990478D01*
Y1288277D01*
X989462D01*
Y1286246D01*
X990478D01*
X922478D02*
Y1285229D01*
X924510D01*
Y1286246D01*
X925526D01*
Y1288277D01*
X924510D01*
Y1289294D01*
X922478D01*
Y1288277D01*
X921462D01*
Y1286246D01*
X922478D01*
X949678D02*
Y1285229D01*
X951710D01*
Y1286246D01*
X952726D01*
Y1288277D01*
X951710D01*
Y1289294D01*
X949678D01*
Y1288277D01*
X948662D01*
Y1286246D01*
X949678D01*
Y1299745D02*
Y1298730D01*
X951710D01*
Y1299745D01*
X952726D01*
Y1301777D01*
X951710D01*
Y1302793D01*
X949678D01*
Y1301777D01*
X948662D01*
Y1299745D01*
X949678D01*
X922478D02*
Y1298730D01*
X924510D01*
Y1299745D01*
X925526D01*
Y1301777D01*
X924510D01*
Y1302793D01*
X922478D01*
Y1301777D01*
X921462D01*
Y1299745D01*
X922478D01*
X990478D02*
Y1298730D01*
X992510D01*
Y1299745D01*
X993526D01*
Y1301777D01*
X992510D01*
Y1302793D01*
X990478D01*
Y1301777D01*
X989462D01*
Y1299745D01*
X990478D01*
X976878D02*
Y1298730D01*
X978910D01*
Y1299745D01*
X979926D01*
Y1301777D01*
X978910D01*
Y1302793D01*
X976878D01*
Y1301777D01*
X975862D01*
Y1299745D01*
X976878D01*
X963278D02*
Y1298730D01*
X965310D01*
Y1299745D01*
X966326D01*
Y1301777D01*
X965310D01*
Y1302793D01*
X963278D01*
Y1301777D01*
X962262D01*
Y1299745D01*
X963278D01*
X936078D02*
Y1298730D01*
X938110D01*
Y1299745D01*
X939126D01*
Y1301777D01*
X938110D01*
Y1302793D01*
X936078D01*
Y1301777D01*
X935062D01*
Y1299745D01*
X936078D01*
X1084640Y1245341D02*
Y1244325D01*
X1086672D01*
Y1245341D01*
X1087688D01*
Y1247373D01*
X1086672D01*
Y1248389D01*
X1084640D01*
Y1247373D01*
X1083624D01*
Y1245341D01*
X1084640D01*
X1111840D02*
Y1244325D01*
X1113872D01*
Y1245341D01*
X1114887D01*
Y1247373D01*
X1113872D01*
Y1248389D01*
X1111840D01*
Y1247373D01*
X1110824D01*
Y1245341D01*
X1111840D01*
X1125440D02*
Y1244325D01*
X1127471D01*
Y1245341D01*
X1128487D01*
Y1247373D01*
X1127471D01*
Y1248389D01*
X1125440D01*
Y1247373D01*
X1124424D01*
Y1245341D01*
X1125440D01*
X1139040D02*
Y1244325D01*
X1141071D01*
Y1245341D01*
X1142087D01*
Y1247373D01*
X1141071D01*
Y1248389D01*
X1139040D01*
Y1247373D01*
X1138024D01*
Y1245341D01*
X1139040D01*
X1071040D02*
Y1244325D01*
X1073072D01*
Y1245341D01*
X1074088D01*
Y1247373D01*
X1073072D01*
Y1248389D01*
X1071040D01*
Y1247373D01*
X1070023D01*
Y1245341D01*
X1071040D01*
X1098240D02*
Y1244325D01*
X1100272D01*
Y1245341D01*
X1101288D01*
Y1247373D01*
X1100272D01*
Y1248389D01*
X1098240D01*
Y1247373D01*
X1097224D01*
Y1245341D01*
X1098240D01*
X1084640Y1258841D02*
Y1257825D01*
X1086672D01*
Y1258841D01*
X1087688D01*
Y1260873D01*
X1086672D01*
Y1261889D01*
X1084640D01*
Y1260873D01*
X1083624D01*
Y1258841D01*
X1084640D01*
X1111840D02*
Y1257825D01*
X1113872D01*
Y1258841D01*
X1114887D01*
Y1260873D01*
X1113872D01*
Y1261889D01*
X1111840D01*
Y1260873D01*
X1110824D01*
Y1258841D01*
X1111840D01*
X1125440D02*
Y1257825D01*
X1127471D01*
Y1258841D01*
X1128487D01*
Y1260873D01*
X1127471D01*
Y1261889D01*
X1125440D01*
Y1260873D01*
X1124424D01*
Y1258841D01*
X1125440D01*
X1139040D02*
Y1257825D01*
X1141071D01*
Y1258841D01*
X1142087D01*
Y1260873D01*
X1141071D01*
Y1261889D01*
X1139040D01*
Y1260873D01*
X1138024D01*
Y1258841D01*
X1139040D01*
X1071040D02*
Y1257825D01*
X1073072D01*
Y1258841D01*
X1074088D01*
Y1260873D01*
X1073072D01*
Y1261889D01*
X1071040D01*
Y1260873D01*
X1070023D01*
Y1258841D01*
X1071040D01*
X1098240D02*
Y1257825D01*
X1100272D01*
Y1258841D01*
X1101288D01*
Y1260873D01*
X1100272D01*
Y1261889D01*
X1098240D01*
Y1260873D01*
X1097224D01*
Y1258841D01*
X1098240D01*
X1084640Y1272341D02*
Y1271325D01*
X1086672D01*
Y1272341D01*
X1087688D01*
Y1274373D01*
X1086672D01*
Y1275389D01*
X1084640D01*
Y1274373D01*
X1083624D01*
Y1272341D01*
X1084640D01*
X1111840D02*
Y1271325D01*
X1113872D01*
Y1272341D01*
X1114887D01*
Y1274373D01*
X1113872D01*
Y1275389D01*
X1111840D01*
Y1274373D01*
X1110824D01*
Y1272341D01*
X1111840D01*
X1125440D02*
Y1271325D01*
X1127471D01*
Y1272341D01*
X1128487D01*
Y1274373D01*
X1127471D01*
Y1275389D01*
X1125440D01*
Y1274373D01*
X1124424D01*
Y1272341D01*
X1125440D01*
X1139040D02*
Y1271325D01*
X1141071D01*
Y1272341D01*
X1142087D01*
Y1274373D01*
X1141071D01*
Y1275389D01*
X1139040D01*
Y1274373D01*
X1138024D01*
Y1272341D01*
X1139040D01*
X1071040D02*
Y1271325D01*
X1073072D01*
Y1272341D01*
X1074088D01*
Y1274373D01*
X1073072D01*
Y1275389D01*
X1071040D01*
Y1274373D01*
X1070023D01*
Y1272341D01*
X1071040D01*
X1098240D02*
Y1271325D01*
X1100272D01*
Y1272341D01*
X1101288D01*
Y1274373D01*
X1100272D01*
Y1275389D01*
X1098240D01*
Y1274373D01*
X1097224D01*
Y1272341D01*
X1098240D01*
X1084640Y1285841D02*
Y1284825D01*
X1086672D01*
Y1285841D01*
X1087688D01*
Y1287873D01*
X1086672D01*
Y1288889D01*
X1084640D01*
Y1287873D01*
X1083624D01*
Y1285841D01*
X1084640D01*
X1111840D02*
Y1284825D01*
X1113872D01*
Y1285841D01*
X1114887D01*
Y1287873D01*
X1113872D01*
Y1288889D01*
X1111840D01*
Y1287873D01*
X1110824D01*
Y1285841D01*
X1111840D01*
X1125440D02*
Y1284825D01*
X1127471D01*
Y1285841D01*
X1128487D01*
Y1287873D01*
X1127471D01*
Y1288889D01*
X1125440D01*
Y1287873D01*
X1124424D01*
Y1285841D01*
X1125440D01*
X1139040D02*
Y1284825D01*
X1141071D01*
Y1285841D01*
X1142087D01*
Y1287873D01*
X1141071D01*
Y1288889D01*
X1139040D01*
Y1287873D01*
X1138024D01*
Y1285841D01*
X1139040D01*
X1071040D02*
Y1284825D01*
X1073072D01*
Y1285841D01*
X1074088D01*
Y1287873D01*
X1073072D01*
Y1288889D01*
X1071040D01*
Y1287873D01*
X1070023D01*
Y1285841D01*
X1071040D01*
X1098240D02*
Y1284825D01*
X1100272D01*
Y1285841D01*
X1101288D01*
Y1287873D01*
X1100272D01*
Y1288889D01*
X1098240D01*
Y1287873D01*
X1097224D01*
Y1285841D01*
X1098240D01*
Y1299341D02*
Y1298325D01*
X1100272D01*
Y1299341D01*
X1101288D01*
Y1301373D01*
X1100272D01*
Y1302389D01*
X1098240D01*
Y1301373D01*
X1097224D01*
Y1299341D01*
X1098240D01*
X1071040D02*
Y1298325D01*
X1073072D01*
Y1299341D01*
X1074088D01*
Y1301373D01*
X1073072D01*
Y1302389D01*
X1071040D01*
Y1301373D01*
X1070023D01*
Y1299341D01*
X1071040D01*
X1139040D02*
Y1298325D01*
X1141071D01*
Y1299341D01*
X1142087D01*
Y1301373D01*
X1141071D01*
Y1302389D01*
X1139040D01*
Y1301373D01*
X1138024D01*
Y1299341D01*
X1139040D01*
X1125440D02*
Y1298325D01*
X1127471D01*
Y1299341D01*
X1128487D01*
Y1301373D01*
X1127471D01*
Y1302389D01*
X1125440D01*
Y1301373D01*
X1124424D01*
Y1299341D01*
X1125440D01*
X1111840D02*
Y1298325D01*
X1113872D01*
Y1299341D01*
X1114887D01*
Y1301373D01*
X1113872D01*
Y1302389D01*
X1111840D01*
Y1301373D01*
X1110824D01*
Y1299341D01*
X1111840D01*
X1084640D02*
Y1298325D01*
X1086672D01*
Y1299341D01*
X1087688D01*
Y1301373D01*
X1086672D01*
Y1302389D01*
X1084640D01*
Y1301373D01*
X1083624D01*
Y1299341D01*
X1084640D01*
X851506Y1045458D02*
Y1044442D01*
X853538D01*
Y1045458D01*
X854554D01*
Y1047490D01*
X853538D01*
Y1048506D01*
X851506D01*
Y1047490D01*
X850490D01*
Y1045458D01*
X851506D01*
X996066Y1033257D02*
Y1032241D01*
X998098D01*
Y1033257D01*
X999114D01*
Y1035289D01*
X998098D01*
Y1036305D01*
X996066D01*
Y1035289D01*
X995050D01*
Y1033257D01*
X996066D01*
X941666Y1087257D02*
Y1086241D01*
X943698D01*
Y1087257D01*
X944714D01*
Y1089289D01*
X943698D01*
Y1090305D01*
X941666D01*
Y1089289D01*
X940650D01*
Y1087257D01*
X941666D01*
Y1073757D02*
Y1072741D01*
X943698D01*
Y1073757D01*
X944714D01*
Y1075789D01*
X943698D01*
Y1076805D01*
X941666D01*
Y1075789D01*
X940650D01*
Y1073757D01*
X941666D01*
Y1060257D02*
Y1059241D01*
X943698D01*
Y1060257D01*
X944714D01*
Y1062289D01*
X943698D01*
Y1063305D01*
X941666D01*
Y1062289D01*
X940650D01*
Y1060257D01*
X941666D01*
Y1046757D02*
Y1045741D01*
X943698D01*
Y1046757D01*
X944714D01*
Y1048789D01*
X943698D01*
Y1049805D01*
X941666D01*
Y1048789D01*
X940650D01*
Y1046757D01*
X941666D01*
Y1033257D02*
Y1032241D01*
X943698D01*
Y1033257D01*
X944714D01*
Y1035289D01*
X943698D01*
Y1036305D01*
X941666D01*
Y1035289D01*
X940650D01*
Y1033257D01*
X941666D01*
X1101424Y1193245D02*
Y1192229D01*
X1103456D01*
Y1193245D01*
X1104472D01*
Y1195277D01*
X1103456D01*
Y1196293D01*
X1101424D01*
Y1195277D01*
X1100408D01*
Y1193245D01*
X1101424D01*
X1143218Y1193292D02*
Y1192276D01*
X1145250D01*
Y1193292D01*
X1146266D01*
Y1195324D01*
X1145250D01*
Y1196340D01*
X1143218D01*
Y1195324D01*
X1142202D01*
Y1193292D01*
X1143218D01*
X1115024Y1193245D02*
Y1192229D01*
X1117056D01*
Y1193245D01*
X1118072D01*
Y1195277D01*
X1117056D01*
Y1196293D01*
X1115024D01*
Y1195277D01*
X1114008D01*
Y1193245D01*
X1115024D01*
X1101424Y1179745D02*
Y1178729D01*
X1103456D01*
Y1179745D01*
X1104472D01*
Y1181777D01*
X1103456D01*
Y1182793D01*
X1101424D01*
Y1181777D01*
X1100408D01*
Y1179745D01*
X1101424D01*
X1143218Y1179792D02*
Y1178776D01*
X1145250D01*
Y1179792D01*
X1146266D01*
Y1181824D01*
X1145250D01*
Y1182840D01*
X1143218D01*
Y1181824D01*
X1142202D01*
Y1179792D01*
X1143218D01*
X1115024Y1179745D02*
Y1178729D01*
X1117056D01*
Y1179745D01*
X1118072D01*
Y1181777D01*
X1117056D01*
Y1182793D01*
X1115024D01*
Y1181777D01*
X1114008D01*
Y1179745D01*
X1115024D01*
X1101424Y1166245D02*
Y1165229D01*
X1103456D01*
Y1166245D01*
X1104472D01*
Y1168277D01*
X1103456D01*
Y1169293D01*
X1101424D01*
Y1168277D01*
X1100408D01*
Y1166245D01*
X1101424D01*
X1143218Y1166292D02*
Y1165276D01*
X1145250D01*
Y1166292D01*
X1146266D01*
Y1168324D01*
X1145250D01*
Y1169340D01*
X1143218D01*
Y1168324D01*
X1142202D01*
Y1166292D01*
X1143218D01*
X1115024Y1166245D02*
Y1165229D01*
X1117056D01*
Y1166245D01*
X1118072D01*
Y1168277D01*
X1117056D01*
Y1169293D01*
X1115024D01*
Y1168277D01*
X1114008D01*
Y1166245D01*
X1115024D01*
X1143218Y1152792D02*
Y1151776D01*
X1145250D01*
Y1152792D01*
X1146266D01*
Y1154824D01*
X1145250D01*
Y1155840D01*
X1143218D01*
Y1154824D01*
X1142202D01*
Y1152792D01*
X1143218D01*
X1073622Y1120271D02*
Y1119255D01*
X1075654D01*
Y1120271D01*
X1076670D01*
Y1122303D01*
X1075654D01*
Y1123319D01*
X1073622D01*
Y1122303D01*
X1072606D01*
Y1120271D01*
X1073622D01*
X1141694Y1124843D02*
Y1123827D01*
X1143726D01*
Y1124843D01*
X1144742D01*
Y1126875D01*
X1143726D01*
Y1127891D01*
X1141694D01*
Y1126875D01*
X1140678D01*
Y1124843D01*
X1141694D01*
X1142456Y1110619D02*
Y1109603D01*
X1144488D01*
Y1110619D01*
X1145504D01*
Y1112651D01*
X1144488D01*
Y1113667D01*
X1142456D01*
Y1112651D01*
X1141440D01*
Y1110619D01*
X1142456D01*
X1073876Y1107825D02*
Y1106809D01*
X1075908D01*
Y1107825D01*
X1076924D01*
Y1109857D01*
X1075908D01*
Y1110873D01*
X1073876D01*
Y1109857D01*
X1072860D01*
Y1107825D01*
X1073876D01*
X957704Y1166376D02*
Y1165360D01*
X959736D01*
Y1166376D01*
X960752D01*
Y1168408D01*
X959736D01*
Y1169424D01*
X957704D01*
Y1168408D01*
X956688D01*
Y1166376D01*
X957704D01*
X971304Y1179876D02*
Y1178860D01*
X973336D01*
Y1179876D01*
X974352D01*
Y1181908D01*
X973336D01*
Y1182924D01*
X971304D01*
Y1181908D01*
X970288D01*
Y1179876D01*
X971304D01*
X957704D02*
Y1178860D01*
X959736D01*
Y1179876D01*
X960752D01*
Y1181908D01*
X959736D01*
Y1182924D01*
X957704D01*
Y1181908D01*
X956688D01*
Y1179876D01*
X957704D01*
X971304Y1193376D02*
Y1192360D01*
X973336D01*
Y1193376D01*
X974352D01*
Y1195408D01*
X973336D01*
Y1196424D01*
X971304D01*
Y1195408D01*
X970288D01*
Y1193376D01*
X971304D01*
X1001022Y1193423D02*
Y1192407D01*
X1003054D01*
Y1193423D01*
X1004070D01*
Y1195455D01*
X1003054D01*
Y1196471D01*
X1001022D01*
Y1195455D01*
X1000006D01*
Y1193423D01*
X1001022D01*
X957704Y1193376D02*
Y1192360D01*
X959736D01*
Y1193376D01*
X960752D01*
Y1195408D01*
X959736D01*
Y1196424D01*
X957704D01*
Y1195408D01*
X956688D01*
Y1193376D01*
X957704D01*
X827362Y1167564D02*
Y1166548D01*
X829394D01*
Y1167564D01*
X830410D01*
Y1169596D01*
X829394D01*
Y1170612D01*
X827362D01*
Y1169596D01*
X826346D01*
Y1167564D01*
X827362D01*
X814546Y1167640D02*
Y1166624D01*
X816578D01*
Y1167640D01*
X817594D01*
Y1169672D01*
X816578D01*
Y1170688D01*
X814546D01*
Y1169672D01*
X813530D01*
Y1167640D01*
X814546D01*
X827362Y1181064D02*
Y1180048D01*
X829394D01*
Y1181064D01*
X830410D01*
Y1183096D01*
X829394D01*
Y1184112D01*
X827362D01*
Y1183096D01*
X826346D01*
Y1181064D01*
X827362D01*
X814546Y1181140D02*
Y1180124D01*
X816578D01*
Y1181140D01*
X817594D01*
Y1183172D01*
X816578D01*
Y1184188D01*
X814546D01*
Y1183172D01*
X813530D01*
Y1181140D01*
X814546D01*
X827362Y1194564D02*
Y1193548D01*
X829394D01*
Y1194564D01*
X830410D01*
Y1196596D01*
X829394D01*
Y1197612D01*
X827362D01*
Y1196596D01*
X826346D01*
Y1194564D01*
X827362D01*
X856826Y1193677D02*
Y1192661D01*
X858858D01*
Y1193677D01*
X859874D01*
Y1195709D01*
X858858D01*
Y1196725D01*
X856826D01*
Y1195709D01*
X855810D01*
Y1193677D01*
X856826D01*
X814546Y1194640D02*
Y1193624D01*
X816578D01*
Y1194640D01*
X817594D01*
Y1196672D01*
X816578D01*
Y1197688D01*
X814546D01*
Y1196672D01*
X813530D01*
Y1194640D01*
X814546D01*
X927350Y1105844D02*
Y1104828D01*
X929382D01*
Y1105844D01*
X930398D01*
Y1107877D01*
X929382D01*
Y1108893D01*
X927350D01*
Y1107877D01*
X926334D01*
Y1105844D01*
X927350D01*
X996958Y1134115D02*
Y1133099D01*
X998990D01*
Y1134115D01*
X1000006D01*
Y1136146D01*
X998990D01*
Y1137162D01*
X996958D01*
Y1136146D01*
X995942D01*
Y1134115D01*
X996958D01*
Y1120614D02*
Y1119598D01*
X998990D01*
Y1120614D01*
X1000006D01*
Y1122646D01*
X998990D01*
Y1123662D01*
X996958D01*
Y1122646D01*
X995942D01*
Y1120614D01*
X996958D01*
Y1107114D02*
Y1106098D01*
X998990D01*
Y1107114D01*
X1000006D01*
Y1109146D01*
X998990D01*
Y1110163D01*
X996958D01*
Y1109146D01*
X995942D01*
Y1107114D01*
X996958D01*
X783666Y1104073D02*
Y1103057D01*
X785698D01*
Y1104073D01*
X786714D01*
Y1106105D01*
X785698D01*
Y1107121D01*
X783666D01*
Y1106105D01*
X782650D01*
Y1104073D01*
X783666D01*
X851922Y1131581D02*
Y1130565D01*
X853954D01*
Y1131581D01*
X854970D01*
Y1133613D01*
X853954D01*
Y1134629D01*
X851922D01*
Y1133613D01*
X850906D01*
Y1131581D01*
X851922D01*
Y1118081D02*
Y1117065D01*
X853954D01*
Y1118081D01*
X854970D01*
Y1120113D01*
X853954D01*
Y1121129D01*
X851922D01*
Y1120113D01*
X850906D01*
Y1118081D01*
X851922D01*
Y1104581D02*
Y1103565D01*
X853954D01*
Y1104581D01*
X854970D01*
Y1106613D01*
X853954D01*
Y1107629D01*
X851922D01*
Y1106613D01*
X850906D01*
Y1104581D01*
X851922D01*
X741138Y1009016D02*
Y1008000D01*
X743170D01*
Y1009016D01*
X744186D01*
Y1011048D01*
X743170D01*
Y1012064D01*
X741138D01*
Y1011048D01*
X740122D01*
Y1009016D01*
X741138D01*
Y994016D02*
Y993000D01*
X743170D01*
Y994016D01*
X744186D01*
Y996048D01*
X743170D01*
Y997064D01*
X741138D01*
Y996048D01*
X740122D01*
Y994016D01*
X741138D01*
Y979016D02*
Y978000D01*
X743170D01*
Y979016D01*
X744186D01*
Y981048D01*
X743170D01*
Y982064D01*
X741138D01*
Y981048D01*
X740122D01*
Y979016D01*
X741138D01*
X601948Y958706D02*
Y957690D01*
X603980D01*
Y958706D01*
X604996D01*
Y960738D01*
X603980D01*
Y961753D01*
X601948D01*
Y960738D01*
X600932D01*
Y958706D01*
X601948D01*
Y999205D02*
Y998189D01*
X603980D01*
Y999205D01*
X604996D01*
Y1001237D01*
X603980D01*
Y1002253D01*
X601948D01*
Y1001237D01*
X600932D01*
Y999205D01*
X601948D01*
Y972292D02*
Y971276D01*
X603980D01*
Y972292D01*
X604996D01*
Y974324D01*
X603980D01*
Y975340D01*
X601948D01*
Y974324D01*
X600932D01*
Y972292D01*
X601948D01*
Y985754D02*
Y984738D01*
X603980D01*
Y985754D01*
X604996D01*
Y987786D01*
X603980D01*
Y988802D01*
X601948D01*
Y987786D01*
X600932D01*
Y985754D01*
X601948D01*
X616680Y958413D02*
Y957398D01*
X618712D01*
Y958413D01*
X619728D01*
Y960445D01*
X618712D01*
Y961461D01*
X616680D01*
Y960445D01*
X615664D01*
Y958413D01*
X616680D01*
Y998913D02*
Y997897D01*
X618712D01*
Y998913D01*
X619728D01*
Y1000946D01*
X618712D01*
Y1001962D01*
X616680D01*
Y1000946D01*
X615664D01*
Y998913D01*
X616680D01*
Y972000D02*
Y970984D01*
X618712D01*
Y972000D01*
X619728D01*
Y974032D01*
X618712D01*
Y975048D01*
X616680D01*
Y974032D01*
X615664D01*
Y972000D01*
X616680D01*
Y985462D02*
Y984446D01*
X618712D01*
Y985462D01*
X619728D01*
Y987494D01*
X618712D01*
Y988510D01*
X616680D01*
Y987494D01*
X615664D01*
Y985462D01*
X616680D01*
X635747Y958214D02*
Y957198D01*
X637779D01*
Y958214D01*
X638795D01*
Y960246D01*
X637779D01*
Y961262D01*
X635747D01*
Y960246D01*
X634731D01*
Y958214D01*
X635747D01*
Y998714D02*
Y997698D01*
X637779D01*
Y998714D01*
X638795D01*
Y1000746D01*
X637779D01*
Y1001762D01*
X635747D01*
Y1000746D01*
X634731D01*
Y998714D01*
X635747D01*
Y971800D02*
Y970784D01*
X637779D01*
Y971800D01*
X638795D01*
Y973832D01*
X637779D01*
Y974848D01*
X635747D01*
Y973832D01*
X634731D01*
Y971800D01*
X635747D01*
Y985262D02*
Y984246D01*
X637779D01*
Y985262D01*
X638795D01*
Y987294D01*
X637779D01*
Y988310D01*
X635747D01*
Y987294D01*
X634731D01*
Y985262D01*
X635747D01*
X651512Y984954D02*
Y983938D01*
X653544D01*
Y984954D01*
X654560D01*
Y986986D01*
X653544D01*
Y988002D01*
X651512D01*
Y986986D01*
X650496D01*
Y984954D01*
X651512D01*
Y998454D02*
Y997438D01*
X653544D01*
Y998454D01*
X654560D01*
Y1000486D01*
X653544D01*
Y1001502D01*
X651512D01*
Y1000486D01*
X650496D01*
Y998454D01*
X651512D01*
Y958040D02*
Y957025D01*
X653544D01*
Y958040D01*
X654560D01*
Y960072D01*
X653544D01*
Y961088D01*
X651512D01*
Y960072D01*
X650496D01*
Y958040D01*
X651512D01*
X601948Y1011537D02*
Y1010521D01*
X603980D01*
Y1011537D01*
X604996D01*
Y1013569D01*
X603980D01*
Y1014585D01*
X601948D01*
Y1013569D01*
X600932D01*
Y1011537D01*
X601948D01*
Y1025124D02*
Y1024108D01*
X603980D01*
Y1025124D01*
X604996D01*
Y1027156D01*
X603980D01*
Y1028172D01*
X601948D01*
Y1027156D01*
X600932D01*
Y1025124D01*
X601948D01*
X616680Y1011245D02*
Y1010229D01*
X618712D01*
Y1011245D01*
X619728D01*
Y1013278D01*
X618712D01*
Y1014294D01*
X616680D01*
Y1013278D01*
X615664D01*
Y1011245D01*
X616680D01*
Y1024832D02*
Y1023816D01*
X618712D01*
Y1024832D01*
X619728D01*
Y1026864D01*
X618712D01*
Y1027880D01*
X616680D01*
Y1026864D01*
X615664D01*
Y1024832D01*
X616680D01*
X635747Y1011046D02*
Y1010030D01*
X637779D01*
Y1011046D01*
X638795D01*
Y1013078D01*
X637779D01*
Y1014094D01*
X635747D01*
Y1013078D01*
X634731D01*
Y1011046D01*
X635747D01*
Y1024632D02*
Y1023616D01*
X637779D01*
Y1024632D01*
X638795D01*
Y1026664D01*
X637779D01*
Y1027680D01*
X635747D01*
Y1026664D01*
X634731D01*
Y1024632D01*
X635747D01*
X651512Y1010872D02*
Y1009856D01*
X653544D01*
Y1010872D01*
X654560D01*
Y1012905D01*
X653544D01*
Y1013921D01*
X651512D01*
Y1012905D01*
X650496D01*
Y1010872D01*
X651512D01*
Y1024334D02*
Y1023318D01*
X653544D01*
Y1024334D01*
X654560D01*
Y1026367D01*
X653544D01*
Y1027383D01*
X651512D01*
Y1026367D01*
X650496D01*
Y1024334D01*
X651512D01*
Y971503D02*
Y970487D01*
X653544D01*
Y971503D01*
X654560D01*
Y973534D01*
X653544D01*
Y974550D01*
X651512D01*
Y973534D01*
X650496D01*
Y971503D01*
X651512D01*
X635781Y1155934D02*
Y1154918D01*
X637813D01*
Y1155934D01*
X638829D01*
Y1157966D01*
X637813D01*
Y1158982D01*
X635781D01*
Y1157966D01*
X634765D01*
Y1155934D01*
X635781D01*
X616714D02*
Y1154918D01*
X618746D01*
Y1155934D01*
X619762D01*
Y1157966D01*
X618746D01*
Y1158982D01*
X616714D01*
Y1157966D01*
X615698D01*
Y1155934D01*
X616714D01*
X602013D02*
Y1154918D01*
X604045D01*
Y1155934D01*
X605061D01*
Y1157966D01*
X604045D01*
Y1158982D01*
X602013D01*
Y1157966D01*
X600997D01*
Y1155934D01*
X602013D01*
X635781Y1109398D02*
Y1108382D01*
X637813D01*
Y1109398D01*
X638829D01*
Y1111430D01*
X637813D01*
Y1112446D01*
X635781D01*
Y1111430D01*
X634765D01*
Y1109398D01*
X635781D01*
Y1085776D02*
Y1084760D01*
X637813D01*
Y1085776D01*
X638829D01*
Y1087808D01*
X637813D01*
Y1088824D01*
X635781D01*
Y1087808D01*
X634765D01*
Y1085776D01*
X635781D01*
Y1133274D02*
Y1132258D01*
X637813D01*
Y1133274D01*
X638829D01*
Y1135306D01*
X637813D01*
Y1136322D01*
X635781D01*
Y1135306D01*
X634765D01*
Y1133274D01*
X635781D01*
X616714Y1109398D02*
Y1108382D01*
X618746D01*
Y1109398D01*
X619762D01*
Y1111430D01*
X618746D01*
Y1112446D01*
X616714D01*
Y1111430D01*
X615698D01*
Y1109398D01*
X616714D01*
Y1085776D02*
Y1084760D01*
X618746D01*
Y1085776D01*
X619762D01*
Y1087808D01*
X618746D01*
Y1088824D01*
X616714D01*
Y1087808D01*
X615698D01*
Y1085776D01*
X616714D01*
Y1133274D02*
Y1132258D01*
X618746D01*
Y1133274D01*
X619762D01*
Y1135306D01*
X618746D01*
Y1136322D01*
X616714D01*
Y1135306D01*
X615698D01*
Y1133274D01*
X616714D01*
X602013Y1109398D02*
Y1108382D01*
X604045D01*
Y1109398D01*
X605061D01*
Y1111430D01*
X604045D01*
Y1112446D01*
X602013D01*
Y1111430D01*
X600997D01*
Y1109398D01*
X602013D01*
Y1085776D02*
Y1084760D01*
X604045D01*
Y1085776D01*
X605061D01*
Y1087808D01*
X604045D01*
Y1088824D01*
X602013D01*
Y1087808D01*
X600997D01*
Y1085776D01*
X602013D01*
Y1133274D02*
Y1132258D01*
X604045D01*
Y1133274D01*
X605061D01*
Y1135306D01*
X604045D01*
Y1136322D01*
X602013D01*
Y1135306D01*
X600997D01*
Y1133274D01*
X602013D01*
X635781Y1203886D02*
Y1202870D01*
X637813D01*
Y1203886D01*
X638829D01*
Y1205918D01*
X637813D01*
Y1206934D01*
X635781D01*
Y1205918D01*
X634765D01*
Y1203886D01*
X635781D01*
Y1177400D02*
Y1176384D01*
X637813D01*
Y1177400D01*
X638829D01*
Y1179432D01*
X637813D01*
Y1180447D01*
X635781D01*
Y1179432D01*
X634765D01*
Y1177400D01*
X635781D01*
X616714Y1203886D02*
Y1202870D01*
X618746D01*
Y1203886D01*
X619762D01*
Y1205918D01*
X618746D01*
Y1206934D01*
X616714D01*
Y1205918D01*
X615698D01*
Y1203886D01*
X616714D01*
Y1177400D02*
Y1176384D01*
X618746D01*
Y1177400D01*
X619762D01*
Y1179432D01*
X618746D01*
Y1180447D01*
X616714D01*
Y1179432D01*
X615698D01*
Y1177400D01*
X616714D01*
X602013Y1203886D02*
Y1202870D01*
X604045D01*
Y1203886D01*
X605061D01*
Y1205918D01*
X604045D01*
Y1206934D01*
X602013D01*
Y1205918D01*
X600997D01*
Y1203886D01*
X602013D01*
Y1177400D02*
Y1176384D01*
X604045D01*
Y1177400D01*
X605061D01*
Y1179432D01*
X604045D01*
Y1180447D01*
X602013D01*
Y1179432D01*
X600997D01*
Y1177400D01*
X602013D01*
X635781Y1307880D02*
Y1306864D01*
X637813D01*
Y1307880D01*
X638829D01*
Y1309912D01*
X637813D01*
Y1310928D01*
X635781D01*
Y1309912D01*
X634765D01*
Y1307880D01*
X635781D01*
X616714D02*
Y1306864D01*
X618746D01*
Y1307880D01*
X619762D01*
Y1309912D01*
X618746D01*
Y1310928D01*
X616714D01*
Y1309912D01*
X615698D01*
Y1307880D01*
X616714D01*
X602013D02*
Y1306864D01*
X604045D01*
Y1307880D01*
X605061D01*
Y1309912D01*
X604045D01*
Y1310928D01*
X602013D01*
Y1309912D01*
X600997D01*
Y1307880D01*
X602013D01*
X635781Y1255248D02*
Y1254232D01*
X637813D01*
Y1255248D01*
X638829D01*
Y1257280D01*
X637813D01*
Y1258296D01*
X635781D01*
Y1257280D01*
X634765D01*
Y1255248D01*
X635781D01*
Y1272774D02*
Y1271758D01*
X637813D01*
Y1272774D01*
X638829D01*
Y1274806D01*
X637813D01*
Y1275822D01*
X635781D01*
Y1274806D01*
X634765D01*
Y1272774D01*
X635781D01*
Y1288960D02*
Y1287944D01*
X637813D01*
Y1288960D01*
X638829D01*
Y1290992D01*
X637813D01*
Y1292008D01*
X635781D01*
Y1290992D01*
X634765D01*
Y1288960D01*
X635781D01*
X616714Y1255248D02*
Y1254232D01*
X618746D01*
Y1255248D01*
X619762D01*
Y1257280D01*
X618746D01*
Y1258296D01*
X616714D01*
Y1257280D01*
X615698D01*
Y1255248D01*
X616714D01*
Y1272774D02*
Y1271758D01*
X618746D01*
Y1272774D01*
X619762D01*
Y1274806D01*
X618746D01*
Y1275822D01*
X616714D01*
Y1274806D01*
X615698D01*
Y1272774D01*
X616714D01*
Y1288960D02*
Y1287944D01*
X618746D01*
Y1288960D01*
X619762D01*
Y1290992D01*
X618746D01*
Y1292008D01*
X616714D01*
Y1290992D01*
X615698D01*
Y1288960D01*
X616714D01*
X602013Y1255248D02*
Y1254232D01*
X604045D01*
Y1255248D01*
X605061D01*
Y1257280D01*
X604045D01*
Y1258296D01*
X602013D01*
Y1257280D01*
X600997D01*
Y1255248D01*
X602013D01*
Y1272774D02*
Y1271758D01*
X604045D01*
Y1272774D01*
X605061D01*
Y1274806D01*
X604045D01*
Y1275822D01*
X602013D01*
Y1274806D01*
X600997D01*
Y1272774D01*
X602013D01*
Y1288960D02*
Y1287944D01*
X604045D01*
Y1288960D01*
X605061D01*
Y1290992D01*
X604045D01*
Y1292008D01*
X602013D01*
Y1290992D01*
X600997D01*
Y1288960D01*
X602013D01*
X1107122Y1123000D02*
X1108138D01*
X1109154Y1124016D01*
X1110170Y1123000D01*
X1111186D01*
Y1124016D01*
X1110170Y1125032D01*
X1111186Y1126048D01*
Y1127064D01*
X1110170D01*
X1109154Y1126048D01*
X1108138Y1127064D01*
X1107122D01*
Y1126048D01*
X1108138Y1125032D01*
X1107122Y1124016D01*
Y1123000D01*
X971304Y1166376D02*
Y1165360D01*
X973336D01*
Y1166376D01*
X974352D01*
Y1168408D01*
X973336D01*
Y1169424D01*
X971304D01*
Y1168408D01*
X970288D01*
Y1166376D01*
X971304D01*
X856826Y1180723D02*
Y1179707D01*
X858858D01*
Y1180723D01*
X859874D01*
Y1182755D01*
X858858D01*
Y1183771D01*
X856826D01*
Y1182755D01*
X855810D01*
Y1180723D01*
X856826D01*
Y1167515D02*
Y1166499D01*
X858858D01*
Y1167515D01*
X859874D01*
Y1169547D01*
X858858D01*
Y1170563D01*
X856826D01*
Y1169547D01*
X855810D01*
Y1167515D01*
X856826D01*
Y1153545D02*
Y1152529D01*
X858858D01*
Y1153545D01*
X859874D01*
Y1155577D01*
X858858D01*
Y1156593D01*
X856826D01*
Y1155577D01*
X855810D01*
Y1153545D01*
X856826D01*
X1001022Y1179199D02*
Y1178183D01*
X1003054D01*
Y1179199D01*
X1004070D01*
Y1181231D01*
X1003054D01*
Y1182247D01*
X1001022D01*
Y1181231D01*
X1000006D01*
Y1179199D01*
X1001022D01*
Y1165737D02*
Y1164721D01*
X1003054D01*
Y1165737D01*
X1004070D01*
Y1167769D01*
X1003054D01*
Y1168785D01*
X1001022D01*
Y1167769D01*
X1000006D01*
Y1165737D01*
X1001022D01*
Y1153291D02*
Y1152275D01*
X1003054D01*
Y1153291D01*
X1004070D01*
Y1155323D01*
X1003054D01*
Y1156339D01*
X1001022D01*
Y1155323D01*
X1000006D01*
Y1153291D01*
X1001022D01*
X741138Y964016D02*
Y963000D01*
X743170D01*
Y964016D01*
X744186D01*
Y966048D01*
X743170D01*
Y967064D01*
X741138D01*
Y966048D01*
X740122D01*
Y964016D01*
X741138D01*
X1064888Y825016D02*
Y824000D01*
X1066920D01*
Y825016D01*
X1067936D01*
Y827048D01*
X1066920D01*
Y828064D01*
X1064888D01*
Y827048D01*
X1063872D01*
Y825016D01*
X1064888D01*
X1090138Y834016D02*
Y833000D01*
X1092170D01*
Y834016D01*
X1093186D01*
Y836048D01*
X1092170D01*
Y837064D01*
X1090138D01*
Y836048D01*
X1089122D01*
Y834016D01*
X1090138D01*
X1170342Y832001D02*
Y830985D01*
X1172374D01*
Y832001D01*
X1173391D01*
Y834034D01*
X1172374D01*
Y835050D01*
X1170342D01*
Y834034D01*
X1169326D01*
Y832001D01*
X1170342D01*
X926888Y825016D02*
Y824000D01*
X928920D01*
Y825016D01*
X929936D01*
Y827048D01*
X928920D01*
Y828064D01*
X926888D01*
Y827048D01*
X925872D01*
Y825016D01*
X926888D01*
X788914D02*
Y824000D01*
X790946D01*
Y825016D01*
X791962D01*
Y827048D01*
X790946D01*
Y828064D01*
X788914D01*
Y827048D01*
X787898D01*
Y825016D01*
X788914D01*
X1156138Y824016D02*
Y823000D01*
X1158170D01*
Y824016D01*
X1159186D01*
Y826048D01*
X1158170D01*
Y827064D01*
X1156138D01*
Y826048D01*
X1155122D01*
Y824016D01*
X1156138D01*
X880138D02*
Y823000D01*
X882170D01*
Y824016D01*
X883186D01*
Y826048D01*
X882170D01*
Y827064D01*
X880138D01*
Y826048D01*
X879122D01*
Y824016D01*
X880138D01*
X624298Y817016D02*
Y816000D01*
X626330D01*
Y817016D01*
X627346D01*
Y819048D01*
X626330D01*
Y820064D01*
X624298D01*
Y819048D01*
X623282D01*
Y817016D01*
X624298D01*
X595138Y817176D02*
Y816160D01*
X597170D01*
Y817176D01*
X598186D01*
Y819208D01*
X597170D01*
Y820224D01*
X595138D01*
Y819208D01*
X594122D01*
Y817176D01*
X595138D01*
X647388Y817016D02*
Y816000D01*
X649420D01*
Y817016D01*
X650436D01*
Y819048D01*
X649420D01*
Y820064D01*
X647388D01*
Y819048D01*
X646372D01*
Y817016D01*
X647388D01*
X999638Y712516D02*
Y711500D01*
X1001670D01*
Y712516D01*
X1002686D01*
Y714548D01*
X1001670D01*
Y715564D01*
X999638D01*
Y714548D01*
X998622D01*
Y712516D01*
X999638D01*
X1012838Y704516D02*
Y703500D01*
X1014870D01*
Y704516D01*
X1015886D01*
Y706548D01*
X1014870D01*
Y707564D01*
X1012838D01*
Y706548D01*
X1011822D01*
Y704516D01*
X1012838D01*
X780138Y574016D02*
Y573000D01*
X782170D01*
Y574016D01*
X783186D01*
Y576048D01*
X782170D01*
Y577064D01*
X780138D01*
Y576048D01*
X779122D01*
Y574016D01*
X780138D01*
X863137Y703516D02*
Y702500D01*
X865169D01*
Y703516D01*
X866185D01*
Y705548D01*
X865169D01*
Y706564D01*
X863137D01*
Y705548D01*
X862121D01*
Y703516D01*
X863137D01*
X909138Y823016D02*
Y822000D01*
X911170D01*
Y823016D01*
X912186D01*
Y825048D01*
X911170D01*
Y826064D01*
X909138D01*
Y825048D01*
X908122D01*
Y823016D01*
X909138D01*
X877137Y703516D02*
Y702500D01*
X879169D01*
Y703516D01*
X880185D01*
Y705548D01*
X879169D01*
Y706564D01*
X877137D01*
Y705548D01*
X876121D01*
Y703516D01*
X877137D01*
X870138Y706016D02*
Y705000D01*
X872170D01*
Y706016D01*
X873186D01*
Y708048D01*
X872170D01*
Y709064D01*
X870138D01*
Y708048D01*
X869122D01*
Y706016D01*
X870138D01*
X856138D02*
Y705000D01*
X858170D01*
Y706016D01*
X859186D01*
Y708048D01*
X858170D01*
Y709064D01*
X856138D01*
Y708048D01*
X855122D01*
Y706016D01*
X856138D01*
X884138D02*
Y705000D01*
X886170D01*
Y706016D01*
X887186D01*
Y708048D01*
X886170D01*
Y709064D01*
X884138D01*
Y708048D01*
X883122D01*
Y706016D01*
X884138D01*
X1018638Y730196D02*
Y729180D01*
X1020670D01*
Y730196D01*
X1021686D01*
Y732228D01*
X1020670D01*
Y733244D01*
X1018638D01*
Y732228D01*
X1017622D01*
Y730196D01*
X1018638D01*
X1066138Y697016D02*
Y696000D01*
X1068170D01*
Y697016D01*
X1069186D01*
Y699048D01*
X1068170D01*
Y700064D01*
X1066138D01*
Y699048D01*
X1065122D01*
Y697016D01*
X1066138D01*
X1026638Y724516D02*
Y723500D01*
X1028670D01*
Y724516D01*
X1029686D01*
Y726548D01*
X1028670D01*
Y727564D01*
X1026638D01*
Y726548D01*
X1025622D01*
Y724516D01*
X1026638D01*
X1035388Y699016D02*
Y698000D01*
X1037420D01*
Y699016D01*
X1038436D01*
Y701048D01*
X1037420D01*
Y702064D01*
X1035388D01*
Y701048D01*
X1034372D01*
Y699016D01*
X1035388D01*
X1066138Y577016D02*
Y576000D01*
X1068170D01*
Y577016D01*
X1069186D01*
Y579048D01*
X1068170D01*
Y580064D01*
X1066138D01*
Y579048D01*
X1065122D01*
Y577016D01*
X1066138D01*
X1072610Y571488D02*
Y570472D01*
X1074642D01*
Y571488D01*
X1075658D01*
Y573520D01*
X1074642D01*
Y574536D01*
X1072610D01*
Y573520D01*
X1071594D01*
Y571488D01*
X1072610D01*
X876138Y554016D02*
Y553000D01*
X878170D01*
Y554016D01*
X879186D01*
Y556048D01*
X878170D01*
Y557064D01*
X876138D01*
Y556048D01*
X875122D01*
Y554016D01*
X876138D01*
X894393D02*
Y553000D01*
X896425D01*
Y554016D01*
X897441D01*
Y556048D01*
X896425D01*
Y557064D01*
X894393D01*
Y556048D01*
X893377D01*
Y554016D01*
X894393D01*
X808420Y563016D02*
Y562000D01*
X810452D01*
Y563016D01*
X811468D01*
Y565048D01*
X810452D01*
Y566064D01*
X808420D01*
Y565048D01*
X807404D01*
Y563016D01*
X808420D01*
X815138Y537016D02*
Y536000D01*
X817170D01*
Y537016D01*
X818186D01*
Y539048D01*
X817170D01*
Y540064D01*
X815138D01*
Y539048D01*
X814122D01*
Y537016D01*
X815138D01*
X848138D02*
Y536000D01*
X850170D01*
Y537016D01*
X851186D01*
Y539048D01*
X850170D01*
Y540064D01*
X848138D01*
Y539048D01*
X847122D01*
Y537016D01*
X848138D01*
X863138Y537016D02*
Y536000D01*
X865170D01*
Y537016D01*
X866186D01*
Y539048D01*
X865170D01*
Y540064D01*
X863138D01*
Y539048D01*
X862122D01*
Y537016D01*
X863138D01*
X784138Y537016D02*
Y536000D01*
X786170D01*
Y537016D01*
X787186D01*
Y539048D01*
X786170D01*
Y540064D01*
X784138D01*
Y539048D01*
X783122D01*
Y537016D01*
X784138D01*
X707638Y524516D02*
Y523500D01*
X709670D01*
Y524516D01*
X710686D01*
Y526548D01*
X709670D01*
Y527564D01*
X707638D01*
Y526548D01*
X706622D01*
Y524516D01*
X707638D01*
X721138Y662016D02*
Y661000D01*
X723170D01*
Y662016D01*
X724186D01*
Y664048D01*
X723170D01*
Y665064D01*
X721138D01*
Y664048D01*
X720122D01*
Y662016D01*
X721138D01*
X734138D02*
Y661000D01*
X736170D01*
Y662016D01*
X737186D01*
Y664048D01*
X736170D01*
Y665064D01*
X734138D01*
Y664048D01*
X733122D01*
Y662016D01*
X734138D01*
X745138D02*
Y661000D01*
X747170D01*
Y662016D01*
X748186D01*
Y664048D01*
X747170D01*
Y665064D01*
X745138D01*
Y664048D01*
X744122D01*
Y662016D01*
X745138D01*
X711138D02*
Y661000D01*
X713170D01*
Y662016D01*
X714186D01*
Y664048D01*
X713170D01*
Y665064D01*
X711138D01*
Y664048D01*
X710122D01*
Y662016D01*
X711138D01*
X695138Y691016D02*
Y690000D01*
X697170D01*
Y691016D01*
X698186D01*
Y693048D01*
X697170D01*
Y694064D01*
X695138D01*
Y693048D01*
X694122D01*
Y691016D01*
X695138D01*
X834138Y839016D02*
Y838000D01*
X836170D01*
Y839016D01*
X837186D01*
Y841048D01*
X836170D01*
Y842064D01*
X834138D01*
Y841048D01*
X833122D01*
Y839016D01*
X834138D01*
X972138D02*
Y838000D01*
X974170D01*
Y839016D01*
X975186D01*
Y841048D01*
X974170D01*
Y842064D01*
X972138D01*
Y841048D01*
X971122D01*
Y839016D01*
X972138D01*
X1110138D02*
Y838000D01*
X1112170D01*
Y839016D01*
X1113186D01*
Y841048D01*
X1112170D01*
Y842064D01*
X1110138D01*
Y841048D01*
X1109122D01*
Y839016D01*
X1110138D01*
X881638Y672516D02*
Y671500D01*
X883670D01*
Y672516D01*
X884686D01*
Y674548D01*
X883670D01*
Y675564D01*
X881638D01*
Y674548D01*
X880622D01*
Y672516D01*
X881638D01*
X893638D02*
Y671500D01*
X895670D01*
Y672516D01*
X896686D01*
Y674548D01*
X895670D01*
Y675564D01*
X893638D01*
Y674548D01*
X892622D01*
Y672516D01*
X893638D01*
X917638D02*
Y671500D01*
X919670D01*
Y672516D01*
X920686D01*
Y674548D01*
X919670D01*
Y675564D01*
X917638D01*
Y674548D01*
X916622D01*
Y672516D01*
X917638D01*
X929638D02*
Y671500D01*
X931670D01*
Y672516D01*
X932686D01*
Y674548D01*
X931670D01*
Y675564D01*
X929638D01*
Y674548D01*
X928622D01*
Y672516D01*
X929638D01*
X905638D02*
Y671500D01*
X907670D01*
Y672516D01*
X908686D01*
Y674548D01*
X907670D01*
Y675564D01*
X905638D01*
Y674548D01*
X904622D01*
Y672516D01*
X905638D01*
Y625516D02*
Y624500D01*
X907670D01*
Y625516D01*
X908686D01*
Y627548D01*
X907670D01*
Y628564D01*
X905638D01*
Y627548D01*
X904622D01*
Y625516D01*
X905638D01*
X929638D02*
Y624500D01*
X931670D01*
Y625516D01*
X932686D01*
Y627548D01*
X931670D01*
Y628564D01*
X929638D01*
Y627548D01*
X928622D01*
Y625516D01*
X929638D01*
X917638D02*
Y624500D01*
X919670D01*
Y625516D01*
X920686D01*
Y627548D01*
X919670D01*
Y628564D01*
X917638D01*
Y627548D01*
X916622D01*
Y625516D01*
X917638D01*
X893638D02*
Y624500D01*
X895670D01*
Y625516D01*
X896686D01*
Y627548D01*
X895670D01*
Y628564D01*
X893638D01*
Y627548D01*
X892622D01*
Y625516D01*
X893638D01*
X881638D02*
Y624500D01*
X883670D01*
Y625516D01*
X884686D01*
Y627548D01*
X883670D01*
Y628564D01*
X881638D01*
Y627548D01*
X880622D01*
Y625516D01*
X881638D01*
X905638Y649016D02*
Y648000D01*
X907670D01*
Y649016D01*
X908686D01*
Y651048D01*
X907670D01*
Y652064D01*
X905638D01*
Y651048D01*
X904622D01*
Y649016D01*
X905638D01*
X893638D02*
Y648000D01*
X895670D01*
Y649016D01*
X896686D01*
Y651048D01*
X895670D01*
Y652064D01*
X893638D01*
Y651048D01*
X892622D01*
Y649016D01*
X893638D01*
X881638D02*
Y648000D01*
X883670D01*
Y649016D01*
X884686D01*
Y651048D01*
X883670D01*
Y652064D01*
X881638D01*
Y651048D01*
X880622D01*
Y649016D01*
X881638D01*
X917638D02*
Y648000D01*
X919670D01*
Y649016D01*
X920686D01*
Y651048D01*
X919670D01*
Y652064D01*
X917638D01*
Y651048D01*
X916622D01*
Y649016D01*
X917638D01*
X929638D02*
Y648000D01*
X931670D01*
Y649016D01*
X932686D01*
Y651048D01*
X931670D01*
Y652064D01*
X929638D01*
Y651048D01*
X928622D01*
Y649016D01*
X929638D01*
X905638Y660766D02*
Y659750D01*
X907670D01*
Y660766D01*
X908686D01*
Y662798D01*
X907670D01*
Y663814D01*
X905638D01*
Y662798D01*
X904622D01*
Y660766D01*
X905638D01*
X929638D02*
Y659750D01*
X931670D01*
Y660766D01*
X932686D01*
Y662798D01*
X931670D01*
Y663814D01*
X929638D01*
Y662798D01*
X928622D01*
Y660766D01*
X929638D01*
X917638D02*
Y659750D01*
X919670D01*
Y660766D01*
X920686D01*
Y662798D01*
X919670D01*
Y663814D01*
X917638D01*
Y662798D01*
X916622D01*
Y660766D01*
X917638D01*
X893638D02*
Y659750D01*
X895670D01*
Y660766D01*
X896686D01*
Y662798D01*
X895670D01*
Y663814D01*
X893638D01*
Y662798D01*
X892622D01*
Y660766D01*
X893638D01*
X881638D02*
Y659750D01*
X883670D01*
Y660766D01*
X884686D01*
Y662798D01*
X883670D01*
Y663814D01*
X881638D01*
Y662798D01*
X880622D01*
Y660766D01*
X881638D01*
X905638Y637266D02*
Y636250D01*
X907670D01*
Y637266D01*
X908686D01*
Y639298D01*
X907670D01*
Y640314D01*
X905638D01*
Y639298D01*
X904622D01*
Y637266D01*
X905638D01*
X929638D02*
Y636250D01*
X931670D01*
Y637266D01*
X932686D01*
Y639298D01*
X931670D01*
Y640314D01*
X929638D01*
Y639298D01*
X928622D01*
Y637266D01*
X929638D01*
X917638D02*
Y636250D01*
X919670D01*
Y637266D01*
X920686D01*
Y639298D01*
X919670D01*
Y640314D01*
X917638D01*
Y639298D01*
X916622D01*
Y637266D01*
X917638D01*
X893638D02*
Y636250D01*
X895670D01*
Y637266D01*
X896686D01*
Y639298D01*
X895670D01*
Y640314D01*
X893638D01*
Y639298D01*
X892622D01*
Y637266D01*
X893638D01*
X881638D02*
Y636250D01*
X883670D01*
Y637266D01*
X884686D01*
Y639298D01*
X883670D01*
Y640314D01*
X881638D01*
Y639298D01*
X880622D01*
Y637266D01*
X881638D01*
X963138Y627016D02*
Y626000D01*
X965170D01*
Y627016D01*
X966186D01*
Y629048D01*
X965170D01*
Y630064D01*
X963138D01*
Y629048D01*
X962122D01*
Y627016D01*
X963138D01*
Y643016D02*
Y642000D01*
X965170D01*
Y643016D01*
X966186D01*
Y645048D01*
X965170D01*
Y646064D01*
X963138D01*
Y645048D01*
X962122D01*
Y643016D01*
X963138D01*
X782138Y661016D02*
Y660000D01*
X784170D01*
Y661016D01*
X785186D01*
Y663048D01*
X784170D01*
Y664064D01*
X782138D01*
Y663048D01*
X781122D01*
Y661016D01*
X782138D01*
X765138D02*
Y660000D01*
X767170D01*
Y661016D01*
X768186D01*
Y663048D01*
X767170D01*
Y664064D01*
X765138D01*
Y663048D01*
X764122D01*
Y661016D01*
X765138D01*
X847138Y650016D02*
Y649000D01*
X849170D01*
Y650016D01*
X850186D01*
Y652048D01*
X849170D01*
Y653064D01*
X847138D01*
Y652048D01*
X846122D01*
Y650016D01*
X847138D01*
X846388Y662016D02*
Y661000D01*
X848420D01*
Y662016D01*
X849436D01*
Y664048D01*
X848420D01*
Y665064D01*
X846388D01*
Y664048D01*
X845372D01*
Y662016D01*
X846388D01*
X847138Y601016D02*
Y600000D01*
X849170D01*
Y601016D01*
X850186D01*
Y603048D01*
X849170D01*
Y604064D01*
X847138D01*
Y603048D01*
X846122D01*
Y601016D01*
X847138D01*
X817138Y622016D02*
Y621000D01*
X819170D01*
Y622016D01*
X820186D01*
Y624048D01*
X819170D01*
Y625064D01*
X817138D01*
Y624048D01*
X816122D01*
Y622016D01*
X817138D01*
X911138Y554016D02*
Y553000D01*
X913170D01*
Y554016D01*
X914186D01*
Y556048D01*
X913170D01*
Y557064D01*
X911138D01*
Y556048D01*
X910122D01*
Y554016D01*
X911138D01*
X886138Y561016D02*
Y560000D01*
X888170D01*
Y561016D01*
X889186D01*
Y563048D01*
X888170D01*
Y564064D01*
X886138D01*
Y563048D01*
X885122D01*
Y561016D01*
X886138D01*
X995137Y612517D02*
Y611501D01*
X997169D01*
Y612517D01*
X998185D01*
Y614549D01*
X997169D01*
Y615565D01*
X995137D01*
Y614549D01*
X994121D01*
Y612517D01*
X995137D01*
X996958Y620878D02*
Y619862D01*
X998990D01*
Y620878D01*
X1000006D01*
Y622910D01*
X998990D01*
Y623926D01*
X996958D01*
Y622910D01*
X995942D01*
Y620878D01*
X996958D01*
X995138Y630016D02*
Y629000D01*
X997170D01*
Y630016D01*
X998186D01*
Y632048D01*
X997170D01*
Y633064D01*
X995138D01*
Y632048D01*
X994122D01*
Y630016D01*
X995138D01*
X995908Y650128D02*
Y649112D01*
X997940D01*
Y650128D01*
X998956D01*
Y652160D01*
X997940D01*
Y653176D01*
X995908D01*
Y652160D01*
X994892D01*
Y650128D01*
X995908D01*
X915138Y708516D02*
Y707500D01*
X917170D01*
Y708516D01*
X918186D01*
Y710548D01*
X917170D01*
Y711564D01*
X915138D01*
Y710548D01*
X914122D01*
Y708516D01*
X915138D01*
X905138Y709266D02*
Y708250D01*
X907170D01*
Y709266D01*
X908186D01*
Y711298D01*
X907170D01*
Y712314D01*
X905138D01*
Y711298D01*
X904122D01*
Y709266D01*
X905138D01*
X902138Y587016D02*
Y586000D01*
X904170D01*
Y587016D01*
X905186D01*
Y589048D01*
X904170D01*
Y590064D01*
X902138D01*
Y589048D01*
X901122D01*
Y587016D01*
X902138D01*
X886638Y586516D02*
Y585500D01*
X888670D01*
Y586516D01*
X889686D01*
Y588548D01*
X888670D01*
Y589564D01*
X886638D01*
Y588548D01*
X885622D01*
Y586516D01*
X886638D01*
X877137Y585516D02*
Y584500D01*
X879169D01*
Y585516D01*
X880185D01*
Y587548D01*
X879169D01*
Y588564D01*
X877137D01*
Y587548D01*
X876121D01*
Y585516D01*
X877137D01*
X918138Y587516D02*
Y586500D01*
X920170D01*
Y587516D01*
X921186D01*
Y589548D01*
X920170D01*
Y590564D01*
X918138D01*
Y589548D01*
X917122D01*
Y587516D01*
X918138D01*
X934638Y587016D02*
Y586000D01*
X936670D01*
Y587016D01*
X937686D01*
Y589048D01*
X936670D01*
Y590064D01*
X934638D01*
Y589048D01*
X933622D01*
Y587016D01*
X934638D01*
X695916Y743794D02*
Y742778D01*
X697948D01*
Y743794D01*
X698964D01*
Y745826D01*
X697948D01*
Y746842D01*
X695916D01*
Y745826D01*
X694900D01*
Y743794D01*
X695916D01*
X768138Y537016D02*
Y536000D01*
X770170D01*
Y537016D01*
X771186D01*
Y539048D01*
X770170D01*
Y540064D01*
X768138D01*
Y539048D01*
X767122D01*
Y537016D01*
X768138D01*
X799138Y537016D02*
Y536000D01*
X801170D01*
Y537016D01*
X802186D01*
Y539048D01*
X801170D01*
Y540064D01*
X799138D01*
Y539048D01*
X798122D01*
Y537016D01*
X799138D01*
X832138D02*
Y536000D01*
X834170D01*
Y537016D01*
X835186D01*
Y539048D01*
X834170D01*
Y540064D01*
X832138D01*
Y539048D01*
X831122D01*
Y537016D01*
X832138D01*
X1082138Y682016D02*
Y681000D01*
X1084170D01*
Y682016D01*
X1085186D01*
Y684048D01*
X1084170D01*
Y685064D01*
X1082138D01*
Y684048D01*
X1081122D01*
Y682016D01*
X1082138D01*
X1082138Y667016D02*
Y666000D01*
X1084170D01*
Y667016D01*
X1085186D01*
Y669048D01*
X1084170D01*
Y670064D01*
X1082138D01*
Y669048D01*
X1081122D01*
Y667016D01*
X1082138D01*
X1023138Y670016D02*
Y669000D01*
X1025170D01*
Y670016D01*
X1026186D01*
Y672048D01*
X1025170D01*
Y673064D01*
X1023138D01*
Y672048D01*
X1022122D01*
Y670016D01*
X1023138D01*
X595138Y888016D02*
Y887000D01*
X597170D01*
Y888016D01*
X598186D01*
Y890048D01*
X597170D01*
Y891064D01*
X595138D01*
Y890048D01*
X594122D01*
Y888016D01*
X595138D01*
X1193138Y1105016D02*
Y1104000D01*
X1195170D01*
Y1105016D01*
X1196186D01*
Y1107048D01*
X1195170D01*
Y1108064D01*
X1193138D01*
Y1107048D01*
X1192122D01*
Y1105016D01*
X1193138D01*
X905138D02*
Y1104000D01*
X907170D01*
Y1105016D01*
X908186D01*
Y1107048D01*
X907170D01*
Y1108064D01*
X905138D01*
Y1107048D01*
X904122D01*
Y1105016D01*
X905138D01*
X759445Y892016D02*
Y891000D01*
X761477D01*
Y892016D01*
X762493D01*
Y894048D01*
X761477D01*
Y895064D01*
X759445D01*
Y894048D01*
X758429D01*
Y892016D01*
X759445D01*
X680138Y862766D02*
Y861750D01*
X682170D01*
Y862766D01*
X683186D01*
Y864798D01*
X682170D01*
Y865814D01*
X680138D01*
Y864798D01*
X679122D01*
Y862766D01*
X680138D01*
X685138Y896016D02*
Y895000D01*
X687170D01*
Y896016D01*
X688186D01*
Y898048D01*
X687170D01*
Y899064D01*
X685138D01*
Y898048D01*
X684122D01*
Y896016D01*
X685138D01*
X644137Y906015D02*
Y904999D01*
X646169D01*
Y906015D01*
X647185D01*
Y908047D01*
X646169D01*
Y909063D01*
X644137D01*
Y908047D01*
X643121D01*
Y906015D01*
X644137D01*
X724138Y910016D02*
Y909000D01*
X726170D01*
Y910016D01*
X727186D01*
Y912048D01*
X726170D01*
Y913064D01*
X724138D01*
Y912048D01*
X723122D01*
Y910016D01*
X724138D01*
X1099939Y653016D02*
Y652000D01*
X1101972D01*
Y653016D01*
X1102988D01*
Y655048D01*
X1101972D01*
Y656064D01*
X1099939D01*
Y655048D01*
X1098923D01*
Y653016D01*
X1099939D01*
X1066138Y626016D02*
Y625000D01*
X1068170D01*
Y626016D01*
X1069186D01*
Y628048D01*
X1068170D01*
Y629064D01*
X1066138D01*
Y628048D01*
X1065122D01*
Y626016D01*
X1066138D01*
Y587016D02*
Y586000D01*
X1068170D01*
Y587016D01*
X1069186D01*
Y589048D01*
X1068170D01*
Y590064D01*
X1066138D01*
Y589048D01*
X1065122D01*
Y587016D01*
X1066138D01*
X1046938Y623216D02*
Y622200D01*
X1048970D01*
Y623216D01*
X1049986D01*
Y625248D01*
X1048970D01*
Y626264D01*
X1046938D01*
Y625248D01*
X1045922D01*
Y623216D01*
X1046938D01*
X1001928Y556016D02*
Y555000D01*
X1003960D01*
Y556016D01*
X1004976D01*
Y558048D01*
X1003960D01*
Y559064D01*
X1001928D01*
Y558048D01*
X1000912D01*
Y556016D01*
X1001928D01*
X1017966Y557016D02*
Y556000D01*
X1019998D01*
Y557016D01*
X1021014D01*
Y559048D01*
X1019998D01*
Y560064D01*
X1017966D01*
Y559048D01*
X1016950D01*
Y557016D01*
X1017966D01*
X1001956Y571016D02*
Y570000D01*
X1003988D01*
Y571016D01*
X1005004D01*
Y573048D01*
X1003988D01*
Y574064D01*
X1001956D01*
Y573048D01*
X1000940D01*
Y571016D01*
X1001956D01*
X1116138Y653016D02*
Y652000D01*
X1118170D01*
Y653016D01*
X1119186D01*
Y655048D01*
X1118170D01*
Y656064D01*
X1116138D01*
Y655048D01*
X1115122D01*
Y653016D01*
X1116138D01*
Y638016D02*
Y637000D01*
X1118170D01*
Y638016D01*
X1119186D01*
Y640048D01*
X1118170D01*
Y641064D01*
X1116138D01*
Y640048D01*
X1115122D01*
Y638016D01*
X1116138D01*
X1099939D02*
Y637000D01*
X1101972D01*
Y638016D01*
X1102988D01*
Y640048D01*
X1101972D01*
Y641064D01*
X1099939D01*
Y640048D01*
X1098923D01*
Y638016D01*
X1099939D01*
Y623216D02*
Y622200D01*
X1101972D01*
Y623216D01*
X1102988D01*
Y625248D01*
X1101972D01*
Y626264D01*
X1099939D01*
Y625248D01*
X1098923D01*
Y623216D01*
X1099939D01*
Y611016D02*
Y610000D01*
X1101972D01*
Y611016D01*
X1102988D01*
Y613048D01*
X1101972D01*
Y614064D01*
X1099939D01*
Y613048D01*
X1098923D01*
Y611016D01*
X1099939D01*
X1082138Y623216D02*
Y622200D01*
X1084170D01*
Y623216D01*
X1085186D01*
Y625248D01*
X1084170D01*
Y626264D01*
X1082138D01*
Y625248D01*
X1081122D01*
Y623216D01*
X1082138D01*
X1081138Y611016D02*
Y610000D01*
X1083170D01*
Y611016D01*
X1084186D01*
Y613048D01*
X1083170D01*
Y614064D01*
X1081138D01*
Y613048D01*
X1080122D01*
Y611016D01*
X1081138D01*
X1193438Y715016D02*
Y714000D01*
X1195470D01*
Y715016D01*
X1196486D01*
Y717048D01*
X1195470D01*
Y718064D01*
X1193438D01*
Y717048D01*
X1192422D01*
Y715016D01*
X1193438D01*
X1193138Y697016D02*
Y696000D01*
X1195170D01*
Y697016D01*
X1196186D01*
Y699048D01*
X1195170D01*
Y700064D01*
X1193138D01*
Y699048D01*
X1192122D01*
Y697016D01*
X1193138D01*
Y676016D02*
Y675000D01*
X1195170D01*
Y676016D01*
X1196186D01*
Y678048D01*
X1195170D01*
Y679064D01*
X1193138D01*
Y678048D01*
X1192122D01*
Y676016D01*
X1193138D01*
Y658238D02*
Y657222D01*
X1195170D01*
Y658238D01*
X1196186D01*
Y660270D01*
X1195170D01*
Y661286D01*
X1193138D01*
Y660270D01*
X1192122D01*
Y658238D01*
X1193138D01*
Y641016D02*
Y640000D01*
X1195170D01*
Y641016D01*
X1196186D01*
Y643048D01*
X1195170D01*
Y644064D01*
X1193138D01*
Y643048D01*
X1192122D01*
Y641016D01*
X1193138D01*
X1170342Y658238D02*
Y657222D01*
X1172374D01*
Y658238D01*
X1173391D01*
Y660270D01*
X1172374D01*
Y661286D01*
X1170342D01*
Y660270D01*
X1169326D01*
Y658238D01*
X1170342D01*
Y676016D02*
Y675000D01*
X1172374D01*
Y676016D01*
X1173391D01*
Y678048D01*
X1172374D01*
Y679064D01*
X1170342D01*
Y678048D01*
X1169326D01*
Y676016D01*
X1170342D01*
Y697016D02*
Y696000D01*
X1172374D01*
Y697016D01*
X1173391D01*
Y699048D01*
X1172374D01*
Y700064D01*
X1170342D01*
Y699048D01*
X1169326D01*
Y697016D01*
X1170342D01*
X1170642Y715016D02*
Y714000D01*
X1172674D01*
Y715016D01*
X1173690D01*
Y717048D01*
X1172674D01*
Y718064D01*
X1170642D01*
Y717048D01*
X1169626D01*
Y715016D01*
X1170642D01*
X1149188Y658238D02*
Y657222D01*
X1151220D01*
Y658238D01*
X1152236D01*
Y660270D01*
X1151220D01*
Y661286D01*
X1149188D01*
Y660270D01*
X1148172D01*
Y658238D01*
X1149188D01*
Y676016D02*
Y675000D01*
X1151220D01*
Y676016D01*
X1152236D01*
Y678048D01*
X1151220D01*
Y679064D01*
X1149188D01*
Y678048D01*
X1148172D01*
Y676016D01*
X1149188D01*
Y697016D02*
Y696000D01*
X1151220D01*
Y697016D01*
X1152236D01*
Y699048D01*
X1151220D01*
Y700064D01*
X1149188D01*
Y699048D01*
X1148172D01*
Y697016D01*
X1149188D01*
X1149488Y715016D02*
Y714000D01*
X1151520D01*
Y715016D01*
X1152536D01*
Y717048D01*
X1151520D01*
Y718064D01*
X1149488D01*
Y717048D01*
X1148472D01*
Y715016D01*
X1149488D01*
X1170138Y641016D02*
Y640000D01*
X1172170D01*
Y641016D01*
X1173186D01*
Y643048D01*
X1172170D01*
Y644064D01*
X1170138D01*
Y643048D01*
X1169122D01*
Y641016D01*
X1170138D01*
X1171138Y621859D02*
Y620843D01*
X1173170D01*
Y621859D01*
X1174186D01*
Y623891D01*
X1173170D01*
Y624907D01*
X1171138D01*
Y623891D01*
X1170122D01*
Y621859D01*
X1171138D01*
X1193138D02*
Y620843D01*
X1195170D01*
Y621859D01*
X1196186D01*
Y623891D01*
X1195170D01*
Y624907D01*
X1193138D01*
Y623891D01*
X1192122D01*
Y621859D01*
X1193138D01*
X954863Y703016D02*
Y702000D01*
X956895D01*
Y703016D01*
X957911D01*
Y705048D01*
X956895D01*
Y706064D01*
X954863D01*
Y705048D01*
X953847D01*
Y703016D01*
X954863D01*
X947863D02*
Y702000D01*
X949895D01*
Y703016D01*
X950911D01*
Y705048D01*
X949895D01*
Y706064D01*
X947863D01*
Y705048D01*
X946847D01*
Y703016D01*
X947863D01*
X940863D02*
Y702000D01*
X942895D01*
Y703016D01*
X943911D01*
Y705048D01*
X942895D01*
Y706064D01*
X940863D01*
Y705048D01*
X939847D01*
Y703016D01*
X940863D01*
X933863D02*
Y702000D01*
X935895D01*
Y703016D01*
X936911D01*
Y705048D01*
X935895D01*
Y706064D01*
X933863D01*
Y705048D01*
X932847D01*
Y703016D01*
X933863D01*
X926863D02*
Y702000D01*
X928895D01*
Y703016D01*
X929911D01*
Y705048D01*
X928895D01*
Y706064D01*
X926863D01*
Y705048D01*
X925847D01*
Y703016D01*
X926863D01*
X999138Y684016D02*
Y683000D01*
X1001170D01*
Y684016D01*
X1002186D01*
Y686048D01*
X1001170D01*
Y687064D01*
X999138D01*
Y686048D01*
X998122D01*
Y684016D01*
X999138D01*
X890138Y711016D02*
Y710000D01*
X892170D01*
Y711016D01*
X893186D01*
Y713048D01*
X892170D01*
Y714064D01*
X890138D01*
Y713048D01*
X889122D01*
Y711016D01*
X890138D01*
X898138D02*
Y710000D01*
X900170D01*
Y711016D01*
X901186D01*
Y713048D01*
X900170D01*
Y714064D01*
X898138D01*
Y713048D01*
X897122D01*
Y711016D01*
X898138D01*
X584638Y570483D02*
Y569467D01*
X586670D01*
Y570483D01*
X587686D01*
Y572515D01*
X586670D01*
Y573531D01*
X584638D01*
Y572515D01*
X583622D01*
Y570483D01*
X584638D01*
Y553083D02*
Y552067D01*
X586670D01*
Y553083D01*
X587686D01*
Y555115D01*
X586670D01*
Y556131D01*
X584638D01*
Y555115D01*
X583622D01*
Y553083D01*
X584638D01*
Y537483D02*
Y536467D01*
X586670D01*
Y537483D01*
X587686D01*
Y539515D01*
X586670D01*
Y540531D01*
X584638D01*
Y539515D01*
X583622D01*
Y537483D01*
X584638D01*
X602013D02*
Y536467D01*
X604045D01*
Y537483D01*
X605061D01*
Y539515D01*
X604045D01*
Y540531D01*
X602013D01*
Y539515D01*
X600997D01*
Y537483D01*
X602013D01*
Y553083D02*
Y552067D01*
X604045D01*
Y553083D01*
X605061D01*
Y555115D01*
X604045D01*
Y556131D01*
X602013D01*
Y555115D01*
X600997D01*
Y553083D01*
X602013D01*
Y570483D02*
Y569467D01*
X604045D01*
Y570483D01*
X605061D01*
Y572515D01*
X604045D01*
Y573531D01*
X602013D01*
Y572515D01*
X600997D01*
Y570483D01*
X602013D01*
X619970Y537016D02*
Y536000D01*
X622002D01*
Y537016D01*
X623018D01*
Y539048D01*
X622002D01*
Y540064D01*
X619970D01*
Y539048D01*
X618954D01*
Y537016D01*
X619970D01*
Y552616D02*
Y551600D01*
X622002D01*
Y552616D01*
X623018D01*
Y554648D01*
X622002D01*
Y555664D01*
X619970D01*
Y554648D01*
X618954D01*
Y552616D01*
X619970D01*
Y570016D02*
Y569000D01*
X622002D01*
Y570016D01*
X623018D01*
Y572048D01*
X622002D01*
Y573064D01*
X619970D01*
Y572048D01*
X618954D01*
Y570016D01*
X619970D01*
X615138Y618016D02*
Y617000D01*
X617170D01*
Y618016D01*
X618186D01*
Y620048D01*
X617170D01*
Y621064D01*
X615138D01*
Y620048D01*
X614122D01*
Y618016D01*
X615138D01*
X638138Y652016D02*
Y651000D01*
X640170D01*
Y652016D01*
X641186D01*
Y654048D01*
X640170D01*
Y655064D01*
X638138D01*
Y654048D01*
X637122D01*
Y652016D01*
X638138D01*
X804638Y708516D02*
Y707500D01*
X806670D01*
Y708516D01*
X807686D01*
Y710548D01*
X806670D01*
Y711564D01*
X804638D01*
Y710548D01*
X803622D01*
Y708516D01*
X804638D01*
X795638D02*
Y707500D01*
X797670D01*
Y708516D01*
X798686D01*
Y710548D01*
X797670D01*
Y711564D01*
X795638D01*
Y710548D01*
X794622D01*
Y708516D01*
X795638D01*
D140*
X803786Y777032D02*
G03*
X803786Y777032I-2032J0D01*
G01*
X778386D02*
G03*
X778386Y777032I-2032J0D01*
G01*
X752986D02*
G03*
X752986Y777032I-2032J0D01*
G01*
X727586D02*
G03*
X727586Y777032I-2032J0D01*
G01*
X702186D02*
G03*
X702186Y777032I-2032J0D01*
G01*
X873786Y496032D02*
G03*
X873786Y496032I-2032J0D01*
G01*
X848386D02*
G03*
X848386Y496032I-2032J0D01*
G01*
X822986D02*
G03*
X822986Y496032I-2032J0D01*
G01*
X797586D02*
G03*
X797586Y496032I-2032J0D01*
G01*
X772186D02*
G03*
X772186Y496032I-2032J0D01*
G01*
X1155176Y540032D02*
G03*
X1155176Y540032I-2032J0D01*
G01*
X1129776D02*
G03*
X1129776Y540032I-2032J0D01*
G01*
X1197186Y570232D02*
G03*
X1197186Y570232I-2032J0D01*
G01*
Y544832D02*
G03*
X1197186Y544832I-2032J0D01*
G01*
Y519432D02*
G03*
X1197186Y519432I-2032J0D01*
G01*
Y494032D02*
G03*
X1197186Y494032I-2032J0D01*
G01*
X831186Y793032D02*
G03*
X831186Y793032I-2032J0D01*
G01*
X856586D02*
G03*
X856586Y793032I-2032J0D01*
G01*
X881986D02*
G03*
X881986Y793032I-2032J0D01*
G01*
X967186D02*
G03*
X967186Y793032I-2032J0D01*
G01*
X992586D02*
G03*
X992586Y793032I-2032J0D01*
G01*
X1017986D02*
G03*
X1017986Y793032I-2032J0D01*
G01*
X1107186D02*
G03*
X1107186Y793032I-2032J0D01*
G01*
X1132586D02*
G03*
X1132586Y793032I-2032J0D01*
G01*
X1157986D02*
G03*
X1157986Y793032I-2032J0D01*
G01*
M02*
