%FSLAX44Y44*%
%MOMM*%
G71*
G01*
G75*
G04 Layer_Color=8421504*
%ADD10R,0.9500X1.0000*%
%ADD11R,7.0000X7.0000*%
%ADD12O,0.3000X1.6500*%
%ADD13O,1.6500X0.3000*%
%ADD14R,1.3000X1.8500*%
%ADD15R,1.0000X0.9500*%
%ADD16R,1.8500X1.3000*%
G04:AMPARAMS|DCode=17|XSize=1.05mm|YSize=3.82mm|CornerRadius=0.0525mm|HoleSize=0mm|Usage=FLASHONLY|Rotation=180.000|XOffset=0mm|YOffset=0mm|HoleType=Round|Shape=RoundedRectangle|*
%AMROUNDEDRECTD17*
21,1,1.0500,3.7150,0,0,180.0*
21,1,0.9450,3.8200,0,0,180.0*
1,1,0.1050,-0.4725,1.8575*
1,1,0.1050,0.4725,1.8575*
1,1,0.1050,0.4725,-1.8575*
1,1,0.1050,-0.4725,-1.8575*
%
%ADD17ROUNDEDRECTD17*%
G04:AMPARAMS|DCode=18|XSize=7.48mm|YSize=8.55mm|CornerRadius=0.0374mm|HoleSize=0mm|Usage=FLASHONLY|Rotation=90.000|XOffset=0mm|YOffset=0mm|HoleType=Round|Shape=RoundedRectangle|*
%AMROUNDEDRECTD18*
21,1,7.4800,8.4752,0,0,90.0*
21,1,7.4052,8.5500,0,0,90.0*
1,1,0.0748,4.2376,3.7026*
1,1,0.0748,4.2376,-3.7026*
1,1,0.0748,-4.2376,-3.7026*
1,1,0.0748,-4.2376,3.7026*
%
%ADD18ROUNDEDRECTD18*%
G04:AMPARAMS|DCode=19|XSize=0.6mm|YSize=1mm|CornerRadius=0.15mm|HoleSize=0mm|Usage=FLASHONLY|Rotation=90.000|XOffset=0mm|YOffset=0mm|HoleType=Round|Shape=RoundedRectangle|*
%AMROUNDEDRECTD19*
21,1,0.6000,0.7000,0,0,90.0*
21,1,0.3000,1.0000,0,0,90.0*
1,1,0.3000,0.3500,0.1500*
1,1,0.3000,0.3500,-0.1500*
1,1,0.3000,-0.3500,-0.1500*
1,1,0.3000,-0.3500,0.1500*
%
%ADD19ROUNDEDRECTD19*%
%ADD20R,1.0000X0.6000*%
%ADD21R,2.1000X5.8000*%
%ADD22R,0.8000X0.6000*%
%ADD23R,1.6000X3.9000*%
%ADD24R,0.5000X0.6000*%
%ADD25R,0.6000X0.8000*%
%ADD26O,0.6000X1.9000*%
%ADD27R,0.6000X1.2000*%
%ADD28R,1.1500X1.4000*%
%ADD29R,1.8000X1.9000*%
%ADD30R,2.3000X1.9000*%
%ADD31R,0.4000X1.4000*%
%ADD32R,0.8000X0.8000*%
%ADD33R,1.0000X0.4000*%
%ADD34R,0.9000X1.4000*%
%ADD35R,2.2000X1.4000*%
%ADD36R,0.6500X0.4000*%
%ADD37R,1.6002X1.2700*%
%ADD38R,2.2000X1.1000*%
%ADD39C,1.2000*%
%ADD40C,0.2500*%
%ADD41C,0.2540*%
%ADD42C,0.5000*%
%ADD43C,0.4000*%
%ADD44C,1.0160*%
%ADD45C,1.1000*%
%ADD46C,0.8000*%
%ADD47C,0.7500*%
%ADD48C,0.7620*%
%ADD49C,1.0000*%
%ADD50C,0.6000*%
%ADD51C,0.2032*%
%ADD52C,0.3500*%
%ADD53C,2.0000*%
%ADD54C,1.5000*%
%ADD55R,1.5000X1.5000*%
%ADD56R,1.5500X1.5500*%
%ADD57C,1.5500*%
G04:AMPARAMS|DCode=58|XSize=1.55mm|YSize=1.55mm|CornerRadius=0.0465mm|HoleSize=0mm|Usage=FLASHONLY|Rotation=180.000|XOffset=0mm|YOffset=0mm|HoleType=Round|Shape=RoundedRectangle|*
%AMROUNDEDRECTD58*
21,1,1.5500,1.4570,0,0,180.0*
21,1,1.4570,1.5500,0,0,180.0*
1,1,0.0930,-0.7285,0.7285*
1,1,0.0930,0.7285,0.7285*
1,1,0.0930,0.7285,-0.7285*
1,1,0.0930,-0.7285,-0.7285*
%
%ADD58ROUNDEDRECTD58*%
%ADD59R,1.5000X1.5000*%
%ADD60R,0.7000X0.7000*%
%ADD61C,0.7000*%
%ADD62C,0.6000*%
%ADD63C,5.0000*%
%ADD64R,2.1590X2.7430*%
G04:AMPARAMS|DCode=65|XSize=3.1mm|YSize=4mm|CornerRadius=0.0465mm|HoleSize=0mm|Usage=FLASHONLY|Rotation=0.000|XOffset=0mm|YOffset=0mm|HoleType=Round|Shape=RoundedRectangle|*
%AMROUNDEDRECTD65*
21,1,3.1000,3.9070,0,0,0.0*
21,1,3.0070,4.0000,0,0,0.0*
1,1,0.0930,1.5035,-1.9535*
1,1,0.0930,-1.5035,-1.9535*
1,1,0.0930,-1.5035,1.9535*
1,1,0.0930,1.5035,1.9535*
%
%ADD65ROUNDEDRECTD65*%
G04:AMPARAMS|DCode=66|XSize=0.6mm|YSize=1mm|CornerRadius=0.051mm|HoleSize=0mm|Usage=FLASHONLY|Rotation=180.000|XOffset=0mm|YOffset=0mm|HoleType=Round|Shape=RoundedRectangle|*
%AMROUNDEDRECTD66*
21,1,0.6000,0.8980,0,0,180.0*
21,1,0.4980,1.0000,0,0,180.0*
1,1,0.1020,-0.2490,0.4490*
1,1,0.1020,0.2490,0.4490*
1,1,0.1020,0.2490,-0.4490*
1,1,0.1020,-0.2490,-0.4490*
%
%ADD66ROUNDEDRECTD66*%
%ADD67R,0.6000X1.0000*%
%ADD68R,1.2000X1.0000*%
%ADD69R,1.2000X0.7000*%
%ADD70R,0.8000X1.0000*%
%ADD71R,2.8000X1.0000*%
%ADD72R,1.9000X1.3000*%
%ADD73C,0.2000*%
%ADD74C,0.1000*%
%ADD75C,0.1524*%
%ADD76C,0.2000*%
%ADD77C,0.1778*%
%ADD78C,0.3556*%
%ADD79C,0.1016*%
%ADD80R,0.8000X0.3000*%
%ADD81R,0.8250X0.2000*%
%ADD82R,1.6000X0.5000*%
%ADD83R,0.5080X2.1844*%
G36*
X1144187Y1069784D02*
X1144328Y1069644D01*
X1144404Y1069460D01*
Y1060561D01*
X1144328Y1060377D01*
X1144187Y1060237D01*
X1144004Y1060161D01*
X1135305D01*
X1135121Y1060237D01*
X1134980Y1060377D01*
X1134904Y1060561D01*
Y1069460D01*
X1134980Y1069644D01*
X1135121Y1069784D01*
X1135305Y1069861D01*
X1144004D01*
X1144187Y1069784D01*
D02*
G37*
G36*
X787187Y1081484D02*
X787328Y1081344D01*
X787404Y1081160D01*
Y1072261D01*
X787328Y1072077D01*
X787187Y1071937D01*
X787003Y1071861D01*
X778305D01*
X778121Y1071937D01*
X777980Y1072077D01*
X777904Y1072261D01*
Y1081160D01*
X777980Y1081344D01*
X778121Y1081484D01*
X778305Y1081561D01*
X787003D01*
X787187Y1081484D01*
D02*
G37*
G36*
X798687D02*
X798828Y1081344D01*
X798904Y1081160D01*
Y1072261D01*
X798828Y1072077D01*
X798687Y1071937D01*
X798503Y1071861D01*
X789805D01*
X789621Y1071937D01*
X789480Y1072077D01*
X789404Y1072261D01*
Y1081160D01*
X789480Y1081344D01*
X789621Y1081484D01*
X789805Y1081561D01*
X798503D01*
X798687Y1081484D01*
D02*
G37*
G36*
X1132687Y1069784D02*
X1132828Y1069644D01*
X1132904Y1069460D01*
Y1060561D01*
X1132828Y1060377D01*
X1132687Y1060237D01*
X1132504Y1060161D01*
X1123805D01*
X1123621Y1060237D01*
X1123480Y1060377D01*
X1123404Y1060561D01*
Y1069460D01*
X1123480Y1069644D01*
X1123621Y1069784D01*
X1123805Y1069861D01*
X1132504D01*
X1132687Y1069784D01*
D02*
G37*
G36*
X1098187D02*
X1098328Y1069644D01*
X1098404Y1069460D01*
Y1060561D01*
X1098328Y1060377D01*
X1098187Y1060237D01*
X1098003Y1060161D01*
X1089305D01*
X1089121Y1060237D01*
X1088980Y1060377D01*
X1088904Y1060561D01*
Y1069460D01*
X1088980Y1069644D01*
X1089121Y1069784D01*
X1089305Y1069861D01*
X1098003D01*
X1098187Y1069784D01*
D02*
G37*
G36*
X1109687D02*
X1109828Y1069644D01*
X1109904Y1069460D01*
Y1060561D01*
X1109828Y1060377D01*
X1109687Y1060237D01*
X1109503Y1060161D01*
X1100805D01*
X1100621Y1060237D01*
X1100480Y1060377D01*
X1100404Y1060561D01*
Y1069460D01*
X1100480Y1069644D01*
X1100621Y1069784D01*
X1100805Y1069861D01*
X1109503D01*
X1109687Y1069784D01*
D02*
G37*
G36*
X1121187D02*
X1121328Y1069644D01*
X1121404Y1069460D01*
Y1060561D01*
X1121328Y1060377D01*
X1121187Y1060237D01*
X1121003Y1060161D01*
X1112305D01*
X1112121Y1060237D01*
X1111980Y1060377D01*
X1111904Y1060561D01*
Y1069460D01*
X1111980Y1069644D01*
X1112121Y1069784D01*
X1112305Y1069861D01*
X1121003D01*
X1121187Y1069784D01*
D02*
G37*
G36*
X810187Y1081484D02*
X810328Y1081344D01*
X810404Y1081160D01*
Y1072261D01*
X810328Y1072077D01*
X810187Y1071937D01*
X810004Y1071861D01*
X801305D01*
X801121Y1071937D01*
X800980Y1072077D01*
X800904Y1072261D01*
Y1081160D01*
X800980Y1081344D01*
X801121Y1081484D01*
X801305Y1081561D01*
X810004D01*
X810187Y1081484D01*
D02*
G37*
G36*
X931187D02*
X931328Y1081344D01*
X931404Y1081160D01*
Y1072261D01*
X931328Y1072077D01*
X931187Y1071937D01*
X931003Y1071861D01*
X922305D01*
X922121Y1071937D01*
X921980Y1072077D01*
X921904Y1072261D01*
Y1081160D01*
X921980Y1081344D01*
X922121Y1081484D01*
X922305Y1081561D01*
X931003D01*
X931187Y1081484D01*
D02*
G37*
G36*
X942687D02*
X942828Y1081344D01*
X942904Y1081160D01*
Y1072261D01*
X942828Y1072077D01*
X942687Y1071937D01*
X942504Y1071861D01*
X933805D01*
X933621Y1071937D01*
X933480Y1072077D01*
X933404Y1072261D01*
Y1081160D01*
X933480Y1081344D01*
X933621Y1081484D01*
X933805Y1081561D01*
X942504D01*
X942687Y1081484D01*
D02*
G37*
G36*
X954187D02*
X954328Y1081344D01*
X954404Y1081160D01*
Y1072261D01*
X954328Y1072077D01*
X954187Y1071937D01*
X954004Y1071861D01*
X945305D01*
X945121Y1071937D01*
X944980Y1072077D01*
X944904Y1072261D01*
Y1081160D01*
X944980Y1081344D01*
X945121Y1081484D01*
X945305Y1081561D01*
X954004D01*
X954187Y1081484D01*
D02*
G37*
G36*
X856187D02*
X856328Y1081344D01*
X856404Y1081160D01*
Y1072261D01*
X856328Y1072077D01*
X856187Y1071937D01*
X856003Y1071861D01*
X847305D01*
X847121Y1071937D01*
X846980Y1072077D01*
X846904Y1072261D01*
Y1081160D01*
X846980Y1081344D01*
X847121Y1081484D01*
X847305Y1081561D01*
X856003D01*
X856187Y1081484D01*
D02*
G37*
G36*
X821687D02*
X821828Y1081344D01*
X821904Y1081160D01*
Y1072261D01*
X821828Y1072077D01*
X821687Y1071937D01*
X821504Y1071861D01*
X812805D01*
X812621Y1071937D01*
X812480Y1072077D01*
X812404Y1072261D01*
Y1081160D01*
X812480Y1081344D01*
X812621Y1081484D01*
X812805Y1081561D01*
X821504D01*
X821687Y1081484D01*
D02*
G37*
G36*
X833187D02*
X833328Y1081344D01*
X833404Y1081160D01*
Y1072261D01*
X833328Y1072077D01*
X833187Y1071937D01*
X833003Y1071861D01*
X824305D01*
X824121Y1071937D01*
X823980Y1072077D01*
X823904Y1072261D01*
Y1081160D01*
X823980Y1081344D01*
X824121Y1081484D01*
X824305Y1081561D01*
X833003D01*
X833187Y1081484D01*
D02*
G37*
G36*
X844687D02*
X844828Y1081344D01*
X844904Y1081160D01*
Y1072261D01*
X844828Y1072077D01*
X844687Y1071937D01*
X844503Y1071861D01*
X835805D01*
X835621Y1071937D01*
X835480Y1072077D01*
X835404Y1072261D01*
Y1081160D01*
X835480Y1081344D01*
X835621Y1081484D01*
X835805Y1081561D01*
X844503D01*
X844687Y1081484D01*
D02*
G37*
G36*
X1086687Y1069784D02*
X1086828Y1069644D01*
X1086904Y1069460D01*
Y1060561D01*
X1086828Y1060377D01*
X1086687Y1060237D01*
X1086504Y1060161D01*
X1077805D01*
X1077621Y1060237D01*
X1077480Y1060377D01*
X1077404Y1060561D01*
Y1069460D01*
X1077480Y1069644D01*
X1077621Y1069784D01*
X1077805Y1069861D01*
X1086504D01*
X1086687Y1069784D01*
D02*
G37*
G36*
X833187D02*
X833328Y1069644D01*
X833404Y1069460D01*
Y1060561D01*
X833328Y1060377D01*
X833187Y1060237D01*
X833003Y1060161D01*
X824305D01*
X824121Y1060237D01*
X823980Y1060377D01*
X823904Y1060561D01*
Y1069460D01*
X823980Y1069644D01*
X824121Y1069784D01*
X824305Y1069861D01*
X833003D01*
X833187Y1069784D01*
D02*
G37*
G36*
X844687D02*
X844828Y1069644D01*
X844904Y1069460D01*
Y1060561D01*
X844828Y1060377D01*
X844687Y1060237D01*
X844503Y1060161D01*
X835805D01*
X835621Y1060237D01*
X835480Y1060377D01*
X835404Y1060561D01*
Y1069460D01*
X835480Y1069644D01*
X835621Y1069784D01*
X835805Y1069861D01*
X844503D01*
X844687Y1069784D01*
D02*
G37*
G36*
X856187D02*
X856328Y1069644D01*
X856404Y1069460D01*
Y1060561D01*
X856328Y1060377D01*
X856187Y1060237D01*
X856003Y1060161D01*
X847305D01*
X847121Y1060237D01*
X846980Y1060377D01*
X846904Y1060561D01*
Y1069460D01*
X846980Y1069644D01*
X847121Y1069784D01*
X847305Y1069861D01*
X856003D01*
X856187Y1069784D01*
D02*
G37*
G36*
X821687D02*
X821828Y1069644D01*
X821904Y1069460D01*
Y1060561D01*
X821828Y1060377D01*
X821687Y1060237D01*
X821504Y1060161D01*
X812805D01*
X812621Y1060237D01*
X812480Y1060377D01*
X812404Y1060561D01*
Y1069460D01*
X812480Y1069644D01*
X812621Y1069784D01*
X812805Y1069861D01*
X821504D01*
X821687Y1069784D01*
D02*
G37*
G36*
X787187D02*
X787328Y1069644D01*
X787404Y1069460D01*
Y1060561D01*
X787328Y1060377D01*
X787187Y1060237D01*
X787003Y1060161D01*
X778305D01*
X778121Y1060237D01*
X777980Y1060377D01*
X777904Y1060561D01*
Y1069460D01*
X777980Y1069644D01*
X778121Y1069784D01*
X778305Y1069861D01*
X787003D01*
X787187Y1069784D01*
D02*
G37*
G36*
X798687D02*
X798828Y1069644D01*
X798904Y1069460D01*
Y1060561D01*
X798828Y1060377D01*
X798687Y1060237D01*
X798503Y1060161D01*
X789805D01*
X789621Y1060237D01*
X789480Y1060377D01*
X789404Y1060561D01*
Y1069460D01*
X789480Y1069644D01*
X789621Y1069784D01*
X789805Y1069861D01*
X798503D01*
X798687Y1069784D01*
D02*
G37*
G36*
X810187D02*
X810328Y1069644D01*
X810404Y1069460D01*
Y1060561D01*
X810328Y1060377D01*
X810187Y1060237D01*
X810004Y1060161D01*
X801305D01*
X801121Y1060237D01*
X800980Y1060377D01*
X800904Y1060561D01*
Y1069460D01*
X800980Y1069644D01*
X801121Y1069784D01*
X801305Y1069861D01*
X810004D01*
X810187Y1069784D01*
D02*
G37*
G36*
X931187D02*
X931328Y1069644D01*
X931404Y1069460D01*
Y1060561D01*
X931328Y1060377D01*
X931187Y1060237D01*
X931003Y1060161D01*
X922305D01*
X922121Y1060237D01*
X921980Y1060377D01*
X921904Y1060561D01*
Y1069460D01*
X921980Y1069644D01*
X922121Y1069784D01*
X922305Y1069861D01*
X931003D01*
X931187Y1069784D01*
D02*
G37*
G36*
X988687D02*
X988828Y1069644D01*
X988904Y1069460D01*
Y1060561D01*
X988828Y1060377D01*
X988687Y1060237D01*
X988503Y1060161D01*
X979805D01*
X979621Y1060237D01*
X979480Y1060377D01*
X979404Y1060561D01*
Y1069460D01*
X979480Y1069644D01*
X979621Y1069784D01*
X979805Y1069861D01*
X988503D01*
X988687Y1069784D01*
D02*
G37*
G36*
X1000187D02*
X1000328Y1069644D01*
X1000404Y1069460D01*
Y1060561D01*
X1000328Y1060377D01*
X1000187Y1060237D01*
X1000004Y1060161D01*
X991305D01*
X991121Y1060237D01*
X990980Y1060377D01*
X990904Y1060561D01*
Y1069460D01*
X990980Y1069644D01*
X991121Y1069784D01*
X991305Y1069861D01*
X1000004D01*
X1000187Y1069784D01*
D02*
G37*
G36*
X1075187D02*
X1075328Y1069644D01*
X1075404Y1069460D01*
Y1060561D01*
X1075328Y1060377D01*
X1075187Y1060237D01*
X1075004Y1060161D01*
X1066305D01*
X1066121Y1060237D01*
X1065980Y1060377D01*
X1065904Y1060561D01*
Y1069460D01*
X1065980Y1069644D01*
X1066121Y1069784D01*
X1066305Y1069861D01*
X1075004D01*
X1075187Y1069784D01*
D02*
G37*
G36*
X977187D02*
X977328Y1069644D01*
X977404Y1069460D01*
Y1060561D01*
X977328Y1060377D01*
X977187Y1060237D01*
X977003Y1060161D01*
X968305D01*
X968121Y1060237D01*
X967980Y1060377D01*
X967904Y1060561D01*
Y1069460D01*
X967980Y1069644D01*
X968121Y1069784D01*
X968305Y1069861D01*
X977003D01*
X977187Y1069784D01*
D02*
G37*
G36*
X942687D02*
X942828Y1069644D01*
X942904Y1069460D01*
Y1060561D01*
X942828Y1060377D01*
X942687Y1060237D01*
X942504Y1060161D01*
X933805D01*
X933621Y1060237D01*
X933480Y1060377D01*
X933404Y1060561D01*
Y1069460D01*
X933480Y1069644D01*
X933621Y1069784D01*
X933805Y1069861D01*
X942504D01*
X942687Y1069784D01*
D02*
G37*
G36*
X954187D02*
X954328Y1069644D01*
X954404Y1069460D01*
Y1060561D01*
X954328Y1060377D01*
X954187Y1060237D01*
X954004Y1060161D01*
X945305D01*
X945121Y1060237D01*
X944980Y1060377D01*
X944904Y1060561D01*
Y1069460D01*
X944980Y1069644D01*
X945121Y1069784D01*
X945305Y1069861D01*
X954004D01*
X954187Y1069784D01*
D02*
G37*
G36*
X965687D02*
X965828Y1069644D01*
X965904Y1069460D01*
Y1060561D01*
X965828Y1060377D01*
X965687Y1060237D01*
X965503Y1060161D01*
X956805D01*
X956621Y1060237D01*
X956480Y1060377D01*
X956404Y1060561D01*
Y1069460D01*
X956480Y1069644D01*
X956621Y1069784D01*
X956805Y1069861D01*
X965503D01*
X965687Y1069784D01*
D02*
G37*
G36*
Y1081484D02*
X965828Y1081344D01*
X965904Y1081160D01*
Y1072261D01*
X965828Y1072077D01*
X965687Y1071937D01*
X965503Y1071861D01*
X956805D01*
X956621Y1071937D01*
X956480Y1072077D01*
X956404Y1072261D01*
Y1081160D01*
X956480Y1081344D01*
X956621Y1081484D01*
X956805Y1081561D01*
X965503D01*
X965687Y1081484D01*
D02*
G37*
G36*
Y1093184D02*
X965828Y1093044D01*
X965904Y1092860D01*
Y1083961D01*
X965828Y1083777D01*
X965687Y1083637D01*
X965503Y1083560D01*
X956805D01*
X956621Y1083637D01*
X956480Y1083777D01*
X956404Y1083961D01*
Y1092860D01*
X956480Y1093044D01*
X956621Y1093184D01*
X956805Y1093261D01*
X965503D01*
X965687Y1093184D01*
D02*
G37*
G36*
X977187D02*
X977328Y1093044D01*
X977404Y1092860D01*
Y1083961D01*
X977328Y1083777D01*
X977187Y1083637D01*
X977003Y1083560D01*
X968305D01*
X968121Y1083637D01*
X967980Y1083777D01*
X967904Y1083961D01*
Y1092860D01*
X967980Y1093044D01*
X968121Y1093184D01*
X968305Y1093261D01*
X977003D01*
X977187Y1093184D01*
D02*
G37*
G36*
X988687D02*
X988828Y1093044D01*
X988904Y1092860D01*
Y1083961D01*
X988828Y1083777D01*
X988687Y1083637D01*
X988503Y1083560D01*
X979805D01*
X979621Y1083637D01*
X979480Y1083777D01*
X979404Y1083961D01*
Y1092860D01*
X979480Y1093044D01*
X979621Y1093184D01*
X979805Y1093261D01*
X988503D01*
X988687Y1093184D01*
D02*
G37*
G36*
X954187D02*
X954328Y1093044D01*
X954404Y1092860D01*
Y1083961D01*
X954328Y1083777D01*
X954187Y1083637D01*
X954004Y1083560D01*
X945305D01*
X945121Y1083637D01*
X944980Y1083777D01*
X944904Y1083961D01*
Y1092860D01*
X944980Y1093044D01*
X945121Y1093184D01*
X945305Y1093261D01*
X954004D01*
X954187Y1093184D01*
D02*
G37*
G36*
X856187D02*
X856328Y1093044D01*
X856404Y1092860D01*
Y1083961D01*
X856328Y1083777D01*
X856187Y1083637D01*
X856003Y1083560D01*
X847305D01*
X847121Y1083637D01*
X846980Y1083777D01*
X846904Y1083961D01*
Y1092860D01*
X846980Y1093044D01*
X847121Y1093184D01*
X847305Y1093261D01*
X856003D01*
X856187Y1093184D01*
D02*
G37*
G36*
X931187D02*
X931328Y1093044D01*
X931404Y1092860D01*
Y1083961D01*
X931328Y1083777D01*
X931187Y1083637D01*
X931003Y1083560D01*
X922305D01*
X922121Y1083637D01*
X921980Y1083777D01*
X921904Y1083961D01*
Y1092860D01*
X921980Y1093044D01*
X922121Y1093184D01*
X922305Y1093261D01*
X931003D01*
X931187Y1093184D01*
D02*
G37*
G36*
X942687D02*
X942828Y1093044D01*
X942904Y1092860D01*
Y1083961D01*
X942828Y1083777D01*
X942687Y1083637D01*
X942504Y1083560D01*
X933805D01*
X933621Y1083637D01*
X933480Y1083777D01*
X933404Y1083961D01*
Y1092860D01*
X933480Y1093044D01*
X933621Y1093184D01*
X933805Y1093261D01*
X942504D01*
X942687Y1093184D01*
D02*
G37*
G36*
X1000187D02*
X1000328Y1093044D01*
X1000404Y1092860D01*
Y1083961D01*
X1000328Y1083777D01*
X1000187Y1083637D01*
X1000004Y1083560D01*
X991305D01*
X991121Y1083637D01*
X990980Y1083777D01*
X990904Y1083961D01*
Y1092860D01*
X990980Y1093044D01*
X991121Y1093184D01*
X991305Y1093261D01*
X1000004D01*
X1000187Y1093184D01*
D02*
G37*
G36*
X1121187D02*
X1121328Y1093044D01*
X1121404Y1092860D01*
Y1083961D01*
X1121328Y1083777D01*
X1121187Y1083637D01*
X1121003Y1083560D01*
X1112305D01*
X1112121Y1083637D01*
X1111980Y1083777D01*
X1111904Y1083961D01*
Y1092860D01*
X1111980Y1093044D01*
X1112121Y1093184D01*
X1112305Y1093261D01*
X1121003D01*
X1121187Y1093184D01*
D02*
G37*
G36*
X1132687D02*
X1132828Y1093044D01*
X1132904Y1092860D01*
Y1083961D01*
X1132828Y1083777D01*
X1132687Y1083637D01*
X1132504Y1083560D01*
X1123805D01*
X1123621Y1083637D01*
X1123480Y1083777D01*
X1123404Y1083961D01*
Y1092860D01*
X1123480Y1093044D01*
X1123621Y1093184D01*
X1123805Y1093261D01*
X1132504D01*
X1132687Y1093184D01*
D02*
G37*
G36*
X1144187D02*
X1144328Y1093044D01*
X1144404Y1092860D01*
Y1083961D01*
X1144328Y1083777D01*
X1144187Y1083637D01*
X1144004Y1083560D01*
X1135305D01*
X1135121Y1083637D01*
X1134980Y1083777D01*
X1134904Y1083961D01*
Y1092860D01*
X1134980Y1093044D01*
X1135121Y1093184D01*
X1135305Y1093261D01*
X1144004D01*
X1144187Y1093184D01*
D02*
G37*
G36*
X1109687D02*
X1109828Y1093044D01*
X1109904Y1092860D01*
Y1083961D01*
X1109828Y1083777D01*
X1109687Y1083637D01*
X1109503Y1083560D01*
X1100805D01*
X1100621Y1083637D01*
X1100480Y1083777D01*
X1100404Y1083961D01*
Y1092860D01*
X1100480Y1093044D01*
X1100621Y1093184D01*
X1100805Y1093261D01*
X1109503D01*
X1109687Y1093184D01*
D02*
G37*
G36*
X1075187D02*
X1075328Y1093044D01*
X1075404Y1092860D01*
Y1083961D01*
X1075328Y1083777D01*
X1075187Y1083637D01*
X1075004Y1083560D01*
X1066305D01*
X1066121Y1083637D01*
X1065980Y1083777D01*
X1065904Y1083961D01*
Y1092860D01*
X1065980Y1093044D01*
X1066121Y1093184D01*
X1066305Y1093261D01*
X1075004D01*
X1075187Y1093184D01*
D02*
G37*
G36*
X1086687D02*
X1086828Y1093044D01*
X1086904Y1092860D01*
Y1083961D01*
X1086828Y1083777D01*
X1086687Y1083637D01*
X1086504Y1083560D01*
X1077805D01*
X1077621Y1083637D01*
X1077480Y1083777D01*
X1077404Y1083961D01*
Y1092860D01*
X1077480Y1093044D01*
X1077621Y1093184D01*
X1077805Y1093261D01*
X1086504D01*
X1086687Y1093184D01*
D02*
G37*
G36*
X1098187D02*
X1098328Y1093044D01*
X1098404Y1092860D01*
Y1083961D01*
X1098328Y1083777D01*
X1098187Y1083637D01*
X1098003Y1083560D01*
X1089305D01*
X1089121Y1083637D01*
X1088980Y1083777D01*
X1088904Y1083961D01*
Y1092860D01*
X1088980Y1093044D01*
X1089121Y1093184D01*
X1089305Y1093261D01*
X1098003D01*
X1098187Y1093184D01*
D02*
G37*
G36*
X844687D02*
X844828Y1093044D01*
X844904Y1092860D01*
Y1083961D01*
X844828Y1083777D01*
X844687Y1083637D01*
X844503Y1083560D01*
X835805D01*
X835621Y1083637D01*
X835480Y1083777D01*
X835404Y1083961D01*
Y1092860D01*
X835480Y1093044D01*
X835621Y1093184D01*
X835805Y1093261D01*
X844503D01*
X844687Y1093184D01*
D02*
G37*
G36*
X1086687Y1081484D02*
X1086828Y1081344D01*
X1086904Y1081160D01*
Y1072261D01*
X1086828Y1072077D01*
X1086687Y1071937D01*
X1086504Y1071861D01*
X1077805D01*
X1077621Y1071937D01*
X1077480Y1072077D01*
X1077404Y1072261D01*
Y1081160D01*
X1077480Y1081344D01*
X1077621Y1081484D01*
X1077805Y1081561D01*
X1086504D01*
X1086687Y1081484D01*
D02*
G37*
G36*
X1098187D02*
X1098328Y1081344D01*
X1098404Y1081160D01*
Y1072261D01*
X1098328Y1072077D01*
X1098187Y1071937D01*
X1098003Y1071861D01*
X1089305D01*
X1089121Y1071937D01*
X1088980Y1072077D01*
X1088904Y1072261D01*
Y1081160D01*
X1088980Y1081344D01*
X1089121Y1081484D01*
X1089305Y1081561D01*
X1098003D01*
X1098187Y1081484D01*
D02*
G37*
G36*
X1109687D02*
X1109828Y1081344D01*
X1109904Y1081160D01*
Y1072261D01*
X1109828Y1072077D01*
X1109687Y1071937D01*
X1109503Y1071861D01*
X1100805D01*
X1100621Y1071937D01*
X1100480Y1072077D01*
X1100404Y1072261D01*
Y1081160D01*
X1100480Y1081344D01*
X1100621Y1081484D01*
X1100805Y1081561D01*
X1109503D01*
X1109687Y1081484D01*
D02*
G37*
G36*
X1075187D02*
X1075328Y1081344D01*
X1075404Y1081160D01*
Y1072261D01*
X1075328Y1072077D01*
X1075187Y1071937D01*
X1075004Y1071861D01*
X1066305D01*
X1066121Y1071937D01*
X1065980Y1072077D01*
X1065904Y1072261D01*
Y1081160D01*
X1065980Y1081344D01*
X1066121Y1081484D01*
X1066305Y1081561D01*
X1075004D01*
X1075187Y1081484D01*
D02*
G37*
G36*
X977187D02*
X977328Y1081344D01*
X977404Y1081160D01*
Y1072261D01*
X977328Y1072077D01*
X977187Y1071937D01*
X977003Y1071861D01*
X968305D01*
X968121Y1071937D01*
X967980Y1072077D01*
X967904Y1072261D01*
Y1081160D01*
X967980Y1081344D01*
X968121Y1081484D01*
X968305Y1081561D01*
X977003D01*
X977187Y1081484D01*
D02*
G37*
G36*
X988687D02*
X988828Y1081344D01*
X988904Y1081160D01*
Y1072261D01*
X988828Y1072077D01*
X988687Y1071937D01*
X988503Y1071861D01*
X979805D01*
X979621Y1071937D01*
X979480Y1072077D01*
X979404Y1072261D01*
Y1081160D01*
X979480Y1081344D01*
X979621Y1081484D01*
X979805Y1081561D01*
X988503D01*
X988687Y1081484D01*
D02*
G37*
G36*
X1000187D02*
X1000328Y1081344D01*
X1000404Y1081160D01*
Y1072261D01*
X1000328Y1072077D01*
X1000187Y1071937D01*
X1000004Y1071861D01*
X991305D01*
X991121Y1071937D01*
X990980Y1072077D01*
X990904Y1072261D01*
Y1081160D01*
X990980Y1081344D01*
X991121Y1081484D01*
X991305Y1081561D01*
X1000004D01*
X1000187Y1081484D01*
D02*
G37*
G36*
X1121187D02*
X1121328Y1081344D01*
X1121404Y1081160D01*
Y1072261D01*
X1121328Y1072077D01*
X1121187Y1071937D01*
X1121003Y1071861D01*
X1112305D01*
X1112121Y1071937D01*
X1111980Y1072077D01*
X1111904Y1072261D01*
Y1081160D01*
X1111980Y1081344D01*
X1112121Y1081484D01*
X1112305Y1081561D01*
X1121003D01*
X1121187Y1081484D01*
D02*
G37*
G36*
X810187Y1093184D02*
X810328Y1093044D01*
X810404Y1092860D01*
Y1083961D01*
X810328Y1083777D01*
X810187Y1083637D01*
X810004Y1083560D01*
X801305D01*
X801121Y1083637D01*
X800980Y1083777D01*
X800904Y1083961D01*
Y1092860D01*
X800980Y1093044D01*
X801121Y1093184D01*
X801305Y1093261D01*
X810004D01*
X810187Y1093184D01*
D02*
G37*
G36*
X821687D02*
X821828Y1093044D01*
X821904Y1092860D01*
Y1083961D01*
X821828Y1083777D01*
X821687Y1083637D01*
X821504Y1083560D01*
X812805D01*
X812621Y1083637D01*
X812480Y1083777D01*
X812404Y1083961D01*
Y1092860D01*
X812480Y1093044D01*
X812621Y1093184D01*
X812805Y1093261D01*
X821504D01*
X821687Y1093184D01*
D02*
G37*
G36*
X833187D02*
X833328Y1093044D01*
X833404Y1092860D01*
Y1083961D01*
X833328Y1083777D01*
X833187Y1083637D01*
X833003Y1083560D01*
X824305D01*
X824121Y1083637D01*
X823980Y1083777D01*
X823904Y1083961D01*
Y1092860D01*
X823980Y1093044D01*
X824121Y1093184D01*
X824305Y1093261D01*
X833003D01*
X833187Y1093184D01*
D02*
G37*
G36*
X798687D02*
X798828Y1093044D01*
X798904Y1092860D01*
Y1083961D01*
X798828Y1083777D01*
X798687Y1083637D01*
X798503Y1083560D01*
X789805D01*
X789621Y1083637D01*
X789480Y1083777D01*
X789404Y1083961D01*
Y1092860D01*
X789480Y1093044D01*
X789621Y1093184D01*
X789805Y1093261D01*
X798503D01*
X798687Y1093184D01*
D02*
G37*
G36*
X1132687Y1081484D02*
X1132828Y1081344D01*
X1132904Y1081160D01*
Y1072261D01*
X1132828Y1072077D01*
X1132687Y1071937D01*
X1132504Y1071861D01*
X1123805D01*
X1123621Y1071937D01*
X1123480Y1072077D01*
X1123404Y1072261D01*
Y1081160D01*
X1123480Y1081344D01*
X1123621Y1081484D01*
X1123805Y1081561D01*
X1132504D01*
X1132687Y1081484D01*
D02*
G37*
G36*
X1144187D02*
X1144328Y1081344D01*
X1144404Y1081160D01*
Y1072261D01*
X1144328Y1072077D01*
X1144187Y1071937D01*
X1144004Y1071861D01*
X1135305D01*
X1135121Y1071937D01*
X1134980Y1072077D01*
X1134904Y1072261D01*
Y1081160D01*
X1134980Y1081344D01*
X1135121Y1081484D01*
X1135305Y1081561D01*
X1144004D01*
X1144187Y1081484D01*
D02*
G37*
G36*
X787187Y1093184D02*
X787328Y1093044D01*
X787404Y1092860D01*
Y1083961D01*
X787328Y1083777D01*
X787187Y1083637D01*
X787003Y1083560D01*
X778305D01*
X778121Y1083637D01*
X777980Y1083777D01*
X777904Y1083961D01*
Y1092860D01*
X777980Y1093044D01*
X778121Y1093184D01*
X778305Y1093261D01*
X787003D01*
X787187Y1093184D01*
D02*
G37*
G36*
X1144187Y1034684D02*
X1144328Y1034544D01*
X1144404Y1034360D01*
Y1025461D01*
X1144328Y1025277D01*
X1144187Y1025137D01*
X1144004Y1025061D01*
X1135305D01*
X1135121Y1025137D01*
X1134980Y1025277D01*
X1134904Y1025461D01*
Y1034360D01*
X1134980Y1034544D01*
X1135121Y1034684D01*
X1135305Y1034761D01*
X1144004D01*
X1144187Y1034684D01*
D02*
G37*
G36*
X787187Y1046384D02*
X787328Y1046244D01*
X787404Y1046060D01*
Y1037161D01*
X787328Y1036977D01*
X787187Y1036837D01*
X787003Y1036760D01*
X778305D01*
X778121Y1036837D01*
X777980Y1036977D01*
X777904Y1037161D01*
Y1046060D01*
X777980Y1046244D01*
X778121Y1046384D01*
X778305Y1046460D01*
X787003D01*
X787187Y1046384D01*
D02*
G37*
G36*
X798687D02*
X798828Y1046244D01*
X798904Y1046060D01*
Y1037161D01*
X798828Y1036977D01*
X798687Y1036837D01*
X798503Y1036760D01*
X789805D01*
X789621Y1036837D01*
X789480Y1036977D01*
X789404Y1037161D01*
Y1046060D01*
X789480Y1046244D01*
X789621Y1046384D01*
X789805Y1046460D01*
X798503D01*
X798687Y1046384D01*
D02*
G37*
G36*
X1132687Y1034684D02*
X1132828Y1034544D01*
X1132904Y1034360D01*
Y1025461D01*
X1132828Y1025277D01*
X1132687Y1025137D01*
X1132504Y1025061D01*
X1123805D01*
X1123621Y1025137D01*
X1123480Y1025277D01*
X1123404Y1025461D01*
Y1034360D01*
X1123480Y1034544D01*
X1123621Y1034684D01*
X1123805Y1034761D01*
X1132504D01*
X1132687Y1034684D01*
D02*
G37*
G36*
X1098187D02*
X1098328Y1034544D01*
X1098404Y1034360D01*
Y1025461D01*
X1098328Y1025277D01*
X1098187Y1025137D01*
X1098003Y1025061D01*
X1089305D01*
X1089121Y1025137D01*
X1088980Y1025277D01*
X1088904Y1025461D01*
Y1034360D01*
X1088980Y1034544D01*
X1089121Y1034684D01*
X1089305Y1034761D01*
X1098003D01*
X1098187Y1034684D01*
D02*
G37*
G36*
X1109687D02*
X1109828Y1034544D01*
X1109904Y1034360D01*
Y1025461D01*
X1109828Y1025277D01*
X1109687Y1025137D01*
X1109503Y1025061D01*
X1100805D01*
X1100621Y1025137D01*
X1100480Y1025277D01*
X1100404Y1025461D01*
Y1034360D01*
X1100480Y1034544D01*
X1100621Y1034684D01*
X1100805Y1034761D01*
X1109503D01*
X1109687Y1034684D01*
D02*
G37*
G36*
X1121187D02*
X1121328Y1034544D01*
X1121404Y1034360D01*
Y1025461D01*
X1121328Y1025277D01*
X1121187Y1025137D01*
X1121003Y1025061D01*
X1112305D01*
X1112121Y1025137D01*
X1111980Y1025277D01*
X1111904Y1025461D01*
Y1034360D01*
X1111980Y1034544D01*
X1112121Y1034684D01*
X1112305Y1034761D01*
X1121003D01*
X1121187Y1034684D01*
D02*
G37*
G36*
X810187Y1046384D02*
X810328Y1046244D01*
X810404Y1046060D01*
Y1037161D01*
X810328Y1036977D01*
X810187Y1036837D01*
X810004Y1036760D01*
X801305D01*
X801121Y1036837D01*
X800980Y1036977D01*
X800904Y1037161D01*
Y1046060D01*
X800980Y1046244D01*
X801121Y1046384D01*
X801305Y1046460D01*
X810004D01*
X810187Y1046384D01*
D02*
G37*
G36*
X931187D02*
X931328Y1046244D01*
X931404Y1046060D01*
Y1037161D01*
X931328Y1036977D01*
X931187Y1036837D01*
X931003Y1036760D01*
X922305D01*
X922121Y1036837D01*
X921980Y1036977D01*
X921904Y1037161D01*
Y1046060D01*
X921980Y1046244D01*
X922121Y1046384D01*
X922305Y1046460D01*
X931003D01*
X931187Y1046384D01*
D02*
G37*
G36*
X942687D02*
X942828Y1046244D01*
X942904Y1046060D01*
Y1037161D01*
X942828Y1036977D01*
X942687Y1036837D01*
X942504Y1036760D01*
X933805D01*
X933621Y1036837D01*
X933480Y1036977D01*
X933404Y1037161D01*
Y1046060D01*
X933480Y1046244D01*
X933621Y1046384D01*
X933805Y1046460D01*
X942504D01*
X942687Y1046384D01*
D02*
G37*
G36*
X954187D02*
X954328Y1046244D01*
X954404Y1046060D01*
Y1037161D01*
X954328Y1036977D01*
X954187Y1036837D01*
X954004Y1036760D01*
X945305D01*
X945121Y1036837D01*
X944980Y1036977D01*
X944904Y1037161D01*
Y1046060D01*
X944980Y1046244D01*
X945121Y1046384D01*
X945305Y1046460D01*
X954004D01*
X954187Y1046384D01*
D02*
G37*
G36*
X856187D02*
X856328Y1046244D01*
X856404Y1046060D01*
Y1037161D01*
X856328Y1036977D01*
X856187Y1036837D01*
X856003Y1036760D01*
X847305D01*
X847121Y1036837D01*
X846980Y1036977D01*
X846904Y1037161D01*
Y1046060D01*
X846980Y1046244D01*
X847121Y1046384D01*
X847305Y1046460D01*
X856003D01*
X856187Y1046384D01*
D02*
G37*
G36*
X821687D02*
X821828Y1046244D01*
X821904Y1046060D01*
Y1037161D01*
X821828Y1036977D01*
X821687Y1036837D01*
X821504Y1036760D01*
X812805D01*
X812621Y1036837D01*
X812480Y1036977D01*
X812404Y1037161D01*
Y1046060D01*
X812480Y1046244D01*
X812621Y1046384D01*
X812805Y1046460D01*
X821504D01*
X821687Y1046384D01*
D02*
G37*
G36*
X833187D02*
X833328Y1046244D01*
X833404Y1046060D01*
Y1037161D01*
X833328Y1036977D01*
X833187Y1036837D01*
X833003Y1036760D01*
X824305D01*
X824121Y1036837D01*
X823980Y1036977D01*
X823904Y1037161D01*
Y1046060D01*
X823980Y1046244D01*
X824121Y1046384D01*
X824305Y1046460D01*
X833003D01*
X833187Y1046384D01*
D02*
G37*
G36*
X844687D02*
X844828Y1046244D01*
X844904Y1046060D01*
Y1037161D01*
X844828Y1036977D01*
X844687Y1036837D01*
X844503Y1036760D01*
X835805D01*
X835621Y1036837D01*
X835480Y1036977D01*
X835404Y1037161D01*
Y1046060D01*
X835480Y1046244D01*
X835621Y1046384D01*
X835805Y1046460D01*
X844503D01*
X844687Y1046384D01*
D02*
G37*
G36*
X1086687Y1034684D02*
X1086828Y1034544D01*
X1086904Y1034360D01*
Y1025461D01*
X1086828Y1025277D01*
X1086687Y1025137D01*
X1086504Y1025061D01*
X1077805D01*
X1077621Y1025137D01*
X1077480Y1025277D01*
X1077404Y1025461D01*
Y1034360D01*
X1077480Y1034544D01*
X1077621Y1034684D01*
X1077805Y1034761D01*
X1086504D01*
X1086687Y1034684D01*
D02*
G37*
G36*
X833187D02*
X833328Y1034544D01*
X833404Y1034360D01*
Y1025461D01*
X833328Y1025277D01*
X833187Y1025137D01*
X833003Y1025061D01*
X824305D01*
X824121Y1025137D01*
X823980Y1025277D01*
X823904Y1025461D01*
Y1034360D01*
X823980Y1034544D01*
X824121Y1034684D01*
X824305Y1034761D01*
X833003D01*
X833187Y1034684D01*
D02*
G37*
G36*
X844687D02*
X844828Y1034544D01*
X844904Y1034360D01*
Y1025461D01*
X844828Y1025277D01*
X844687Y1025137D01*
X844503Y1025061D01*
X835805D01*
X835621Y1025137D01*
X835480Y1025277D01*
X835404Y1025461D01*
Y1034360D01*
X835480Y1034544D01*
X835621Y1034684D01*
X835805Y1034761D01*
X844503D01*
X844687Y1034684D01*
D02*
G37*
G36*
X856187D02*
X856328Y1034544D01*
X856404Y1034360D01*
Y1025461D01*
X856328Y1025277D01*
X856187Y1025137D01*
X856003Y1025061D01*
X847305D01*
X847121Y1025137D01*
X846980Y1025277D01*
X846904Y1025461D01*
Y1034360D01*
X846980Y1034544D01*
X847121Y1034684D01*
X847305Y1034761D01*
X856003D01*
X856187Y1034684D01*
D02*
G37*
G36*
X821687D02*
X821828Y1034544D01*
X821904Y1034360D01*
Y1025461D01*
X821828Y1025277D01*
X821687Y1025137D01*
X821504Y1025061D01*
X812805D01*
X812621Y1025137D01*
X812480Y1025277D01*
X812404Y1025461D01*
Y1034360D01*
X812480Y1034544D01*
X812621Y1034684D01*
X812805Y1034761D01*
X821504D01*
X821687Y1034684D01*
D02*
G37*
G36*
X787187D02*
X787328Y1034544D01*
X787404Y1034360D01*
Y1025461D01*
X787328Y1025277D01*
X787187Y1025137D01*
X787003Y1025061D01*
X778305D01*
X778121Y1025137D01*
X777980Y1025277D01*
X777904Y1025461D01*
Y1034360D01*
X777980Y1034544D01*
X778121Y1034684D01*
X778305Y1034761D01*
X787003D01*
X787187Y1034684D01*
D02*
G37*
G36*
X798687D02*
X798828Y1034544D01*
X798904Y1034360D01*
Y1025461D01*
X798828Y1025277D01*
X798687Y1025137D01*
X798503Y1025061D01*
X789805D01*
X789621Y1025137D01*
X789480Y1025277D01*
X789404Y1025461D01*
Y1034360D01*
X789480Y1034544D01*
X789621Y1034684D01*
X789805Y1034761D01*
X798503D01*
X798687Y1034684D01*
D02*
G37*
G36*
X810187D02*
X810328Y1034544D01*
X810404Y1034360D01*
Y1025461D01*
X810328Y1025277D01*
X810187Y1025137D01*
X810004Y1025061D01*
X801305D01*
X801121Y1025137D01*
X800980Y1025277D01*
X800904Y1025461D01*
Y1034360D01*
X800980Y1034544D01*
X801121Y1034684D01*
X801305Y1034761D01*
X810004D01*
X810187Y1034684D01*
D02*
G37*
G36*
X931187D02*
X931328Y1034544D01*
X931404Y1034360D01*
Y1025461D01*
X931328Y1025277D01*
X931187Y1025137D01*
X931003Y1025061D01*
X922305D01*
X922121Y1025137D01*
X921980Y1025277D01*
X921904Y1025461D01*
Y1034360D01*
X921980Y1034544D01*
X922121Y1034684D01*
X922305Y1034761D01*
X931003D01*
X931187Y1034684D01*
D02*
G37*
G36*
X988687D02*
X988828Y1034544D01*
X988904Y1034360D01*
Y1025461D01*
X988828Y1025277D01*
X988687Y1025137D01*
X988503Y1025061D01*
X979805D01*
X979621Y1025137D01*
X979480Y1025277D01*
X979404Y1025461D01*
Y1034360D01*
X979480Y1034544D01*
X979621Y1034684D01*
X979805Y1034761D01*
X988503D01*
X988687Y1034684D01*
D02*
G37*
G36*
X1000187D02*
X1000328Y1034544D01*
X1000404Y1034360D01*
Y1025461D01*
X1000328Y1025277D01*
X1000187Y1025137D01*
X1000004Y1025061D01*
X991305D01*
X991121Y1025137D01*
X990980Y1025277D01*
X990904Y1025461D01*
Y1034360D01*
X990980Y1034544D01*
X991121Y1034684D01*
X991305Y1034761D01*
X1000004D01*
X1000187Y1034684D01*
D02*
G37*
G36*
X1075187D02*
X1075328Y1034544D01*
X1075404Y1034360D01*
Y1025461D01*
X1075328Y1025277D01*
X1075187Y1025137D01*
X1075004Y1025061D01*
X1066305D01*
X1066121Y1025137D01*
X1065980Y1025277D01*
X1065904Y1025461D01*
Y1034360D01*
X1065980Y1034544D01*
X1066121Y1034684D01*
X1066305Y1034761D01*
X1075004D01*
X1075187Y1034684D01*
D02*
G37*
G36*
X977187D02*
X977328Y1034544D01*
X977404Y1034360D01*
Y1025461D01*
X977328Y1025277D01*
X977187Y1025137D01*
X977003Y1025061D01*
X968305D01*
X968121Y1025137D01*
X967980Y1025277D01*
X967904Y1025461D01*
Y1034360D01*
X967980Y1034544D01*
X968121Y1034684D01*
X968305Y1034761D01*
X977003D01*
X977187Y1034684D01*
D02*
G37*
G36*
X942687D02*
X942828Y1034544D01*
X942904Y1034360D01*
Y1025461D01*
X942828Y1025277D01*
X942687Y1025137D01*
X942504Y1025061D01*
X933805D01*
X933621Y1025137D01*
X933480Y1025277D01*
X933404Y1025461D01*
Y1034360D01*
X933480Y1034544D01*
X933621Y1034684D01*
X933805Y1034761D01*
X942504D01*
X942687Y1034684D01*
D02*
G37*
G36*
X954187D02*
X954328Y1034544D01*
X954404Y1034360D01*
Y1025461D01*
X954328Y1025277D01*
X954187Y1025137D01*
X954004Y1025061D01*
X945305D01*
X945121Y1025137D01*
X944980Y1025277D01*
X944904Y1025461D01*
Y1034360D01*
X944980Y1034544D01*
X945121Y1034684D01*
X945305Y1034761D01*
X954004D01*
X954187Y1034684D01*
D02*
G37*
G36*
X965687D02*
X965828Y1034544D01*
X965904Y1034360D01*
Y1025461D01*
X965828Y1025277D01*
X965687Y1025137D01*
X965503Y1025061D01*
X956805D01*
X956621Y1025137D01*
X956480Y1025277D01*
X956404Y1025461D01*
Y1034360D01*
X956480Y1034544D01*
X956621Y1034684D01*
X956805Y1034761D01*
X965503D01*
X965687Y1034684D01*
D02*
G37*
G36*
Y1046384D02*
X965828Y1046244D01*
X965904Y1046060D01*
Y1037161D01*
X965828Y1036977D01*
X965687Y1036837D01*
X965503Y1036760D01*
X956805D01*
X956621Y1036837D01*
X956480Y1036977D01*
X956404Y1037161D01*
Y1046060D01*
X956480Y1046244D01*
X956621Y1046384D01*
X956805Y1046460D01*
X965503D01*
X965687Y1046384D01*
D02*
G37*
G36*
Y1058084D02*
X965828Y1057944D01*
X965904Y1057760D01*
Y1048861D01*
X965828Y1048677D01*
X965687Y1048537D01*
X965503Y1048460D01*
X956805D01*
X956621Y1048537D01*
X956480Y1048677D01*
X956404Y1048861D01*
Y1057760D01*
X956480Y1057944D01*
X956621Y1058084D01*
X956805Y1058160D01*
X965503D01*
X965687Y1058084D01*
D02*
G37*
G36*
X977187D02*
X977328Y1057944D01*
X977404Y1057760D01*
Y1048861D01*
X977328Y1048677D01*
X977187Y1048537D01*
X977003Y1048460D01*
X968305D01*
X968121Y1048537D01*
X967980Y1048677D01*
X967904Y1048861D01*
Y1057760D01*
X967980Y1057944D01*
X968121Y1058084D01*
X968305Y1058160D01*
X977003D01*
X977187Y1058084D01*
D02*
G37*
G36*
X988687D02*
X988828Y1057944D01*
X988904Y1057760D01*
Y1048861D01*
X988828Y1048677D01*
X988687Y1048537D01*
X988503Y1048460D01*
X979805D01*
X979621Y1048537D01*
X979480Y1048677D01*
X979404Y1048861D01*
Y1057760D01*
X979480Y1057944D01*
X979621Y1058084D01*
X979805Y1058160D01*
X988503D01*
X988687Y1058084D01*
D02*
G37*
G36*
X954187D02*
X954328Y1057944D01*
X954404Y1057760D01*
Y1048861D01*
X954328Y1048677D01*
X954187Y1048537D01*
X954004Y1048460D01*
X945305D01*
X945121Y1048537D01*
X944980Y1048677D01*
X944904Y1048861D01*
Y1057760D01*
X944980Y1057944D01*
X945121Y1058084D01*
X945305Y1058160D01*
X954004D01*
X954187Y1058084D01*
D02*
G37*
G36*
X856187D02*
X856328Y1057944D01*
X856404Y1057760D01*
Y1048861D01*
X856328Y1048677D01*
X856187Y1048537D01*
X856003Y1048460D01*
X847305D01*
X847121Y1048537D01*
X846980Y1048677D01*
X846904Y1048861D01*
Y1057760D01*
X846980Y1057944D01*
X847121Y1058084D01*
X847305Y1058160D01*
X856003D01*
X856187Y1058084D01*
D02*
G37*
G36*
X931187D02*
X931328Y1057944D01*
X931404Y1057760D01*
Y1048861D01*
X931328Y1048677D01*
X931187Y1048537D01*
X931003Y1048460D01*
X922305D01*
X922121Y1048537D01*
X921980Y1048677D01*
X921904Y1048861D01*
Y1057760D01*
X921980Y1057944D01*
X922121Y1058084D01*
X922305Y1058160D01*
X931003D01*
X931187Y1058084D01*
D02*
G37*
G36*
X942687D02*
X942828Y1057944D01*
X942904Y1057760D01*
Y1048861D01*
X942828Y1048677D01*
X942687Y1048537D01*
X942504Y1048460D01*
X933805D01*
X933621Y1048537D01*
X933480Y1048677D01*
X933404Y1048861D01*
Y1057760D01*
X933480Y1057944D01*
X933621Y1058084D01*
X933805Y1058160D01*
X942504D01*
X942687Y1058084D01*
D02*
G37*
G36*
X1000187D02*
X1000328Y1057944D01*
X1000404Y1057760D01*
Y1048861D01*
X1000328Y1048677D01*
X1000187Y1048537D01*
X1000004Y1048460D01*
X991305D01*
X991121Y1048537D01*
X990980Y1048677D01*
X990904Y1048861D01*
Y1057760D01*
X990980Y1057944D01*
X991121Y1058084D01*
X991305Y1058160D01*
X1000004D01*
X1000187Y1058084D01*
D02*
G37*
G36*
X1121187D02*
X1121328Y1057944D01*
X1121404Y1057760D01*
Y1048861D01*
X1121328Y1048677D01*
X1121187Y1048537D01*
X1121003Y1048460D01*
X1112305D01*
X1112121Y1048537D01*
X1111980Y1048677D01*
X1111904Y1048861D01*
Y1057760D01*
X1111980Y1057944D01*
X1112121Y1058084D01*
X1112305Y1058160D01*
X1121003D01*
X1121187Y1058084D01*
D02*
G37*
G36*
X1132687D02*
X1132828Y1057944D01*
X1132904Y1057760D01*
Y1048861D01*
X1132828Y1048677D01*
X1132687Y1048537D01*
X1132504Y1048460D01*
X1123805D01*
X1123621Y1048537D01*
X1123480Y1048677D01*
X1123404Y1048861D01*
Y1057760D01*
X1123480Y1057944D01*
X1123621Y1058084D01*
X1123805Y1058160D01*
X1132504D01*
X1132687Y1058084D01*
D02*
G37*
G36*
X1144187D02*
X1144328Y1057944D01*
X1144404Y1057760D01*
Y1048861D01*
X1144328Y1048677D01*
X1144187Y1048537D01*
X1144004Y1048460D01*
X1135305D01*
X1135121Y1048537D01*
X1134980Y1048677D01*
X1134904Y1048861D01*
Y1057760D01*
X1134980Y1057944D01*
X1135121Y1058084D01*
X1135305Y1058160D01*
X1144004D01*
X1144187Y1058084D01*
D02*
G37*
G36*
X1109687D02*
X1109828Y1057944D01*
X1109904Y1057760D01*
Y1048861D01*
X1109828Y1048677D01*
X1109687Y1048537D01*
X1109503Y1048460D01*
X1100805D01*
X1100621Y1048537D01*
X1100480Y1048677D01*
X1100404Y1048861D01*
Y1057760D01*
X1100480Y1057944D01*
X1100621Y1058084D01*
X1100805Y1058160D01*
X1109503D01*
X1109687Y1058084D01*
D02*
G37*
G36*
X1075187D02*
X1075328Y1057944D01*
X1075404Y1057760D01*
Y1048861D01*
X1075328Y1048677D01*
X1075187Y1048537D01*
X1075004Y1048460D01*
X1066305D01*
X1066121Y1048537D01*
X1065980Y1048677D01*
X1065904Y1048861D01*
Y1057760D01*
X1065980Y1057944D01*
X1066121Y1058084D01*
X1066305Y1058160D01*
X1075004D01*
X1075187Y1058084D01*
D02*
G37*
G36*
X1086687D02*
X1086828Y1057944D01*
X1086904Y1057760D01*
Y1048861D01*
X1086828Y1048677D01*
X1086687Y1048537D01*
X1086504Y1048460D01*
X1077805D01*
X1077621Y1048537D01*
X1077480Y1048677D01*
X1077404Y1048861D01*
Y1057760D01*
X1077480Y1057944D01*
X1077621Y1058084D01*
X1077805Y1058160D01*
X1086504D01*
X1086687Y1058084D01*
D02*
G37*
G36*
X1098187D02*
X1098328Y1057944D01*
X1098404Y1057760D01*
Y1048861D01*
X1098328Y1048677D01*
X1098187Y1048537D01*
X1098003Y1048460D01*
X1089305D01*
X1089121Y1048537D01*
X1088980Y1048677D01*
X1088904Y1048861D01*
Y1057760D01*
X1088980Y1057944D01*
X1089121Y1058084D01*
X1089305Y1058160D01*
X1098003D01*
X1098187Y1058084D01*
D02*
G37*
G36*
X844687D02*
X844828Y1057944D01*
X844904Y1057760D01*
Y1048861D01*
X844828Y1048677D01*
X844687Y1048537D01*
X844503Y1048460D01*
X835805D01*
X835621Y1048537D01*
X835480Y1048677D01*
X835404Y1048861D01*
Y1057760D01*
X835480Y1057944D01*
X835621Y1058084D01*
X835805Y1058160D01*
X844503D01*
X844687Y1058084D01*
D02*
G37*
G36*
X1086687Y1046384D02*
X1086828Y1046244D01*
X1086904Y1046060D01*
Y1037161D01*
X1086828Y1036977D01*
X1086687Y1036837D01*
X1086504Y1036760D01*
X1077805D01*
X1077621Y1036837D01*
X1077480Y1036977D01*
X1077404Y1037161D01*
Y1046060D01*
X1077480Y1046244D01*
X1077621Y1046384D01*
X1077805Y1046460D01*
X1086504D01*
X1086687Y1046384D01*
D02*
G37*
G36*
X1098187D02*
X1098328Y1046244D01*
X1098404Y1046060D01*
Y1037161D01*
X1098328Y1036977D01*
X1098187Y1036837D01*
X1098003Y1036760D01*
X1089305D01*
X1089121Y1036837D01*
X1088980Y1036977D01*
X1088904Y1037161D01*
Y1046060D01*
X1088980Y1046244D01*
X1089121Y1046384D01*
X1089305Y1046460D01*
X1098003D01*
X1098187Y1046384D01*
D02*
G37*
G36*
X1109687D02*
X1109828Y1046244D01*
X1109904Y1046060D01*
Y1037161D01*
X1109828Y1036977D01*
X1109687Y1036837D01*
X1109503Y1036760D01*
X1100805D01*
X1100621Y1036837D01*
X1100480Y1036977D01*
X1100404Y1037161D01*
Y1046060D01*
X1100480Y1046244D01*
X1100621Y1046384D01*
X1100805Y1046460D01*
X1109503D01*
X1109687Y1046384D01*
D02*
G37*
G36*
X1075187D02*
X1075328Y1046244D01*
X1075404Y1046060D01*
Y1037161D01*
X1075328Y1036977D01*
X1075187Y1036837D01*
X1075004Y1036760D01*
X1066305D01*
X1066121Y1036837D01*
X1065980Y1036977D01*
X1065904Y1037161D01*
Y1046060D01*
X1065980Y1046244D01*
X1066121Y1046384D01*
X1066305Y1046460D01*
X1075004D01*
X1075187Y1046384D01*
D02*
G37*
G36*
X977187D02*
X977328Y1046244D01*
X977404Y1046060D01*
Y1037161D01*
X977328Y1036977D01*
X977187Y1036837D01*
X977003Y1036760D01*
X968305D01*
X968121Y1036837D01*
X967980Y1036977D01*
X967904Y1037161D01*
Y1046060D01*
X967980Y1046244D01*
X968121Y1046384D01*
X968305Y1046460D01*
X977003D01*
X977187Y1046384D01*
D02*
G37*
G36*
X988687D02*
X988828Y1046244D01*
X988904Y1046060D01*
Y1037161D01*
X988828Y1036977D01*
X988687Y1036837D01*
X988503Y1036760D01*
X979805D01*
X979621Y1036837D01*
X979480Y1036977D01*
X979404Y1037161D01*
Y1046060D01*
X979480Y1046244D01*
X979621Y1046384D01*
X979805Y1046460D01*
X988503D01*
X988687Y1046384D01*
D02*
G37*
G36*
X1000187D02*
X1000328Y1046244D01*
X1000404Y1046060D01*
Y1037161D01*
X1000328Y1036977D01*
X1000187Y1036837D01*
X1000004Y1036760D01*
X991305D01*
X991121Y1036837D01*
X990980Y1036977D01*
X990904Y1037161D01*
Y1046060D01*
X990980Y1046244D01*
X991121Y1046384D01*
X991305Y1046460D01*
X1000004D01*
X1000187Y1046384D01*
D02*
G37*
G36*
X1121187D02*
X1121328Y1046244D01*
X1121404Y1046060D01*
Y1037161D01*
X1121328Y1036977D01*
X1121187Y1036837D01*
X1121003Y1036760D01*
X1112305D01*
X1112121Y1036837D01*
X1111980Y1036977D01*
X1111904Y1037161D01*
Y1046060D01*
X1111980Y1046244D01*
X1112121Y1046384D01*
X1112305Y1046460D01*
X1121003D01*
X1121187Y1046384D01*
D02*
G37*
G36*
X810187Y1058084D02*
X810328Y1057944D01*
X810404Y1057760D01*
Y1048861D01*
X810328Y1048677D01*
X810187Y1048537D01*
X810004Y1048460D01*
X801305D01*
X801121Y1048537D01*
X800980Y1048677D01*
X800904Y1048861D01*
Y1057760D01*
X800980Y1057944D01*
X801121Y1058084D01*
X801305Y1058160D01*
X810004D01*
X810187Y1058084D01*
D02*
G37*
G36*
X821687D02*
X821828Y1057944D01*
X821904Y1057760D01*
Y1048861D01*
X821828Y1048677D01*
X821687Y1048537D01*
X821504Y1048460D01*
X812805D01*
X812621Y1048537D01*
X812480Y1048677D01*
X812404Y1048861D01*
Y1057760D01*
X812480Y1057944D01*
X812621Y1058084D01*
X812805Y1058160D01*
X821504D01*
X821687Y1058084D01*
D02*
G37*
G36*
X833187D02*
X833328Y1057944D01*
X833404Y1057760D01*
Y1048861D01*
X833328Y1048677D01*
X833187Y1048537D01*
X833003Y1048460D01*
X824305D01*
X824121Y1048537D01*
X823980Y1048677D01*
X823904Y1048861D01*
Y1057760D01*
X823980Y1057944D01*
X824121Y1058084D01*
X824305Y1058160D01*
X833003D01*
X833187Y1058084D01*
D02*
G37*
G36*
X798687D02*
X798828Y1057944D01*
X798904Y1057760D01*
Y1048861D01*
X798828Y1048677D01*
X798687Y1048537D01*
X798503Y1048460D01*
X789805D01*
X789621Y1048537D01*
X789480Y1048677D01*
X789404Y1048861D01*
Y1057760D01*
X789480Y1057944D01*
X789621Y1058084D01*
X789805Y1058160D01*
X798503D01*
X798687Y1058084D01*
D02*
G37*
G36*
X1132687Y1046384D02*
X1132828Y1046244D01*
X1132904Y1046060D01*
Y1037161D01*
X1132828Y1036977D01*
X1132687Y1036837D01*
X1132504Y1036760D01*
X1123805D01*
X1123621Y1036837D01*
X1123480Y1036977D01*
X1123404Y1037161D01*
Y1046060D01*
X1123480Y1046244D01*
X1123621Y1046384D01*
X1123805Y1046460D01*
X1132504D01*
X1132687Y1046384D01*
D02*
G37*
G36*
X1144187D02*
X1144328Y1046244D01*
X1144404Y1046060D01*
Y1037161D01*
X1144328Y1036977D01*
X1144187Y1036837D01*
X1144004Y1036760D01*
X1135305D01*
X1135121Y1036837D01*
X1134980Y1036977D01*
X1134904Y1037161D01*
Y1046060D01*
X1134980Y1046244D01*
X1135121Y1046384D01*
X1135305Y1046460D01*
X1144004D01*
X1144187Y1046384D01*
D02*
G37*
G36*
X787187Y1058084D02*
X787328Y1057944D01*
X787404Y1057760D01*
Y1048861D01*
X787328Y1048677D01*
X787187Y1048537D01*
X787003Y1048460D01*
X778305D01*
X778121Y1048537D01*
X777980Y1048677D01*
X777904Y1048861D01*
Y1057760D01*
X777980Y1057944D01*
X778121Y1058084D01*
X778305Y1058160D01*
X787003D01*
X787187Y1058084D01*
D02*
G37*
G36*
X1144187Y1283784D02*
X1144328Y1283644D01*
X1144404Y1283460D01*
Y1274561D01*
X1144328Y1274377D01*
X1144187Y1274237D01*
X1144004Y1274161D01*
X1135305D01*
X1135121Y1274237D01*
X1134980Y1274377D01*
X1134904Y1274561D01*
Y1283460D01*
X1134980Y1283644D01*
X1135121Y1283784D01*
X1135305Y1283861D01*
X1144004D01*
X1144187Y1283784D01*
D02*
G37*
G36*
X788187Y1293484D02*
X788328Y1293344D01*
X788404Y1293160D01*
Y1284261D01*
X788328Y1284077D01*
X788187Y1283937D01*
X788003Y1283861D01*
X779305D01*
X779121Y1283937D01*
X778980Y1284077D01*
X778904Y1284261D01*
Y1293160D01*
X778980Y1293344D01*
X779121Y1293484D01*
X779305Y1293561D01*
X788003D01*
X788187Y1293484D01*
D02*
G37*
G36*
X799687D02*
X799828Y1293344D01*
X799904Y1293160D01*
Y1284261D01*
X799828Y1284077D01*
X799687Y1283937D01*
X799503Y1283861D01*
X790805D01*
X790621Y1283937D01*
X790480Y1284077D01*
X790404Y1284261D01*
Y1293160D01*
X790480Y1293344D01*
X790621Y1293484D01*
X790805Y1293561D01*
X799503D01*
X799687Y1293484D01*
D02*
G37*
G36*
X1132687Y1283784D02*
X1132828Y1283644D01*
X1132904Y1283460D01*
Y1274561D01*
X1132828Y1274377D01*
X1132687Y1274237D01*
X1132504Y1274161D01*
X1123805D01*
X1123621Y1274237D01*
X1123480Y1274377D01*
X1123404Y1274561D01*
Y1283460D01*
X1123480Y1283644D01*
X1123621Y1283784D01*
X1123805Y1283861D01*
X1132504D01*
X1132687Y1283784D01*
D02*
G37*
G36*
X1098187D02*
X1098328Y1283644D01*
X1098404Y1283460D01*
Y1274561D01*
X1098328Y1274377D01*
X1098187Y1274237D01*
X1098003Y1274161D01*
X1089305D01*
X1089121Y1274237D01*
X1088980Y1274377D01*
X1088904Y1274561D01*
Y1283460D01*
X1088980Y1283644D01*
X1089121Y1283784D01*
X1089305Y1283861D01*
X1098003D01*
X1098187Y1283784D01*
D02*
G37*
G36*
X1109687D02*
X1109828Y1283644D01*
X1109904Y1283460D01*
Y1274561D01*
X1109828Y1274377D01*
X1109687Y1274237D01*
X1109503Y1274161D01*
X1100805D01*
X1100621Y1274237D01*
X1100480Y1274377D01*
X1100404Y1274561D01*
Y1283460D01*
X1100480Y1283644D01*
X1100621Y1283784D01*
X1100805Y1283861D01*
X1109503D01*
X1109687Y1283784D01*
D02*
G37*
G36*
X1121187D02*
X1121328Y1283644D01*
X1121404Y1283460D01*
Y1274561D01*
X1121328Y1274377D01*
X1121187Y1274237D01*
X1121003Y1274161D01*
X1112305D01*
X1112121Y1274237D01*
X1111980Y1274377D01*
X1111904Y1274561D01*
Y1283460D01*
X1111980Y1283644D01*
X1112121Y1283784D01*
X1112305Y1283861D01*
X1121003D01*
X1121187Y1283784D01*
D02*
G37*
G36*
X811187Y1293484D02*
X811328Y1293344D01*
X811404Y1293160D01*
Y1284261D01*
X811328Y1284077D01*
X811187Y1283937D01*
X811003Y1283861D01*
X802305D01*
X802121Y1283937D01*
X801980Y1284077D01*
X801904Y1284261D01*
Y1293160D01*
X801980Y1293344D01*
X802121Y1293484D01*
X802305Y1293561D01*
X811003D01*
X811187Y1293484D01*
D02*
G37*
G36*
X932187Y1294484D02*
X932328Y1294344D01*
X932404Y1294160D01*
Y1285261D01*
X932328Y1285077D01*
X932187Y1284937D01*
X932003Y1284861D01*
X923305D01*
X923121Y1284937D01*
X922980Y1285077D01*
X922904Y1285261D01*
Y1294160D01*
X922980Y1294344D01*
X923121Y1294484D01*
X923305Y1294561D01*
X932003D01*
X932187Y1294484D01*
D02*
G37*
G36*
X943687D02*
X943828Y1294344D01*
X943904Y1294160D01*
Y1285261D01*
X943828Y1285077D01*
X943687Y1284937D01*
X943503Y1284861D01*
X934805D01*
X934621Y1284937D01*
X934480Y1285077D01*
X934404Y1285261D01*
Y1294160D01*
X934480Y1294344D01*
X934621Y1294484D01*
X934805Y1294561D01*
X943503D01*
X943687Y1294484D01*
D02*
G37*
G36*
X955187D02*
X955328Y1294344D01*
X955404Y1294160D01*
Y1285261D01*
X955328Y1285077D01*
X955187Y1284937D01*
X955004Y1284861D01*
X946305D01*
X946121Y1284937D01*
X945980Y1285077D01*
X945904Y1285261D01*
Y1294160D01*
X945980Y1294344D01*
X946121Y1294484D01*
X946305Y1294561D01*
X955004D01*
X955187Y1294484D01*
D02*
G37*
G36*
X857187Y1293484D02*
X857328Y1293344D01*
X857404Y1293160D01*
Y1284261D01*
X857328Y1284077D01*
X857187Y1283937D01*
X857003Y1283861D01*
X848305D01*
X848121Y1283937D01*
X847980Y1284077D01*
X847904Y1284261D01*
Y1293160D01*
X847980Y1293344D01*
X848121Y1293484D01*
X848305Y1293561D01*
X857003D01*
X857187Y1293484D01*
D02*
G37*
G36*
X822687D02*
X822828Y1293344D01*
X822904Y1293160D01*
Y1284261D01*
X822828Y1284077D01*
X822687Y1283937D01*
X822504Y1283861D01*
X813805D01*
X813621Y1283937D01*
X813480Y1284077D01*
X813404Y1284261D01*
Y1293160D01*
X813480Y1293344D01*
X813621Y1293484D01*
X813805Y1293561D01*
X822504D01*
X822687Y1293484D01*
D02*
G37*
G36*
X834187D02*
X834328Y1293344D01*
X834404Y1293160D01*
Y1284261D01*
X834328Y1284077D01*
X834187Y1283937D01*
X834004Y1283861D01*
X825305D01*
X825121Y1283937D01*
X824980Y1284077D01*
X824904Y1284261D01*
Y1293160D01*
X824980Y1293344D01*
X825121Y1293484D01*
X825305Y1293561D01*
X834004D01*
X834187Y1293484D01*
D02*
G37*
G36*
X845687D02*
X845828Y1293344D01*
X845904Y1293160D01*
Y1284261D01*
X845828Y1284077D01*
X845687Y1283937D01*
X845503Y1283861D01*
X836805D01*
X836621Y1283937D01*
X836480Y1284077D01*
X836404Y1284261D01*
Y1293160D01*
X836480Y1293344D01*
X836621Y1293484D01*
X836805Y1293561D01*
X845503D01*
X845687Y1293484D01*
D02*
G37*
G36*
X1086687Y1283784D02*
X1086828Y1283644D01*
X1086904Y1283460D01*
Y1274561D01*
X1086828Y1274377D01*
X1086687Y1274237D01*
X1086504Y1274161D01*
X1077805D01*
X1077621Y1274237D01*
X1077480Y1274377D01*
X1077404Y1274561D01*
Y1283460D01*
X1077480Y1283644D01*
X1077621Y1283784D01*
X1077805Y1283861D01*
X1086504D01*
X1086687Y1283784D01*
D02*
G37*
G36*
X834187Y1281784D02*
X834328Y1281644D01*
X834404Y1281460D01*
Y1272561D01*
X834328Y1272377D01*
X834187Y1272237D01*
X834004Y1272160D01*
X825305D01*
X825121Y1272237D01*
X824980Y1272377D01*
X824904Y1272561D01*
Y1281460D01*
X824980Y1281644D01*
X825121Y1281784D01*
X825305Y1281861D01*
X834004D01*
X834187Y1281784D01*
D02*
G37*
G36*
X845687D02*
X845828Y1281644D01*
X845904Y1281460D01*
Y1272561D01*
X845828Y1272377D01*
X845687Y1272237D01*
X845503Y1272160D01*
X836805D01*
X836621Y1272237D01*
X836480Y1272377D01*
X836404Y1272561D01*
Y1281460D01*
X836480Y1281644D01*
X836621Y1281784D01*
X836805Y1281861D01*
X845503D01*
X845687Y1281784D01*
D02*
G37*
G36*
X857187D02*
X857328Y1281644D01*
X857404Y1281460D01*
Y1272561D01*
X857328Y1272377D01*
X857187Y1272237D01*
X857003Y1272160D01*
X848305D01*
X848121Y1272237D01*
X847980Y1272377D01*
X847904Y1272561D01*
Y1281460D01*
X847980Y1281644D01*
X848121Y1281784D01*
X848305Y1281861D01*
X857003D01*
X857187Y1281784D01*
D02*
G37*
G36*
X822687D02*
X822828Y1281644D01*
X822904Y1281460D01*
Y1272561D01*
X822828Y1272377D01*
X822687Y1272237D01*
X822504Y1272160D01*
X813805D01*
X813621Y1272237D01*
X813480Y1272377D01*
X813404Y1272561D01*
Y1281460D01*
X813480Y1281644D01*
X813621Y1281784D01*
X813805Y1281861D01*
X822504D01*
X822687Y1281784D01*
D02*
G37*
G36*
X788187D02*
X788328Y1281644D01*
X788404Y1281460D01*
Y1272561D01*
X788328Y1272377D01*
X788187Y1272237D01*
X788003Y1272160D01*
X779305D01*
X779121Y1272237D01*
X778980Y1272377D01*
X778904Y1272561D01*
Y1281460D01*
X778980Y1281644D01*
X779121Y1281784D01*
X779305Y1281861D01*
X788003D01*
X788187Y1281784D01*
D02*
G37*
G36*
X799687D02*
X799828Y1281644D01*
X799904Y1281460D01*
Y1272561D01*
X799828Y1272377D01*
X799687Y1272237D01*
X799503Y1272160D01*
X790805D01*
X790621Y1272237D01*
X790480Y1272377D01*
X790404Y1272561D01*
Y1281460D01*
X790480Y1281644D01*
X790621Y1281784D01*
X790805Y1281861D01*
X799503D01*
X799687Y1281784D01*
D02*
G37*
G36*
X811187D02*
X811328Y1281644D01*
X811404Y1281460D01*
Y1272561D01*
X811328Y1272377D01*
X811187Y1272237D01*
X811003Y1272160D01*
X802305D01*
X802121Y1272237D01*
X801980Y1272377D01*
X801904Y1272561D01*
Y1281460D01*
X801980Y1281644D01*
X802121Y1281784D01*
X802305Y1281861D01*
X811003D01*
X811187Y1281784D01*
D02*
G37*
G36*
X932187Y1282784D02*
X932328Y1282644D01*
X932404Y1282460D01*
Y1273561D01*
X932328Y1273377D01*
X932187Y1273237D01*
X932003Y1273160D01*
X923305D01*
X923121Y1273237D01*
X922980Y1273377D01*
X922904Y1273561D01*
Y1282460D01*
X922980Y1282644D01*
X923121Y1282784D01*
X923305Y1282861D01*
X932003D01*
X932187Y1282784D01*
D02*
G37*
G36*
X989687D02*
X989828Y1282644D01*
X989904Y1282460D01*
Y1273561D01*
X989828Y1273377D01*
X989687Y1273237D01*
X989503Y1273160D01*
X980805D01*
X980621Y1273237D01*
X980480Y1273377D01*
X980404Y1273561D01*
Y1282460D01*
X980480Y1282644D01*
X980621Y1282784D01*
X980805Y1282861D01*
X989503D01*
X989687Y1282784D01*
D02*
G37*
G36*
X1001187D02*
X1001328Y1282644D01*
X1001404Y1282460D01*
Y1273561D01*
X1001328Y1273377D01*
X1001187Y1273237D01*
X1001003Y1273160D01*
X992305D01*
X992121Y1273237D01*
X991980Y1273377D01*
X991904Y1273561D01*
Y1282460D01*
X991980Y1282644D01*
X992121Y1282784D01*
X992305Y1282861D01*
X1001003D01*
X1001187Y1282784D01*
D02*
G37*
G36*
X1075187Y1283784D02*
X1075328Y1283644D01*
X1075404Y1283460D01*
Y1274561D01*
X1075328Y1274377D01*
X1075187Y1274237D01*
X1075004Y1274161D01*
X1066305D01*
X1066121Y1274237D01*
X1065980Y1274377D01*
X1065904Y1274561D01*
Y1283460D01*
X1065980Y1283644D01*
X1066121Y1283784D01*
X1066305Y1283861D01*
X1075004D01*
X1075187Y1283784D01*
D02*
G37*
G36*
X978187Y1282784D02*
X978328Y1282644D01*
X978404Y1282460D01*
Y1273561D01*
X978328Y1273377D01*
X978187Y1273237D01*
X978003Y1273160D01*
X969305D01*
X969121Y1273237D01*
X968980Y1273377D01*
X968904Y1273561D01*
Y1282460D01*
X968980Y1282644D01*
X969121Y1282784D01*
X969305Y1282861D01*
X978003D01*
X978187Y1282784D01*
D02*
G37*
G36*
X943687D02*
X943828Y1282644D01*
X943904Y1282460D01*
Y1273561D01*
X943828Y1273377D01*
X943687Y1273237D01*
X943503Y1273160D01*
X934805D01*
X934621Y1273237D01*
X934480Y1273377D01*
X934404Y1273561D01*
Y1282460D01*
X934480Y1282644D01*
X934621Y1282784D01*
X934805Y1282861D01*
X943503D01*
X943687Y1282784D01*
D02*
G37*
G36*
X955187D02*
X955328Y1282644D01*
X955404Y1282460D01*
Y1273561D01*
X955328Y1273377D01*
X955187Y1273237D01*
X955004Y1273160D01*
X946305D01*
X946121Y1273237D01*
X945980Y1273377D01*
X945904Y1273561D01*
Y1282460D01*
X945980Y1282644D01*
X946121Y1282784D01*
X946305Y1282861D01*
X955004D01*
X955187Y1282784D01*
D02*
G37*
G36*
X966687D02*
X966828Y1282644D01*
X966904Y1282460D01*
Y1273561D01*
X966828Y1273377D01*
X966687Y1273237D01*
X966504Y1273160D01*
X957805D01*
X957621Y1273237D01*
X957480Y1273377D01*
X957404Y1273561D01*
Y1282460D01*
X957480Y1282644D01*
X957621Y1282784D01*
X957805Y1282861D01*
X966504D01*
X966687Y1282784D01*
D02*
G37*
G36*
Y1294484D02*
X966828Y1294344D01*
X966904Y1294160D01*
Y1285261D01*
X966828Y1285077D01*
X966687Y1284937D01*
X966504Y1284861D01*
X957805D01*
X957621Y1284937D01*
X957480Y1285077D01*
X957404Y1285261D01*
Y1294160D01*
X957480Y1294344D01*
X957621Y1294484D01*
X957805Y1294561D01*
X966504D01*
X966687Y1294484D01*
D02*
G37*
G36*
Y1306184D02*
X966828Y1306044D01*
X966904Y1305860D01*
Y1296961D01*
X966828Y1296777D01*
X966687Y1296637D01*
X966504Y1296561D01*
X957805D01*
X957621Y1296637D01*
X957480Y1296777D01*
X957404Y1296961D01*
Y1305860D01*
X957480Y1306044D01*
X957621Y1306184D01*
X957805Y1306261D01*
X966504D01*
X966687Y1306184D01*
D02*
G37*
G36*
X978187D02*
X978328Y1306044D01*
X978404Y1305860D01*
Y1296961D01*
X978328Y1296777D01*
X978187Y1296637D01*
X978003Y1296561D01*
X969305D01*
X969121Y1296637D01*
X968980Y1296777D01*
X968904Y1296961D01*
Y1305860D01*
X968980Y1306044D01*
X969121Y1306184D01*
X969305Y1306261D01*
X978003D01*
X978187Y1306184D01*
D02*
G37*
G36*
X989687D02*
X989828Y1306044D01*
X989904Y1305860D01*
Y1296961D01*
X989828Y1296777D01*
X989687Y1296637D01*
X989503Y1296561D01*
X980805D01*
X980621Y1296637D01*
X980480Y1296777D01*
X980404Y1296961D01*
Y1305860D01*
X980480Y1306044D01*
X980621Y1306184D01*
X980805Y1306261D01*
X989503D01*
X989687Y1306184D01*
D02*
G37*
G36*
X955187D02*
X955328Y1306044D01*
X955404Y1305860D01*
Y1296961D01*
X955328Y1296777D01*
X955187Y1296637D01*
X955004Y1296561D01*
X946305D01*
X946121Y1296637D01*
X945980Y1296777D01*
X945904Y1296961D01*
Y1305860D01*
X945980Y1306044D01*
X946121Y1306184D01*
X946305Y1306261D01*
X955004D01*
X955187Y1306184D01*
D02*
G37*
G36*
X857187Y1305184D02*
X857328Y1305044D01*
X857404Y1304860D01*
Y1295961D01*
X857328Y1295777D01*
X857187Y1295637D01*
X857003Y1295561D01*
X848305D01*
X848121Y1295637D01*
X847980Y1295777D01*
X847904Y1295961D01*
Y1304860D01*
X847980Y1305044D01*
X848121Y1305184D01*
X848305Y1305261D01*
X857003D01*
X857187Y1305184D01*
D02*
G37*
G36*
X932187Y1306184D02*
X932328Y1306044D01*
X932404Y1305860D01*
Y1296961D01*
X932328Y1296777D01*
X932187Y1296637D01*
X932003Y1296561D01*
X923305D01*
X923121Y1296637D01*
X922980Y1296777D01*
X922904Y1296961D01*
Y1305860D01*
X922980Y1306044D01*
X923121Y1306184D01*
X923305Y1306261D01*
X932003D01*
X932187Y1306184D01*
D02*
G37*
G36*
X943687D02*
X943828Y1306044D01*
X943904Y1305860D01*
Y1296961D01*
X943828Y1296777D01*
X943687Y1296637D01*
X943503Y1296561D01*
X934805D01*
X934621Y1296637D01*
X934480Y1296777D01*
X934404Y1296961D01*
Y1305860D01*
X934480Y1306044D01*
X934621Y1306184D01*
X934805Y1306261D01*
X943503D01*
X943687Y1306184D01*
D02*
G37*
G36*
X1001187D02*
X1001328Y1306044D01*
X1001404Y1305860D01*
Y1296961D01*
X1001328Y1296777D01*
X1001187Y1296637D01*
X1001003Y1296561D01*
X992305D01*
X992121Y1296637D01*
X991980Y1296777D01*
X991904Y1296961D01*
Y1305860D01*
X991980Y1306044D01*
X992121Y1306184D01*
X992305Y1306261D01*
X1001003D01*
X1001187Y1306184D01*
D02*
G37*
G36*
X1121187Y1307184D02*
X1121328Y1307044D01*
X1121404Y1306860D01*
Y1297961D01*
X1121328Y1297777D01*
X1121187Y1297637D01*
X1121003Y1297560D01*
X1112305D01*
X1112121Y1297637D01*
X1111980Y1297777D01*
X1111904Y1297961D01*
Y1306860D01*
X1111980Y1307044D01*
X1112121Y1307184D01*
X1112305Y1307261D01*
X1121003D01*
X1121187Y1307184D01*
D02*
G37*
G36*
X1132687D02*
X1132828Y1307044D01*
X1132904Y1306860D01*
Y1297961D01*
X1132828Y1297777D01*
X1132687Y1297637D01*
X1132504Y1297560D01*
X1123805D01*
X1123621Y1297637D01*
X1123480Y1297777D01*
X1123404Y1297961D01*
Y1306860D01*
X1123480Y1307044D01*
X1123621Y1307184D01*
X1123805Y1307261D01*
X1132504D01*
X1132687Y1307184D01*
D02*
G37*
G36*
X1144187D02*
X1144328Y1307044D01*
X1144404Y1306860D01*
Y1297961D01*
X1144328Y1297777D01*
X1144187Y1297637D01*
X1144004Y1297560D01*
X1135305D01*
X1135121Y1297637D01*
X1134980Y1297777D01*
X1134904Y1297961D01*
Y1306860D01*
X1134980Y1307044D01*
X1135121Y1307184D01*
X1135305Y1307261D01*
X1144004D01*
X1144187Y1307184D01*
D02*
G37*
G36*
X1109687D02*
X1109828Y1307044D01*
X1109904Y1306860D01*
Y1297961D01*
X1109828Y1297777D01*
X1109687Y1297637D01*
X1109503Y1297560D01*
X1100805D01*
X1100621Y1297637D01*
X1100480Y1297777D01*
X1100404Y1297961D01*
Y1306860D01*
X1100480Y1307044D01*
X1100621Y1307184D01*
X1100805Y1307261D01*
X1109503D01*
X1109687Y1307184D01*
D02*
G37*
G36*
X1075187D02*
X1075328Y1307044D01*
X1075404Y1306860D01*
Y1297961D01*
X1075328Y1297777D01*
X1075187Y1297637D01*
X1075004Y1297560D01*
X1066305D01*
X1066121Y1297637D01*
X1065980Y1297777D01*
X1065904Y1297961D01*
Y1306860D01*
X1065980Y1307044D01*
X1066121Y1307184D01*
X1066305Y1307261D01*
X1075004D01*
X1075187Y1307184D01*
D02*
G37*
G36*
X1086687D02*
X1086828Y1307044D01*
X1086904Y1306860D01*
Y1297961D01*
X1086828Y1297777D01*
X1086687Y1297637D01*
X1086504Y1297560D01*
X1077805D01*
X1077621Y1297637D01*
X1077480Y1297777D01*
X1077404Y1297961D01*
Y1306860D01*
X1077480Y1307044D01*
X1077621Y1307184D01*
X1077805Y1307261D01*
X1086504D01*
X1086687Y1307184D01*
D02*
G37*
G36*
X1098187D02*
X1098328Y1307044D01*
X1098404Y1306860D01*
Y1297961D01*
X1098328Y1297777D01*
X1098187Y1297637D01*
X1098003Y1297560D01*
X1089305D01*
X1089121Y1297637D01*
X1088980Y1297777D01*
X1088904Y1297961D01*
Y1306860D01*
X1088980Y1307044D01*
X1089121Y1307184D01*
X1089305Y1307261D01*
X1098003D01*
X1098187Y1307184D01*
D02*
G37*
G36*
X845687Y1305184D02*
X845828Y1305044D01*
X845904Y1304860D01*
Y1295961D01*
X845828Y1295777D01*
X845687Y1295637D01*
X845503Y1295561D01*
X836805D01*
X836621Y1295637D01*
X836480Y1295777D01*
X836404Y1295961D01*
Y1304860D01*
X836480Y1305044D01*
X836621Y1305184D01*
X836805Y1305261D01*
X845503D01*
X845687Y1305184D01*
D02*
G37*
G36*
X1086687Y1295484D02*
X1086828Y1295344D01*
X1086904Y1295160D01*
Y1286261D01*
X1086828Y1286077D01*
X1086687Y1285937D01*
X1086504Y1285860D01*
X1077805D01*
X1077621Y1285937D01*
X1077480Y1286077D01*
X1077404Y1286261D01*
Y1295160D01*
X1077480Y1295344D01*
X1077621Y1295484D01*
X1077805Y1295561D01*
X1086504D01*
X1086687Y1295484D01*
D02*
G37*
G36*
X1098187D02*
X1098328Y1295344D01*
X1098404Y1295160D01*
Y1286261D01*
X1098328Y1286077D01*
X1098187Y1285937D01*
X1098003Y1285860D01*
X1089305D01*
X1089121Y1285937D01*
X1088980Y1286077D01*
X1088904Y1286261D01*
Y1295160D01*
X1088980Y1295344D01*
X1089121Y1295484D01*
X1089305Y1295561D01*
X1098003D01*
X1098187Y1295484D01*
D02*
G37*
G36*
X1109687D02*
X1109828Y1295344D01*
X1109904Y1295160D01*
Y1286261D01*
X1109828Y1286077D01*
X1109687Y1285937D01*
X1109503Y1285860D01*
X1100805D01*
X1100621Y1285937D01*
X1100480Y1286077D01*
X1100404Y1286261D01*
Y1295160D01*
X1100480Y1295344D01*
X1100621Y1295484D01*
X1100805Y1295561D01*
X1109503D01*
X1109687Y1295484D01*
D02*
G37*
G36*
X1075187D02*
X1075328Y1295344D01*
X1075404Y1295160D01*
Y1286261D01*
X1075328Y1286077D01*
X1075187Y1285937D01*
X1075004Y1285860D01*
X1066305D01*
X1066121Y1285937D01*
X1065980Y1286077D01*
X1065904Y1286261D01*
Y1295160D01*
X1065980Y1295344D01*
X1066121Y1295484D01*
X1066305Y1295561D01*
X1075004D01*
X1075187Y1295484D01*
D02*
G37*
G36*
X978187Y1294484D02*
X978328Y1294344D01*
X978404Y1294160D01*
Y1285261D01*
X978328Y1285077D01*
X978187Y1284937D01*
X978003Y1284861D01*
X969305D01*
X969121Y1284937D01*
X968980Y1285077D01*
X968904Y1285261D01*
Y1294160D01*
X968980Y1294344D01*
X969121Y1294484D01*
X969305Y1294561D01*
X978003D01*
X978187Y1294484D01*
D02*
G37*
G36*
X989687D02*
X989828Y1294344D01*
X989904Y1294160D01*
Y1285261D01*
X989828Y1285077D01*
X989687Y1284937D01*
X989503Y1284861D01*
X980805D01*
X980621Y1284937D01*
X980480Y1285077D01*
X980404Y1285261D01*
Y1294160D01*
X980480Y1294344D01*
X980621Y1294484D01*
X980805Y1294561D01*
X989503D01*
X989687Y1294484D01*
D02*
G37*
G36*
X1001187D02*
X1001328Y1294344D01*
X1001404Y1294160D01*
Y1285261D01*
X1001328Y1285077D01*
X1001187Y1284937D01*
X1001003Y1284861D01*
X992305D01*
X992121Y1284937D01*
X991980Y1285077D01*
X991904Y1285261D01*
Y1294160D01*
X991980Y1294344D01*
X992121Y1294484D01*
X992305Y1294561D01*
X1001003D01*
X1001187Y1294484D01*
D02*
G37*
G36*
X1121187Y1295484D02*
X1121328Y1295344D01*
X1121404Y1295160D01*
Y1286261D01*
X1121328Y1286077D01*
X1121187Y1285937D01*
X1121003Y1285860D01*
X1112305D01*
X1112121Y1285937D01*
X1111980Y1286077D01*
X1111904Y1286261D01*
Y1295160D01*
X1111980Y1295344D01*
X1112121Y1295484D01*
X1112305Y1295561D01*
X1121003D01*
X1121187Y1295484D01*
D02*
G37*
G36*
X811187Y1305184D02*
X811328Y1305044D01*
X811404Y1304860D01*
Y1295961D01*
X811328Y1295777D01*
X811187Y1295637D01*
X811003Y1295561D01*
X802305D01*
X802121Y1295637D01*
X801980Y1295777D01*
X801904Y1295961D01*
Y1304860D01*
X801980Y1305044D01*
X802121Y1305184D01*
X802305Y1305261D01*
X811003D01*
X811187Y1305184D01*
D02*
G37*
G36*
X822687D02*
X822828Y1305044D01*
X822904Y1304860D01*
Y1295961D01*
X822828Y1295777D01*
X822687Y1295637D01*
X822504Y1295561D01*
X813805D01*
X813621Y1295637D01*
X813480Y1295777D01*
X813404Y1295961D01*
Y1304860D01*
X813480Y1305044D01*
X813621Y1305184D01*
X813805Y1305261D01*
X822504D01*
X822687Y1305184D01*
D02*
G37*
G36*
X834187D02*
X834328Y1305044D01*
X834404Y1304860D01*
Y1295961D01*
X834328Y1295777D01*
X834187Y1295637D01*
X834004Y1295561D01*
X825305D01*
X825121Y1295637D01*
X824980Y1295777D01*
X824904Y1295961D01*
Y1304860D01*
X824980Y1305044D01*
X825121Y1305184D01*
X825305Y1305261D01*
X834004D01*
X834187Y1305184D01*
D02*
G37*
G36*
X799687D02*
X799828Y1305044D01*
X799904Y1304860D01*
Y1295961D01*
X799828Y1295777D01*
X799687Y1295637D01*
X799503Y1295561D01*
X790805D01*
X790621Y1295637D01*
X790480Y1295777D01*
X790404Y1295961D01*
Y1304860D01*
X790480Y1305044D01*
X790621Y1305184D01*
X790805Y1305261D01*
X799503D01*
X799687Y1305184D01*
D02*
G37*
G36*
X1132687Y1295484D02*
X1132828Y1295344D01*
X1132904Y1295160D01*
Y1286261D01*
X1132828Y1286077D01*
X1132687Y1285937D01*
X1132504Y1285860D01*
X1123805D01*
X1123621Y1285937D01*
X1123480Y1286077D01*
X1123404Y1286261D01*
Y1295160D01*
X1123480Y1295344D01*
X1123621Y1295484D01*
X1123805Y1295561D01*
X1132504D01*
X1132687Y1295484D01*
D02*
G37*
G36*
X1144187D02*
X1144328Y1295344D01*
X1144404Y1295160D01*
Y1286261D01*
X1144328Y1286077D01*
X1144187Y1285937D01*
X1144004Y1285860D01*
X1135305D01*
X1135121Y1285937D01*
X1134980Y1286077D01*
X1134904Y1286261D01*
Y1295160D01*
X1134980Y1295344D01*
X1135121Y1295484D01*
X1135305Y1295561D01*
X1144004D01*
X1144187Y1295484D01*
D02*
G37*
G36*
X788187Y1305184D02*
X788328Y1305044D01*
X788404Y1304860D01*
Y1295961D01*
X788328Y1295777D01*
X788187Y1295637D01*
X788003Y1295561D01*
X779305D01*
X779121Y1295637D01*
X778980Y1295777D01*
X778904Y1295961D01*
Y1304860D01*
X778980Y1305044D01*
X779121Y1305184D01*
X779305Y1305261D01*
X788003D01*
X788187Y1305184D01*
D02*
G37*
G36*
X1144187Y1248684D02*
X1144328Y1248544D01*
X1144404Y1248360D01*
Y1239461D01*
X1144328Y1239277D01*
X1144187Y1239137D01*
X1144004Y1239061D01*
X1135305D01*
X1135121Y1239137D01*
X1134980Y1239277D01*
X1134904Y1239461D01*
Y1248360D01*
X1134980Y1248544D01*
X1135121Y1248684D01*
X1135305Y1248761D01*
X1144004D01*
X1144187Y1248684D01*
D02*
G37*
G36*
X788187Y1258384D02*
X788328Y1258244D01*
X788404Y1258060D01*
Y1249161D01*
X788328Y1248977D01*
X788187Y1248837D01*
X788003Y1248761D01*
X779305D01*
X779121Y1248837D01*
X778980Y1248977D01*
X778904Y1249161D01*
Y1258060D01*
X778980Y1258244D01*
X779121Y1258384D01*
X779305Y1258461D01*
X788003D01*
X788187Y1258384D01*
D02*
G37*
G36*
X799687D02*
X799828Y1258244D01*
X799904Y1258060D01*
Y1249161D01*
X799828Y1248977D01*
X799687Y1248837D01*
X799503Y1248761D01*
X790805D01*
X790621Y1248837D01*
X790480Y1248977D01*
X790404Y1249161D01*
Y1258060D01*
X790480Y1258244D01*
X790621Y1258384D01*
X790805Y1258461D01*
X799503D01*
X799687Y1258384D01*
D02*
G37*
G36*
X1132687Y1248684D02*
X1132828Y1248544D01*
X1132904Y1248360D01*
Y1239461D01*
X1132828Y1239277D01*
X1132687Y1239137D01*
X1132504Y1239061D01*
X1123805D01*
X1123621Y1239137D01*
X1123480Y1239277D01*
X1123404Y1239461D01*
Y1248360D01*
X1123480Y1248544D01*
X1123621Y1248684D01*
X1123805Y1248761D01*
X1132504D01*
X1132687Y1248684D01*
D02*
G37*
G36*
X1098187D02*
X1098328Y1248544D01*
X1098404Y1248360D01*
Y1239461D01*
X1098328Y1239277D01*
X1098187Y1239137D01*
X1098003Y1239061D01*
X1089305D01*
X1089121Y1239137D01*
X1088980Y1239277D01*
X1088904Y1239461D01*
Y1248360D01*
X1088980Y1248544D01*
X1089121Y1248684D01*
X1089305Y1248761D01*
X1098003D01*
X1098187Y1248684D01*
D02*
G37*
G36*
X1109687D02*
X1109828Y1248544D01*
X1109904Y1248360D01*
Y1239461D01*
X1109828Y1239277D01*
X1109687Y1239137D01*
X1109503Y1239061D01*
X1100805D01*
X1100621Y1239137D01*
X1100480Y1239277D01*
X1100404Y1239461D01*
Y1248360D01*
X1100480Y1248544D01*
X1100621Y1248684D01*
X1100805Y1248761D01*
X1109503D01*
X1109687Y1248684D01*
D02*
G37*
G36*
X1121187D02*
X1121328Y1248544D01*
X1121404Y1248360D01*
Y1239461D01*
X1121328Y1239277D01*
X1121187Y1239137D01*
X1121003Y1239061D01*
X1112305D01*
X1112121Y1239137D01*
X1111980Y1239277D01*
X1111904Y1239461D01*
Y1248360D01*
X1111980Y1248544D01*
X1112121Y1248684D01*
X1112305Y1248761D01*
X1121003D01*
X1121187Y1248684D01*
D02*
G37*
G36*
X811187Y1258384D02*
X811328Y1258244D01*
X811404Y1258060D01*
Y1249161D01*
X811328Y1248977D01*
X811187Y1248837D01*
X811003Y1248761D01*
X802305D01*
X802121Y1248837D01*
X801980Y1248977D01*
X801904Y1249161D01*
Y1258060D01*
X801980Y1258244D01*
X802121Y1258384D01*
X802305Y1258461D01*
X811003D01*
X811187Y1258384D01*
D02*
G37*
G36*
X932187Y1259384D02*
X932328Y1259244D01*
X932404Y1259060D01*
Y1250161D01*
X932328Y1249977D01*
X932187Y1249837D01*
X932003Y1249761D01*
X923305D01*
X923121Y1249837D01*
X922980Y1249977D01*
X922904Y1250161D01*
Y1259060D01*
X922980Y1259244D01*
X923121Y1259384D01*
X923305Y1259461D01*
X932003D01*
X932187Y1259384D01*
D02*
G37*
G36*
X943687D02*
X943828Y1259244D01*
X943904Y1259060D01*
Y1250161D01*
X943828Y1249977D01*
X943687Y1249837D01*
X943503Y1249761D01*
X934805D01*
X934621Y1249837D01*
X934480Y1249977D01*
X934404Y1250161D01*
Y1259060D01*
X934480Y1259244D01*
X934621Y1259384D01*
X934805Y1259461D01*
X943503D01*
X943687Y1259384D01*
D02*
G37*
G36*
X955187D02*
X955328Y1259244D01*
X955404Y1259060D01*
Y1250161D01*
X955328Y1249977D01*
X955187Y1249837D01*
X955004Y1249761D01*
X946305D01*
X946121Y1249837D01*
X945980Y1249977D01*
X945904Y1250161D01*
Y1259060D01*
X945980Y1259244D01*
X946121Y1259384D01*
X946305Y1259461D01*
X955004D01*
X955187Y1259384D01*
D02*
G37*
G36*
X857187Y1258384D02*
X857328Y1258244D01*
X857404Y1258060D01*
Y1249161D01*
X857328Y1248977D01*
X857187Y1248837D01*
X857003Y1248761D01*
X848305D01*
X848121Y1248837D01*
X847980Y1248977D01*
X847904Y1249161D01*
Y1258060D01*
X847980Y1258244D01*
X848121Y1258384D01*
X848305Y1258461D01*
X857003D01*
X857187Y1258384D01*
D02*
G37*
G36*
X822687D02*
X822828Y1258244D01*
X822904Y1258060D01*
Y1249161D01*
X822828Y1248977D01*
X822687Y1248837D01*
X822504Y1248761D01*
X813805D01*
X813621Y1248837D01*
X813480Y1248977D01*
X813404Y1249161D01*
Y1258060D01*
X813480Y1258244D01*
X813621Y1258384D01*
X813805Y1258461D01*
X822504D01*
X822687Y1258384D01*
D02*
G37*
G36*
X834187D02*
X834328Y1258244D01*
X834404Y1258060D01*
Y1249161D01*
X834328Y1248977D01*
X834187Y1248837D01*
X834004Y1248761D01*
X825305D01*
X825121Y1248837D01*
X824980Y1248977D01*
X824904Y1249161D01*
Y1258060D01*
X824980Y1258244D01*
X825121Y1258384D01*
X825305Y1258461D01*
X834004D01*
X834187Y1258384D01*
D02*
G37*
G36*
X845687D02*
X845828Y1258244D01*
X845904Y1258060D01*
Y1249161D01*
X845828Y1248977D01*
X845687Y1248837D01*
X845503Y1248761D01*
X836805D01*
X836621Y1248837D01*
X836480Y1248977D01*
X836404Y1249161D01*
Y1258060D01*
X836480Y1258244D01*
X836621Y1258384D01*
X836805Y1258461D01*
X845503D01*
X845687Y1258384D01*
D02*
G37*
G36*
X1086687Y1248684D02*
X1086828Y1248544D01*
X1086904Y1248360D01*
Y1239461D01*
X1086828Y1239277D01*
X1086687Y1239137D01*
X1086504Y1239061D01*
X1077805D01*
X1077621Y1239137D01*
X1077480Y1239277D01*
X1077404Y1239461D01*
Y1248360D01*
X1077480Y1248544D01*
X1077621Y1248684D01*
X1077805Y1248761D01*
X1086504D01*
X1086687Y1248684D01*
D02*
G37*
G36*
X834187Y1246684D02*
X834328Y1246544D01*
X834404Y1246360D01*
Y1237461D01*
X834328Y1237277D01*
X834187Y1237137D01*
X834004Y1237060D01*
X825305D01*
X825121Y1237137D01*
X824980Y1237277D01*
X824904Y1237461D01*
Y1246360D01*
X824980Y1246544D01*
X825121Y1246684D01*
X825305Y1246760D01*
X834004D01*
X834187Y1246684D01*
D02*
G37*
G36*
X845687D02*
X845828Y1246544D01*
X845904Y1246360D01*
Y1237461D01*
X845828Y1237277D01*
X845687Y1237137D01*
X845503Y1237060D01*
X836805D01*
X836621Y1237137D01*
X836480Y1237277D01*
X836404Y1237461D01*
Y1246360D01*
X836480Y1246544D01*
X836621Y1246684D01*
X836805Y1246760D01*
X845503D01*
X845687Y1246684D01*
D02*
G37*
G36*
X857187D02*
X857328Y1246544D01*
X857404Y1246360D01*
Y1237461D01*
X857328Y1237277D01*
X857187Y1237137D01*
X857003Y1237060D01*
X848305D01*
X848121Y1237137D01*
X847980Y1237277D01*
X847904Y1237461D01*
Y1246360D01*
X847980Y1246544D01*
X848121Y1246684D01*
X848305Y1246760D01*
X857003D01*
X857187Y1246684D01*
D02*
G37*
G36*
X822687D02*
X822828Y1246544D01*
X822904Y1246360D01*
Y1237461D01*
X822828Y1237277D01*
X822687Y1237137D01*
X822504Y1237060D01*
X813805D01*
X813621Y1237137D01*
X813480Y1237277D01*
X813404Y1237461D01*
Y1246360D01*
X813480Y1246544D01*
X813621Y1246684D01*
X813805Y1246760D01*
X822504D01*
X822687Y1246684D01*
D02*
G37*
G36*
X788187D02*
X788328Y1246544D01*
X788404Y1246360D01*
Y1237461D01*
X788328Y1237277D01*
X788187Y1237137D01*
X788003Y1237060D01*
X779305D01*
X779121Y1237137D01*
X778980Y1237277D01*
X778904Y1237461D01*
Y1246360D01*
X778980Y1246544D01*
X779121Y1246684D01*
X779305Y1246760D01*
X788003D01*
X788187Y1246684D01*
D02*
G37*
G36*
X799687D02*
X799828Y1246544D01*
X799904Y1246360D01*
Y1237461D01*
X799828Y1237277D01*
X799687Y1237137D01*
X799503Y1237060D01*
X790805D01*
X790621Y1237137D01*
X790480Y1237277D01*
X790404Y1237461D01*
Y1246360D01*
X790480Y1246544D01*
X790621Y1246684D01*
X790805Y1246760D01*
X799503D01*
X799687Y1246684D01*
D02*
G37*
G36*
X811187D02*
X811328Y1246544D01*
X811404Y1246360D01*
Y1237461D01*
X811328Y1237277D01*
X811187Y1237137D01*
X811003Y1237060D01*
X802305D01*
X802121Y1237137D01*
X801980Y1237277D01*
X801904Y1237461D01*
Y1246360D01*
X801980Y1246544D01*
X802121Y1246684D01*
X802305Y1246760D01*
X811003D01*
X811187Y1246684D01*
D02*
G37*
G36*
X932187Y1247684D02*
X932328Y1247544D01*
X932404Y1247360D01*
Y1238461D01*
X932328Y1238277D01*
X932187Y1238137D01*
X932003Y1238061D01*
X923305D01*
X923121Y1238137D01*
X922980Y1238277D01*
X922904Y1238461D01*
Y1247360D01*
X922980Y1247544D01*
X923121Y1247684D01*
X923305Y1247760D01*
X932003D01*
X932187Y1247684D01*
D02*
G37*
G36*
X989687D02*
X989828Y1247544D01*
X989904Y1247360D01*
Y1238461D01*
X989828Y1238277D01*
X989687Y1238137D01*
X989503Y1238061D01*
X980805D01*
X980621Y1238137D01*
X980480Y1238277D01*
X980404Y1238461D01*
Y1247360D01*
X980480Y1247544D01*
X980621Y1247684D01*
X980805Y1247760D01*
X989503D01*
X989687Y1247684D01*
D02*
G37*
G36*
X1001187D02*
X1001328Y1247544D01*
X1001404Y1247360D01*
Y1238461D01*
X1001328Y1238277D01*
X1001187Y1238137D01*
X1001003Y1238061D01*
X992305D01*
X992121Y1238137D01*
X991980Y1238277D01*
X991904Y1238461D01*
Y1247360D01*
X991980Y1247544D01*
X992121Y1247684D01*
X992305Y1247760D01*
X1001003D01*
X1001187Y1247684D01*
D02*
G37*
G36*
X1075187Y1248684D02*
X1075328Y1248544D01*
X1075404Y1248360D01*
Y1239461D01*
X1075328Y1239277D01*
X1075187Y1239137D01*
X1075004Y1239061D01*
X1066305D01*
X1066121Y1239137D01*
X1065980Y1239277D01*
X1065904Y1239461D01*
Y1248360D01*
X1065980Y1248544D01*
X1066121Y1248684D01*
X1066305Y1248761D01*
X1075004D01*
X1075187Y1248684D01*
D02*
G37*
G36*
X978187Y1247684D02*
X978328Y1247544D01*
X978404Y1247360D01*
Y1238461D01*
X978328Y1238277D01*
X978187Y1238137D01*
X978003Y1238061D01*
X969305D01*
X969121Y1238137D01*
X968980Y1238277D01*
X968904Y1238461D01*
Y1247360D01*
X968980Y1247544D01*
X969121Y1247684D01*
X969305Y1247760D01*
X978003D01*
X978187Y1247684D01*
D02*
G37*
G36*
X943687D02*
X943828Y1247544D01*
X943904Y1247360D01*
Y1238461D01*
X943828Y1238277D01*
X943687Y1238137D01*
X943503Y1238061D01*
X934805D01*
X934621Y1238137D01*
X934480Y1238277D01*
X934404Y1238461D01*
Y1247360D01*
X934480Y1247544D01*
X934621Y1247684D01*
X934805Y1247760D01*
X943503D01*
X943687Y1247684D01*
D02*
G37*
G36*
X955187D02*
X955328Y1247544D01*
X955404Y1247360D01*
Y1238461D01*
X955328Y1238277D01*
X955187Y1238137D01*
X955004Y1238061D01*
X946305D01*
X946121Y1238137D01*
X945980Y1238277D01*
X945904Y1238461D01*
Y1247360D01*
X945980Y1247544D01*
X946121Y1247684D01*
X946305Y1247760D01*
X955004D01*
X955187Y1247684D01*
D02*
G37*
G36*
X966687D02*
X966828Y1247544D01*
X966904Y1247360D01*
Y1238461D01*
X966828Y1238277D01*
X966687Y1238137D01*
X966504Y1238061D01*
X957805D01*
X957621Y1238137D01*
X957480Y1238277D01*
X957404Y1238461D01*
Y1247360D01*
X957480Y1247544D01*
X957621Y1247684D01*
X957805Y1247760D01*
X966504D01*
X966687Y1247684D01*
D02*
G37*
G36*
Y1259384D02*
X966828Y1259244D01*
X966904Y1259060D01*
Y1250161D01*
X966828Y1249977D01*
X966687Y1249837D01*
X966504Y1249761D01*
X957805D01*
X957621Y1249837D01*
X957480Y1249977D01*
X957404Y1250161D01*
Y1259060D01*
X957480Y1259244D01*
X957621Y1259384D01*
X957805Y1259461D01*
X966504D01*
X966687Y1259384D01*
D02*
G37*
G36*
Y1271084D02*
X966828Y1270944D01*
X966904Y1270760D01*
Y1261861D01*
X966828Y1261677D01*
X966687Y1261537D01*
X966504Y1261460D01*
X957805D01*
X957621Y1261537D01*
X957480Y1261677D01*
X957404Y1261861D01*
Y1270760D01*
X957480Y1270944D01*
X957621Y1271084D01*
X957805Y1271161D01*
X966504D01*
X966687Y1271084D01*
D02*
G37*
G36*
X978187D02*
X978328Y1270944D01*
X978404Y1270760D01*
Y1261861D01*
X978328Y1261677D01*
X978187Y1261537D01*
X978003Y1261460D01*
X969305D01*
X969121Y1261537D01*
X968980Y1261677D01*
X968904Y1261861D01*
Y1270760D01*
X968980Y1270944D01*
X969121Y1271084D01*
X969305Y1271161D01*
X978003D01*
X978187Y1271084D01*
D02*
G37*
G36*
X989687D02*
X989828Y1270944D01*
X989904Y1270760D01*
Y1261861D01*
X989828Y1261677D01*
X989687Y1261537D01*
X989503Y1261460D01*
X980805D01*
X980621Y1261537D01*
X980480Y1261677D01*
X980404Y1261861D01*
Y1270760D01*
X980480Y1270944D01*
X980621Y1271084D01*
X980805Y1271161D01*
X989503D01*
X989687Y1271084D01*
D02*
G37*
G36*
X955187D02*
X955328Y1270944D01*
X955404Y1270760D01*
Y1261861D01*
X955328Y1261677D01*
X955187Y1261537D01*
X955004Y1261460D01*
X946305D01*
X946121Y1261537D01*
X945980Y1261677D01*
X945904Y1261861D01*
Y1270760D01*
X945980Y1270944D01*
X946121Y1271084D01*
X946305Y1271161D01*
X955004D01*
X955187Y1271084D01*
D02*
G37*
G36*
X857187Y1270084D02*
X857328Y1269944D01*
X857404Y1269760D01*
Y1260861D01*
X857328Y1260677D01*
X857187Y1260537D01*
X857003Y1260461D01*
X848305D01*
X848121Y1260537D01*
X847980Y1260677D01*
X847904Y1260861D01*
Y1269760D01*
X847980Y1269944D01*
X848121Y1270084D01*
X848305Y1270161D01*
X857003D01*
X857187Y1270084D01*
D02*
G37*
G36*
X932187Y1271084D02*
X932328Y1270944D01*
X932404Y1270760D01*
Y1261861D01*
X932328Y1261677D01*
X932187Y1261537D01*
X932003Y1261460D01*
X923305D01*
X923121Y1261537D01*
X922980Y1261677D01*
X922904Y1261861D01*
Y1270760D01*
X922980Y1270944D01*
X923121Y1271084D01*
X923305Y1271161D01*
X932003D01*
X932187Y1271084D01*
D02*
G37*
G36*
X943687D02*
X943828Y1270944D01*
X943904Y1270760D01*
Y1261861D01*
X943828Y1261677D01*
X943687Y1261537D01*
X943503Y1261460D01*
X934805D01*
X934621Y1261537D01*
X934480Y1261677D01*
X934404Y1261861D01*
Y1270760D01*
X934480Y1270944D01*
X934621Y1271084D01*
X934805Y1271161D01*
X943503D01*
X943687Y1271084D01*
D02*
G37*
G36*
X1001187D02*
X1001328Y1270944D01*
X1001404Y1270760D01*
Y1261861D01*
X1001328Y1261677D01*
X1001187Y1261537D01*
X1001003Y1261460D01*
X992305D01*
X992121Y1261537D01*
X991980Y1261677D01*
X991904Y1261861D01*
Y1270760D01*
X991980Y1270944D01*
X992121Y1271084D01*
X992305Y1271161D01*
X1001003D01*
X1001187Y1271084D01*
D02*
G37*
G36*
X1121187Y1272084D02*
X1121328Y1271944D01*
X1121404Y1271760D01*
Y1262861D01*
X1121328Y1262677D01*
X1121187Y1262537D01*
X1121003Y1262460D01*
X1112305D01*
X1112121Y1262537D01*
X1111980Y1262677D01*
X1111904Y1262861D01*
Y1271760D01*
X1111980Y1271944D01*
X1112121Y1272084D01*
X1112305Y1272160D01*
X1121003D01*
X1121187Y1272084D01*
D02*
G37*
G36*
X1132687D02*
X1132828Y1271944D01*
X1132904Y1271760D01*
Y1262861D01*
X1132828Y1262677D01*
X1132687Y1262537D01*
X1132504Y1262460D01*
X1123805D01*
X1123621Y1262537D01*
X1123480Y1262677D01*
X1123404Y1262861D01*
Y1271760D01*
X1123480Y1271944D01*
X1123621Y1272084D01*
X1123805Y1272160D01*
X1132504D01*
X1132687Y1272084D01*
D02*
G37*
G36*
X1144187D02*
X1144328Y1271944D01*
X1144404Y1271760D01*
Y1262861D01*
X1144328Y1262677D01*
X1144187Y1262537D01*
X1144004Y1262460D01*
X1135305D01*
X1135121Y1262537D01*
X1134980Y1262677D01*
X1134904Y1262861D01*
Y1271760D01*
X1134980Y1271944D01*
X1135121Y1272084D01*
X1135305Y1272160D01*
X1144004D01*
X1144187Y1272084D01*
D02*
G37*
G36*
X1109687D02*
X1109828Y1271944D01*
X1109904Y1271760D01*
Y1262861D01*
X1109828Y1262677D01*
X1109687Y1262537D01*
X1109503Y1262460D01*
X1100805D01*
X1100621Y1262537D01*
X1100480Y1262677D01*
X1100404Y1262861D01*
Y1271760D01*
X1100480Y1271944D01*
X1100621Y1272084D01*
X1100805Y1272160D01*
X1109503D01*
X1109687Y1272084D01*
D02*
G37*
G36*
X1075187D02*
X1075328Y1271944D01*
X1075404Y1271760D01*
Y1262861D01*
X1075328Y1262677D01*
X1075187Y1262537D01*
X1075004Y1262460D01*
X1066305D01*
X1066121Y1262537D01*
X1065980Y1262677D01*
X1065904Y1262861D01*
Y1271760D01*
X1065980Y1271944D01*
X1066121Y1272084D01*
X1066305Y1272160D01*
X1075004D01*
X1075187Y1272084D01*
D02*
G37*
G36*
X1086687D02*
X1086828Y1271944D01*
X1086904Y1271760D01*
Y1262861D01*
X1086828Y1262677D01*
X1086687Y1262537D01*
X1086504Y1262460D01*
X1077805D01*
X1077621Y1262537D01*
X1077480Y1262677D01*
X1077404Y1262861D01*
Y1271760D01*
X1077480Y1271944D01*
X1077621Y1272084D01*
X1077805Y1272160D01*
X1086504D01*
X1086687Y1272084D01*
D02*
G37*
G36*
X1098187D02*
X1098328Y1271944D01*
X1098404Y1271760D01*
Y1262861D01*
X1098328Y1262677D01*
X1098187Y1262537D01*
X1098003Y1262460D01*
X1089305D01*
X1089121Y1262537D01*
X1088980Y1262677D01*
X1088904Y1262861D01*
Y1271760D01*
X1088980Y1271944D01*
X1089121Y1272084D01*
X1089305Y1272160D01*
X1098003D01*
X1098187Y1272084D01*
D02*
G37*
G36*
X845687Y1270084D02*
X845828Y1269944D01*
X845904Y1269760D01*
Y1260861D01*
X845828Y1260677D01*
X845687Y1260537D01*
X845503Y1260461D01*
X836805D01*
X836621Y1260537D01*
X836480Y1260677D01*
X836404Y1260861D01*
Y1269760D01*
X836480Y1269944D01*
X836621Y1270084D01*
X836805Y1270161D01*
X845503D01*
X845687Y1270084D01*
D02*
G37*
G36*
X1086687Y1260384D02*
X1086828Y1260244D01*
X1086904Y1260060D01*
Y1251161D01*
X1086828Y1250977D01*
X1086687Y1250837D01*
X1086504Y1250760D01*
X1077805D01*
X1077621Y1250837D01*
X1077480Y1250977D01*
X1077404Y1251161D01*
Y1260060D01*
X1077480Y1260244D01*
X1077621Y1260384D01*
X1077805Y1260461D01*
X1086504D01*
X1086687Y1260384D01*
D02*
G37*
G36*
X1098187D02*
X1098328Y1260244D01*
X1098404Y1260060D01*
Y1251161D01*
X1098328Y1250977D01*
X1098187Y1250837D01*
X1098003Y1250760D01*
X1089305D01*
X1089121Y1250837D01*
X1088980Y1250977D01*
X1088904Y1251161D01*
Y1260060D01*
X1088980Y1260244D01*
X1089121Y1260384D01*
X1089305Y1260461D01*
X1098003D01*
X1098187Y1260384D01*
D02*
G37*
G36*
X1109687D02*
X1109828Y1260244D01*
X1109904Y1260060D01*
Y1251161D01*
X1109828Y1250977D01*
X1109687Y1250837D01*
X1109503Y1250760D01*
X1100805D01*
X1100621Y1250837D01*
X1100480Y1250977D01*
X1100404Y1251161D01*
Y1260060D01*
X1100480Y1260244D01*
X1100621Y1260384D01*
X1100805Y1260461D01*
X1109503D01*
X1109687Y1260384D01*
D02*
G37*
G36*
X1075187D02*
X1075328Y1260244D01*
X1075404Y1260060D01*
Y1251161D01*
X1075328Y1250977D01*
X1075187Y1250837D01*
X1075004Y1250760D01*
X1066305D01*
X1066121Y1250837D01*
X1065980Y1250977D01*
X1065904Y1251161D01*
Y1260060D01*
X1065980Y1260244D01*
X1066121Y1260384D01*
X1066305Y1260461D01*
X1075004D01*
X1075187Y1260384D01*
D02*
G37*
G36*
X978187Y1259384D02*
X978328Y1259244D01*
X978404Y1259060D01*
Y1250161D01*
X978328Y1249977D01*
X978187Y1249837D01*
X978003Y1249761D01*
X969305D01*
X969121Y1249837D01*
X968980Y1249977D01*
X968904Y1250161D01*
Y1259060D01*
X968980Y1259244D01*
X969121Y1259384D01*
X969305Y1259461D01*
X978003D01*
X978187Y1259384D01*
D02*
G37*
G36*
X989687D02*
X989828Y1259244D01*
X989904Y1259060D01*
Y1250161D01*
X989828Y1249977D01*
X989687Y1249837D01*
X989503Y1249761D01*
X980805D01*
X980621Y1249837D01*
X980480Y1249977D01*
X980404Y1250161D01*
Y1259060D01*
X980480Y1259244D01*
X980621Y1259384D01*
X980805Y1259461D01*
X989503D01*
X989687Y1259384D01*
D02*
G37*
G36*
X1001187D02*
X1001328Y1259244D01*
X1001404Y1259060D01*
Y1250161D01*
X1001328Y1249977D01*
X1001187Y1249837D01*
X1001003Y1249761D01*
X992305D01*
X992121Y1249837D01*
X991980Y1249977D01*
X991904Y1250161D01*
Y1259060D01*
X991980Y1259244D01*
X992121Y1259384D01*
X992305Y1259461D01*
X1001003D01*
X1001187Y1259384D01*
D02*
G37*
G36*
X1121187Y1260384D02*
X1121328Y1260244D01*
X1121404Y1260060D01*
Y1251161D01*
X1121328Y1250977D01*
X1121187Y1250837D01*
X1121003Y1250760D01*
X1112305D01*
X1112121Y1250837D01*
X1111980Y1250977D01*
X1111904Y1251161D01*
Y1260060D01*
X1111980Y1260244D01*
X1112121Y1260384D01*
X1112305Y1260461D01*
X1121003D01*
X1121187Y1260384D01*
D02*
G37*
G36*
X811187Y1270084D02*
X811328Y1269944D01*
X811404Y1269760D01*
Y1260861D01*
X811328Y1260677D01*
X811187Y1260537D01*
X811003Y1260461D01*
X802305D01*
X802121Y1260537D01*
X801980Y1260677D01*
X801904Y1260861D01*
Y1269760D01*
X801980Y1269944D01*
X802121Y1270084D01*
X802305Y1270161D01*
X811003D01*
X811187Y1270084D01*
D02*
G37*
G36*
X822687D02*
X822828Y1269944D01*
X822904Y1269760D01*
Y1260861D01*
X822828Y1260677D01*
X822687Y1260537D01*
X822504Y1260461D01*
X813805D01*
X813621Y1260537D01*
X813480Y1260677D01*
X813404Y1260861D01*
Y1269760D01*
X813480Y1269944D01*
X813621Y1270084D01*
X813805Y1270161D01*
X822504D01*
X822687Y1270084D01*
D02*
G37*
G36*
X834187D02*
X834328Y1269944D01*
X834404Y1269760D01*
Y1260861D01*
X834328Y1260677D01*
X834187Y1260537D01*
X834004Y1260461D01*
X825305D01*
X825121Y1260537D01*
X824980Y1260677D01*
X824904Y1260861D01*
Y1269760D01*
X824980Y1269944D01*
X825121Y1270084D01*
X825305Y1270161D01*
X834004D01*
X834187Y1270084D01*
D02*
G37*
G36*
X799687D02*
X799828Y1269944D01*
X799904Y1269760D01*
Y1260861D01*
X799828Y1260677D01*
X799687Y1260537D01*
X799503Y1260461D01*
X790805D01*
X790621Y1260537D01*
X790480Y1260677D01*
X790404Y1260861D01*
Y1269760D01*
X790480Y1269944D01*
X790621Y1270084D01*
X790805Y1270161D01*
X799503D01*
X799687Y1270084D01*
D02*
G37*
G36*
X1132687Y1260384D02*
X1132828Y1260244D01*
X1132904Y1260060D01*
Y1251161D01*
X1132828Y1250977D01*
X1132687Y1250837D01*
X1132504Y1250760D01*
X1123805D01*
X1123621Y1250837D01*
X1123480Y1250977D01*
X1123404Y1251161D01*
Y1260060D01*
X1123480Y1260244D01*
X1123621Y1260384D01*
X1123805Y1260461D01*
X1132504D01*
X1132687Y1260384D01*
D02*
G37*
G36*
X1144187D02*
X1144328Y1260244D01*
X1144404Y1260060D01*
Y1251161D01*
X1144328Y1250977D01*
X1144187Y1250837D01*
X1144004Y1250760D01*
X1135305D01*
X1135121Y1250837D01*
X1134980Y1250977D01*
X1134904Y1251161D01*
Y1260060D01*
X1134980Y1260244D01*
X1135121Y1260384D01*
X1135305Y1260461D01*
X1144004D01*
X1144187Y1260384D01*
D02*
G37*
G36*
X788187Y1270084D02*
X788328Y1269944D01*
X788404Y1269760D01*
Y1260861D01*
X788328Y1260677D01*
X788187Y1260537D01*
X788003Y1260461D01*
X779305D01*
X779121Y1260537D01*
X778980Y1260677D01*
X778904Y1260861D01*
Y1269760D01*
X778980Y1269944D01*
X779121Y1270084D01*
X779305Y1270161D01*
X788003D01*
X788187Y1270084D01*
D02*
G37*
D10*
X680154Y570032D02*
D03*
Y554032D02*
D03*
X697154Y570032D02*
D03*
Y554032D02*
D03*
X810154Y591032D02*
D03*
Y575032D02*
D03*
X793154Y575032D02*
D03*
Y591032D02*
D03*
X649154Y897032D02*
D03*
Y881032D02*
D03*
X847804Y894032D02*
D03*
Y910032D02*
D03*
X697154Y732032D02*
D03*
Y716032D02*
D03*
X809154Y613032D02*
D03*
Y629032D02*
D03*
X793154Y613032D02*
D03*
Y629032D02*
D03*
X864154Y538032D02*
D03*
Y522032D02*
D03*
X714154Y716032D02*
D03*
Y732032D02*
D03*
X1124154Y910032D02*
D03*
Y894032D02*
D03*
X1149154Y910032D02*
D03*
Y894032D02*
D03*
X849154Y522032D02*
D03*
Y538032D02*
D03*
X816154Y522032D02*
D03*
Y538032D02*
D03*
X785154Y522032D02*
D03*
Y538032D02*
D03*
X833154Y522032D02*
D03*
Y538032D02*
D03*
X800154Y522032D02*
D03*
Y538032D02*
D03*
X873654Y910032D02*
D03*
Y894032D02*
D03*
X769154Y522032D02*
D03*
Y538032D02*
D03*
X686154Y897032D02*
D03*
Y881032D02*
D03*
X634154Y897032D02*
D03*
Y881032D02*
D03*
X665154Y897032D02*
D03*
Y881032D02*
D03*
X702154Y881032D02*
D03*
Y897032D02*
D03*
X1011204Y910032D02*
D03*
Y894032D02*
D03*
X985804Y910032D02*
D03*
Y894032D02*
D03*
X767904Y893089D02*
D03*
Y909089D02*
D03*
D11*
X907154Y650032D02*
D03*
D12*
X847154Y726032D02*
D03*
X852154D02*
D03*
X857154D02*
D03*
X862154D02*
D03*
X867154D02*
D03*
X872154D02*
D03*
X877154D02*
D03*
X882154D02*
D03*
X887154D02*
D03*
X892154D02*
D03*
X897154D02*
D03*
X902154D02*
D03*
X907154D02*
D03*
X912154D02*
D03*
X917154D02*
D03*
X922154D02*
D03*
X927154D02*
D03*
X932154D02*
D03*
X937154D02*
D03*
X942154D02*
D03*
X947154D02*
D03*
X952154D02*
D03*
X957154D02*
D03*
X962154D02*
D03*
X967154D02*
D03*
Y574032D02*
D03*
X962154D02*
D03*
X957154D02*
D03*
X952154D02*
D03*
X947154D02*
D03*
X942154D02*
D03*
X937154D02*
D03*
X932154D02*
D03*
X927154D02*
D03*
X922154D02*
D03*
X917154D02*
D03*
X912154D02*
D03*
X907154D02*
D03*
X902154D02*
D03*
X897154D02*
D03*
X892154D02*
D03*
X887154D02*
D03*
X882154D02*
D03*
X877154D02*
D03*
X872154D02*
D03*
X867154D02*
D03*
X862154D02*
D03*
X857154D02*
D03*
X852154D02*
D03*
X847154D02*
D03*
D13*
X983154Y710032D02*
D03*
Y705032D02*
D03*
Y700032D02*
D03*
Y695032D02*
D03*
Y690032D02*
D03*
Y685032D02*
D03*
Y680032D02*
D03*
Y675032D02*
D03*
Y670032D02*
D03*
Y665032D02*
D03*
Y660032D02*
D03*
Y655032D02*
D03*
Y650032D02*
D03*
Y645032D02*
D03*
Y640032D02*
D03*
Y635032D02*
D03*
Y630032D02*
D03*
Y625032D02*
D03*
Y620032D02*
D03*
Y615032D02*
D03*
Y610032D02*
D03*
Y605032D02*
D03*
Y600032D02*
D03*
Y595032D02*
D03*
Y590032D02*
D03*
X831154D02*
D03*
Y595032D02*
D03*
Y600032D02*
D03*
Y605032D02*
D03*
Y610032D02*
D03*
Y615032D02*
D03*
Y620032D02*
D03*
Y625032D02*
D03*
Y630032D02*
D03*
Y635032D02*
D03*
Y640032D02*
D03*
Y645032D02*
D03*
Y650032D02*
D03*
Y655032D02*
D03*
Y660032D02*
D03*
Y665032D02*
D03*
Y670032D02*
D03*
Y675032D02*
D03*
Y680032D02*
D03*
Y685032D02*
D03*
Y690032D02*
D03*
Y695032D02*
D03*
Y700032D02*
D03*
Y705032D02*
D03*
Y710032D02*
D03*
D14*
X595654Y818032D02*
D03*
X624654D02*
D03*
D15*
X596154Y878032D02*
D03*
X612154D02*
D03*
X616154Y619032D02*
D03*
X632154D02*
D03*
X953154Y826032D02*
D03*
X937154D02*
D03*
X1091154D02*
D03*
X1075154D02*
D03*
X1024154Y671032D02*
D03*
X1008154D02*
D03*
X1179154Y592282D02*
D03*
X1195154D02*
D03*
X1008154Y611032D02*
D03*
X1024154D02*
D03*
X1067154Y654032D02*
D03*
X1083154D02*
D03*
X1067154Y713032D02*
D03*
X1083154D02*
D03*
X650154Y692032D02*
D03*
X634154D02*
D03*
X634154Y709032D02*
D03*
X650154D02*
D03*
X684154Y692032D02*
D03*
X668154D02*
D03*
X649154Y619032D02*
D03*
X665154D02*
D03*
X1100154Y902032D02*
D03*
X1084154D02*
D03*
X894154Y841032D02*
D03*
X910154D02*
D03*
X1033154D02*
D03*
X1049154D02*
D03*
X1171154D02*
D03*
X1187154D02*
D03*
X962154Y902032D02*
D03*
X946154D02*
D03*
X1083154Y683032D02*
D03*
X1067154D02*
D03*
X1148744Y643032D02*
D03*
X1132744D02*
D03*
X662654Y567982D02*
D03*
X646654D02*
D03*
X612154Y843032D02*
D03*
X596154D02*
D03*
X596154Y859032D02*
D03*
X612154D02*
D03*
X1187154Y824032D02*
D03*
X1171154D02*
D03*
X1049154D02*
D03*
X1033154D02*
D03*
X910154D02*
D03*
X894154D02*
D03*
X800154Y826032D02*
D03*
X816154D02*
D03*
X823154Y902032D02*
D03*
X807154D02*
D03*
X1067154Y639032D02*
D03*
X1083154D02*
D03*
X1083154Y729032D02*
D03*
X1067154D02*
D03*
X1067154Y668032D02*
D03*
X1083154D02*
D03*
X1067154Y698032D02*
D03*
X1083154D02*
D03*
D16*
X884154Y1073532D02*
D03*
Y1102532D02*
D03*
X1028154Y1073532D02*
D03*
Y1102532D02*
D03*
X1169154Y1073532D02*
D03*
Y1102532D02*
D03*
X884154Y1123532D02*
D03*
Y1152532D02*
D03*
X1028154Y1123532D02*
D03*
Y1152532D02*
D03*
X1169154Y1123532D02*
D03*
Y1152532D02*
D03*
Y1052532D02*
D03*
Y1023532D02*
D03*
Y1221532D02*
D03*
Y1192532D02*
D03*
X1028154Y1052532D02*
D03*
Y1023532D02*
D03*
Y1221532D02*
D03*
Y1192532D02*
D03*
X884154Y1052532D02*
D03*
Y1023532D02*
D03*
Y1221532D02*
D03*
Y1192532D02*
D03*
D17*
X1079754Y1170032D02*
D03*
X1130554D02*
D03*
X936754Y1169032D02*
D03*
X987554D02*
D03*
X1079754Y956032D02*
D03*
X1130554D02*
D03*
X935754D02*
D03*
X986554D02*
D03*
X791754D02*
D03*
X842554D02*
D03*
X843554Y1168032D02*
D03*
X792754D02*
D03*
D19*
X616154Y709032D02*
D03*
X592154Y699532D02*
D03*
Y718532D02*
D03*
D20*
X639154Y662532D02*
D03*
Y653032D02*
D03*
Y643532D02*
D03*
X613154Y662532D02*
D03*
Y643532D02*
D03*
D21*
X747654Y834032D02*
D03*
X708654D02*
D03*
D22*
X662654Y584032D02*
D03*
X637654D02*
D03*
X656654Y732032D02*
D03*
X631654D02*
D03*
D23*
X689654Y653032D02*
D03*
X660654D02*
D03*
D24*
X666754Y554032D02*
D03*
X653554D02*
D03*
X710554D02*
D03*
X723754D02*
D03*
D25*
X1090154Y559532D02*
D03*
Y584532D02*
D03*
D26*
X1159794Y620532D02*
D03*
X1147094D02*
D03*
X1134394D02*
D03*
X1121694D02*
D03*
X1159794Y573532D02*
D03*
X1147094D02*
D03*
X1134394D02*
D03*
X1121694D02*
D03*
X835104Y825532D02*
D03*
X847804D02*
D03*
X860504D02*
D03*
X873204D02*
D03*
X835104Y872532D02*
D03*
X847804D02*
D03*
X860504D02*
D03*
X873204D02*
D03*
X973104Y825532D02*
D03*
X985804D02*
D03*
X998504D02*
D03*
X1011204D02*
D03*
X973104Y872532D02*
D03*
X985804D02*
D03*
X998504D02*
D03*
X1011204D02*
D03*
X1111104Y825532D02*
D03*
X1123804D02*
D03*
X1136504D02*
D03*
X1149204D02*
D03*
X1111104Y872532D02*
D03*
X1123804D02*
D03*
X1136504D02*
D03*
X1149204D02*
D03*
D27*
X796654Y646532D02*
D03*
Y709532D02*
D03*
X805654D02*
D03*
Y646532D02*
D03*
D28*
X1008154Y652032D02*
D03*
Y630032D02*
D03*
X1024154D02*
D03*
Y652032D02*
D03*
D29*
X700154Y497032D02*
D03*
X677154D02*
D03*
D30*
X726154D02*
D03*
X651154D02*
D03*
D31*
X675654Y525532D02*
D03*
X701654D02*
D03*
X688654D02*
D03*
X695154D02*
D03*
X682154D02*
D03*
D32*
X678154Y713032D02*
D03*
Y729032D02*
D03*
D33*
X673125Y844282D02*
D03*
Y850782D02*
D03*
Y857282D02*
D03*
Y863782D02*
D03*
X633154D02*
D03*
Y857282D02*
D03*
Y850782D02*
D03*
Y844282D02*
D03*
D34*
X647404Y818032D02*
D03*
D35*
X672904D02*
D03*
D36*
X801654Y843032D02*
D03*
X816654D02*
D03*
X1076654D02*
D03*
X1091654D02*
D03*
X953654D02*
D03*
X938654D02*
D03*
D37*
X1084154Y882192D02*
D03*
Y861872D02*
D03*
X946154Y882192D02*
D03*
Y861872D02*
D03*
X809154Y882192D02*
D03*
Y861872D02*
D03*
X593154Y662192D02*
D03*
Y641872D02*
D03*
X741154Y652192D02*
D03*
Y631872D02*
D03*
X717154Y652192D02*
D03*
Y631872D02*
D03*
D38*
X748154Y875532D02*
D03*
Y908532D02*
D03*
M02*
