%FSLAX44Y44*%
%MOMM*%
G71*
G01*
G75*
%ADD10R,0.9500X1.0000*%
%ADD11R,7.0000X7.0000*%
%ADD12O,0.3000X1.6500*%
%ADD13O,1.6500X0.3000*%
%ADD14R,1.3000X1.8500*%
%ADD15R,1.0000X0.9500*%
%ADD16R,1.8500X1.3000*%
G04:AMPARAMS|DCode=17|XSize=1.05mm|YSize=3.82mm|CornerRadius=0.0525mm|HoleSize=0mm|Usage=FLASHONLY|Rotation=180.000|XOffset=0mm|YOffset=0mm|HoleType=Round|Shape=RoundedRectangle|*
%AMROUNDEDRECTD17*
21,1,1.0500,3.7150,0,0,180.0*
21,1,0.9450,3.8200,0,0,180.0*
1,1,0.1050,-0.4725,1.8575*
1,1,0.1050,0.4725,1.8575*
1,1,0.1050,0.4725,-1.8575*
1,1,0.1050,-0.4725,-1.8575*
%
%ADD17ROUNDEDRECTD17*%
G04:AMPARAMS|DCode=18|XSize=7.48mm|YSize=8.55mm|CornerRadius=0.0374mm|HoleSize=0mm|Usage=FLASHONLY|Rotation=90.000|XOffset=0mm|YOffset=0mm|HoleType=Round|Shape=RoundedRectangle|*
%AMROUNDEDRECTD18*
21,1,7.4800,8.4752,0,0,90.0*
21,1,7.4052,8.5500,0,0,90.0*
1,1,0.0748,4.2376,3.7026*
1,1,0.0748,4.2376,-3.7026*
1,1,0.0748,-4.2376,-3.7026*
1,1,0.0748,-4.2376,3.7026*
%
%ADD18ROUNDEDRECTD18*%
G04:AMPARAMS|DCode=19|XSize=0.6mm|YSize=1mm|CornerRadius=0.15mm|HoleSize=0mm|Usage=FLASHONLY|Rotation=90.000|XOffset=0mm|YOffset=0mm|HoleType=Round|Shape=RoundedRectangle|*
%AMROUNDEDRECTD19*
21,1,0.6000,0.7000,0,0,90.0*
21,1,0.3000,1.0000,0,0,90.0*
1,1,0.3000,0.3500,0.1500*
1,1,0.3000,0.3500,-0.1500*
1,1,0.3000,-0.3500,-0.1500*
1,1,0.3000,-0.3500,0.1500*
%
%ADD19ROUNDEDRECTD19*%
%ADD20R,1.0000X0.6000*%
%ADD21R,2.1000X5.8000*%
%ADD22R,0.8000X0.6000*%
%ADD23R,1.6000X3.9000*%
%ADD24R,0.5000X0.6000*%
%ADD25R,0.6000X0.8000*%
%ADD26O,0.6000X1.9000*%
%ADD27R,0.6000X1.2000*%
%ADD28R,1.1500X1.4000*%
%ADD29R,1.8000X1.9000*%
%ADD30R,2.3000X1.9000*%
%ADD31R,0.4000X1.4000*%
%ADD32R,0.8000X0.8000*%
%ADD33R,1.0000X0.4000*%
%ADD34R,0.9000X1.4000*%
%ADD35R,2.2000X1.4000*%
%ADD36R,0.6500X0.4000*%
%ADD37R,1.6002X1.2700*%
%ADD38R,2.2000X1.1000*%
%ADD39C,1.2000*%
%ADD40C,0.2500*%
%ADD41C,0.2540*%
%ADD42C,0.5000*%
%ADD43C,0.4000*%
%ADD44C,1.0160*%
%ADD45C,1.1000*%
%ADD46C,0.8000*%
%ADD47C,0.7500*%
%ADD48C,0.7620*%
%ADD49C,1.0000*%
%ADD50C,0.6000*%
%ADD51C,0.2032*%
%ADD52C,0.3500*%
%ADD53C,2.0000*%
%ADD54C,1.5000*%
%ADD55R,1.5000X1.5000*%
%ADD56R,1.5500X1.5500*%
%ADD57C,1.5500*%
G04:AMPARAMS|DCode=58|XSize=1.55mm|YSize=1.55mm|CornerRadius=0.0465mm|HoleSize=0mm|Usage=FLASHONLY|Rotation=180.000|XOffset=0mm|YOffset=0mm|HoleType=Round|Shape=RoundedRectangle|*
%AMROUNDEDRECTD58*
21,1,1.5500,1.4570,0,0,180.0*
21,1,1.4570,1.5500,0,0,180.0*
1,1,0.0930,-0.7285,0.7285*
1,1,0.0930,0.7285,0.7285*
1,1,0.0930,0.7285,-0.7285*
1,1,0.0930,-0.7285,-0.7285*
%
%ADD58ROUNDEDRECTD58*%
%ADD59R,1.5000X1.5000*%
%ADD60R,0.7000X0.7000*%
%ADD61C,0.7000*%
%ADD62C,0.6000*%
%ADD63C,5.0000*%
%ADD64R,2.1590X2.7430*%
G04:AMPARAMS|DCode=65|XSize=3.1mm|YSize=4mm|CornerRadius=0.0465mm|HoleSize=0mm|Usage=FLASHONLY|Rotation=0.000|XOffset=0mm|YOffset=0mm|HoleType=Round|Shape=RoundedRectangle|*
%AMROUNDEDRECTD65*
21,1,3.1000,3.9070,0,0,0.0*
21,1,3.0070,4.0000,0,0,0.0*
1,1,0.0930,1.5035,-1.9535*
1,1,0.0930,-1.5035,-1.9535*
1,1,0.0930,-1.5035,1.9535*
1,1,0.0930,1.5035,1.9535*
%
%ADD65ROUNDEDRECTD65*%
G04:AMPARAMS|DCode=66|XSize=0.6mm|YSize=1mm|CornerRadius=0.051mm|HoleSize=0mm|Usage=FLASHONLY|Rotation=180.000|XOffset=0mm|YOffset=0mm|HoleType=Round|Shape=RoundedRectangle|*
%AMROUNDEDRECTD66*
21,1,0.6000,0.8980,0,0,180.0*
21,1,0.4980,1.0000,0,0,180.0*
1,1,0.1020,-0.2490,0.4490*
1,1,0.1020,0.2490,0.4490*
1,1,0.1020,0.2490,-0.4490*
1,1,0.1020,-0.2490,-0.4490*
%
%ADD66ROUNDEDRECTD66*%
%ADD67R,0.6000X1.0000*%
%ADD68R,1.2000X1.0000*%
%ADD69R,1.2000X0.7000*%
%ADD70R,0.8000X1.0000*%
%ADD71R,2.8000X1.0000*%
%ADD72R,1.9000X1.3000*%
%ADD73C,0.2000*%
%ADD74C,0.1000*%
%ADD75C,0.1524*%
%ADD76C,0.2000*%
%ADD77C,0.1778*%
%ADD78C,0.3556*%
%ADD79C,0.1016*%
%ADD80R,0.8000X0.3000*%
%ADD81R,0.8250X0.2000*%
%ADD82R,1.6000X0.5000*%
%ADD83R,0.5080X2.1844*%
G36*
X1150677Y721334D02*
X1150931D01*
Y721080D01*
X1151185D01*
Y720826D01*
Y720572D01*
X1150931D01*
Y720318D01*
Y720064D01*
X1150677D01*
Y719810D01*
X1150423D01*
Y719556D01*
Y719302D01*
Y719048D01*
X1150169D01*
Y718794D01*
Y718540D01*
Y718286D01*
X1149915D01*
Y718032D01*
Y717778D01*
Y717524D01*
Y717270D01*
Y717016D01*
Y716762D01*
Y716508D01*
Y716254D01*
Y716000D01*
Y715746D01*
Y715492D01*
Y715238D01*
Y714984D01*
X1150169D01*
Y714730D01*
Y714476D01*
Y714222D01*
X1150423D01*
Y713968D01*
Y713714D01*
Y713460D01*
X1150677D01*
Y713206D01*
Y712952D01*
X1150931D01*
Y712698D01*
Y712444D01*
X1151185D01*
Y712190D01*
Y711936D01*
X1151439D01*
Y711682D01*
Y711428D01*
X1151693D01*
Y711174D01*
Y710920D01*
X1151947D01*
Y710666D01*
Y710412D01*
Y710158D01*
X1152201D01*
Y709904D01*
Y709650D01*
X1152455D01*
Y709396D01*
Y709142D01*
Y708888D01*
X1152709D01*
Y708634D01*
Y708380D01*
Y708126D01*
X1152963D01*
Y707872D01*
Y707618D01*
Y707364D01*
Y707110D01*
Y706856D01*
Y706602D01*
Y706348D01*
Y706094D01*
Y705840D01*
Y705586D01*
Y705332D01*
Y705078D01*
Y704824D01*
Y704570D01*
X1152709D01*
Y704316D01*
Y704062D01*
Y703808D01*
Y703554D01*
X1152455D01*
Y703300D01*
Y703046D01*
X1152201D01*
Y702792D01*
Y702538D01*
X1151947D01*
Y702284D01*
Y702030D01*
X1151693D01*
Y701776D01*
X1151058D01*
Y701522D01*
X1150296D01*
Y701776D01*
X1150042D01*
Y702030D01*
X1150296D01*
Y702284D01*
Y702538D01*
X1150550D01*
Y702792D01*
Y703046D01*
X1150804D01*
Y703300D01*
Y703554D01*
X1151058D01*
Y703808D01*
Y704062D01*
Y704316D01*
X1151312D01*
Y704570D01*
Y704824D01*
Y705078D01*
Y705332D01*
Y705586D01*
Y705840D01*
Y706094D01*
Y706348D01*
Y706602D01*
Y706856D01*
Y707110D01*
Y707364D01*
Y707618D01*
Y707872D01*
X1151058D01*
Y708126D01*
Y708380D01*
Y708634D01*
X1150804D01*
Y708888D01*
Y709142D01*
Y709396D01*
X1150550D01*
Y709650D01*
Y709904D01*
X1150296D01*
Y710158D01*
Y710412D01*
X1150042D01*
Y710666D01*
Y710920D01*
X1149788D01*
Y711174D01*
Y711428D01*
X1149534D01*
Y711682D01*
Y711936D01*
X1149280D01*
Y712190D01*
Y712444D01*
Y712698D01*
X1149026D01*
Y712952D01*
Y713206D01*
X1148772D01*
Y713460D01*
Y713714D01*
Y713968D01*
X1148518D01*
Y714222D01*
Y714476D01*
Y714730D01*
Y714984D01*
X1148264D01*
Y715238D01*
Y715492D01*
Y715746D01*
Y716000D01*
Y716254D01*
Y716508D01*
Y716762D01*
Y717016D01*
Y717270D01*
Y717524D01*
Y717778D01*
Y718032D01*
X1148518D01*
Y718286D01*
Y718540D01*
Y718794D01*
Y719048D01*
X1148772D01*
Y719302D01*
Y719556D01*
X1149026D01*
Y719810D01*
Y720064D01*
X1149280D01*
Y720318D01*
Y720572D01*
X1149534D01*
Y720826D01*
X1149788D01*
Y721080D01*
Y721334D01*
X1150042D01*
Y721080D01*
X1150423D01*
Y721334D01*
Y721588D01*
X1150677D01*
Y721334D01*
D02*
G37*
G36*
X1169854Y697966D02*
X1144454D01*
Y699744D01*
X1169854D01*
Y697966D01*
D02*
G37*
G36*
X1163377Y721334D02*
X1163631D01*
Y721080D01*
X1163885D01*
Y720826D01*
Y720572D01*
X1163631D01*
Y720318D01*
Y720064D01*
X1163377D01*
Y719810D01*
X1163123D01*
Y719556D01*
Y719302D01*
Y719048D01*
X1162869D01*
Y718794D01*
Y718540D01*
Y718286D01*
X1162615D01*
Y718032D01*
Y717778D01*
Y717524D01*
Y717270D01*
Y717016D01*
Y716762D01*
Y716508D01*
Y716254D01*
Y716000D01*
Y715746D01*
Y715492D01*
Y715238D01*
Y714984D01*
X1162869D01*
Y714730D01*
Y714476D01*
Y714222D01*
X1163123D01*
Y713968D01*
Y713714D01*
Y713460D01*
X1163377D01*
Y713206D01*
Y712952D01*
X1163631D01*
Y712698D01*
Y712444D01*
X1163885D01*
Y712190D01*
Y711936D01*
X1164139D01*
Y711682D01*
Y711428D01*
X1164393D01*
Y711174D01*
Y710920D01*
X1164647D01*
Y710666D01*
Y710412D01*
Y710158D01*
X1164901D01*
Y709904D01*
Y709650D01*
X1165155D01*
Y709396D01*
Y709142D01*
Y708888D01*
X1165409D01*
Y708634D01*
Y708380D01*
Y708126D01*
X1165663D01*
Y707872D01*
Y707618D01*
Y707364D01*
Y707110D01*
Y706856D01*
Y706602D01*
Y706348D01*
Y706094D01*
Y705840D01*
Y705586D01*
Y705332D01*
Y705078D01*
Y704824D01*
Y704570D01*
X1165409D01*
Y704316D01*
Y704062D01*
Y703808D01*
Y703554D01*
X1165155D01*
Y703300D01*
Y703046D01*
X1164901D01*
Y702792D01*
Y702538D01*
X1164647D01*
Y702284D01*
Y702030D01*
X1164393D01*
Y701776D01*
X1163758D01*
Y701522D01*
X1162996D01*
Y701776D01*
X1162742D01*
Y702030D01*
X1162996D01*
Y702284D01*
Y702538D01*
X1163250D01*
Y702792D01*
Y703046D01*
X1163504D01*
Y703300D01*
Y703554D01*
X1163758D01*
Y703808D01*
Y704062D01*
Y704316D01*
X1164012D01*
Y704570D01*
Y704824D01*
Y705078D01*
Y705332D01*
Y705586D01*
Y705840D01*
Y706094D01*
Y706348D01*
Y706602D01*
Y706856D01*
Y707110D01*
Y707364D01*
Y707618D01*
Y707872D01*
X1163758D01*
Y708126D01*
Y708380D01*
Y708634D01*
X1163504D01*
Y708888D01*
Y709142D01*
Y709396D01*
X1163250D01*
Y709650D01*
Y709904D01*
X1162996D01*
Y710158D01*
Y710412D01*
X1162742D01*
Y710666D01*
Y710920D01*
X1162488D01*
Y711174D01*
Y711428D01*
X1162234D01*
Y711682D01*
Y711936D01*
X1161980D01*
Y712190D01*
Y712444D01*
Y712698D01*
X1161726D01*
Y712952D01*
Y713206D01*
X1161472D01*
Y713460D01*
Y713714D01*
Y713968D01*
X1161218D01*
Y714222D01*
Y714476D01*
Y714730D01*
Y714984D01*
X1160964D01*
Y715238D01*
Y715492D01*
Y715746D01*
Y716000D01*
Y716254D01*
Y716508D01*
Y716762D01*
Y717016D01*
Y717270D01*
Y717524D01*
Y717778D01*
Y718032D01*
X1161218D01*
Y718286D01*
Y718540D01*
Y718794D01*
Y719048D01*
X1161472D01*
Y719302D01*
Y719556D01*
X1161726D01*
Y719810D01*
Y720064D01*
X1161980D01*
Y720318D01*
Y720572D01*
X1162234D01*
Y720826D01*
X1162488D01*
Y721080D01*
Y721334D01*
X1162742D01*
Y721080D01*
X1163123D01*
Y721334D01*
Y721588D01*
X1163377D01*
Y721334D01*
D02*
G37*
G36*
X1157027D02*
X1157281D01*
Y721080D01*
X1157535D01*
Y720826D01*
Y720572D01*
X1157281D01*
Y720318D01*
Y720064D01*
X1157027D01*
Y719810D01*
X1156773D01*
Y719556D01*
Y719302D01*
Y719048D01*
X1156519D01*
Y718794D01*
Y718540D01*
Y718286D01*
X1156265D01*
Y718032D01*
Y717778D01*
Y717524D01*
Y717270D01*
Y717016D01*
Y716762D01*
Y716508D01*
Y716254D01*
Y716000D01*
Y715746D01*
Y715492D01*
Y715238D01*
Y714984D01*
X1156519D01*
Y714730D01*
Y714476D01*
Y714222D01*
X1156773D01*
Y713968D01*
Y713714D01*
Y713460D01*
X1157027D01*
Y713206D01*
Y712952D01*
X1157281D01*
Y712698D01*
Y712444D01*
X1157535D01*
Y712190D01*
Y711936D01*
X1157789D01*
Y711682D01*
Y711428D01*
X1158043D01*
Y711174D01*
Y710920D01*
X1158297D01*
Y710666D01*
Y710412D01*
Y710158D01*
X1158551D01*
Y709904D01*
Y709650D01*
X1158805D01*
Y709396D01*
Y709142D01*
Y708888D01*
X1159059D01*
Y708634D01*
Y708380D01*
Y708126D01*
X1159313D01*
Y707872D01*
Y707618D01*
Y707364D01*
Y707110D01*
Y706856D01*
Y706602D01*
Y706348D01*
Y706094D01*
Y705840D01*
Y705586D01*
Y705332D01*
Y705078D01*
Y704824D01*
Y704570D01*
X1159059D01*
Y704316D01*
Y704062D01*
Y703808D01*
Y703554D01*
X1158805D01*
Y703300D01*
Y703046D01*
X1158551D01*
Y702792D01*
Y702538D01*
X1158297D01*
Y702284D01*
Y702030D01*
X1158043D01*
Y701776D01*
X1157408D01*
Y701522D01*
X1156646D01*
Y701776D01*
X1156392D01*
Y702030D01*
X1156646D01*
Y702284D01*
Y702538D01*
X1156900D01*
Y702792D01*
Y703046D01*
X1157154D01*
Y703300D01*
Y703554D01*
X1157408D01*
Y703808D01*
Y704062D01*
Y704316D01*
X1157662D01*
Y704570D01*
Y704824D01*
Y705078D01*
Y705332D01*
Y705586D01*
Y705840D01*
Y706094D01*
Y706348D01*
Y706602D01*
Y706856D01*
Y707110D01*
Y707364D01*
Y707618D01*
Y707872D01*
X1157408D01*
Y708126D01*
Y708380D01*
Y708634D01*
X1157154D01*
Y708888D01*
Y709142D01*
Y709396D01*
X1156900D01*
Y709650D01*
Y709904D01*
X1156646D01*
Y710158D01*
Y710412D01*
X1156392D01*
Y710666D01*
Y710920D01*
X1156138D01*
Y711174D01*
Y711428D01*
X1155884D01*
Y711682D01*
Y711936D01*
X1155630D01*
Y712190D01*
Y712444D01*
Y712698D01*
X1155376D01*
Y712952D01*
Y713206D01*
X1155122D01*
Y713460D01*
Y713714D01*
Y713968D01*
X1154868D01*
Y714222D01*
Y714476D01*
Y714730D01*
Y714984D01*
X1154614D01*
Y715238D01*
Y715492D01*
Y715746D01*
Y716000D01*
Y716254D01*
Y716508D01*
Y716762D01*
Y717016D01*
Y717270D01*
Y717524D01*
Y717778D01*
Y718032D01*
X1154868D01*
Y718286D01*
Y718540D01*
Y718794D01*
Y719048D01*
X1155122D01*
Y719302D01*
Y719556D01*
X1155376D01*
Y719810D01*
Y720064D01*
X1155630D01*
Y720318D01*
Y720572D01*
X1155884D01*
Y720826D01*
X1156138D01*
Y721080D01*
Y721334D01*
X1156392D01*
Y721080D01*
X1156773D01*
Y721334D01*
Y721588D01*
X1157027D01*
Y721334D01*
D02*
G37*
D40*
X832404Y717032D02*
G03*
X832404Y717032I-1250J0D01*
G01*
X1169544Y620532D02*
G03*
X1169544Y620532I-1250J0D01*
G01*
X764264Y618812D02*
G03*
X764264Y618812I-1250J0D01*
G01*
X827854Y825532D02*
G03*
X827854Y825532I-1250J0D01*
G01*
X965854D02*
G03*
X965854Y825532I-1250J0D01*
G01*
X1104154D02*
G03*
X1104154Y825532I-1250J0D01*
G01*
X751656Y524178D02*
X755154Y528032D01*
X746695Y526282D02*
X751656Y524178D01*
X738297Y581676D02*
X751656Y524178D01*
D41*
X651154Y509032D02*
Y526532D01*
X670654D01*
X706654D02*
X726154D01*
Y509532D02*
Y526532D01*
X651154Y476032D02*
X726154D01*
X779504Y588332D02*
Y613732D01*
X766550D02*
X779504D01*
X766550Y588332D02*
X779504D01*
X766550D02*
Y613732D01*
X761566Y1217238D02*
X751409D01*
X756488Y1212160D02*
Y1222317D01*
X760804Y1038397D02*
X750647D01*
X755726Y1033318D02*
Y1043475D01*
D50*
X856404Y703782D02*
G03*
X856404Y703782I-3000J0D01*
G01*
D73*
X747654Y1228032D02*
G03*
X747654Y1228032I-82500J0D01*
G01*
Y1055032D02*
G03*
X747654Y1055032I-82500J0D01*
G01*
X628154Y641532D02*
G03*
X624154Y641532I-2000J0D01*
G01*
X572154Y757032D02*
X1212154D01*
X687454Y764332D02*
Y789732D01*
X814454D01*
X687454Y764332D02*
X814454D01*
Y789732D01*
X843404Y586282D02*
X970904D01*
X843404Y713782D02*
X970904D01*
Y586282D02*
Y713782D01*
X843404Y586282D02*
Y713782D01*
X1001354Y506032D02*
Y531432D01*
X1102954Y506032D02*
Y531432D01*
X1001354D02*
X1102954D01*
X1001354Y480632D02*
X1102954D01*
Y506032D01*
X1001354Y480632D02*
Y506032D01*
X611154Y694032D02*
Y702032D01*
X606154Y694032D02*
X611154D01*
Y716032D02*
Y724032D01*
X606154D02*
X611154D01*
X621654Y641532D02*
Y664532D01*
X630654D01*
Y641532D02*
Y664532D01*
X621654Y641532D02*
X624154D01*
X628154D02*
X630654D01*
X641654Y578032D02*
X658654D01*
X641654Y590032D02*
X658654D01*
X671154Y673032D02*
X679154D01*
X671154Y633032D02*
X679154D01*
X1084154Y563532D02*
Y580532D01*
X1096154Y563532D02*
Y580532D01*
X635654Y726032D02*
X652654D01*
X635654Y738032D02*
X652654D01*
X757454Y483332D02*
Y508732D01*
X884454D01*
X757454Y483332D02*
X884454D01*
Y508732D01*
X1110744Y551032D02*
X1168744D01*
X1110744Y475032D02*
Y551032D01*
Y475032D02*
X1168744D01*
Y551032D01*
X1115744Y607032D02*
X1165744D01*
X1115744Y587032D02*
X1165744D01*
Y607032D01*
X1115744Y587032D02*
Y607032D01*
X1182454Y481332D02*
X1207854D01*
X1182454D02*
Y582932D01*
X1207854Y481332D02*
Y582932D01*
X1182454D02*
X1207854D01*
X770614Y588332D02*
X770614Y588332D01*
X775694Y613732D02*
X775694Y613732D01*
X685154Y709032D02*
Y737032D01*
X671154Y709032D02*
Y737032D01*
X829154Y839032D02*
X879154D01*
X829154Y859032D02*
X879154D01*
X829154Y839032D02*
Y859032D01*
X879154Y839032D02*
Y859032D01*
X967154Y839032D02*
X1017154D01*
X967154Y859032D02*
X1017154D01*
X967154Y839032D02*
Y859032D01*
X1017154Y839032D02*
Y859032D01*
X1105154Y839032D02*
X1155154D01*
X1105154Y859032D02*
X1155154D01*
X1105154Y839032D02*
Y859032D01*
X1155154Y839032D02*
Y859032D01*
X734154Y883678D02*
Y900386D01*
X762154Y883678D02*
Y900386D01*
X816454Y780332D02*
X892654D01*
Y805732D01*
X816454D02*
X892654D01*
X816454Y780332D02*
Y805732D01*
X952454Y780332D02*
X1028654D01*
Y805732D01*
X952454D02*
X1028654D01*
X952454Y780332D02*
Y805732D01*
X1092454Y780332D02*
X1168654D01*
Y805732D01*
X1092454D02*
X1168654D01*
X1092454Y780332D02*
Y805732D01*
X891354Y506032D02*
Y531432D01*
X992954Y506032D02*
Y531432D01*
X891354D02*
X992954D01*
X891354Y480632D02*
X992954D01*
Y506032D01*
X891354Y480632D02*
Y506032D01*
X1062154Y1144029D02*
Y1135698D01*
X1063820Y1134032D01*
X1067152D01*
X1068819Y1135698D01*
Y1144029D01*
X922154D02*
Y1137364D01*
X925486Y1134032D01*
X928819Y1137364D01*
Y1144029D01*
X765154D02*
Y1134032D01*
X768486Y1137364D01*
X771818Y1134032D01*
Y1144029D01*
D74*
X632874Y576928D02*
G03*
X632874Y576928I-500J0D01*
G01*
X1083550Y589812D02*
G03*
X1083550Y589812I-500J0D01*
G01*
X626874Y724928D02*
G03*
X626874Y724928I-500J0D01*
G01*
X819404Y838032D02*
G03*
X819404Y838032I-500J0D01*
G01*
X1094404D02*
G03*
X1094404Y838032I-500J0D01*
G01*
X956404D02*
G03*
X956404Y838032I-500J0D01*
G01*
X617197Y782636D02*
Y776638D01*
Y779638D01*
X621195D01*
Y782636D01*
Y776638D01*
X623195Y781637D02*
X624194Y782636D01*
X626194D01*
X627193Y781637D01*
Y780637D01*
X626194Y779638D01*
X625194D01*
X626194D01*
X627193Y778638D01*
Y777638D01*
X626194Y776638D01*
X624194D01*
X623195Y777638D01*
X827854Y731226D02*
Y725978D01*
X828904Y724928D01*
X831003D01*
X832053Y725978D01*
Y731226D01*
X834152Y724928D02*
X836251D01*
X835202D01*
Y731226D01*
X834152Y730176D01*
X791906Y868531D02*
X790906Y867531D01*
Y865532D01*
X791906Y864532D01*
X795904D01*
X796904Y865532D01*
Y867531D01*
X795904Y868531D01*
X790906Y874529D02*
Y870530D01*
X793905D01*
X792905Y872529D01*
Y873529D01*
X793905Y874529D01*
X795904D01*
X796904Y873529D01*
Y871530D01*
X795904Y870530D01*
X796904Y876528D02*
Y878527D01*
Y877528D01*
X790906D01*
X791906Y876528D01*
X595518Y908032D02*
Y914030D01*
X598517D01*
X599517Y913030D01*
Y911031D01*
X598517Y910031D01*
X595518D01*
X597517D02*
X599517Y908032D01*
X605515Y914030D02*
X603515Y913030D01*
X601516Y911031D01*
Y909032D01*
X602516Y908032D01*
X604515D01*
X605515Y909032D01*
Y910031D01*
X604515Y911031D01*
X601516D01*
X611513Y908032D02*
X607514D01*
X611513Y912031D01*
Y913030D01*
X610513Y914030D01*
X608514D01*
X607514Y913030D01*
X832454Y910668D02*
X838452D01*
Y907669D01*
X837452Y906669D01*
X835453D01*
X834453Y907669D01*
Y910668D01*
Y908669D02*
X832454Y906669D01*
X838452Y900671D02*
Y904670D01*
X835453D01*
X836453Y902671D01*
Y901671D01*
X835453Y900671D01*
X833454D01*
X832454Y901671D01*
Y903670D01*
X833454Y904670D01*
X837452Y898672D02*
X838452Y897672D01*
Y895673D01*
X837452Y894673D01*
X836453D01*
X835453Y895673D01*
X834453Y894673D01*
X833454D01*
X832454Y895673D01*
Y897672D01*
X833454Y898672D01*
X834453D01*
X835453Y897672D01*
X836453Y898672D01*
X837452D01*
X835453Y897672D02*
Y895673D01*
X590048Y615106D02*
Y621105D01*
X593047D01*
X594047Y620105D01*
Y618105D01*
X593047Y617106D01*
X590048D01*
X592048D02*
X594047Y615106D01*
X596046Y620105D02*
X597046Y621105D01*
X599045D01*
X600045Y620105D01*
Y619105D01*
X599045Y618105D01*
X598046D01*
X599045D01*
X600045Y617106D01*
Y616106D01*
X599045Y615106D01*
X597046D01*
X596046Y616106D01*
X606043Y621105D02*
X602044D01*
Y618105D01*
X604044Y619105D01*
X605043D01*
X606043Y618105D01*
Y616106D01*
X605043Y615106D01*
X603044D01*
X602044Y616106D01*
X1102954Y563030D02*
X1106953Y557032D01*
Y563030D02*
X1102954Y557032D01*
X1108952Y562030D02*
X1109952Y563030D01*
X1111951D01*
X1112951Y562030D01*
Y561031D01*
X1111951Y560031D01*
X1110951D01*
X1111951D01*
X1112951Y559031D01*
Y558032D01*
X1111951Y557032D01*
X1109952D01*
X1108952Y558032D01*
X928906Y868031D02*
X927906Y867031D01*
Y865032D01*
X928906Y864032D01*
X932904D01*
X933904Y865032D01*
Y867031D01*
X932904Y868031D01*
X933904Y873029D02*
X927906D01*
X930905Y870030D01*
Y874029D01*
X932904Y876028D02*
X933904Y877028D01*
Y879027D01*
X932904Y880027D01*
X928906D01*
X927906Y879027D01*
Y877028D01*
X928906Y876028D01*
X929905D01*
X930905Y877028D01*
Y880027D01*
X1077993Y815030D02*
X1076993Y816030D01*
X1074994D01*
X1073994Y815030D01*
Y811032D01*
X1074994Y810032D01*
X1076993D01*
X1077993Y811032D01*
X1082991Y810032D02*
Y816030D01*
X1079992Y813031D01*
X1083991D01*
X1085990Y815030D02*
X1086990Y816030D01*
X1088989D01*
X1089989Y815030D01*
Y814031D01*
X1088989Y813031D01*
X1089989Y812031D01*
Y811032D01*
X1088989Y810032D01*
X1086990D01*
X1085990Y811032D01*
Y812031D01*
X1086990Y813031D01*
X1085990Y814031D01*
Y815030D01*
X1086990Y813031D02*
X1088989D01*
X1066906Y868031D02*
X1065906Y867031D01*
Y865032D01*
X1066906Y864032D01*
X1070904D01*
X1071904Y865032D01*
Y867031D01*
X1070904Y868031D01*
X1071904Y873029D02*
X1065906D01*
X1068905Y870030D01*
Y874029D01*
X1065906Y876028D02*
Y880027D01*
X1066906D01*
X1070904Y876028D01*
X1071904D01*
X1092518Y695032D02*
Y701030D01*
X1095517D01*
X1096517Y700030D01*
Y698031D01*
X1095517Y697031D01*
X1092518D01*
X1094517D02*
X1096517Y695032D01*
X1098516D02*
X1100515D01*
X1099516D01*
Y701030D01*
X1098516Y700030D01*
X1103514D02*
X1104514Y701030D01*
X1106514D01*
X1107513Y700030D01*
Y696032D01*
X1106514Y695032D01*
X1104514D01*
X1103514Y696032D01*
Y700030D01*
X1093154Y665332D02*
Y671330D01*
X1096153D01*
X1097153Y670330D01*
Y668331D01*
X1096153Y667331D01*
X1093154D01*
X1095153D02*
X1097153Y665332D01*
X1103151Y671330D02*
X1101151Y670330D01*
X1099152Y668331D01*
Y666332D01*
X1100152Y665332D01*
X1102151D01*
X1103151Y666332D01*
Y667331D01*
X1102151Y668331D01*
X1099152D01*
X1090648Y724939D02*
Y730937D01*
X1093647D01*
X1094647Y729938D01*
Y727938D01*
X1093647Y726939D01*
X1090648D01*
X1092647D02*
X1094647Y724939D01*
X1100645Y730937D02*
X1096646D01*
Y727938D01*
X1098645Y728938D01*
X1099645D01*
X1100645Y727938D01*
Y725939D01*
X1099645Y724939D01*
X1097646D01*
X1096646Y725939D01*
X655904Y545030D02*
Y539032D01*
X658903D01*
X659903Y540032D01*
Y544030D01*
X658903Y545030D01*
X655904D01*
X665901D02*
X661902D01*
Y542031D01*
X663901Y543031D01*
X664901D01*
X665901Y542031D01*
Y540032D01*
X664901Y539032D01*
X662902D01*
X661902Y540032D01*
X712154Y548030D02*
Y542032D01*
X715153D01*
X716153Y543032D01*
Y547030D01*
X715153Y548030D01*
X712154D01*
X722151D02*
X720151Y547030D01*
X718152Y545031D01*
Y543032D01*
X719152Y542032D01*
X721151D01*
X722151Y543032D01*
Y544031D01*
X721151Y545031D01*
X718152D01*
X639745Y749134D02*
Y743136D01*
X642744D01*
X643744Y744136D01*
Y748134D01*
X642744Y749134D01*
X639745D01*
X645743D02*
X649742D01*
Y748134D01*
X645743Y744136D01*
Y743136D01*
X875876Y528182D02*
X879875Y522183D01*
Y528182D02*
X875876Y522183D01*
X885873Y528182D02*
X883873Y527182D01*
X881874Y525182D01*
Y523183D01*
X882874Y522183D01*
X884873D01*
X885873Y523183D01*
Y524183D01*
X884873Y525182D01*
X881874D01*
X1096903Y685330D02*
X1095903Y686330D01*
X1093904D01*
X1092904Y685330D01*
Y681332D01*
X1093904Y680332D01*
X1095903D01*
X1096903Y681332D01*
X1102901Y686330D02*
X1098902D01*
Y683331D01*
X1100901Y684331D01*
X1101901D01*
X1102901Y683331D01*
Y681332D01*
X1101901Y680332D01*
X1099902D01*
X1098902Y681332D01*
X646018Y599030D02*
Y593032D01*
X649017D01*
X650017Y594032D01*
Y598030D01*
X649017Y599030D01*
X646018D01*
X652016Y598030D02*
X653016Y599030D01*
X655015D01*
X656015Y598030D01*
Y597031D01*
X655015Y596031D01*
X654015D01*
X655015D01*
X656015Y595031D01*
Y594032D01*
X655015Y593032D01*
X653016D01*
X652016Y594032D01*
X1073906Y569032D02*
X1079904D01*
Y572031D01*
X1078904Y573031D01*
X1074906D01*
X1073906Y572031D01*
Y569032D01*
X1079904Y578029D02*
X1073906D01*
X1076905Y575030D01*
Y579029D01*
X1093154Y650765D02*
Y656763D01*
X1096153D01*
X1097153Y655763D01*
Y653764D01*
X1096153Y652764D01*
X1093154D01*
X1095153D02*
X1097153Y650765D01*
X1099152Y656763D02*
X1103151D01*
Y655763D01*
X1099152Y651765D01*
Y650765D01*
X1093069Y710032D02*
Y716030D01*
X1096068D01*
X1097067Y715030D01*
Y713031D01*
X1096068Y712031D01*
X1093069D01*
X1095068D02*
X1097067Y710032D01*
X1099067Y711032D02*
X1100066Y710032D01*
X1102066D01*
X1103065Y711032D01*
Y715030D01*
X1102066Y716030D01*
X1100066D01*
X1099067Y715030D01*
Y714031D01*
X1100066Y713031D01*
X1103065D01*
X1185153Y608280D02*
X1184153Y609280D01*
X1182154D01*
X1181154Y608280D01*
Y604282D01*
X1182154Y603282D01*
X1184153D01*
X1185153Y604282D01*
X1187152Y608280D02*
X1188152Y609280D01*
X1190151D01*
X1191151Y608280D01*
Y607281D01*
X1190151Y606281D01*
X1189151D01*
X1190151D01*
X1191151Y605281D01*
Y604282D01*
X1190151Y603282D01*
X1188152D01*
X1187152Y604282D01*
X1197149Y603282D02*
X1193150D01*
X1197149Y607281D01*
Y608280D01*
X1196149Y609280D01*
X1194150D01*
X1193150Y608280D01*
X607058Y683032D02*
Y689030D01*
X610057D01*
X611057Y688030D01*
Y686031D01*
X610057Y685031D01*
X607058D01*
X609057D02*
X611057Y683032D01*
X617055D02*
X613056D01*
X617055Y687031D01*
Y688030D01*
X616055Y689030D01*
X614056D01*
X613056Y688030D01*
X619054D02*
X620054Y689030D01*
X622053D01*
X623053Y688030D01*
Y687031D01*
X622053Y686031D01*
X623053Y685031D01*
Y684032D01*
X622053Y683032D01*
X620054D01*
X619054Y684032D01*
Y685031D01*
X620054Y686031D01*
X619054Y687031D01*
Y688030D01*
X620054Y686031D02*
X622053D01*
X729154Y717386D02*
X723156D01*
Y720385D01*
X724156Y721385D01*
X726155D01*
X727155Y720385D01*
Y717386D01*
Y719385D02*
X729154Y721385D01*
Y727383D02*
Y723384D01*
X725155Y727383D01*
X724156D01*
X723156Y726383D01*
Y724384D01*
X724156Y723384D01*
X728154Y729382D02*
X729154Y730382D01*
Y732381D01*
X728154Y733381D01*
X724156D01*
X723156Y732381D01*
Y730382D01*
X724156Y729382D01*
X725155D01*
X726155Y730382D01*
Y733381D01*
X667154Y703032D02*
X661156D01*
Y706031D01*
X662156Y707031D01*
X664155D01*
X665155Y706031D01*
Y703032D01*
Y705031D02*
X667154Y707031D01*
X662156Y709030D02*
X661156Y710030D01*
Y712029D01*
X662156Y713029D01*
X663155D01*
X664155Y712029D01*
Y711029D01*
Y712029D01*
X665155Y713029D01*
X666154D01*
X667154Y712029D01*
Y710030D01*
X666154Y709030D01*
X662156Y715028D02*
X661156Y716028D01*
Y718027D01*
X662156Y719027D01*
X666154D01*
X667154Y718027D01*
Y716028D01*
X666154Y715028D01*
X662156D01*
X700154Y686032D02*
X694156D01*
Y689031D01*
X695156Y690031D01*
X697155D01*
X698155Y689031D01*
Y686032D01*
Y688031D02*
X700154Y690031D01*
X695156Y692030D02*
X694156Y693030D01*
Y695029D01*
X695156Y696029D01*
X696155D01*
X697155Y695029D01*
Y694029D01*
Y695029D01*
X698155Y696029D01*
X699154D01*
X700154Y695029D01*
Y693030D01*
X699154Y692030D01*
X700154Y698028D02*
Y700027D01*
Y699028D01*
X694156D01*
X695156Y698028D01*
X676981Y615106D02*
Y621105D01*
X679980D01*
X680979Y620105D01*
Y618105D01*
X679980Y617106D01*
X676981D01*
X678980D02*
X680979Y615106D01*
X682979Y620105D02*
X683978Y621105D01*
X685978D01*
X686977Y620105D01*
Y619105D01*
X685978Y618105D01*
X684978D01*
X685978D01*
X686977Y617106D01*
Y616106D01*
X685978Y615106D01*
X683978D01*
X682979Y616106D01*
X692975Y615106D02*
X688977D01*
X692975Y619105D01*
Y620105D01*
X691976Y621105D01*
X689976D01*
X688977Y620105D01*
X822509Y569031D02*
X821509Y568031D01*
Y566032D01*
X822509Y565032D01*
X826508D01*
X827508Y566032D01*
Y568031D01*
X826508Y569031D01*
X827508Y575029D02*
Y571030D01*
X823509Y575029D01*
X822509D01*
X821509Y574029D01*
Y572030D01*
X822509Y571030D01*
Y577028D02*
X821509Y578028D01*
Y580027D01*
X822509Y581027D01*
X823509D01*
X824509Y580027D01*
Y579027D01*
Y580027D01*
X825508Y581027D01*
X826508D01*
X827508Y580027D01*
Y578028D01*
X826508Y577028D01*
X1093154Y636032D02*
Y642030D01*
X1096153D01*
X1097153Y641030D01*
Y639031D01*
X1096153Y638031D01*
X1093154D01*
X1095153D02*
X1097153Y636032D01*
X1099152Y641030D02*
X1100152Y642030D01*
X1102151D01*
X1103151Y641030D01*
Y640031D01*
X1102151Y639031D01*
X1103151Y638031D01*
Y637032D01*
X1102151Y636032D01*
X1100152D01*
X1099152Y637032D01*
Y638031D01*
X1100152Y639031D01*
X1099152Y640031D01*
Y641030D01*
X1100152Y639031D02*
X1102151D01*
X784080Y568032D02*
X778082D01*
Y571031D01*
X779081Y572031D01*
X781080D01*
X782080Y571031D01*
Y568032D01*
Y570031D02*
X784080Y572031D01*
Y578029D02*
Y574030D01*
X780081Y578029D01*
X779081D01*
X778082Y577029D01*
Y575030D01*
X779081Y574030D01*
Y580028D02*
X778082Y581028D01*
Y583027D01*
X779081Y584027D01*
X780081D01*
X781080Y583027D01*
Y582028D01*
Y583027D01*
X782080Y584027D01*
X783080D01*
X784080Y583027D01*
Y581028D01*
X783080Y580028D01*
X652154Y908032D02*
X646156D01*
Y911031D01*
X647156Y912031D01*
X649155D01*
X650155Y911031D01*
Y908032D01*
Y910031D02*
X652154Y912031D01*
X646156Y918029D02*
X647156Y916029D01*
X649155Y914030D01*
X651154D01*
X652154Y915030D01*
Y917029D01*
X651154Y918029D01*
X650155D01*
X649155Y917029D01*
Y914030D01*
X647156Y920028D02*
X646156Y921028D01*
Y923027D01*
X647156Y924027D01*
X648155D01*
X649155Y923027D01*
Y922028D01*
Y923027D01*
X650155Y924027D01*
X651154D01*
X652154Y923027D01*
Y921028D01*
X651154Y920028D01*
X589156Y679031D02*
X588156Y678031D01*
Y676032D01*
X589156Y675032D01*
X593154D01*
X594154Y676032D01*
Y678031D01*
X593154Y679031D01*
X594154Y684029D02*
X588156D01*
X591155Y681030D01*
Y685029D01*
X589156Y687028D02*
X588156Y688028D01*
Y690027D01*
X589156Y691027D01*
X590155D01*
X591155Y690027D01*
Y689027D01*
Y690027D01*
X592155Y691027D01*
X593154D01*
X594154Y690027D01*
Y688028D01*
X593154Y687028D01*
X597153Y728032D02*
Y732030D01*
X596153Y733030D01*
X594154D01*
X593154Y732030D01*
Y728032D01*
X594154Y727032D01*
X596153D01*
X595153Y729031D02*
X597153Y727032D01*
X596153D02*
X597153Y728032D01*
X599152Y733030D02*
X603151D01*
Y732030D01*
X599152Y728032D01*
Y727032D01*
X1083154Y912032D02*
Y918030D01*
X1086153D01*
X1087153Y917030D01*
Y915031D01*
X1086153Y914031D01*
X1083154D01*
X1085153D02*
X1087153Y912032D01*
X1092151D02*
Y918030D01*
X1089152Y915031D01*
X1093151D01*
X1095150Y917030D02*
X1096150Y918030D01*
X1098149D01*
X1099149Y917030D01*
Y916031D01*
X1098149Y915031D01*
X1097150D01*
X1098149D01*
X1099149Y914031D01*
Y913032D01*
X1098149Y912032D01*
X1096150D01*
X1095150Y913032D01*
X886918Y851032D02*
Y857030D01*
X889918D01*
X890917Y856030D01*
Y854031D01*
X889918Y853031D01*
X886918D01*
X888918D02*
X890917Y851032D01*
X895916D02*
Y857030D01*
X892917Y854031D01*
X896915D01*
X901914Y851032D02*
Y857030D01*
X898915Y854031D01*
X902913D01*
X1032154Y851032D02*
Y857030D01*
X1035153D01*
X1036153Y856030D01*
Y854031D01*
X1035153Y853031D01*
X1032154D01*
X1034153D02*
X1036153Y851032D01*
X1041151D02*
Y857030D01*
X1038152Y854031D01*
X1042151D01*
X1048149Y857030D02*
X1044150D01*
Y854031D01*
X1046150Y855031D01*
X1047149D01*
X1048149Y854031D01*
Y852032D01*
X1047149Y851032D01*
X1045150D01*
X1044150Y852032D01*
X1139504Y894032D02*
X1133506D01*
Y897031D01*
X1134506Y898031D01*
X1136505D01*
X1137505Y897031D01*
Y894032D01*
Y896031D02*
X1139504Y898031D01*
Y903029D02*
X1133506D01*
X1136505Y900030D01*
Y904029D01*
X1134506Y906028D02*
X1133506Y907028D01*
Y909027D01*
X1134506Y910027D01*
X1135505D01*
X1136505Y909027D01*
X1137505Y910027D01*
X1138504D01*
X1139504Y909027D01*
Y907028D01*
X1138504Y906028D01*
X1137505D01*
X1136505Y907028D01*
X1135505Y906028D01*
X1134506D01*
X1136505Y907028D02*
Y909027D01*
X1165104Y895032D02*
X1159106D01*
Y898031D01*
X1160106Y899031D01*
X1162105D01*
X1163105Y898031D01*
Y895032D01*
Y897031D02*
X1165104Y899031D01*
Y904029D02*
X1159106D01*
X1162105Y901030D01*
Y905029D01*
X1164104Y907028D02*
X1165104Y908028D01*
Y910027D01*
X1164104Y911027D01*
X1160106D01*
X1159106Y910027D01*
Y908028D01*
X1160106Y907028D01*
X1161105D01*
X1162105Y908028D01*
Y911027D01*
X623154Y678840D02*
Y673842D01*
X624154Y672842D01*
X626153D01*
X627153Y673842D01*
Y678840D01*
X629152Y677840D02*
X630152Y678840D01*
X632151D01*
X633151Y677840D01*
Y676841D01*
X632151Y675841D01*
X631151D01*
X632151D01*
X633151Y674841D01*
Y673842D01*
X632151Y672842D01*
X630152D01*
X629152Y673842D01*
X1038153Y673030D02*
X1037153Y674030D01*
X1035154D01*
X1034154Y673030D01*
Y669032D01*
X1035154Y668032D01*
X1037153D01*
X1038153Y669032D01*
X1040152Y673030D02*
X1041152Y674030D01*
X1043151D01*
X1044151Y673030D01*
Y672031D01*
X1043151Y671031D01*
X1042151D01*
X1043151D01*
X1044151Y670031D01*
Y669032D01*
X1043151Y668032D01*
X1041152D01*
X1040152Y669032D01*
X1049149Y668032D02*
Y674030D01*
X1046150Y671031D01*
X1050149D01*
X1038153Y613530D02*
X1037153Y614530D01*
X1035154D01*
X1034154Y613530D01*
Y609532D01*
X1035154Y608532D01*
X1037153D01*
X1038153Y609532D01*
X1040152Y613530D02*
X1041152Y614530D01*
X1043151D01*
X1044151Y613530D01*
Y612531D01*
X1043151Y611531D01*
X1042151D01*
X1043151D01*
X1044151Y610531D01*
Y609532D01*
X1043151Y608532D01*
X1041152D01*
X1040152Y609532D01*
X1050149Y614530D02*
X1046150D01*
Y611531D01*
X1048149Y612531D01*
X1049149D01*
X1050149Y611531D01*
Y609532D01*
X1049149Y608532D01*
X1047150D01*
X1046150Y609532D01*
X767156Y625031D02*
X766156Y624031D01*
Y622032D01*
X767156Y621032D01*
X771154D01*
X772154Y622032D01*
Y624031D01*
X771154Y625031D01*
X767156Y627030D02*
X766156Y628030D01*
Y630029D01*
X767156Y631029D01*
X768155D01*
X769155Y630029D01*
Y629029D01*
Y630029D01*
X770155Y631029D01*
X771154D01*
X772154Y630029D01*
Y628030D01*
X771154Y627030D01*
X766156Y637027D02*
X767156Y635028D01*
X769155Y633028D01*
X771154D01*
X772154Y634028D01*
Y636027D01*
X771154Y637027D01*
X770155D01*
X769155Y636027D01*
Y633028D01*
X945154Y912032D02*
Y918030D01*
X948153D01*
X949153Y917030D01*
Y915031D01*
X948153Y914031D01*
X945154D01*
X947153D02*
X949153Y912032D01*
X955151Y918030D02*
X951152D01*
Y915031D01*
X953151Y916031D01*
X954151D01*
X955151Y915031D01*
Y913032D01*
X954151Y912032D01*
X952152D01*
X951152Y913032D01*
X961149Y912032D02*
X957150D01*
X961149Y916031D01*
Y917030D01*
X960149Y918030D01*
X958150D01*
X957150Y917030D01*
X851154Y547799D02*
X845156D01*
Y550798D01*
X846156Y551798D01*
X848155D01*
X849155Y550798D01*
Y547799D01*
Y549798D02*
X851154Y551798D01*
Y553797D02*
Y555796D01*
Y554797D01*
X845156D01*
X846156Y553797D01*
Y558795D02*
X845156Y559795D01*
Y561794D01*
X846156Y562794D01*
X847155D01*
X848155Y561794D01*
Y560795D01*
Y561794D01*
X849155Y562794D01*
X850154D01*
X851154Y561794D01*
Y559795D01*
X850154Y558795D01*
X818154Y548032D02*
X812156D01*
Y551031D01*
X813156Y552031D01*
X815155D01*
X816155Y551031D01*
Y548032D01*
Y550031D02*
X818154Y552031D01*
Y554030D02*
Y556029D01*
Y555030D01*
X812156D01*
X813156Y554030D01*
X812156Y559028D02*
Y563027D01*
X813156D01*
X817154Y559028D01*
X818154D01*
X788038Y547799D02*
X782040D01*
Y550798D01*
X783039Y551798D01*
X785039D01*
X786038Y550798D01*
Y547799D01*
Y549798D02*
X788038Y551798D01*
Y553797D02*
Y555796D01*
Y554797D01*
X782040D01*
X783039Y553797D01*
Y558795D02*
X782040Y559795D01*
Y561794D01*
X783039Y562794D01*
X784039D01*
X785039Y561794D01*
X786038Y562794D01*
X787038D01*
X788038Y561794D01*
Y559795D01*
X787038Y558795D01*
X786038D01*
X785039Y559795D01*
X784039Y558795D01*
X783039D01*
X785039Y559795D02*
Y561794D01*
X835322Y547799D02*
X829324D01*
Y550798D01*
X830323Y551798D01*
X832323D01*
X833323Y550798D01*
Y547799D01*
Y549798D02*
X835322Y551798D01*
Y553797D02*
Y555796D01*
Y554797D01*
X829324D01*
X830323Y553797D01*
X834322Y558795D02*
X835322Y559795D01*
Y561794D01*
X834322Y562794D01*
X830323D01*
X829324Y561794D01*
Y559795D01*
X830323Y558795D01*
X831323D01*
X832323Y559795D01*
Y562794D01*
X803038Y547799D02*
X797040D01*
Y550798D01*
X798039Y551798D01*
X800039D01*
X801038Y550798D01*
Y547799D01*
Y549798D02*
X803038Y551798D01*
Y557796D02*
Y553797D01*
X799039Y557796D01*
X798039D01*
X797040Y556796D01*
Y554797D01*
X798039Y553797D01*
Y559795D02*
X797040Y560795D01*
Y562794D01*
X798039Y563794D01*
X802038D01*
X803038Y562794D01*
Y560795D01*
X802038Y559795D01*
X798039D01*
X889708Y894032D02*
X883709D01*
Y897031D01*
X884709Y898031D01*
X886709D01*
X887708Y897031D01*
Y894032D01*
Y896031D02*
X889708Y898031D01*
X883709Y904029D02*
Y900030D01*
X886709D01*
X885709Y902029D01*
Y903029D01*
X886709Y904029D01*
X888708D01*
X889708Y903029D01*
Y901030D01*
X888708Y900030D01*
Y906028D02*
X889708Y907028D01*
Y909027D01*
X888708Y910027D01*
X884709D01*
X883709Y909027D01*
Y907028D01*
X884709Y906028D01*
X885709D01*
X886709Y907028D01*
Y910027D01*
X772154Y547799D02*
X766156D01*
Y550798D01*
X767156Y551798D01*
X769155D01*
X770155Y550798D01*
Y547799D01*
Y549798D02*
X772154Y551798D01*
Y557796D02*
Y553797D01*
X768155Y557796D01*
X767156D01*
X766156Y556796D01*
Y554797D01*
X767156Y553797D01*
X772154Y559795D02*
Y561795D01*
Y560795D01*
X766156D01*
X767156Y559795D01*
X689419Y744240D02*
Y750238D01*
X692418D01*
X693417Y749238D01*
Y747239D01*
X692418Y746239D01*
X689419D01*
X691418D02*
X693417Y744240D01*
X699415Y750238D02*
X697416Y749238D01*
X695417Y747239D01*
Y745240D01*
X696416Y744240D01*
X698416D01*
X699415Y745240D01*
Y746239D01*
X698416Y747239D01*
X695417D01*
X704414Y744240D02*
Y750238D01*
X701415Y747239D01*
X705413D01*
X689154Y907782D02*
X683156D01*
Y910781D01*
X684156Y911781D01*
X686155D01*
X687155Y910781D01*
Y907782D01*
Y909781D02*
X689154Y911781D01*
X683156Y917779D02*
X684156Y915779D01*
X686155Y913780D01*
X688154D01*
X689154Y914780D01*
Y916779D01*
X688154Y917779D01*
X687155D01*
X686155Y916779D01*
Y913780D01*
X683156Y923777D02*
Y919778D01*
X686155D01*
X685155Y921777D01*
Y922777D01*
X686155Y923777D01*
X688154D01*
X689154Y922777D01*
Y920778D01*
X688154Y919778D01*
X862156Y551798D02*
X861156Y550798D01*
Y548799D01*
X862156Y547799D01*
X866154D01*
X867154Y548799D01*
Y550798D01*
X866154Y551798D01*
X862156Y553797D02*
X861156Y554797D01*
Y556796D01*
X862156Y557796D01*
X863155D01*
X864155Y556796D01*
Y555796D01*
Y556796D01*
X865155Y557796D01*
X866154D01*
X867154Y556796D01*
Y554797D01*
X866154Y553797D01*
X861156Y559795D02*
Y563794D01*
X862156D01*
X866154Y559795D01*
X867154D01*
X762933Y867759D02*
Y861761D01*
X766931D01*
X772929D02*
X768931D01*
X772929Y865760D01*
Y866760D01*
X771930Y867759D01*
X769930D01*
X768931Y866760D01*
X1171154Y850032D02*
Y856030D01*
X1174153D01*
X1175153Y855030D01*
Y853031D01*
X1174153Y852031D01*
X1171154D01*
X1173153D02*
X1175153Y850032D01*
X1180151D02*
Y856030D01*
X1177152Y853031D01*
X1181151D01*
X1187149Y856030D02*
X1185150Y855030D01*
X1183150Y853031D01*
Y851032D01*
X1184150Y850032D01*
X1186149D01*
X1187149Y851032D01*
Y852031D01*
X1186149Y853031D01*
X1183150D01*
X776156Y625031D02*
X775156Y624031D01*
Y622032D01*
X776156Y621032D01*
X780154D01*
X781154Y622032D01*
Y624031D01*
X780154Y625031D01*
X776156Y627030D02*
X775156Y628030D01*
Y630029D01*
X776156Y631029D01*
X777155D01*
X778155Y630029D01*
Y629029D01*
Y630029D01*
X779155Y631029D01*
X780154D01*
X781154Y630029D01*
Y628030D01*
X780154Y627030D01*
X776156Y633028D02*
X775156Y634028D01*
Y636027D01*
X776156Y637027D01*
X777155D01*
X778155Y636027D01*
Y635028D01*
Y636027D01*
X779155Y637027D01*
X780154D01*
X781154Y636027D01*
Y634028D01*
X780154Y633028D01*
X689654Y683840D02*
Y677842D01*
X693653D01*
X695652D02*
X697651D01*
X696652D01*
Y683840D01*
X695652Y682840D01*
X737153Y670030D02*
X736153Y671030D01*
X734154D01*
X733154Y670030D01*
Y666032D01*
X734154Y665032D01*
X736153D01*
X737153Y666032D01*
X742151Y665032D02*
Y671030D01*
X739152Y668031D01*
X743151D01*
X748149Y665032D02*
Y671030D01*
X745150Y668031D01*
X749149D01*
X713153Y670220D02*
X712153Y671220D01*
X710154D01*
X709154Y670220D01*
Y666222D01*
X710154Y665222D01*
X712153D01*
X713153Y666222D01*
X718151Y665222D02*
Y671220D01*
X715152Y668221D01*
X719151D01*
X725149Y671220D02*
X721150D01*
Y668221D01*
X723149Y669221D01*
X724149D01*
X725149Y668221D01*
Y666222D01*
X724149Y665222D01*
X722150D01*
X721150Y666222D01*
X1135078Y658030D02*
X1134079Y659030D01*
X1132079D01*
X1131080Y658030D01*
Y654032D01*
X1132079Y653032D01*
X1134079D01*
X1135078Y654032D01*
X1140077Y653032D02*
Y659030D01*
X1137078Y656031D01*
X1141076D01*
X1147074Y659030D02*
X1145075Y658030D01*
X1143076Y656031D01*
Y654032D01*
X1144075Y653032D01*
X1146075D01*
X1147074Y654032D01*
Y655031D01*
X1146075Y656031D01*
X1143076D01*
X941153Y814030D02*
X940153Y815030D01*
X938154D01*
X937154Y814030D01*
Y810032D01*
X938154Y809032D01*
X940153D01*
X941153Y810032D01*
X947151Y815030D02*
X943152D01*
Y812031D01*
X945151Y813031D01*
X946151D01*
X947151Y812031D01*
Y810032D01*
X946151Y809032D01*
X944152D01*
X943152Y810032D01*
X949150Y814030D02*
X950150Y815030D01*
X952149D01*
X953149Y814030D01*
Y810032D01*
X952149Y809032D01*
X950150D01*
X949150Y810032D01*
Y814030D01*
X778153Y827030D02*
X777153Y828030D01*
X775154D01*
X774154Y827030D01*
Y823032D01*
X775154Y822032D01*
X777153D01*
X778153Y823032D01*
X784151Y828030D02*
X780152D01*
Y825031D01*
X782151Y826031D01*
X783151D01*
X784151Y825031D01*
Y823032D01*
X783151Y822032D01*
X781152D01*
X780152Y823032D01*
X790149Y822032D02*
X786150D01*
X790149Y826031D01*
Y827030D01*
X789149Y828030D01*
X787150D01*
X786150Y827030D01*
X700906Y911781D02*
X699906Y910781D01*
Y908782D01*
X700906Y907782D01*
X704904D01*
X705904Y908782D01*
Y910781D01*
X704904Y911781D01*
X699906Y917779D02*
Y913780D01*
X702905D01*
X701905Y915779D01*
Y916779D01*
X702905Y917779D01*
X704904D01*
X705904Y916779D01*
Y914780D01*
X704904Y913780D01*
X700906Y919778D02*
X699906Y920778D01*
Y922777D01*
X700906Y923777D01*
X701905D01*
X702905Y922777D01*
Y921777D01*
Y922777D01*
X703905Y923777D01*
X704904D01*
X705904Y922777D01*
Y920778D01*
X704904Y919778D01*
X664156Y912031D02*
X663156Y911031D01*
Y909032D01*
X664156Y908032D01*
X668154D01*
X669154Y909032D01*
Y911031D01*
X668154Y912031D01*
X663156Y918029D02*
Y914030D01*
X666155D01*
X665155Y916029D01*
Y917029D01*
X666155Y918029D01*
X668154D01*
X669154Y917029D01*
Y915030D01*
X668154Y914030D01*
X669154Y923027D02*
X663156D01*
X666155Y920028D01*
Y924027D01*
X724156Y889266D02*
X723156Y888267D01*
Y886267D01*
X724156Y885267D01*
X728154D01*
X729154Y886267D01*
Y888267D01*
X728154Y889266D01*
X723156Y895264D02*
Y891265D01*
X726155D01*
X725155Y893265D01*
Y894265D01*
X726155Y895264D01*
X728154D01*
X729154Y894265D01*
Y892265D01*
X728154Y891265D01*
X723156Y901262D02*
Y897264D01*
X726155D01*
X725155Y899263D01*
Y900263D01*
X726155Y901262D01*
X728154D01*
X729154Y900263D01*
Y898263D01*
X728154Y897264D01*
X1175153Y814030D02*
X1174153Y815030D01*
X1172154D01*
X1171154Y814030D01*
Y810032D01*
X1172154Y809032D01*
X1174153D01*
X1175153Y810032D01*
X1181151Y815030D02*
X1177152D01*
Y812031D01*
X1179151Y813031D01*
X1180151D01*
X1181151Y812031D01*
Y810032D01*
X1180151Y809032D01*
X1178152D01*
X1177152Y810032D01*
X1187149Y815030D02*
X1185150Y814030D01*
X1183150Y812031D01*
Y810032D01*
X1184150Y809032D01*
X1186149D01*
X1187149Y810032D01*
Y811031D01*
X1186149Y812031D01*
X1183150D01*
X1037496Y813030D02*
X1036496Y814030D01*
X1034497D01*
X1033497Y813030D01*
Y809032D01*
X1034497Y808032D01*
X1036496D01*
X1037496Y809032D01*
X1043494Y814030D02*
X1039495D01*
Y811031D01*
X1041494Y812031D01*
X1042494D01*
X1043494Y811031D01*
Y809032D01*
X1042494Y808032D01*
X1040495D01*
X1039495Y809032D01*
X1045493Y814030D02*
X1049492D01*
Y813030D01*
X1045493Y809032D01*
Y808032D01*
X898355Y814123D02*
X897356Y815123D01*
X895357D01*
X894357Y814123D01*
Y810125D01*
X895357Y809125D01*
X897356D01*
X898355Y810125D01*
X904354Y815123D02*
X900355D01*
Y812124D01*
X902354Y813124D01*
X903354D01*
X904354Y812124D01*
Y810125D01*
X903354Y809125D01*
X901355D01*
X900355Y810125D01*
X906353Y814123D02*
X907353Y815123D01*
X909352D01*
X910352Y814123D01*
Y813124D01*
X909352Y812124D01*
X910352Y811124D01*
Y810125D01*
X909352Y809125D01*
X907353D01*
X906353Y810125D01*
Y811124D01*
X907353Y812124D01*
X906353Y813124D01*
Y814123D01*
X907353Y812124D02*
X909352D01*
X599517Y904030D02*
X598517Y905030D01*
X596518D01*
X595518Y904030D01*
Y900032D01*
X596518Y899032D01*
X598517D01*
X599517Y900032D01*
X605515Y905030D02*
X603515Y904030D01*
X601516Y902031D01*
Y900032D01*
X602516Y899032D01*
X604515D01*
X605515Y900032D01*
Y901031D01*
X604515Y902031D01*
X601516D01*
X607514Y904030D02*
X608514Y905030D01*
X610513D01*
X611513Y904030D01*
Y900032D01*
X610513Y899032D01*
X608514D01*
X607514Y900032D01*
Y904030D01*
X628623Y801037D02*
X627623Y802037D01*
X625624D01*
X624624Y801037D01*
Y797038D01*
X625624Y796039D01*
X627623D01*
X628623Y797038D01*
X634621Y802037D02*
X632622Y801037D01*
X630622Y799038D01*
Y797038D01*
X631622Y796039D01*
X633621D01*
X634621Y797038D01*
Y798038D01*
X633621Y799038D01*
X630622D01*
X636620Y796039D02*
X638620D01*
X637620D01*
Y802037D01*
X636620Y801037D01*
X599153Y894030D02*
X598153Y895030D01*
X596154D01*
X595154Y894030D01*
Y890032D01*
X596154Y889032D01*
X598153D01*
X599153Y890032D01*
X605151Y895030D02*
X603151Y894030D01*
X601152Y892031D01*
Y890032D01*
X602152Y889032D01*
X604151D01*
X605151Y890032D01*
Y891031D01*
X604151Y892031D01*
X601152D01*
X611149Y889032D02*
X607150D01*
X611149Y893031D01*
Y894030D01*
X610149Y895030D01*
X608150D01*
X607150Y894030D01*
X1064156Y838782D02*
X1070154D01*
Y841781D01*
X1069154Y842781D01*
X1065156D01*
X1064156Y841781D01*
Y838782D01*
X1065156Y844780D02*
X1064156Y845780D01*
Y847779D01*
X1065156Y848779D01*
X1066155D01*
X1067155Y847779D01*
X1068155Y848779D01*
X1069154D01*
X1070154Y847779D01*
Y845780D01*
X1069154Y844780D01*
X1068155D01*
X1067155Y845780D01*
X1066155Y844780D01*
X1065156D01*
X1067155Y845780D02*
Y847779D01*
X923154Y846030D02*
Y840032D01*
X926153D01*
X927153Y841032D01*
Y845030D01*
X926153Y846030D01*
X923154D01*
X929152Y841032D02*
X930152Y840032D01*
X932151D01*
X933151Y841032D01*
Y845030D01*
X932151Y846030D01*
X930152D01*
X929152Y845030D01*
Y844031D01*
X930152Y843031D01*
X933151D01*
X780154Y846030D02*
Y840032D01*
X783153D01*
X784153Y841032D01*
Y845030D01*
X783153Y846030D01*
X780154D01*
X786152Y840032D02*
X788151D01*
X787152D01*
Y846030D01*
X786152Y845030D01*
X791150D02*
X792150Y846030D01*
X794149D01*
X795149Y845030D01*
Y841032D01*
X794149Y840032D01*
X792150D01*
X791150Y841032D01*
Y845030D01*
X655154Y805030D02*
Y799032D01*
X658153D01*
X659153Y800032D01*
Y804030D01*
X658153Y805030D01*
X655154D01*
X661152Y799032D02*
X663151D01*
X662152D01*
Y805030D01*
X661152Y804030D01*
X666150Y799032D02*
X668150D01*
X667150D01*
Y805030D01*
X666150Y804030D01*
X669364Y750030D02*
Y744032D01*
X672364D01*
X673363Y745032D01*
Y749030D01*
X672364Y750030D01*
X669364D01*
X675362Y744032D02*
X677362D01*
X676362D01*
Y750030D01*
X675362Y749030D01*
X684360Y744032D02*
X680361D01*
X684360Y748031D01*
Y749030D01*
X683360Y750030D01*
X681360D01*
X680361Y749030D01*
X623153Y572030D02*
X619154D01*
Y569031D01*
X621153D01*
X619154D01*
Y566032D01*
X625152Y572030D02*
Y566032D01*
X628151D01*
X629151Y567032D01*
Y568031D01*
X628151Y569031D01*
X625152D01*
X628151D01*
X629151Y570031D01*
Y571030D01*
X628151Y572030D01*
X625152D01*
X631150Y571030D02*
X632150Y572030D01*
X634149D01*
X635149Y571030D01*
Y570031D01*
X634149Y569031D01*
X633149D01*
X634149D01*
X635149Y568031D01*
Y567032D01*
X634149Y566032D01*
X632150D01*
X631150Y567032D01*
X691154Y535532D02*
Y541530D01*
X694153D01*
X695153Y540530D01*
Y538531D01*
X694153Y537531D01*
X691154D01*
X693153D02*
X695153Y535532D01*
X697152D02*
X699151D01*
X698152D01*
Y541530D01*
X697152Y540530D01*
X702150Y535532D02*
X704150D01*
X703150D01*
Y541530D01*
X702150Y540530D01*
X672154Y536334D02*
Y542332D01*
X675153D01*
X676153Y541333D01*
Y539333D01*
X675153Y538334D01*
X672154D01*
X674153D02*
X676153Y536334D01*
X678152D02*
X680151D01*
X679152D01*
Y542332D01*
X678152Y541333D01*
X687149Y536334D02*
X683150D01*
X687149Y540333D01*
Y541333D01*
X686150Y542332D01*
X684150D01*
X683150Y541333D01*
X1001096Y894032D02*
X995098D01*
Y897031D01*
X996097Y898031D01*
X998097D01*
X999097Y897031D01*
Y894032D01*
Y896031D02*
X1001096Y898031D01*
X995098Y904029D02*
Y900030D01*
X998097D01*
X997097Y902029D01*
Y903029D01*
X998097Y904029D01*
X1000096D01*
X1001096Y903029D01*
Y901030D01*
X1000096Y900030D01*
X996097Y906028D02*
X995098Y907028D01*
Y909027D01*
X996097Y910027D01*
X997097D01*
X998097Y909027D01*
Y908027D01*
Y909027D01*
X999097Y910027D01*
X1000096D01*
X1001096Y909027D01*
Y907028D01*
X1000096Y906028D01*
X1026154Y894828D02*
X1020156D01*
Y897827D01*
X1021156Y898827D01*
X1023156D01*
X1024155Y897827D01*
Y894828D01*
Y896827D02*
X1026154Y898827D01*
X1020156Y904825D02*
Y900826D01*
X1023156D01*
X1022156Y902825D01*
Y903825D01*
X1023156Y904825D01*
X1025155D01*
X1026154Y903825D01*
Y901826D01*
X1025155Y900826D01*
X1026154Y909823D02*
X1020156D01*
X1023156Y906824D01*
Y910823D01*
X807154Y912032D02*
Y918030D01*
X810153D01*
X811153Y917030D01*
Y915031D01*
X810153Y914031D01*
X807154D01*
X809153D02*
X811153Y912032D01*
X817151Y918030D02*
X813152D01*
Y915031D01*
X815151Y916031D01*
X816151D01*
X817151Y915031D01*
Y913032D01*
X816151Y912032D01*
X814152D01*
X813152Y913032D01*
X819150Y918030D02*
X823149D01*
Y917030D01*
X819150Y913032D01*
Y912032D01*
X637654Y908032D02*
X631656D01*
Y911031D01*
X632656Y912031D01*
X634655D01*
X635655Y911031D01*
Y908032D01*
Y910031D02*
X637654Y912031D01*
X631656Y918029D02*
X632656Y916029D01*
X634655Y914030D01*
X636654D01*
X637654Y915030D01*
Y917029D01*
X636654Y918029D01*
X635655D01*
X634655Y917029D01*
Y914030D01*
X631656Y920028D02*
Y924027D01*
X632656D01*
X636654Y920028D01*
X637654D01*
X1181152Y626032D02*
X1176154D01*
X1175154Y625032D01*
Y623033D01*
X1176154Y622033D01*
X1181152D01*
X1175154Y617035D02*
X1181152D01*
X1178153Y620034D01*
Y616035D01*
X1164930Y878032D02*
X1159932D01*
X1158932Y877032D01*
Y875033D01*
X1159932Y874033D01*
X1164930D01*
Y868035D02*
Y872034D01*
X1161931D01*
X1162931Y870035D01*
Y869035D01*
X1161931Y868035D01*
X1159932D01*
X1158932Y869035D01*
Y871034D01*
X1159932Y872034D01*
X1021656Y866532D02*
X1026654D01*
X1027654Y867532D01*
Y869531D01*
X1026654Y870531D01*
X1021656D01*
Y876529D02*
X1022656Y874529D01*
X1024655Y872530D01*
X1026654D01*
X1027654Y873530D01*
Y875529D01*
X1026654Y876529D01*
X1025655D01*
X1024655Y875529D01*
Y872530D01*
X890152Y872032D02*
X885154D01*
X884154Y871032D01*
Y869033D01*
X885154Y868033D01*
X890152D01*
X889152Y866034D02*
X890152Y865034D01*
Y863035D01*
X889152Y862035D01*
X888153D01*
X887153Y863035D01*
X886153Y862035D01*
X885154D01*
X884154Y863035D01*
Y865034D01*
X885154Y866034D01*
X886153D01*
X887153Y865034D01*
X888153Y866034D01*
X889152D01*
X887153Y865034D02*
Y863035D01*
X659154Y829034D02*
Y834032D01*
X658154Y835032D01*
X656155D01*
X655155Y834032D01*
Y829034D01*
X653156Y834032D02*
X652156Y835032D01*
X650157D01*
X649157Y834032D01*
Y830034D01*
X650157Y829034D01*
X652156D01*
X653156Y830034D01*
Y831033D01*
X652156Y832033D01*
X649157D01*
X766156Y575032D02*
X772154Y579031D01*
X766156D02*
X772154Y575032D01*
Y581030D02*
Y583029D01*
Y582030D01*
X766156D01*
X767156Y581030D01*
X637040Y548131D02*
X641039Y542133D01*
Y548131D02*
X637040Y542133D01*
X646038D02*
Y548131D01*
X643039Y545132D01*
X647037D01*
X1167216Y580032D02*
X1161218Y576033D01*
X1167216D02*
X1161218Y580032D01*
X1167216Y570035D02*
Y574034D01*
X1164217D01*
X1165217Y572035D01*
Y571035D01*
X1164217Y570035D01*
X1162218D01*
X1161218Y571035D01*
Y573034D01*
X1162218Y574034D01*
X1035932Y563030D02*
X1039931Y557032D01*
Y563030D02*
X1035932Y557032D01*
X1041930Y563030D02*
X1045929D01*
Y562030D01*
X1041930Y558032D01*
Y557032D01*
X1042152Y646032D02*
X1041152D01*
X1039153Y644033D01*
X1041152Y642033D01*
X1042152D01*
X1039153Y644033D02*
X1036154D01*
Y640034D02*
Y638035D01*
Y639034D01*
X1042152D01*
X1041152Y640034D01*
X773506Y703782D02*
X774506D01*
X776505Y705781D01*
X774506Y707781D01*
X773506D01*
X776505Y705781D02*
X779504D01*
Y713779D02*
Y709780D01*
X775505Y713779D01*
X774506D01*
X773506Y712779D01*
Y710780D01*
X774506Y709780D01*
X785154Y892452D02*
X779156D01*
Y895452D01*
X780156Y896451D01*
X782155D01*
X783155Y895452D01*
Y892452D01*
Y894452D02*
X785154Y896451D01*
X779156Y902449D02*
X780156Y900450D01*
X782155Y898451D01*
X784154D01*
X785154Y899450D01*
Y901450D01*
X784154Y902449D01*
X783155D01*
X782155Y901450D01*
Y898451D01*
X779156Y908447D02*
X780156Y906448D01*
X782155Y904449D01*
X784154D01*
X785154Y905448D01*
Y907448D01*
X784154Y908447D01*
X783155D01*
X782155Y907448D01*
Y904449D01*
X1180379Y796030D02*
X1178380D01*
X1179379D01*
Y791032D01*
X1178380Y790032D01*
X1177380D01*
X1176380Y791032D01*
X1182378Y790032D02*
X1184378D01*
X1183378D01*
Y796030D01*
X1182378Y795030D01*
X1040968Y797030D02*
X1038969D01*
X1039968D01*
Y792032D01*
X1038969Y791032D01*
X1037969D01*
X1036969Y792032D01*
X1046966Y791032D02*
X1042967D01*
X1046966Y795031D01*
Y796030D01*
X1045966Y797030D01*
X1043967D01*
X1042967Y796030D01*
X905800Y796030D02*
X903801D01*
X904800D01*
Y791032D01*
X903801Y790032D01*
X902801D01*
X901801Y791032D01*
X907800Y795030D02*
X908799Y796030D01*
X910798D01*
X911798Y795030D01*
Y794031D01*
X910798Y793031D01*
X909799D01*
X910798D01*
X911798Y792031D01*
Y791032D01*
X910798Y790032D01*
X908799D01*
X907800Y791032D01*
X798232Y781030D02*
X796233D01*
X797233D01*
Y776032D01*
X796233Y775032D01*
X795233D01*
X794234Y776032D01*
X803231Y775032D02*
Y781030D01*
X800232Y778031D01*
X804230D01*
X751153Y518030D02*
X749153D01*
X750153D01*
Y513032D01*
X749153Y512032D01*
X748154D01*
X747154Y513032D01*
X757151Y518030D02*
X753152D01*
Y515031D01*
X755151Y516031D01*
X756151D01*
X757151Y515031D01*
Y513032D01*
X756151Y512032D01*
X754152D01*
X753152Y513032D01*
X750989Y584364D02*
X750156Y583531D01*
Y581865D01*
X750989Y581032D01*
X754321D01*
X755154Y581865D01*
Y583531D01*
X754321Y584364D01*
X752655D01*
Y582698D01*
X755154Y586030D02*
X750156D01*
X755154Y589363D01*
X750156D01*
Y591029D02*
X755154D01*
Y593528D01*
X754321Y594361D01*
X750989D01*
X750156Y593528D01*
Y591029D01*
Y601025D02*
X753488D01*
X755154Y602692D01*
X753488Y604358D01*
X750156D01*
Y606024D02*
X755154D01*
Y608523D01*
X754321Y609356D01*
X753488D01*
X752655Y608523D01*
Y606024D01*
Y608523D01*
X751822Y609356D01*
X750989D01*
X750156Y608523D01*
Y606024D01*
X755154Y611022D02*
X751822D01*
X750156Y612688D01*
X751822Y614354D01*
X755154D01*
X752655D01*
Y611022D01*
X750156Y616021D02*
Y619353D01*
Y617687D01*
X755154D01*
X1121486Y559197D02*
X1120653Y560030D01*
X1118987D01*
X1118154Y559197D01*
Y555865D01*
X1118987Y555032D01*
X1120653D01*
X1121486Y555865D01*
X1123152Y555032D02*
Y558364D01*
X1124818Y560030D01*
X1126485Y558364D01*
Y555032D01*
Y557531D01*
X1123152D01*
X1128151Y555032D02*
Y560030D01*
X1131483Y555032D01*
Y560030D01*
X1133149D02*
Y555032D01*
Y557531D01*
X1136481D01*
Y560030D01*
Y555032D01*
X1146478Y559197D02*
X1145645Y560030D01*
X1143979D01*
X1143146Y559197D01*
Y555865D01*
X1143979Y555032D01*
X1145645D01*
X1146478Y555865D01*
X1148144Y555032D02*
Y558364D01*
X1149810Y560030D01*
X1151476Y558364D01*
Y555032D01*
Y557531D01*
X1148144D01*
X1153143Y555032D02*
Y560030D01*
X1156475Y555032D01*
Y560030D01*
X1158141D02*
Y555032D01*
X1161473D01*
X896154Y537032D02*
Y542030D01*
X898653D01*
X899486Y541197D01*
Y539531D01*
X898653Y538698D01*
X896154D01*
X904485Y537032D02*
X901152D01*
X904485Y540364D01*
Y541197D01*
X903652Y542030D01*
X901985D01*
X901152Y541197D01*
X906151Y536199D02*
X909483D01*
X911149Y541197D02*
X911982Y542030D01*
X913648D01*
X914481Y541197D01*
Y540364D01*
X913648Y539531D01*
X914481Y538698D01*
Y537865D01*
X913648Y537032D01*
X911982D01*
X911149Y537865D01*
Y538698D01*
X911982Y539531D01*
X911149Y540364D01*
Y541197D01*
X911982Y539531D02*
X913648D01*
X921146Y537032D02*
Y542030D01*
X923645D01*
X924478Y541197D01*
Y539531D01*
X923645Y538698D01*
X921146D01*
X929476Y537032D02*
X926144D01*
X929476Y540364D01*
Y541197D01*
X928643Y542030D01*
X926977D01*
X926144Y541197D01*
X931143Y536199D02*
X934475D01*
X938640Y537032D02*
Y542030D01*
X936141Y539531D01*
X939473D01*
X946138Y537032D02*
Y542030D01*
X948637D01*
X949470Y541197D01*
Y539531D01*
X948637Y538698D01*
X946138D01*
X954468Y537032D02*
X951136D01*
X954468Y540364D01*
Y541197D01*
X953635Y542030D01*
X951969D01*
X951136Y541197D01*
X956134Y536199D02*
X959467D01*
X964465Y537032D02*
X961133D01*
X964465Y540364D01*
Y541197D01*
X963632Y542030D01*
X961966D01*
X961133Y541197D01*
X971130D02*
X971963Y542030D01*
X973629D01*
X974462Y541197D01*
Y540364D01*
X973629Y539531D01*
X972796D01*
X973629D01*
X974462Y538698D01*
Y537865D01*
X973629Y537032D01*
X971963D01*
X971130Y537865D01*
X976128Y537032D02*
Y537865D01*
X976961D01*
Y537032D01*
X976128D01*
X980293Y541197D02*
X981126Y542030D01*
X982792D01*
X983625Y541197D01*
Y540364D01*
X982792Y539531D01*
X981959D01*
X982792D01*
X983625Y538698D01*
Y537865D01*
X982792Y537032D01*
X981126D01*
X980293Y537865D01*
X985292Y542030D02*
Y538698D01*
X986958Y537032D01*
X988624Y538698D01*
Y542030D01*
X896154Y544032D02*
Y549030D01*
X898653D01*
X899486Y548197D01*
Y546531D01*
X898653Y545698D01*
X896154D01*
X904485Y544032D02*
X901152D01*
X904485Y547364D01*
Y548197D01*
X903652Y549030D01*
X901985D01*
X901152Y548197D01*
X906151Y543199D02*
X909483D01*
X911149Y544865D02*
X911982Y544032D01*
X913648D01*
X914481Y544865D01*
Y548197D01*
X913648Y549030D01*
X911982D01*
X911149Y548197D01*
Y547364D01*
X911982Y546531D01*
X914481D01*
X921146Y544032D02*
Y549030D01*
X923645D01*
X924478Y548197D01*
Y546531D01*
X923645Y545698D01*
X921146D01*
X929476Y544032D02*
X926144D01*
X929476Y547364D01*
Y548197D01*
X928643Y549030D01*
X926977D01*
X926144Y548197D01*
X931143Y543199D02*
X934475D01*
X939473Y549030D02*
X936141D01*
Y546531D01*
X937807Y547364D01*
X938640D01*
X939473Y546531D01*
Y544865D01*
X938640Y544032D01*
X936974D01*
X936141Y544865D01*
X946138Y544032D02*
Y549030D01*
X948637D01*
X949470Y548197D01*
Y546531D01*
X948637Y545698D01*
X946138D01*
X954468Y544032D02*
X951136D01*
X954468Y547364D01*
Y548197D01*
X953635Y549030D01*
X951969D01*
X951136Y548197D01*
X956134Y543199D02*
X959467D01*
X961133Y548197D02*
X961966Y549030D01*
X963632D01*
X964465Y548197D01*
Y547364D01*
X963632Y546531D01*
X962799D01*
X963632D01*
X964465Y545698D01*
Y544865D01*
X963632Y544032D01*
X961966D01*
X961133Y544865D01*
X974462Y548197D02*
X973629Y549030D01*
X971963D01*
X971130Y548197D01*
Y544865D01*
X971963Y544032D01*
X973629D01*
X974462Y544865D01*
Y546531D01*
X972796D01*
X976128Y544032D02*
Y549030D01*
X979460Y544032D01*
Y549030D01*
X981126D02*
Y544032D01*
X983625D01*
X984458Y544865D01*
Y548197D01*
X983625Y549030D01*
X981126D01*
X1004154Y547032D02*
Y552030D01*
X1006653D01*
X1007486Y551197D01*
Y549531D01*
X1006653Y548698D01*
X1004154D01*
X1009152Y547032D02*
X1010818D01*
X1009985D01*
Y552030D01*
X1009152Y551197D01*
X1013318Y546199D02*
X1016650D01*
X1020815Y547032D02*
Y552030D01*
X1018316Y549531D01*
X1021648D01*
X1036643Y551197D02*
X1035810Y552030D01*
X1034144D01*
X1033311Y551197D01*
Y547865D01*
X1034144Y547032D01*
X1035810D01*
X1036643Y547865D01*
Y549531D01*
X1034977D01*
X1038309Y547032D02*
Y552030D01*
X1041642Y547032D01*
Y552030D01*
X1043308D02*
Y547032D01*
X1045807D01*
X1046640Y547865D01*
Y551197D01*
X1045807Y552030D01*
X1043308D01*
X1058303Y547032D02*
Y552030D01*
X1060802D01*
X1061635Y551197D01*
Y549531D01*
X1060802Y548698D01*
X1058303D01*
X1059969D02*
X1061635Y547032D01*
X1066634Y551197D02*
X1065800Y552030D01*
X1064134D01*
X1063301Y551197D01*
Y550364D01*
X1064134Y549531D01*
X1065800D01*
X1066634Y548698D01*
Y547865D01*
X1065800Y547032D01*
X1064134D01*
X1063301Y547865D01*
X1068300Y552030D02*
X1071632D01*
X1069966D01*
Y547032D01*
X1083295Y551197D02*
X1084128Y552030D01*
X1085794D01*
X1086627Y551197D01*
Y550364D01*
X1085794Y549531D01*
X1084961D01*
X1085794D01*
X1086627Y548698D01*
Y547865D01*
X1085794Y547032D01*
X1084128D01*
X1083295Y547865D01*
X1088293Y547032D02*
Y547865D01*
X1089126D01*
Y547032D01*
X1088293D01*
X1092458Y551197D02*
X1093291Y552030D01*
X1094958D01*
X1095791Y551197D01*
Y550364D01*
X1094958Y549531D01*
X1094125D01*
X1094958D01*
X1095791Y548698D01*
Y547865D01*
X1094958Y547032D01*
X1093291D01*
X1092458Y547865D01*
X1097457Y552030D02*
Y548698D01*
X1099123Y547032D01*
X1100789Y548698D01*
Y552030D01*
X1004154Y538164D02*
Y543162D01*
X1006653D01*
X1007486Y542329D01*
Y540663D01*
X1006653Y539830D01*
X1004154D01*
X1009152Y538164D02*
X1010818D01*
X1009985D01*
Y543162D01*
X1009152Y542329D01*
X1013318Y537331D02*
X1016650D01*
X1021648Y543162D02*
X1018316D01*
Y540663D01*
X1019982Y541496D01*
X1020815D01*
X1021648Y540663D01*
Y538997D01*
X1020815Y538164D01*
X1019149D01*
X1018316Y538997D01*
X1033311Y538164D02*
Y543162D01*
X1035810D01*
X1036643Y542329D01*
Y540663D01*
X1035810Y539830D01*
X1033311D01*
X1041642Y538164D02*
X1038309D01*
X1041642Y541496D01*
Y542329D01*
X1040809Y543162D01*
X1039143D01*
X1038309Y542329D01*
X1043308Y537331D02*
X1046640D01*
X1048306Y538164D02*
X1049972D01*
X1049139D01*
Y543162D01*
X1048306Y542329D01*
X1057470Y543162D02*
X1060802D01*
X1059136D01*
Y538164D01*
X1065800Y542329D02*
X1064967Y543162D01*
X1063301D01*
X1062468Y542329D01*
Y538997D01*
X1063301Y538164D01*
X1064967D01*
X1065800Y538997D01*
X1067467Y543162D02*
Y538164D01*
Y539830D01*
X1070799Y543162D01*
X1068300Y540663D01*
X1070799Y538164D01*
X1082462Y543162D02*
X1085794D01*
X1084128D01*
Y538164D01*
X1087460D02*
Y543162D01*
X1089126Y541496D01*
X1090792Y543162D01*
Y538164D01*
X1095791Y542329D02*
X1094958Y543162D01*
X1093291D01*
X1092458Y542329D01*
Y541496D01*
X1093291Y540663D01*
X1094958D01*
X1095791Y539830D01*
Y538997D01*
X1094958Y538164D01*
X1093291D01*
X1092458Y538997D01*
X1095154Y772032D02*
Y775364D01*
X1096820Y777030D01*
X1098486Y775364D01*
Y772032D01*
Y774531D01*
X1095154D01*
X1100152Y771199D02*
X1103485D01*
X1105151Y777030D02*
Y772032D01*
Y774531D01*
X1108483D01*
Y777030D01*
Y772032D01*
X1120146D02*
Y775364D01*
X1121812Y777030D01*
X1123478Y775364D01*
Y772032D01*
Y774531D01*
X1120146D01*
X1125144Y771199D02*
X1128476D01*
X1130143Y777030D02*
Y772032D01*
X1133475D01*
X1140139Y777030D02*
Y772032D01*
X1142638D01*
X1143472Y772865D01*
Y773698D01*
X1142638Y774531D01*
X1140139D01*
X1142638D01*
X1143472Y775364D01*
Y776197D01*
X1142638Y777030D01*
X1140139D01*
X1148470D02*
X1145138D01*
Y772032D01*
X1148470D01*
X1145138Y774531D02*
X1146804D01*
X1150136Y772032D02*
Y777030D01*
X1151802Y775364D01*
X1153468Y777030D01*
Y772032D01*
X1158467Y777030D02*
X1155134D01*
Y774531D01*
X1156801D01*
X1155134D01*
Y772032D01*
X1160133Y771199D02*
X1163465D01*
X1165131Y772032D02*
Y775364D01*
X1166797Y777030D01*
X1168463Y775364D01*
Y772032D01*
Y774531D01*
X1165131D01*
X957154Y777030D02*
Y772032D01*
X959653D01*
X960486Y772865D01*
Y773698D01*
X959653Y774531D01*
X957154D01*
X959653D01*
X960486Y775364D01*
Y776197D01*
X959653Y777030D01*
X957154D01*
X962152Y771199D02*
X965485D01*
X967151Y777030D02*
Y772032D01*
Y774531D01*
X970483D01*
Y777030D01*
Y772032D01*
X982146Y777030D02*
Y772032D01*
X984645D01*
X985478Y772865D01*
Y773698D01*
X984645Y774531D01*
X982146D01*
X984645D01*
X985478Y775364D01*
Y776197D01*
X984645Y777030D01*
X982146D01*
X987144Y771199D02*
X990477D01*
X992143Y777030D02*
Y772032D01*
X995475D01*
X1002139Y777030D02*
Y772032D01*
X1004639D01*
X1005471Y772865D01*
Y773698D01*
X1004639Y774531D01*
X1002139D01*
X1004639D01*
X1005471Y775364D01*
Y776197D01*
X1004639Y777030D01*
X1002139D01*
X1010470D02*
X1007138D01*
Y772032D01*
X1010470D01*
X1007138Y774531D02*
X1008804D01*
X1012136Y772032D02*
Y777030D01*
X1013802Y775364D01*
X1015468Y777030D01*
Y772032D01*
X1020467Y777030D02*
X1017134D01*
Y774531D01*
X1018801D01*
X1017134D01*
Y772032D01*
X1022133Y771199D02*
X1025465D01*
X1027131Y777030D02*
Y772032D01*
X1029630D01*
X1030463Y772865D01*
Y773698D01*
X1029630Y774531D01*
X1027131D01*
X1029630D01*
X1030463Y775364D01*
Y776197D01*
X1029630Y777030D01*
X1027131D01*
X822486Y776197D02*
X821653Y777030D01*
X819987D01*
X819154Y776197D01*
Y772865D01*
X819987Y772032D01*
X821653D01*
X822486Y772865D01*
X824152Y771199D02*
X827485D01*
X829151Y777030D02*
Y772032D01*
Y774531D01*
X832483D01*
Y777030D01*
Y772032D01*
X847478Y776197D02*
X846645Y777030D01*
X844979D01*
X844146Y776197D01*
Y772865D01*
X844979Y772032D01*
X846645D01*
X847478Y772865D01*
X849144Y771199D02*
X852476D01*
X854143Y777030D02*
Y772032D01*
X857475D01*
X864139Y777030D02*
Y772032D01*
X866638D01*
X867471Y772865D01*
Y773698D01*
X866638Y774531D01*
X864139D01*
X866638D01*
X867471Y775364D01*
Y776197D01*
X866638Y777030D01*
X864139D01*
X872470D02*
X869138D01*
Y772032D01*
X872470D01*
X869138Y774531D02*
X870804D01*
X874136Y772032D02*
Y777030D01*
X875802Y775364D01*
X877468Y777030D01*
Y772032D01*
X882467Y777030D02*
X879134D01*
Y774531D01*
X880800D01*
X879134D01*
Y772032D01*
X884133Y771199D02*
X887465D01*
X892463Y776197D02*
X891630Y777030D01*
X889964D01*
X889131Y776197D01*
Y772865D01*
X889964Y772032D01*
X891630D01*
X892463Y772865D01*
X688154Y799030D02*
X689820D01*
X688987D01*
Y794032D01*
X688154D01*
X689820D01*
X692319Y793199D02*
X695652D01*
X699817Y799030D02*
X698151D01*
X697318Y798197D01*
Y794865D01*
X698151Y794032D01*
X699817D01*
X700650Y794865D01*
Y798197D01*
X699817Y799030D01*
X702316D02*
Y794865D01*
X703149Y794032D01*
X704815D01*
X705648Y794865D01*
Y799030D01*
X707314D02*
X710647D01*
X708980D01*
Y794032D01*
X717311Y799030D02*
Y794032D01*
X719810D01*
X720643Y794865D01*
Y798197D01*
X719810Y799030D01*
X717311D01*
X725642Y798197D02*
X724809Y799030D01*
X723143D01*
X722309Y798197D01*
Y794865D01*
X723143Y794032D01*
X724809D01*
X725642Y794865D01*
X727308Y793199D02*
X730640D01*
X735639Y799030D02*
X732306D01*
Y796531D01*
X733972D01*
X732306D01*
Y794032D01*
X737305Y799030D02*
Y794032D01*
X739804D01*
X740637Y794865D01*
Y795698D01*
X739804Y796531D01*
X737305D01*
X739804D01*
X740637Y797364D01*
Y798197D01*
X739804Y799030D01*
X737305D01*
X747301D02*
X750634D01*
X748967D01*
Y794032D01*
X754799D02*
X753133D01*
X752300Y794865D01*
Y796531D01*
X753133Y797364D01*
X754799D01*
X755632Y796531D01*
Y795698D01*
X752300D01*
X757298Y794032D02*
Y797364D01*
X758131D01*
X758964Y796531D01*
Y794032D01*
Y796531D01*
X759797Y797364D01*
X760630Y796531D01*
Y794032D01*
X762296Y792366D02*
Y797364D01*
X764796D01*
X765629Y796531D01*
Y794865D01*
X764796Y794032D01*
X762296D01*
X772293Y798197D02*
X773126Y799030D01*
X774792D01*
X775625Y798197D01*
Y797364D01*
X774792Y796531D01*
X773959D01*
X774792D01*
X775625Y795698D01*
Y794865D01*
X774792Y794032D01*
X773126D01*
X772293Y794865D01*
X777291Y794032D02*
Y794865D01*
X778125D01*
Y794032D01*
X777291D01*
X781457Y798197D02*
X782290Y799030D01*
X783956D01*
X784789Y798197D01*
Y797364D01*
X783956Y796531D01*
X783123D01*
X783956D01*
X784789Y795698D01*
Y794865D01*
X783956Y794032D01*
X782290D01*
X781457Y794865D01*
X786455Y799030D02*
Y795698D01*
X788121Y794032D01*
X789787Y795698D01*
Y799030D01*
X799784Y798197D02*
X798951Y799030D01*
X797285D01*
X796452Y798197D01*
Y794865D01*
X797285Y794032D01*
X798951D01*
X799784Y794865D01*
Y796531D01*
X798118D01*
X801450Y794032D02*
Y799030D01*
X804782Y794032D01*
Y799030D01*
X806449D02*
Y794032D01*
X808948D01*
X809781Y794865D01*
Y798197D01*
X808948Y799030D01*
X806449D01*
X672654Y588032D02*
Y591364D01*
X674320Y593030D01*
X675986Y591364D01*
Y588032D01*
Y590531D01*
X672654D01*
X682651Y593030D02*
Y588032D01*
X685150D01*
X685983Y588865D01*
Y589698D01*
X685150Y590531D01*
X682651D01*
X685150D01*
X685983Y591364D01*
Y592197D01*
X685150Y593030D01*
X682651D01*
X695980Y592197D02*
X695147Y593030D01*
X693481D01*
X692647Y592197D01*
Y588865D01*
X693481Y588032D01*
X695147D01*
X695980Y588865D01*
X705976Y592197D02*
X705143Y593030D01*
X703477D01*
X702644Y592197D01*
Y588865D01*
X703477Y588032D01*
X705143D01*
X705976Y588865D01*
Y590531D01*
X704310D01*
X707643Y588032D02*
Y593030D01*
X710975Y588032D01*
Y593030D01*
X712641D02*
Y588032D01*
X715140D01*
X715973Y588865D01*
Y592197D01*
X715140Y593030D01*
X712641D01*
X722638Y592197D02*
X723471Y593030D01*
X725137D01*
X725970Y592197D01*
Y591364D01*
X725137Y590531D01*
X724304D01*
X725137D01*
X725970Y589698D01*
Y588865D01*
X725137Y588032D01*
X723471D01*
X722638Y588865D01*
X727636Y588032D02*
Y588865D01*
X728469D01*
Y588032D01*
X727636D01*
X731801Y592197D02*
X732634Y593030D01*
X734301D01*
X735134Y592197D01*
Y591364D01*
X734301Y590531D01*
X733467D01*
X734301D01*
X735134Y589698D01*
Y588865D01*
X734301Y588032D01*
X732634D01*
X731801Y588865D01*
X736800Y593030D02*
Y589698D01*
X738466Y588032D01*
X740132Y589698D01*
Y593030D01*
X1177319Y577032D02*
X1178152Y576199D01*
Y574533D01*
X1177319Y573700D01*
X1176486D01*
X1175653Y574533D01*
Y575366D01*
Y574533D01*
X1174820Y573700D01*
X1173987D01*
X1173154Y574533D01*
Y576199D01*
X1173987Y577032D01*
X1173154Y572034D02*
X1173987D01*
Y571201D01*
X1173154D01*
Y572034D01*
X1177319Y567868D02*
X1178152Y567035D01*
Y565369D01*
X1177319Y564536D01*
X1176486D01*
X1175653Y565369D01*
Y566202D01*
Y565369D01*
X1174820Y564536D01*
X1173987D01*
X1173154Y565369D01*
Y567035D01*
X1173987Y567868D01*
X1178152Y562870D02*
X1174820D01*
X1173154Y561204D01*
X1174820Y559538D01*
X1178152D01*
X1173154Y547875D02*
X1178152D01*
Y545376D01*
X1177319Y544543D01*
X1175653D01*
X1174820Y545376D01*
Y547875D01*
Y546209D02*
X1173154Y544543D01*
X1178152Y542877D02*
X1173154Y539544D01*
X1178152D02*
X1173154Y542877D01*
X1178152Y522883D02*
Y519551D01*
Y521217D01*
X1173154D01*
X1178152Y517885D02*
X1173154Y514552D01*
X1178152D02*
X1173154Y517885D01*
X1177319Y499557D02*
X1178152Y500390D01*
Y502057D01*
X1177319Y502890D01*
X1173987D01*
X1173154Y502057D01*
Y500390D01*
X1173987Y499557D01*
X1175653D01*
Y501223D01*
X1173154Y497891D02*
X1178152D01*
X1173154Y494559D01*
X1178152D01*
Y492893D02*
X1173154D01*
Y490394D01*
X1173987Y489561D01*
X1177319D01*
X1178152Y490394D01*
Y492893D01*
D75*
X656202Y838538D02*
G03*
X650106Y838538I-3048J0D01*
G01*
X637660Y869526D02*
X668648D01*
X637660Y838538D02*
X668648D01*
X621154Y529380D02*
Y523032D01*
Y526206D01*
X625386D01*
Y529380D01*
Y523032D01*
X631734D02*
X627502D01*
X631734Y527264D01*
Y528322D01*
X630676Y529380D01*
X628560D01*
X627502Y528322D01*
X1181254Y1263380D02*
Y1257032D01*
Y1260206D01*
X1185486D01*
Y1263380D01*
Y1257032D01*
X1187602D02*
X1189718D01*
X1188660D01*
Y1263380D01*
X1187602Y1262322D01*
X602887Y1123314D02*
X601829Y1124372D01*
X599713D01*
X598655Y1123314D01*
Y1119082D01*
X599713Y1118024D01*
X601829D01*
X602887Y1119082D01*
X605003Y1118024D02*
X607119D01*
X606061D01*
Y1124372D01*
X605003Y1123314D01*
X665819Y1320698D02*
X664761Y1321756D01*
X662645D01*
X661587Y1320698D01*
Y1316466D01*
X662645Y1315408D01*
X664761D01*
X665819Y1316466D01*
X672167Y1315408D02*
X667935D01*
X672167Y1319640D01*
Y1320698D01*
X671109Y1321756D01*
X668993D01*
X667935Y1320698D01*
X1103490Y1317483D02*
Y1321715D01*
X1102432Y1322773D01*
X1100316D01*
X1099258Y1321715D01*
Y1317483D01*
X1100316Y1316425D01*
X1102432D01*
X1101374Y1318541D02*
X1103490Y1316425D01*
X1102432D02*
X1103490Y1317483D01*
X1105606Y1316425D02*
X1107722D01*
X1106664D01*
Y1322773D01*
X1105606Y1321715D01*
X962098Y1315192D02*
Y1319424D01*
X961040Y1320482D01*
X958924D01*
X957866Y1319424D01*
Y1315192D01*
X958924Y1314134D01*
X961040D01*
X959982Y1316250D02*
X962098Y1314134D01*
X961040D02*
X962098Y1315192D01*
X968446Y1314134D02*
X964214D01*
X968446Y1318366D01*
Y1319424D01*
X967388Y1320482D01*
X965272D01*
X964214Y1319424D01*
X816356Y1315126D02*
Y1319358D01*
X815298Y1320416D01*
X813182D01*
X812124Y1319358D01*
Y1315126D01*
X813182Y1314068D01*
X815298D01*
X814240Y1316184D02*
X816356Y1314068D01*
X815298D02*
X816356Y1315126D01*
X818472Y1319358D02*
X819530Y1320416D01*
X821646D01*
X822704Y1319358D01*
Y1318300D01*
X821646Y1317242D01*
X820588D01*
X821646D01*
X822704Y1316184D01*
Y1315126D01*
X821646Y1314068D01*
X819530D01*
X818472Y1315126D01*
X1049706Y1099020D02*
Y1103252D01*
X1048648Y1104310D01*
X1046532D01*
X1045474Y1103252D01*
Y1099020D01*
X1046532Y1097962D01*
X1048648D01*
X1047590Y1100078D02*
X1049706Y1097962D01*
X1048648D02*
X1049706Y1099020D01*
X1054996Y1097962D02*
Y1104310D01*
X1051822Y1101136D01*
X1056054D01*
X910484Y1100798D02*
Y1105030D01*
X909426Y1106088D01*
X907310D01*
X906252Y1105030D01*
Y1100798D01*
X907310Y1099740D01*
X909426D01*
X908368Y1101856D02*
X910484Y1099740D01*
X909426D02*
X910484Y1100798D01*
X916832Y1106088D02*
X912600D01*
Y1102914D01*
X914716Y1103972D01*
X915774D01*
X916832Y1102914D01*
Y1100798D01*
X915774Y1099740D01*
X913658D01*
X912600Y1100798D01*
X765028Y1100036D02*
Y1104268D01*
X763970Y1105326D01*
X761854D01*
X760796Y1104268D01*
Y1100036D01*
X761854Y1098978D01*
X763970D01*
X762912Y1101094D02*
X765028Y1098978D01*
X763970D02*
X765028Y1100036D01*
X771376Y1105326D02*
X769260Y1104268D01*
X767144Y1102152D01*
Y1100036D01*
X768202Y1098978D01*
X770318D01*
X771376Y1100036D01*
Y1101094D01*
X770318Y1102152D01*
X767144D01*
X1161200Y1004635D02*
Y1010983D01*
X1164374D01*
X1165433Y1009925D01*
Y1007809D01*
X1164374Y1006751D01*
X1161200D01*
X1163316D02*
X1165433Y1004635D01*
X1167548D02*
X1169664D01*
X1168606D01*
Y1010983D01*
X1167548Y1009925D01*
X1176012Y1004635D02*
Y1010983D01*
X1172838Y1007809D01*
X1177070D01*
X1017058Y1004504D02*
Y1010852D01*
X1020232D01*
X1021290Y1009794D01*
Y1007678D01*
X1020232Y1006620D01*
X1017058D01*
X1019174D02*
X1021290Y1004504D01*
X1023406D02*
X1025522D01*
X1024464D01*
Y1010852D01*
X1023406Y1009794D01*
X1032928Y1010852D02*
X1028696D01*
Y1007678D01*
X1030812Y1008736D01*
X1031870D01*
X1032928Y1007678D01*
Y1005562D01*
X1031870Y1004504D01*
X1029754D01*
X1028696Y1005562D01*
X876788Y1004076D02*
Y1010424D01*
X879962D01*
X881020Y1009366D01*
Y1007250D01*
X879962Y1006192D01*
X876788D01*
X878904D02*
X881020Y1004076D01*
X883136D02*
X885252D01*
X884194D01*
Y1010424D01*
X883136Y1009366D01*
X892658Y1010424D02*
X890542Y1009366D01*
X888426Y1007250D01*
Y1005134D01*
X889484Y1004076D01*
X891600D01*
X892658Y1005134D01*
Y1006192D01*
X891600Y1007250D01*
X888426D01*
X1008386Y1135117D02*
X1007328Y1134059D01*
Y1131943D01*
X1008386Y1130885D01*
X1012618D01*
X1013676Y1131943D01*
Y1134059D01*
X1012618Y1135117D01*
X1013676Y1137233D02*
Y1139349D01*
Y1138291D01*
X1007328D01*
X1008386Y1137233D01*
X1013676Y1145697D02*
X1007328D01*
X1010502Y1142523D01*
Y1146755D01*
X1145864Y1099929D02*
X1144806Y1098871D01*
Y1096755D01*
X1145864Y1095697D01*
X1150096D01*
X1151154Y1096755D01*
Y1098871D01*
X1150096Y1099929D01*
X1151154Y1102045D02*
Y1104161D01*
Y1103103D01*
X1144806D01*
X1145864Y1102045D01*
X1144806Y1111567D02*
X1145864Y1109451D01*
X1147980Y1107335D01*
X1150096D01*
X1151154Y1108393D01*
Y1110509D01*
X1150096Y1111567D01*
X1149038D01*
X1147980Y1110509D01*
Y1107335D01*
X1165026Y1234030D02*
Y1240378D01*
X1168200D01*
X1169258Y1239320D01*
Y1237204D01*
X1168200Y1236146D01*
X1165026D01*
X1167142D02*
X1169258Y1234030D01*
X1171374D02*
X1173490D01*
X1172432D01*
Y1240378D01*
X1171374Y1239320D01*
X1012994Y1200559D02*
X1006646D01*
Y1203733D01*
X1007704Y1204791D01*
X1009820D01*
X1010878Y1203733D01*
Y1200559D01*
Y1202675D02*
X1012994Y1204791D01*
Y1211139D02*
Y1206907D01*
X1008762Y1211139D01*
X1007704D01*
X1006646Y1210081D01*
Y1207965D01*
X1007704Y1206907D01*
X1149743Y1136299D02*
X1148685Y1135241D01*
Y1133125D01*
X1149743Y1132067D01*
X1153975D01*
X1155033Y1133125D01*
Y1135241D01*
X1153975Y1136299D01*
X1155033Y1138415D02*
Y1140531D01*
Y1139473D01*
X1148685D01*
X1149743Y1138415D01*
Y1143705D02*
X1148685Y1144763D01*
Y1146879D01*
X1149743Y1147937D01*
X1150801D01*
X1151859Y1146879D01*
Y1145821D01*
Y1146879D01*
X1152917Y1147937D01*
X1153975D01*
X1155033Y1146879D01*
Y1144763D01*
X1153975Y1143705D01*
X864386Y1136070D02*
X863328Y1135012D01*
Y1132896D01*
X864386Y1131838D01*
X868618D01*
X869676Y1132896D01*
Y1135012D01*
X868618Y1136070D01*
X869676Y1138186D02*
Y1140302D01*
Y1139244D01*
X863328D01*
X864386Y1138186D01*
X863328Y1147708D02*
Y1143476D01*
X866502D01*
X865444Y1145592D01*
Y1146650D01*
X866502Y1147708D01*
X868618D01*
X869676Y1146650D01*
Y1144534D01*
X868618Y1143476D01*
X1006864Y1097264D02*
X1005806Y1096206D01*
Y1094090D01*
X1006864Y1093032D01*
X1011096D01*
X1012154Y1094090D01*
Y1096206D01*
X1011096Y1097264D01*
X1012154Y1099380D02*
Y1101496D01*
Y1100438D01*
X1005806D01*
X1006864Y1099380D01*
X1005806Y1104670D02*
Y1108902D01*
X1006864D01*
X1011096Y1104670D01*
X1012154D01*
X862955Y1096264D02*
X861897Y1095206D01*
Y1093090D01*
X862955Y1092032D01*
X867187D01*
X868245Y1093090D01*
Y1095206D01*
X867187Y1096264D01*
X868245Y1098380D02*
Y1100496D01*
Y1099438D01*
X861897D01*
X862955Y1098380D01*
Y1103670D02*
X861897Y1104728D01*
Y1106844D01*
X862955Y1107902D01*
X864013D01*
X865071Y1106844D01*
X866129Y1107902D01*
X867187D01*
X868245Y1106844D01*
Y1104728D01*
X867187Y1103670D01*
X866129D01*
X865071Y1104728D01*
X864013Y1103670D01*
X862955D01*
X865071Y1104728D02*
Y1106844D01*
X869930Y1201524D02*
X863582D01*
Y1204698D01*
X864640Y1205756D01*
X866756D01*
X867814Y1204698D01*
Y1201524D01*
Y1203640D02*
X869930Y1205756D01*
X864640Y1207872D02*
X863582Y1208930D01*
Y1211046D01*
X864640Y1212104D01*
X865698D01*
X866756Y1211046D01*
Y1209988D01*
Y1211046D01*
X867814Y1212104D01*
X868872D01*
X869930Y1211046D01*
Y1208930D01*
X868872Y1207872D01*
X1078956Y1048521D02*
Y1054869D01*
X1082130D01*
X1083188Y1053811D01*
Y1051695D01*
X1082130Y1050637D01*
X1078956D01*
X1085304Y1054869D02*
Y1048521D01*
Y1051695D01*
X1089536D01*
Y1054869D01*
Y1048521D01*
X1091652D02*
Y1052753D01*
X1093768Y1054869D01*
X1095884Y1052753D01*
Y1048521D01*
Y1051695D01*
X1091652D01*
X933712Y1049537D02*
Y1055885D01*
X936886D01*
X937944Y1054827D01*
Y1052711D01*
X936886Y1051653D01*
X933712D01*
X940060Y1055885D02*
Y1049537D01*
Y1052711D01*
X944292D01*
Y1055885D01*
Y1049537D01*
X946408Y1055885D02*
Y1049537D01*
X949582D01*
X950640Y1050595D01*
Y1051653D01*
X949582Y1052711D01*
X946408D01*
X949582D01*
X950640Y1053769D01*
Y1054827D01*
X949582Y1055885D01*
X946408D01*
X790015Y1049537D02*
Y1055885D01*
X793189D01*
X794247Y1054827D01*
Y1052711D01*
X793189Y1051653D01*
X790015D01*
X796363Y1055885D02*
Y1049537D01*
Y1052711D01*
X800595D01*
Y1055885D01*
Y1049537D01*
X806943Y1054827D02*
X805885Y1055885D01*
X803769D01*
X802711Y1054827D01*
Y1050595D01*
X803769Y1049537D01*
X805885D01*
X806943Y1050595D01*
X718508Y1272080D02*
Y1267848D01*
X720624Y1265732D01*
X722740Y1267848D01*
Y1272080D01*
X724856D02*
Y1265732D01*
X728030D01*
X729088Y1266790D01*
Y1271022D01*
X728030Y1272080D01*
X724856D01*
X735436Y1271022D02*
X734378Y1272080D01*
X732262D01*
X731204Y1271022D01*
Y1266790D01*
X732262Y1265732D01*
X734378D01*
X735436Y1266790D01*
X607186Y1271022D02*
X606128Y1272080D01*
X604012D01*
X602954Y1271022D01*
Y1266790D01*
X604012Y1265732D01*
X606128D01*
X607186Y1266790D01*
Y1268906D01*
X605070D01*
X609302Y1265732D02*
Y1272080D01*
X613534Y1265732D01*
Y1272080D01*
X615650D02*
Y1265732D01*
X618824D01*
X619882Y1266790D01*
Y1271022D01*
X618824Y1272080D01*
X615650D01*
D76*
X631654Y638032D02*
D03*
D77*
X687080Y570668D02*
Y577267D01*
X673245D02*
X687080D01*
X673245Y570668D02*
Y577267D01*
Y546796D02*
Y553396D01*
Y546796D02*
X687080D01*
Y553396D01*
X704080Y570668D02*
Y577267D01*
X690245D02*
X704080D01*
X690245Y570668D02*
Y577267D01*
Y546796D02*
Y553396D01*
Y546796D02*
X704080D01*
Y553396D01*
X817080Y591668D02*
Y598268D01*
X803245D02*
X817080D01*
X803245Y591668D02*
Y598268D01*
Y567797D02*
Y574396D01*
Y567797D02*
X817080D01*
Y574396D01*
X786228Y567797D02*
Y574396D01*
Y567797D02*
X800063D01*
Y574396D01*
Y591668D02*
Y598268D01*
X786228D02*
X800063D01*
X786228Y591668D02*
Y598268D01*
X642228Y897668D02*
Y904268D01*
X656063D01*
Y897668D02*
Y904268D01*
Y873796D02*
Y880396D01*
X642228Y873796D02*
X656063D01*
X642228D02*
Y880396D01*
X586154Y830132D02*
X595154D01*
X586154Y805932D02*
Y830132D01*
Y805932D02*
X595154D01*
X625154D02*
X634154D01*
Y830132D01*
X625154D02*
X634154D01*
X854730Y886796D02*
Y893396D01*
X840895Y886796D02*
X854730D01*
X840895D02*
Y893396D01*
Y910668D02*
Y917268D01*
X854730D01*
Y910668D02*
Y917268D01*
X588918Y871106D02*
X595518D01*
X588918D02*
Y884941D01*
X595518D01*
X612790D02*
X619389D01*
Y871106D02*
Y884941D01*
X612790Y871106D02*
X619389D01*
X608918Y612106D02*
X615518D01*
X608918D02*
Y625941D01*
X615518D01*
X632790D02*
X639389D01*
Y612106D02*
Y625941D01*
X632790Y612106D02*
X639389D01*
X953790Y832958D02*
X960389D01*
Y819123D02*
Y832958D01*
X953790Y819123D02*
X960389D01*
X929919D02*
X936518D01*
X929919D02*
Y832958D01*
X936518D01*
X1091790D02*
X1098390D01*
Y819123D02*
Y832958D01*
X1091790Y819123D02*
X1098390D01*
X1067918D02*
X1074518D01*
X1067918D02*
Y832958D01*
X1074518D01*
X690228Y732668D02*
Y739268D01*
X704063D01*
Y732668D02*
Y739268D01*
Y708796D02*
Y715396D01*
X690228Y708796D02*
X704063D01*
X690228D02*
Y715396D01*
X872054Y1064032D02*
Y1073032D01*
Y1064032D02*
X896254D01*
Y1073032D01*
Y1103032D02*
Y1112032D01*
X872054D02*
X896254D01*
X872054Y1103032D02*
Y1112032D01*
X1016054Y1064032D02*
Y1073032D01*
Y1064032D02*
X1040254D01*
Y1073032D01*
Y1103032D02*
Y1112032D01*
X1016054D02*
X1040254D01*
X1016054Y1103032D02*
Y1112032D01*
X1157054Y1064032D02*
Y1073032D01*
Y1064032D02*
X1181254D01*
Y1073032D01*
Y1103032D02*
Y1112032D01*
X1157054D02*
X1181254D01*
X1157054Y1103032D02*
Y1112032D01*
X872054Y1114032D02*
Y1123032D01*
Y1114032D02*
X896254D01*
Y1123032D01*
Y1153032D02*
Y1162032D01*
X872054D02*
X896254D01*
X872054Y1153032D02*
Y1162032D01*
X1016054Y1114032D02*
Y1123032D01*
Y1114032D02*
X1040254D01*
Y1123032D01*
Y1153032D02*
Y1162032D01*
X1016054D02*
X1040254D01*
X1016054Y1153032D02*
Y1162032D01*
X1157054Y1114032D02*
Y1123032D01*
Y1114032D02*
X1181254D01*
Y1123032D01*
Y1153032D02*
Y1162032D01*
X1157054D02*
X1181254D01*
X1157054Y1153032D02*
Y1162032D01*
X1181254Y1053032D02*
Y1062032D01*
X1157054D02*
X1181254D01*
X1157054Y1053032D02*
Y1062032D01*
Y1014032D02*
Y1023032D01*
Y1014032D02*
X1181254D01*
Y1023032D01*
Y1222032D02*
Y1231032D01*
X1157054D02*
X1181254D01*
X1157054Y1222032D02*
Y1231032D01*
Y1183032D02*
Y1192032D01*
Y1183032D02*
X1181254D01*
Y1192032D01*
X1040254Y1053032D02*
Y1062032D01*
X1016054D02*
X1040254D01*
X1016054Y1053032D02*
Y1062032D01*
Y1014032D02*
Y1023032D01*
Y1014032D02*
X1040254D01*
Y1023032D01*
Y1222032D02*
Y1231032D01*
X1016054D02*
X1040254D01*
X1016054Y1222032D02*
Y1231032D01*
Y1183032D02*
Y1192032D01*
Y1183032D02*
X1040254D01*
Y1192032D01*
X896254Y1053032D02*
Y1062032D01*
X872054D02*
X896254D01*
X872054Y1053032D02*
Y1062032D01*
Y1014032D02*
Y1023032D01*
Y1014032D02*
X896254D01*
Y1023032D01*
Y1222032D02*
Y1231032D01*
X872054D02*
X896254D01*
X872054Y1222032D02*
Y1231032D01*
Y1183032D02*
Y1192032D01*
Y1183032D02*
X896254D01*
Y1192032D01*
X1024790Y664106D02*
X1031389D01*
Y677941D01*
X1024790D02*
X1031389D01*
X1000919D02*
X1007518D01*
X1000919Y664106D02*
Y677941D01*
Y664106D02*
X1007518D01*
X1171918Y599208D02*
X1178518D01*
X1171918Y585373D02*
Y599208D01*
Y585373D02*
X1178518D01*
X1195790D02*
X1202390D01*
Y599208D01*
X1195790D02*
X1202390D01*
X802228Y605797D02*
Y612396D01*
Y605797D02*
X816063D01*
Y612396D01*
Y629668D02*
Y636268D01*
X802228D02*
X816063D01*
X802228Y629668D02*
Y636268D01*
X1000919Y617958D02*
X1007518D01*
X1000919Y604123D02*
Y617958D01*
Y604123D02*
X1007518D01*
X1024790D02*
X1031389D01*
Y617958D01*
X1024790D02*
X1031389D01*
X786228Y605797D02*
Y612396D01*
Y605797D02*
X800063D01*
Y612396D01*
Y629668D02*
Y636268D01*
X786228D02*
X800063D01*
X786228Y629668D02*
Y636268D01*
X871080Y538668D02*
Y545267D01*
X857245D02*
X871080D01*
X857245Y538668D02*
Y545267D01*
Y514796D02*
Y521396D01*
Y514796D02*
X871080D01*
Y521396D01*
X1059919Y660958D02*
X1066518D01*
X1059919Y647123D02*
Y660958D01*
Y647123D02*
X1066518D01*
X1083790D02*
X1090389D01*
Y660958D01*
X1083790D02*
X1090389D01*
X1059919Y719958D02*
X1066518D01*
X1059919Y706123D02*
Y719958D01*
Y706123D02*
X1066518D01*
X1083790D02*
X1090389D01*
Y719958D01*
X1083790D02*
X1090389D01*
X650790Y685106D02*
X657390D01*
Y698941D01*
X650790D02*
X657390D01*
X626918D02*
X633518D01*
X626918Y685106D02*
Y698941D01*
Y685106D02*
X633518D01*
X707228Y708796D02*
Y715396D01*
Y708796D02*
X721063D01*
Y715396D01*
Y732668D02*
Y739268D01*
X707228D02*
X721063D01*
X707228Y732668D02*
Y739268D01*
X626918Y715957D02*
X633518D01*
X626918Y702123D02*
Y715957D01*
Y702123D02*
X633518D01*
X650790D02*
X657390D01*
Y715957D01*
X650790D02*
X657390D01*
X684790Y685106D02*
X691389D01*
Y698941D01*
X684790D02*
X691389D01*
X660919D02*
X667518D01*
X660919Y685106D02*
Y698941D01*
Y685106D02*
X667518D01*
X641918Y625957D02*
X648518D01*
X641918Y612123D02*
Y625957D01*
Y612123D02*
X648518D01*
X665790D02*
X672390D01*
Y625957D01*
X665790D02*
X672390D01*
X1100790Y895106D02*
X1107390D01*
Y908941D01*
X1100790D02*
X1107390D01*
X1076918D02*
X1083518D01*
X1076918Y895106D02*
Y908941D01*
Y895106D02*
X1083518D01*
X886918Y847958D02*
X893518D01*
X886918Y834123D02*
Y847958D01*
Y834123D02*
X893518D01*
X910790D02*
X917390D01*
Y847958D01*
X910790D02*
X917390D01*
X1025919D02*
X1032518D01*
X1025919Y834123D02*
Y847958D01*
Y834123D02*
X1032518D01*
X1049790D02*
X1056389D01*
Y847958D01*
X1049790D02*
X1056389D01*
X1163919D02*
X1170518D01*
X1163919Y834123D02*
Y847958D01*
Y834123D02*
X1170518D01*
X1187790D02*
X1194389D01*
Y847958D01*
X1187790D02*
X1194389D01*
X1131080Y910668D02*
Y917268D01*
X1117245D02*
X1131080D01*
X1117245Y910668D02*
Y917268D01*
Y886796D02*
Y893396D01*
Y886796D02*
X1131080D01*
Y893396D01*
X1156080Y910668D02*
Y917268D01*
X1142245D02*
X1156080D01*
X1142245Y910668D02*
Y917268D01*
Y886796D02*
Y893396D01*
Y886796D02*
X1156080D01*
Y893396D01*
X962790Y895106D02*
X969389D01*
Y908941D01*
X962790D02*
X969389D01*
X938919D02*
X945518D01*
X938919Y895106D02*
Y908941D01*
Y895106D02*
X945518D01*
X842228Y514796D02*
Y521396D01*
Y514796D02*
X856063D01*
Y521396D01*
Y538668D02*
Y545267D01*
X842228D02*
X856063D01*
X842228Y538668D02*
Y545267D01*
X809228Y514796D02*
Y521396D01*
Y514796D02*
X823063D01*
Y521396D01*
Y538668D02*
Y545267D01*
X809228D02*
X823063D01*
X809228Y538668D02*
Y545267D01*
X778228Y514796D02*
Y521396D01*
Y514796D02*
X792063D01*
Y521396D01*
Y538668D02*
Y545267D01*
X778228D02*
X792063D01*
X778228Y538668D02*
Y545267D01*
X826228Y514796D02*
Y521396D01*
Y514796D02*
X840063D01*
Y521396D01*
Y538668D02*
Y545267D01*
X826228D02*
X840063D01*
X826228Y538668D02*
Y545267D01*
X793228Y514796D02*
Y521396D01*
Y514796D02*
X807063D01*
Y521396D01*
Y538668D02*
Y545267D01*
X793228D02*
X807063D01*
X793228Y538668D02*
Y545267D01*
X880580Y910668D02*
Y917268D01*
X866745D02*
X880580D01*
X866745Y910668D02*
Y917268D01*
Y886796D02*
Y893396D01*
Y886796D02*
X880580D01*
Y893396D01*
X762228Y514796D02*
Y521396D01*
Y514796D02*
X776063D01*
Y521396D01*
Y538668D02*
Y545267D01*
X762228D02*
X776063D01*
X762228Y538668D02*
Y545267D01*
X693080Y897668D02*
Y904268D01*
X679245D02*
X693080D01*
X679245Y897668D02*
Y904268D01*
Y873796D02*
Y880396D01*
Y873796D02*
X693080D01*
Y880396D01*
X1083790Y676106D02*
X1090389D01*
Y689941D01*
X1083790D02*
X1090389D01*
X1059919D02*
X1066518D01*
X1059919Y676106D02*
Y689941D01*
Y676106D02*
X1066518D01*
X1149380Y636106D02*
X1155980D01*
Y649941D01*
X1149380D02*
X1155980D01*
X1125508D02*
X1132108D01*
X1125508Y636106D02*
Y649941D01*
Y636106D02*
X1132108D01*
X811654Y637532D02*
Y718532D01*
X790654D02*
X811654D01*
X790654Y637532D02*
Y718532D01*
Y637532D02*
X811654D01*
X790654Y659532D02*
X811654D01*
X1001154Y661032D02*
X1031154D01*
X1001154Y621032D02*
Y661032D01*
Y621032D02*
X1031154D01*
Y661032D01*
X663290Y561056D02*
X669890D01*
Y574891D01*
X663290D02*
X669890D01*
X639418D02*
X646018D01*
X639418Y561056D02*
Y574891D01*
Y561056D02*
X646018D01*
X641080Y897668D02*
Y904268D01*
X627245D02*
X641080D01*
X627245Y897668D02*
Y904268D01*
Y873796D02*
Y880396D01*
Y873796D02*
X641080D01*
Y880396D01*
X612790Y836106D02*
X619389D01*
Y849941D01*
X612790D02*
X619389D01*
X588918D02*
X595518D01*
X588918Y836106D02*
Y849941D01*
Y836106D02*
X595518D01*
X588918Y865958D02*
X595518D01*
X588918Y852123D02*
Y865958D01*
Y852123D02*
X595518D01*
X612790D02*
X619389D01*
Y865958D01*
X612790D02*
X619389D01*
X1187790Y817106D02*
X1194389D01*
Y830941D01*
X1187790D02*
X1194389D01*
X1163919D02*
X1170518D01*
X1163919Y817106D02*
Y830941D01*
Y817106D02*
X1170518D01*
X1049790D02*
X1056389D01*
Y830941D01*
X1049790D02*
X1056389D01*
X1025919D02*
X1032518D01*
X1025919Y817106D02*
Y830941D01*
Y817106D02*
X1032518D01*
X910790D02*
X917390D01*
Y830941D01*
X910790D02*
X917390D01*
X886918D02*
X893518D01*
X886918Y817106D02*
Y830941D01*
Y817106D02*
X893518D01*
X672080Y897668D02*
Y904268D01*
X658245D02*
X672080D01*
X658245Y897668D02*
Y904268D01*
Y873796D02*
Y880396D01*
Y873796D02*
X672080D01*
Y880396D01*
X695228Y873796D02*
Y880396D01*
Y873796D02*
X709063D01*
Y880396D01*
Y897668D02*
Y904268D01*
X695228D02*
X709063D01*
X695228Y897668D02*
Y904268D01*
X642564Y807999D02*
X689618D01*
X642564Y828065D02*
X689618D01*
X792918Y832958D02*
X799518D01*
X792918Y819123D02*
Y832958D01*
Y819123D02*
X799518D01*
X816790D02*
X823390D01*
Y832958D01*
X816790D02*
X823390D01*
X823790Y895106D02*
X830389D01*
Y908941D01*
X823790D02*
X830389D01*
X799919D02*
X806518D01*
X799919Y895106D02*
Y908941D01*
Y895106D02*
X806518D01*
X1018130Y910668D02*
Y917268D01*
X1004295D02*
X1018130D01*
X1004295Y910668D02*
Y917268D01*
Y886796D02*
Y893396D01*
Y886796D02*
X1018130D01*
Y893396D01*
X992730Y910668D02*
Y917268D01*
X978895D02*
X992730D01*
X978895Y910668D02*
Y917268D01*
Y886796D02*
Y893396D01*
Y886796D02*
X992730D01*
Y893396D01*
X1073994Y882192D02*
Y890828D01*
X1084154D01*
X1094314D01*
Y882192D02*
Y890828D01*
Y853236D02*
Y861872D01*
X1084154Y853236D02*
X1094314D01*
X1073994D02*
X1084154D01*
X1073994D02*
Y861872D01*
X935994Y882192D02*
Y890828D01*
X946154D01*
X956314D01*
Y882192D02*
Y890828D01*
Y853236D02*
Y861872D01*
X946154Y853236D02*
X956314D01*
X935994D02*
X946154D01*
X935994D02*
Y861872D01*
X798994Y882192D02*
Y890828D01*
X809154D01*
X819314D01*
Y882192D02*
Y890828D01*
Y853236D02*
Y861872D01*
X809154Y853236D02*
X819314D01*
X798994D02*
X809154D01*
X798994D02*
Y861872D01*
X760978Y885853D02*
Y892452D01*
Y885853D02*
X774813D01*
Y892452D01*
Y909725D02*
Y916324D01*
X760978D02*
X774813D01*
X760978Y909725D02*
Y916324D01*
X582994Y662192D02*
Y670828D01*
X593154D01*
X603314D01*
Y662192D02*
Y670828D01*
Y633236D02*
Y641872D01*
X593154Y633236D02*
X603314D01*
X582994D02*
X593154D01*
X582994D02*
Y641872D01*
X730994Y652192D02*
Y660828D01*
X741154D01*
X751314D01*
Y652192D02*
Y660828D01*
Y623236D02*
Y631872D01*
X741154Y623236D02*
X751314D01*
X730994D02*
X741154D01*
X730994D02*
Y631872D01*
X706994Y652192D02*
Y660828D01*
X717154D01*
X727314D01*
Y652192D02*
Y660828D01*
Y623236D02*
Y631872D01*
X717154Y623236D02*
X727314D01*
X706994D02*
X717154D01*
X706994D02*
Y631872D01*
X1059919Y645958D02*
X1066518D01*
X1059919Y632123D02*
Y645958D01*
Y632123D02*
X1066518D01*
X1083790D02*
X1090389D01*
Y645958D01*
X1083790D02*
X1090389D01*
X1083790Y722106D02*
X1090389D01*
Y735941D01*
X1083790D02*
X1090389D01*
X1059919D02*
X1066518D01*
X1059919Y722106D02*
Y735941D01*
Y722106D02*
X1066518D01*
X1059919Y674958D02*
X1066518D01*
X1059919Y661123D02*
Y674958D01*
Y661123D02*
X1066518D01*
X1083790D02*
X1090389D01*
Y674958D01*
X1083790D02*
X1090389D01*
X1059919Y704958D02*
X1066518D01*
X1059919Y691123D02*
Y704958D01*
Y691123D02*
X1066518D01*
X1083790D02*
X1090389D01*
Y704958D01*
X1083790D02*
X1090389D01*
D78*
X1129976Y694410D02*
X1184332D01*
X1129976D02*
X1157154Y741484D01*
X1184332Y694410D01*
D79*
X779504Y588332D02*
Y613732D01*
D80*
X1092154Y478828D02*
D03*
X982154Y478833D02*
D03*
D81*
X592028Y713031D02*
D03*
D82*
X678155Y737544D02*
D03*
D83*
X688602Y818034D02*
D03*
M02*
