%FSLAX44Y44*%
%MOMM*%
G71*
G01*
G75*
%ADD10R,0.9500X1.0000*%
%ADD11R,7.0000X7.0000*%
%ADD12O,0.3000X1.6500*%
%ADD13O,1.6500X0.3000*%
%ADD14R,1.3000X1.8500*%
%ADD15R,1.0000X0.9500*%
%ADD16R,1.8500X1.3000*%
G04:AMPARAMS|DCode=17|XSize=1.05mm|YSize=3.82mm|CornerRadius=0.0525mm|HoleSize=0mm|Usage=FLASHONLY|Rotation=180.000|XOffset=0mm|YOffset=0mm|HoleType=Round|Shape=RoundedRectangle|*
%AMROUNDEDRECTD17*
21,1,1.0500,3.7150,0,0,180.0*
21,1,0.9450,3.8200,0,0,180.0*
1,1,0.1050,-0.4725,1.8575*
1,1,0.1050,0.4725,1.8575*
1,1,0.1050,0.4725,-1.8575*
1,1,0.1050,-0.4725,-1.8575*
%
%ADD17ROUNDEDRECTD17*%
G04:AMPARAMS|DCode=18|XSize=7.48mm|YSize=8.55mm|CornerRadius=0.0374mm|HoleSize=0mm|Usage=FLASHONLY|Rotation=90.000|XOffset=0mm|YOffset=0mm|HoleType=Round|Shape=RoundedRectangle|*
%AMROUNDEDRECTD18*
21,1,7.4800,8.4752,0,0,90.0*
21,1,7.4052,8.5500,0,0,90.0*
1,1,0.0748,4.2376,3.7026*
1,1,0.0748,4.2376,-3.7026*
1,1,0.0748,-4.2376,-3.7026*
1,1,0.0748,-4.2376,3.7026*
%
%ADD18ROUNDEDRECTD18*%
G04:AMPARAMS|DCode=19|XSize=0.6mm|YSize=1mm|CornerRadius=0.15mm|HoleSize=0mm|Usage=FLASHONLY|Rotation=90.000|XOffset=0mm|YOffset=0mm|HoleType=Round|Shape=RoundedRectangle|*
%AMROUNDEDRECTD19*
21,1,0.6000,0.7000,0,0,90.0*
21,1,0.3000,1.0000,0,0,90.0*
1,1,0.3000,0.3500,0.1500*
1,1,0.3000,0.3500,-0.1500*
1,1,0.3000,-0.3500,-0.1500*
1,1,0.3000,-0.3500,0.1500*
%
%ADD19ROUNDEDRECTD19*%
%ADD20R,1.0000X0.6000*%
%ADD21R,2.1000X5.8000*%
%ADD22R,0.8000X0.6000*%
%ADD23R,1.6000X3.9000*%
%ADD24R,0.5000X0.6000*%
%ADD25R,0.6000X0.8000*%
%ADD26O,0.6000X1.9000*%
%ADD27R,0.6000X1.2000*%
%ADD28R,1.1500X1.4000*%
%ADD29R,1.8000X1.9000*%
%ADD30R,2.3000X1.9000*%
%ADD31R,0.4000X1.4000*%
%ADD32R,0.8000X0.8000*%
%ADD33R,1.0000X0.4000*%
%ADD34R,0.9000X1.4000*%
%ADD35R,2.2000X1.4000*%
%ADD36R,0.6500X0.4000*%
%ADD37R,1.6002X1.2700*%
%ADD38R,2.2000X1.1000*%
%ADD39C,1.2000*%
%ADD40C,0.2500*%
%ADD41C,0.2540*%
%ADD42C,0.5000*%
%ADD43C,0.4000*%
%ADD44C,1.0160*%
%ADD45C,1.1000*%
%ADD46C,0.8000*%
%ADD47C,0.7500*%
%ADD48C,0.7620*%
%ADD49C,1.0000*%
%ADD50C,0.6000*%
%ADD51C,0.2032*%
%ADD52C,0.3500*%
%ADD53C,2.0000*%
%ADD54C,1.5000*%
%ADD55R,1.5000X1.5000*%
%ADD56R,1.5500X1.5500*%
%ADD57C,1.5500*%
G04:AMPARAMS|DCode=58|XSize=1.55mm|YSize=1.55mm|CornerRadius=0.0465mm|HoleSize=0mm|Usage=FLASHONLY|Rotation=180.000|XOffset=0mm|YOffset=0mm|HoleType=Round|Shape=RoundedRectangle|*
%AMROUNDEDRECTD58*
21,1,1.5500,1.4570,0,0,180.0*
21,1,1.4570,1.5500,0,0,180.0*
1,1,0.0930,-0.7285,0.7285*
1,1,0.0930,0.7285,0.7285*
1,1,0.0930,0.7285,-0.7285*
1,1,0.0930,-0.7285,-0.7285*
%
%ADD58ROUNDEDRECTD58*%
%ADD59R,1.5000X1.5000*%
%ADD60R,0.7000X0.7000*%
%ADD61C,0.7000*%
%ADD62C,0.6000*%
%ADD63C,5.0000*%
%ADD64R,2.1590X2.7430*%
G04:AMPARAMS|DCode=65|XSize=3.1mm|YSize=4mm|CornerRadius=0.0465mm|HoleSize=0mm|Usage=FLASHONLY|Rotation=0.000|XOffset=0mm|YOffset=0mm|HoleType=Round|Shape=RoundedRectangle|*
%AMROUNDEDRECTD65*
21,1,3.1000,3.9070,0,0,0.0*
21,1,3.0070,4.0000,0,0,0.0*
1,1,0.0930,1.5035,-1.9535*
1,1,0.0930,-1.5035,-1.9535*
1,1,0.0930,-1.5035,1.9535*
1,1,0.0930,1.5035,1.9535*
%
%ADD65ROUNDEDRECTD65*%
G04:AMPARAMS|DCode=66|XSize=0.6mm|YSize=1mm|CornerRadius=0.051mm|HoleSize=0mm|Usage=FLASHONLY|Rotation=180.000|XOffset=0mm|YOffset=0mm|HoleType=Round|Shape=RoundedRectangle|*
%AMROUNDEDRECTD66*
21,1,0.6000,0.8980,0,0,180.0*
21,1,0.4980,1.0000,0,0,180.0*
1,1,0.1020,-0.2490,0.4490*
1,1,0.1020,0.2490,0.4490*
1,1,0.1020,0.2490,-0.4490*
1,1,0.1020,-0.2490,-0.4490*
%
%ADD66ROUNDEDRECTD66*%
%ADD67R,0.6000X1.0000*%
%ADD68R,1.2000X1.0000*%
%ADD69R,1.2000X0.7000*%
%ADD70R,0.8000X1.0000*%
%ADD71R,2.8000X1.0000*%
%ADD72R,1.9000X1.3000*%
D10*
X680154Y570032D02*
D03*
Y554032D02*
D03*
X697154Y570032D02*
D03*
Y554032D02*
D03*
X810154Y591032D02*
D03*
Y575032D02*
D03*
X793154Y575032D02*
D03*
Y591032D02*
D03*
X649154Y897032D02*
D03*
Y881032D02*
D03*
X847804Y894032D02*
D03*
Y910032D02*
D03*
X697154Y732032D02*
D03*
Y716032D02*
D03*
X809154Y613032D02*
D03*
Y629032D02*
D03*
X793154Y613032D02*
D03*
Y629032D02*
D03*
X864154Y538032D02*
D03*
Y522032D02*
D03*
X714154Y716032D02*
D03*
Y732032D02*
D03*
X1124154Y910032D02*
D03*
Y894032D02*
D03*
X1149154Y910032D02*
D03*
Y894032D02*
D03*
X849154Y522032D02*
D03*
Y538032D02*
D03*
X816154Y522032D02*
D03*
Y538032D02*
D03*
X785154Y522032D02*
D03*
Y538032D02*
D03*
X833154Y522032D02*
D03*
Y538032D02*
D03*
X800154Y522032D02*
D03*
Y538032D02*
D03*
X873654Y910032D02*
D03*
Y894032D02*
D03*
X769154Y522032D02*
D03*
Y538032D02*
D03*
X686154Y897032D02*
D03*
Y881032D02*
D03*
X634154Y897032D02*
D03*
Y881032D02*
D03*
X665154Y897032D02*
D03*
Y881032D02*
D03*
X702154Y881032D02*
D03*
Y897032D02*
D03*
X1011204Y910032D02*
D03*
Y894032D02*
D03*
X985804Y910032D02*
D03*
Y894032D02*
D03*
X767904Y893089D02*
D03*
Y909089D02*
D03*
D11*
X907154Y650032D02*
D03*
D12*
X847154Y726032D02*
D03*
X852154D02*
D03*
X857154D02*
D03*
X862154D02*
D03*
X867154D02*
D03*
X872154D02*
D03*
X877154D02*
D03*
X882154D02*
D03*
X887154D02*
D03*
X892154D02*
D03*
X897154D02*
D03*
X902154D02*
D03*
X907154D02*
D03*
X912154D02*
D03*
X917154D02*
D03*
X922154D02*
D03*
X927154D02*
D03*
X932154D02*
D03*
X937154D02*
D03*
X942154D02*
D03*
X947154D02*
D03*
X952154D02*
D03*
X957154D02*
D03*
X962154D02*
D03*
X967154D02*
D03*
Y574032D02*
D03*
X962154D02*
D03*
X957154D02*
D03*
X952154D02*
D03*
X947154D02*
D03*
X942154D02*
D03*
X937154D02*
D03*
X932154D02*
D03*
X927154D02*
D03*
X922154D02*
D03*
X917154D02*
D03*
X912154D02*
D03*
X907154D02*
D03*
X902154D02*
D03*
X897154D02*
D03*
X892154D02*
D03*
X887154D02*
D03*
X882154D02*
D03*
X877154D02*
D03*
X872154D02*
D03*
X867154D02*
D03*
X862154D02*
D03*
X857154D02*
D03*
X852154D02*
D03*
X847154D02*
D03*
D13*
X983154Y710032D02*
D03*
Y705032D02*
D03*
Y700032D02*
D03*
Y695032D02*
D03*
Y690032D02*
D03*
Y685032D02*
D03*
Y680032D02*
D03*
Y675032D02*
D03*
Y670032D02*
D03*
Y665032D02*
D03*
Y660032D02*
D03*
Y655032D02*
D03*
Y650032D02*
D03*
Y645032D02*
D03*
Y640032D02*
D03*
Y635032D02*
D03*
Y630032D02*
D03*
Y625032D02*
D03*
Y620032D02*
D03*
Y615032D02*
D03*
Y610032D02*
D03*
Y605032D02*
D03*
Y600032D02*
D03*
Y595032D02*
D03*
Y590032D02*
D03*
X831154D02*
D03*
Y595032D02*
D03*
Y600032D02*
D03*
Y605032D02*
D03*
Y610032D02*
D03*
Y615032D02*
D03*
Y620032D02*
D03*
Y625032D02*
D03*
Y630032D02*
D03*
Y635032D02*
D03*
Y640032D02*
D03*
Y645032D02*
D03*
Y650032D02*
D03*
Y655032D02*
D03*
Y660032D02*
D03*
Y665032D02*
D03*
Y670032D02*
D03*
Y675032D02*
D03*
Y680032D02*
D03*
Y685032D02*
D03*
Y690032D02*
D03*
Y695032D02*
D03*
Y700032D02*
D03*
Y705032D02*
D03*
Y710032D02*
D03*
D14*
X595654Y818032D02*
D03*
X624654D02*
D03*
D15*
X596154Y878032D02*
D03*
X612154D02*
D03*
X616154Y619032D02*
D03*
X632154D02*
D03*
X953154Y826032D02*
D03*
X937154D02*
D03*
X1091154D02*
D03*
X1075154D02*
D03*
X1024154Y671032D02*
D03*
X1008154D02*
D03*
X1179154Y592282D02*
D03*
X1195154D02*
D03*
X1008154Y611032D02*
D03*
X1024154D02*
D03*
X1067154Y654032D02*
D03*
X1083154D02*
D03*
X1067154Y713032D02*
D03*
X1083154D02*
D03*
X650154Y692032D02*
D03*
X634154D02*
D03*
X634154Y709032D02*
D03*
X650154D02*
D03*
X684154Y692032D02*
D03*
X668154D02*
D03*
X649154Y619032D02*
D03*
X665154D02*
D03*
X1100154Y902032D02*
D03*
X1084154D02*
D03*
X894154Y841032D02*
D03*
X910154D02*
D03*
X1033154D02*
D03*
X1049154D02*
D03*
X1171154D02*
D03*
X1187154D02*
D03*
X962154Y902032D02*
D03*
X946154D02*
D03*
X1083154Y683032D02*
D03*
X1067154D02*
D03*
X1148744Y643032D02*
D03*
X1132744D02*
D03*
X662654Y567982D02*
D03*
X646654D02*
D03*
X612154Y843032D02*
D03*
X596154D02*
D03*
X596154Y859032D02*
D03*
X612154D02*
D03*
X1187154Y824032D02*
D03*
X1171154D02*
D03*
X1049154D02*
D03*
X1033154D02*
D03*
X910154D02*
D03*
X894154D02*
D03*
X800154Y826032D02*
D03*
X816154D02*
D03*
X823154Y902032D02*
D03*
X807154D02*
D03*
X1067154Y639032D02*
D03*
X1083154D02*
D03*
X1083154Y729032D02*
D03*
X1067154D02*
D03*
X1067154Y668032D02*
D03*
X1083154D02*
D03*
X1067154Y698032D02*
D03*
X1083154D02*
D03*
D16*
X884154Y1073532D02*
D03*
Y1102532D02*
D03*
X1028154Y1073532D02*
D03*
Y1102532D02*
D03*
X1169154Y1073532D02*
D03*
Y1102532D02*
D03*
X884154Y1123532D02*
D03*
Y1152532D02*
D03*
X1028154Y1123532D02*
D03*
Y1152532D02*
D03*
X1169154Y1123532D02*
D03*
Y1152532D02*
D03*
Y1052532D02*
D03*
Y1023532D02*
D03*
Y1221532D02*
D03*
Y1192532D02*
D03*
X1028154Y1052532D02*
D03*
Y1023532D02*
D03*
Y1221532D02*
D03*
Y1192532D02*
D03*
X884154Y1052532D02*
D03*
Y1023532D02*
D03*
Y1221532D02*
D03*
Y1192532D02*
D03*
D17*
X1079754Y1170032D02*
D03*
X1130554D02*
D03*
X936754Y1169032D02*
D03*
X987554D02*
D03*
X1079754Y956032D02*
D03*
X1130554D02*
D03*
X935754D02*
D03*
X986554D02*
D03*
X791754D02*
D03*
X842554D02*
D03*
X843554Y1168032D02*
D03*
X792754D02*
D03*
D18*
X1105154Y1273032D02*
D03*
X962154Y1272032D02*
D03*
X1105154Y1059032D02*
D03*
X961154D02*
D03*
X817154D02*
D03*
X818154Y1271032D02*
D03*
D19*
X616154Y709032D02*
D03*
X592154Y699532D02*
D03*
Y718532D02*
D03*
D20*
X639154Y662532D02*
D03*
Y653032D02*
D03*
Y643532D02*
D03*
X613154Y662532D02*
D03*
Y643532D02*
D03*
D21*
X747654Y834032D02*
D03*
X708654D02*
D03*
D22*
X662654Y584032D02*
D03*
X637654D02*
D03*
X656654Y732032D02*
D03*
X631654D02*
D03*
D23*
X689654Y653032D02*
D03*
X660654D02*
D03*
D24*
X666754Y554032D02*
D03*
X653554D02*
D03*
X710554D02*
D03*
X723754D02*
D03*
D25*
X1090154Y559532D02*
D03*
Y584532D02*
D03*
D26*
X1159794Y620532D02*
D03*
X1147094D02*
D03*
X1134394D02*
D03*
X1121694D02*
D03*
X1159794Y573532D02*
D03*
X1147094D02*
D03*
X1134394D02*
D03*
X1121694D02*
D03*
X835104Y825532D02*
D03*
X847804D02*
D03*
X860504D02*
D03*
X873204D02*
D03*
X835104Y872532D02*
D03*
X847804D02*
D03*
X860504D02*
D03*
X873204D02*
D03*
X973104Y825532D02*
D03*
X985804D02*
D03*
X998504D02*
D03*
X1011204D02*
D03*
X973104Y872532D02*
D03*
X985804D02*
D03*
X998504D02*
D03*
X1011204D02*
D03*
X1111104Y825532D02*
D03*
X1123804D02*
D03*
X1136504D02*
D03*
X1149204D02*
D03*
X1111104Y872532D02*
D03*
X1123804D02*
D03*
X1136504D02*
D03*
X1149204D02*
D03*
D27*
X796654Y646532D02*
D03*
Y709532D02*
D03*
X805654D02*
D03*
Y646532D02*
D03*
D28*
X1008154Y652032D02*
D03*
Y630032D02*
D03*
X1024154D02*
D03*
Y652032D02*
D03*
D29*
X700154Y497032D02*
D03*
X677154D02*
D03*
D30*
X726154D02*
D03*
X651154D02*
D03*
D31*
X675654Y525532D02*
D03*
X701654D02*
D03*
X688654D02*
D03*
X695154D02*
D03*
X682154D02*
D03*
D32*
X678154Y713032D02*
D03*
Y729032D02*
D03*
D33*
X673125Y844282D02*
D03*
Y850782D02*
D03*
Y857282D02*
D03*
Y863782D02*
D03*
X633154D02*
D03*
Y857282D02*
D03*
Y850782D02*
D03*
Y844282D02*
D03*
D34*
X647404Y818032D02*
D03*
D35*
X672904D02*
D03*
D36*
X801654Y843032D02*
D03*
X816654D02*
D03*
X1076654D02*
D03*
X1091654D02*
D03*
X953654D02*
D03*
X938654D02*
D03*
D37*
X1084154Y882192D02*
D03*
Y861872D02*
D03*
X946154Y882192D02*
D03*
Y861872D02*
D03*
X809154Y882192D02*
D03*
Y861872D02*
D03*
X593154Y662192D02*
D03*
Y641872D02*
D03*
X741154Y652192D02*
D03*
Y631872D02*
D03*
X717154Y652192D02*
D03*
Y631872D02*
D03*
D38*
X748154Y875532D02*
D03*
Y908532D02*
D03*
D53*
X590497Y776032D02*
D03*
X1187154Y1295032D02*
D03*
X597154Y500032D02*
D03*
D54*
X801754Y777032D02*
D03*
X776354D02*
D03*
X750954D02*
D03*
X725554D02*
D03*
X871754Y496032D02*
D03*
X846354D02*
D03*
X820954D02*
D03*
X795554D02*
D03*
X1153144Y540032D02*
D03*
X1195154Y570232D02*
D03*
Y544832D02*
D03*
Y519432D02*
D03*
X854554Y793032D02*
D03*
X879954D02*
D03*
X990554D02*
D03*
X1015954D02*
D03*
X1130554D02*
D03*
X1155954D02*
D03*
D55*
X700154Y777032D02*
D03*
X770154Y496032D02*
D03*
X1127744Y540032D02*
D03*
X829154Y793032D02*
D03*
X965154D02*
D03*
X1105154D02*
D03*
D56*
X1090254Y518732D02*
D03*
Y493332D02*
D03*
X980254Y518732D02*
D03*
Y493332D02*
D03*
D57*
X1064854Y518732D02*
D03*
X1039454D02*
D03*
X1014054D02*
D03*
Y493332D02*
D03*
X1039454D02*
D03*
X1064854D02*
D03*
X627654Y1228032D02*
D03*
Y1055032D02*
D03*
X954854Y518732D02*
D03*
X929454D02*
D03*
X904054D02*
D03*
Y493332D02*
D03*
X929454D02*
D03*
X954854D02*
D03*
D58*
X702654Y1228032D02*
D03*
Y1055032D02*
D03*
D59*
X1195154Y494032D02*
D03*
D60*
X773154Y607382D02*
D03*
D61*
Y594682D02*
D03*
M02*
