%FSLAX44Y44*%
%MOMM*%
G71*
G01*
G75*
G04 Layer_Physical_Order=3*
G04 Layer_Color=16440176*
%ADD10R,0.9500X1.0000*%
%ADD11R,7.0000X7.0000*%
%ADD12O,0.3000X1.6500*%
%ADD13O,1.6500X0.3000*%
%ADD14R,1.3000X1.8500*%
%ADD15R,1.0000X0.9500*%
%ADD16R,1.8500X1.3000*%
G04:AMPARAMS|DCode=17|XSize=1.05mm|YSize=3.82mm|CornerRadius=0.0525mm|HoleSize=0mm|Usage=FLASHONLY|Rotation=180.000|XOffset=0mm|YOffset=0mm|HoleType=Round|Shape=RoundedRectangle|*
%AMROUNDEDRECTD17*
21,1,1.0500,3.7150,0,0,180.0*
21,1,0.9450,3.8200,0,0,180.0*
1,1,0.1050,-0.4725,1.8575*
1,1,0.1050,0.4725,1.8575*
1,1,0.1050,0.4725,-1.8575*
1,1,0.1050,-0.4725,-1.8575*
%
%ADD17ROUNDEDRECTD17*%
G04:AMPARAMS|DCode=18|XSize=7.48mm|YSize=8.55mm|CornerRadius=0.0374mm|HoleSize=0mm|Usage=FLASHONLY|Rotation=90.000|XOffset=0mm|YOffset=0mm|HoleType=Round|Shape=RoundedRectangle|*
%AMROUNDEDRECTD18*
21,1,7.4800,8.4752,0,0,90.0*
21,1,7.4052,8.5500,0,0,90.0*
1,1,0.0748,4.2376,3.7026*
1,1,0.0748,4.2376,-3.7026*
1,1,0.0748,-4.2376,-3.7026*
1,1,0.0748,-4.2376,3.7026*
%
%ADD18ROUNDEDRECTD18*%
G04:AMPARAMS|DCode=19|XSize=0.6mm|YSize=1mm|CornerRadius=0.15mm|HoleSize=0mm|Usage=FLASHONLY|Rotation=90.000|XOffset=0mm|YOffset=0mm|HoleType=Round|Shape=RoundedRectangle|*
%AMROUNDEDRECTD19*
21,1,0.6000,0.7000,0,0,90.0*
21,1,0.3000,1.0000,0,0,90.0*
1,1,0.3000,0.3500,0.1500*
1,1,0.3000,0.3500,-0.1500*
1,1,0.3000,-0.3500,-0.1500*
1,1,0.3000,-0.3500,0.1500*
%
%ADD19ROUNDEDRECTD19*%
%ADD20R,1.0000X0.6000*%
%ADD21R,2.1000X5.8000*%
%ADD22R,0.8000X0.6000*%
%ADD23R,1.6000X3.9000*%
%ADD24R,0.5000X0.6000*%
%ADD25R,0.6000X0.8000*%
%ADD26O,0.6000X1.9000*%
%ADD27R,0.6000X1.2000*%
%ADD28R,1.1500X1.4000*%
%ADD29R,1.8000X1.9000*%
%ADD30R,2.3000X1.9000*%
%ADD31R,0.4000X1.4000*%
%ADD32R,0.8000X0.8000*%
%ADD33R,1.0000X0.4000*%
%ADD34R,0.9000X1.4000*%
%ADD35R,2.2000X1.4000*%
%ADD36R,0.6500X0.4000*%
%ADD37R,1.6002X1.2700*%
%ADD38R,2.2000X1.1000*%
%ADD39C,1.2000*%
%ADD40C,0.2500*%
%ADD41C,0.2540*%
%ADD42C,0.5000*%
%ADD43C,0.4000*%
%ADD44C,1.0160*%
%ADD45C,1.1000*%
%ADD46C,0.8000*%
%ADD47C,0.7500*%
%ADD48C,0.7620*%
%ADD49C,1.0000*%
%ADD50C,0.6000*%
%ADD51C,0.2032*%
%ADD52C,0.3500*%
%ADD53C,2.0000*%
%ADD54C,1.5000*%
%ADD55R,1.5000X1.5000*%
%ADD56R,1.5500X1.5500*%
%ADD57C,1.5500*%
G04:AMPARAMS|DCode=58|XSize=1.55mm|YSize=1.55mm|CornerRadius=0.0465mm|HoleSize=0mm|Usage=FLASHONLY|Rotation=180.000|XOffset=0mm|YOffset=0mm|HoleType=Round|Shape=RoundedRectangle|*
%AMROUNDEDRECTD58*
21,1,1.5500,1.4570,0,0,180.0*
21,1,1.4570,1.5500,0,0,180.0*
1,1,0.0930,-0.7285,0.7285*
1,1,0.0930,0.7285,0.7285*
1,1,0.0930,0.7285,-0.7285*
1,1,0.0930,-0.7285,-0.7285*
%
%ADD58ROUNDEDRECTD58*%
%ADD59R,1.5000X1.5000*%
%ADD60R,0.7000X0.7000*%
%ADD61C,0.7000*%
%ADD62C,0.6000*%
%ADD63C,5.0000*%
G36*
X654203Y1324032D02*
X661545Y1316778D01*
X661554Y1316769D01*
Y1031304D01*
Y1031205D01*
X691754Y1001369D01*
Y1000963D01*
X691754Y1000963D01*
X691754Y1000963D01*
Y928995D01*
X638721D01*
X637024Y928772D01*
X636561Y928580D01*
X635443Y928117D01*
X634085Y927075D01*
X629442Y922432D01*
X574468D01*
Y1320022D01*
X578527Y1324032D01*
X654203D01*
Y1324032D01*
D02*
G37*
G36*
X730873Y1009045D02*
X1195584D01*
X1198954Y1005675D01*
X1198954Y1005675D01*
Y934855D01*
Y934632D01*
X1196854Y932532D01*
X1195454Y931132D01*
X741409D01*
X741354Y931077D01*
X724909D01*
X720154Y935832D01*
Y1000141D01*
Y1003932D01*
X724854Y1008632D01*
X725267Y1009045D01*
X730873D01*
X730873Y1009045D01*
D02*
G37*
G36*
X1209839Y479347D02*
X622521D01*
Y482290D01*
X622521Y514464D01*
X611831Y525154D01*
X583865D01*
X577817Y525260D01*
X575642Y523085D01*
X574468Y523571D01*
Y756134D01*
X575367Y757032D01*
X615784D01*
Y750032D01*
X674403D01*
Y757032D01*
X677500D01*
X691722Y742810D01*
X691751Y742664D01*
X692967Y740845D01*
X694786Y739629D01*
X696932Y739202D01*
X699078Y739629D01*
X700897Y740845D01*
X702113Y742664D01*
X702540Y744810D01*
X702113Y746956D01*
X700897Y748775D01*
X699078Y749991D01*
X698932Y750020D01*
X693093Y755859D01*
X693579Y757032D01*
X747485D01*
X747971Y755859D01*
X731549Y739437D01*
X730444Y737783D01*
X730056Y735832D01*
Y663032D01*
X730444Y661081D01*
X731549Y659427D01*
X733203Y658322D01*
X735154Y657934D01*
X737105Y658322D01*
X738759Y659427D01*
X739864Y661081D01*
X740252Y663032D01*
Y733720D01*
X763564Y757032D01*
X774154D01*
Y750032D01*
X850154D01*
X850131Y756132D01*
X851027Y757032D01*
X925404D01*
Y749032D01*
X1011154D01*
Y757032D01*
X1039890D01*
X1039904Y748932D01*
X1183154D01*
Y757032D01*
X1209839D01*
Y479347D01*
D02*
G37*
G36*
X768154Y854676D02*
Y854538D01*
Y846032D01*
X1117838D01*
X1123154Y843208D01*
Y842991D01*
Y834674D01*
X1118502Y832202D01*
X1118493Y832219D01*
X1118493Y832219D01*
X1102956Y832218D01*
X1102956Y832218D01*
X1102934Y832132D01*
X768154D01*
Y820358D01*
X765762Y819632D01*
X765759Y819637D01*
X764105Y820742D01*
X762154Y821130D01*
X754154D01*
Y855646D01*
X755389Y856882D01*
X765948D01*
X768154Y854676D01*
D02*
G37*
G36*
X1101255Y1201032D02*
X1171874D01*
X1177154Y1197089D01*
Y1025713D01*
X1171712Y1021650D01*
X1060995D01*
X1055773Y1025549D01*
Y1195962D01*
D01*
D01*
X1062447Y1201032D01*
X1101255D01*
X1101255Y1201032D01*
D02*
G37*
G36*
X1163154Y1266032D02*
X1178154D01*
Y1215532D01*
X1177960Y1215344D01*
X1094659D01*
X1094659Y1215344D01*
X813548D01*
X813457Y1215432D01*
X764894D01*
X764803Y1215344D01*
X764686D01*
X751995Y1203032D01*
Y1041032D01*
X751995Y1041032D01*
X751995Y1041032D01*
X751995Y1039910D01*
X744905Y1033032D01*
X709210D01*
Y1055032D01*
X708987Y1056729D01*
X708332Y1058310D01*
X707290Y1059668D01*
X705932Y1060710D01*
X704351Y1061365D01*
X702654Y1061588D01*
X700957Y1061365D01*
X699376Y1060710D01*
X698018Y1059668D01*
X696976Y1058310D01*
X696321Y1056729D01*
X696098Y1055032D01*
Y1033032D01*
X685356D01*
X676154Y1041958D01*
Y1043032D01*
Y1319287D01*
X676170Y1319302D01*
X681489Y1324462D01*
Y1324718D01*
X1163154D01*
Y1266032D01*
D02*
G37*
G36*
X811529Y1201032D02*
X886545D01*
X892154Y1197089D01*
Y1025713D01*
X886373Y1021650D01*
X768763D01*
X763215Y1025549D01*
Y1195962D01*
D01*
D01*
X770305Y1201032D01*
X811529D01*
X811529Y1201032D01*
D02*
G37*
G36*
X957654D02*
X1029763D01*
X1035154Y1197089D01*
Y1025713D01*
X1029597Y1021650D01*
X916545D01*
X911213Y1025549D01*
Y1048785D01*
X911262Y1049032D01*
X911213Y1049278D01*
Y1103703D01*
X911335Y1103886D01*
X911762Y1106032D01*
X911335Y1108178D01*
X911213Y1108361D01*
Y1195962D01*
D01*
D01*
X918028Y1201032D01*
X957654D01*
X957654Y1201032D01*
D02*
G37*
%LPC*%
G36*
X646154Y559640D02*
X644008Y559213D01*
X642189Y557997D01*
X640973Y556178D01*
X640546Y554032D01*
X640973Y551886D01*
X642189Y550067D01*
X644008Y548851D01*
X646154Y548424D01*
X648300Y548851D01*
X650119Y550067D01*
X651335Y551886D01*
X651762Y554032D01*
X651335Y556178D01*
X650119Y557997D01*
X648300Y559213D01*
X646154Y559640D01*
D02*
G37*
G36*
X620986Y559240D02*
X618840Y558813D01*
X617020Y557597D01*
X615805Y555778D01*
X615378Y553632D01*
X615805Y551486D01*
X617020Y549667D01*
X618840Y548451D01*
X620986Y548024D01*
X623132Y548451D01*
X624951Y549667D01*
X626167Y551486D01*
X626594Y553632D01*
X626167Y555778D01*
X624951Y557597D01*
X623132Y558813D01*
X620986Y559240D01*
D02*
G37*
G36*
X1195154Y554918D02*
X1192543Y554575D01*
X1190111Y553567D01*
X1188022Y551964D01*
X1186419Y549875D01*
X1185411Y547443D01*
X1185068Y544832D01*
X1185411Y542221D01*
X1186419Y539789D01*
X1188022Y537700D01*
X1190111Y536097D01*
X1192543Y535089D01*
X1195154Y534746D01*
X1197765Y535089D01*
X1200197Y536097D01*
X1202286Y537700D01*
X1203889Y539789D01*
X1204897Y542221D01*
X1205240Y544832D01*
X1204897Y547443D01*
X1203889Y549875D01*
X1202286Y551964D01*
X1200197Y553567D01*
X1197765Y554575D01*
X1195154Y554918D01*
D02*
G37*
G36*
X603029Y559707D02*
X600883Y559280D01*
X599064Y558064D01*
X597848Y556245D01*
X597421Y554099D01*
X597848Y551953D01*
X599064Y550134D01*
X600883Y548918D01*
X603029Y548491D01*
X605175Y548918D01*
X606994Y550134D01*
X608210Y551953D01*
X608637Y554099D01*
X608210Y556245D01*
X606994Y558064D01*
X605175Y559280D01*
X603029Y559707D01*
D02*
G37*
G36*
X585654D02*
X583508Y559280D01*
X581689Y558064D01*
X580473Y556245D01*
X580046Y554099D01*
X580473Y551953D01*
X581689Y550134D01*
X583508Y548918D01*
X585654Y548491D01*
X587800Y548918D01*
X589619Y550134D01*
X590835Y551953D01*
X591262Y554099D01*
X590835Y556245D01*
X589619Y558064D01*
X587800Y559280D01*
X585654Y559707D01*
D02*
G37*
G36*
X731154Y559640D02*
X729008Y559213D01*
X727189Y557997D01*
X725973Y556178D01*
X725546Y554032D01*
X725973Y551886D01*
X727189Y550067D01*
X729008Y548851D01*
X731154Y548424D01*
X733300Y548851D01*
X735119Y550067D01*
X736335Y551886D01*
X736762Y554032D01*
X736335Y556178D01*
X735119Y557997D01*
X733300Y559213D01*
X731154Y559640D01*
D02*
G37*
G36*
X603029Y544107D02*
X600883Y543680D01*
X599064Y542464D01*
X597848Y540645D01*
X597421Y538499D01*
X597848Y536353D01*
X599064Y534534D01*
X600883Y533318D01*
X603029Y532891D01*
X605175Y533318D01*
X606994Y534534D01*
X608210Y536353D01*
X608637Y538499D01*
X608210Y540645D01*
X606994Y542464D01*
X605175Y543680D01*
X603029Y544107D01*
D02*
G37*
G36*
X620986Y543640D02*
X618840Y543213D01*
X617020Y541997D01*
X615805Y540178D01*
X615378Y538032D01*
X615805Y535886D01*
X617020Y534067D01*
X618840Y532851D01*
X620986Y532424D01*
X623132Y532851D01*
X624951Y534067D01*
X626167Y535886D01*
X626594Y538032D01*
X626167Y540178D01*
X624951Y541997D01*
X623132Y543213D01*
X620986Y543640D01*
D02*
G37*
G36*
X833154Y543640D02*
X831008Y543213D01*
X829189Y541997D01*
X827973Y540178D01*
X827546Y538032D01*
X827973Y535886D01*
X829189Y534067D01*
X831008Y532851D01*
X833154Y532424D01*
X835300Y532851D01*
X837119Y534067D01*
X838335Y535886D01*
X838762Y538032D01*
X838335Y540178D01*
X837119Y541997D01*
X835300Y543213D01*
X833154Y543640D01*
D02*
G37*
G36*
X800154D02*
X798008Y543213D01*
X796189Y541997D01*
X794973Y540178D01*
X794546Y538032D01*
X794973Y535886D01*
X796189Y534067D01*
X798008Y532851D01*
X800154Y532424D01*
X802300Y532851D01*
X804119Y534067D01*
X805335Y535886D01*
X805762Y538032D01*
X805335Y540178D01*
X804119Y541997D01*
X802300Y543213D01*
X800154Y543640D01*
D02*
G37*
G36*
X585654Y544107D02*
X583508Y543680D01*
X581689Y542464D01*
X580473Y540645D01*
X580046Y538499D01*
X580473Y536353D01*
X581689Y534534D01*
X583508Y533318D01*
X585654Y532891D01*
X587800Y533318D01*
X589619Y534534D01*
X590835Y536353D01*
X591262Y538499D01*
X590835Y540645D01*
X589619Y542464D01*
X587800Y543680D01*
X585654Y544107D01*
D02*
G37*
G36*
X864154Y543640D02*
X862008Y543213D01*
X860189Y541997D01*
X858973Y540178D01*
X858546Y538032D01*
X858973Y535886D01*
X860189Y534067D01*
X862008Y532851D01*
X864154Y532424D01*
X866300Y532851D01*
X868119Y534067D01*
X869335Y535886D01*
X869762Y538032D01*
X869335Y540178D01*
X868119Y541997D01*
X866300Y543213D01*
X864154Y543640D01*
D02*
G37*
G36*
X769154D02*
X767008Y543213D01*
X765189Y541997D01*
X763973Y540178D01*
X763546Y538032D01*
X763973Y535886D01*
X765189Y534067D01*
X767008Y532851D01*
X769154Y532424D01*
X771300Y532851D01*
X773119Y534067D01*
X774335Y535886D01*
X774762Y538032D01*
X774335Y540178D01*
X773119Y541997D01*
X771300Y543213D01*
X769154Y543640D01*
D02*
G37*
G36*
X1002944Y562640D02*
X1000798Y562213D01*
X998979Y560997D01*
X997763Y559178D01*
X997336Y557032D01*
X997763Y554886D01*
X998979Y553067D01*
X1000798Y551851D01*
X1002944Y551424D01*
X1005090Y551851D01*
X1006909Y553067D01*
X1008125Y554886D01*
X1008551Y557032D01*
X1008125Y559178D01*
X1006909Y560997D01*
X1005090Y562213D01*
X1002944Y562640D01*
D02*
G37*
G36*
X592154Y693640D02*
X590008Y693213D01*
X588189Y691997D01*
X586973Y690178D01*
X586546Y688032D01*
X586973Y685886D01*
X587056Y685762D01*
Y613032D01*
X587056Y613032D01*
X587056D01*
X587444Y611081D01*
X588549Y609427D01*
X617549Y580427D01*
X619203Y579322D01*
X621154Y578934D01*
X626884D01*
X627008Y578851D01*
X629154Y578424D01*
X631300Y578851D01*
X633119Y580067D01*
X634335Y581886D01*
X634762Y584032D01*
X634335Y586178D01*
X633119Y587997D01*
X631300Y589213D01*
X629154Y589640D01*
X627008Y589213D01*
X626884Y589130D01*
X623266D01*
X597252Y615144D01*
Y685762D01*
X597335Y685886D01*
X597762Y688032D01*
X597335Y690178D01*
X596119Y691997D01*
X594300Y693213D01*
X592154Y693640D01*
D02*
G37*
G36*
X781154Y580640D02*
X779008Y580213D01*
X777189Y578997D01*
X775973Y577178D01*
X775546Y575032D01*
X775973Y572886D01*
X777189Y571067D01*
X779008Y569851D01*
X781154Y569424D01*
X783300Y569851D01*
X785119Y571067D01*
X786335Y572886D01*
X786762Y575032D01*
X786335Y577178D01*
X785119Y578997D01*
X783300Y580213D01*
X781154Y580640D01*
D02*
G37*
G36*
X1067154Y593640D02*
X1065008Y593213D01*
X1063189Y591997D01*
X1061973Y590178D01*
X1061546Y588032D01*
X1061973Y585886D01*
X1063189Y584067D01*
X1063787Y583667D01*
Y582397D01*
X1063189Y581997D01*
X1061973Y580178D01*
X1061546Y578032D01*
X1061973Y575886D01*
X1063189Y574067D01*
X1065008Y572851D01*
X1067154Y572424D01*
X1067154Y572424D01*
X1067154Y572424D01*
D01*
X1068018Y572504D01*
X1068018D01*
X1068018Y572504D01*
X1068445Y570358D01*
X1069661Y568539D01*
X1071480Y567323D01*
X1073626Y566896D01*
X1075772Y567323D01*
X1077591Y568539D01*
X1078807Y570358D01*
X1079234Y572504D01*
X1078807Y574650D01*
X1077591Y576469D01*
X1075772Y577685D01*
X1073626Y578112D01*
X1073626Y578112D01*
X1073626Y578112D01*
D01*
X1072762Y578032D01*
D01*
X1072335Y580178D01*
X1071119Y581997D01*
X1070521Y582397D01*
Y583667D01*
X1071119Y584067D01*
X1072335Y585886D01*
X1072762Y588032D01*
X1072335Y590178D01*
X1071119Y591997D01*
X1069300Y593213D01*
X1067154Y593640D01*
D02*
G37*
G36*
X887654Y593140D02*
X885508Y592713D01*
X883689Y591497D01*
X883241Y590827D01*
X881995Y590579D01*
X880299Y591713D01*
X878153Y592140D01*
X876007Y591713D01*
X874188Y590497D01*
X872972Y588678D01*
X872546Y586532D01*
X872972Y584386D01*
X874188Y582566D01*
X876007Y581351D01*
X878153Y580924D01*
X880299Y581351D01*
X882119Y582566D01*
X882566Y583237D01*
X883812Y583484D01*
X885508Y582351D01*
X887654Y581924D01*
X889800Y582351D01*
X891619Y583567D01*
X892835Y585386D01*
X893262Y587532D01*
X892835Y589678D01*
X891619Y591497D01*
X889800Y592713D01*
X887654Y593140D01*
D02*
G37*
G36*
X779154Y613382D02*
X767154D01*
Y601382D01*
X770194D01*
X770563Y600167D01*
X768828Y599008D01*
X767502Y597023D01*
X767037Y594682D01*
X767502Y592341D01*
X768828Y590356D01*
X770813Y589030D01*
X773154Y588564D01*
X775495Y589030D01*
X777480Y590356D01*
X778806Y592341D01*
X779271Y594682D01*
X778806Y597023D01*
X777480Y599008D01*
X775745Y600167D01*
X776114Y601382D01*
X779154D01*
Y613382D01*
D02*
G37*
G36*
X903154Y593640D02*
X901008Y593213D01*
X899189Y591997D01*
X897973Y590178D01*
X897546Y588032D01*
X897973Y585886D01*
X899189Y584067D01*
X901008Y582851D01*
X903154Y582424D01*
X905300Y582851D01*
X907119Y584067D01*
X908335Y585886D01*
X908762Y588032D01*
X908335Y590178D01*
X907119Y591997D01*
X905300Y593213D01*
X903154Y593640D01*
D02*
G37*
G36*
X1002972Y577640D02*
X1000826Y577213D01*
X999007Y575997D01*
X997791Y574178D01*
X997364Y572032D01*
X997791Y569886D01*
X999007Y568067D01*
X1000826Y566851D01*
X1002972Y566424D01*
X1005118Y566851D01*
X1006937Y568067D01*
X1008153Y569886D01*
X1008579Y572032D01*
X1008153Y574178D01*
X1006937Y575997D01*
X1005118Y577213D01*
X1002972Y577640D01*
D02*
G37*
G36*
X887154Y567640D02*
X885008Y567213D01*
X883189Y565997D01*
X881973Y564178D01*
X881546Y562032D01*
X881973Y559886D01*
X880881Y559156D01*
X879300Y560213D01*
X877154Y560640D01*
X875008Y560213D01*
X873189Y558997D01*
X871973Y557178D01*
X871546Y555032D01*
X871973Y552886D01*
X873189Y551067D01*
X875008Y549851D01*
X877154Y549424D01*
X879300Y549851D01*
X881119Y551067D01*
X882335Y552886D01*
X882762Y555032D01*
X882335Y557178D01*
X883427Y557908D01*
X885008Y556851D01*
X887154Y556424D01*
X889078Y556807D01*
X889837Y556048D01*
X889965Y555856D01*
X889801Y555032D01*
X890228Y552886D01*
X891444Y551067D01*
X893263Y549851D01*
X895409Y549424D01*
X897555Y549851D01*
X899374Y551067D01*
X900590Y552886D01*
X901017Y555032D01*
X900590Y557178D01*
X899374Y558997D01*
X897555Y560213D01*
X895409Y560640D01*
X893485Y560257D01*
X892727Y561016D01*
X892598Y561208D01*
X892762Y562032D01*
X892335Y564178D01*
X891119Y565997D01*
X889300Y567213D01*
X887154Y567640D01*
D02*
G37*
G36*
X809436Y569640D02*
X807290Y569213D01*
X805471Y567997D01*
X804255Y566178D01*
X803829Y564032D01*
X804255Y561886D01*
X805471Y560067D01*
X807290Y558851D01*
X809436Y558424D01*
X811582Y558851D01*
X813401Y560067D01*
X814617Y561886D01*
X815044Y564032D01*
X814617Y566178D01*
X813401Y567997D01*
X811582Y569213D01*
X809436Y569640D01*
D02*
G37*
G36*
X1018982Y563640D02*
X1016836Y563213D01*
X1015017Y561997D01*
X1013801Y560178D01*
X1013374Y558032D01*
X1013801Y555886D01*
X1015017Y554067D01*
X1016836Y552851D01*
X1018982Y552424D01*
X1021128Y552851D01*
X1022947Y554067D01*
X1024163Y555886D01*
X1024590Y558032D01*
X1024163Y560178D01*
X1022947Y561997D01*
X1021128Y563213D01*
X1018982Y563640D01*
D02*
G37*
G36*
X603029Y577107D02*
X600883Y576680D01*
X599064Y575464D01*
X597848Y573645D01*
X597421Y571499D01*
X597848Y569353D01*
X599064Y567534D01*
X600883Y566318D01*
X603029Y565891D01*
X605175Y566318D01*
X606994Y567534D01*
X608210Y569353D01*
X608637Y571499D01*
X608210Y573645D01*
X606994Y575464D01*
X605175Y576680D01*
X603029Y577107D01*
D02*
G37*
G36*
X585654D02*
X583508Y576680D01*
X581689Y575464D01*
X580473Y573645D01*
X580046Y571499D01*
X580473Y569353D01*
X581689Y567534D01*
X583508Y566318D01*
X585654Y565891D01*
X587800Y566318D01*
X589619Y567534D01*
X590835Y569353D01*
X591262Y571499D01*
X590835Y573645D01*
X589619Y575464D01*
X587800Y576680D01*
X585654Y577107D01*
D02*
G37*
G36*
X620986Y576640D02*
X618840Y576213D01*
X617020Y574997D01*
X615805Y573178D01*
X615378Y571032D01*
X615805Y568886D01*
X617020Y567067D01*
X618840Y565851D01*
X620986Y565424D01*
X623132Y565851D01*
X624951Y567067D01*
X626167Y568886D01*
X626594Y571032D01*
X626167Y573178D01*
X624951Y574997D01*
X623132Y576213D01*
X620986Y576640D01*
D02*
G37*
G36*
X1137744Y550032D02*
X1117744D01*
Y530032D01*
X1137744D01*
Y550032D01*
D02*
G37*
G36*
X820954Y506118D02*
X818344Y505775D01*
X815911Y504767D01*
X813822Y503164D01*
X812219Y501075D01*
X811211Y498643D01*
X810868Y496032D01*
X811211Y493422D01*
X812219Y490989D01*
X813822Y488900D01*
X815911Y487297D01*
X818344Y486289D01*
X820954Y485946D01*
X823565Y486289D01*
X825997Y487297D01*
X828086Y488900D01*
X829689Y490989D01*
X830697Y493422D01*
X831040Y496032D01*
X830697Y498643D01*
X829689Y501075D01*
X828086Y503164D01*
X825997Y504767D01*
X823565Y505775D01*
X820954Y506118D01*
D02*
G37*
G36*
X795554D02*
X792943Y505775D01*
X790511Y504767D01*
X788422Y503164D01*
X786819Y501075D01*
X785811Y498643D01*
X785468Y496032D01*
X785811Y493422D01*
X786819Y490989D01*
X788422Y488900D01*
X790511Y487297D01*
X792943Y486289D01*
X795554Y485946D01*
X798165Y486289D01*
X800597Y487297D01*
X802686Y488900D01*
X804289Y490989D01*
X805297Y493422D01*
X805640Y496032D01*
X805297Y498643D01*
X804289Y501075D01*
X802686Y503164D01*
X800597Y504767D01*
X798165Y505775D01*
X795554Y506118D01*
D02*
G37*
G36*
X1205154Y504032D02*
X1185154D01*
Y484032D01*
X1205154D01*
Y504032D01*
D02*
G37*
G36*
X651154Y502640D02*
X649008Y502213D01*
X647189Y500997D01*
X645973Y499178D01*
X645546Y497032D01*
X645973Y494886D01*
X647189Y493067D01*
X649008Y491851D01*
X651154Y491424D01*
X653300Y491851D01*
X655119Y493067D01*
X656335Y494886D01*
X656762Y497032D01*
X656335Y499178D01*
X655119Y500997D01*
X653300Y502213D01*
X651154Y502640D01*
D02*
G37*
G36*
X780154Y506032D02*
X760154D01*
Y486032D01*
X780154D01*
Y506032D01*
D02*
G37*
G36*
X846354Y506118D02*
X843744Y505775D01*
X841311Y504767D01*
X839222Y503164D01*
X837619Y501075D01*
X836611Y498643D01*
X836268Y496032D01*
X836611Y493422D01*
X837619Y490989D01*
X839222Y488900D01*
X841311Y487297D01*
X843744Y486289D01*
X846354Y485946D01*
X848964Y486289D01*
X851397Y487297D01*
X853486Y488900D01*
X855089Y490989D01*
X856097Y493422D01*
X856440Y496032D01*
X856097Y498643D01*
X855089Y501075D01*
X853486Y503164D01*
X851397Y504767D01*
X848964Y505775D01*
X846354Y506118D01*
D02*
G37*
G36*
X1100504Y503582D02*
X1080004D01*
Y483082D01*
X1100504D01*
Y503582D01*
D02*
G37*
G36*
X954854Y503670D02*
X952178Y503318D01*
X949685Y502285D01*
X947544Y500642D01*
X945901Y498501D01*
X944868Y496008D01*
X944516Y493332D01*
X944868Y490656D01*
X945901Y488163D01*
X947544Y486022D01*
X949685Y484379D01*
X952178Y483346D01*
X954854Y482994D01*
X957530Y483346D01*
X960023Y484379D01*
X962164Y486022D01*
X963807Y488163D01*
X964840Y490656D01*
X965192Y493332D01*
X964840Y496008D01*
X963807Y498501D01*
X962164Y500642D01*
X960023Y502285D01*
X957530Y503318D01*
X954854Y503670D01*
D02*
G37*
G36*
X929454D02*
X926778Y503318D01*
X924285Y502285D01*
X922144Y500642D01*
X920501Y498501D01*
X919468Y496008D01*
X919116Y493332D01*
X919468Y490656D01*
X920501Y488163D01*
X922144Y486022D01*
X924285Y484379D01*
X926778Y483346D01*
X929454Y482994D01*
X932130Y483346D01*
X934623Y484379D01*
X936764Y486022D01*
X938407Y488163D01*
X939440Y490656D01*
X939792Y493332D01*
X939440Y496008D01*
X938407Y498501D01*
X936764Y500642D01*
X934623Y502285D01*
X932130Y503318D01*
X929454Y503670D01*
D02*
G37*
G36*
X904054D02*
X901378Y503318D01*
X898885Y502285D01*
X896744Y500642D01*
X895101Y498501D01*
X894068Y496008D01*
X893716Y493332D01*
X894068Y490656D01*
X895101Y488163D01*
X896744Y486022D01*
X898885Y484379D01*
X901378Y483346D01*
X904054Y482994D01*
X906730Y483346D01*
X909223Y484379D01*
X911364Y486022D01*
X913007Y488163D01*
X914040Y490656D01*
X914392Y493332D01*
X914040Y496008D01*
X913007Y498501D01*
X911364Y500642D01*
X909223Y502285D01*
X906730Y503318D01*
X904054Y503670D01*
D02*
G37*
G36*
X1064854D02*
X1062178Y503318D01*
X1059685Y502285D01*
X1057544Y500642D01*
X1055901Y498501D01*
X1054868Y496008D01*
X1054516Y493332D01*
X1054868Y490656D01*
X1055901Y488163D01*
X1057544Y486022D01*
X1059685Y484379D01*
X1062178Y483346D01*
X1064854Y482994D01*
X1067530Y483346D01*
X1070023Y484379D01*
X1072164Y486022D01*
X1073807Y488163D01*
X1074840Y490656D01*
X1075192Y493332D01*
X1074840Y496008D01*
X1073807Y498501D01*
X1072164Y500642D01*
X1070023Y502285D01*
X1067530Y503318D01*
X1064854Y503670D01*
D02*
G37*
G36*
X1039454D02*
X1036778Y503318D01*
X1034285Y502285D01*
X1032144Y500642D01*
X1030501Y498501D01*
X1029468Y496008D01*
X1029116Y493332D01*
X1029468Y490656D01*
X1030501Y488163D01*
X1032144Y486022D01*
X1034285Y484379D01*
X1036778Y483346D01*
X1039454Y482994D01*
X1042130Y483346D01*
X1044623Y484379D01*
X1046764Y486022D01*
X1048407Y488163D01*
X1049440Y490656D01*
X1049792Y493332D01*
X1049440Y496008D01*
X1048407Y498501D01*
X1046764Y500642D01*
X1044623Y502285D01*
X1042130Y503318D01*
X1039454Y503670D01*
D02*
G37*
G36*
X1014054D02*
X1011378Y503318D01*
X1008885Y502285D01*
X1006744Y500642D01*
X1005101Y498501D01*
X1004068Y496008D01*
X1003716Y493332D01*
X1004068Y490656D01*
X1005101Y488163D01*
X1006744Y486022D01*
X1008885Y484379D01*
X1011378Y483346D01*
X1014054Y482994D01*
X1016730Y483346D01*
X1019223Y484379D01*
X1021364Y486022D01*
X1023007Y488163D01*
X1024040Y490656D01*
X1024392Y493332D01*
X1024040Y496008D01*
X1023007Y498501D01*
X1021364Y500642D01*
X1019223Y502285D01*
X1016730Y503318D01*
X1014054Y503670D01*
D02*
G37*
G36*
X677154Y502640D02*
X675008Y502213D01*
X673189Y500997D01*
X671973Y499178D01*
X671546Y497032D01*
X671973Y494886D01*
X673189Y493067D01*
X675008Y491851D01*
X677154Y491424D01*
X679300Y491851D01*
X681119Y493067D01*
X682335Y494886D01*
X682762Y497032D01*
X682335Y499178D01*
X681119Y500997D01*
X679300Y502213D01*
X677154Y502640D01*
D02*
G37*
G36*
X1100504Y528982D02*
X1080004D01*
Y508482D01*
X1100504D01*
Y528982D01*
D02*
G37*
G36*
X990504D02*
X970004D01*
Y508482D01*
X990504D01*
Y528982D01*
D02*
G37*
G36*
X1064854Y529070D02*
X1062178Y528718D01*
X1059685Y527685D01*
X1057544Y526042D01*
X1055901Y523901D01*
X1054868Y521408D01*
X1054516Y518732D01*
X1054868Y516056D01*
X1055901Y513563D01*
X1057544Y511422D01*
X1059685Y509779D01*
X1062178Y508746D01*
X1064854Y508394D01*
X1067530Y508746D01*
X1070023Y509779D01*
X1072164Y511422D01*
X1073807Y513563D01*
X1074840Y516056D01*
X1075192Y518732D01*
X1074840Y521408D01*
X1073807Y523901D01*
X1072164Y526042D01*
X1070023Y527685D01*
X1067530Y528718D01*
X1064854Y529070D01*
D02*
G37*
G36*
X1153144Y550118D02*
X1150534Y549775D01*
X1148101Y548767D01*
X1146012Y547164D01*
X1144409Y545075D01*
X1143401Y542643D01*
X1143058Y540032D01*
X1143401Y537421D01*
X1144409Y534989D01*
X1146012Y532900D01*
X1148101Y531297D01*
X1150534Y530289D01*
X1153144Y529946D01*
X1155754Y530289D01*
X1158187Y531297D01*
X1160276Y532900D01*
X1161879Y534989D01*
X1162887Y537421D01*
X1163230Y540032D01*
X1162887Y542643D01*
X1161879Y545075D01*
X1160276Y547164D01*
X1158187Y548767D01*
X1155754Y549775D01*
X1153144Y550118D01*
D02*
G37*
G36*
X708654Y531140D02*
X706508Y530713D01*
X704689Y529497D01*
X703473Y527678D01*
X703046Y525532D01*
X703473Y523386D01*
X704689Y521567D01*
X706508Y520351D01*
X708654Y519924D01*
X710800Y520351D01*
X712619Y521567D01*
X713835Y523386D01*
X714262Y525532D01*
X713835Y527678D01*
X712619Y529497D01*
X710800Y530713D01*
X708654Y531140D01*
D02*
G37*
G36*
X1195154Y529518D02*
X1192543Y529175D01*
X1190111Y528167D01*
X1188022Y526564D01*
X1186419Y524475D01*
X1185411Y522043D01*
X1185068Y519432D01*
X1185411Y516822D01*
X1186419Y514389D01*
X1188022Y512300D01*
X1190111Y510697D01*
X1192543Y509689D01*
X1195154Y509346D01*
X1197765Y509689D01*
X1200197Y510697D01*
X1202286Y512300D01*
X1203889Y514389D01*
X1204897Y516822D01*
X1205240Y519432D01*
X1204897Y522043D01*
X1203889Y524475D01*
X1202286Y526564D01*
X1200197Y528167D01*
X1197765Y529175D01*
X1195154Y529518D01*
D02*
G37*
G36*
X1039454Y529070D02*
X1036778Y528718D01*
X1034285Y527685D01*
X1032144Y526042D01*
X1030501Y523901D01*
X1029468Y521408D01*
X1029116Y518732D01*
X1029468Y516056D01*
X1030501Y513563D01*
X1032144Y511422D01*
X1034285Y509779D01*
X1036778Y508746D01*
X1039454Y508394D01*
X1042130Y508746D01*
X1044623Y509779D01*
X1046764Y511422D01*
X1048407Y513563D01*
X1049440Y516056D01*
X1049792Y518732D01*
X1049440Y521408D01*
X1048407Y523901D01*
X1046764Y526042D01*
X1044623Y527685D01*
X1042130Y528718D01*
X1039454Y529070D01*
D02*
G37*
G36*
X904054D02*
X901378Y528718D01*
X898885Y527685D01*
X896744Y526042D01*
X895101Y523901D01*
X894068Y521408D01*
X893716Y518732D01*
X894068Y516056D01*
X895101Y513563D01*
X896744Y511422D01*
X898885Y509779D01*
X901378Y508746D01*
X904054Y508394D01*
X906730Y508746D01*
X909223Y509779D01*
X911364Y511422D01*
X913007Y513563D01*
X914040Y516056D01*
X914392Y518732D01*
X914040Y521408D01*
X913007Y523901D01*
X911364Y526042D01*
X909223Y527685D01*
X906730Y528718D01*
X904054Y529070D01*
D02*
G37*
G36*
X726154Y502640D02*
X724008Y502213D01*
X722189Y500997D01*
X720973Y499178D01*
X720546Y497032D01*
X720973Y494886D01*
X722189Y493067D01*
X724008Y491851D01*
X726154Y491424D01*
X728300Y491851D01*
X730119Y493067D01*
X731335Y494886D01*
X731762Y497032D01*
X731335Y499178D01*
X730119Y500997D01*
X728300Y502213D01*
X726154Y502640D01*
D02*
G37*
G36*
X700154D02*
X698008Y502213D01*
X696189Y500997D01*
X694973Y499178D01*
X694546Y497032D01*
X694973Y494886D01*
X696189Y493067D01*
X698008Y491851D01*
X700154Y491424D01*
X702300Y491851D01*
X704119Y493067D01*
X705335Y494886D01*
X705762Y497032D01*
X705335Y499178D01*
X704119Y500997D01*
X702300Y502213D01*
X700154Y502640D01*
D02*
G37*
G36*
X1014054Y529070D02*
X1011378Y528718D01*
X1008885Y527685D01*
X1006744Y526042D01*
X1005101Y523901D01*
X1004068Y521408D01*
X1003716Y518732D01*
X1004068Y516056D01*
X1005101Y513563D01*
X1006744Y511422D01*
X1008885Y509779D01*
X1011378Y508746D01*
X1014054Y508394D01*
X1016730Y508746D01*
X1019223Y509779D01*
X1021364Y511422D01*
X1023007Y513563D01*
X1024040Y516056D01*
X1024392Y518732D01*
X1024040Y521408D01*
X1023007Y523901D01*
X1021364Y526042D01*
X1019223Y527685D01*
X1016730Y528718D01*
X1014054Y529070D01*
D02*
G37*
G36*
X954854D02*
X952178Y528718D01*
X949685Y527685D01*
X947544Y526042D01*
X945901Y523901D01*
X944868Y521408D01*
X944516Y518732D01*
X944868Y516056D01*
X945901Y513563D01*
X947544Y511422D01*
X949685Y509779D01*
X952178Y508746D01*
X954854Y508394D01*
X957530Y508746D01*
X960023Y509779D01*
X962164Y511422D01*
X963807Y513563D01*
X964840Y516056D01*
X965192Y518732D01*
X964840Y521408D01*
X963807Y523901D01*
X962164Y526042D01*
X960023Y527685D01*
X957530Y528718D01*
X954854Y529070D01*
D02*
G37*
G36*
X929454D02*
X926778Y528718D01*
X924285Y527685D01*
X922144Y526042D01*
X920501Y523901D01*
X919468Y521408D01*
X919116Y518732D01*
X919468Y516056D01*
X920501Y513563D01*
X922144Y511422D01*
X924285Y509779D01*
X926778Y508746D01*
X929454Y508394D01*
X932130Y508746D01*
X934623Y509779D01*
X936764Y511422D01*
X938407Y513563D01*
X939440Y516056D01*
X939792Y518732D01*
X939440Y521408D01*
X938407Y523901D01*
X936764Y526042D01*
X934623Y527685D01*
X932130Y528718D01*
X929454Y529070D01*
D02*
G37*
G36*
X696154Y697640D02*
X694008Y697213D01*
X692189Y695997D01*
X690973Y694178D01*
X690546Y692032D01*
X690973Y689886D01*
X692189Y688067D01*
X694008Y686851D01*
X696154Y686424D01*
X698300Y686851D01*
X700119Y688067D01*
X701335Y689886D01*
X701762Y692032D01*
X701335Y694178D01*
X700119Y695997D01*
X698300Y697213D01*
X696154Y697640D01*
D02*
G37*
G36*
X1083154Y688640D02*
X1081008Y688213D01*
X1079189Y686997D01*
X1077973Y685178D01*
X1077546Y683032D01*
X1077973Y680886D01*
X1079189Y679067D01*
X1081008Y677851D01*
X1083154Y677424D01*
X1085300Y677851D01*
X1087119Y679067D01*
X1088335Y680886D01*
X1088762Y683032D01*
X1088335Y685178D01*
X1087119Y686997D01*
X1085300Y688213D01*
X1083154Y688640D01*
D02*
G37*
G36*
X1067154Y686855D02*
X1065691Y686564D01*
X1064450Y685736D01*
X1063622Y684495D01*
X1063331Y683032D01*
X1063622Y681569D01*
X1064450Y680328D01*
X1071548Y673231D01*
X1070742Y672249D01*
X1070742D01*
X1070742Y672249D01*
X1069300Y673213D01*
X1067154Y673640D01*
X1065008Y673213D01*
X1063189Y671997D01*
X1061973Y670178D01*
X1061546Y668032D01*
X1061973Y665886D01*
X1063189Y664067D01*
X1065008Y662851D01*
X1067154Y662424D01*
X1069300Y662851D01*
X1071119Y664067D01*
X1072335Y665886D01*
X1072762Y668032D01*
X1072335Y670178D01*
X1071371Y671620D01*
X1072353Y672426D01*
X1079450Y665328D01*
X1080691Y664500D01*
X1082154Y664209D01*
X1083154D01*
X1084617Y664500D01*
X1085858Y665328D01*
X1086686Y666569D01*
X1086977Y668032D01*
X1086686Y669495D01*
X1085858Y670736D01*
X1084617Y671564D01*
X1083883Y671711D01*
X1069858Y685736D01*
X1068617Y686564D01*
X1067154Y686855D01*
D02*
G37*
G36*
X1171358Y703640D02*
X1169212Y703213D01*
X1167393Y701997D01*
X1166178Y700178D01*
X1165751Y698032D01*
X1166178Y695886D01*
X1167393Y694067D01*
X1169212Y692851D01*
X1171358Y692424D01*
X1173504Y692851D01*
X1175324Y694067D01*
X1176539Y695886D01*
X1176966Y698032D01*
X1176539Y700178D01*
X1175324Y701997D01*
X1173504Y703213D01*
X1171358Y703640D01*
D02*
G37*
G36*
X1150204D02*
X1148058Y703213D01*
X1146239Y701997D01*
X1145023Y700178D01*
X1144596Y698032D01*
X1145023Y695886D01*
X1146239Y694067D01*
X1148058Y692851D01*
X1150204Y692424D01*
X1152350Y692851D01*
X1154169Y694067D01*
X1155385Y695886D01*
X1155812Y698032D01*
X1155385Y700178D01*
X1154169Y701997D01*
X1152350Y703213D01*
X1150204Y703640D01*
D02*
G37*
G36*
X1067154D02*
X1065008Y703213D01*
X1063189Y701997D01*
X1061973Y700178D01*
X1061546Y698032D01*
X1061973Y695886D01*
X1063189Y694067D01*
X1065008Y692851D01*
X1067154Y692424D01*
X1069300Y692851D01*
X1071119Y694067D01*
X1072335Y695886D01*
X1072762Y698032D01*
X1072335Y700178D01*
X1071119Y701997D01*
X1069300Y703213D01*
X1067154Y703640D01*
D02*
G37*
G36*
X1194154Y682640D02*
X1192008Y682213D01*
X1190189Y680997D01*
X1188973Y679178D01*
X1188546Y677032D01*
X1188973Y674886D01*
X1190189Y673067D01*
X1192008Y671851D01*
X1194154Y671424D01*
X1196300Y671851D01*
X1198119Y673067D01*
X1199335Y674886D01*
X1199762Y677032D01*
X1199335Y679178D01*
X1198119Y680997D01*
X1196300Y682213D01*
X1194154Y682640D01*
D02*
G37*
G36*
X783154Y667640D02*
X781008Y667213D01*
X779189Y665997D01*
X777973Y664178D01*
X777546Y662032D01*
X777973Y659886D01*
X779189Y658067D01*
X781008Y656851D01*
X783154Y656424D01*
X785300Y656851D01*
X787119Y658067D01*
X788335Y659886D01*
X788762Y662032D01*
X788335Y664178D01*
X787119Y665997D01*
X785300Y667213D01*
X783154Y667640D01*
D02*
G37*
G36*
X766154D02*
X764008Y667213D01*
X762189Y665997D01*
X760973Y664178D01*
X760546Y662032D01*
X760973Y659886D01*
X762189Y658067D01*
X764008Y656851D01*
X766154Y656424D01*
X768300Y656851D01*
X770119Y658067D01*
X771335Y659886D01*
X771762Y662032D01*
X771335Y664178D01*
X770119Y665997D01*
X768300Y667213D01*
X766154Y667640D01*
D02*
G37*
G36*
X1194154Y664862D02*
X1192008Y664435D01*
X1190189Y663219D01*
X1188973Y661400D01*
X1188546Y659254D01*
X1188973Y657108D01*
X1190189Y655289D01*
X1192008Y654073D01*
X1194154Y653646D01*
X1196300Y654073D01*
X1198119Y655289D01*
X1199335Y657108D01*
X1199762Y659254D01*
X1199335Y661400D01*
X1198119Y663219D01*
X1196300Y664435D01*
X1194154Y664862D01*
D02*
G37*
G36*
X1171358Y682640D02*
X1169212Y682213D01*
X1167393Y680997D01*
X1166178Y679178D01*
X1165751Y677032D01*
X1166178Y674886D01*
X1167393Y673067D01*
X1169212Y671851D01*
X1171358Y671424D01*
X1173504Y671851D01*
X1175324Y673067D01*
X1176539Y674886D01*
X1176966Y677032D01*
X1176539Y679178D01*
X1175324Y680997D01*
X1173504Y682213D01*
X1171358Y682640D01*
D02*
G37*
G36*
X1150204D02*
X1148058Y682213D01*
X1146239Y680997D01*
X1145023Y679178D01*
X1144596Y677032D01*
X1145023Y674886D01*
X1146239Y673067D01*
X1148058Y671851D01*
X1150204Y671424D01*
X1152350Y671851D01*
X1154169Y673067D01*
X1155385Y674886D01*
X1155812Y677032D01*
X1155385Y679178D01*
X1154169Y680997D01*
X1152350Y682213D01*
X1150204Y682640D01*
D02*
G37*
G36*
X1024154Y676640D02*
X1022008Y676213D01*
X1020189Y674997D01*
X1018973Y673178D01*
X1018546Y671032D01*
X1018973Y668886D01*
X1020189Y667067D01*
X1022008Y665851D01*
X1024154Y665424D01*
X1026300Y665851D01*
X1028119Y667067D01*
X1029335Y668886D01*
X1029762Y671032D01*
X1029335Y673178D01*
X1028119Y674997D01*
X1026300Y676213D01*
X1024154Y676640D01*
D02*
G37*
G36*
X1194154Y703640D02*
X1192008Y703213D01*
X1190189Y701997D01*
X1188973Y700178D01*
X1188546Y698032D01*
X1188973Y695886D01*
X1190189Y694067D01*
X1192008Y692851D01*
X1194154Y692424D01*
X1196300Y692851D01*
X1198119Y694067D01*
X1199335Y695886D01*
X1199762Y698032D01*
X1199335Y700178D01*
X1198119Y701997D01*
X1196300Y703213D01*
X1194154Y703640D01*
D02*
G37*
G36*
X1019654Y736820D02*
X1017508Y736393D01*
X1015689Y735177D01*
X1014473Y733358D01*
X1014046Y731212D01*
X1014473Y729066D01*
X1015689Y727247D01*
X1017508Y726031D01*
X1019654Y725604D01*
X1020668Y725806D01*
X1022046Y725532D01*
X1022473Y723386D01*
X1023689Y721567D01*
X1025508Y720351D01*
X1027654Y719924D01*
X1029800Y720351D01*
X1031619Y721567D01*
X1032835Y723386D01*
X1033262Y725532D01*
X1032835Y727678D01*
X1031619Y729497D01*
X1029800Y730713D01*
X1027654Y731140D01*
X1026639Y730938D01*
X1025262Y731212D01*
X1024835Y733358D01*
X1023619Y735177D01*
X1021800Y736393D01*
X1019654Y736820D01*
D02*
G37*
G36*
X899154Y717640D02*
X897008Y717213D01*
X895189Y715997D01*
X895119D01*
X893300Y717213D01*
X891154Y717640D01*
X889008Y717213D01*
X887189Y715997D01*
X885973Y714178D01*
X885648Y712542D01*
X885154Y712640D01*
X883008Y712213D01*
X881189Y710997D01*
X880335Y709720D01*
X880299Y709713D01*
Y709713D01*
X880299Y709713D01*
X878153Y710140D01*
X876007Y709713D01*
X876007Y709713D01*
X876007Y709713D01*
X875973Y709720D01*
X875119Y710997D01*
X873300Y712213D01*
X871154Y712640D01*
X869008Y712213D01*
X867189Y710997D01*
X866321Y709698D01*
X866299Y709713D01*
X864153Y710140D01*
X862008Y709713D01*
X862007Y709713D01*
X862007Y709713D01*
X861973Y709720D01*
X861119Y710997D01*
X859300Y712213D01*
X857154Y712640D01*
X855008Y712213D01*
X853189Y710997D01*
X852335Y709720D01*
X852300Y709713D01*
Y709713D01*
X852300Y709713D01*
X850154Y710140D01*
X848008Y709713D01*
X846189Y708497D01*
X844973Y706678D01*
X844546Y704532D01*
X844973Y702386D01*
X846189Y700567D01*
X848008Y699351D01*
X850154Y698924D01*
X852300Y699351D01*
X854119Y700567D01*
X854973Y701844D01*
X855008Y701851D01*
Y701851D01*
X855008Y701851D01*
X857154Y701424D01*
X859300Y701851D01*
X859300Y701851D01*
X859300Y701851D01*
X859335Y701844D01*
X860188Y700567D01*
X862007Y699351D01*
X863819Y698991D01*
X864187Y697775D01*
X859674Y693262D01*
X858569Y691608D01*
X858181Y689657D01*
Y656130D01*
X850424D01*
X850300Y656213D01*
X848154Y656640D01*
X846008Y656213D01*
X844189Y654997D01*
X842973Y653178D01*
X842546Y651032D01*
X842973Y648886D01*
X844189Y647067D01*
X846008Y645851D01*
X848154Y645424D01*
X850300Y645851D01*
X850424Y645934D01*
X858181D01*
Y611657D01*
X858181Y611657D01*
X858181D01*
X858569Y609706D01*
X859674Y608052D01*
X869924Y597802D01*
X871578Y596697D01*
X873529Y596309D01*
X914056D01*
Y590802D01*
X913973Y590678D01*
X913546Y588532D01*
X913973Y586386D01*
X915189Y584567D01*
X917008Y583351D01*
X919154Y582924D01*
X921300Y583351D01*
X923119Y584567D01*
X924335Y586386D01*
X924762Y588532D01*
X924335Y590678D01*
X924252Y590802D01*
Y596309D01*
X948879D01*
X950830Y596697D01*
X952484Y597802D01*
X952484Y597802D01*
X952484Y597802D01*
X958459Y603777D01*
X959564Y605431D01*
X959628Y605755D01*
X959952Y607382D01*
Y638934D01*
X961884D01*
X962008Y638851D01*
X964154Y638424D01*
X966300Y638851D01*
X968119Y640067D01*
X969335Y641886D01*
X969762Y644032D01*
X969335Y646178D01*
X968119Y647997D01*
X966300Y649213D01*
X964154Y649640D01*
X962008Y649213D01*
X961884Y649130D01*
X959952D01*
Y654878D01*
X961072Y655477D01*
X962008Y654851D01*
X964154Y654424D01*
X966300Y654851D01*
X968119Y656067D01*
X969335Y657886D01*
X969762Y660032D01*
X969335Y662178D01*
X968119Y663997D01*
X966300Y665213D01*
X964154Y665640D01*
X962008Y665213D01*
X961072Y664587D01*
X959952Y665186D01*
Y690332D01*
X959628Y691959D01*
X959564Y692283D01*
X958459Y693937D01*
X955044Y697351D01*
X955643Y698471D01*
X955879Y698424D01*
X958025Y698851D01*
X959845Y700067D01*
X961060Y701886D01*
X961487Y704032D01*
X961060Y706178D01*
X959845Y707997D01*
X958025Y709213D01*
X955879Y709640D01*
X953733Y709213D01*
X952379Y708308D01*
X951025Y709213D01*
X948879Y709640D01*
X946733Y709213D01*
X945379Y708308D01*
X944025Y709213D01*
X941879Y709640D01*
X939733Y709213D01*
X938379Y708308D01*
X937025Y709213D01*
X934879Y709640D01*
X932733Y709213D01*
X931379Y708308D01*
X930025Y709213D01*
X927879Y709640D01*
X925733Y709213D01*
X923914Y707997D01*
X922698Y706178D01*
X922516Y705260D01*
X921252Y705385D01*
Y707262D01*
X921335Y707386D01*
X921762Y709532D01*
X921335Y711678D01*
X920119Y713497D01*
X918300Y714713D01*
X916154Y715140D01*
X914008Y714713D01*
X912189Y713497D01*
X910973Y711678D01*
X910546Y709532D01*
X910973Y707386D01*
X911056Y707262D01*
Y701130D01*
X888408D01*
X888039Y702345D01*
X889119Y703067D01*
X890335Y704886D01*
X890660Y706523D01*
X891154Y706424D01*
X893300Y706851D01*
X895119Y708067D01*
X895189D01*
X897008Y706851D01*
X899154Y706424D01*
X901300Y706851D01*
X903119Y708067D01*
X904335Y709886D01*
X904762Y712032D01*
X904335Y714178D01*
X903119Y715997D01*
X901300Y717213D01*
X899154Y717640D01*
D02*
G37*
G36*
X805654Y715140D02*
X803508Y714713D01*
X801689Y713497D01*
X800619D01*
X798800Y714713D01*
X796654Y715140D01*
X794508Y714713D01*
X792689Y713497D01*
X791473Y711678D01*
X791046Y709532D01*
X791473Y707386D01*
X792689Y705567D01*
X794508Y704351D01*
X796654Y703924D01*
X798800Y704351D01*
X800619Y705567D01*
X801689D01*
X803508Y704351D01*
X805654Y703924D01*
X807800Y704351D01*
X809619Y705567D01*
X810835Y707386D01*
X811262Y709532D01*
X810835Y711678D01*
X809619Y713497D01*
X807800Y714713D01*
X805654Y715140D01*
D02*
G37*
G36*
X1035154Y741640D02*
X1033008Y741213D01*
X1031189Y739997D01*
X1029973Y738178D01*
X1029546Y736032D01*
X1029973Y733886D01*
X1031189Y732067D01*
X1033008Y730851D01*
X1035154Y730424D01*
X1037300Y730851D01*
X1039119Y732067D01*
X1040335Y733886D01*
X1040762Y736032D01*
X1040335Y738178D01*
X1039119Y739997D01*
X1037300Y741213D01*
X1035154Y741640D01*
D02*
G37*
G36*
X677972D02*
X675826Y741213D01*
X674007Y739997D01*
X672791Y738178D01*
X672365Y736032D01*
X672791Y733886D01*
X674007Y732067D01*
X675826Y730851D01*
X677972Y730424D01*
X680118Y730851D01*
X681937Y732067D01*
X683153Y733886D01*
X683580Y736032D01*
X683153Y738178D01*
X681937Y739997D01*
X680118Y741213D01*
X677972Y741640D01*
D02*
G37*
G36*
X1152954Y741340D02*
X1150808Y740913D01*
X1148989Y739697D01*
X1147773Y737878D01*
X1147346Y735732D01*
X1147773Y733586D01*
X1148989Y731767D01*
X1150808Y730551D01*
X1152954Y730124D01*
X1155100Y730551D01*
X1156919Y731767D01*
X1158135Y733586D01*
X1158562Y735732D01*
X1158135Y737878D01*
X1156919Y739697D01*
X1155100Y740913D01*
X1152954Y741340D01*
D02*
G37*
G36*
X1194454Y721640D02*
X1192308Y721213D01*
X1190489Y719997D01*
X1189273Y718178D01*
X1188846Y716032D01*
X1189273Y713886D01*
X1190489Y712067D01*
X1192308Y710851D01*
X1194454Y710424D01*
X1196600Y710851D01*
X1198419Y712067D01*
X1199635Y713886D01*
X1200062Y716032D01*
X1199635Y718178D01*
X1198419Y719997D01*
X1196600Y721213D01*
X1194454Y721640D01*
D02*
G37*
G36*
X1067154Y718640D02*
X1065008Y718213D01*
X1063189Y716997D01*
X1061973Y715178D01*
X1061546Y713032D01*
X1061973Y710886D01*
X1063189Y709067D01*
X1065008Y707851D01*
X1067154Y707424D01*
X1069300Y707851D01*
X1071119Y709067D01*
X1072335Y710886D01*
X1072762Y713032D01*
X1072335Y715178D01*
X1071119Y716997D01*
X1069300Y718213D01*
X1067154Y718640D01*
D02*
G37*
G36*
X1013854Y711140D02*
X1011708Y710713D01*
X1009889Y709497D01*
X1008673Y707678D01*
X1008246Y705532D01*
X1008673Y703386D01*
X1009889Y701567D01*
X1011708Y700351D01*
X1013854Y699924D01*
X1016000Y700351D01*
X1017819Y701567D01*
X1019035Y703386D01*
X1019462Y705532D01*
X1019035Y707678D01*
X1017819Y709497D01*
X1016000Y710713D01*
X1013854Y711140D01*
D02*
G37*
G36*
X1036404Y705640D02*
X1034258Y705213D01*
X1032439Y703997D01*
X1031223Y702178D01*
X1030796Y700032D01*
X1031223Y697886D01*
X1032439Y696067D01*
X1034258Y694851D01*
X1036404Y694424D01*
X1038550Y694851D01*
X1040369Y696067D01*
X1041585Y697886D01*
X1042012Y700032D01*
X1041585Y702178D01*
X1040369Y703997D01*
X1038550Y705213D01*
X1036404Y705640D01*
D02*
G37*
G36*
X1171658Y721640D02*
X1169512Y721213D01*
X1167693Y719997D01*
X1166478Y718178D01*
X1166051Y716032D01*
X1166478Y713886D01*
X1167693Y712067D01*
X1169512Y710851D01*
X1171658Y710424D01*
X1173804Y710851D01*
X1175624Y712067D01*
X1176839Y713886D01*
X1177266Y716032D01*
X1176839Y718178D01*
X1175624Y719997D01*
X1173804Y721213D01*
X1171658Y721640D01*
D02*
G37*
G36*
X1150504D02*
X1148358Y721213D01*
X1146539Y719997D01*
X1145323Y718178D01*
X1144896Y716032D01*
X1145323Y713886D01*
X1146539Y712067D01*
X1148358Y710851D01*
X1150504Y710424D01*
X1152650Y710851D01*
X1154469Y712067D01*
X1155685Y713886D01*
X1156112Y716032D01*
X1155685Y718178D01*
X1154469Y719997D01*
X1152650Y721213D01*
X1150504Y721640D01*
D02*
G37*
G36*
X1000654Y719140D02*
X998508Y718713D01*
X996689Y717497D01*
X995473Y715678D01*
X995046Y713532D01*
X995473Y711386D01*
X996689Y709567D01*
X998508Y708351D01*
X1000654Y707924D01*
X1002800Y708351D01*
X1004619Y709567D01*
X1005835Y711386D01*
X1006262Y713532D01*
X1005835Y715678D01*
X1004619Y717497D01*
X1002800Y718713D01*
X1000654Y719140D01*
D02*
G37*
G36*
X1171358Y664862D02*
X1169212Y664435D01*
X1167393Y663219D01*
X1166178Y661400D01*
X1165751Y659254D01*
X1166178Y657108D01*
X1167393Y655289D01*
X1169212Y654073D01*
X1171358Y653646D01*
X1173504Y654073D01*
X1175324Y655289D01*
X1176539Y657108D01*
X1176966Y659254D01*
X1176539Y661400D01*
X1175324Y663219D01*
X1173504Y664435D01*
X1171358Y664862D01*
D02*
G37*
G36*
X1194154Y628483D02*
X1192008Y628056D01*
X1190189Y626841D01*
X1188973Y625021D01*
X1188546Y622875D01*
X1188973Y620729D01*
X1190189Y618910D01*
X1192008Y617694D01*
X1194154Y617268D01*
X1196300Y617694D01*
X1198119Y618910D01*
X1199335Y620729D01*
X1199762Y622875D01*
X1199335Y625021D01*
X1198119Y626841D01*
X1196300Y628056D01*
X1194154Y628483D01*
D02*
G37*
G36*
X1172154D02*
X1170008Y628056D01*
X1168189Y626841D01*
X1166973Y625021D01*
X1166546Y622875D01*
X1166973Y620729D01*
X1168189Y618910D01*
X1170008Y617694D01*
X1172154Y617268D01*
X1174300Y617694D01*
X1176119Y618910D01*
X1177335Y620729D01*
X1177762Y622875D01*
X1177335Y625021D01*
X1176119Y626841D01*
X1174300Y628056D01*
X1172154Y628483D01*
D02*
G37*
G36*
X1121694Y626140D02*
X1119548Y625713D01*
X1117729Y624497D01*
X1116513Y622678D01*
X1116086Y620532D01*
X1116513Y618386D01*
X1117729Y616567D01*
X1119548Y615351D01*
X1121694Y614924D01*
X1123840Y615351D01*
X1125659Y616567D01*
X1126875Y618386D01*
X1127302Y620532D01*
X1126875Y622678D01*
X1125659Y624497D01*
X1123840Y625713D01*
X1121694Y626140D01*
D02*
G37*
G36*
X848154Y632640D02*
X846008Y632213D01*
X844189Y630997D01*
X842973Y629178D01*
X842546Y627032D01*
X842973Y624886D01*
X844189Y623067D01*
X846008Y621851D01*
X848154Y621424D01*
X850300Y621851D01*
X852119Y623067D01*
X853335Y624886D01*
X853762Y627032D01*
X853335Y629178D01*
X852119Y630997D01*
X850300Y632213D01*
X848154Y632640D01*
D02*
G37*
G36*
X1047954Y629840D02*
X1045808Y629413D01*
X1043989Y628197D01*
X1042773Y626378D01*
X1042346Y624232D01*
X1042773Y622086D01*
X1043989Y620267D01*
X1045808Y619051D01*
X1047954Y618624D01*
X1050100Y619051D01*
X1051919Y620267D01*
X1053135Y622086D01*
X1053562Y624232D01*
X1053135Y626378D01*
X1051919Y628197D01*
X1050100Y629413D01*
X1047954Y629840D01*
D02*
G37*
G36*
X818154Y628640D02*
X816008Y628213D01*
X814189Y626997D01*
X812973Y625178D01*
X812546Y623032D01*
X812973Y620886D01*
X814189Y619067D01*
X816008Y617851D01*
X818154Y617424D01*
X820300Y617851D01*
X822119Y619067D01*
X823335Y620886D01*
X823762Y623032D01*
X823335Y625178D01*
X822119Y626997D01*
X820300Y628213D01*
X818154Y628640D01*
D02*
G37*
G36*
X1083154Y629840D02*
X1081008Y629413D01*
X1079189Y628197D01*
X1077973Y626378D01*
X1077546Y624232D01*
X1077973Y622086D01*
X1079189Y620267D01*
X1081008Y619051D01*
X1081936Y618867D01*
Y617596D01*
X1080008Y617213D01*
X1078189Y615997D01*
X1076973Y614178D01*
X1076546Y612032D01*
X1076973Y609886D01*
X1078189Y608067D01*
X1080008Y606851D01*
X1082154Y606424D01*
X1084300Y606851D01*
X1086119Y608067D01*
X1087335Y609886D01*
X1087762Y612032D01*
X1087335Y614178D01*
X1086119Y615997D01*
X1084300Y617213D01*
X1083372Y617397D01*
Y618667D01*
X1085300Y619051D01*
X1087119Y620267D01*
X1088335Y622086D01*
X1088762Y624232D01*
X1088335Y626378D01*
X1087119Y628197D01*
X1085300Y629413D01*
X1083154Y629840D01*
D02*
G37*
G36*
X848154Y607640D02*
X846008Y607213D01*
X844189Y605997D01*
X842973Y604178D01*
X842546Y602032D01*
X842973Y599886D01*
X844189Y598067D01*
X846008Y596851D01*
X848154Y596424D01*
X850300Y596851D01*
X852119Y598067D01*
X853335Y599886D01*
X853762Y602032D01*
X853335Y604178D01*
X852119Y605997D01*
X850300Y607213D01*
X848154Y607640D01*
D02*
G37*
G36*
X1098154Y601890D02*
X1096008Y601463D01*
X1094189Y600247D01*
X1092973Y598428D01*
X1092546Y596282D01*
X1092973Y594136D01*
X1094189Y592317D01*
X1096008Y591101D01*
X1098154Y590674D01*
X1100300Y591101D01*
X1102119Y592317D01*
X1103335Y594136D01*
X1103762Y596282D01*
X1103335Y598428D01*
X1102119Y600247D01*
X1100300Y601463D01*
X1098154Y601890D01*
D02*
G37*
G36*
X616154Y624640D02*
X614008Y624213D01*
X612189Y622997D01*
X610973Y621178D01*
X610546Y619032D01*
X610973Y616886D01*
X612189Y615067D01*
X614008Y613851D01*
X616154Y613424D01*
X618300Y613851D01*
X620119Y615067D01*
X621335Y616886D01*
X621762Y619032D01*
X621335Y621178D01*
X620119Y622997D01*
X618300Y624213D01*
X616154Y624640D01*
D02*
G37*
G36*
X996154Y636640D02*
X994008Y636213D01*
X992189Y634997D01*
X990973Y633178D01*
X990546Y631032D01*
X990973Y628886D01*
X992189Y627067D01*
X993258Y626352D01*
X993506Y625107D01*
X992793Y624040D01*
X992366Y621894D01*
X992793Y619748D01*
X993147Y619219D01*
X992899Y617973D01*
X992188Y617498D01*
X990972Y615679D01*
X990545Y613533D01*
X990972Y611387D01*
X992188Y609567D01*
X994007Y608352D01*
X996153Y607925D01*
X998299Y608352D01*
X1000118Y609567D01*
X1001334Y611387D01*
X1001761Y613533D01*
X1001334Y615679D01*
X1000980Y616208D01*
X1001228Y617454D01*
X1001939Y617929D01*
X1003155Y619748D01*
X1003582Y621894D01*
X1003155Y624040D01*
X1001939Y625859D01*
X1000870Y626574D01*
X1000622Y627820D01*
X1001335Y628886D01*
X1001762Y631032D01*
X1001335Y633178D01*
X1000119Y634997D01*
X998300Y636213D01*
X996154Y636640D01*
D02*
G37*
G36*
X1100956Y629840D02*
X1098810Y629413D01*
X1096990Y628197D01*
X1095775Y626378D01*
X1095348Y624232D01*
X1095775Y622086D01*
X1096990Y620267D01*
X1098810Y619051D01*
X1100238Y618767D01*
Y617497D01*
X1098810Y617213D01*
X1096990Y615997D01*
X1095775Y614178D01*
X1095348Y612032D01*
X1095775Y609886D01*
X1096990Y608067D01*
X1098810Y606851D01*
X1100956Y606424D01*
X1103102Y606851D01*
X1104921Y608067D01*
X1106136Y609886D01*
X1106563Y612032D01*
X1106136Y614178D01*
X1104921Y615997D01*
X1103102Y617213D01*
X1101673Y617497D01*
Y618767D01*
X1103102Y619051D01*
X1104921Y620267D01*
X1106136Y622086D01*
X1106563Y624232D01*
X1106136Y626378D01*
X1104921Y628197D01*
X1103102Y629413D01*
X1100956Y629840D01*
D02*
G37*
G36*
X1067154Y659640D02*
X1065008Y659213D01*
X1063189Y657997D01*
X1061973Y656178D01*
X1061546Y654032D01*
X1061973Y651886D01*
X1063189Y650067D01*
X1065008Y648851D01*
X1067154Y648424D01*
X1069300Y648851D01*
X1071119Y650067D01*
X1072335Y651886D01*
X1072762Y654032D01*
X1072335Y656178D01*
X1071119Y657997D01*
X1069300Y659213D01*
X1067154Y659640D01*
D02*
G37*
G36*
X639154Y658640D02*
X637008Y658213D01*
X635189Y656997D01*
X633973Y655178D01*
X633546Y653032D01*
X633973Y650886D01*
X635189Y649067D01*
X637008Y647851D01*
X639154Y647424D01*
X641300Y647851D01*
X643119Y649067D01*
X644335Y650886D01*
X644762Y653032D01*
X644335Y655178D01*
X643119Y656997D01*
X641300Y658213D01*
X639154Y658640D01*
D02*
G37*
G36*
X996154Y677640D02*
X994008Y677213D01*
X992189Y675997D01*
X990973Y674178D01*
X990546Y672032D01*
X990973Y669886D01*
X992189Y668067D01*
Y666997D01*
X990973Y665178D01*
X990546Y663032D01*
X990973Y660886D01*
X992189Y659067D01*
X994008Y657851D01*
X995037Y657646D01*
Y656376D01*
X994778Y656325D01*
X992959Y655109D01*
X991743Y653290D01*
X991316Y651144D01*
X991743Y648998D01*
X992959Y647179D01*
X994778Y645963D01*
X996924Y645536D01*
X999070Y645963D01*
X1000889Y647179D01*
X1002105Y648998D01*
X1002532Y651144D01*
X1002105Y653290D01*
X1000889Y655109D01*
X999070Y656325D01*
X998041Y656530D01*
Y657800D01*
X998300Y657851D01*
X1000119Y659067D01*
X1001335Y660886D01*
X1001762Y663032D01*
X1001335Y665178D01*
X1000119Y666997D01*
Y668067D01*
X1001335Y669886D01*
X1001762Y672032D01*
X1001335Y674178D01*
X1000119Y675997D01*
X998300Y677213D01*
X996154Y677640D01*
D02*
G37*
G36*
X1150204Y664862D02*
X1148058Y664435D01*
X1146239Y663219D01*
X1145023Y661400D01*
X1144596Y659254D01*
X1145023Y657108D01*
X1146239Y655289D01*
X1148058Y654073D01*
X1150204Y653646D01*
X1152350Y654073D01*
X1154169Y655289D01*
X1155385Y657108D01*
X1155812Y659254D01*
X1155385Y661400D01*
X1154169Y663219D01*
X1152350Y664435D01*
X1150204Y664862D01*
D02*
G37*
G36*
X1117154Y659640D02*
X1115008Y659213D01*
X1113189Y657997D01*
X1111973Y656178D01*
X1111546Y654032D01*
X1111973Y651886D01*
X1113189Y650067D01*
X1115008Y648851D01*
X1117154Y648424D01*
X1119300Y648851D01*
X1121119Y650067D01*
X1122335Y651886D01*
X1122762Y654032D01*
X1122335Y656178D01*
X1121119Y657997D01*
X1119300Y659213D01*
X1117154Y659640D01*
D02*
G37*
G36*
X1100956D02*
X1098810Y659213D01*
X1096990Y657997D01*
X1095775Y656178D01*
X1095348Y654032D01*
X1095775Y651886D01*
X1096990Y650067D01*
X1098810Y648851D01*
X1100956Y648424D01*
X1103102Y648851D01*
X1104921Y650067D01*
X1106136Y651886D01*
X1106563Y654032D01*
X1106136Y656178D01*
X1104921Y657997D01*
X1103102Y659213D01*
X1100956Y659640D01*
D02*
G37*
G36*
Y644640D02*
X1098810Y644213D01*
X1096990Y642997D01*
X1095775Y641178D01*
X1095348Y639032D01*
X1095775Y636886D01*
X1096990Y635067D01*
X1098810Y633851D01*
X1100956Y633424D01*
X1103102Y633851D01*
X1104921Y635067D01*
X1106136Y636886D01*
X1106563Y639032D01*
X1106136Y641178D01*
X1104921Y642997D01*
X1103102Y644213D01*
X1100956Y644640D01*
D02*
G37*
G36*
X1117154D02*
X1115008Y644213D01*
X1113189Y642997D01*
X1111973Y641178D01*
X1111546Y639032D01*
X1111973Y636886D01*
X1113189Y635067D01*
X1115008Y633851D01*
X1117154Y633424D01*
X1119300Y633851D01*
X1121119Y635067D01*
X1122335Y636886D01*
X1122762Y639032D01*
X1122335Y641178D01*
X1121119Y642997D01*
X1119300Y644213D01*
X1117154Y644640D01*
D02*
G37*
G36*
X1067154D02*
X1065008Y644213D01*
X1063189Y642997D01*
X1061973Y641178D01*
X1061546Y639032D01*
X1061973Y636886D01*
X1063189Y635067D01*
X1065008Y633851D01*
X1065934Y633667D01*
Y632397D01*
X1065008Y632213D01*
X1063189Y630997D01*
X1061973Y629178D01*
X1061546Y627032D01*
X1061973Y624886D01*
X1063189Y623067D01*
X1065008Y621851D01*
X1067154Y621424D01*
X1069300Y621851D01*
X1071119Y623067D01*
X1072335Y624886D01*
X1072762Y627032D01*
X1072335Y629178D01*
X1071119Y630997D01*
X1069300Y632213D01*
X1068374Y632397D01*
Y633667D01*
X1069300Y633851D01*
X1071119Y635067D01*
X1072335Y636886D01*
X1072762Y639032D01*
X1072335Y641178D01*
X1071119Y642997D01*
X1069300Y644213D01*
X1067154Y644640D01*
D02*
G37*
G36*
X729154Y637480D02*
X727008Y637053D01*
X725189Y635837D01*
X723973Y634018D01*
X723546Y631872D01*
X723973Y629726D01*
X725189Y627907D01*
X727008Y626691D01*
X729154Y626264D01*
X731300Y626691D01*
X733119Y627907D01*
X734335Y629726D01*
X734762Y631872D01*
X734335Y634018D01*
X733119Y635837D01*
X731300Y637053D01*
X729154Y637480D01*
D02*
G37*
G36*
X1194154Y647640D02*
X1192008Y647213D01*
X1190189Y645997D01*
X1188973Y644178D01*
X1188546Y642032D01*
X1188973Y639886D01*
X1190189Y638067D01*
X1192008Y636851D01*
X1194154Y636424D01*
X1196300Y636851D01*
X1198119Y638067D01*
X1199335Y639886D01*
X1199762Y642032D01*
X1199335Y644178D01*
X1198119Y645997D01*
X1196300Y647213D01*
X1194154Y647640D01*
D02*
G37*
G36*
X1171154D02*
X1169008Y647213D01*
X1167189Y645997D01*
X1165973Y644178D01*
X1165546Y642032D01*
X1165973Y639886D01*
X1167189Y638067D01*
X1169008Y636851D01*
X1171154Y636424D01*
X1173300Y636851D01*
X1175119Y638067D01*
X1176335Y639886D01*
X1176762Y642032D01*
X1176335Y644178D01*
X1175119Y645997D01*
X1173300Y647213D01*
X1171154Y647640D01*
D02*
G37*
%LPD*%
G36*
X953005Y697351D02*
X953064Y697057D01*
X953093Y696759D01*
X953141Y696670D01*
X953160Y696571D01*
X953327Y696322D01*
X953468Y696058D01*
X953546Y695993D01*
X953603Y695909D01*
X956875Y692637D01*
X957643Y691487D01*
X957913Y690131D01*
Y665186D01*
X957971Y664892D01*
X958001Y664594D01*
X958048Y664505D01*
X958068Y664406D01*
X958234Y664157D01*
X958376Y663893D01*
X958454Y663828D01*
X958510Y663744D01*
X958720Y663604D01*
Y660905D01*
X958546Y660032D01*
X958720Y659159D01*
Y656460D01*
X958510Y656320D01*
X958454Y656236D01*
X958376Y656171D01*
X958234Y655907D01*
X958068Y655658D01*
X958048Y655559D01*
X958000Y655470D01*
X957971Y655172D01*
X957913Y654878D01*
Y649130D01*
X958068Y648350D01*
X958510Y647688D01*
X958720Y647548D01*
Y640516D01*
X958510Y640376D01*
X958068Y639714D01*
X957913Y638934D01*
Y607583D01*
X957643Y606227D01*
X956875Y605077D01*
X951184Y599386D01*
X950654Y599032D01*
X871754D01*
X871224Y599386D01*
X861258Y609352D01*
X860490Y610502D01*
X860220Y611858D01*
Y645934D01*
X860065Y646714D01*
X859623Y647376D01*
X858961Y647818D01*
X858181Y647973D01*
X856154D01*
Y654091D01*
X858181D01*
X858961Y654246D01*
X859623Y654688D01*
X860065Y655350D01*
X860220Y656130D01*
Y689457D01*
X860490Y690813D01*
X861258Y691962D01*
X865629Y696334D01*
X865796Y696583D01*
X865986Y696814D01*
X866015Y696911D01*
X866071Y696995D01*
X866130Y697289D01*
X866217Y697576D01*
X866207Y697676D01*
X866227Y697775D01*
X866437Y698032D01*
X949582D01*
X953005Y697351D01*
D02*
G37*
%LPC*%
G36*
X942938Y686946D02*
X871517D01*
X870737Y686791D01*
X870075Y686349D01*
X869633Y685687D01*
X869478Y684907D01*
Y684576D01*
Y614672D01*
Y614672D01*
D01*
X869481Y614654D01*
X869478Y614636D01*
X869559Y614264D01*
X869633Y613891D01*
X869643Y613876D01*
X869647Y613858D01*
X869817Y613469D01*
X870033Y613156D01*
X870245Y612840D01*
X870260Y612830D01*
X870270Y612815D01*
X870590Y612609D01*
X870906Y612398D01*
X870924Y612394D01*
X870939Y612385D01*
X871314Y612317D01*
X871686Y612243D01*
X942938D01*
X943718Y612398D01*
X944380Y612840D01*
X944821Y613502D01*
X944977Y614282D01*
Y684907D01*
X944821Y685687D01*
X944380Y686349D01*
X943718Y686791D01*
X942938Y686946D01*
D02*
G37*
%LPD*%
G36*
Y614282D02*
X871686D01*
X871517Y614672D01*
X871517D01*
X871517Y614672D01*
Y684576D01*
Y684907D01*
X942938D01*
Y614282D01*
D02*
G37*
D40*
X1048102Y775032D02*
Y823986D01*
X910154Y772032D02*
Y824032D01*
X1082154Y668032D02*
X1083154D01*
X1067154Y683032D02*
X1082154Y668032D01*
X1192658Y1213032D02*
X1190159Y1215531D01*
Y1220530D01*
X1192658Y1223029D01*
X1195157D01*
X1197656Y1220530D01*
Y1218030D01*
Y1220530D01*
X1200156Y1223029D01*
X1202655D01*
X1205154Y1220530D01*
Y1215531D01*
X1202655Y1213032D01*
D42*
X863279Y611657D02*
X873529Y601407D01*
X919154D01*
X863279Y611657D02*
Y651032D01*
X954854Y644032D02*
X964154D01*
X954854Y607382D02*
Y644032D01*
X915654Y696032D02*
X949154D01*
X954854Y644032D02*
Y690332D01*
X949154Y696032D02*
X954854Y690332D01*
X948879Y601407D02*
X954854Y607382D01*
X919154Y601407D02*
X948879D01*
X863279Y651032D02*
Y689657D01*
X848154Y651032D02*
X863279D01*
X919154Y588532D02*
Y601407D01*
X621154Y584032D02*
X629154D01*
X592154Y613032D02*
X621154Y584032D01*
X592154Y613032D02*
Y688032D01*
X916154Y696532D02*
Y709532D01*
X915654Y696032D02*
X916154Y696532D01*
X869653Y696032D02*
X915654D01*
X863279Y689657D02*
X869653Y696032D01*
X703593Y816032D02*
X762154D01*
X735154Y663032D02*
Y735832D01*
X624624Y878342D02*
X625314Y879032D01*
X596154Y889032D02*
X625314D01*
X735154Y735832D02*
X776354Y777032D01*
X679373Y762368D02*
X696932Y744810D01*
X679373Y762368D02*
Y791813D01*
X703593Y816032D01*
D46*
X625314Y818032D02*
Y879032D01*
Y889032D01*
Y909032D02*
X638721Y922439D01*
X625314Y889032D02*
Y909032D01*
X702654Y922439D02*
Y1055032D01*
X713747Y922439D02*
X725154Y911032D01*
X638721Y922439D02*
X697061D01*
X713747D01*
D54*
X776354Y777032D02*
D03*
X871754Y496032D02*
D03*
X1195154Y570232D02*
D03*
D56*
X980254Y493332D02*
D03*
D57*
X627654Y1228032D02*
D03*
Y1055032D02*
D03*
D58*
X702654Y1228032D02*
D03*
Y1055032D02*
D03*
D62*
X1048154Y775032D02*
D03*
X1090154Y584532D02*
D03*
X953154Y835032D02*
D03*
X816154D02*
D03*
X762154Y816032D02*
D03*
Y828032D02*
D03*
Y840032D02*
D03*
Y852032D02*
D03*
X742154Y935032D02*
D03*
Y950032D02*
D03*
X1166154Y942032D02*
D03*
Y957032D02*
D03*
Y972032D02*
D03*
Y987032D02*
D03*
Y1002032D02*
D03*
X1178154D02*
D03*
Y987032D02*
D03*
Y972032D02*
D03*
Y957032D02*
D03*
Y942032D02*
D03*
X1154154D02*
D03*
Y957032D02*
D03*
Y972032D02*
D03*
Y987032D02*
D03*
Y1002032D02*
D03*
X1142154D02*
D03*
Y987032D02*
D03*
Y972032D02*
D03*
Y957032D02*
D03*
Y942032D02*
D03*
X1119154Y1002032D02*
D03*
Y987032D02*
D03*
Y972032D02*
D03*
Y957032D02*
D03*
Y942032D02*
D03*
X1107154D02*
D03*
Y957032D02*
D03*
Y972032D02*
D03*
Y987032D02*
D03*
Y1002032D02*
D03*
X963154D02*
D03*
Y987032D02*
D03*
Y972032D02*
D03*
Y957032D02*
D03*
Y942032D02*
D03*
X975154D02*
D03*
Y957032D02*
D03*
Y972032D02*
D03*
Y987032D02*
D03*
Y1002032D02*
D03*
X998154Y942032D02*
D03*
Y957032D02*
D03*
Y972032D02*
D03*
Y987032D02*
D03*
Y1002032D02*
D03*
X1010154D02*
D03*
Y987032D02*
D03*
Y972032D02*
D03*
Y957032D02*
D03*
Y942032D02*
D03*
X1034154D02*
D03*
Y957032D02*
D03*
Y972032D02*
D03*
Y987032D02*
D03*
Y1002032D02*
D03*
X1022154D02*
D03*
Y987032D02*
D03*
Y972032D02*
D03*
Y957032D02*
D03*
Y942032D02*
D03*
X878154D02*
D03*
Y957032D02*
D03*
Y972032D02*
D03*
Y987032D02*
D03*
Y1002032D02*
D03*
X890154D02*
D03*
Y987032D02*
D03*
Y972032D02*
D03*
Y957032D02*
D03*
Y942032D02*
D03*
X866154D02*
D03*
Y957032D02*
D03*
Y972032D02*
D03*
Y987032D02*
D03*
Y1002032D02*
D03*
X854154D02*
D03*
Y987032D02*
D03*
Y972032D02*
D03*
Y957032D02*
D03*
Y942032D02*
D03*
X831154Y1002032D02*
D03*
Y987032D02*
D03*
Y972032D02*
D03*
Y957032D02*
D03*
Y942032D02*
D03*
X1060154Y729032D02*
D03*
X1132744Y651144D02*
D03*
X629154Y584032D02*
D03*
X860409Y555032D02*
D03*
X592154Y688032D02*
D03*
X910154Y772032D02*
D03*
X1048154Y824032D02*
D03*
X1067154Y683032D02*
D03*
X769242Y1291267D02*
D03*
X784650Y1032928D02*
D03*
X798111Y1046550D02*
D03*
X811066Y1060266D02*
D03*
X1143980Y1140591D02*
D03*
X819154Y942032D02*
D03*
Y957032D02*
D03*
Y972032D02*
D03*
Y987032D02*
D03*
Y1002032D02*
D03*
X1018497Y1300494D02*
D03*
Y1273617D02*
D03*
Y1260155D02*
D03*
Y1246569D02*
D03*
Y1288095D02*
D03*
X882988Y1287624D02*
D03*
Y1246097D02*
D03*
Y1259684D02*
D03*
Y1273146D02*
D03*
Y1300023D02*
D03*
X737824Y1134344D02*
D03*
Y1110468D02*
D03*
Y1086846D02*
D03*
Y1178470D02*
D03*
Y1157004D02*
D03*
Y1204956D02*
D03*
X769242Y1240667D02*
D03*
Y1275773D02*
D03*
Y1256853D02*
D03*
Y1223141D02*
D03*
X651498Y1289976D02*
D03*
Y1273790D02*
D03*
Y1256264D02*
D03*
Y1308896D02*
D03*
Y1178416D02*
D03*
Y1204902D02*
D03*
Y1134290D02*
D03*
Y1086792D02*
D03*
Y1110414D02*
D03*
Y1156950D02*
D03*
X722886Y1204956D02*
D03*
X704138D02*
D03*
X722886Y1157004D02*
D03*
Y1178470D02*
D03*
X704138Y1157004D02*
D03*
Y1178470D02*
D03*
X1032820Y1300454D02*
D03*
X899597Y1300237D02*
D03*
X1032820Y1271524D02*
D03*
Y1258062D02*
D03*
Y1244475D02*
D03*
Y1286002D02*
D03*
X899597Y1273360D02*
D03*
Y1259898D02*
D03*
Y1246312D02*
D03*
Y1287838D02*
D03*
X736602Y1256264D02*
D03*
X717854D02*
D03*
Y1289976D02*
D03*
Y1308896D02*
D03*
Y1273790D02*
D03*
X736602Y1289976D02*
D03*
Y1308896D02*
D03*
Y1273790D02*
D03*
X704138Y1086846D02*
D03*
Y1110468D02*
D03*
X722886Y1086846D02*
D03*
Y1110468D02*
D03*
X704138Y1134344D02*
D03*
X722886D02*
D03*
X927998Y1121795D02*
D03*
X783928Y1123573D02*
D03*
X797922Y1086974D02*
D03*
X825322D02*
D03*
X838922D02*
D03*
X852522D02*
D03*
X784522D02*
D03*
X811722D02*
D03*
Y1073474D02*
D03*
X784522D02*
D03*
X852522D02*
D03*
X838922D02*
D03*
X825322D02*
D03*
X797922D02*
D03*
X784522Y1059974D02*
D03*
X852522D02*
D03*
X838922D02*
D03*
X825322D02*
D03*
X797922D02*
D03*
X811722Y1046474D02*
D03*
X784522D02*
D03*
X838922D02*
D03*
X825322D02*
D03*
X811722Y1032974D02*
D03*
X852522D02*
D03*
X838922D02*
D03*
X825322D02*
D03*
X797922D02*
D03*
X1085792Y1031351D02*
D03*
X1112992D02*
D03*
X1126592D02*
D03*
X1140192D02*
D03*
X1072192D02*
D03*
X1099392D02*
D03*
X1085792Y1044851D02*
D03*
X1112992D02*
D03*
X1126592D02*
D03*
X1140192D02*
D03*
X1072192D02*
D03*
X1099392D02*
D03*
X1085792Y1058351D02*
D03*
X1112992D02*
D03*
X1126592D02*
D03*
X1140192D02*
D03*
X1072192D02*
D03*
X1099392D02*
D03*
X1085792Y1071851D02*
D03*
X1112992D02*
D03*
X1126592D02*
D03*
X1140192D02*
D03*
X1072192D02*
D03*
X1099392D02*
D03*
Y1085351D02*
D03*
X1072192D02*
D03*
X1140192D02*
D03*
X1126592D02*
D03*
X1112992D02*
D03*
X1085792D02*
D03*
X969882Y1034273D02*
D03*
X983482D02*
D03*
X929082D02*
D03*
X956282D02*
D03*
X969882Y1047773D02*
D03*
X983482D02*
D03*
X997082D02*
D03*
X929082D02*
D03*
X956282D02*
D03*
X969882Y1061273D02*
D03*
X983482D02*
D03*
X997082D02*
D03*
X929082D02*
D03*
X956282D02*
D03*
X969882Y1074773D02*
D03*
X983482D02*
D03*
X997082D02*
D03*
X929082D02*
D03*
X956282D02*
D03*
Y1088273D02*
D03*
X929082D02*
D03*
X997082D02*
D03*
X983482D02*
D03*
X969882D02*
D03*
X799392Y1244755D02*
D03*
X826592D02*
D03*
X840192D02*
D03*
X853792D02*
D03*
X785792D02*
D03*
X812992D02*
D03*
X799392Y1258255D02*
D03*
X826592D02*
D03*
X840192D02*
D03*
X853792D02*
D03*
X785792D02*
D03*
X812992D02*
D03*
X799392Y1271755D02*
D03*
X826592D02*
D03*
X840192D02*
D03*
X853792D02*
D03*
X785792D02*
D03*
X812992D02*
D03*
X799392Y1285255D02*
D03*
X826592D02*
D03*
X840192D02*
D03*
X853792D02*
D03*
X785792D02*
D03*
X812992D02*
D03*
Y1298755D02*
D03*
X785792D02*
D03*
X853792D02*
D03*
X840192D02*
D03*
X826592D02*
D03*
X799392D02*
D03*
X937094Y1246761D02*
D03*
X964294D02*
D03*
X977894D02*
D03*
X991494D02*
D03*
X923494D02*
D03*
X950694D02*
D03*
X937094Y1260262D02*
D03*
X964294D02*
D03*
X977894D02*
D03*
X991494D02*
D03*
X923494D02*
D03*
X950694D02*
D03*
X937094Y1273762D02*
D03*
X964294D02*
D03*
X977894D02*
D03*
X991494D02*
D03*
X923494D02*
D03*
X950694D02*
D03*
X937094Y1287262D02*
D03*
X964294D02*
D03*
X977894D02*
D03*
X991494D02*
D03*
X923494D02*
D03*
X950694D02*
D03*
Y1300762D02*
D03*
X923494D02*
D03*
X991494D02*
D03*
X977894D02*
D03*
X964294D02*
D03*
X937094D02*
D03*
X1085656Y1246357D02*
D03*
X1112856D02*
D03*
X1126456D02*
D03*
X1140055D02*
D03*
X1072056D02*
D03*
X1099256D02*
D03*
X1085656Y1259857D02*
D03*
X1112856D02*
D03*
X1126456D02*
D03*
X1140055D02*
D03*
X1072056D02*
D03*
X1099256D02*
D03*
X1085656Y1273357D02*
D03*
X1112856D02*
D03*
X1126456D02*
D03*
X1140055D02*
D03*
X1072056D02*
D03*
X1099256D02*
D03*
X1085656Y1286857D02*
D03*
X1112856D02*
D03*
X1126456D02*
D03*
X1140055D02*
D03*
X1072056D02*
D03*
X1099256D02*
D03*
Y1300357D02*
D03*
X1072056D02*
D03*
X1140055D02*
D03*
X1126456D02*
D03*
X1112856D02*
D03*
X1085656D02*
D03*
X852522Y1046474D02*
D03*
X997082Y1034273D02*
D03*
X942682Y1088273D02*
D03*
Y1074773D02*
D03*
Y1061273D02*
D03*
Y1047773D02*
D03*
Y1034273D02*
D03*
X1102440Y1194261D02*
D03*
X1144234Y1194308D02*
D03*
X1116040Y1194261D02*
D03*
X1102440Y1180761D02*
D03*
X1144234Y1180808D02*
D03*
X1116040Y1180761D02*
D03*
X1102440Y1167261D02*
D03*
X1144234Y1167308D02*
D03*
X1116040Y1167261D02*
D03*
X1144234Y1153808D02*
D03*
X1074638Y1121287D02*
D03*
X1142710Y1125859D02*
D03*
X1143472Y1111635D02*
D03*
X1074892Y1108841D02*
D03*
X958720Y1167392D02*
D03*
X972320Y1180892D02*
D03*
X958720D02*
D03*
X972320Y1194392D02*
D03*
X1002038Y1194439D02*
D03*
X958720Y1194392D02*
D03*
X828378Y1168580D02*
D03*
X815562Y1168656D02*
D03*
X828378Y1182080D02*
D03*
X815562Y1182156D02*
D03*
X828378Y1195580D02*
D03*
X857842Y1194693D02*
D03*
X815562Y1195656D02*
D03*
X928366Y1106861D02*
D03*
X997974Y1135130D02*
D03*
Y1121630D02*
D03*
Y1108130D02*
D03*
X784682Y1105089D02*
D03*
X852938Y1132597D02*
D03*
Y1119097D02*
D03*
Y1105597D02*
D03*
X742154Y1010032D02*
D03*
Y995032D02*
D03*
Y980032D02*
D03*
X602964Y959722D02*
D03*
Y1000221D02*
D03*
Y973308D02*
D03*
Y986770D02*
D03*
X617696Y959429D02*
D03*
Y999930D02*
D03*
Y973016D02*
D03*
Y986478D02*
D03*
X636763Y959230D02*
D03*
Y999730D02*
D03*
Y972816D02*
D03*
Y986278D02*
D03*
X652528Y985970D02*
D03*
Y999470D02*
D03*
Y959056D02*
D03*
X602964Y1012553D02*
D03*
Y1026140D02*
D03*
X617696Y1012262D02*
D03*
Y1025848D02*
D03*
X636763Y1012062D02*
D03*
Y1025648D02*
D03*
X652528Y1011889D02*
D03*
Y1025350D02*
D03*
Y972518D02*
D03*
X636797Y1156950D02*
D03*
X617730D02*
D03*
X603029D02*
D03*
X636797Y1110414D02*
D03*
Y1086792D02*
D03*
Y1134290D02*
D03*
X617730Y1110414D02*
D03*
Y1086792D02*
D03*
Y1134290D02*
D03*
X603029Y1110414D02*
D03*
Y1086792D02*
D03*
Y1134290D02*
D03*
X636797Y1204902D02*
D03*
Y1178416D02*
D03*
X617730Y1204902D02*
D03*
Y1178416D02*
D03*
X603029Y1204902D02*
D03*
Y1178416D02*
D03*
X636797Y1308896D02*
D03*
X617730D02*
D03*
X603029D02*
D03*
X636797Y1256264D02*
D03*
Y1273790D02*
D03*
Y1289976D02*
D03*
X617730Y1256264D02*
D03*
Y1273790D02*
D03*
Y1289976D02*
D03*
X603029Y1256264D02*
D03*
Y1273790D02*
D03*
Y1289976D02*
D03*
X972320Y1167392D02*
D03*
X857842Y1181739D02*
D03*
Y1168531D02*
D03*
Y1154561D02*
D03*
X1002038Y1180215D02*
D03*
Y1166753D02*
D03*
Y1154307D02*
D03*
X742154Y965032D02*
D03*
X1091154Y835032D02*
D03*
X625314Y818032D02*
D03*
X910154Y824032D02*
D03*
X816154Y538032D02*
D03*
X849154D02*
D03*
X785154D02*
D03*
X722154Y663032D02*
D03*
X735154D02*
D03*
X746154D02*
D03*
X712154D02*
D03*
X835154Y840032D02*
D03*
X973154D02*
D03*
X1111154D02*
D03*
X882654Y673532D02*
D03*
X894654D02*
D03*
X918654D02*
D03*
X930654D02*
D03*
X906654D02*
D03*
Y626532D02*
D03*
X930654D02*
D03*
X918654D02*
D03*
X894654D02*
D03*
X882654D02*
D03*
X906654Y650032D02*
D03*
X894654D02*
D03*
X882654D02*
D03*
X918654D02*
D03*
X930654D02*
D03*
X906654Y661782D02*
D03*
X930654D02*
D03*
X918654D02*
D03*
X894654D02*
D03*
X882654D02*
D03*
X906654Y638282D02*
D03*
X930654D02*
D03*
X918654D02*
D03*
X894654D02*
D03*
X882654D02*
D03*
X964154Y628032D02*
D03*
Y644032D02*
D03*
X848154Y651032D02*
D03*
X847404Y663032D02*
D03*
X912154Y555032D02*
D03*
X916154Y709532D02*
D03*
X906154Y710282D02*
D03*
X919154Y588532D02*
D03*
X935654Y588032D02*
D03*
X696932Y744810D02*
D03*
X1083154Y668032D02*
D03*
X596154Y889032D02*
D03*
X725154Y911032D02*
D03*
X1000154Y685032D02*
D03*
D63*
X824154Y1125032D02*
D03*
X967154D02*
D03*
X1109154D02*
D03*
M02*
