%FSLAX44Y44*%
%MOMM*%
G71*
G01*
G75*
G04 Layer_Color=8388736*
%ADD10R,0.9500X1.0000*%
%ADD11R,7.0000X7.0000*%
%ADD12O,0.3000X1.6500*%
%ADD13O,1.6500X0.3000*%
%ADD14R,1.3000X1.8500*%
%ADD15R,1.0000X0.9500*%
%ADD16R,1.8500X1.3000*%
G04:AMPARAMS|DCode=17|XSize=1.05mm|YSize=3.82mm|CornerRadius=0.0525mm|HoleSize=0mm|Usage=FLASHONLY|Rotation=180.000|XOffset=0mm|YOffset=0mm|HoleType=Round|Shape=RoundedRectangle|*
%AMROUNDEDRECTD17*
21,1,1.0500,3.7150,0,0,180.0*
21,1,0.9450,3.8200,0,0,180.0*
1,1,0.1050,-0.4725,1.8575*
1,1,0.1050,0.4725,1.8575*
1,1,0.1050,0.4725,-1.8575*
1,1,0.1050,-0.4725,-1.8575*
%
%ADD17ROUNDEDRECTD17*%
G04:AMPARAMS|DCode=18|XSize=7.48mm|YSize=8.55mm|CornerRadius=0.0374mm|HoleSize=0mm|Usage=FLASHONLY|Rotation=90.000|XOffset=0mm|YOffset=0mm|HoleType=Round|Shape=RoundedRectangle|*
%AMROUNDEDRECTD18*
21,1,7.4800,8.4752,0,0,90.0*
21,1,7.4052,8.5500,0,0,90.0*
1,1,0.0748,4.2376,3.7026*
1,1,0.0748,4.2376,-3.7026*
1,1,0.0748,-4.2376,-3.7026*
1,1,0.0748,-4.2376,3.7026*
%
%ADD18ROUNDEDRECTD18*%
G04:AMPARAMS|DCode=19|XSize=0.6mm|YSize=1mm|CornerRadius=0.15mm|HoleSize=0mm|Usage=FLASHONLY|Rotation=90.000|XOffset=0mm|YOffset=0mm|HoleType=Round|Shape=RoundedRectangle|*
%AMROUNDEDRECTD19*
21,1,0.6000,0.7000,0,0,90.0*
21,1,0.3000,1.0000,0,0,90.0*
1,1,0.3000,0.3500,0.1500*
1,1,0.3000,0.3500,-0.1500*
1,1,0.3000,-0.3500,-0.1500*
1,1,0.3000,-0.3500,0.1500*
%
%ADD19ROUNDEDRECTD19*%
%ADD20R,1.0000X0.6000*%
%ADD21R,2.1000X5.8000*%
%ADD22R,0.8000X0.6000*%
%ADD23R,1.6000X3.9000*%
%ADD24R,0.5000X0.6000*%
%ADD25R,0.6000X0.8000*%
%ADD26O,0.6000X1.9000*%
%ADD27R,0.6000X1.2000*%
%ADD28R,1.1500X1.4000*%
%ADD29R,1.8000X1.9000*%
%ADD30R,2.3000X1.9000*%
%ADD31R,0.4000X1.4000*%
%ADD32R,0.8000X0.8000*%
%ADD33R,1.0000X0.4000*%
%ADD34R,0.9000X1.4000*%
%ADD35R,2.2000X1.4000*%
%ADD36R,0.6500X0.4000*%
%ADD37R,1.6002X1.2700*%
%ADD38R,2.2000X1.1000*%
%ADD39C,1.2000*%
%ADD40C,0.2500*%
%ADD41C,0.2540*%
%ADD42C,0.5000*%
%ADD43C,0.4000*%
%ADD44C,1.0160*%
%ADD45C,1.1000*%
%ADD46C,0.8000*%
%ADD47C,0.7500*%
%ADD48C,0.7620*%
%ADD49C,1.0000*%
%ADD50C,0.6000*%
%ADD51C,0.2032*%
%ADD52C,0.3500*%
%ADD53C,2.0000*%
%ADD54C,1.5000*%
%ADD55R,1.5000X1.5000*%
%ADD56R,1.5500X1.5500*%
%ADD57C,1.5500*%
G04:AMPARAMS|DCode=58|XSize=1.55mm|YSize=1.55mm|CornerRadius=0.0465mm|HoleSize=0mm|Usage=FLASHONLY|Rotation=180.000|XOffset=0mm|YOffset=0mm|HoleType=Round|Shape=RoundedRectangle|*
%AMROUNDEDRECTD58*
21,1,1.5500,1.4570,0,0,180.0*
21,1,1.4570,1.5500,0,0,180.0*
1,1,0.0930,-0.7285,0.7285*
1,1,0.0930,0.7285,0.7285*
1,1,0.0930,0.7285,-0.7285*
1,1,0.0930,-0.7285,-0.7285*
%
%ADD58ROUNDEDRECTD58*%
%ADD59R,1.5000X1.5000*%
%ADD60R,0.7000X0.7000*%
%ADD61C,0.7000*%
%ADD62C,0.6000*%
%ADD63C,5.0000*%
%ADD64R,2.1590X2.7430*%
G04:AMPARAMS|DCode=65|XSize=3.1mm|YSize=4mm|CornerRadius=0.0465mm|HoleSize=0mm|Usage=FLASHONLY|Rotation=0.000|XOffset=0mm|YOffset=0mm|HoleType=Round|Shape=RoundedRectangle|*
%AMROUNDEDRECTD65*
21,1,3.1000,3.9070,0,0,0.0*
21,1,3.0070,4.0000,0,0,0.0*
1,1,0.0930,1.5035,-1.9535*
1,1,0.0930,-1.5035,-1.9535*
1,1,0.0930,-1.5035,1.9535*
1,1,0.0930,1.5035,1.9535*
%
%ADD65ROUNDEDRECTD65*%
G04:AMPARAMS|DCode=66|XSize=0.6mm|YSize=1mm|CornerRadius=0.051mm|HoleSize=0mm|Usage=FLASHONLY|Rotation=180.000|XOffset=0mm|YOffset=0mm|HoleType=Round|Shape=RoundedRectangle|*
%AMROUNDEDRECTD66*
21,1,0.6000,0.8980,0,0,180.0*
21,1,0.4980,1.0000,0,0,180.0*
1,1,0.1020,-0.2490,0.4490*
1,1,0.1020,0.2490,0.4490*
1,1,0.1020,0.2490,-0.4490*
1,1,0.1020,-0.2490,-0.4490*
%
%ADD66ROUNDEDRECTD66*%
%ADD67R,0.6000X1.0000*%
%ADD68R,1.2000X1.0000*%
%ADD69R,1.2000X0.7000*%
%ADD70R,0.8000X1.0000*%
%ADD71R,2.8000X1.0000*%
%ADD72R,1.9000X1.3000*%
%ADD73C,0.2000*%
%ADD74C,0.1000*%
%ADD75C,0.1524*%
%ADD76C,0.2000*%
%ADD77C,0.1778*%
%ADD78C,0.3556*%
%ADD79C,0.1016*%
%ADD80R,0.8000X0.3000*%
%ADD81R,0.8250X0.2000*%
%ADD82R,1.6000X0.5000*%
%ADD83R,0.5080X2.1844*%
%ADD84R,1.1024X1.1524*%
%ADD85R,7.1524X7.1524*%
%ADD86O,0.4524X1.8024*%
%ADD87O,1.8024X0.4524*%
%ADD88R,1.4524X2.0024*%
%ADD89R,1.1524X1.1024*%
%ADD90R,2.0024X1.4524*%
G04:AMPARAMS|DCode=91|XSize=1.2024mm|YSize=3.9724mm|CornerRadius=0.1287mm|HoleSize=0mm|Usage=FLASHONLY|Rotation=180.000|XOffset=0mm|YOffset=0mm|HoleType=Round|Shape=RoundedRectangle|*
%AMROUNDEDRECTD91*
21,1,1.2024,3.7150,0,0,180.0*
21,1,0.9450,3.9724,0,0,180.0*
1,1,0.2574,-0.4725,1.8575*
1,1,0.2574,0.4725,1.8575*
1,1,0.2574,0.4725,-1.8575*
1,1,0.2574,-0.4725,-1.8575*
%
%ADD91ROUNDEDRECTD91*%
G04:AMPARAMS|DCode=92|XSize=7.6324mm|YSize=8.7024mm|CornerRadius=0.1136mm|HoleSize=0mm|Usage=FLASHONLY|Rotation=90.000|XOffset=0mm|YOffset=0mm|HoleType=Round|Shape=RoundedRectangle|*
%AMROUNDEDRECTD92*
21,1,7.6324,8.4752,0,0,90.0*
21,1,7.4052,8.7024,0,0,90.0*
1,1,0.2272,4.2376,3.7026*
1,1,0.2272,4.2376,-3.7026*
1,1,0.2272,-4.2376,-3.7026*
1,1,0.2272,-4.2376,3.7026*
%
%ADD92ROUNDEDRECTD92*%
G04:AMPARAMS|DCode=93|XSize=0.7524mm|YSize=1.1524mm|CornerRadius=0.2262mm|HoleSize=0mm|Usage=FLASHONLY|Rotation=90.000|XOffset=0mm|YOffset=0mm|HoleType=Round|Shape=RoundedRectangle|*
%AMROUNDEDRECTD93*
21,1,0.7524,0.7000,0,0,90.0*
21,1,0.3000,1.1524,0,0,90.0*
1,1,0.4524,0.3500,0.1500*
1,1,0.4524,0.3500,-0.1500*
1,1,0.4524,-0.3500,-0.1500*
1,1,0.4524,-0.3500,0.1500*
%
%ADD93ROUNDEDRECTD93*%
%ADD94R,1.1524X0.7524*%
%ADD95R,2.2524X5.9524*%
%ADD96R,0.9524X0.7524*%
%ADD97R,1.7524X4.0524*%
%ADD98R,0.6000X0.7000*%
%ADD99R,0.7524X0.9524*%
%ADD100O,0.7524X2.0524*%
%ADD101R,0.7524X1.3524*%
%ADD102R,1.3024X1.5524*%
%ADD103R,1.9524X2.0524*%
%ADD104R,2.4524X2.0524*%
%ADD105R,0.5524X1.5524*%
%ADD106R,0.9524X0.9524*%
%ADD107R,1.2032X0.6032*%
%ADD108R,1.0524X1.5524*%
%ADD109R,2.3524X1.5524*%
%ADD110R,0.8024X0.5524*%
%ADD111R,1.7526X1.4224*%
%ADD112R,2.3524X1.2524*%
%ADD113C,2.7620*%
%ADD114C,1.6524*%
%ADD115R,1.6524X1.6524*%
%ADD116R,1.7024X1.7024*%
%ADD117C,1.7024*%
G04:AMPARAMS|DCode=118|XSize=1.7024mm|YSize=1.7024mm|CornerRadius=0.1227mm|HoleSize=0mm|Usage=FLASHONLY|Rotation=180.000|XOffset=0mm|YOffset=0mm|HoleType=Round|Shape=RoundedRectangle|*
%AMROUNDEDRECTD118*
21,1,1.7024,1.4570,0,0,180.0*
21,1,1.4570,1.7024,0,0,180.0*
1,1,0.2454,-0.7285,0.7285*
1,1,0.2454,0.7285,0.7285*
1,1,0.2454,0.7285,-0.7285*
1,1,0.2454,-0.7285,-0.7285*
%
%ADD118ROUNDEDRECTD118*%
%ADD119R,1.6524X1.6524*%
%ADD120R,0.8524X0.8524*%
%ADD121C,0.8524*%
%ADD122C,0.7524*%
%ADD123C,5.1524*%
D84*
X680154Y570032D02*
D03*
Y554032D02*
D03*
X697154Y570032D02*
D03*
Y554032D02*
D03*
X810154Y591032D02*
D03*
Y575032D02*
D03*
X793154Y575032D02*
D03*
Y591032D02*
D03*
X649154Y897032D02*
D03*
Y881032D02*
D03*
X847804Y894032D02*
D03*
Y910032D02*
D03*
X697154Y732032D02*
D03*
Y716032D02*
D03*
X809154Y613032D02*
D03*
Y629032D02*
D03*
X793154Y613032D02*
D03*
Y629032D02*
D03*
X864154Y538032D02*
D03*
Y522032D02*
D03*
X714154Y716032D02*
D03*
Y732032D02*
D03*
X1124154Y910032D02*
D03*
Y894032D02*
D03*
X1149154Y910032D02*
D03*
Y894032D02*
D03*
X849154Y522032D02*
D03*
Y538032D02*
D03*
X816154Y522032D02*
D03*
Y538032D02*
D03*
X785154Y522032D02*
D03*
Y538032D02*
D03*
X833154Y522032D02*
D03*
Y538032D02*
D03*
X800154Y522032D02*
D03*
Y538032D02*
D03*
X873654Y910032D02*
D03*
Y894032D02*
D03*
X769154Y522032D02*
D03*
Y538032D02*
D03*
X686154Y897032D02*
D03*
Y881032D02*
D03*
X634154Y897032D02*
D03*
Y881032D02*
D03*
X665154Y897032D02*
D03*
Y881032D02*
D03*
X702154Y881032D02*
D03*
Y897032D02*
D03*
X1011204Y910032D02*
D03*
Y894032D02*
D03*
X985804Y910032D02*
D03*
Y894032D02*
D03*
X767904Y893089D02*
D03*
Y909089D02*
D03*
D85*
X907154Y650032D02*
D03*
D86*
X847154Y726032D02*
D03*
X852154D02*
D03*
X857154D02*
D03*
X862154D02*
D03*
X867154D02*
D03*
X872154D02*
D03*
X877154D02*
D03*
X882154D02*
D03*
X887154D02*
D03*
X892154D02*
D03*
X897154D02*
D03*
X902154D02*
D03*
X907154D02*
D03*
X912154D02*
D03*
X917154D02*
D03*
X922154D02*
D03*
X927154D02*
D03*
X932154D02*
D03*
X937154D02*
D03*
X942154D02*
D03*
X947154D02*
D03*
X952154D02*
D03*
X957154D02*
D03*
X962154D02*
D03*
X967154D02*
D03*
Y574032D02*
D03*
X962154D02*
D03*
X957154D02*
D03*
X952154D02*
D03*
X947154D02*
D03*
X942154D02*
D03*
X937154D02*
D03*
X932154D02*
D03*
X927154D02*
D03*
X922154D02*
D03*
X917154D02*
D03*
X912154D02*
D03*
X907154D02*
D03*
X902154D02*
D03*
X897154D02*
D03*
X892154D02*
D03*
X887154D02*
D03*
X882154D02*
D03*
X877154D02*
D03*
X872154D02*
D03*
X867154D02*
D03*
X862154D02*
D03*
X857154D02*
D03*
X852154D02*
D03*
X847154D02*
D03*
D87*
X983154Y710032D02*
D03*
Y705032D02*
D03*
Y700032D02*
D03*
Y695032D02*
D03*
Y690032D02*
D03*
Y685032D02*
D03*
Y680032D02*
D03*
Y675032D02*
D03*
Y670032D02*
D03*
Y665032D02*
D03*
Y660032D02*
D03*
Y655032D02*
D03*
Y650032D02*
D03*
Y645032D02*
D03*
Y640032D02*
D03*
Y635032D02*
D03*
Y630032D02*
D03*
Y625032D02*
D03*
Y620032D02*
D03*
Y615032D02*
D03*
Y610032D02*
D03*
Y605032D02*
D03*
Y600032D02*
D03*
Y595032D02*
D03*
Y590032D02*
D03*
X831154D02*
D03*
Y595032D02*
D03*
Y600032D02*
D03*
Y605032D02*
D03*
Y610032D02*
D03*
Y615032D02*
D03*
Y620032D02*
D03*
Y625032D02*
D03*
Y630032D02*
D03*
Y635032D02*
D03*
Y640032D02*
D03*
Y645032D02*
D03*
Y650032D02*
D03*
Y655032D02*
D03*
Y660032D02*
D03*
Y665032D02*
D03*
Y670032D02*
D03*
Y675032D02*
D03*
Y680032D02*
D03*
Y685032D02*
D03*
Y690032D02*
D03*
Y695032D02*
D03*
Y700032D02*
D03*
Y705032D02*
D03*
Y710032D02*
D03*
D88*
X595654Y818032D02*
D03*
X624654D02*
D03*
D89*
X596154Y878032D02*
D03*
X612154D02*
D03*
X616154Y619032D02*
D03*
X632154D02*
D03*
X953154Y826032D02*
D03*
X937154D02*
D03*
X1091154D02*
D03*
X1075154D02*
D03*
X1024154Y671032D02*
D03*
X1008154D02*
D03*
X1179154Y592282D02*
D03*
X1195154D02*
D03*
X1008154Y611032D02*
D03*
X1024154D02*
D03*
X1067154Y654032D02*
D03*
X1083154D02*
D03*
X1067154Y713032D02*
D03*
X1083154D02*
D03*
X650154Y692032D02*
D03*
X634154D02*
D03*
X634154Y709032D02*
D03*
X650154D02*
D03*
X684154Y692032D02*
D03*
X668154D02*
D03*
X649154Y619032D02*
D03*
X665154D02*
D03*
X1100154Y902032D02*
D03*
X1084154D02*
D03*
X894154Y841032D02*
D03*
X910154D02*
D03*
X1033154D02*
D03*
X1049154D02*
D03*
X1171154D02*
D03*
X1187154D02*
D03*
X962154Y902032D02*
D03*
X946154D02*
D03*
X1083154Y683032D02*
D03*
X1067154D02*
D03*
X1148744Y643032D02*
D03*
X1132744D02*
D03*
X662654Y567982D02*
D03*
X646654D02*
D03*
X612154Y843032D02*
D03*
X596154D02*
D03*
X596154Y859032D02*
D03*
X612154D02*
D03*
X1187154Y824032D02*
D03*
X1171154D02*
D03*
X1049154D02*
D03*
X1033154D02*
D03*
X910154D02*
D03*
X894154D02*
D03*
X800154Y826032D02*
D03*
X816154D02*
D03*
X823154Y902032D02*
D03*
X807154D02*
D03*
X1067154Y639032D02*
D03*
X1083154D02*
D03*
X1083154Y729032D02*
D03*
X1067154D02*
D03*
X1067154Y668032D02*
D03*
X1083154D02*
D03*
X1067154Y698032D02*
D03*
X1083154D02*
D03*
D90*
X884154Y1073532D02*
D03*
Y1102532D02*
D03*
X1028154Y1073532D02*
D03*
Y1102532D02*
D03*
X1169154Y1073532D02*
D03*
Y1102532D02*
D03*
X884154Y1123532D02*
D03*
Y1152532D02*
D03*
X1028154Y1123532D02*
D03*
Y1152532D02*
D03*
X1169154Y1123532D02*
D03*
Y1152532D02*
D03*
Y1052532D02*
D03*
Y1023532D02*
D03*
Y1221532D02*
D03*
Y1192532D02*
D03*
X1028154Y1052532D02*
D03*
Y1023532D02*
D03*
Y1221532D02*
D03*
Y1192532D02*
D03*
X884154Y1052532D02*
D03*
Y1023532D02*
D03*
Y1221532D02*
D03*
Y1192532D02*
D03*
D91*
X1079754Y1170032D02*
D03*
X1130554D02*
D03*
X936754Y1169032D02*
D03*
X987554D02*
D03*
X1079754Y956032D02*
D03*
X1130554D02*
D03*
X935754D02*
D03*
X986554D02*
D03*
X791754D02*
D03*
X842554D02*
D03*
X843554Y1168032D02*
D03*
X792754D02*
D03*
D92*
X1105154Y1273032D02*
D03*
X962154Y1272032D02*
D03*
X1105154Y1059032D02*
D03*
X961154D02*
D03*
X817154D02*
D03*
X818154Y1271032D02*
D03*
D93*
X616154Y709032D02*
D03*
X592154Y699532D02*
D03*
Y718532D02*
D03*
D94*
X639154Y662532D02*
D03*
Y653032D02*
D03*
Y643532D02*
D03*
X613154Y662532D02*
D03*
Y643532D02*
D03*
D95*
X747654Y834032D02*
D03*
X708654D02*
D03*
D96*
X662654Y584032D02*
D03*
X637654D02*
D03*
X656654Y732032D02*
D03*
X631654D02*
D03*
D97*
X689654Y653032D02*
D03*
X660654D02*
D03*
D98*
X666754Y554032D02*
D03*
X653554D02*
D03*
X710554D02*
D03*
X723754D02*
D03*
D99*
X1090154Y559532D02*
D03*
Y584532D02*
D03*
D100*
X1159794Y620532D02*
D03*
X1147094D02*
D03*
X1134394D02*
D03*
X1121694D02*
D03*
X1159794Y573532D02*
D03*
X1147094D02*
D03*
X1134394D02*
D03*
X1121694D02*
D03*
X835104Y825532D02*
D03*
X847804D02*
D03*
X860504D02*
D03*
X873204D02*
D03*
X835104Y872532D02*
D03*
X847804D02*
D03*
X860504D02*
D03*
X873204D02*
D03*
X973104Y825532D02*
D03*
X985804D02*
D03*
X998504D02*
D03*
X1011204D02*
D03*
X973104Y872532D02*
D03*
X985804D02*
D03*
X998504D02*
D03*
X1011204D02*
D03*
X1111104Y825532D02*
D03*
X1123804D02*
D03*
X1136504D02*
D03*
X1149204D02*
D03*
X1111104Y872532D02*
D03*
X1123804D02*
D03*
X1136504D02*
D03*
X1149204D02*
D03*
D101*
X796654Y646532D02*
D03*
Y709532D02*
D03*
X805654D02*
D03*
Y646532D02*
D03*
D102*
X1008154Y652032D02*
D03*
Y630032D02*
D03*
X1024154D02*
D03*
Y652032D02*
D03*
D103*
X700154Y497032D02*
D03*
X677154D02*
D03*
D104*
X726154D02*
D03*
X651154D02*
D03*
D105*
X675654Y525532D02*
D03*
X701654D02*
D03*
X688654D02*
D03*
X695154D02*
D03*
X682154D02*
D03*
D106*
X678154Y713032D02*
D03*
Y729032D02*
D03*
D107*
X673125Y844282D02*
D03*
Y850782D02*
D03*
Y857282D02*
D03*
Y863782D02*
D03*
X633154D02*
D03*
Y857282D02*
D03*
Y850782D02*
D03*
Y844282D02*
D03*
D108*
X647404Y818032D02*
D03*
D109*
X672904D02*
D03*
D110*
X801654Y843032D02*
D03*
X816654D02*
D03*
X1076654D02*
D03*
X1091654D02*
D03*
X953654D02*
D03*
X938654D02*
D03*
D111*
X1084154Y882192D02*
D03*
Y861872D02*
D03*
X946154Y882192D02*
D03*
Y861872D02*
D03*
X809154Y882192D02*
D03*
Y861872D02*
D03*
X593154Y662192D02*
D03*
Y641872D02*
D03*
X741154Y652192D02*
D03*
Y631872D02*
D03*
X717154Y652192D02*
D03*
Y631872D02*
D03*
D112*
X748154Y875532D02*
D03*
Y908532D02*
D03*
D113*
X590497Y776032D02*
D03*
X1187154Y1295032D02*
D03*
X597154Y500032D02*
D03*
D114*
X801754Y777032D02*
D03*
X776354D02*
D03*
X750954D02*
D03*
X725554D02*
D03*
X871754Y496032D02*
D03*
X846354D02*
D03*
X820954D02*
D03*
X795554D02*
D03*
X1153144Y540032D02*
D03*
X1195154Y570232D02*
D03*
Y544832D02*
D03*
Y519432D02*
D03*
X854554Y793032D02*
D03*
X879954D02*
D03*
X990554D02*
D03*
X1015954D02*
D03*
X1130554D02*
D03*
X1155954D02*
D03*
D115*
X700154Y777032D02*
D03*
X770154Y496032D02*
D03*
X1127744Y540032D02*
D03*
X829154Y793032D02*
D03*
X965154D02*
D03*
X1105154D02*
D03*
D116*
X1090254Y518732D02*
D03*
Y493332D02*
D03*
X980254Y518732D02*
D03*
Y493332D02*
D03*
D117*
X1064854Y518732D02*
D03*
X1039454D02*
D03*
X1014054D02*
D03*
Y493332D02*
D03*
X1039454D02*
D03*
X1064854D02*
D03*
X627654Y1228032D02*
D03*
Y1055032D02*
D03*
X954854Y518732D02*
D03*
X929454D02*
D03*
X904054D02*
D03*
Y493332D02*
D03*
X929454D02*
D03*
X954854D02*
D03*
D118*
X702654Y1228032D02*
D03*
Y1055032D02*
D03*
D119*
X1195154Y494032D02*
D03*
D120*
X773154Y607382D02*
D03*
D121*
Y594682D02*
D03*
D122*
X1048154Y775032D02*
D03*
X677972Y736032D02*
D03*
X1090154Y584532D02*
D03*
X726154Y497032D02*
D03*
X651154D02*
D03*
X700154D02*
D03*
X677154D02*
D03*
X1048154Y1106032D02*
D03*
Y1049032D02*
D03*
X1033359Y825032D02*
D03*
X894154Y824032D02*
D03*
X953154Y835032D02*
D03*
X816154D02*
D03*
X762154Y816032D02*
D03*
Y828032D02*
D03*
Y840032D02*
D03*
Y852032D02*
D03*
X866639Y765032D02*
D03*
X742154Y935032D02*
D03*
Y950032D02*
D03*
X1194154Y1049032D02*
D03*
X905654D02*
D03*
X1166154Y942032D02*
D03*
Y957032D02*
D03*
Y972032D02*
D03*
Y987032D02*
D03*
Y1002032D02*
D03*
X1178154D02*
D03*
Y987032D02*
D03*
Y972032D02*
D03*
Y957032D02*
D03*
Y942032D02*
D03*
X1154154D02*
D03*
Y957032D02*
D03*
Y972032D02*
D03*
Y987032D02*
D03*
Y1002032D02*
D03*
X1142154D02*
D03*
Y987032D02*
D03*
Y972032D02*
D03*
Y957032D02*
D03*
Y942032D02*
D03*
X1119154Y1002032D02*
D03*
Y987032D02*
D03*
Y972032D02*
D03*
Y957032D02*
D03*
Y942032D02*
D03*
X1107154D02*
D03*
Y957032D02*
D03*
Y972032D02*
D03*
Y987032D02*
D03*
Y1002032D02*
D03*
X963154D02*
D03*
Y987032D02*
D03*
Y972032D02*
D03*
Y957032D02*
D03*
Y942032D02*
D03*
X975154D02*
D03*
Y957032D02*
D03*
Y972032D02*
D03*
Y987032D02*
D03*
Y1002032D02*
D03*
X998154Y942032D02*
D03*
Y957032D02*
D03*
Y972032D02*
D03*
Y987032D02*
D03*
Y1002032D02*
D03*
X1010154D02*
D03*
Y987032D02*
D03*
Y972032D02*
D03*
Y957032D02*
D03*
Y942032D02*
D03*
X1034154D02*
D03*
Y957032D02*
D03*
Y972032D02*
D03*
Y987032D02*
D03*
Y1002032D02*
D03*
X1022154D02*
D03*
Y987032D02*
D03*
Y972032D02*
D03*
Y957032D02*
D03*
Y942032D02*
D03*
X878154D02*
D03*
Y957032D02*
D03*
Y972032D02*
D03*
Y987032D02*
D03*
Y1002032D02*
D03*
X890154D02*
D03*
Y987032D02*
D03*
Y972032D02*
D03*
Y957032D02*
D03*
Y942032D02*
D03*
X866154D02*
D03*
Y957032D02*
D03*
Y972032D02*
D03*
Y987032D02*
D03*
Y1002032D02*
D03*
X854154D02*
D03*
Y987032D02*
D03*
Y972032D02*
D03*
Y957032D02*
D03*
Y942032D02*
D03*
X831154Y1002032D02*
D03*
Y987032D02*
D03*
Y972032D02*
D03*
Y957032D02*
D03*
Y942032D02*
D03*
X1060154Y729032D02*
D03*
X1132744Y651144D02*
D03*
X629154Y584032D02*
D03*
X850154Y704532D02*
D03*
X860409Y555032D02*
D03*
X996154Y663032D02*
D03*
Y672032D02*
D03*
X964154Y660032D02*
D03*
X1121694Y620532D02*
D03*
X1098154Y596282D02*
D03*
X646154Y554032D02*
D03*
X731154D02*
D03*
X729154Y631872D02*
D03*
X592154Y688032D02*
D03*
X910154Y772032D02*
D03*
X1048154Y824032D02*
D03*
X1035154Y736032D02*
D03*
X1152954Y735732D02*
D03*
X1067154Y639032D02*
D03*
Y654032D02*
D03*
Y668032D02*
D03*
X1067154Y683032D02*
D03*
X1067154Y713032D02*
D03*
X848154Y627032D02*
D03*
X1136504Y825532D02*
D03*
X998504D02*
D03*
X860504D02*
D03*
X769242Y1291267D02*
D03*
X784650Y1032928D02*
D03*
X798111Y1046550D02*
D03*
X811066Y1060266D02*
D03*
X1143980Y1140591D02*
D03*
X819154Y942032D02*
D03*
Y957032D02*
D03*
Y972032D02*
D03*
Y987032D02*
D03*
Y1002032D02*
D03*
X1018497Y1300494D02*
D03*
Y1273617D02*
D03*
Y1260155D02*
D03*
Y1246569D02*
D03*
Y1288095D02*
D03*
X882988Y1287624D02*
D03*
Y1246097D02*
D03*
Y1259684D02*
D03*
Y1273146D02*
D03*
Y1300023D02*
D03*
X737824Y1134344D02*
D03*
Y1110468D02*
D03*
Y1086846D02*
D03*
Y1178470D02*
D03*
Y1157004D02*
D03*
Y1204956D02*
D03*
X769242Y1240667D02*
D03*
Y1275773D02*
D03*
Y1256853D02*
D03*
Y1223141D02*
D03*
X651498Y1289976D02*
D03*
Y1273790D02*
D03*
Y1256264D02*
D03*
Y1308896D02*
D03*
Y1178416D02*
D03*
Y1204902D02*
D03*
Y1134290D02*
D03*
Y1086792D02*
D03*
Y1110414D02*
D03*
Y1156950D02*
D03*
X722886Y1204956D02*
D03*
X704138D02*
D03*
X722886Y1157004D02*
D03*
Y1178470D02*
D03*
X704138Y1157004D02*
D03*
Y1178470D02*
D03*
X1032820Y1300454D02*
D03*
X899597Y1300237D02*
D03*
X1032820Y1271524D02*
D03*
Y1258062D02*
D03*
Y1244475D02*
D03*
Y1286002D02*
D03*
X899597Y1273360D02*
D03*
Y1259898D02*
D03*
Y1246312D02*
D03*
Y1287838D02*
D03*
X736602Y1256264D02*
D03*
X717854D02*
D03*
Y1289976D02*
D03*
Y1308896D02*
D03*
Y1273790D02*
D03*
X736602Y1289976D02*
D03*
Y1308896D02*
D03*
Y1273790D02*
D03*
X704138Y1086846D02*
D03*
Y1110468D02*
D03*
X722886Y1086846D02*
D03*
Y1110468D02*
D03*
X704138Y1134344D02*
D03*
X722886D02*
D03*
X927998Y1121795D02*
D03*
X783928Y1123573D02*
D03*
X797922Y1086974D02*
D03*
X825322D02*
D03*
X838922D02*
D03*
X852522D02*
D03*
X784522D02*
D03*
X811722D02*
D03*
Y1073474D02*
D03*
X784522D02*
D03*
X852522D02*
D03*
X838922D02*
D03*
X825322D02*
D03*
X797922D02*
D03*
X784522Y1059974D02*
D03*
X852522D02*
D03*
X838922D02*
D03*
X825322D02*
D03*
X797922D02*
D03*
X811722Y1046474D02*
D03*
X784522D02*
D03*
X838922D02*
D03*
X825322D02*
D03*
X811722Y1032974D02*
D03*
X852522D02*
D03*
X838922D02*
D03*
X825322D02*
D03*
X797922D02*
D03*
X1085792Y1031351D02*
D03*
X1112992D02*
D03*
X1126592D02*
D03*
X1140192D02*
D03*
X1072192D02*
D03*
X1099392D02*
D03*
X1085792Y1044851D02*
D03*
X1112992D02*
D03*
X1126592D02*
D03*
X1140192D02*
D03*
X1072192D02*
D03*
X1099392D02*
D03*
X1085792Y1058351D02*
D03*
X1112992D02*
D03*
X1126592D02*
D03*
X1140192D02*
D03*
X1072192D02*
D03*
X1099392D02*
D03*
X1085792Y1071851D02*
D03*
X1112992D02*
D03*
X1126592D02*
D03*
X1140192D02*
D03*
X1072192D02*
D03*
X1099392D02*
D03*
Y1085351D02*
D03*
X1072192D02*
D03*
X1140192D02*
D03*
X1126592D02*
D03*
X1112992D02*
D03*
X1085792D02*
D03*
X969882Y1034273D02*
D03*
X983482D02*
D03*
X929082D02*
D03*
X956282D02*
D03*
X969882Y1047773D02*
D03*
X983482D02*
D03*
X997082D02*
D03*
X929082D02*
D03*
X956282D02*
D03*
X969882Y1061273D02*
D03*
X983482D02*
D03*
X997082D02*
D03*
X929082D02*
D03*
X956282D02*
D03*
X969882Y1074773D02*
D03*
X983482D02*
D03*
X997082D02*
D03*
X929082D02*
D03*
X956282D02*
D03*
Y1088273D02*
D03*
X929082D02*
D03*
X997082D02*
D03*
X983482D02*
D03*
X969882D02*
D03*
X799392Y1244755D02*
D03*
X826592D02*
D03*
X840192D02*
D03*
X853792D02*
D03*
X785792D02*
D03*
X812992D02*
D03*
X799392Y1258255D02*
D03*
X826592D02*
D03*
X840192D02*
D03*
X853792D02*
D03*
X785792D02*
D03*
X812992D02*
D03*
X799392Y1271755D02*
D03*
X826592D02*
D03*
X840192D02*
D03*
X853792D02*
D03*
X785792D02*
D03*
X812992D02*
D03*
X799392Y1285255D02*
D03*
X826592D02*
D03*
X840192D02*
D03*
X853792D02*
D03*
X785792D02*
D03*
X812992D02*
D03*
Y1298755D02*
D03*
X785792D02*
D03*
X853792D02*
D03*
X840192D02*
D03*
X826592D02*
D03*
X799392D02*
D03*
X937094Y1246761D02*
D03*
X964294D02*
D03*
X977894D02*
D03*
X991494D02*
D03*
X923494D02*
D03*
X950694D02*
D03*
X937094Y1260262D02*
D03*
X964294D02*
D03*
X977894D02*
D03*
X991494D02*
D03*
X923494D02*
D03*
X950694D02*
D03*
X937094Y1273762D02*
D03*
X964294D02*
D03*
X977894D02*
D03*
X991494D02*
D03*
X923494D02*
D03*
X950694D02*
D03*
X937094Y1287262D02*
D03*
X964294D02*
D03*
X977894D02*
D03*
X991494D02*
D03*
X923494D02*
D03*
X950694D02*
D03*
Y1300762D02*
D03*
X923494D02*
D03*
X991494D02*
D03*
X977894D02*
D03*
X964294D02*
D03*
X937094D02*
D03*
X1085656Y1246357D02*
D03*
X1112856D02*
D03*
X1126456D02*
D03*
X1140055D02*
D03*
X1072056D02*
D03*
X1099256D02*
D03*
X1085656Y1259857D02*
D03*
X1112856D02*
D03*
X1126456D02*
D03*
X1140055D02*
D03*
X1072056D02*
D03*
X1099256D02*
D03*
X1085656Y1273357D02*
D03*
X1112856D02*
D03*
X1126456D02*
D03*
X1140055D02*
D03*
X1072056D02*
D03*
X1099256D02*
D03*
X1085656Y1286857D02*
D03*
X1112856D02*
D03*
X1126456D02*
D03*
X1140055D02*
D03*
X1072056D02*
D03*
X1099256D02*
D03*
Y1300357D02*
D03*
X1072056D02*
D03*
X1140055D02*
D03*
X1126456D02*
D03*
X1112856D02*
D03*
X1085656D02*
D03*
X852522Y1046474D02*
D03*
X997082Y1034273D02*
D03*
X942682Y1088273D02*
D03*
Y1074773D02*
D03*
Y1061273D02*
D03*
Y1047773D02*
D03*
Y1034273D02*
D03*
X1102440Y1194261D02*
D03*
X1144234Y1194308D02*
D03*
X1116040Y1194261D02*
D03*
X1102440Y1180761D02*
D03*
X1144234Y1180808D02*
D03*
X1116040Y1180761D02*
D03*
X1102440Y1167261D02*
D03*
X1144234Y1167308D02*
D03*
X1116040Y1167261D02*
D03*
X1144234Y1153808D02*
D03*
X1074638Y1121287D02*
D03*
X1142710Y1125859D02*
D03*
X1143472Y1111635D02*
D03*
X1074892Y1108841D02*
D03*
X958720Y1167392D02*
D03*
X972320Y1180892D02*
D03*
X958720D02*
D03*
X972320Y1194392D02*
D03*
X1002038Y1194439D02*
D03*
X958720Y1194392D02*
D03*
X828378Y1168580D02*
D03*
X815562Y1168656D02*
D03*
X828378Y1182080D02*
D03*
X815562Y1182156D02*
D03*
X828378Y1195580D02*
D03*
X857842Y1194693D02*
D03*
X815562Y1195656D02*
D03*
X928366Y1106861D02*
D03*
X997974Y1135130D02*
D03*
Y1121630D02*
D03*
Y1108130D02*
D03*
X784682Y1105089D02*
D03*
X852938Y1132597D02*
D03*
Y1119097D02*
D03*
Y1105597D02*
D03*
X742154Y1010032D02*
D03*
Y995032D02*
D03*
Y980032D02*
D03*
X602964Y959722D02*
D03*
Y1000221D02*
D03*
Y973308D02*
D03*
Y986770D02*
D03*
X617696Y959429D02*
D03*
Y999930D02*
D03*
Y973016D02*
D03*
Y986478D02*
D03*
X636763Y959230D02*
D03*
Y999730D02*
D03*
Y972816D02*
D03*
Y986278D02*
D03*
X652528Y985970D02*
D03*
Y999470D02*
D03*
Y959056D02*
D03*
X602964Y1012553D02*
D03*
Y1026140D02*
D03*
X617696Y1012262D02*
D03*
Y1025848D02*
D03*
X636763Y1012062D02*
D03*
Y1025648D02*
D03*
X652528Y1011889D02*
D03*
Y1025350D02*
D03*
Y972518D02*
D03*
X636797Y1156950D02*
D03*
X617730D02*
D03*
X603029D02*
D03*
X636797Y1110414D02*
D03*
Y1086792D02*
D03*
Y1134290D02*
D03*
X617730Y1110414D02*
D03*
Y1086792D02*
D03*
Y1134290D02*
D03*
X603029Y1110414D02*
D03*
Y1086792D02*
D03*
Y1134290D02*
D03*
X636797Y1204902D02*
D03*
Y1178416D02*
D03*
X617730Y1204902D02*
D03*
Y1178416D02*
D03*
X603029Y1204902D02*
D03*
Y1178416D02*
D03*
X636797Y1308896D02*
D03*
X617730D02*
D03*
X603029D02*
D03*
X636797Y1256264D02*
D03*
Y1273790D02*
D03*
Y1289976D02*
D03*
X617730Y1256264D02*
D03*
Y1273790D02*
D03*
Y1289976D02*
D03*
X603029Y1256264D02*
D03*
Y1273790D02*
D03*
Y1289976D02*
D03*
X972320Y1167392D02*
D03*
X857842Y1181739D02*
D03*
Y1168531D02*
D03*
Y1154561D02*
D03*
X1002038Y1180215D02*
D03*
Y1166753D02*
D03*
Y1154307D02*
D03*
X742154Y965032D02*
D03*
X1065904Y826032D02*
D03*
X1091154Y835032D02*
D03*
X1171358Y833018D02*
D03*
X927904Y826032D02*
D03*
X789930D02*
D03*
X1157154Y825032D02*
D03*
X881154D02*
D03*
X625314Y818032D02*
D03*
X596154Y818192D02*
D03*
X648404Y818032D02*
D03*
X1000654Y713532D02*
D03*
X1013854Y705532D02*
D03*
X781154Y575032D02*
D03*
X864153Y704532D02*
D03*
X910154Y824032D02*
D03*
X878153Y704532D02*
D03*
X871154Y707032D02*
D03*
X857154D02*
D03*
X885154D02*
D03*
X1019654Y731212D02*
D03*
X1067154Y698032D02*
D03*
X1027654Y725532D02*
D03*
X1036404Y700032D02*
D03*
X1067154Y578032D02*
D03*
X1073626Y572504D02*
D03*
X877154Y555032D02*
D03*
X895409D02*
D03*
X809436Y564032D02*
D03*
X816154Y538032D02*
D03*
X849154D02*
D03*
X864154Y538032D02*
D03*
X785154Y538032D02*
D03*
X708654Y525532D02*
D03*
X722154Y663032D02*
D03*
X735154D02*
D03*
X746154D02*
D03*
X712154D02*
D03*
X696154Y692032D02*
D03*
X835154Y840032D02*
D03*
X973154D02*
D03*
X1111154D02*
D03*
X882654Y673532D02*
D03*
X894654D02*
D03*
X918654D02*
D03*
X930654D02*
D03*
X906654D02*
D03*
Y626532D02*
D03*
X930654D02*
D03*
X918654D02*
D03*
X894654D02*
D03*
X882654D02*
D03*
X906654Y650032D02*
D03*
X894654D02*
D03*
X882654D02*
D03*
X918654D02*
D03*
X930654D02*
D03*
X906654Y661782D02*
D03*
X930654D02*
D03*
X918654D02*
D03*
X894654D02*
D03*
X882654D02*
D03*
X906654Y638282D02*
D03*
X930654D02*
D03*
X918654D02*
D03*
X894654D02*
D03*
X882654D02*
D03*
X964154Y628032D02*
D03*
Y644032D02*
D03*
X783154Y662032D02*
D03*
X766154D02*
D03*
X848154Y651032D02*
D03*
X847404Y663032D02*
D03*
X848154Y602032D02*
D03*
X818154Y623032D02*
D03*
X912154Y555032D02*
D03*
X887154Y562032D02*
D03*
X996153Y613533D02*
D03*
X997974Y621894D02*
D03*
X996154Y631032D02*
D03*
X996924Y651144D02*
D03*
X916154Y709532D02*
D03*
X906154Y710282D02*
D03*
X903154Y588032D02*
D03*
X887654Y587532D02*
D03*
X878153Y586532D02*
D03*
X919154Y588532D02*
D03*
X935654Y588032D02*
D03*
X696932Y744810D02*
D03*
X769154Y538032D02*
D03*
X800154Y538032D02*
D03*
X833154D02*
D03*
X1083154Y683032D02*
D03*
X1083154Y668032D02*
D03*
X1024154Y671032D02*
D03*
X596154Y889032D02*
D03*
X1194154Y1106032D02*
D03*
X906154D02*
D03*
X760461Y893032D02*
D03*
X681154Y863782D02*
D03*
X686154Y897032D02*
D03*
X645153Y907031D02*
D03*
X725154Y911032D02*
D03*
X1100956Y654032D02*
D03*
X1067154Y627032D02*
D03*
Y588032D02*
D03*
X1047954Y624232D02*
D03*
X1002944Y557032D02*
D03*
X1018982Y558032D02*
D03*
X1002972Y572032D02*
D03*
X1117154Y654032D02*
D03*
Y639032D02*
D03*
X1100956D02*
D03*
Y624232D02*
D03*
Y612032D02*
D03*
X1083154Y624232D02*
D03*
X1082154Y612032D02*
D03*
X1194454Y716032D02*
D03*
X1194154Y698032D02*
D03*
Y677032D02*
D03*
Y659254D02*
D03*
Y642032D02*
D03*
X1171358Y659254D02*
D03*
Y677032D02*
D03*
Y698032D02*
D03*
X1171658Y716032D02*
D03*
X1150204Y659254D02*
D03*
Y677032D02*
D03*
Y698032D02*
D03*
X1150504Y716032D02*
D03*
X1171154Y642032D02*
D03*
X1172154Y622875D02*
D03*
X1194154D02*
D03*
X955879Y704032D02*
D03*
X948879D02*
D03*
X941879D02*
D03*
X934879D02*
D03*
X927879D02*
D03*
X1000154Y685032D02*
D03*
X891154Y712032D02*
D03*
X899154D02*
D03*
X585654Y571499D02*
D03*
Y554099D02*
D03*
Y538499D02*
D03*
X603029D02*
D03*
Y554099D02*
D03*
Y571499D02*
D03*
X620986Y538032D02*
D03*
Y553632D02*
D03*
Y571032D02*
D03*
X616154Y619032D02*
D03*
X639154Y653032D02*
D03*
X805654Y709532D02*
D03*
X796654D02*
D03*
D123*
X824154Y1125032D02*
D03*
X967154D02*
D03*
X1109154D02*
D03*
M02*
