M48
;Layer_Color=9474304
;FILE_FORMAT=4:4
METRIC,LZ
;TYPE=PLATED
T1F00S00C0.3000
T2F00S00C0.4000
T3F00S00C0.9000
T4F00S00C1.0160
T5F00S00C1.0500
T6F00S00C2.5400
%
T01
X01194154Y00622875
Y00642032
Y00659254
Y00677032
Y00698032
X01194454Y00716032
X01171658
X01171358Y00698032
Y00677032
Y00659254
X01171154Y00642032
X01172154Y00622875
X01121694Y00620532
X01117154Y00639032
Y00654032
X01100956
Y00639032
Y00624232
Y00612032
X01098154Y00596282
X01090154Y00584532
X01067154Y00588032
Y00578032
X01073626Y00572504
X01082154Y00612032
X01083154Y00624232
X01067154Y00627032
Y00639032
Y00654032
Y00668032
X01067154Y00683032
X01067154Y00698032
Y00713032
X01060154Y00729032
X01035154Y00736032
X01027654Y00725532
X01019654Y00731212
X01013854Y00705532
X01000654Y00713532
X01000154Y00685032
X00996154Y00672032
Y00663032
X00996924Y00651144
X00996154Y00631032
X00997974Y00621894
X00996153Y00613533
X00964154Y00628032
Y00644032
X00964154Y00660032
X00930654Y00661782
Y00650032
Y00638282
Y00626532
X00918654
Y00638282
Y00650032
Y00661782
Y00673532
X00930654
X00906654
Y00661782
Y00650032
Y00638282
Y00626532
X00894654
Y00638282
Y00650032
Y00661782
Y00673532
X00882654
Y00661782
Y00650032
Y00638282
Y00626532
X00848154Y00627032
X00848154Y00651032
X00847404Y00663032
X00850154Y00704532
X00857154Y00707032
X00864153Y00704532
X00871154Y00707032
X00878153Y00704532
X00885154Y00707032
X00891154Y00712032
X00899154
X00906154Y00710282
X00916154Y00709532
X00927879Y00704032
X00934879
X00941879
X00948879
X00955879
X01036404Y00700032
X01024154Y00671032
X01083154Y00668032
X01083154Y00683032
X01150204Y00677032
Y00659254
X01132744Y00651144
X01150204Y00698032
X01150504Y00716032
X01152954Y00735732
X01048154Y00775032
X00910154Y00772032
X00866639Y00765032
X00805654Y00709532
X00796654
X00818154Y00623032
X00848154Y00602032
X00878153Y00586532
X00887654Y00587532
X00903154Y00588032
X00919154Y00588532
X00935654Y00588032
X00912154Y00555032
X00895409
X00887154Y00562032
X00877154Y00555032
X00860409
X00864154Y00538032
X00849154Y00538032
X00833154
X00816154
X00800154
X00809436Y00564032
X01002944Y00557032
X01002972Y00572032
X01018982Y00558032
X01047954Y00624232
X00783154Y00662032
X00766154
X00746154Y00663032
X00735154
X00722154
X00712154
X00696154Y00692032
X00696932Y0074481
X00677972Y00736032
X00639154Y00653032
X00616154Y00619032
X00629154Y00584032
X00620986Y00571032
Y00553632
Y00538032
X00603029Y00538499
Y00554099
X00585654
Y00538499
Y00571499
X00603029
X00646154Y00554032
X00651154Y00497032
X00677154
X00700154
X00726154
X00708654Y00525532
X00731154Y00554032
X00769154Y00538032
X00785154Y00538032
X00781154Y00575032
X00729154Y00631872
X00592154Y00688032
X00596154Y00818192
X00625314Y00818032
X00648404
X00681154Y00863782
X00686154Y00897032
X00645153Y00907031
X00652528Y00959056
Y00972518
Y0098597
Y0099947
Y01011889
Y0102535
X00636763Y01025648
Y01012062
Y0099973
Y00986278
Y00972816
Y0095923
X00617696Y00959429
Y00973016
Y00986478
Y0099993
Y01012262
Y01025848
X00602964Y0102614
Y01012553
Y01000221
Y0098677
Y00973308
Y00959722
X00596154Y00889032
X00725154Y00911032
X00742154Y00935032
Y00950032
Y00965032
Y00980032
Y00995032
Y01010032
X0078465Y01032928
X00784522Y01046474
Y01059974
Y01073474
Y01086974
X00784682Y01105089
X00783928Y01123573
X00737824Y01134344
X00722886
X00704138
Y01157004
X00722886
X00737824
Y0117847
X00722886
X00704138
X00651498Y01178416
X00636797
X0061773
X00603029
Y0115695
X0061773
X00636797
X00651498
Y0113429
X00636797
X0061773
X00603029
Y01110414
X0061773
X00636797
X00651498
Y01086792
X00636797
X0061773
X00603029
X00704138Y01086846
X00722886
X00737824
Y01110468
X00722886
X00704138
X00760461Y00893032
X00762154Y00852032
Y00840032
Y00828032
Y00816032
X0078993Y00826032
X00816154Y00835032
X00835154Y00840032
X00860504Y00825532
X00881154Y00825032
X00894154Y00824032
X00910154
X00927904Y00826032
X00953154Y00835032
X00973154Y00840032
X00998504Y00825532
X01033359Y00825032
X01048154Y00824032
X01065904Y00826032
X01091154Y00835032
X01111154Y00840032
X01136504Y00825532
X01157154Y00825032
X01171358Y00833018
X01166154Y00942032
X01178154
Y00957032
X01166154
X01154154
X01142154
Y00972032
X01154154
X01166154
X01178154
Y00987032
X01166154
X01154154
X01142154
Y01002032
X01154154
X01166154
X01178154
X01119154
X01107154
Y00987032
X01119154
Y00972032
X01107154
Y00957032
X01119154
Y00942032
X01107154
X01142154
X01154154
X01140192Y01031351
Y01044851
Y01058351
Y01071851
Y01085351
X01126592
Y01071851
Y01058351
Y01044851
Y01031351
X01112992
Y01044851
Y01058351
Y01071851
Y01085351
X01099392
Y01071851
Y01058351
Y01044851
Y01031351
X01085792
Y01044851
Y01058351
Y01071851
Y01085351
X01072192
Y01071851
Y01058351
Y01044851
Y01031351
X01048154Y01049032
X00997082Y01047773
Y01061273
Y01074773
Y01088273
X00983482
Y01074773
Y01061273
Y01047773
Y01034273
X00969882
Y01047773
Y01061273
Y01074773
Y01088273
X00956282
Y01074773
Y01061273
Y01047773
Y01034273
X00942682
Y01047773
Y01061273
Y01074773
Y01088273
X00929082
Y01074773
Y01061273
Y01047773
Y01034273
X00905654Y01049032
X00852522Y01046474
Y01059974
Y01073474
Y01086974
X00838922
Y01073474
Y01059974
Y01046474
Y01032974
X00852522
X00825322
Y01046474
Y01059974
Y01073474
Y01086974
X00811722
Y01073474
X00797922
Y01086974
Y01059974
X00811066Y01060266
X00811722Y01046474
Y01032974
X00797922
X00798111Y0104655
X00819154Y01002032
X00831154
Y00987032
X00819154
Y00972032
X00831154
Y00957032
X00819154
Y00942032
X00831154
X00854154
X00866154
X00878154
X00890154
Y00957032
X00878154
X00866154
X00854154
Y00972032
X00866154
X00878154
X00890154
Y00987032
X00878154
X00866154
X00854154
Y01002032
X00866154
X00878154
X00890154
X00963154
X00975154
Y00987032
X00963154
Y00972032
X00975154
Y00957032
X00963154
Y00942032
X00975154
X00998154
X01010154
X01022154
X01034154
Y00957032
X01022154
X01010154
X00998154
Y00972032
X01010154
X01022154
X01034154
Y00987032
X01022154
X01010154
X00998154
Y01002032
X01010154
X01022154
X01034154
X00997082Y01034273
X00997974Y0110813
Y0112163
Y0113513
X01002038Y01154307
Y01166753
Y01180215
X0097232Y01180892
Y01167392
X0095872
Y01180892
X00927998Y01121795
X00928366Y01106861
X00906154Y01106032
X00852938Y01105597
Y01119097
Y01132597
X00857842Y01154561
Y01168531
Y01181739
X00828378Y0118208
X00815562Y01182156
Y01168656
X00828378Y0116858
X0110244Y01167261
Y01180761
X0111604
Y01167261
X01144234Y01167308
Y01180808
Y01153808
X0114398Y01140591
X0114271Y01125859
X01143472Y01111635
X01074892Y01108841
X01074638Y01121287
X01048154Y01106032
X01194154
Y01049032
X01144234Y01194308
X0111604Y01194261
X0110244
X01099256Y01246357
Y01259857
Y01273357
Y01286857
Y01300357
X01112856
Y01286857
Y01273357
Y01259857
Y01246357
X01126456
Y01259857
Y01273357
Y01286857
Y01300357
X01140055
Y01286857
Y01273357
Y01259857
Y01246357
X01085656
Y01259857
Y01273357
Y01286857
Y01300357
X01072056
Y01286857
Y01273357
Y01259857
Y01246357
X0103282Y01244475
Y01258062
Y01271524
Y01286002
Y01300454
X01018497Y01300494
Y01288095
Y01273617
Y01260155
Y01246569
X00991494Y01246761
Y01260262
Y01273762
Y01287262
Y01300762
X00977894
Y01287262
Y01273762
Y01260262
Y01246761
X00964294
Y01260262
Y01273762
Y01287262
Y01300762
X00950694
Y01287262
Y01273762
Y01260262
Y01246761
X00937094
Y01260262
Y01273762
Y01287262
Y01300762
X00923494
Y01287262
Y01273762
Y01260262
Y01246761
X00899597Y01246312
Y01259898
Y0127336
Y01287838
Y01300237
X00882988Y01300023
Y01287624
Y01273146
Y01259684
Y01246097
X00853792Y01244755
Y01258255
Y01271755
Y01285255
Y01298755
X00840192
Y01285255
Y01271755
Y01258255
Y01244755
X00826592
Y01258255
Y01271755
Y01285255
Y01298755
X00812992
Y01285255
Y01271755
Y01258255
Y01244755
X00799392
Y01258255
Y01271755
Y01285255
Y01298755
X00815562Y01195656
X00828378Y0119558
X00857842Y01194693
X0095872Y01194392
X0097232
X01002038Y01194439
X00769242Y01223141
Y01240667
Y01256853
X00785792Y01258255
Y01244755
Y01271755
Y01285255
Y01298755
X00769242Y01291267
Y01275773
X00736602Y0127379
Y01289976
X00717854
Y0127379
Y01256264
X00736602
X00737824Y01204956
X00722886
X00704138
X00651498Y01204902
X00636797
X0061773
X00603029
Y01256264
X0061773
Y0127379
X00603029
Y01289976
X0061773
Y01308896
X00603029
X00636797
X00651498
Y01289976
X00636797
Y0127379
X00651498
Y01256264
X00636797
X00717854Y01308896
X00736602
T02
X00773154Y00594682
Y00607382
T03
X01195154Y00494032
Y00519432
Y00544832
Y00570232
X01153144Y00540032
X01127744
X01130554Y00793032
X01105154
X01155954
X01015954
X00990554
X00965154
X00879954
X00854554
X00829154
X00801754Y00777032
X00795554Y00496032
X00820954
X00846354
X00871754
X00770154
X00776354Y00777032
X00750954
X00725554
X00700154
T04
X00904054Y00493332
Y00518732
X00929454
X00954854
X00980254
Y00493332
X00954854
X00929454
X01014054
Y00518732
X01039454
X01064854
X01090254
Y00493332
X01064854
X01039454
T05
X00627654Y01055032
X00702654
Y01228032
X00627654
T06
X00824154Y01125032
X00967154
X01109154
M30
