%FSLAX44Y44*%
%MOMM*%
G71*
G01*
G75*
G04 Layer_Color=16711935*
%ADD10R,1.0000X0.9500*%
%ADD11R,1.6002X1.2700*%
%ADD12R,2.2000X1.1000*%
%ADD13R,0.9500X1.0000*%
%ADD14R,0.6500X0.4000*%
%ADD15O,0.6000X1.9000*%
%ADD16R,2.2000X1.4000*%
%ADD17R,0.9000X1.4000*%
%ADD18R,1.0000X0.4000*%
%ADD19R,0.8000X0.8000*%
%ADD20R,0.4000X1.4000*%
%ADD21R,2.3000X1.9000*%
%ADD22R,1.8000X1.9000*%
%ADD23R,1.1500X1.4000*%
%ADD24R,0.6000X1.2000*%
%ADD25R,0.8000X0.6000*%
%ADD26R,0.6000X0.8000*%
%ADD27R,0.5000X0.6000*%
%ADD28R,1.6000X3.9000*%
%ADD29R,2.1000X5.8000*%
%ADD30R,1.0000X0.6000*%
G04:AMPARAMS|DCode=31|XSize=1.05mm|YSize=3.82mm|CornerRadius=0.0525mm|HoleSize=0mm|Usage=FLASHONLY|Rotation=180.000|XOffset=0mm|YOffset=0mm|HoleType=Round|Shape=RoundedRectangle|*
%AMROUNDEDRECTD31*
21,1,1.0500,3.7150,0,0,180.0*
21,1,0.9450,3.8200,0,0,180.0*
1,1,0.1050,-0.4725,1.8575*
1,1,0.1050,0.4725,1.8575*
1,1,0.1050,0.4725,-1.8575*
1,1,0.1050,-0.4725,-1.8575*
%
%ADD31ROUNDEDRECTD31*%
G04:AMPARAMS|DCode=32|XSize=7.48mm|YSize=8.55mm|CornerRadius=0.0374mm|HoleSize=0mm|Usage=FLASHONLY|Rotation=90.000|XOffset=0mm|YOffset=0mm|HoleType=Round|Shape=RoundedRectangle|*
%AMROUNDEDRECTD32*
21,1,7.4800,8.4752,0,0,90.0*
21,1,7.4052,8.5500,0,0,90.0*
1,1,0.0748,4.2376,3.7026*
1,1,0.0748,4.2376,-3.7026*
1,1,0.0748,-4.2376,-3.7026*
1,1,0.0748,-4.2376,3.7026*
%
%ADD32ROUNDEDRECTD32*%
G04:AMPARAMS|DCode=33|XSize=0.6mm|YSize=1mm|CornerRadius=0.15mm|HoleSize=0mm|Usage=FLASHONLY|Rotation=90.000|XOffset=0mm|YOffset=0mm|HoleType=Round|Shape=RoundedRectangle|*
%AMROUNDEDRECTD33*
21,1,0.6000,0.7000,0,0,90.0*
21,1,0.3000,1.0000,0,0,90.0*
1,1,0.3000,0.3500,0.1500*
1,1,0.3000,0.3500,-0.1500*
1,1,0.3000,-0.3500,-0.1500*
1,1,0.3000,-0.3500,0.1500*
%
%ADD33ROUNDEDRECTD33*%
%ADD34R,1.8500X1.3000*%
%ADD35R,1.3000X1.8500*%
%ADD36O,1.6500X0.3000*%
%ADD37O,0.3000X1.6500*%
%ADD38R,7.0000X7.0000*%
%ADD39C,0.2500*%
%ADD40C,0.5000*%
%ADD41C,0.8000*%
%ADD42C,0.3500*%
%ADD43C,1.2000*%
%ADD44C,0.2540*%
%ADD45C,0.2032*%
%ADD46C,0.4000*%
%ADD47C,0.6000*%
%ADD48C,1.0000*%
%ADD49C,0.7500*%
%ADD50C,0.7620*%
%ADD51C,1.1000*%
%ADD52C,1.0160*%
%ADD53R,1.5500X1.5500*%
%ADD54C,1.5500*%
%ADD55C,1.5000*%
%ADD56R,1.5000X1.5000*%
%ADD57C,0.7000*%
%ADD58R,0.7000X0.7000*%
%ADD59R,1.5000X1.5000*%
%ADD60C,2.0000*%
G04:AMPARAMS|DCode=61|XSize=1.55mm|YSize=1.55mm|CornerRadius=0.0465mm|HoleSize=0mm|Usage=FLASHONLY|Rotation=180.000|XOffset=0mm|YOffset=0mm|HoleType=Round|Shape=RoundedRectangle|*
%AMROUNDEDRECTD61*
21,1,1.5500,1.4570,0,0,180.0*
21,1,1.4570,1.5500,0,0,180.0*
1,1,0.0930,-0.7285,0.7285*
1,1,0.0930,0.7285,0.7285*
1,1,0.0930,0.7285,-0.7285*
1,1,0.0930,-0.7285,-0.7285*
%
%ADD61ROUNDEDRECTD61*%
%ADD62C,0.6000*%
%ADD63C,5.0000*%
%ADD64R,1.9000X1.3000*%
%ADD65R,2.8000X1.0000*%
%ADD66R,0.8000X1.0000*%
%ADD67R,1.2000X0.7000*%
%ADD68R,1.2000X1.0000*%
%ADD69R,0.6000X1.0000*%
G04:AMPARAMS|DCode=70|XSize=0.6mm|YSize=1mm|CornerRadius=0.051mm|HoleSize=0mm|Usage=FLASHONLY|Rotation=180.000|XOffset=0mm|YOffset=0mm|HoleType=Round|Shape=RoundedRectangle|*
%AMROUNDEDRECTD70*
21,1,0.6000,0.8980,0,0,180.0*
21,1,0.4980,1.0000,0,0,180.0*
1,1,0.1020,-0.2490,0.4490*
1,1,0.1020,0.2490,0.4490*
1,1,0.1020,0.2490,-0.4490*
1,1,0.1020,-0.2490,-0.4490*
%
%ADD70ROUNDEDRECTD70*%
G04:AMPARAMS|DCode=71|XSize=3.1mm|YSize=4mm|CornerRadius=0.0465mm|HoleSize=0mm|Usage=FLASHONLY|Rotation=180.000|XOffset=0mm|YOffset=0mm|HoleType=Round|Shape=RoundedRectangle|*
%AMROUNDEDRECTD71*
21,1,3.1000,3.9070,0,0,180.0*
21,1,3.0070,4.0000,0,0,180.0*
1,1,0.0930,-1.5035,1.9535*
1,1,0.0930,1.5035,1.9535*
1,1,0.0930,1.5035,-1.9535*
1,1,0.0930,-1.5035,-1.9535*
%
%ADD71ROUNDEDRECTD71*%
%ADD72R,2.1590X2.7430*%
%ADD73C,0.1000*%
%ADD74C,0.1524*%
%ADD75C,0.2000*%
%ADD76C,0.2000*%
%ADD77C,0.1778*%
%ADD78C,0.1016*%
%ADD79C,0.3556*%
%ADD80R,0.8000X0.3000*%
%ADD81R,0.5080X2.1844*%
%ADD82R,1.6000X0.5000*%
%ADD83R,0.8250X0.2000*%
%ADD84R,1.1524X1.1024*%
%ADD85R,1.7526X1.4224*%
%ADD86R,2.3524X1.2524*%
%ADD87R,1.1024X1.1524*%
%ADD88R,0.8024X0.5524*%
%ADD89O,0.7524X2.0524*%
%ADD90R,2.3524X1.5524*%
%ADD91R,1.0524X1.5524*%
%ADD92R,1.2032X0.6032*%
%ADD93R,0.9524X0.9524*%
%ADD94R,0.5524X1.5524*%
%ADD95R,2.4524X2.0524*%
%ADD96R,1.9524X2.0524*%
%ADD97R,1.3024X1.5524*%
%ADD98R,0.7524X1.3524*%
%ADD99R,0.9524X0.7524*%
%ADD100R,0.7524X0.9524*%
%ADD101R,0.6000X0.7000*%
%ADD102R,1.7524X4.0524*%
%ADD103R,2.2524X5.9524*%
%ADD104R,1.1524X0.7524*%
G04:AMPARAMS|DCode=105|XSize=1.2024mm|YSize=3.9724mm|CornerRadius=0.1287mm|HoleSize=0mm|Usage=FLASHONLY|Rotation=180.000|XOffset=0mm|YOffset=0mm|HoleType=Round|Shape=RoundedRectangle|*
%AMROUNDEDRECTD105*
21,1,1.2024,3.7150,0,0,180.0*
21,1,0.9450,3.9724,0,0,180.0*
1,1,0.2574,-0.4725,1.8575*
1,1,0.2574,0.4725,1.8575*
1,1,0.2574,0.4725,-1.8575*
1,1,0.2574,-0.4725,-1.8575*
%
%ADD105ROUNDEDRECTD105*%
G04:AMPARAMS|DCode=106|XSize=7.6324mm|YSize=8.7024mm|CornerRadius=0.1136mm|HoleSize=0mm|Usage=FLASHONLY|Rotation=90.000|XOffset=0mm|YOffset=0mm|HoleType=Round|Shape=RoundedRectangle|*
%AMROUNDEDRECTD106*
21,1,7.6324,8.4752,0,0,90.0*
21,1,7.4052,8.7024,0,0,90.0*
1,1,0.2272,4.2376,3.7026*
1,1,0.2272,4.2376,-3.7026*
1,1,0.2272,-4.2376,-3.7026*
1,1,0.2272,-4.2376,3.7026*
%
%ADD106ROUNDEDRECTD106*%
G04:AMPARAMS|DCode=107|XSize=0.7524mm|YSize=1.1524mm|CornerRadius=0.2262mm|HoleSize=0mm|Usage=FLASHONLY|Rotation=90.000|XOffset=0mm|YOffset=0mm|HoleType=Round|Shape=RoundedRectangle|*
%AMROUNDEDRECTD107*
21,1,0.7524,0.7000,0,0,90.0*
21,1,0.3000,1.1524,0,0,90.0*
1,1,0.4524,0.3500,0.1500*
1,1,0.4524,0.3500,-0.1500*
1,1,0.4524,-0.3500,-0.1500*
1,1,0.4524,-0.3500,0.1500*
%
%ADD107ROUNDEDRECTD107*%
%ADD108R,2.0024X1.4524*%
%ADD109R,1.4524X2.0024*%
%ADD110O,1.8024X0.4524*%
%ADD111O,0.4524X1.8024*%
%ADD112R,7.1524X7.1524*%
%ADD113R,1.7024X1.7024*%
%ADD114C,1.7024*%
%ADD115C,1.6524*%
%ADD116R,1.6524X1.6524*%
%ADD117C,0.8524*%
%ADD118R,0.8524X0.8524*%
%ADD119R,1.6524X1.6524*%
%ADD120C,2.7620*%
G04:AMPARAMS|DCode=121|XSize=1.7024mm|YSize=1.7024mm|CornerRadius=0.1227mm|HoleSize=0mm|Usage=FLASHONLY|Rotation=180.000|XOffset=0mm|YOffset=0mm|HoleType=Round|Shape=RoundedRectangle|*
%AMROUNDEDRECTD121*
21,1,1.7024,1.4570,0,0,180.0*
21,1,1.4570,1.7024,0,0,180.0*
1,1,0.2454,-0.7285,0.7285*
1,1,0.2454,0.7285,0.7285*
1,1,0.2454,0.7285,-0.7285*
1,1,0.2454,-0.7285,-0.7285*
%
%ADD121ROUNDEDRECTD121*%
%ADD122C,0.7524*%
%ADD123C,5.1524*%
%ADD124R,2.0524X1.4524*%
%ADD125R,2.9524X1.1524*%
%ADD126R,0.9524X1.1524*%
%ADD127R,1.3524X0.8524*%
%ADD128R,1.3524X1.1524*%
%ADD129R,0.7524X1.1524*%
G04:AMPARAMS|DCode=130|XSize=0.7524mm|YSize=1.1524mm|CornerRadius=0.1272mm|HoleSize=0mm|Usage=FLASHONLY|Rotation=180.000|XOffset=0mm|YOffset=0mm|HoleType=Round|Shape=RoundedRectangle|*
%AMROUNDEDRECTD130*
21,1,0.7524,0.8980,0,0,180.0*
21,1,0.4980,1.1524,0,0,180.0*
1,1,0.2544,-0.2490,0.4490*
1,1,0.2544,0.2490,0.4490*
1,1,0.2544,0.2490,-0.4490*
1,1,0.2544,-0.2490,-0.4490*
%
%ADD130ROUNDEDRECTD130*%
G04:AMPARAMS|DCode=131|XSize=3.2524mm|YSize=4.1524mm|CornerRadius=0.1227mm|HoleSize=0mm|Usage=FLASHONLY|Rotation=180.000|XOffset=0mm|YOffset=0mm|HoleType=Round|Shape=RoundedRectangle|*
%AMROUNDEDRECTD131*
21,1,3.2524,3.9070,0,0,180.0*
21,1,3.0070,4.1524,0,0,180.0*
1,1,0.2454,-1.5035,1.9535*
1,1,0.2454,1.5035,1.9535*
1,1,0.2454,1.5035,-1.9535*
1,1,0.2454,-1.5035,-1.9535*
%
%ADD131ROUNDEDRECTD131*%
%ADD132R,2.3114X2.8954*%
G36*
X654203Y1324032D02*
X661545Y1316937D01*
X661554Y1316929D01*
Y1037723D01*
Y1037626D01*
X691754Y1008444D01*
Y1008047D01*
X691754Y1008047D01*
X691754Y1008047D01*
Y931238D01*
X645154D01*
X645154Y931238D01*
X574468D01*
Y931238D01*
Y1320110D01*
X578527Y1324032D01*
X654203D01*
Y1324032D01*
D02*
G37*
G36*
X1198954Y1006409D02*
Y934894D01*
Y934598D01*
X1195154Y930926D01*
X1195048Y931028D01*
X720205D01*
Y931030D01*
X720154Y931079D01*
Y1009716D01*
X720381Y1009812D01*
Y1009812D01*
X720382Y1009812D01*
X1195433D01*
X1198954Y1006409D01*
D02*
G37*
G36*
X1163154Y1266032D02*
X1178154D01*
Y1215532D01*
X1177960Y1215344D01*
X1094659D01*
X1094659Y1215344D01*
X813548D01*
X813457Y1215432D01*
X764894D01*
X764803Y1215344D01*
X764686D01*
X751995Y1203032D01*
Y1041032D01*
X751995Y1041032D01*
X751995Y1041032D01*
X751995Y1039910D01*
X744905Y1033032D01*
X685356D01*
X676154Y1041958D01*
Y1043032D01*
Y1319287D01*
X676170Y1319302D01*
X681489Y1324462D01*
Y1324718D01*
X1163154D01*
Y1266032D01*
D02*
G37*
D39*
X1092157Y866027D02*
X1102154D01*
Y851032D01*
X1092157D01*
X1102154Y858530D02*
X1097156D01*
X1087159Y851032D02*
Y866027D01*
X1079661D01*
X1077162Y863528D01*
Y858530D01*
X1079661Y856030D01*
X1087159D01*
X1082160D02*
X1077162Y851032D01*
X1072164Y866027D02*
Y851032D01*
Y858530D01*
X1062167D01*
Y866027D01*
Y851032D01*
X1057169D02*
Y861029D01*
X1052170Y866027D01*
X1047172Y861029D01*
Y851032D01*
Y858530D01*
X1057169D01*
X1042173Y851032D02*
Y866027D01*
X1032177Y851032D01*
Y866027D01*
X1012183D02*
Y863528D01*
X1007185Y858530D01*
X1002186Y863528D01*
Y866027D01*
X1007185Y858530D02*
Y851032D01*
X997188Y866027D02*
X992190D01*
X994689D01*
Y851032D01*
X997188D01*
X992190D01*
X984692Y866027D02*
Y851032D01*
X974695D01*
X969697D02*
Y866027D01*
X964698Y861029D01*
X959700Y866027D01*
Y851032D01*
X954702D02*
Y861029D01*
X949703Y866027D01*
X944705Y861029D01*
Y851032D01*
Y858530D01*
X954702D01*
X939707Y866027D02*
X929710D01*
Y863528D01*
X939707Y853531D01*
Y851032D01*
X929710D01*
X1092157Y896027D02*
X1102154D01*
Y881032D01*
X1092157D01*
X1102154Y888530D02*
X1097156D01*
X1087159Y881032D02*
Y896027D01*
X1082160Y891029D01*
X1077162Y896027D01*
Y881032D01*
X1064666Y896027D02*
X1069665D01*
X1072164Y893528D01*
Y883531D01*
X1069665Y881032D01*
X1064666D01*
X1062167Y883531D01*
Y893528D01*
X1064666Y896027D01*
X1057169D02*
Y881032D01*
X1049671D01*
X1047172Y883531D01*
Y886030D01*
X1049671Y888530D01*
X1057169D01*
X1049671D01*
X1047172Y891029D01*
Y893528D01*
X1049671Y896027D01*
X1057169D01*
X1027178D02*
Y881032D01*
X1019681D01*
X1017181Y883531D01*
Y886030D01*
X1019681Y888530D01*
X1027178D01*
X1019681D01*
X1017181Y891029D01*
Y893528D01*
X1019681Y896027D01*
X1027178D01*
X1012183D02*
Y881032D01*
X1002186D01*
X997188Y896027D02*
Y881032D01*
X989690D01*
X987191Y883531D01*
Y893528D01*
X989690Y896027D01*
X997188D01*
X972196Y893528D02*
X974695Y896027D01*
X979694D01*
X982193Y893528D01*
Y883531D01*
X979694Y881032D01*
X974695D01*
X972196Y883531D01*
X952203Y881032D02*
X947204D01*
X949703D01*
Y896027D01*
X952203Y893528D01*
X939707Y883531D02*
X937207Y881032D01*
X932209D01*
X929710Y883531D01*
Y893528D01*
X932209Y896027D01*
X937207D01*
X939707Y893528D01*
Y891029D01*
X937207Y888530D01*
X929710D01*
X914715Y896027D02*
X924712D01*
Y888530D01*
X919713Y891029D01*
X917214D01*
X914715Y888530D01*
Y883531D01*
X917214Y881032D01*
X922212D01*
X924712Y883531D01*
X909716Y893528D02*
X907217Y896027D01*
X902219D01*
X899720Y893528D01*
Y883531D01*
X902219Y881032D01*
X907217D01*
X909716Y883531D01*
Y893528D01*
X894721D02*
X892222Y896027D01*
X887224D01*
X884724Y893528D01*
Y883531D01*
X887224Y881032D01*
X892222D01*
X894721Y883531D01*
Y893528D01*
X879726D02*
X877227Y896027D01*
X872228D01*
X869729Y893528D01*
Y883531D01*
X872228Y881032D01*
X877227D01*
X879726Y883531D01*
Y893528D01*
X864731Y881032D02*
X859733D01*
X862232D01*
Y896027D01*
X864731Y893528D01*
D84*
X877154Y555032D02*
D03*
X861154D02*
D03*
X896154D02*
D03*
X912154D02*
D03*
X679153Y907031D02*
D03*
X663153D02*
D03*
X629153D02*
D03*
X645153D02*
D03*
Y892031D02*
D03*
X661153D02*
D03*
X767154Y905838D02*
D03*
X751154D02*
D03*
X848154Y663032D02*
D03*
X864154D02*
D03*
X848154Y651032D02*
D03*
X864154D02*
D03*
X848154Y639032D02*
D03*
X864154D02*
D03*
X964154Y628032D02*
D03*
X948154D02*
D03*
X964154Y644032D02*
D03*
X948154D02*
D03*
X948154Y660032D02*
D03*
X964154D02*
D03*
X965154Y676032D02*
D03*
X981154D02*
D03*
X864154Y600713D02*
D03*
X848154D02*
D03*
X848154Y589032D02*
D03*
X864154D02*
D03*
X848154Y612032D02*
D03*
X864154D02*
D03*
X864154Y627032D02*
D03*
X848154D02*
D03*
D87*
X1134394Y574032D02*
D03*
Y590032D02*
D03*
X1146744Y574032D02*
D03*
Y590032D02*
D03*
X800154Y538032D02*
D03*
Y522032D02*
D03*
X769154D02*
D03*
Y538032D02*
D03*
X833154Y522032D02*
D03*
Y538032D02*
D03*
X952154Y609032D02*
D03*
Y593032D02*
D03*
X936154Y609032D02*
D03*
Y593032D02*
D03*
X903154D02*
D03*
Y609032D02*
D03*
X919154Y593032D02*
D03*
Y609032D02*
D03*
X888154Y593032D02*
D03*
Y609032D02*
D03*
X894154Y700032D02*
D03*
Y684032D02*
D03*
X918154Y700032D02*
D03*
Y684032D02*
D03*
X906154Y700032D02*
D03*
Y684032D02*
D03*
X679153Y874031D02*
D03*
Y858031D02*
D03*
X725154Y911032D02*
D03*
Y895032D02*
D03*
X906154Y1074032D02*
D03*
Y1058032D02*
D03*
X1048154Y1074032D02*
D03*
Y1058032D02*
D03*
X1194154Y1074032D02*
D03*
Y1058032D02*
D03*
X725154Y878032D02*
D03*
Y862032D02*
D03*
X906154Y1106032D02*
D03*
Y1090032D02*
D03*
X1048154Y1106032D02*
D03*
Y1090032D02*
D03*
X1194154Y1106032D02*
D03*
Y1090032D02*
D03*
D99*
X810654Y623032D02*
D03*
X785654D02*
D03*
D108*
X1169154Y1221532D02*
D03*
Y1192532D02*
D03*
X1028154Y1221532D02*
D03*
Y1192532D02*
D03*
X884154Y1221532D02*
D03*
Y1192532D02*
D03*
D109*
X653654Y1125032D02*
D03*
X682654D02*
D03*
X683654Y1164032D02*
D03*
X654654D02*
D03*
D113*
X980254Y493332D02*
D03*
Y518732D02*
D03*
X1090254Y493332D02*
D03*
Y518732D02*
D03*
D114*
X954854Y493332D02*
D03*
X929454D02*
D03*
X904054D02*
D03*
Y518732D02*
D03*
X929454D02*
D03*
X954854D02*
D03*
X627654Y1055032D02*
D03*
Y1228032D02*
D03*
X1064854Y493332D02*
D03*
X1039454D02*
D03*
X1014054D02*
D03*
Y518732D02*
D03*
X1039454D02*
D03*
X1064854D02*
D03*
D115*
X1155954Y793032D02*
D03*
X1130554D02*
D03*
X1015954D02*
D03*
X990554D02*
D03*
X879954D02*
D03*
X854554D02*
D03*
X1195154Y519432D02*
D03*
Y544832D02*
D03*
Y570232D02*
D03*
X1153144Y540032D02*
D03*
X795554Y496032D02*
D03*
X820954D02*
D03*
X846354D02*
D03*
X871754D02*
D03*
X725554Y777032D02*
D03*
X750954D02*
D03*
X776354D02*
D03*
X801754D02*
D03*
D116*
X1105154Y793032D02*
D03*
X965154D02*
D03*
X829154D02*
D03*
X1127744Y540032D02*
D03*
X770154Y496032D02*
D03*
X700154Y777032D02*
D03*
D117*
X773154Y594682D02*
D03*
D118*
Y607382D02*
D03*
D119*
X1195154Y494032D02*
D03*
D120*
X597154Y500032D02*
D03*
X1187154Y1295032D02*
D03*
X590497Y776032D02*
D03*
D121*
X702654Y1055032D02*
D03*
Y1228032D02*
D03*
D122*
X796654Y709532D02*
D03*
X805654D02*
D03*
X639154Y653032D02*
D03*
X616154Y619032D02*
D03*
X620986Y571032D02*
D03*
Y553632D02*
D03*
Y538032D02*
D03*
X603029Y571499D02*
D03*
Y554099D02*
D03*
Y538499D02*
D03*
X585654D02*
D03*
Y554099D02*
D03*
Y571499D02*
D03*
X899154Y712032D02*
D03*
X891154D02*
D03*
X1000154Y685032D02*
D03*
X927879Y704032D02*
D03*
X934879D02*
D03*
X941879D02*
D03*
X948879D02*
D03*
X955879D02*
D03*
X1194154Y622875D02*
D03*
X1172154D02*
D03*
X1171154Y642032D02*
D03*
X1150504Y716032D02*
D03*
X1150204Y698032D02*
D03*
Y677032D02*
D03*
Y659254D02*
D03*
X1171658Y716032D02*
D03*
X1171358Y698032D02*
D03*
Y677032D02*
D03*
Y659254D02*
D03*
X1194154Y642032D02*
D03*
Y659254D02*
D03*
Y677032D02*
D03*
Y698032D02*
D03*
X1194454Y716032D02*
D03*
X1082154Y612032D02*
D03*
X1083154Y624232D02*
D03*
X1100956Y612032D02*
D03*
Y624232D02*
D03*
Y639032D02*
D03*
X1117154D02*
D03*
Y654032D02*
D03*
X1002972Y572032D02*
D03*
X1018982Y558032D02*
D03*
X1002944Y557032D02*
D03*
X1047954Y624232D02*
D03*
X1067154Y588032D02*
D03*
Y627032D02*
D03*
X1100956Y654032D02*
D03*
X725154Y911032D02*
D03*
X645153Y907031D02*
D03*
X686154Y897032D02*
D03*
X681154Y863782D02*
D03*
X760461Y893032D02*
D03*
X906154Y1106032D02*
D03*
X1194154D02*
D03*
X596154Y889032D02*
D03*
X1024154Y671032D02*
D03*
X1083154Y668032D02*
D03*
X1083154Y683032D02*
D03*
X833154Y538032D02*
D03*
X800154D02*
D03*
X769154Y538032D02*
D03*
X696932Y744810D02*
D03*
X935654Y588032D02*
D03*
X919154Y588532D02*
D03*
X878153Y586532D02*
D03*
X887654Y587532D02*
D03*
X903154Y588032D02*
D03*
X906154Y710282D02*
D03*
X916154Y709532D02*
D03*
X996924Y651144D02*
D03*
X996154Y631032D02*
D03*
X997974Y621894D02*
D03*
X996153Y613533D02*
D03*
X887154Y562032D02*
D03*
X912154Y555032D02*
D03*
X818154Y623032D02*
D03*
X848154Y602032D02*
D03*
X847404Y663032D02*
D03*
X848154Y651032D02*
D03*
X766154Y662032D02*
D03*
X783154D02*
D03*
X964154Y644032D02*
D03*
Y628032D02*
D03*
X882654Y638282D02*
D03*
X894654D02*
D03*
X918654D02*
D03*
X930654D02*
D03*
X906654D02*
D03*
X882654Y661782D02*
D03*
X894654D02*
D03*
X918654D02*
D03*
X930654D02*
D03*
X906654D02*
D03*
X930654Y650032D02*
D03*
X918654D02*
D03*
X882654D02*
D03*
X894654D02*
D03*
X906654D02*
D03*
X882654Y626532D02*
D03*
X894654D02*
D03*
X918654D02*
D03*
X930654D02*
D03*
X906654D02*
D03*
Y673532D02*
D03*
X930654D02*
D03*
X918654D02*
D03*
X894654D02*
D03*
X882654D02*
D03*
X1111154Y840032D02*
D03*
X973154D02*
D03*
X835154D02*
D03*
X696154Y692032D02*
D03*
X712154Y663032D02*
D03*
X746154D02*
D03*
X735154D02*
D03*
X722154D02*
D03*
X708654Y525532D02*
D03*
X785154Y538032D02*
D03*
X864154Y538032D02*
D03*
X849154Y538032D02*
D03*
X816154D02*
D03*
X809436Y564032D02*
D03*
X895409Y555032D02*
D03*
X877154D02*
D03*
X1073626Y572504D02*
D03*
X1067154Y578032D02*
D03*
X1036404Y700032D02*
D03*
X1027654Y725532D02*
D03*
X1067154Y698032D02*
D03*
X1019654Y731212D02*
D03*
X885154Y707032D02*
D03*
X857154D02*
D03*
X871154D02*
D03*
X878153Y704532D02*
D03*
X910154Y824032D02*
D03*
X864153Y704532D02*
D03*
X781154Y575032D02*
D03*
X1013854Y705532D02*
D03*
X1000654Y713532D02*
D03*
X648404Y818032D02*
D03*
X596154Y818192D02*
D03*
X625314Y818032D02*
D03*
X881154Y825032D02*
D03*
X1157154D02*
D03*
X789930Y826032D02*
D03*
X927904D02*
D03*
X1171358Y833018D02*
D03*
X1091154Y835032D02*
D03*
X1065904Y826032D02*
D03*
X742154Y965032D02*
D03*
X1002038Y1154307D02*
D03*
Y1166753D02*
D03*
Y1180215D02*
D03*
X857842Y1154561D02*
D03*
Y1168531D02*
D03*
Y1181739D02*
D03*
X972320Y1167392D02*
D03*
X603029Y1289976D02*
D03*
Y1273790D02*
D03*
Y1256264D02*
D03*
X617730Y1289976D02*
D03*
Y1273790D02*
D03*
Y1256264D02*
D03*
X636797Y1289976D02*
D03*
Y1273790D02*
D03*
Y1256264D02*
D03*
X603029Y1308896D02*
D03*
X617730D02*
D03*
X636797D02*
D03*
X603029Y1178416D02*
D03*
Y1204902D02*
D03*
X617730Y1178416D02*
D03*
Y1204902D02*
D03*
X636797Y1178416D02*
D03*
Y1204902D02*
D03*
X603029Y1134290D02*
D03*
Y1086792D02*
D03*
Y1110414D02*
D03*
X617730Y1134290D02*
D03*
Y1086792D02*
D03*
Y1110414D02*
D03*
X636797Y1134290D02*
D03*
Y1086792D02*
D03*
Y1110414D02*
D03*
X603029Y1156950D02*
D03*
X617730D02*
D03*
X636797D02*
D03*
X652528Y972518D02*
D03*
Y1025350D02*
D03*
Y1011889D02*
D03*
X636763Y1025648D02*
D03*
Y1012062D02*
D03*
X617696Y1025848D02*
D03*
Y1012262D02*
D03*
X602964Y1026140D02*
D03*
Y1012553D02*
D03*
X652528Y959056D02*
D03*
Y999470D02*
D03*
Y985970D02*
D03*
X636763Y986278D02*
D03*
Y972816D02*
D03*
Y999730D02*
D03*
Y959230D02*
D03*
X617696Y986478D02*
D03*
Y973016D02*
D03*
Y999930D02*
D03*
Y959429D02*
D03*
X602964Y986770D02*
D03*
Y973308D02*
D03*
Y1000221D02*
D03*
Y959722D02*
D03*
X742154Y980032D02*
D03*
Y995032D02*
D03*
Y1010032D02*
D03*
X852938Y1105597D02*
D03*
Y1119097D02*
D03*
Y1132597D02*
D03*
X784682Y1105089D02*
D03*
X997974Y1108130D02*
D03*
Y1121630D02*
D03*
Y1135130D02*
D03*
X928366Y1106861D02*
D03*
X815562Y1195656D02*
D03*
X857842Y1194693D02*
D03*
X828378Y1195580D02*
D03*
X815562Y1182156D02*
D03*
X828378Y1182080D02*
D03*
X815562Y1168656D02*
D03*
X828378Y1168580D02*
D03*
X958720Y1194392D02*
D03*
X1002038Y1194439D02*
D03*
X972320Y1194392D02*
D03*
X958720Y1180892D02*
D03*
X972320D02*
D03*
X958720Y1167392D02*
D03*
X1074892Y1108841D02*
D03*
X1143472Y1111635D02*
D03*
X1142710Y1125859D02*
D03*
X1074638Y1121287D02*
D03*
X1144234Y1153808D02*
D03*
X1116040Y1167261D02*
D03*
X1144234Y1167308D02*
D03*
X1102440Y1167261D02*
D03*
X1116040Y1180761D02*
D03*
X1144234Y1180808D02*
D03*
X1102440Y1180761D02*
D03*
X1116040Y1194261D02*
D03*
X1144234Y1194308D02*
D03*
X1102440Y1194261D02*
D03*
X942682Y1034273D02*
D03*
Y1047773D02*
D03*
Y1061273D02*
D03*
Y1074773D02*
D03*
Y1088273D02*
D03*
X997082Y1034273D02*
D03*
X852522Y1046474D02*
D03*
X1085656Y1300357D02*
D03*
X1112856D02*
D03*
X1126456D02*
D03*
X1140055D02*
D03*
X1072056D02*
D03*
X1099256D02*
D03*
Y1286857D02*
D03*
X1072056D02*
D03*
X1140055D02*
D03*
X1126456D02*
D03*
X1112856D02*
D03*
X1085656D02*
D03*
X1099256Y1273357D02*
D03*
X1072056D02*
D03*
X1140055D02*
D03*
X1126456D02*
D03*
X1112856D02*
D03*
X1085656D02*
D03*
X1099256Y1259857D02*
D03*
X1072056D02*
D03*
X1140055D02*
D03*
X1126456D02*
D03*
X1112856D02*
D03*
X1085656D02*
D03*
X1099256Y1246357D02*
D03*
X1072056D02*
D03*
X1140055D02*
D03*
X1126456D02*
D03*
X1112856D02*
D03*
X1085656D02*
D03*
X937094Y1300762D02*
D03*
X964294D02*
D03*
X977894D02*
D03*
X991494D02*
D03*
X923494D02*
D03*
X950694D02*
D03*
Y1287262D02*
D03*
X923494D02*
D03*
X991494D02*
D03*
X977894D02*
D03*
X964294D02*
D03*
X937094D02*
D03*
X950694Y1273762D02*
D03*
X923494D02*
D03*
X991494D02*
D03*
X977894D02*
D03*
X964294D02*
D03*
X937094D02*
D03*
X950694Y1260262D02*
D03*
X923494D02*
D03*
X991494D02*
D03*
X977894D02*
D03*
X964294D02*
D03*
X937094D02*
D03*
X950694Y1246761D02*
D03*
X923494D02*
D03*
X991494D02*
D03*
X977894D02*
D03*
X964294D02*
D03*
X937094D02*
D03*
X799392Y1298755D02*
D03*
X826592D02*
D03*
X840192D02*
D03*
X853792D02*
D03*
X785792D02*
D03*
X812992D02*
D03*
Y1285255D02*
D03*
X785792D02*
D03*
X853792D02*
D03*
X840192D02*
D03*
X826592D02*
D03*
X799392D02*
D03*
X812992Y1271755D02*
D03*
X785792D02*
D03*
X853792D02*
D03*
X840192D02*
D03*
X826592D02*
D03*
X799392D02*
D03*
X812992Y1258255D02*
D03*
X785792D02*
D03*
X853792D02*
D03*
X840192D02*
D03*
X826592D02*
D03*
X799392D02*
D03*
X812992Y1244755D02*
D03*
X785792D02*
D03*
X853792D02*
D03*
X840192D02*
D03*
X826592D02*
D03*
X799392D02*
D03*
X969882Y1088273D02*
D03*
X983482D02*
D03*
X997082D02*
D03*
X929082D02*
D03*
X956282D02*
D03*
Y1074773D02*
D03*
X929082D02*
D03*
X997082D02*
D03*
X983482D02*
D03*
X969882D02*
D03*
X956282Y1061273D02*
D03*
X929082D02*
D03*
X997082D02*
D03*
X983482D02*
D03*
X969882D02*
D03*
X956282Y1047773D02*
D03*
X929082D02*
D03*
X997082D02*
D03*
X983482D02*
D03*
X969882D02*
D03*
X956282Y1034273D02*
D03*
X929082D02*
D03*
X983482D02*
D03*
X969882D02*
D03*
X1085792Y1085351D02*
D03*
X1112992D02*
D03*
X1126592D02*
D03*
X1140192D02*
D03*
X1072192D02*
D03*
X1099392D02*
D03*
Y1071851D02*
D03*
X1072192D02*
D03*
X1140192D02*
D03*
X1126592D02*
D03*
X1112992D02*
D03*
X1085792D02*
D03*
X1099392Y1058351D02*
D03*
X1072192D02*
D03*
X1140192D02*
D03*
X1126592D02*
D03*
X1112992D02*
D03*
X1085792D02*
D03*
X1099392Y1044851D02*
D03*
X1072192D02*
D03*
X1140192D02*
D03*
X1126592D02*
D03*
X1112992D02*
D03*
X1085792D02*
D03*
X1099392Y1031351D02*
D03*
X1072192D02*
D03*
X1140192D02*
D03*
X1126592D02*
D03*
X1112992D02*
D03*
X1085792D02*
D03*
X797922Y1032974D02*
D03*
X825322D02*
D03*
X838922D02*
D03*
X852522D02*
D03*
X811722D02*
D03*
X825322Y1046474D02*
D03*
X838922D02*
D03*
X784522D02*
D03*
X811722D02*
D03*
X797922Y1059974D02*
D03*
X825322D02*
D03*
X838922D02*
D03*
X852522D02*
D03*
X784522D02*
D03*
X797922Y1073474D02*
D03*
X825322D02*
D03*
X838922D02*
D03*
X852522D02*
D03*
X784522D02*
D03*
X811722D02*
D03*
Y1086974D02*
D03*
X784522D02*
D03*
X852522D02*
D03*
X838922D02*
D03*
X825322D02*
D03*
X797922D02*
D03*
X783928Y1123573D02*
D03*
X927998Y1121795D02*
D03*
X722886Y1134344D02*
D03*
X704138D02*
D03*
X722886Y1110468D02*
D03*
Y1086846D02*
D03*
X704138Y1110468D02*
D03*
Y1086846D02*
D03*
X736602Y1273790D02*
D03*
Y1308896D02*
D03*
Y1289976D02*
D03*
X717854Y1273790D02*
D03*
Y1308896D02*
D03*
Y1289976D02*
D03*
Y1256264D02*
D03*
X736602D02*
D03*
X899597Y1287838D02*
D03*
Y1246312D02*
D03*
Y1259898D02*
D03*
Y1273360D02*
D03*
X1032820Y1286002D02*
D03*
Y1244475D02*
D03*
Y1258062D02*
D03*
Y1271524D02*
D03*
X899597Y1300237D02*
D03*
X1032820Y1300454D02*
D03*
X704138Y1178470D02*
D03*
Y1157004D02*
D03*
X722886Y1178470D02*
D03*
Y1157004D02*
D03*
X704138Y1204956D02*
D03*
X722886D02*
D03*
X651498Y1156950D02*
D03*
Y1110414D02*
D03*
Y1086792D02*
D03*
Y1134290D02*
D03*
Y1204902D02*
D03*
Y1178416D02*
D03*
Y1308896D02*
D03*
Y1256264D02*
D03*
Y1273790D02*
D03*
Y1289976D02*
D03*
X769242Y1223141D02*
D03*
Y1256853D02*
D03*
Y1275773D02*
D03*
Y1240667D02*
D03*
X737824Y1204956D02*
D03*
Y1157004D02*
D03*
Y1178470D02*
D03*
Y1086846D02*
D03*
Y1110468D02*
D03*
Y1134344D02*
D03*
X882988Y1300023D02*
D03*
Y1273146D02*
D03*
Y1259684D02*
D03*
Y1246097D02*
D03*
Y1287624D02*
D03*
X1018497Y1288095D02*
D03*
Y1246569D02*
D03*
Y1260155D02*
D03*
Y1273617D02*
D03*
Y1300494D02*
D03*
X819154Y1002032D02*
D03*
Y987032D02*
D03*
Y972032D02*
D03*
Y957032D02*
D03*
Y942032D02*
D03*
X1143980Y1140591D02*
D03*
X811066Y1060266D02*
D03*
X798111Y1046550D02*
D03*
X784650Y1032928D02*
D03*
X769242Y1291267D02*
D03*
X860504Y825532D02*
D03*
X998504D02*
D03*
X1136504D02*
D03*
X848154Y627032D02*
D03*
X1067154Y713032D02*
D03*
X1067154Y683032D02*
D03*
X1067154Y668032D02*
D03*
Y654032D02*
D03*
Y639032D02*
D03*
X1152954Y735732D02*
D03*
X1035154Y736032D02*
D03*
X1048154Y824032D02*
D03*
X910154Y772032D02*
D03*
X592154Y688032D02*
D03*
X729154Y631872D02*
D03*
X731154Y554032D02*
D03*
X646154D02*
D03*
X1098154Y596282D02*
D03*
X1121694Y620532D02*
D03*
X964154Y660032D02*
D03*
X996154Y672032D02*
D03*
Y663032D02*
D03*
X860409Y555032D02*
D03*
X850154Y704532D02*
D03*
X629154Y584032D02*
D03*
X1132744Y651144D02*
D03*
X1060154Y729032D02*
D03*
X831154Y942032D02*
D03*
Y957032D02*
D03*
Y972032D02*
D03*
Y987032D02*
D03*
Y1002032D02*
D03*
X854154Y942032D02*
D03*
Y957032D02*
D03*
Y972032D02*
D03*
Y987032D02*
D03*
Y1002032D02*
D03*
X866154D02*
D03*
Y987032D02*
D03*
Y972032D02*
D03*
Y957032D02*
D03*
Y942032D02*
D03*
X890154D02*
D03*
Y957032D02*
D03*
Y972032D02*
D03*
Y987032D02*
D03*
Y1002032D02*
D03*
X878154D02*
D03*
Y987032D02*
D03*
Y972032D02*
D03*
Y957032D02*
D03*
Y942032D02*
D03*
X1022154D02*
D03*
Y957032D02*
D03*
Y972032D02*
D03*
Y987032D02*
D03*
Y1002032D02*
D03*
X1034154D02*
D03*
Y987032D02*
D03*
Y972032D02*
D03*
Y957032D02*
D03*
Y942032D02*
D03*
X1010154D02*
D03*
Y957032D02*
D03*
Y972032D02*
D03*
Y987032D02*
D03*
Y1002032D02*
D03*
X998154D02*
D03*
Y987032D02*
D03*
Y972032D02*
D03*
Y957032D02*
D03*
Y942032D02*
D03*
X975154Y1002032D02*
D03*
Y987032D02*
D03*
Y972032D02*
D03*
Y957032D02*
D03*
Y942032D02*
D03*
X963154D02*
D03*
Y957032D02*
D03*
Y972032D02*
D03*
Y987032D02*
D03*
Y1002032D02*
D03*
X1107154D02*
D03*
Y987032D02*
D03*
Y972032D02*
D03*
Y957032D02*
D03*
Y942032D02*
D03*
X1119154D02*
D03*
Y957032D02*
D03*
Y972032D02*
D03*
Y987032D02*
D03*
Y1002032D02*
D03*
X1142154Y942032D02*
D03*
Y957032D02*
D03*
Y972032D02*
D03*
Y987032D02*
D03*
Y1002032D02*
D03*
X1154154D02*
D03*
Y987032D02*
D03*
Y972032D02*
D03*
Y957032D02*
D03*
Y942032D02*
D03*
X1178154D02*
D03*
Y957032D02*
D03*
Y972032D02*
D03*
Y987032D02*
D03*
Y1002032D02*
D03*
X1166154D02*
D03*
Y987032D02*
D03*
Y972032D02*
D03*
Y957032D02*
D03*
Y942032D02*
D03*
X905654Y1049032D02*
D03*
X1194154D02*
D03*
X742154Y950032D02*
D03*
Y935032D02*
D03*
X866639Y765032D02*
D03*
X762154Y852032D02*
D03*
Y840032D02*
D03*
Y828032D02*
D03*
Y816032D02*
D03*
X816154Y835032D02*
D03*
X953154D02*
D03*
X894154Y824032D02*
D03*
X1033359Y825032D02*
D03*
X1048154Y1049032D02*
D03*
Y1106032D02*
D03*
X677154Y497032D02*
D03*
X700154D02*
D03*
X651154D02*
D03*
X726154D02*
D03*
X1090154Y584532D02*
D03*
X677972Y736032D02*
D03*
X1048154Y775032D02*
D03*
D123*
X1109154Y1125032D02*
D03*
X967154D02*
D03*
X824154D02*
D03*
D124*
X1198954Y600732D02*
D03*
D125*
X1194454Y735732D02*
D03*
D126*
X1152954D02*
D03*
D127*
X1047954Y726232D02*
D03*
Y716732D02*
D03*
Y705732D02*
D03*
Y694732D02*
D03*
Y683732D02*
D03*
Y672732D02*
D03*
Y661732D02*
D03*
Y650732D02*
D03*
Y639732D02*
D03*
D128*
Y624232D02*
D03*
X1090954Y735732D02*
D03*
D129*
X662653Y874031D02*
D03*
X643653D02*
D03*
X662653Y848031D02*
D03*
X653153D02*
D03*
X643653D02*
D03*
D130*
X760461Y866782D02*
D03*
X769960Y890782D02*
D03*
X750961D02*
D03*
D131*
X720154Y993032D02*
D03*
X676154D02*
D03*
X720154Y949032D02*
D03*
X676154D02*
D03*
D132*
X691254Y1298032D02*
D03*
X647054D02*
D03*
M02*
