%FSLAX44Y44*%
%MOMM*%
G71*
G01*
G75*
G04 Layer_Color=32896*
%ADD10R,1.0000X0.9500*%
%ADD11R,1.6002X1.2700*%
%ADD12R,2.2000X1.1000*%
%ADD13R,0.9500X1.0000*%
%ADD14R,0.6500X0.4000*%
%ADD15O,0.6000X1.9000*%
%ADD16R,2.2000X1.4000*%
%ADD17R,0.9000X1.4000*%
%ADD18R,1.0000X0.4000*%
%ADD19R,0.8000X0.8000*%
%ADD20R,0.4000X1.4000*%
%ADD21R,2.3000X1.9000*%
%ADD22R,1.8000X1.9000*%
%ADD23R,1.1500X1.4000*%
%ADD24R,0.6000X1.2000*%
%ADD25R,0.8000X0.6000*%
%ADD26R,0.6000X0.8000*%
%ADD27R,0.5000X0.6000*%
%ADD28R,1.6000X3.9000*%
%ADD29R,2.1000X5.8000*%
%ADD30R,1.0000X0.6000*%
G04:AMPARAMS|DCode=31|XSize=1.05mm|YSize=3.82mm|CornerRadius=0.0525mm|HoleSize=0mm|Usage=FLASHONLY|Rotation=180.000|XOffset=0mm|YOffset=0mm|HoleType=Round|Shape=RoundedRectangle|*
%AMROUNDEDRECTD31*
21,1,1.0500,3.7150,0,0,180.0*
21,1,0.9450,3.8200,0,0,180.0*
1,1,0.1050,-0.4725,1.8575*
1,1,0.1050,0.4725,1.8575*
1,1,0.1050,0.4725,-1.8575*
1,1,0.1050,-0.4725,-1.8575*
%
%ADD31ROUNDEDRECTD31*%
G04:AMPARAMS|DCode=32|XSize=7.48mm|YSize=8.55mm|CornerRadius=0.0374mm|HoleSize=0mm|Usage=FLASHONLY|Rotation=90.000|XOffset=0mm|YOffset=0mm|HoleType=Round|Shape=RoundedRectangle|*
%AMROUNDEDRECTD32*
21,1,7.4800,8.4752,0,0,90.0*
21,1,7.4052,8.5500,0,0,90.0*
1,1,0.0748,4.2376,3.7026*
1,1,0.0748,4.2376,-3.7026*
1,1,0.0748,-4.2376,-3.7026*
1,1,0.0748,-4.2376,3.7026*
%
%ADD32ROUNDEDRECTD32*%
G04:AMPARAMS|DCode=33|XSize=0.6mm|YSize=1mm|CornerRadius=0.15mm|HoleSize=0mm|Usage=FLASHONLY|Rotation=90.000|XOffset=0mm|YOffset=0mm|HoleType=Round|Shape=RoundedRectangle|*
%AMROUNDEDRECTD33*
21,1,0.6000,0.7000,0,0,90.0*
21,1,0.3000,1.0000,0,0,90.0*
1,1,0.3000,0.3500,0.1500*
1,1,0.3000,0.3500,-0.1500*
1,1,0.3000,-0.3500,-0.1500*
1,1,0.3000,-0.3500,0.1500*
%
%ADD33ROUNDEDRECTD33*%
%ADD34R,1.8500X1.3000*%
%ADD35R,1.3000X1.8500*%
%ADD36O,1.6500X0.3000*%
%ADD37O,0.3000X1.6500*%
%ADD38R,7.0000X7.0000*%
%ADD39C,0.2500*%
%ADD40C,0.5000*%
%ADD41C,0.8000*%
%ADD42C,0.3500*%
%ADD43C,1.2000*%
%ADD44C,0.2540*%
%ADD45C,0.2032*%
%ADD46C,0.4000*%
%ADD47C,0.6000*%
%ADD48C,1.0000*%
%ADD49C,0.7500*%
%ADD50C,0.7620*%
%ADD51C,1.1000*%
%ADD52C,1.0160*%
%ADD53R,1.5500X1.5500*%
%ADD54C,1.5500*%
%ADD55C,1.5000*%
%ADD56R,1.5000X1.5000*%
%ADD57C,0.7000*%
%ADD58R,0.7000X0.7000*%
%ADD59R,1.5000X1.5000*%
%ADD60C,2.0000*%
G04:AMPARAMS|DCode=61|XSize=1.55mm|YSize=1.55mm|CornerRadius=0.0465mm|HoleSize=0mm|Usage=FLASHONLY|Rotation=180.000|XOffset=0mm|YOffset=0mm|HoleType=Round|Shape=RoundedRectangle|*
%AMROUNDEDRECTD61*
21,1,1.5500,1.4570,0,0,180.0*
21,1,1.4570,1.5500,0,0,180.0*
1,1,0.0930,-0.7285,0.7285*
1,1,0.0930,0.7285,0.7285*
1,1,0.0930,0.7285,-0.7285*
1,1,0.0930,-0.7285,-0.7285*
%
%ADD61ROUNDEDRECTD61*%
%ADD62C,0.6000*%
%ADD63C,5.0000*%
%ADD64R,1.9000X1.3000*%
%ADD65R,2.8000X1.0000*%
%ADD66R,0.8000X1.0000*%
%ADD67R,1.2000X0.7000*%
%ADD68R,1.2000X1.0000*%
%ADD69R,0.6000X1.0000*%
G04:AMPARAMS|DCode=70|XSize=0.6mm|YSize=1mm|CornerRadius=0.051mm|HoleSize=0mm|Usage=FLASHONLY|Rotation=180.000|XOffset=0mm|YOffset=0mm|HoleType=Round|Shape=RoundedRectangle|*
%AMROUNDEDRECTD70*
21,1,0.6000,0.8980,0,0,180.0*
21,1,0.4980,1.0000,0,0,180.0*
1,1,0.1020,-0.2490,0.4490*
1,1,0.1020,0.2490,0.4490*
1,1,0.1020,0.2490,-0.4490*
1,1,0.1020,-0.2490,-0.4490*
%
%ADD70ROUNDEDRECTD70*%
G04:AMPARAMS|DCode=71|XSize=3.1mm|YSize=4mm|CornerRadius=0.0465mm|HoleSize=0mm|Usage=FLASHONLY|Rotation=180.000|XOffset=0mm|YOffset=0mm|HoleType=Round|Shape=RoundedRectangle|*
%AMROUNDEDRECTD71*
21,1,3.1000,3.9070,0,0,180.0*
21,1,3.0070,4.0000,0,0,180.0*
1,1,0.0930,-1.5035,1.9535*
1,1,0.0930,1.5035,1.9535*
1,1,0.0930,1.5035,-1.9535*
1,1,0.0930,-1.5035,-1.9535*
%
%ADD71ROUNDEDRECTD71*%
%ADD72R,2.1590X2.7430*%
%ADD73C,0.1000*%
%ADD74C,0.1524*%
%ADD75C,0.2000*%
%ADD76C,0.2000*%
%ADD77C,0.1778*%
%ADD78C,0.1016*%
%ADD79C,0.3556*%
%ADD80R,0.8000X0.3000*%
%ADD81R,0.5080X2.1844*%
%ADD82R,1.6000X0.5000*%
%ADD83R,0.8250X0.2000*%
%ADD84R,1.1524X1.1024*%
%ADD85R,1.7526X1.4224*%
%ADD86R,2.3524X1.2524*%
%ADD87R,1.1024X1.1524*%
%ADD88R,0.8024X0.5524*%
%ADD89O,0.7524X2.0524*%
%ADD90R,2.3524X1.5524*%
%ADD91R,1.0524X1.5524*%
%ADD92R,1.2032X0.6032*%
%ADD93R,0.9524X0.9524*%
%ADD94R,0.5524X1.5524*%
%ADD95R,2.4524X2.0524*%
%ADD96R,1.9524X2.0524*%
%ADD97R,1.3024X1.5524*%
%ADD98R,0.7524X1.3524*%
%ADD99R,0.9524X0.7524*%
%ADD100R,0.7524X0.9524*%
%ADD101R,0.6000X0.7000*%
%ADD102R,1.7524X4.0524*%
%ADD103R,2.2524X5.9524*%
%ADD104R,1.1524X0.7524*%
G04:AMPARAMS|DCode=105|XSize=1.2024mm|YSize=3.9724mm|CornerRadius=0.1287mm|HoleSize=0mm|Usage=FLASHONLY|Rotation=180.000|XOffset=0mm|YOffset=0mm|HoleType=Round|Shape=RoundedRectangle|*
%AMROUNDEDRECTD105*
21,1,1.2024,3.7150,0,0,180.0*
21,1,0.9450,3.9724,0,0,180.0*
1,1,0.2574,-0.4725,1.8575*
1,1,0.2574,0.4725,1.8575*
1,1,0.2574,0.4725,-1.8575*
1,1,0.2574,-0.4725,-1.8575*
%
%ADD105ROUNDEDRECTD105*%
G04:AMPARAMS|DCode=106|XSize=7.6324mm|YSize=8.7024mm|CornerRadius=0.1136mm|HoleSize=0mm|Usage=FLASHONLY|Rotation=90.000|XOffset=0mm|YOffset=0mm|HoleType=Round|Shape=RoundedRectangle|*
%AMROUNDEDRECTD106*
21,1,7.6324,8.4752,0,0,90.0*
21,1,7.4052,8.7024,0,0,90.0*
1,1,0.2272,4.2376,3.7026*
1,1,0.2272,4.2376,-3.7026*
1,1,0.2272,-4.2376,-3.7026*
1,1,0.2272,-4.2376,3.7026*
%
%ADD106ROUNDEDRECTD106*%
G04:AMPARAMS|DCode=107|XSize=0.7524mm|YSize=1.1524mm|CornerRadius=0.2262mm|HoleSize=0mm|Usage=FLASHONLY|Rotation=90.000|XOffset=0mm|YOffset=0mm|HoleType=Round|Shape=RoundedRectangle|*
%AMROUNDEDRECTD107*
21,1,0.7524,0.7000,0,0,90.0*
21,1,0.3000,1.1524,0,0,90.0*
1,1,0.4524,0.3500,0.1500*
1,1,0.4524,0.3500,-0.1500*
1,1,0.4524,-0.3500,-0.1500*
1,1,0.4524,-0.3500,0.1500*
%
%ADD107ROUNDEDRECTD107*%
%ADD108R,2.0024X1.4524*%
%ADD109R,1.4524X2.0024*%
%ADD110O,1.8024X0.4524*%
%ADD111O,0.4524X1.8024*%
%ADD112R,7.1524X7.1524*%
%ADD113R,1.7024X1.7024*%
%ADD114C,1.7024*%
%ADD115C,1.6524*%
%ADD116R,1.6524X1.6524*%
%ADD117C,0.8524*%
%ADD118R,0.8524X0.8524*%
%ADD119R,1.6524X1.6524*%
%ADD120C,2.7620*%
G04:AMPARAMS|DCode=121|XSize=1.7024mm|YSize=1.7024mm|CornerRadius=0.1227mm|HoleSize=0mm|Usage=FLASHONLY|Rotation=180.000|XOffset=0mm|YOffset=0mm|HoleType=Round|Shape=RoundedRectangle|*
%AMROUNDEDRECTD121*
21,1,1.7024,1.4570,0,0,180.0*
21,1,1.4570,1.7024,0,0,180.0*
1,1,0.2454,-0.7285,0.7285*
1,1,0.2454,0.7285,0.7285*
1,1,0.2454,0.7285,-0.7285*
1,1,0.2454,-0.7285,-0.7285*
%
%ADD121ROUNDEDRECTD121*%
%ADD122C,0.7524*%
%ADD123C,5.1524*%
%ADD124R,2.0524X1.4524*%
%ADD125R,2.9524X1.1524*%
%ADD126R,0.9524X1.1524*%
%ADD127R,1.3524X0.8524*%
%ADD128R,1.3524X1.1524*%
%ADD129R,0.7524X1.1524*%
G04:AMPARAMS|DCode=130|XSize=0.7524mm|YSize=1.1524mm|CornerRadius=0.1272mm|HoleSize=0mm|Usage=FLASHONLY|Rotation=180.000|XOffset=0mm|YOffset=0mm|HoleType=Round|Shape=RoundedRectangle|*
%AMROUNDEDRECTD130*
21,1,0.7524,0.8980,0,0,180.0*
21,1,0.4980,1.1524,0,0,180.0*
1,1,0.2544,-0.2490,0.4490*
1,1,0.2544,0.2490,0.4490*
1,1,0.2544,0.2490,-0.4490*
1,1,0.2544,-0.2490,-0.4490*
%
%ADD130ROUNDEDRECTD130*%
G04:AMPARAMS|DCode=131|XSize=3.2524mm|YSize=4.1524mm|CornerRadius=0.1227mm|HoleSize=0mm|Usage=FLASHONLY|Rotation=180.000|XOffset=0mm|YOffset=0mm|HoleType=Round|Shape=RoundedRectangle|*
%AMROUNDEDRECTD131*
21,1,3.2524,3.9070,0,0,180.0*
21,1,3.0070,4.1524,0,0,180.0*
1,1,0.2454,-1.5035,1.9535*
1,1,0.2454,1.5035,1.9535*
1,1,0.2454,1.5035,-1.9535*
1,1,0.2454,-1.5035,-1.9535*
%
%ADD131ROUNDEDRECTD131*%
%ADD132R,2.3114X2.8954*%
D44*
X1045854Y598032D02*
Y736532D01*
Y598032D02*
X1211154D01*
X1045854Y736532D02*
X1211154D01*
Y598032D02*
Y736532D01*
D73*
X816434Y615928D02*
G03*
X816434Y615928I-500J0D01*
G01*
X733154Y921032D02*
Y927030D01*
X730155D01*
X729155Y926030D01*
Y924031D01*
X730155Y923031D01*
X733154D01*
X731155D02*
X729155Y921032D01*
X723157Y927030D02*
X725157Y926030D01*
X727156Y924031D01*
Y922032D01*
X726156Y921032D01*
X724157D01*
X723157Y922032D01*
Y923031D01*
X724157Y924031D01*
X727156D01*
X721158Y926030D02*
X720158Y927030D01*
X718159D01*
X717159Y926030D01*
Y925031D01*
X718159Y924031D01*
X717159Y923031D01*
Y922032D01*
X718159Y921032D01*
X720158D01*
X721158Y922032D01*
Y923031D01*
X720158Y924031D01*
X721158Y925031D01*
Y926030D01*
X720158Y924031D02*
X718159D01*
X1022156Y749520D02*
X1028154Y745521D01*
X1022156D02*
X1028154Y749520D01*
Y739523D02*
Y743522D01*
X1024155Y739523D01*
X1023156D01*
X1022156Y740523D01*
Y742522D01*
X1023156Y743522D01*
X907907Y545030D02*
X911906D01*
Y542031D01*
X909907D01*
X911906D01*
Y539032D01*
X905908Y545030D02*
Y539032D01*
X902909D01*
X901909Y540032D01*
Y541031D01*
X902909Y542031D01*
X905908D01*
X902909D01*
X901909Y543031D01*
Y544030D01*
X902909Y545030D01*
X905908D01*
X895911Y539032D02*
X899910D01*
X895911Y543031D01*
Y544030D01*
X896911Y545030D01*
X898910D01*
X899910Y544030D01*
X871155Y545030D02*
X875154D01*
Y542031D01*
X873155D01*
X875154D01*
Y539032D01*
X869156Y545030D02*
Y539032D01*
X866157D01*
X865157Y540032D01*
Y541031D01*
X866157Y542031D01*
X869156D01*
X866157D01*
X865157Y543031D01*
Y544030D01*
X866157Y545030D01*
X869156D01*
X863158Y539032D02*
X861159D01*
X862158D01*
Y545030D01*
X863158Y544030D01*
X834064Y603711D02*
X835064Y604711D01*
X837063D01*
X838063Y603711D01*
Y599713D01*
X837063Y598713D01*
X835064D01*
X834064Y599713D01*
X828066Y604711D02*
X832065D01*
Y601712D01*
X830065Y602712D01*
X829066D01*
X828066Y601712D01*
Y599713D01*
X829066Y598713D01*
X831065D01*
X832065Y599713D01*
X826067D02*
X825067Y598713D01*
X823068D01*
X822068Y599713D01*
Y603711D01*
X823068Y604711D01*
X825067D01*
X826067Y603711D01*
Y602712D01*
X825067Y601712D01*
X822068D01*
X836049Y552139D02*
X837048Y551139D01*
Y549140D01*
X836049Y548140D01*
X832050D01*
X831050Y549140D01*
Y551139D01*
X832050Y552139D01*
X831050Y557137D02*
X837048D01*
X834050Y554138D01*
Y558137D01*
X836049Y560136D02*
X837048Y561136D01*
Y563135D01*
X836049Y564135D01*
X832050D01*
X831050Y563135D01*
Y561136D01*
X832050Y560136D01*
X836049D01*
X838154Y609032D02*
Y615030D01*
X835155D01*
X834155Y614030D01*
Y612031D01*
X835155Y611031D01*
X838154D01*
X836155D02*
X834155Y609032D01*
X828157D02*
X832156D01*
X828157Y613031D01*
Y614030D01*
X829157Y615030D01*
X831156D01*
X832156Y614030D01*
X822159Y615030D02*
X824158Y614030D01*
X826158Y612031D01*
Y610032D01*
X825158Y609032D01*
X823159D01*
X822159Y610032D01*
Y611031D01*
X823159Y612031D01*
X826158D01*
X763791Y923266D02*
X764791Y924266D01*
X766790D01*
X767790Y923266D01*
Y919267D01*
X766790Y918268D01*
X764791D01*
X763791Y919267D01*
X758793Y918268D02*
Y924266D01*
X761792Y921266D01*
X757793D01*
X751795Y918268D02*
X755794D01*
X751795Y922266D01*
Y923266D01*
X752795Y924266D01*
X754794D01*
X755794Y923266D01*
X832155Y628030D02*
X833155Y629030D01*
X835154D01*
X836154Y628030D01*
Y624032D01*
X835154Y623032D01*
X833155D01*
X832155Y624032D01*
X827157Y623032D02*
Y629030D01*
X830156Y626031D01*
X826157D01*
X824158Y623032D02*
X822159D01*
X823158D01*
Y629030D01*
X824158Y628030D01*
X838404Y587032D02*
Y593030D01*
X835405D01*
X834405Y592030D01*
Y590031D01*
X835405Y589031D01*
X838404D01*
X836405D02*
X834405Y587032D01*
X829407D02*
Y593030D01*
X832406Y590031D01*
X828407D01*
X826408Y593030D02*
X822409D01*
Y592030D01*
X826408Y588032D01*
Y587032D01*
X736154Y862032D02*
X742152D01*
Y865031D01*
X741152Y866031D01*
X739153D01*
X738153Y865031D01*
Y862032D01*
Y864031D02*
X736154Y866031D01*
X741152Y868030D02*
X742152Y869030D01*
Y871029D01*
X741152Y872029D01*
X740153D01*
X739153Y871029D01*
Y870029D01*
Y871029D01*
X738153Y872029D01*
X737154D01*
X736154Y871029D01*
Y869030D01*
X737154Y868030D01*
Y874028D02*
X736154Y875028D01*
Y877027D01*
X737154Y878027D01*
X741152D01*
X742152Y877027D01*
Y875028D01*
X741152Y874028D01*
X740153D01*
X739153Y875028D01*
Y878027D01*
X788152Y875032D02*
X783154D01*
X782154Y876032D01*
Y878031D01*
X783154Y879031D01*
X788152D01*
X782154Y885029D02*
Y881030D01*
X786153Y885029D01*
X787152D01*
X788152Y884029D01*
Y882030D01*
X787152Y881030D01*
X1156344Y575232D02*
X1162342D01*
Y578231D01*
X1161342Y579231D01*
X1159343D01*
X1158343Y578231D01*
Y575232D01*
Y577231D02*
X1156344Y579231D01*
X1161342Y581230D02*
X1162342Y582230D01*
Y584229D01*
X1161342Y585229D01*
X1160343D01*
X1159343Y584229D01*
Y583229D01*
Y584229D01*
X1158343Y585229D01*
X1157344D01*
X1156344Y584229D01*
Y582230D01*
X1157344Y581230D01*
X1156344Y590227D02*
X1162342D01*
X1159343Y587228D01*
Y591227D01*
X1119394Y575032D02*
X1125392D01*
Y578031D01*
X1124392Y579031D01*
X1122393D01*
X1121393Y578031D01*
Y575032D01*
Y577031D02*
X1119394Y579031D01*
X1124392Y581030D02*
X1125392Y582030D01*
Y584029D01*
X1124392Y585029D01*
X1123393D01*
X1122393Y584029D01*
Y583029D01*
Y584029D01*
X1121393Y585029D01*
X1120394D01*
X1119394Y584029D01*
Y582030D01*
X1120394Y581030D01*
X1124392Y587028D02*
X1125392Y588028D01*
Y590027D01*
X1124392Y591027D01*
X1123393D01*
X1122393Y590027D01*
Y589027D01*
Y590027D01*
X1121393Y591027D01*
X1120394D01*
X1119394Y590027D01*
Y588028D01*
X1120394Y587028D01*
X908862Y717982D02*
X909862Y716982D01*
Y714983D01*
X908862Y713983D01*
X904864D01*
X903864Y714983D01*
Y716982D01*
X904864Y717982D01*
X903864Y723980D02*
Y719981D01*
X907863Y723980D01*
X908862D01*
X909862Y722980D01*
Y720981D01*
X908862Y719981D01*
Y725979D02*
X909862Y726979D01*
Y728978D01*
X908862Y729978D01*
X907863D01*
X906863Y728978D01*
X905863Y729978D01*
X904864D01*
X903864Y728978D01*
Y726979D01*
X904864Y725979D01*
X905863D01*
X906863Y726979D01*
X907863Y725979D01*
X908862D01*
X906863Y726979D02*
Y728978D01*
X986155Y646030D02*
X987155Y647030D01*
X989154D01*
X990154Y646030D01*
Y642032D01*
X989154Y641032D01*
X987155D01*
X986155Y642032D01*
X980157Y641032D02*
X984156D01*
X980157Y645031D01*
Y646030D01*
X981157Y647030D01*
X983156D01*
X984156Y646030D01*
X978158Y647030D02*
X974159D01*
Y646030D01*
X978158Y642032D01*
Y641032D01*
X920152Y717781D02*
X921152Y716781D01*
Y714782D01*
X920152Y713782D01*
X916154D01*
X915154Y714782D01*
Y716781D01*
X916154Y717781D01*
X915154Y723779D02*
Y719780D01*
X919153Y723779D01*
X920152D01*
X921152Y722779D01*
Y720780D01*
X920152Y719780D01*
X921152Y729777D02*
X920152Y727777D01*
X918153Y725778D01*
X916154D01*
X915154Y726778D01*
Y728777D01*
X916154Y729777D01*
X917153D01*
X918153Y728777D01*
Y725778D01*
X890152Y571031D02*
X891152Y570031D01*
Y568032D01*
X890152Y567032D01*
X886154D01*
X885154Y568032D01*
Y570031D01*
X886154Y571031D01*
X885154Y577029D02*
Y573030D01*
X889153Y577029D01*
X890152D01*
X891152Y576029D01*
Y574030D01*
X890152Y573030D01*
X891152Y583027D02*
Y579028D01*
X888153D01*
X889153Y581027D01*
Y582027D01*
X888153Y583027D01*
X886154D01*
X885154Y582027D01*
Y580028D01*
X886154Y579028D01*
X922152Y576031D02*
X923152Y575031D01*
Y573032D01*
X922152Y572032D01*
X918154D01*
X917154Y573032D01*
Y575031D01*
X918154Y576031D01*
Y578030D02*
X917154Y579030D01*
Y581029D01*
X918154Y582029D01*
X922152D01*
X923152Y581029D01*
Y579030D01*
X922152Y578030D01*
X921153D01*
X920153Y579030D01*
Y582029D01*
X833765Y641355D02*
X834765Y642355D01*
X836764D01*
X837764Y641355D01*
Y637356D01*
X836764Y636356D01*
X834765D01*
X833765Y637356D01*
X831766Y641355D02*
X830766Y642355D01*
X828767D01*
X827767Y641355D01*
Y640355D01*
X828767Y639355D01*
X827767Y638356D01*
Y637356D01*
X828767Y636356D01*
X830766D01*
X831766Y637356D01*
Y638356D01*
X830766Y639355D01*
X831766Y640355D01*
Y641355D01*
X830766Y639355D02*
X828767D01*
X833765Y653355D02*
X834765Y654354D01*
X836764D01*
X837764Y653355D01*
Y649356D01*
X836764Y648356D01*
X834765D01*
X833765Y649356D01*
X831766Y654354D02*
X827767D01*
Y653355D01*
X831766Y649356D01*
Y648356D01*
X778770Y626338D02*
Y620339D01*
X775771D01*
X774771Y621339D01*
Y625338D01*
X775771Y626338D01*
X778770D01*
X768773Y620339D02*
X772772D01*
X768773Y624338D01*
Y625338D01*
X769773Y626338D01*
X771772D01*
X772772Y625338D01*
X905904Y573031D02*
X906904Y572031D01*
Y570032D01*
X905904Y569032D01*
X901906D01*
X900906Y570032D01*
Y572031D01*
X901906Y573031D01*
X905904Y575030D02*
X906904Y576030D01*
Y578029D01*
X905904Y579029D01*
X904905D01*
X903905Y578029D01*
Y577029D01*
Y578029D01*
X902905Y579029D01*
X901906D01*
X900906Y578029D01*
Y576030D01*
X901906Y575030D01*
X900906Y581028D02*
Y583027D01*
Y582028D01*
X906904D01*
X905904Y581028D01*
X833765Y665355D02*
X834765Y666355D01*
X836764D01*
X837764Y665355D01*
Y661356D01*
X836764Y660356D01*
X834765D01*
X833765Y661356D01*
X831766Y665355D02*
X830766Y666355D01*
X828767D01*
X827767Y665355D01*
Y664355D01*
X828767Y663355D01*
X829767D01*
X828767D01*
X827767Y662356D01*
Y661356D01*
X828767Y660356D01*
X830766D01*
X831766Y661356D01*
X825768Y665355D02*
X824768Y666355D01*
X822769D01*
X821769Y665355D01*
Y661356D01*
X822769Y660356D01*
X824768D01*
X825768Y661356D01*
Y665355D01*
X897152Y717031D02*
X898152Y716031D01*
Y714032D01*
X897152Y713032D01*
X893154D01*
X892154Y714032D01*
Y716031D01*
X893154Y717031D01*
X892154Y723029D02*
Y719030D01*
X896153Y723029D01*
X897152D01*
X898152Y722029D01*
Y720030D01*
X897152Y719030D01*
X893154Y725028D02*
X892154Y726028D01*
Y728027D01*
X893154Y729027D01*
X897152D01*
X898152Y728027D01*
Y726028D01*
X897152Y725028D01*
X896153D01*
X895153Y726028D01*
Y729027D01*
X986405Y630030D02*
X987405Y631030D01*
X989404D01*
X990404Y630030D01*
Y626032D01*
X989404Y625032D01*
X987405D01*
X986405Y626032D01*
X980407Y625032D02*
X984406D01*
X980407Y629031D01*
Y630030D01*
X981407Y631030D01*
X983406D01*
X984406Y630030D01*
X975409Y625032D02*
Y631030D01*
X978408Y628031D01*
X974409D01*
X981155Y663030D02*
X982155Y664030D01*
X984154D01*
X985154Y663030D01*
Y659032D01*
X984154Y658032D01*
X982155D01*
X981155Y659032D01*
X975157Y664030D02*
X977157Y663030D01*
X979156Y661031D01*
Y659032D01*
X978156Y658032D01*
X976157D01*
X975157Y659032D01*
Y660031D01*
X976157Y661031D01*
X979156D01*
X1000919Y673032D02*
Y679030D01*
X997919D01*
X996920Y678030D01*
Y676031D01*
X997919Y675031D01*
X1000919D01*
X998919D02*
X996920Y673032D01*
X991921D02*
Y679030D01*
X994921Y676031D01*
X990922D01*
X772152Y551798D02*
X773152Y550798D01*
Y548799D01*
X772152Y547799D01*
X768154D01*
X767154Y548799D01*
Y550798D01*
X768154Y551798D01*
X772152Y553797D02*
X773152Y554797D01*
Y556796D01*
X772152Y557796D01*
X771153D01*
X770153Y556796D01*
Y555796D01*
Y556796D01*
X769153Y557796D01*
X768154D01*
X767154Y556796D01*
Y554797D01*
X768154Y553797D01*
Y559795D02*
X767154Y560795D01*
Y562794D01*
X768154Y563794D01*
X772152D01*
X773152Y562794D01*
Y560795D01*
X772152Y559795D01*
X771153D01*
X770153Y560795D01*
Y563794D01*
X937971Y571031D02*
X938971Y570031D01*
Y568032D01*
X937971Y567032D01*
X933973D01*
X932973Y568032D01*
Y570031D01*
X933973Y571031D01*
X932973Y577029D02*
Y573030D01*
X936972Y577029D01*
X937971D01*
X938971Y576029D01*
Y574030D01*
X937971Y573030D01*
Y579028D02*
X938971Y580028D01*
Y582027D01*
X937971Y583027D01*
X933973D01*
X932973Y582027D01*
Y580028D01*
X933973Y579028D01*
X937971D01*
X953653Y571031D02*
X954653Y570031D01*
Y568032D01*
X953653Y567032D01*
X949654D01*
X948654Y568032D01*
Y570031D01*
X949654Y571031D01*
X948654Y577029D02*
Y573030D01*
X952653Y577029D01*
X953653D01*
X954653Y576029D01*
Y574030D01*
X953653Y573030D01*
X948654Y583027D02*
Y579028D01*
X952653Y583027D01*
X953653D01*
X954653Y582027D01*
Y580028D01*
X953653Y579028D01*
X802536Y552139D02*
X803536Y551139D01*
Y549140D01*
X802536Y548140D01*
X798538D01*
X797538Y549140D01*
Y551139D01*
X798538Y552139D01*
X802536Y554138D02*
X803536Y555138D01*
Y557137D01*
X802536Y558137D01*
X801536D01*
X800537Y557137D01*
Y556138D01*
Y557137D01*
X799537Y558137D01*
X798538D01*
X797538Y557137D01*
Y555138D01*
X798538Y554138D01*
X802536Y560136D02*
X803536Y561136D01*
Y563135D01*
X802536Y564135D01*
X801536D01*
X800537Y563135D01*
X799537Y564135D01*
X798538D01*
X797538Y563135D01*
Y561136D01*
X798538Y560136D01*
X799537D01*
X800537Y561136D01*
X801536Y560136D01*
X802536D01*
X800537Y561136D02*
Y563135D01*
D74*
X903154Y1027032D02*
X909502D01*
Y1030206D01*
X908444Y1031264D01*
X906328D01*
X905270Y1030206D01*
Y1027032D01*
Y1029148D02*
X903154Y1031264D01*
Y1036554D02*
X909502D01*
X906328Y1033380D01*
Y1037612D01*
X903154Y1043960D02*
Y1039728D01*
X907386Y1043960D01*
X908444D01*
X909502Y1042902D01*
Y1040786D01*
X908444Y1039728D01*
X1045154Y1029911D02*
X1051502D01*
Y1033084D01*
X1050444Y1034143D01*
X1048328D01*
X1047270Y1033084D01*
Y1029911D01*
Y1032027D02*
X1045154Y1034143D01*
Y1039432D02*
X1051502D01*
X1048328Y1036258D01*
Y1040490D01*
X1045154Y1042606D02*
Y1044722D01*
Y1043664D01*
X1051502D01*
X1050444Y1042606D01*
X1191154Y1026140D02*
X1197502D01*
Y1029314D01*
X1196444Y1030372D01*
X1194328D01*
X1193270Y1029314D01*
Y1026140D01*
Y1028256D02*
X1191154Y1030372D01*
Y1035662D02*
X1197502D01*
X1194328Y1032488D01*
Y1036720D01*
X1196444Y1038836D02*
X1197502Y1039894D01*
Y1042010D01*
X1196444Y1043068D01*
X1192212D01*
X1191154Y1042010D01*
Y1039894D01*
X1192212Y1038836D01*
X1196444D01*
X903154Y1116523D02*
X909502D01*
Y1119697D01*
X908444Y1120755D01*
X906328D01*
X905270Y1119697D01*
Y1116523D01*
Y1118639D02*
X903154Y1120755D01*
X908444Y1122871D02*
X909502Y1123929D01*
Y1126045D01*
X908444Y1127103D01*
X907386D01*
X906328Y1126045D01*
Y1124987D01*
Y1126045D01*
X905270Y1127103D01*
X904212D01*
X903154Y1126045D01*
Y1123929D01*
X904212Y1122871D01*
X908444Y1129219D02*
X909502Y1130277D01*
Y1132393D01*
X908444Y1133451D01*
X907386D01*
X906328Y1132393D01*
X905270Y1133451D01*
X904212D01*
X903154Y1132393D01*
Y1130277D01*
X904212Y1129219D01*
X905270D01*
X906328Y1130277D01*
X907386Y1129219D01*
X908444D01*
X906328Y1130277D02*
Y1132393D01*
X1045154Y1116432D02*
X1051502D01*
Y1119606D01*
X1050444Y1120664D01*
X1048328D01*
X1047270Y1119606D01*
Y1116432D01*
Y1118548D02*
X1045154Y1120664D01*
X1050444Y1122780D02*
X1051502Y1123838D01*
Y1125954D01*
X1050444Y1127012D01*
X1049386D01*
X1048328Y1125954D01*
Y1124896D01*
Y1125954D01*
X1047270Y1127012D01*
X1046212D01*
X1045154Y1125954D01*
Y1123838D01*
X1046212Y1122780D01*
X1051502Y1129128D02*
Y1133360D01*
X1050444D01*
X1046212Y1129128D01*
X1045154D01*
X1191154Y1117433D02*
X1197502D01*
Y1120607D01*
X1196444Y1121665D01*
X1194328D01*
X1193270Y1120607D01*
Y1117433D01*
Y1119549D02*
X1191154Y1121665D01*
X1196444Y1123781D02*
X1197502Y1124839D01*
Y1126955D01*
X1196444Y1128013D01*
X1195386D01*
X1194328Y1126955D01*
Y1125897D01*
Y1126955D01*
X1193270Y1128013D01*
X1192212D01*
X1191154Y1126955D01*
Y1124839D01*
X1192212Y1123781D01*
X1197502Y1134361D02*
X1196444Y1132245D01*
X1194328Y1130129D01*
X1192212D01*
X1191154Y1131187D01*
Y1133303D01*
X1192212Y1134361D01*
X1193270D01*
X1194328Y1133303D01*
Y1130129D01*
X749154Y948032D02*
X755502D01*
Y951206D01*
X754444Y952264D01*
X752328D01*
X751270Y951206D01*
Y948032D01*
Y950148D02*
X749154Y952264D01*
Y958612D02*
Y954380D01*
X753386Y958612D01*
X754444D01*
X755502Y957554D01*
Y955438D01*
X754444Y954380D01*
X755502Y964960D02*
Y960728D01*
X752328D01*
X753386Y962844D01*
Y963902D01*
X752328Y964960D01*
X750212D01*
X749154Y963902D01*
Y961786D01*
X750212Y960728D01*
X681938Y894321D02*
X682996Y895379D01*
X685112D01*
X686170Y894321D01*
Y890089D01*
X685112Y889031D01*
X682996D01*
X681938Y890089D01*
X675590Y889031D02*
X679822D01*
X675590Y893263D01*
Y894321D01*
X676648Y895379D01*
X678764D01*
X679822Y894321D01*
X673474Y889031D02*
X671358D01*
X672416D01*
Y895379D01*
X673474Y894321D01*
X682171Y846321D02*
X683229Y847379D01*
X685345D01*
X686403Y846321D01*
Y842089D01*
X685345Y841031D01*
X683229D01*
X682171Y842089D01*
X680055Y841031D02*
X677939D01*
X678997D01*
Y847379D01*
X680055Y846321D01*
X674765Y842089D02*
X673707Y841031D01*
X671591D01*
X670533Y842089D01*
Y846321D01*
X671591Y847379D01*
X673707D01*
X674765Y846321D01*
Y845263D01*
X673707Y844205D01*
X670533D01*
X1173819Y1177322D02*
X1174877Y1178380D01*
X1176993D01*
X1178051Y1177322D01*
Y1173090D01*
X1176993Y1172032D01*
X1174877D01*
X1173819Y1173090D01*
X1171703Y1172032D02*
X1169587D01*
X1170645D01*
Y1178380D01*
X1171703Y1177322D01*
X1166413D02*
X1165355Y1178380D01*
X1163239D01*
X1162181Y1177322D01*
Y1173090D01*
X1163239Y1172032D01*
X1165355D01*
X1166413Y1173090D01*
Y1177322D01*
X887969Y1178322D02*
X889027Y1179380D01*
X891143D01*
X892201Y1178322D01*
Y1174090D01*
X891143Y1173032D01*
X889027D01*
X887969Y1174090D01*
X885853Y1173032D02*
X883737D01*
X884795D01*
Y1179380D01*
X885853Y1178322D01*
X876331Y1173032D02*
X880563D01*
X876331Y1177264D01*
Y1178322D01*
X877389Y1179380D01*
X879505D01*
X880563Y1178322D01*
X1031523Y1178322D02*
X1032580Y1179380D01*
X1034697D01*
X1035754Y1178322D01*
Y1174090D01*
X1034697Y1173032D01*
X1032580D01*
X1031523Y1174090D01*
X1029407Y1173032D02*
X1027291D01*
X1028349D01*
Y1179380D01*
X1029407Y1178322D01*
X1024117Y1173032D02*
X1022001D01*
X1023059D01*
Y1179380D01*
X1024117Y1178322D01*
X672542Y1187102D02*
X673600Y1188160D01*
X675716D01*
X676774Y1187102D01*
Y1182870D01*
X675716Y1181812D01*
X673600D01*
X672542Y1182870D01*
X667252Y1181812D02*
Y1188160D01*
X670426Y1184986D01*
X666194D01*
X750518Y988032D02*
X756866D01*
Y991206D01*
X755808Y992264D01*
X753692D01*
X752634Y991206D01*
Y988032D01*
Y990148D02*
X750518Y992264D01*
Y998612D02*
Y994380D01*
X754750Y998612D01*
X755808D01*
X756866Y997554D01*
Y995438D01*
X755808Y994380D01*
X750518Y1003902D02*
X756866D01*
X753692Y1000728D01*
Y1004960D01*
X646154Y918032D02*
Y924380D01*
X642980D01*
X641922Y923322D01*
Y921206D01*
X642980Y920148D01*
X646154D01*
X644038D02*
X641922Y918032D01*
X635574D02*
X639806D01*
X635574Y922264D01*
Y923322D01*
X636632Y924380D01*
X638748D01*
X639806Y923322D01*
X633458Y924380D02*
X629226D01*
Y923322D01*
X633458Y919090D01*
Y918032D01*
X679154D02*
Y924380D01*
X675980D01*
X674922Y923322D01*
Y921206D01*
X675980Y920148D01*
X679154D01*
X677038D02*
X674922Y918032D01*
X668574D02*
X672806D01*
X668574Y922264D01*
Y923322D01*
X669632Y924380D01*
X671748D01*
X672806Y923322D01*
X662226Y918032D02*
X666458D01*
X662226Y922264D01*
Y923322D01*
X663284Y924380D01*
X665400D01*
X666458Y923322D01*
X672154Y1267380D02*
Y1261032D01*
X668980D01*
X667922Y1262090D01*
Y1266322D01*
X668980Y1267380D01*
X672154D01*
X665806Y1261032D02*
X663690D01*
X664748D01*
Y1267380D01*
X665806Y1266322D01*
X667986Y1144800D02*
X669044Y1145858D01*
X671160D01*
X672218Y1144800D01*
Y1140568D01*
X671160Y1139510D01*
X669044D01*
X667986Y1140568D01*
X665870Y1144800D02*
X664812Y1145858D01*
X662696D01*
X661638Y1144800D01*
Y1143742D01*
X662696Y1142684D01*
X663754D01*
X662696D01*
X661638Y1141626D01*
Y1140568D01*
X662696Y1139510D01*
X664812D01*
X665870Y1140568D01*
X636648Y865539D02*
Y860249D01*
X635590Y859191D01*
X633474D01*
X632416Y860249D01*
Y865539D01*
X630300D02*
X626068D01*
Y864481D01*
X630300Y860249D01*
Y859191D01*
D75*
X664653Y863031D02*
G03*
X664653Y859031I0J-2000D01*
G01*
Y856531D02*
Y859031D01*
Y863031D02*
Y865531D01*
X641653Y856531D02*
X664653D01*
X641653D02*
Y865531D01*
X664653D01*
X745461Y871782D02*
Y876782D01*
Y871782D02*
X753460D01*
X775461D02*
Y876782D01*
X767460Y871782D02*
X775461D01*
X694654Y975032D02*
X701654D01*
X694654Y1011032D02*
X701654D01*
X694654Y931032D02*
X701654D01*
X694654Y967032D02*
X701654D01*
X789654Y629032D02*
X806654D01*
X789654Y617032D02*
X806654D01*
X751825Y707047D02*
Y720376D01*
X755157Y723708D01*
X761822D01*
X765154Y720376D01*
Y707047D01*
X761822Y703715D01*
X755157D01*
X758490Y710379D02*
X751825Y703715D01*
X755157D02*
X751825Y707047D01*
X745160Y723708D02*
Y707047D01*
X741828Y703715D01*
X735164D01*
X731831Y707047D01*
Y723708D01*
X725167Y703715D02*
Y717044D01*
X718502Y723708D01*
X711838Y717044D01*
Y703715D01*
Y713712D01*
X725167D01*
X705173Y723708D02*
X691844D01*
X698509D01*
Y703715D01*
X671851Y720376D02*
X675183Y723708D01*
X681848D01*
X685180Y720376D01*
Y717044D01*
X681848Y713712D01*
X675183D01*
X671851Y710379D01*
Y707047D01*
X675183Y703715D01*
X681848D01*
X685180Y707047D01*
X651857Y720376D02*
X655189Y723708D01*
X661854D01*
X665186Y720376D01*
Y707047D01*
X661854Y703715D01*
X655189D01*
X651857Y707047D01*
X645193Y723708D02*
Y703715D01*
Y713712D01*
X631864D01*
Y723708D01*
Y703715D01*
X625199Y710379D02*
Y727041D01*
Y707047D02*
Y703715D01*
D76*
X668153Y855531D02*
D03*
D77*
X1127468Y566796D02*
Y573396D01*
Y566796D02*
X1141303D01*
Y573396D01*
Y590668D02*
Y597267D01*
X1127468D02*
X1141303D01*
X1127468Y590668D02*
Y597267D01*
X1139818Y566796D02*
Y573396D01*
Y566796D02*
X1153653D01*
Y573396D01*
Y590668D02*
Y597267D01*
X1139818D02*
X1153653D01*
X1139818Y590668D02*
Y597267D01*
X793228Y538668D02*
Y545267D01*
X807063D01*
Y538668D02*
Y545267D01*
Y514796D02*
Y521396D01*
X793228Y514796D02*
X807063D01*
X793228D02*
Y521396D01*
X762228Y514796D02*
Y521396D01*
Y514796D02*
X776063D01*
Y521396D01*
Y538668D02*
Y545267D01*
X762228D02*
X776063D01*
X762228Y538668D02*
Y545267D01*
X826228Y514796D02*
Y521396D01*
Y514796D02*
X840063D01*
Y521396D01*
Y538668D02*
Y545267D01*
X826228D02*
X840063D01*
X826228Y538668D02*
Y545267D01*
X945228Y609668D02*
Y616268D01*
X959063D01*
Y609668D02*
Y616268D01*
Y585797D02*
Y592396D01*
X945228Y585797D02*
X959063D01*
X945228D02*
Y592396D01*
X929228Y609668D02*
Y616268D01*
X943063D01*
Y609668D02*
Y616268D01*
Y585797D02*
Y592396D01*
X929228Y585797D02*
X943063D01*
X929228D02*
Y592396D01*
X896228Y585797D02*
Y592396D01*
Y585797D02*
X910063D01*
Y592396D01*
Y609668D02*
Y616268D01*
X896228D02*
X910063D01*
X896228Y609668D02*
Y616268D01*
X912228Y585797D02*
Y592396D01*
Y585797D02*
X926063D01*
Y592396D01*
Y609668D02*
Y616268D01*
X912228D02*
X926063D01*
X912228Y609668D02*
Y616268D01*
X881228Y585797D02*
Y592396D01*
Y585797D02*
X895063D01*
Y592396D01*
Y609668D02*
Y616268D01*
X881228D02*
X895063D01*
X881228Y609668D02*
Y616268D01*
X877790Y548106D02*
X884389D01*
Y561941D01*
X877790D02*
X884389D01*
X853919D02*
X860518D01*
X853919Y548106D02*
Y561941D01*
Y548106D02*
X860518D01*
X888919Y561958D02*
X895518D01*
X888919Y548123D02*
Y561958D01*
Y548123D02*
X895518D01*
X912790D02*
X919389D01*
Y561958D01*
X912790D02*
X919389D01*
X901080Y700668D02*
Y707268D01*
X887245D02*
X901080D01*
X887245Y700668D02*
Y707268D01*
Y676796D02*
Y683396D01*
Y676796D02*
X901080D01*
Y683396D01*
X925080Y700668D02*
Y707268D01*
X911245D02*
X925080D01*
X911245Y700668D02*
Y707268D01*
Y676796D02*
Y683396D01*
Y676796D02*
X925080D01*
Y683396D01*
X913080Y700668D02*
Y707268D01*
X899245D02*
X913080D01*
X899245Y700668D02*
Y707268D01*
Y676796D02*
Y683396D01*
Y676796D02*
X913080D01*
Y683396D01*
X679789Y900105D02*
X686388D01*
Y913939D01*
X679789D02*
X686388D01*
X655918D02*
X662517D01*
X655918Y900105D02*
Y913939D01*
Y900105D02*
X662517D01*
X621917Y913956D02*
X628517D01*
X621917Y900122D02*
Y913956D01*
Y900122D02*
X628517D01*
X645789D02*
X652388D01*
Y913956D01*
X645789D02*
X652388D01*
X686078Y874667D02*
Y881266D01*
X672244D02*
X686078D01*
X672244Y874667D02*
Y881266D01*
Y850795D02*
Y857395D01*
Y850795D02*
X686078D01*
Y857395D01*
X637917Y898956D02*
X644517D01*
X637917Y885122D02*
Y898956D01*
Y885122D02*
X644517D01*
X661789D02*
X668388D01*
Y898956D01*
X661789D02*
X668388D01*
X732080Y911668D02*
Y918268D01*
X718245D02*
X732080D01*
X718245Y911668D02*
Y918268D01*
Y887796D02*
Y894396D01*
Y887796D02*
X732080D01*
Y894396D01*
X644154Y1112932D02*
X653154D01*
X644154D02*
Y1137132D01*
X653154D01*
X683154D02*
X692154D01*
Y1112932D02*
Y1137132D01*
X683154Y1112932D02*
X692154D01*
X913080Y1074668D02*
Y1081267D01*
X899245D02*
X913080D01*
X899245Y1074668D02*
Y1081267D01*
Y1050797D02*
Y1057396D01*
Y1050797D02*
X913080D01*
Y1057396D01*
X1055080Y1074668D02*
Y1081267D01*
X1041245D02*
X1055080D01*
X1041245Y1074668D02*
Y1081267D01*
Y1050797D02*
Y1057396D01*
Y1050797D02*
X1055080D01*
Y1057396D01*
X1201080Y1074668D02*
Y1081267D01*
X1187245D02*
X1201080D01*
X1187245Y1074668D02*
Y1081267D01*
Y1050797D02*
Y1057396D01*
Y1050797D02*
X1201080D01*
Y1057396D01*
X732080Y878668D02*
Y885267D01*
X718245D02*
X732080D01*
X718245Y878668D02*
Y885267D01*
Y854797D02*
Y861396D01*
Y854797D02*
X732080D01*
Y861396D01*
X913080Y1106668D02*
Y1113268D01*
X899245D02*
X913080D01*
X899245Y1106668D02*
Y1113268D01*
Y1082796D02*
Y1089396D01*
Y1082796D02*
X913080D01*
Y1089396D01*
X1055080Y1106668D02*
Y1113268D01*
X1041245D02*
X1055080D01*
X1041245Y1106668D02*
Y1113268D01*
Y1082796D02*
Y1089396D01*
Y1082796D02*
X1055080D01*
Y1089396D01*
X1201080Y1106668D02*
Y1113268D01*
X1187245D02*
X1201080D01*
X1187245Y1106668D02*
Y1113268D01*
Y1082796D02*
Y1089396D01*
Y1082796D02*
X1201080D01*
Y1089396D01*
X767790Y898913D02*
X774389D01*
Y912747D01*
X767790D02*
X774389D01*
X743919D02*
X750518D01*
X743919Y898913D02*
Y912747D01*
Y898913D02*
X750518D01*
X637404Y1278093D02*
X700904D01*
X637404Y1317971D02*
X700904D01*
X684154Y1151932D02*
X693154D01*
Y1176132D01*
X684154D02*
X693154D01*
X645154D02*
X654154D01*
X645154Y1151932D02*
Y1176132D01*
Y1151932D02*
X654154D01*
X840919Y669958D02*
X847518D01*
X840919Y656123D02*
Y669958D01*
Y656123D02*
X847518D01*
X864790D02*
X871389D01*
Y669958D01*
X864790D02*
X871389D01*
X840919Y657958D02*
X847518D01*
X840919Y644123D02*
Y657958D01*
Y644123D02*
X847518D01*
X864790D02*
X871389D01*
Y657958D01*
X864790D02*
X871389D01*
X840919Y645958D02*
X847518D01*
X840919Y632123D02*
Y645958D01*
Y632123D02*
X847518D01*
X864790D02*
X871389D01*
Y645958D01*
X864790D02*
X871389D01*
X964790Y621106D02*
X971389D01*
Y634941D01*
X964790D02*
X971389D01*
X940919D02*
X947518D01*
X940919Y621106D02*
Y634941D01*
Y621106D02*
X947518D01*
X964790Y637106D02*
X971389D01*
Y650941D01*
X964790D02*
X971389D01*
X940919D02*
X947518D01*
X940919Y637106D02*
Y650941D01*
Y637106D02*
X947518D01*
X940919Y666957D02*
X947518D01*
X940919Y653123D02*
Y666957D01*
Y653123D02*
X947518D01*
X964790D02*
X971389D01*
Y666957D01*
X964790D02*
X971389D01*
X957918Y682958D02*
X964518D01*
X957918Y669123D02*
Y682958D01*
Y669123D02*
X964518D01*
X981790D02*
X988390D01*
Y682958D01*
X981790D02*
X988390D01*
X1181254Y1222032D02*
Y1231032D01*
X1157054D02*
X1181254D01*
X1157054Y1222032D02*
Y1231032D01*
Y1183032D02*
Y1192032D01*
Y1183032D02*
X1181254D01*
Y1192032D01*
X1040254Y1222032D02*
Y1231032D01*
X1016054D02*
X1040254D01*
X1016054Y1222032D02*
Y1231032D01*
Y1183032D02*
Y1192032D01*
Y1183032D02*
X1040254D01*
Y1192032D01*
X896254Y1222032D02*
Y1231032D01*
X872054D02*
X896254D01*
X872054Y1222032D02*
Y1231032D01*
Y1183032D02*
Y1192032D01*
Y1183032D02*
X896254D01*
Y1192032D01*
X864790Y593787D02*
X871389D01*
Y607622D01*
X864790D02*
X871389D01*
X840919D02*
X847518D01*
X840919Y593787D02*
Y607622D01*
Y593787D02*
X847518D01*
X840919Y595958D02*
X847518D01*
X840919Y582123D02*
Y595958D01*
Y582123D02*
X847518D01*
X864790D02*
X871389D01*
Y595958D01*
X864790D02*
X871389D01*
X840919Y618958D02*
X847518D01*
X840919Y605123D02*
Y618958D01*
Y605123D02*
X847518D01*
X864790D02*
X871389D01*
Y618958D01*
X864790D02*
X871389D01*
X864790Y620106D02*
X871389D01*
Y633941D01*
X864790D02*
X871389D01*
X840919D02*
X847518D01*
X840919Y620106D02*
Y633941D01*
Y620106D02*
X847518D01*
M02*
