%FSLAX44Y44*%
%MOMM*%
G71*
G01*
G75*
G04 Layer_Physical_Order=1*
G04 Layer_Color=255*
%ADD10R,1.0000X0.9500*%
%ADD11R,1.6002X1.2700*%
%ADD12R,2.2000X1.1000*%
%ADD13R,0.9500X1.0000*%
%ADD14R,0.6500X0.4000*%
%ADD15O,0.6000X1.9000*%
%ADD16R,2.2000X1.4000*%
%ADD17R,0.9000X1.4000*%
%ADD18R,1.0000X0.4000*%
%ADD19R,0.8000X0.8000*%
%ADD20R,0.4000X1.4000*%
%ADD21R,2.3000X1.9000*%
%ADD22R,1.8000X1.9000*%
%ADD23R,1.1500X1.4000*%
%ADD24R,0.6000X1.2000*%
%ADD25R,0.8000X0.6000*%
%ADD26R,0.6000X0.8000*%
%ADD27R,0.5000X0.6000*%
%ADD28R,1.6000X3.9000*%
%ADD29R,2.1000X5.8000*%
%ADD30R,1.0000X0.6000*%
G04:AMPARAMS|DCode=31|XSize=1.05mm|YSize=3.82mm|CornerRadius=0.0525mm|HoleSize=0mm|Usage=FLASHONLY|Rotation=180.000|XOffset=0mm|YOffset=0mm|HoleType=Round|Shape=RoundedRectangle|*
%AMROUNDEDRECTD31*
21,1,1.0500,3.7150,0,0,180.0*
21,1,0.9450,3.8200,0,0,180.0*
1,1,0.1050,-0.4725,1.8575*
1,1,0.1050,0.4725,1.8575*
1,1,0.1050,0.4725,-1.8575*
1,1,0.1050,-0.4725,-1.8575*
%
%ADD31ROUNDEDRECTD31*%
G04:AMPARAMS|DCode=32|XSize=7.48mm|YSize=8.55mm|CornerRadius=0.0374mm|HoleSize=0mm|Usage=FLASHONLY|Rotation=90.000|XOffset=0mm|YOffset=0mm|HoleType=Round|Shape=RoundedRectangle|*
%AMROUNDEDRECTD32*
21,1,7.4800,8.4752,0,0,90.0*
21,1,7.4052,8.5500,0,0,90.0*
1,1,0.0748,4.2376,3.7026*
1,1,0.0748,4.2376,-3.7026*
1,1,0.0748,-4.2376,-3.7026*
1,1,0.0748,-4.2376,3.7026*
%
%ADD32ROUNDEDRECTD32*%
G04:AMPARAMS|DCode=33|XSize=0.6mm|YSize=1mm|CornerRadius=0.15mm|HoleSize=0mm|Usage=FLASHONLY|Rotation=90.000|XOffset=0mm|YOffset=0mm|HoleType=Round|Shape=RoundedRectangle|*
%AMROUNDEDRECTD33*
21,1,0.6000,0.7000,0,0,90.0*
21,1,0.3000,1.0000,0,0,90.0*
1,1,0.3000,0.3500,0.1500*
1,1,0.3000,0.3500,-0.1500*
1,1,0.3000,-0.3500,-0.1500*
1,1,0.3000,-0.3500,0.1500*
%
%ADD33ROUNDEDRECTD33*%
%ADD34R,1.8500X1.3000*%
%ADD35R,1.3000X1.8500*%
%ADD36O,1.6500X0.3000*%
%ADD37O,0.3000X1.6500*%
%ADD38R,7.0000X7.0000*%
%ADD39C,0.2500*%
%ADD40C,0.5000*%
%ADD41C,0.8000*%
%ADD42C,0.3500*%
%ADD43C,1.2000*%
%ADD44C,0.2540*%
%ADD45C,0.2032*%
%ADD46C,0.4000*%
%ADD47C,0.6000*%
%ADD48C,1.0000*%
%ADD49C,0.7500*%
%ADD50C,0.7620*%
%ADD51C,1.1000*%
%ADD52C,1.0160*%
%ADD53R,1.5500X1.5500*%
%ADD54C,1.5500*%
%ADD55C,1.5000*%
%ADD56R,1.5000X1.5000*%
%ADD57C,0.7000*%
%ADD58R,0.7000X0.7000*%
%ADD59R,1.5000X1.5000*%
%ADD60C,2.0000*%
G04:AMPARAMS|DCode=61|XSize=1.55mm|YSize=1.55mm|CornerRadius=0.0465mm|HoleSize=0mm|Usage=FLASHONLY|Rotation=180.000|XOffset=0mm|YOffset=0mm|HoleType=Round|Shape=RoundedRectangle|*
%AMROUNDEDRECTD61*
21,1,1.5500,1.4570,0,0,180.0*
21,1,1.4570,1.5500,0,0,180.0*
1,1,0.0930,-0.7285,0.7285*
1,1,0.0930,0.7285,0.7285*
1,1,0.0930,0.7285,-0.7285*
1,1,0.0930,-0.7285,-0.7285*
%
%ADD61ROUNDEDRECTD61*%
%ADD62C,0.6000*%
%ADD63C,5.0000*%
G36*
X1008599Y822927D02*
X1010099Y821427D01*
X1011753Y820322D01*
X1012077Y820258D01*
X1013704Y819934D01*
X1029454D01*
X1031405Y820322D01*
X1031406Y820323D01*
X1031408Y820322D01*
X1033359Y819934D01*
X1035309Y820322D01*
X1036963Y821427D01*
X1037826Y822719D01*
X1041654Y821558D01*
Y816782D01*
X1043806D01*
Y810189D01*
X1032352Y798735D01*
X1028656Y800265D01*
Y805734D01*
X1028654Y805732D01*
X1016925D01*
X1003602Y808382D01*
Y816762D01*
X1003685Y816886D01*
X1004112Y819032D01*
Y822753D01*
X1007940Y823914D01*
X1008599Y822927D01*
D02*
G37*
G36*
X890324Y776638D02*
X859673Y745987D01*
X855977Y747518D01*
Y764200D01*
X855686Y765663D01*
X854858Y766903D01*
X845123Y776638D01*
X846653Y780334D01*
X888794D01*
X890324Y776638D01*
D02*
G37*
G36*
X897008Y706851D02*
X899154Y706424D01*
X901300Y706851D01*
X901667Y707097D01*
X902189Y706317D01*
X904008Y705101D01*
X906154Y704674D01*
X908300Y705101D01*
X910119Y706317D01*
D01*
X910119D01*
X910119D01*
X910119Y706317D01*
Y706317D01*
X910119D01*
X912189Y705567D01*
Y705567D01*
X914008Y704351D01*
X916154Y703924D01*
X918300Y704351D01*
X918756Y704656D01*
X922452Y703125D01*
X922698Y701886D01*
X923914Y700067D01*
X925733Y698851D01*
X927879Y698424D01*
X930025Y698851D01*
X931379Y699756D01*
X932733Y698851D01*
X934879Y698424D01*
X937025Y698851D01*
X938379Y699756D01*
X939733Y698851D01*
X941879Y698424D01*
X944025Y698851D01*
X945379Y699756D01*
X946733Y698851D01*
X948879Y698424D01*
X951025Y698851D01*
X954303Y693946D01*
Y596214D01*
X954303Y596214D01*
X954303D01*
X954594Y594750D01*
X955422Y593510D01*
X959652Y589280D01*
X960262Y586218D01*
X960262D01*
X957154Y584860D01*
D01*
X955593Y584550D01*
X954654Y583922D01*
X953715Y584550D01*
X952154Y584860D01*
X950593Y584550D01*
X949654Y583922D01*
X948715Y584550D01*
X947154Y584860D01*
X945593Y584550D01*
X944654Y583922D01*
X943715Y584550D01*
X942154Y584860D01*
D01*
X942154D01*
X942154D01*
Y584860D01*
Y584860D01*
X940835Y585886D01*
D01*
X940835Y585886D01*
X941262Y588032D01*
X940835Y590178D01*
X939619Y591997D01*
X937800Y593213D01*
X935654Y593640D01*
X933508Y593213D01*
X931689Y591997D01*
X931000Y590966D01*
X927997Y590671D01*
X926656Y590937D01*
X926358Y591236D01*
X925117Y592064D01*
X923654Y592355D01*
X923214D01*
X923119Y592497D01*
X921300Y593713D01*
X919154Y594140D01*
X917008Y593713D01*
X915189Y592497D01*
X913973Y590678D01*
X913546Y588532D01*
X913644Y588041D01*
X913209Y587389D01*
X910158Y587089D01*
X908695Y587695D01*
X908762Y588032D01*
X908335Y590178D01*
X907119Y591997D01*
X905300Y593213D01*
X903154Y593640D01*
X901008Y593213D01*
X899189Y591997D01*
X899094Y591855D01*
X897034D01*
X895571Y591564D01*
X894331Y590736D01*
Y590736D01*
X894331Y590736D01*
X891619Y591497D01*
X891619Y591497D01*
Y591497D01*
X889800Y592713D01*
X887654Y593140D01*
X885508Y592713D01*
X883689Y591497D01*
X882473Y589678D01*
X879617Y590064D01*
X879616Y590064D01*
X879616Y590064D01*
X878153Y590355D01*
X876690Y590064D01*
X875450Y589235D01*
X874942Y588727D01*
X874858Y588736D01*
X867102Y596491D01*
Y680323D01*
X882944Y696165D01*
X883147Y696300D01*
X887858Y701011D01*
X888686Y702252D01*
X888784Y702742D01*
X888807Y702858D01*
X889119Y703067D01*
X890335Y704886D01*
X890660Y706523D01*
X891154Y706424D01*
X893300Y706851D01*
X895119Y708067D01*
X895189D01*
X897008Y706851D01*
D02*
G37*
G36*
X870599Y822927D02*
X872099Y821427D01*
X873753Y820322D01*
X874077Y820258D01*
X875704Y819934D01*
X891287D01*
X892203Y819322D01*
X894154Y818934D01*
X896105Y819322D01*
X897759Y820427D01*
X898826Y822025D01*
X902654Y820864D01*
Y816782D01*
X905056D01*
Y810144D01*
X896353Y801440D01*
X892657Y802971D01*
Y805734D01*
X892656Y805732D01*
X875444D01*
X866582Y807495D01*
X865491Y808824D01*
X865602Y809382D01*
Y816762D01*
X865685Y816886D01*
X866112Y819032D01*
Y822753D01*
X869939Y823914D01*
X870599Y822927D01*
D02*
G37*
G36*
X931842Y912328D02*
X933082Y911500D01*
X934545Y911209D01*
X938654D01*
Y909282D01*
X938654D01*
Y894782D01*
X938654D01*
Y893870D01*
X935826Y891042D01*
X935653D01*
Y886749D01*
X935531Y886724D01*
X934290Y885895D01*
X930450Y882056D01*
X929622Y880815D01*
X929331Y879352D01*
Y844032D01*
X929331Y844032D01*
X929331D01*
X929622Y842569D01*
X930450Y841328D01*
X931450Y840328D01*
X932691Y839500D01*
X932904Y839457D01*
Y838532D01*
X944404D01*
Y838532D01*
X944404D01*
X944404Y838532D01*
X945090D01*
X946626Y836660D01*
X947451Y834916D01*
X946110Y833282D01*
X945654D01*
Y830697D01*
X941826Y829536D01*
X941759Y829637D01*
X940105Y830742D01*
X938154Y831130D01*
X927904D01*
X925953Y830742D01*
X924299Y829637D01*
X923194Y827983D01*
X922806Y826032D01*
X923194Y824081D01*
X924299Y822427D01*
X925953Y821322D01*
X927904Y820934D01*
X938154D01*
X940105Y821322D01*
X941759Y822427D01*
X941826Y822528D01*
X945654Y821367D01*
Y818782D01*
X960654D01*
Y820934D01*
X967496D01*
Y819032D01*
X967923Y816886D01*
X968892Y815436D01*
X968112Y811513D01*
X967549Y811137D01*
X962144Y805732D01*
X952454D01*
Y788399D01*
X903677D01*
X903677Y788399D01*
X903011Y788266D01*
X901126Y791794D01*
X913759Y804427D01*
X914864Y806081D01*
X914928Y806405D01*
X915252Y808032D01*
Y816782D01*
X917654D01*
Y831282D01*
D01*
Y831282D01*
X917654Y831282D01*
X917654Y833782D01*
X917654D01*
Y848282D01*
X913977D01*
Y851146D01*
X913686Y852610D01*
X912858Y853850D01*
X909477Y857230D01*
Y915032D01*
X929138D01*
X931842Y912328D01*
D02*
G37*
G36*
X760860Y856063D02*
X760950Y856016D01*
X761021Y855944D01*
X761298Y855830D01*
X761562Y855688D01*
X761663Y855678D01*
X761756Y855640D01*
X763504Y855292D01*
X764649Y854527D01*
X765414Y853382D01*
X765683Y852032D01*
X765414Y850682D01*
X764649Y849537D01*
X763504Y848772D01*
X761756Y848424D01*
X761756Y848424D01*
X761756D01*
X761452Y848298D01*
X761021Y848120D01*
X761021Y848120D01*
X761021Y848120D01*
X760796Y847895D01*
X760459Y847557D01*
X760154Y846822D01*
Y846822D01*
D01*
X760076Y846430D01*
X760076Y846430D01*
Y846430D01*
X760076Y846430D01*
Y846032D01*
Y845634D01*
X760076Y845634D01*
Y845634D01*
X760076Y845634D01*
X760154Y845242D01*
X760154Y845242D01*
Y845242D01*
X760254Y845001D01*
X760458Y844507D01*
X760459Y844507D01*
X760459Y844507D01*
X760740Y844226D01*
X761021Y843944D01*
X761021Y843944D01*
X761021Y843944D01*
X761350Y843808D01*
X761756Y843640D01*
X761756D01*
X763504Y843292D01*
X764649Y842527D01*
X765414Y841382D01*
X765683Y840032D01*
X765414Y838682D01*
X764649Y837537D01*
X763504Y836772D01*
X761756Y836424D01*
X761756Y836424D01*
X761756D01*
X761452Y836298D01*
X761021Y836120D01*
X761021Y836120D01*
X761021Y836120D01*
X760796Y835895D01*
X760459Y835557D01*
X760154Y834822D01*
Y834822D01*
D01*
X760076Y834430D01*
X760076Y834430D01*
Y834430D01*
X760076Y834430D01*
Y834032D01*
Y833634D01*
X760076Y833634D01*
Y833634D01*
X760076Y833634D01*
X760154Y833242D01*
X760154Y833242D01*
Y833242D01*
X760254Y833001D01*
X760458Y832507D01*
X760459Y832507D01*
X760459Y832507D01*
X760740Y832226D01*
X761021Y831944D01*
X761021Y831944D01*
X761021Y831944D01*
X761350Y831808D01*
X761756Y831640D01*
X761756D01*
X763504Y831292D01*
X764649Y830527D01*
X765414Y829382D01*
X765683Y828032D01*
X765414Y826682D01*
X764649Y825537D01*
X763504Y824772D01*
X761756Y824424D01*
X761756Y824424D01*
X761756D01*
X761452Y824298D01*
X761021Y824120D01*
X761021Y824120D01*
X761021Y824120D01*
X760796Y823895D01*
X760459Y823557D01*
X760154Y822822D01*
Y822822D01*
D01*
X760076Y822430D01*
X760076Y822430D01*
Y822430D01*
X760076Y822430D01*
Y822032D01*
Y821634D01*
X760076Y821634D01*
Y821634D01*
X760076Y821634D01*
X760154Y821242D01*
X760154Y821242D01*
Y821242D01*
X760254Y821001D01*
X760458Y820507D01*
X760459Y820507D01*
X760459Y820507D01*
X760740Y820226D01*
X761021Y819944D01*
X761021Y819944D01*
X761021Y819944D01*
X761350Y819808D01*
X761756Y819640D01*
X761756D01*
X763504Y819292D01*
X764649Y818527D01*
X765414Y817382D01*
X765683Y816032D01*
X765414Y814682D01*
X764649Y813537D01*
X763504Y812772D01*
X761756Y812424D01*
X761663Y812385D01*
X761562Y812376D01*
X761298Y812234D01*
X761021Y812120D01*
X760949Y812048D01*
X760860Y812001D01*
X759680Y811032D01*
X755184D01*
X754154Y812062D01*
Y813015D01*
Y831031D01*
X754705Y831750D01*
X755461Y833574D01*
X755719Y835532D01*
Y856882D01*
X759863D01*
X760860Y856063D01*
D02*
G37*
G36*
X1146599Y822927D02*
X1148099Y821427D01*
X1149753Y820322D01*
X1150077Y820258D01*
X1151704Y819934D01*
X1167454D01*
X1169405Y820322D01*
X1169406Y820323D01*
X1169408Y820322D01*
X1171358Y819934D01*
X1173309Y820322D01*
X1174963Y821427D01*
X1175826Y822719D01*
X1179654Y821558D01*
Y816782D01*
X1179654D01*
X1179654Y812942D01*
X1171336Y804624D01*
X1168656Y805734D01*
Y805734D01*
X1168654Y805732D01*
X1142785D01*
X1140899Y809260D01*
X1141214Y809731D01*
X1141278Y810054D01*
X1141602Y811682D01*
Y816762D01*
X1141685Y816886D01*
X1142112Y819032D01*
Y822753D01*
X1145939Y823914D01*
X1146599Y822927D01*
D02*
G37*
G36*
X1127646Y689239D02*
Y673130D01*
X1090654D01*
Y675282D01*
X1075654D01*
Y675282D01*
X1075154D01*
X1074654Y675782D01*
Y675782D01*
D01*
Y687953D01*
X1074654Y687953D01*
D01*
X1074654Y690282D01*
X1074654Y690467D01*
X1074654Y690532D01*
X1074904Y690782D01*
X1075654D01*
X1077482Y690782D01*
Y690782D01*
X1077483Y690782D01*
X1090654D01*
Y692934D01*
X1123951D01*
X1127646Y689239D01*
D02*
G37*
G36*
X791138Y657320D02*
X791154Y657301D01*
Y655032D01*
X791154D01*
Y641742D01*
X789549Y640137D01*
X788444Y638483D01*
X788056Y636532D01*
Y636532D01*
X785904D01*
Y621532D01*
X800404D01*
Y621532D01*
X800404D01*
X800404Y621532D01*
X801904D01*
Y621532D01*
X812845D01*
X812973Y620886D01*
X814189Y619067D01*
X816008Y617851D01*
X818154Y617424D01*
X818154Y617424D01*
X818154Y617424D01*
X820636Y616593D01*
X820326Y615032D01*
X820636Y613471D01*
X821264Y612532D01*
X820636Y611593D01*
X820326Y610032D01*
X820559Y608857D01*
X819183Y608583D01*
X818769Y608307D01*
X817936Y607750D01*
X817936Y607750D01*
X808718Y598532D01*
X802904D01*
D01*
D01*
X802904Y598532D01*
X800404Y598532D01*
Y598532D01*
X785904D01*
Y585360D01*
X785904Y585360D01*
X785904Y585360D01*
X785904Y583532D01*
Y582848D01*
X782812Y580310D01*
X781154Y580640D01*
X779008Y580213D01*
X777189Y578997D01*
X775973Y577178D01*
X775546Y575032D01*
X775973Y572886D01*
X777189Y571067D01*
X779008Y569851D01*
X781154Y569424D01*
X783300Y569851D01*
D01*
Y569851D01*
X783300D01*
D01*
X785904Y567532D01*
Y567532D01*
X800404D01*
Y567532D01*
X801510D01*
X801531Y567510D01*
X801921Y563551D01*
X791385Y561455D01*
X774842D01*
X773379Y561164D01*
X772138Y560336D01*
X766450Y554648D01*
X765622Y553407D01*
X765331Y551944D01*
Y545532D01*
X761904D01*
Y532360D01*
X761904Y532360D01*
X761904Y532360D01*
X761904Y530532D01*
Y529532D01*
Y529532D01*
D01*
D01*
X761904D01*
D01*
Y514532D01*
X762598D01*
Y508732D01*
X757454D01*
X757456Y508730D01*
Y483333D01*
X757456D01*
Y482175D01*
X754628Y479347D01*
X726154D01*
Y526532D01*
X713043D01*
X712893Y527288D01*
X711898Y528776D01*
X710410Y529771D01*
X708654Y530120D01*
X701654D01*
D01*
D01*
D01*
X701654Y530120D01*
X701654Y530120D01*
D01*
D01*
X699654Y529902D01*
Y535032D01*
X695820D01*
X694290Y538727D01*
X699858Y544295D01*
X700686Y545536D01*
X700885Y546532D01*
X704404D01*
Y548532D01*
X705554D01*
Y548532D01*
X715554D01*
Y550415D01*
X719382Y551576D01*
X720149Y550427D01*
X721803Y549322D01*
X723754Y548934D01*
X731154D01*
X733105Y549322D01*
X734759Y550427D01*
X735864Y552081D01*
X736252Y554032D01*
X735864Y555983D01*
X734759Y557637D01*
X733105Y558742D01*
X731154Y559130D01*
X723754D01*
X721803Y558742D01*
X720149Y557637D01*
X719382Y556488D01*
X715554Y557649D01*
Y559532D01*
X705554D01*
D01*
X705554D01*
X704404Y560682D01*
X704404Y561532D01*
D01*
Y562532D01*
X704404D01*
Y577532D01*
X700977D01*
Y579999D01*
X700686Y581462D01*
X699858Y582702D01*
X694997Y587563D01*
Y593948D01*
X695164Y594115D01*
X749060D01*
X750523Y594406D01*
X751764Y595234D01*
X763458Y606929D01*
X767154Y605399D01*
Y601382D01*
X779154D01*
Y613382D01*
X775137D01*
X773607Y617077D01*
X779858Y623328D01*
X780686Y624569D01*
X780977Y626032D01*
Y627081D01*
X781017Y627282D01*
Y654671D01*
X783154Y656424D01*
X785300Y656851D01*
X787119Y658067D01*
X787214Y658209D01*
X789809D01*
X791138Y657320D01*
D02*
G37*
G36*
X1000118Y593578D02*
X1001359Y592750D01*
X1002822Y592459D01*
X1058560D01*
X1060083Y591441D01*
X1060475Y587460D01*
X1058450Y585436D01*
X1057622Y584195D01*
X1057331Y582732D01*
Y544116D01*
X1048470Y535255D01*
X1028754D01*
X1027291Y534964D01*
X1026050Y534136D01*
X1023347Y531432D01*
X1001354D01*
Y531432D01*
X999577D01*
X999377Y531632D01*
X999086Y533095D01*
X998258Y534336D01*
X986977Y545616D01*
Y585954D01*
X989904D01*
X991465Y586264D01*
X992788Y587148D01*
X993672Y588471D01*
X993982Y590032D01*
X993672Y591593D01*
X993044Y592532D01*
X993672Y593471D01*
X993932Y594776D01*
X997759Y595937D01*
X1000118Y593578D01*
D02*
G37*
G36*
X844270Y564398D02*
X845593Y563514D01*
X847154Y563204D01*
X848715Y563514D01*
X849654Y564142D01*
X850593Y563514D01*
X852154Y563204D01*
X853715Y563514D01*
D01*
X856332Y563367D01*
X857112Y559444D01*
X856444Y558997D01*
X855228Y557178D01*
X854801Y555032D01*
X855228Y552886D01*
X856444Y551067D01*
X858263Y549851D01*
X860409Y549424D01*
X862555Y549851D01*
X864374Y551067D01*
X865590Y552886D01*
X866017Y555032D01*
X865590Y557178D01*
X864374Y558997D01*
X862555Y560213D01*
D01*
D01*
X863715Y563514D01*
X863715Y563514D01*
X865593Y563514D01*
D01*
X867154Y563204D01*
X868715Y563514D01*
X869654Y564142D01*
X870593Y563514D01*
X872154Y563204D01*
D01*
X873331Y560652D01*
Y560019D01*
X873189Y558997D01*
X871973Y557178D01*
X871546Y555032D01*
X871973Y552886D01*
X873189Y551067D01*
X875008Y549851D01*
X877154Y549424D01*
X879300Y549851D01*
X881119Y551067D01*
X882335Y552886D01*
X882762Y555032D01*
X882335Y557178D01*
X885589Y558460D01*
X889100Y556543D01*
X889150Y556296D01*
X889846Y555254D01*
X889801Y555032D01*
X890228Y552886D01*
X891444Y551067D01*
X893263Y549851D01*
X895409Y549424D01*
X897555Y549851D01*
X899374Y551067D01*
X900590Y552886D01*
X901017Y555032D01*
X900590Y557178D01*
X899374Y558997D01*
X897555Y560213D01*
D01*
X896788Y561362D01*
X896964Y562248D01*
X900593Y563514D01*
X902154Y563204D01*
X903715Y563514D01*
X904011Y563712D01*
X907838Y562551D01*
X909067Y559584D01*
X908189Y558997D01*
X906973Y557178D01*
X906546Y555032D01*
X906973Y552886D01*
X908189Y551067D01*
X910008Y549851D01*
X912154Y549424D01*
X914300Y549851D01*
X916119Y551067D01*
X917335Y552886D01*
X917762Y555032D01*
X917335Y557178D01*
X916119Y558997D01*
X915241Y559584D01*
X916470Y562551D01*
X920297Y563712D01*
X920593Y563514D01*
X922154Y563204D01*
X923715Y563514D01*
X924654Y564142D01*
X925593Y563514D01*
X927154Y563204D01*
X928715Y563514D01*
D01*
X930632Y563429D01*
X932079Y560288D01*
X930219Y557504D01*
X904147Y531432D01*
X891354D01*
Y480632D01*
D01*
Y480632D01*
X890068Y479347D01*
X884456D01*
Y483333D01*
X884456D01*
X884454Y483335D01*
Y508732D01*
X870710D01*
Y514532D01*
X871404D01*
Y529532D01*
X856904D01*
X856904Y529532D01*
D01*
X856404Y530532D01*
D01*
X856404Y532360D01*
X856404D01*
X856404Y532360D01*
Y545532D01*
X843232D01*
X843232Y545532D01*
X843232Y545532D01*
X841904Y545532D01*
X841154D01*
X840404D01*
X839567D01*
X836739Y548360D01*
Y558547D01*
X842741Y564549D01*
X844270Y564398D01*
D02*
G37*
G36*
X583907Y674069D02*
X582653Y671042D01*
X582653D01*
X582653Y671042D01*
Y653342D01*
X603655D01*
Y657032D01*
X605654D01*
Y657032D01*
X619694D01*
X620056Y656670D01*
Y649032D01*
X605654D01*
Y638032D01*
X608056D01*
Y636412D01*
X608444Y634461D01*
X609549Y632807D01*
X612179Y630177D01*
X613833Y629072D01*
X615784Y628684D01*
X624654D01*
Y626282D01*
X624654D01*
Y622200D01*
X620826Y621039D01*
X619759Y622637D01*
X618105Y623742D01*
X616154Y624130D01*
X609266D01*
X598252Y635144D01*
Y641872D01*
X597864Y643823D01*
X596759Y645477D01*
X595105Y646582D01*
X593154Y646970D01*
X591203Y646582D01*
X589549Y645477D01*
X588444Y643823D01*
X588056Y641872D01*
Y633032D01*
X588444Y631081D01*
X589549Y629427D01*
X603549Y615427D01*
X605203Y614322D01*
X607154Y613934D01*
X616154D01*
X618105Y614322D01*
X619759Y615427D01*
X620826Y617025D01*
X624654Y615864D01*
Y611782D01*
X639654D01*
Y611782D01*
X639654D01*
X639654Y611782D01*
X641654D01*
Y611782D01*
X656654D01*
Y611782D01*
X656654D01*
X656654Y611782D01*
X657654D01*
Y611782D01*
X672654D01*
Y612476D01*
X676654D01*
X678184Y608780D01*
X659950Y590546D01*
X659292Y589561D01*
X659273Y589532D01*
X656154D01*
Y578532D01*
X656154D01*
Y576232D01*
X655154Y575232D01*
X655154D01*
D01*
X654154D01*
Y575232D01*
X646776D01*
X646654Y575256D01*
X646654D01*
X644154Y575232D01*
Y578532D01*
X644154D01*
Y589532D01*
X631154D01*
Y589532D01*
X630869Y589299D01*
X629154Y589640D01*
X627008Y589213D01*
X625189Y587997D01*
X623973Y586178D01*
X623546Y584032D01*
X623973Y581886D01*
X625189Y580067D01*
X627008Y578851D01*
X629154Y578424D01*
X630869Y578765D01*
X631154Y578532D01*
Y578532D01*
X639154D01*
Y575232D01*
X639154D01*
Y567521D01*
X632910Y561276D01*
X631915Y559788D01*
X631566Y558032D01*
Y550282D01*
X631915Y548526D01*
X632910Y547038D01*
X641160Y538788D01*
X642648Y537793D01*
X644404Y537444D01*
X669753D01*
X671066Y536132D01*
Y526532D01*
X651154D01*
Y479347D01*
X622521D01*
Y482290D01*
X622521Y514464D01*
X611831Y525154D01*
X583865D01*
X577817Y525260D01*
X577817Y525260D01*
X577817Y525260D01*
X574468Y526647D01*
Y677183D01*
X578260Y679717D01*
X583907Y674069D01*
D02*
G37*
G36*
X767619Y771989D02*
X769222Y769900D01*
X771311Y768297D01*
X773744Y767289D01*
X775764Y767023D01*
X775597Y764475D01*
X774154Y763032D01*
X774154D01*
Y750032D01*
X848331D01*
Y737826D01*
X847154Y736860D01*
X845593Y736550D01*
X844270Y735666D01*
X843386Y734343D01*
X843076Y732782D01*
Y719282D01*
X843310Y718103D01*
Y717850D01*
X843310Y717850D01*
X843436Y717218D01*
X841709Y715114D01*
X840230Y714126D01*
X831404D01*
X831326Y714110D01*
X824404D01*
X822843Y713800D01*
X821520Y712916D01*
X820636Y711593D01*
X820326Y710032D01*
X820636Y708471D01*
X821264Y707532D01*
X820636Y706593D01*
X820326Y705032D01*
X820636Y703471D01*
X821264Y702532D01*
X820636Y701593D01*
X820326Y700032D01*
X820636Y698471D01*
X821264Y697532D01*
X820636Y696593D01*
X820326Y695032D01*
X820636Y693471D01*
X821264Y692532D01*
X820636Y691593D01*
X820326Y690032D01*
X820636Y688471D01*
X821264Y687532D01*
X820636Y686593D01*
X820326Y685032D01*
X820636Y683471D01*
X821264Y682532D01*
X820636Y681593D01*
X820326Y680032D01*
X819393Y678895D01*
X778444D01*
X776981Y678604D01*
X775741Y677776D01*
X775701Y677736D01*
X775700Y677736D01*
X769450Y671486D01*
X768622Y670245D01*
X768331Y668782D01*
X768331D01*
Y668782D01*
X766154Y667640D01*
X766154Y667640D01*
Y667640D01*
X764008Y667213D01*
X762189Y665997D01*
X760973Y664178D01*
X760546Y662032D01*
X760973Y659886D01*
X762189Y658067D01*
X762232Y658038D01*
Y637267D01*
X745570Y620605D01*
X701974D01*
X696822Y622739D01*
X696056Y623613D01*
X696210Y624782D01*
Y631032D01*
X700154D01*
Y646476D01*
X706653D01*
Y643342D01*
X727655D01*
Y643342D01*
X727655D01*
X727655Y643342D01*
X730653D01*
Y643342D01*
X751655D01*
Y661042D01*
X751655D01*
X751422Y661326D01*
X751762Y663032D01*
X751335Y665178D01*
X750119Y666997D01*
X748300Y668213D01*
X746154Y668640D01*
X744008Y668213D01*
X743884Y668130D01*
X737424D01*
X737300Y668213D01*
X735154Y668640D01*
X733008Y668213D01*
X731189Y666997D01*
X730654Y666197D01*
X726654D01*
X726119Y666997D01*
X724300Y668213D01*
X722154Y668640D01*
X720008Y668213D01*
X719884Y668130D01*
X714424D01*
X714300Y668213D01*
X712154Y668640D01*
X710008Y668213D01*
X708189Y666997D01*
X706973Y665178D01*
X706546Y663032D01*
X706616Y662680D01*
X704079Y659588D01*
X700154D01*
Y675032D01*
X679154D01*
Y631032D01*
X681406D01*
X682283Y628914D01*
X680061Y625588D01*
X672654D01*
Y626282D01*
X657654D01*
D01*
D01*
X657654Y626282D01*
X656654D01*
Y626282D01*
X641654D01*
D01*
D01*
X641654Y626282D01*
X639654D01*
D01*
X637252Y626282D01*
Y630032D01*
X636928Y631659D01*
X636864Y631983D01*
X635759Y633637D01*
X632009Y637387D01*
X631748Y637561D01*
X631654Y638032D01*
X631654Y638032D01*
X646654D01*
Y638032D01*
X647326D01*
X650154Y635204D01*
Y631032D01*
X671154D01*
Y675032D01*
X650154D01*
Y668140D01*
X639154D01*
X638612Y668032D01*
X631654D01*
Y664718D01*
X627958Y663187D01*
X625009Y666137D01*
X623355Y667242D01*
X621404Y667630D01*
X620654D01*
Y668032D01*
X605654D01*
D01*
X605654D01*
X603655Y670031D01*
Y671042D01*
X598252D01*
Y672032D01*
X597864Y673983D01*
X596759Y675637D01*
X595702Y676694D01*
X597233Y680389D01*
X760461D01*
Y764334D01*
X763656D01*
Y771305D01*
X767579Y772085D01*
X767619Y771989D01*
D02*
G37*
G36*
X1019820Y678050D02*
X1021060Y677222D01*
X1022523Y676931D01*
X1032848D01*
X1033331Y676448D01*
Y665032D01*
X1033622Y663569D01*
X1034450Y662328D01*
X1046553Y650226D01*
Y641778D01*
X1046844Y640315D01*
X1047672Y639074D01*
X1062200Y624547D01*
X1063189Y623067D01*
X1065008Y621851D01*
X1067154Y621424D01*
X1069300Y621851D01*
X1071119Y623067D01*
X1072335Y624886D01*
X1072762Y627032D01*
X1072335Y629178D01*
X1074654Y631782D01*
X1074654Y631782D01*
X1075654D01*
Y631782D01*
X1090654D01*
Y646282D01*
D01*
Y646282D01*
X1090654Y646282D01*
Y646782D01*
X1090654D01*
Y660782D01*
Y662934D01*
X1127646D01*
Y653414D01*
X1127563Y653290D01*
X1127136Y651144D01*
X1126429Y650282D01*
X1125244D01*
Y635782D01*
X1125244Y635782D01*
X1125244Y635782D01*
X1123840Y632213D01*
X1121694Y632640D01*
X1119548Y632213D01*
X1117729Y630997D01*
X1116513Y629178D01*
X1116086Y627032D01*
Y614032D01*
X1116501Y611948D01*
X1116374Y611793D01*
X1111977Y608855D01*
X1032182D01*
X1031654Y609289D01*
Y618282D01*
X1031654D01*
Y619782D01*
X1032404Y620532D01*
X1032404D01*
Y639532D01*
X1027461D01*
X1026858Y640436D01*
X1024529Y642764D01*
X1023289Y643592D01*
X1023923Y646780D01*
X1024154Y646934D01*
D01*
X1026105Y647322D01*
X1027759Y648427D01*
X1027759D01*
X1028864Y650081D01*
X1029252Y652032D01*
X1028864Y653983D01*
X1027759Y655637D01*
X1026105Y656742D01*
X1024154Y657130D01*
X1022203Y656742D01*
X1020549Y655637D01*
X1020549Y655637D01*
X1018665Y655637D01*
X1016404Y656323D01*
Y661532D01*
X1015654D01*
Y663782D01*
X1015654D01*
Y676990D01*
X1019350Y678521D01*
X1019820Y678050D01*
D02*
G37*
G36*
X1015904Y625741D02*
Y620532D01*
X1016654D01*
Y618282D01*
X1016654D01*
Y607077D01*
X1003484D01*
X1002838Y607723D01*
X1002830Y607736D01*
X1001589Y608564D01*
X1000126Y608855D01*
X999945Y609452D01*
X1000118Y609567D01*
X1001334Y611387D01*
X1001761Y613533D01*
X1001334Y615679D01*
X1001757Y617808D01*
X1001939Y617929D01*
X1003155Y619748D01*
X1003582Y621894D01*
X1003466Y622476D01*
X1006294Y625304D01*
X1008154Y624934D01*
X1010105Y625322D01*
X1011759Y626427D01*
X1012076Y626902D01*
X1015904Y625741D01*
D02*
G37*
G36*
X1019581Y1009045D02*
Y1005337D01*
X1019454Y1005032D01*
X1019421Y1004951D01*
X1019128Y1002732D01*
X1019421Y1000513D01*
X1020277Y998445D01*
X1021639Y996670D01*
X1023415Y995307D01*
X1025483Y994451D01*
X1027702Y994159D01*
X1029921Y994451D01*
X1031989Y995307D01*
X1033764Y996670D01*
X1034216Y997122D01*
X1035579Y998897D01*
X1035830Y999503D01*
X1035879Y999622D01*
D01*
X1038331Y999134D01*
D01*
Y931132D01*
X947185D01*
X946719Y933471D01*
X945338Y935538D01*
X943539Y937337D01*
X943563Y937457D01*
Y974607D01*
X943328Y975787D01*
X942660Y976788D01*
X941659Y977457D01*
X940479Y977691D01*
X931029D01*
X929849Y977457D01*
X928848Y976788D01*
X928179Y975787D01*
X927945Y974607D01*
Y937457D01*
X928179Y936277D01*
X928848Y935276D01*
X929655Y934737D01*
X929867Y933671D01*
X930090Y933337D01*
X928912Y931132D01*
X923852D01*
X915977Y939007D01*
Y1009045D01*
X959781D01*
X960559Y1009812D01*
X1019581D01*
Y1009045D01*
D02*
G37*
G36*
X1182487D02*
X1183331D01*
Y931132D01*
X1089001D01*
X1088527Y931710D01*
X1088041Y934149D01*
X1086974Y935746D01*
X1087328Y936277D01*
X1087563Y937457D01*
Y974607D01*
X1087328Y975787D01*
X1086660Y976788D01*
X1085659Y977457D01*
X1084479Y977691D01*
X1075029D01*
X1073849Y977457D01*
X1072848Y976788D01*
X1072179Y975787D01*
X1071945Y974607D01*
Y937457D01*
X1072179Y936277D01*
X1072848Y935276D01*
X1072952Y935207D01*
X1073318Y932734D01*
X1072003Y931132D01*
X1059355D01*
X1057977Y932510D01*
Y1009045D01*
X1103921D01*
X1104611Y1009716D01*
X1160581D01*
Y1005032D01*
X1160873Y1002813D01*
X1161729Y1000745D01*
X1163092Y998970D01*
X1164867Y997607D01*
X1166935Y996751D01*
X1169154Y996459D01*
X1171373Y996751D01*
X1173441Y997607D01*
X1175216Y998970D01*
X1176579Y1000745D01*
X1177435Y1002813D01*
X1177727Y1005032D01*
Y1009716D01*
X1181798D01*
X1182487Y1009045D01*
D02*
G37*
G36*
X730873D02*
X761331D01*
Y936895D01*
X761622Y935432D01*
X762450Y934191D01*
X763200Y933442D01*
X762243Y931132D01*
X741409D01*
X741354Y931077D01*
X724909D01*
X720154Y935832D01*
Y1000141D01*
Y1003932D01*
X724854Y1008632D01*
X725267Y1009045D01*
X730873D01*
X730873Y1009045D01*
D02*
G37*
G36*
X875581Y1005577D02*
X875229Y1005119D01*
X874373Y1003051D01*
X874081Y1000832D01*
X874373Y998613D01*
X875229Y996545D01*
X876592Y994770D01*
X878367Y993407D01*
X880435Y992551D01*
X882654Y992259D01*
X884873Y992551D01*
X886941Y993407D01*
X888716Y994770D01*
X890216Y996270D01*
D01*
X891579Y998045D01*
X892435Y1000113D01*
X892727Y1002332D01*
Y1006589D01*
Y1009045D01*
X895991D01*
Y931132D01*
X800872D01*
X798126Y933878D01*
Y934920D01*
X798660Y935276D01*
X799329Y936277D01*
X799563Y937457D01*
Y974607D01*
X799329Y975787D01*
X798660Y976788D01*
X797659Y977457D01*
X796479Y977691D01*
X787029D01*
X785849Y977457D01*
X784848Y976788D01*
X784180Y975787D01*
X783945Y974607D01*
Y937457D01*
X784180Y936277D01*
X784848Y935276D01*
X785381Y934920D01*
Y931238D01*
X785294Y931132D01*
X776324D01*
X768977Y938478D01*
Y1009045D01*
X815878D01*
X816559Y1009716D01*
X875581D01*
Y1005577D01*
D02*
G37*
G36*
X864154Y1197089D02*
Y1122605D01*
X858482D01*
X856773Y1123313D01*
X854554Y1123605D01*
X852335Y1123313D01*
X850267Y1122457D01*
X848492Y1121094D01*
X847129Y1119319D01*
X846273Y1117251D01*
X845981Y1115032D01*
X846273Y1112813D01*
X847129Y1110745D01*
X848492Y1108970D01*
X849492Y1107970D01*
X851267Y1106607D01*
X853335Y1105751D01*
X855554Y1105459D01*
X864154D01*
Y1025713D01*
X864031Y1025592D01*
X860031Y1021650D01*
X776154D01*
X772197Y1025549D01*
Y1025635D01*
Y1128310D01*
X776154Y1132209D01*
X793169D01*
X801305Y1140228D01*
Y1186635D01*
Y1191274D01*
Y1194034D01*
Y1194358D01*
Y1194428D01*
Y1194527D01*
Y1195760D01*
X802654Y1197089D01*
X806654Y1201032D01*
X860154D01*
X864154Y1197089D01*
D02*
G37*
G36*
X1163154Y1266032D02*
X1178154D01*
Y1215532D01*
X1177960Y1215344D01*
X1094659D01*
X1094659Y1215344D01*
X813548D01*
X813457Y1215432D01*
X764894D01*
X764803Y1215344D01*
X764686D01*
X751995Y1203032D01*
Y1041032D01*
X751995Y1041032D01*
X751995Y1041032D01*
X751995Y1039910D01*
X744905Y1033032D01*
X685356D01*
X676154Y1041958D01*
Y1043032D01*
Y1319287D01*
X676170Y1319302D01*
X681489Y1324462D01*
Y1324718D01*
X1163154D01*
Y1266032D01*
D02*
G37*
G36*
X1007154Y1197089D02*
Y1121605D01*
X999154D01*
X996935Y1121313D01*
X994867Y1120457D01*
X993092Y1119094D01*
X991729Y1117319D01*
X990873Y1115251D01*
X990581Y1113032D01*
X990873Y1110813D01*
X991729Y1108745D01*
X993092Y1106970D01*
X994867Y1105607D01*
X996935Y1104751D01*
X999154Y1104459D01*
X1007154D01*
Y1025713D01*
X1007031Y1025592D01*
X1003031Y1021650D01*
X919154D01*
X915977Y1024781D01*
Y1129078D01*
X919154Y1132209D01*
X936169D01*
X944305Y1140228D01*
Y1149241D01*
X944329Y1149277D01*
X944563Y1150457D01*
Y1187607D01*
X944329Y1188787D01*
X944305Y1188823D01*
Y1191274D01*
Y1194034D01*
Y1194358D01*
Y1194428D01*
Y1194527D01*
Y1195760D01*
X945654Y1197089D01*
X949654Y1201032D01*
X1003154D01*
X1007154Y1197089D01*
D02*
G37*
G36*
X1149154Y1197098D02*
Y1122155D01*
X1140203D01*
X1137984Y1121862D01*
X1135917Y1121006D01*
X1134141Y1119643D01*
X1133592Y1119094D01*
X1132229Y1117319D01*
X1131373Y1115251D01*
X1131081Y1113032D01*
X1131373Y1110813D01*
X1132229Y1108745D01*
X1133592Y1106970D01*
X1135367Y1105607D01*
X1137435Y1104751D01*
X1139654Y1104459D01*
X1141873Y1104751D01*
X1142494Y1105008D01*
X1149154D01*
Y1026087D01*
X1149031Y1025966D01*
X1145031Y1022032D01*
X1061154D01*
X1057977Y1025156D01*
Y1129232D01*
X1061154Y1132356D01*
X1078169D01*
X1086305Y1140358D01*
Y1149039D01*
X1086660Y1149276D01*
X1087328Y1150277D01*
X1087563Y1151457D01*
Y1188607D01*
X1087328Y1189787D01*
X1086660Y1190788D01*
X1086305Y1191025D01*
Y1191295D01*
Y1194049D01*
Y1194372D01*
Y1194442D01*
Y1194541D01*
Y1195771D01*
X1087654Y1197098D01*
X1091654Y1201032D01*
X1145154D01*
X1149154Y1197098D01*
D02*
G37*
G36*
X654203Y1324032D02*
X661545Y1316778D01*
X661554Y1316769D01*
Y1031304D01*
Y1031205D01*
X691754Y1001369D01*
Y1000963D01*
X691754Y1000963D01*
X691754Y1000963D01*
Y922432D01*
X660260D01*
X659692Y923000D01*
X644248D01*
X643806Y922432D01*
X574468D01*
Y1320022D01*
X578527Y1324032D01*
X654203D01*
Y1324032D01*
D02*
G37*
G36*
X901831Y867400D02*
Y855646D01*
X902122Y854183D01*
X902950Y852943D01*
X906330Y849563D01*
Y849563D01*
X902654Y848282D01*
X902654D01*
Y844200D01*
X898826Y843039D01*
X897759Y844637D01*
X897759D01*
X896105Y845742D01*
X894154Y846130D01*
X892203Y845742D01*
X890549Y844637D01*
X889444Y842983D01*
X889056Y841032D01*
X889056Y841032D01*
Y830130D01*
X877816D01*
X877809Y830137D01*
X876155Y831242D01*
X874204Y831630D01*
X872253Y831242D01*
X870599Y830137D01*
X869939Y829149D01*
X866112Y830311D01*
Y832032D01*
X865685Y834178D01*
X864469Y835997D01*
X862650Y837213D01*
X860504Y837640D01*
X858358Y837213D01*
X856539Y835997D01*
X856154Y835421D01*
X852154D01*
X851769Y835997D01*
X849950Y837213D01*
X847804Y837640D01*
X845658Y837213D01*
X843839Y835997D01*
X843839Y835997D01*
Y835997D01*
X843572Y835873D01*
X840426Y838343D01*
X840762Y840032D01*
X840335Y842178D01*
X839119Y843997D01*
X839404Y844934D01*
X853654D01*
X855605Y845322D01*
X857259Y846427D01*
X857259Y846427D01*
X857259Y846427D01*
X858040Y847209D01*
X874830D01*
X876293Y847500D01*
X877533Y848328D01*
X898135Y868930D01*
X901831Y867400D01*
D02*
G37*
G36*
X1044331Y872575D02*
Y848282D01*
X1041654D01*
Y844492D01*
X1037826Y843331D01*
X1036963Y844622D01*
X1035309Y845727D01*
X1033359Y846115D01*
X1031408Y845727D01*
X1029754Y844622D01*
X1028649Y842968D01*
X1028260Y841018D01*
Y830130D01*
X1015816D01*
X1015809Y830137D01*
X1014155Y831242D01*
X1012204Y831630D01*
X1010253Y831242D01*
X1008599Y830137D01*
X1007940Y829149D01*
X1004112Y830311D01*
Y832032D01*
X1003685Y834178D01*
X1002469Y835997D01*
X1000650Y837213D01*
X998504Y837640D01*
X996358Y837213D01*
X994539Y835997D01*
X994154Y835421D01*
X990154D01*
X989769Y835997D01*
X987950Y837213D01*
X985804Y837640D01*
X983658Y837213D01*
X981839Y835997D01*
X981839Y835997D01*
Y835997D01*
X981593Y835876D01*
X978419Y838311D01*
X978762Y840032D01*
X978335Y842178D01*
X977119Y843997D01*
X975958Y844773D01*
Y844773D01*
X975958D01*
X975300Y845213D01*
X976021Y845934D01*
X994154D01*
X996105Y846322D01*
X997432Y847209D01*
X1012154D01*
X1013617Y847500D01*
X1014858Y848328D01*
X1014858Y848328D01*
X1014858Y848328D01*
X1040635Y874106D01*
X1044331Y872575D01*
D02*
G37*
G36*
X1209839Y582932D02*
X1209839D01*
X1207854D01*
X1207011Y582932D01*
Y582932D01*
X1207011Y582932D01*
X1202654D01*
Y585032D01*
X1202654D01*
Y599532D01*
X1187654D01*
Y585032D01*
D01*
Y585032D01*
X1185554Y582932D01*
X1182454D01*
Y482175D01*
X1182454Y482175D01*
X1182454Y482175D01*
X1182454Y481332D01*
X1180469Y479347D01*
X1168744D01*
Y551032D01*
X1158242D01*
Y557032D01*
X1157854Y558983D01*
X1156749Y560637D01*
X1152312Y565073D01*
X1152702Y567032D01*
Y580032D01*
X1152275Y582178D01*
X1151059Y583997D01*
X1149240Y585213D01*
X1147094Y585640D01*
X1144948Y585213D01*
X1143129Y583997D01*
X1142744Y583422D01*
X1138744D01*
X1138359Y583997D01*
X1136540Y585213D01*
X1134394Y585640D01*
X1132248Y585213D01*
X1130429Y583997D01*
X1129213Y582178D01*
X1128786Y580032D01*
Y567032D01*
X1129213Y564886D01*
X1129283Y564781D01*
X1124139Y559637D01*
X1123034Y557983D01*
X1122646Y556032D01*
Y551032D01*
X1110744D01*
Y479347D01*
X1102954D01*
Y480632D01*
X1102954D01*
Y531432D01*
X1095252D01*
Y553032D01*
X1095654D01*
Y566032D01*
X1084654D01*
Y553032D01*
X1085056D01*
Y531432D01*
X1077449D01*
Y568444D01*
X1077591Y568539D01*
X1078807Y570358D01*
X1079234Y572504D01*
X1078807Y574650D01*
X1077591Y576469D01*
X1075772Y577685D01*
X1075772D01*
X1073626Y578112D01*
D01*
D01*
D01*
X1073626Y578112D01*
D01*
D01*
D01*
X1072762Y578032D01*
X1072762D01*
X1072762Y578032D01*
X1072335Y580178D01*
X1071925Y580792D01*
X1071924Y580792D01*
X1071412Y581559D01*
X1071119Y581997D01*
Y584067D01*
X1072335Y585886D01*
X1072762Y588032D01*
X1072335Y590178D01*
X1071119Y591997D01*
X1071259Y592459D01*
X1081826D01*
X1084654Y589630D01*
Y585074D01*
X1084546Y584532D01*
X1084654Y583990D01*
Y578032D01*
X1095654D01*
Y583990D01*
X1095762Y584532D01*
X1095654Y585074D01*
Y589630D01*
D01*
D01*
X1098154Y590674D01*
X1098154Y590674D01*
Y590674D01*
D01*
D01*
D01*
X1100300Y591101D01*
X1102119Y592317D01*
X1103335Y594136D01*
X1103762Y596282D01*
X1103335Y598428D01*
X1102119Y600247D01*
X1102411Y601209D01*
X1156744D01*
X1158207Y601500D01*
X1159448Y602328D01*
X1162498Y605378D01*
X1163326Y606619D01*
X1163617Y608082D01*
Y609972D01*
X1163759Y610067D01*
X1164975Y611886D01*
X1165402Y614032D01*
Y627032D01*
X1164975Y629178D01*
X1163759Y630997D01*
X1161940Y632213D01*
X1159794Y632640D01*
X1157648Y632213D01*
X1155829Y630997D01*
X1154613Y629178D01*
X1154186Y627032D01*
Y614032D01*
X1154601Y611948D01*
X1154474Y611793D01*
X1150078Y608855D01*
X1144110D01*
X1139714Y611793D01*
X1139587Y611948D01*
X1140002Y614032D01*
Y627032D01*
X1139575Y629178D01*
X1139492Y629302D01*
Y635782D01*
X1140244Y635782D01*
Y635782D01*
X1143489Y637777D01*
Y637777D01*
X1143489Y637777D01*
X1145143Y636672D01*
X1147094Y636284D01*
X1149045Y636672D01*
X1150699Y637777D01*
X1152349Y639427D01*
X1153454Y641081D01*
X1153842Y643032D01*
X1153454Y644983D01*
X1152349Y646637D01*
X1150695Y647742D01*
X1148744Y648130D01*
X1146793Y647742D01*
X1145139Y646637D01*
X1144852Y646349D01*
X1140992Y647400D01*
X1140244Y650282D01*
Y650282D01*
X1139059D01*
X1138352Y651144D01*
X1137925Y653290D01*
X1137842Y653414D01*
Y668032D01*
Y691351D01*
X1137454Y693302D01*
X1136349Y694956D01*
X1129668Y701637D01*
X1128014Y702742D01*
X1126063Y703130D01*
X1090654D01*
X1090654Y705282D01*
D01*
Y705782D01*
X1090654D01*
Y718953D01*
X1090654D01*
D01*
D01*
Y718954D01*
D01*
X1090654Y720282D01*
X1090654Y720665D01*
X1090654Y721782D01*
Y721782D01*
X1090654Y723110D01*
X1090654D01*
X1090654Y723111D01*
Y725209D01*
X1146254D01*
X1147717Y725500D01*
X1148958Y726328D01*
X1148958Y726328D01*
X1148958Y726328D01*
X1152787Y730157D01*
X1152954Y730124D01*
X1155100Y730551D01*
X1156919Y731767D01*
X1158135Y733586D01*
X1158562Y735732D01*
X1158135Y737878D01*
X1156919Y739697D01*
X1155100Y740913D01*
X1152954Y741340D01*
X1150808Y740913D01*
X1148989Y739697D01*
X1147773Y737878D01*
X1147346Y735732D01*
X1147380Y735565D01*
X1144670Y732855D01*
X1090654D01*
Y736282D01*
X1086628D01*
X1086554Y736393D01*
X1085858Y737436D01*
X1083780Y739514D01*
X1082539Y740342D01*
X1081076Y740633D01*
X1038167D01*
X1037300Y741213D01*
X1035154Y741640D01*
X1033008Y741213D01*
X1031189Y739997D01*
X1029973Y738178D01*
X1029546Y736032D01*
X1029858Y734462D01*
X1027636Y731136D01*
X1026639Y730938D01*
X1025262Y731212D01*
X1024835Y733358D01*
X1023619Y735177D01*
X1021800Y736393D01*
X1019654Y736820D01*
X1017508Y736393D01*
X1015689Y735177D01*
X1014473Y733358D01*
X1014046Y731212D01*
X1014473Y729066D01*
X1015689Y727247D01*
X1015831Y727152D01*
Y712762D01*
X1013854Y711140D01*
X1011708Y710713D01*
X1009889Y709497D01*
X1008712Y709381D01*
X1006026Y712345D01*
X1006262Y713532D01*
X1005835Y715678D01*
X1004619Y717497D01*
X1002800Y718713D01*
X1000654Y719140D01*
X998508Y718713D01*
X996689Y717497D01*
X995473Y715678D01*
X995199Y714298D01*
X994708Y713564D01*
X993245Y713855D01*
X991186D01*
X989904Y714110D01*
X976404D01*
X974843Y713800D01*
X973520Y712916D01*
X972636Y711593D01*
X972326Y710032D01*
X971360Y708855D01*
X965404D01*
X963941Y708564D01*
X963332Y708158D01*
X959637Y709688D01*
X959412Y710820D01*
X958583Y712060D01*
X958405Y712238D01*
X960593Y715514D01*
X962154Y715204D01*
X963715Y715514D01*
X964654Y716142D01*
X965593Y715514D01*
X967154Y715204D01*
X968715Y715514D01*
X970038Y716398D01*
X970922Y717721D01*
X971232Y719282D01*
Y732782D01*
X970922Y734343D01*
X970038Y735666D01*
X968715Y736550D01*
X967154Y736860D01*
X965593Y736550D01*
X964654Y735922D01*
X963715Y736550D01*
X962154Y736860D01*
X960593Y736550D01*
X959654Y735922D01*
X958715Y736550D01*
X957154Y736860D01*
X955593Y736550D01*
X954654Y735922D01*
X953715Y736550D01*
X952154Y736860D01*
X950593Y736550D01*
X949654Y735922D01*
X948715Y736550D01*
X947154Y736860D01*
X945593Y736550D01*
X944654Y735922D01*
X943715Y736550D01*
X942154Y736860D01*
X940593Y736550D01*
X939654Y735922D01*
X938715Y736550D01*
X937154Y736860D01*
X935593Y736550D01*
X934654Y735922D01*
X933715Y736550D01*
X932154Y736860D01*
X930593Y736550D01*
X929654Y735922D01*
X928715Y736550D01*
X927154Y736860D01*
X925593Y736550D01*
X924654Y735922D01*
X923715Y736550D01*
X922154Y736860D01*
X920593Y736550D01*
X919654Y735922D01*
X918715Y736550D01*
X917154Y736860D01*
X915593Y736550D01*
X914654Y735922D01*
X913715Y736550D01*
X912154Y736860D01*
X910593Y736550D01*
X909654Y735922D01*
X908715Y736550D01*
X907154Y736860D01*
X905593Y736550D01*
X904654Y735922D01*
X903715Y736550D01*
X902154Y736860D01*
X900593Y736550D01*
X899654Y735922D01*
X898715Y736550D01*
X897154Y736860D01*
X895593Y736550D01*
X894654Y735922D01*
X893715Y736550D01*
X892154Y736860D01*
X890593Y736550D01*
X889654Y735922D01*
X888715Y736550D01*
X887154Y736860D01*
X885593Y736550D01*
X884654Y735922D01*
X883715Y736550D01*
X882154Y736860D01*
X880593Y736550D01*
X879654Y735922D01*
X878715Y736550D01*
X877154Y736860D01*
X875593Y736550D01*
D01*
X872154Y736860D01*
X871534Y739976D01*
X900568Y769010D01*
X903384Y769570D01*
X905311Y769380D01*
X906189Y768067D01*
X908008Y766851D01*
X910154Y766424D01*
X912300Y766851D01*
X914119Y768067D01*
X915335Y769886D01*
X915762Y772032D01*
X915335Y774178D01*
X915340Y774188D01*
X1031993D01*
X1031993Y774188D01*
X1033220Y774432D01*
X1033465Y774481D01*
X1034712Y775314D01*
X1048586Y789188D01*
X1092454D01*
Y780332D01*
X1092456Y780334D01*
X1168656D01*
Y788273D01*
X1168905Y788322D01*
X1170559Y789427D01*
X1190759Y809627D01*
X1191864Y811281D01*
X1192252Y813232D01*
Y816782D01*
X1194654D01*
Y831282D01*
D01*
Y831282D01*
X1194654Y831282D01*
X1194654Y833782D01*
X1194654D01*
Y848282D01*
X1194654D01*
X1194654Y852670D01*
X1196858Y854874D01*
X1197686Y856114D01*
X1197977Y857578D01*
Y915032D01*
X1209839D01*
Y582932D01*
D02*
G37*
G36*
X1190331Y874575D02*
Y859161D01*
X1184450Y853281D01*
X1183622Y852041D01*
X1183331Y850577D01*
Y848282D01*
X1179654D01*
Y844492D01*
X1175826Y843331D01*
X1174963Y844622D01*
X1173309Y845727D01*
X1171358Y846115D01*
X1169408Y845727D01*
X1167754Y844622D01*
X1166649Y842968D01*
X1166261Y841018D01*
Y830130D01*
X1153816D01*
X1153809Y830137D01*
X1152155Y831242D01*
X1150204Y831630D01*
X1148253Y831242D01*
X1146599Y830137D01*
X1145939Y829149D01*
X1142112Y830311D01*
Y832032D01*
X1141685Y834178D01*
X1140469Y835997D01*
X1138650Y837213D01*
X1136504Y837640D01*
X1134358Y837213D01*
X1132539Y835997D01*
X1132154Y835421D01*
X1128154D01*
X1127769Y835997D01*
X1125950Y837213D01*
X1123804Y837640D01*
X1121658Y837213D01*
X1119839Y835997D01*
X1119839Y835997D01*
Y835997D01*
X1119593Y835876D01*
X1116419Y838311D01*
X1116762Y840032D01*
X1116335Y842178D01*
X1115119Y843997D01*
X1113787Y844887D01*
X1113787Y844887D01*
X1113787D01*
X1113300Y845213D01*
X1114136Y846049D01*
X1131433D01*
X1132009Y845934D01*
X1133960Y846322D01*
X1135286Y847209D01*
X1156154D01*
X1157617Y847500D01*
X1158858Y848328D01*
X1186635Y876106D01*
X1190331Y874575D01*
D02*
G37*
G36*
X1065585Y914500D02*
X1067048Y914209D01*
X1115570D01*
X1116904Y912875D01*
Y904945D01*
X1113208Y903414D01*
X1110986Y905637D01*
X1109332Y906742D01*
X1107654Y907076D01*
Y909282D01*
X1094482D01*
X1094482Y909282D01*
X1094482Y909282D01*
X1092654Y909282D01*
X1092154D01*
X1091654D01*
X1089826Y909282D01*
Y909282D01*
X1089826Y909282D01*
X1076654D01*
Y894782D01*
X1076654D01*
Y893870D01*
X1073826Y891042D01*
X1073653D01*
Y886749D01*
X1073531Y886724D01*
X1072290Y885895D01*
X1068450Y882056D01*
X1067622Y880815D01*
X1067331Y879352D01*
Y844032D01*
X1067622Y842569D01*
X1068450Y841328D01*
X1069450Y840328D01*
X1070691Y839500D01*
X1070904Y839457D01*
Y838532D01*
X1082404D01*
Y838532D01*
X1082404D01*
X1082404Y838532D01*
X1083090D01*
X1084626Y836660D01*
X1085451Y834916D01*
X1084110Y833282D01*
X1083654D01*
Y830697D01*
X1079826Y829536D01*
X1079759Y829637D01*
X1078105Y830742D01*
X1076154Y831130D01*
X1065904D01*
X1063953Y830742D01*
X1062299Y829637D01*
X1061194Y827983D01*
X1060806Y826032D01*
X1061194Y824081D01*
X1062299Y822427D01*
X1063953Y821322D01*
X1065904Y820934D01*
X1076154D01*
X1078105Y821322D01*
X1079759Y822427D01*
X1079826Y822528D01*
X1083654Y821367D01*
Y818782D01*
X1098654D01*
Y820934D01*
X1105496D01*
Y819032D01*
X1105923Y816886D01*
X1107139Y815067D01*
X1108958Y813851D01*
X1111104Y813424D01*
X1113250Y813851D01*
X1115458Y810546D01*
X1110644Y805732D01*
X1092454D01*
Y796876D01*
X1050138D01*
X1048607Y800571D01*
X1052509Y804473D01*
X1053614Y806127D01*
X1054002Y808077D01*
Y816782D01*
X1056654D01*
Y831282D01*
D01*
Y831282D01*
X1056654Y831282D01*
X1056654Y833782D01*
X1056654D01*
Y848282D01*
X1051977D01*
Y915032D01*
X1064788D01*
X1065585Y914500D01*
D02*
G37*
G36*
X781813Y914828D02*
X783054Y914000D01*
X784517Y913709D01*
X840554D01*
Y908482D01*
X839472Y907400D01*
X837026Y906093D01*
X836055Y906742D01*
X834104Y907130D01*
X830654D01*
Y909282D01*
X817483D01*
X817482Y909282D01*
X817482Y909282D01*
X815654Y909282D01*
X815154D01*
X814654D01*
X812826Y909282D01*
Y909282D01*
X812826Y909282D01*
X799654D01*
Y894782D01*
X799654D01*
Y892043D01*
X798653Y891042D01*
X798653D01*
Y886943D01*
X797556Y886724D01*
X796316Y885895D01*
X792476Y882056D01*
X791647Y880815D01*
X791356Y879352D01*
Y844032D01*
X791647Y842569D01*
X792476Y841328D01*
X793476Y840328D01*
X794716Y839500D01*
X795904Y839263D01*
Y838532D01*
X807404D01*
Y838532D01*
X807404D01*
X807404Y838532D01*
X808090D01*
X809626Y836660D01*
X810451Y834916D01*
X809110Y833282D01*
X808654D01*
Y829200D01*
X804826Y828039D01*
X803759Y829637D01*
X802105Y830742D01*
X800154Y831130D01*
X789930D01*
X787979Y830742D01*
X786325Y829637D01*
X785220Y827983D01*
X784832Y826032D01*
X785220Y824081D01*
X786325Y822427D01*
X787979Y821322D01*
X789930Y820934D01*
X800154D01*
X802105Y821322D01*
X803759Y822427D01*
X804826Y824025D01*
X808654Y822864D01*
Y818782D01*
X823654D01*
Y820434D01*
X829496D01*
Y819032D01*
X829923Y816886D01*
X831139Y815067D01*
X831269Y814980D01*
X831661Y810999D01*
X826395Y805732D01*
X816455D01*
Y780332D01*
X816457Y780334D01*
X830613D01*
X844219Y766728D01*
X842688Y763032D01*
X777206D01*
X776944Y767023D01*
X778964Y767289D01*
X781397Y768297D01*
X783486Y769900D01*
X785089Y771989D01*
X786097Y774421D01*
X786440Y777032D01*
X786097Y779642D01*
X785089Y782075D01*
X783486Y784164D01*
X781397Y785767D01*
X778964Y786775D01*
X776354Y787118D01*
X773744Y786775D01*
X771311Y785767D01*
X769222Y784164D01*
X767619Y782075D01*
X767579Y781979D01*
X763656Y782759D01*
Y789734D01*
X763656Y789734D01*
X760461Y792929D01*
Y802532D01*
X760654D01*
Y809193D01*
X762154Y810424D01*
X764300Y810851D01*
X766119Y812067D01*
X767335Y813886D01*
X767762Y816032D01*
X767335Y818178D01*
X766119Y819997D01*
X764300Y821213D01*
X762154Y821640D01*
X762076Y822032D01*
X762154Y822424D01*
X764300Y822851D01*
X766119Y824067D01*
X767335Y825886D01*
X767762Y828032D01*
X767335Y830178D01*
X766119Y831997D01*
X764300Y833213D01*
X762154Y833640D01*
X762076Y834032D01*
X762154Y834424D01*
X764300Y834851D01*
X766119Y836067D01*
X767335Y837886D01*
X767762Y840032D01*
X767335Y842178D01*
X766119Y843997D01*
X764300Y845213D01*
X762154Y845640D01*
X762076Y846032D01*
X762154Y846424D01*
X764300Y846851D01*
X766119Y848067D01*
X767335Y849886D01*
X767762Y852032D01*
X767335Y854178D01*
X766119Y855997D01*
X764300Y857213D01*
X762154Y857640D01*
X760654Y858871D01*
Y865532D01*
X760654D01*
Y866532D01*
X761654Y867532D01*
X761654D01*
Y883532D01*
X760461D01*
Y887934D01*
X760745Y887991D01*
X767904D01*
X769855Y888379D01*
X771509Y889484D01*
X772614Y891138D01*
X773002Y893089D01*
X772614Y895039D01*
X771509Y896693D01*
X769855Y897798D01*
X767904Y898186D01*
Y898760D01*
X770732Y901589D01*
X775154D01*
Y915032D01*
X781609D01*
X781813Y914828D01*
D02*
G37*
%LPC*%
G36*
X1048154Y780640D02*
X1046008Y780213D01*
X1044189Y778997D01*
X1042973Y777178D01*
X1042546Y775032D01*
X1042973Y772886D01*
X1044189Y771067D01*
X1045995Y769860D01*
X1044834Y766032D01*
X1039874D01*
X1039904Y748932D01*
X1183154D01*
Y766032D01*
X1051474D01*
X1050313Y769860D01*
X1052119Y771067D01*
X1053335Y772886D01*
X1053762Y775032D01*
X1053335Y777178D01*
X1052119Y778997D01*
X1050300Y780213D01*
X1048154Y780640D01*
D02*
G37*
G36*
X741154Y638428D02*
X717154D01*
X715457Y638205D01*
X713876Y637550D01*
X712518Y636508D01*
X711476Y635150D01*
X710821Y633569D01*
X710598Y631872D01*
X710821Y630175D01*
X711476Y628594D01*
X712518Y627236D01*
X713876Y626194D01*
X715457Y625539D01*
X717154Y625316D01*
X741154D01*
X742851Y625539D01*
X744432Y626194D01*
X745790Y627236D01*
X746832Y628594D01*
X747487Y630175D01*
X747710Y631872D01*
X747487Y633569D01*
X746832Y635150D01*
X745790Y636508D01*
X744432Y637550D01*
X742851Y638205D01*
X741154Y638428D01*
D02*
G37*
G36*
X1011154Y766032D02*
X925404D01*
Y749032D01*
X1011154D01*
Y766032D01*
D02*
G37*
%LPD*%
D10*
X1083154Y698032D02*
D03*
X1067154D02*
D03*
X1083154Y668032D02*
D03*
X1067154D02*
D03*
X1067154Y729032D02*
D03*
X1083154D02*
D03*
X1083154Y639032D02*
D03*
X1067154D02*
D03*
X807154Y902032D02*
D03*
X823154D02*
D03*
X816154Y826032D02*
D03*
X800154D02*
D03*
X894154Y824032D02*
D03*
X910154D02*
D03*
X1033154D02*
D03*
X1049154D02*
D03*
X1171154D02*
D03*
X1187154D02*
D03*
X612154Y859032D02*
D03*
X596154D02*
D03*
X596154Y843032D02*
D03*
X612154D02*
D03*
X646654Y567982D02*
D03*
X662654D02*
D03*
X1132744Y643032D02*
D03*
X1148744D02*
D03*
X1067154Y683032D02*
D03*
X1083154D02*
D03*
X946154Y902032D02*
D03*
X962154D02*
D03*
X1187154Y841032D02*
D03*
X1171154D02*
D03*
X1049154D02*
D03*
X1033154D02*
D03*
X910154D02*
D03*
X894154D02*
D03*
X1084154Y902032D02*
D03*
X1100154D02*
D03*
X665154Y619032D02*
D03*
X649154D02*
D03*
X668154Y692032D02*
D03*
X684154D02*
D03*
X650154Y709032D02*
D03*
X634154D02*
D03*
X634154Y692032D02*
D03*
X650154D02*
D03*
X1083154Y713032D02*
D03*
X1067154D02*
D03*
X1083154Y654032D02*
D03*
X1067154D02*
D03*
X1024154Y611032D02*
D03*
X1008154D02*
D03*
X1195154Y592282D02*
D03*
X1179154D02*
D03*
X1008154Y671032D02*
D03*
X1024154D02*
D03*
X1075154Y826032D02*
D03*
X1091154D02*
D03*
X937154D02*
D03*
X953154D02*
D03*
X632154Y619032D02*
D03*
X616154D02*
D03*
X612154Y878032D02*
D03*
X596154D02*
D03*
D11*
X717154Y631872D02*
D03*
Y652192D02*
D03*
X741154Y631872D02*
D03*
Y652192D02*
D03*
X593154Y641872D02*
D03*
Y662192D02*
D03*
X809154Y861872D02*
D03*
Y882192D02*
D03*
X946154Y861872D02*
D03*
Y882192D02*
D03*
X1084154Y861872D02*
D03*
Y882192D02*
D03*
D12*
X748154Y908532D02*
D03*
Y875532D02*
D03*
D13*
X767904Y909089D02*
D03*
Y893089D02*
D03*
X985804Y894032D02*
D03*
Y910032D02*
D03*
X1011204Y894032D02*
D03*
Y910032D02*
D03*
X702154Y897032D02*
D03*
Y881032D02*
D03*
X665154Y881032D02*
D03*
Y897032D02*
D03*
X634154Y881032D02*
D03*
Y897032D02*
D03*
X686154Y881032D02*
D03*
Y897032D02*
D03*
X769154Y538032D02*
D03*
Y522032D02*
D03*
X873654Y894032D02*
D03*
Y910032D02*
D03*
X800154Y538032D02*
D03*
Y522032D02*
D03*
X833154Y538032D02*
D03*
Y522032D02*
D03*
X785154Y538032D02*
D03*
Y522032D02*
D03*
X816154Y538032D02*
D03*
Y522032D02*
D03*
X849154Y538032D02*
D03*
Y522032D02*
D03*
X1149154Y894032D02*
D03*
Y910032D02*
D03*
X1124154Y894032D02*
D03*
Y910032D02*
D03*
X714154Y732032D02*
D03*
Y716032D02*
D03*
X864154Y522032D02*
D03*
Y538032D02*
D03*
X793154Y629032D02*
D03*
Y613032D02*
D03*
X809154Y629032D02*
D03*
Y613032D02*
D03*
X697154Y716032D02*
D03*
Y732032D02*
D03*
X847804Y910032D02*
D03*
Y894032D02*
D03*
X649154Y881032D02*
D03*
Y897032D02*
D03*
X793154Y591032D02*
D03*
Y575032D02*
D03*
X810154Y575032D02*
D03*
Y591032D02*
D03*
X697154Y554032D02*
D03*
Y570032D02*
D03*
X680154Y554032D02*
D03*
Y570032D02*
D03*
D14*
X938654Y843032D02*
D03*
X953654D02*
D03*
X1091654D02*
D03*
X1076654D02*
D03*
X816654D02*
D03*
X801654D02*
D03*
D15*
X1149204Y872532D02*
D03*
X1136504D02*
D03*
X1123804D02*
D03*
X1111104D02*
D03*
X1149204Y825532D02*
D03*
X1136504D02*
D03*
X1123804D02*
D03*
X1111104D02*
D03*
X1011204Y872532D02*
D03*
X998504D02*
D03*
X985804D02*
D03*
X973104D02*
D03*
X1011204Y825532D02*
D03*
X998504D02*
D03*
X985804D02*
D03*
X973104D02*
D03*
X873204Y872532D02*
D03*
X860504D02*
D03*
X847804D02*
D03*
X835104D02*
D03*
X873204Y825532D02*
D03*
X860504D02*
D03*
X847804D02*
D03*
X835104D02*
D03*
X1121694Y573532D02*
D03*
X1134394D02*
D03*
X1147094D02*
D03*
X1159794D02*
D03*
X1121694Y620532D02*
D03*
X1134394D02*
D03*
X1147094D02*
D03*
X1159794D02*
D03*
D16*
X672904Y818032D02*
D03*
D17*
X647404D02*
D03*
D18*
X633154Y844282D02*
D03*
Y850782D02*
D03*
Y857282D02*
D03*
Y863782D02*
D03*
X673125D02*
D03*
Y857282D02*
D03*
Y850782D02*
D03*
Y844282D02*
D03*
D19*
X678154Y729032D02*
D03*
Y713032D02*
D03*
D20*
X682154Y525532D02*
D03*
X695154D02*
D03*
X688654D02*
D03*
X701654D02*
D03*
X675654D02*
D03*
D21*
X651154Y497032D02*
D03*
X726154D02*
D03*
D22*
X677154D02*
D03*
X700154D02*
D03*
D23*
X1024154Y652032D02*
D03*
Y630032D02*
D03*
X1008154D02*
D03*
Y652032D02*
D03*
D24*
X805654Y646532D02*
D03*
Y709532D02*
D03*
X796654D02*
D03*
Y646532D02*
D03*
D25*
X631654Y732032D02*
D03*
X656654D02*
D03*
X637654Y584032D02*
D03*
X662654D02*
D03*
D26*
X1090154Y584532D02*
D03*
Y559532D02*
D03*
D27*
X723754Y554032D02*
D03*
X710554D02*
D03*
X653554D02*
D03*
X666754D02*
D03*
D28*
X660654Y653032D02*
D03*
X689654D02*
D03*
D29*
X708654Y834032D02*
D03*
X747654D02*
D03*
D30*
X613154Y643532D02*
D03*
Y662532D02*
D03*
X639154Y643532D02*
D03*
Y653032D02*
D03*
Y662532D02*
D03*
D31*
X792754Y1168032D02*
D03*
X843554D02*
D03*
X842554Y956032D02*
D03*
X791754D02*
D03*
X986554D02*
D03*
X935754D02*
D03*
X1130554D02*
D03*
X1079754D02*
D03*
X987554Y1169032D02*
D03*
X936754D02*
D03*
X1130554Y1170032D02*
D03*
X1079754D02*
D03*
D32*
X818154Y1271032D02*
D03*
X817154Y1059032D02*
D03*
X961154D02*
D03*
X1105154D02*
D03*
X962154Y1272032D02*
D03*
X1105154Y1273032D02*
D03*
D33*
X592154Y718532D02*
D03*
Y699532D02*
D03*
X616154Y709032D02*
D03*
D34*
X884154Y1192532D02*
D03*
Y1221532D02*
D03*
Y1023532D02*
D03*
Y1052532D02*
D03*
X1028154Y1192532D02*
D03*
Y1221532D02*
D03*
Y1023532D02*
D03*
Y1052532D02*
D03*
X1169154Y1192532D02*
D03*
Y1221532D02*
D03*
Y1023532D02*
D03*
Y1052532D02*
D03*
Y1152532D02*
D03*
Y1123532D02*
D03*
X1028154Y1152532D02*
D03*
Y1123532D02*
D03*
X884154Y1152532D02*
D03*
Y1123532D02*
D03*
X1169154Y1102532D02*
D03*
Y1073532D02*
D03*
X1028154Y1102532D02*
D03*
Y1073532D02*
D03*
X884154Y1102532D02*
D03*
Y1073532D02*
D03*
D35*
X624654Y818032D02*
D03*
X595654D02*
D03*
D36*
X831154Y710032D02*
D03*
Y705032D02*
D03*
Y700032D02*
D03*
Y695032D02*
D03*
Y690032D02*
D03*
Y685032D02*
D03*
Y680032D02*
D03*
Y675032D02*
D03*
Y670032D02*
D03*
Y665032D02*
D03*
Y660032D02*
D03*
Y655032D02*
D03*
Y650032D02*
D03*
Y645032D02*
D03*
Y640032D02*
D03*
Y635032D02*
D03*
Y630032D02*
D03*
Y625032D02*
D03*
Y620032D02*
D03*
Y615032D02*
D03*
Y610032D02*
D03*
Y605032D02*
D03*
Y600032D02*
D03*
Y595032D02*
D03*
Y590032D02*
D03*
X983154D02*
D03*
Y595032D02*
D03*
Y600032D02*
D03*
Y605032D02*
D03*
Y610032D02*
D03*
Y615032D02*
D03*
Y620032D02*
D03*
Y625032D02*
D03*
Y630032D02*
D03*
Y635032D02*
D03*
Y640032D02*
D03*
Y645032D02*
D03*
Y650032D02*
D03*
Y655032D02*
D03*
Y660032D02*
D03*
Y665032D02*
D03*
Y670032D02*
D03*
Y675032D02*
D03*
Y680032D02*
D03*
Y685032D02*
D03*
Y690032D02*
D03*
Y695032D02*
D03*
Y700032D02*
D03*
Y705032D02*
D03*
Y710032D02*
D03*
D37*
X847154Y574032D02*
D03*
X852154D02*
D03*
X857154D02*
D03*
X862154D02*
D03*
X867154D02*
D03*
X872154D02*
D03*
X877154D02*
D03*
X882154D02*
D03*
X887154D02*
D03*
X892154D02*
D03*
X897154D02*
D03*
X902154D02*
D03*
X907154D02*
D03*
X912154D02*
D03*
X917154D02*
D03*
X922154D02*
D03*
X927154D02*
D03*
X932154D02*
D03*
X937154D02*
D03*
X942154D02*
D03*
X947154D02*
D03*
X952154D02*
D03*
X957154D02*
D03*
X962154D02*
D03*
X967154D02*
D03*
Y726032D02*
D03*
X962154D02*
D03*
X957154D02*
D03*
X952154D02*
D03*
X947154D02*
D03*
X942154D02*
D03*
X937154D02*
D03*
X932154D02*
D03*
X927154D02*
D03*
X922154D02*
D03*
X917154D02*
D03*
X912154D02*
D03*
X907154D02*
D03*
X902154D02*
D03*
X897154D02*
D03*
X892154D02*
D03*
X887154D02*
D03*
X882154D02*
D03*
X877154D02*
D03*
X872154D02*
D03*
X867154D02*
D03*
X862154D02*
D03*
X857154D02*
D03*
X852154D02*
D03*
X847154D02*
D03*
D38*
X907154Y650032D02*
D03*
D39*
X852154Y726032D02*
Y764200D01*
X829154Y787200D02*
X852154Y764200D01*
X829154Y787200D02*
Y793032D01*
X912154Y716282D02*
Y726032D01*
X906154Y710282D02*
X912154Y716282D01*
X891154Y712032D02*
X892154Y713032D01*
Y726032D01*
X897034Y725912D02*
X897154Y726032D01*
X897034Y714152D02*
Y725912D01*
Y714152D02*
X899154Y712032D01*
X955879Y704032D02*
Y709357D01*
X950482Y714754D02*
X955879Y709357D01*
X945278Y714754D02*
X950482D01*
X922154Y709757D02*
Y726032D01*
Y709757D02*
X927879Y704032D01*
X932154Y715779D02*
Y726032D01*
Y715779D02*
X941879Y706053D01*
X927154Y714728D02*
Y726032D01*
Y714728D02*
X934879Y707003D01*
Y704032D02*
Y707003D01*
X941879Y704032D02*
Y706053D01*
X948879Y704032D02*
Y709032D01*
X947435Y710476D02*
X948879Y709032D01*
X943506Y710476D02*
X947435D01*
X937154Y716829D02*
X943506Y710476D01*
X937154Y716829D02*
Y726032D01*
X942154Y717878D02*
X945278Y714754D01*
X942154Y717878D02*
Y726032D01*
X965404Y705032D02*
X983154D01*
X958126Y697754D02*
X965404Y705032D01*
X958126Y596214D02*
Y697754D01*
X1014054Y516732D02*
X1028754Y531432D01*
X1061154Y582732D02*
X1066454Y588032D01*
X1061154Y542532D02*
Y582732D01*
X1065122Y627032D02*
X1067154D01*
X1037154Y665032D02*
X1050376Y651810D01*
X1037154Y665032D02*
Y678032D01*
X1050376Y641778D02*
X1065122Y627032D01*
X1050376Y641778D02*
Y651810D01*
X644153Y907031D02*
X645153D01*
X634154Y897032D02*
X644153Y907031D01*
X673125Y863782D02*
X681154D01*
X884154Y1102777D02*
X899597D01*
X901154Y1106032D02*
X906154D01*
X899597Y1104475D02*
X901154Y1106032D01*
X899597Y1102777D02*
Y1104475D01*
X912154Y937423D02*
Y1134399D01*
Y937423D02*
X934545Y915032D01*
X1045904Y1106032D02*
X1048154D01*
X1042404Y1102532D02*
X1045904Y1106032D01*
X1189601D02*
X1194154D01*
X1187154Y1103585D02*
X1189601Y1106032D01*
X1187154Y882032D02*
Y1103585D01*
X899814Y876016D02*
Y1102560D01*
X899597Y1102777D02*
X899814Y1102560D01*
X769154Y538032D02*
Y551944D01*
X800154Y546532D02*
X804654Y551032D01*
X800154Y538032D02*
Y546532D01*
X854654Y851032D02*
X874830D01*
X1132009D02*
X1156154D01*
X1028154Y1102632D02*
X1037054D01*
X932154Y584532D02*
X935654Y588032D01*
X932154Y574032D02*
Y584532D01*
X919154Y588532D02*
X923654D01*
X927154Y585032D01*
X877154Y585532D02*
X878153Y586532D01*
X877154Y574032D02*
Y585532D01*
X882154Y582715D02*
X886971Y587532D01*
X887654D01*
X882154Y574032D02*
Y582715D01*
X872154Y574032D02*
Y586032D01*
X863279Y594907D02*
X872154Y586032D01*
X867154Y574032D02*
Y584032D01*
X858154Y593032D02*
X867154Y584032D01*
X892154Y583152D02*
X897034Y588032D01*
X903154D01*
X892154Y574032D02*
Y583152D01*
X995812Y650032D02*
X996924Y651144D01*
X983154Y650032D02*
X995812D01*
X995154Y630032D02*
X996154Y631032D01*
X983154Y630032D02*
X995154D01*
X994836Y625032D02*
X997974Y621894D01*
X983154Y625032D02*
X994836D01*
X992018Y620032D02*
X996153Y615897D01*
X983154Y620032D02*
X992018D01*
X996153Y613533D02*
Y615897D01*
X863279Y594907D02*
Y681907D01*
X853792Y591344D02*
Y686353D01*
Y591344D02*
X862154Y582982D01*
Y574032D02*
Y582982D01*
X858154Y593032D02*
Y684533D01*
X887154Y562032D02*
X887154Y562032D01*
X887154Y562032D02*
Y574032D01*
X877154Y555032D02*
Y560652D01*
X882154Y565652D01*
Y574032D01*
X892682Y557759D02*
X895409Y555032D01*
X892682Y557759D02*
Y564322D01*
X892154Y564850D02*
X892682Y564322D01*
X892154Y564850D02*
Y574032D01*
X927154D02*
Y585032D01*
X818154Y623032D02*
Y628032D01*
X820154Y630032D01*
X831154D01*
X863279Y681907D02*
X880376Y699004D01*
X853792Y686353D02*
X871154Y703715D01*
X858154Y684533D02*
X878153Y704532D01*
X848154Y602032D02*
Y607652D01*
X845774Y610032D02*
X848154Y607652D01*
X831154Y610032D02*
X845774D01*
X964154Y628032D02*
X971154Y635032D01*
X983154D01*
X844154Y655032D02*
X848154Y651032D01*
X831154Y655032D02*
X844154D01*
X844404Y660032D02*
X847404Y663032D01*
X831154Y660032D02*
X844404D01*
X810904Y665032D02*
X831154D01*
X807904Y662032D02*
X810904Y665032D01*
X783154Y662032D02*
X807904D01*
X772154Y629370D02*
Y668782D01*
X777194Y666694D02*
X780532Y670032D01*
X777194Y627282D02*
Y666694D01*
X777154Y627242D02*
X777194Y627282D01*
X777154Y626032D02*
Y627242D01*
X772154Y668782D02*
X778404Y675032D01*
X761904Y619120D02*
X772154Y629370D01*
X749060Y597938D02*
X777154Y626032D01*
X691593Y616782D02*
X747154D01*
X662654Y587843D02*
X691593Y616782D01*
X964154Y644032D02*
Y646782D01*
X972404Y655032D01*
X983154D01*
X804654Y551032D02*
X814154D01*
X816476Y553354D01*
X816526D02*
X831154Y567982D01*
Y590032D01*
X816476Y553354D02*
X816526D01*
X774842Y557632D02*
X814754D01*
X1002822Y596282D02*
X1098154D01*
X1034432Y680754D02*
X1037154Y678032D01*
X1022523Y680754D02*
X1034432D01*
X993245Y710032D02*
X1022523Y680754D01*
X1041189Y685032D02*
X1047954Y678267D01*
X1026654Y685032D02*
X1041189D01*
X1011682Y700004D02*
X1026654Y685032D01*
X1028877Y689941D02*
X1044649D01*
X1013854Y704964D02*
X1028877Y689941D01*
X1030458Y694410D02*
X1048776D01*
X1019654Y705214D02*
X1030458Y694410D01*
X1048776D02*
X1056836Y686350D01*
X1044649Y689941D02*
X1052558Y682032D01*
X1033154Y700032D02*
X1036404D01*
X1027654Y705532D02*
X1033154Y700032D01*
X1047954Y663732D02*
Y678267D01*
Y663732D02*
X1054654Y657032D01*
X1052558Y666260D02*
Y682032D01*
Y666260D02*
X1064786Y654032D01*
X1056836Y668032D02*
Y686350D01*
X1019654Y705214D02*
Y731212D01*
X1056836Y668032D02*
X1067154D01*
X1027654Y705532D02*
Y725532D01*
X1054654Y651532D02*
Y657032D01*
X983154Y710032D02*
X993245D01*
X904054Y525932D02*
X942154Y564032D01*
Y574032D01*
X904054Y516732D02*
Y525932D01*
Y491332D02*
X917154Y504432D01*
Y528032D01*
X947154Y558032D01*
Y574032D01*
X952154Y550282D02*
Y574032D01*
X929454Y527582D02*
X952154Y550282D01*
X929454Y516732D02*
Y527582D01*
X957154Y546432D02*
Y574032D01*
X942154Y531432D02*
X957154Y546432D01*
X942154Y504032D02*
Y531432D01*
X962154Y541032D02*
Y574032D01*
X954854Y533732D02*
X962154Y541032D01*
X954854Y516732D02*
Y533732D01*
X929454Y491332D02*
X942154Y504032D01*
X954854Y491332D02*
X967154Y503632D01*
Y574032D01*
X885154Y703715D02*
Y707032D01*
X880443Y699004D02*
X885154Y703715D01*
X880376Y699004D02*
X880443D01*
X871154Y703715D02*
Y707032D01*
X781154Y575032D02*
X781154Y575032D01*
X793154D01*
X1054654Y651532D02*
X1067154Y639032D01*
X1000654Y710914D02*
X1011564Y700004D01*
X1000654Y710914D02*
Y713532D01*
X1011564Y700004D02*
X1011682D01*
X1064786Y654032D02*
X1067154D01*
X1013854Y704964D02*
Y705532D01*
X683954Y850782D02*
X691432Y858260D01*
X674125Y850782D02*
X683954D01*
X627403Y857282D02*
X634154D01*
X624210Y860474D02*
X627403Y857282D01*
X624210Y860474D02*
Y874976D01*
X703154Y876106D02*
Y881032D01*
X691432Y864384D02*
X703154Y876106D01*
X691432Y858260D02*
Y864384D01*
X674125Y857282D02*
X684404D01*
X687154Y860032D01*
Y881032D01*
X612972Y860047D02*
X618587D01*
X627793Y850842D01*
X634972D01*
X612336Y878047D02*
X621139D01*
X624210Y874976D01*
X1156154Y851032D02*
X1187154Y882032D01*
X849154Y910032D02*
Y915396D01*
X847018Y917532D02*
X849154Y915396D01*
X784517Y917532D02*
X847018D01*
X866820Y924032D02*
X874154Y916698D01*
X1009510Y922342D02*
X1012154Y919698D01*
X949522Y922342D02*
X1009510D01*
X940832Y931032D02*
X949522Y922342D01*
X982154Y915032D02*
X987154Y910032D01*
X1012154D02*
Y919698D01*
X994154Y851032D02*
X1012154D01*
X799020Y883192D02*
X809180D01*
X795180Y879352D02*
X799020Y883192D01*
X795180Y844032D02*
Y879352D01*
Y844032D02*
X796180Y843032D01*
X801680D01*
X934154D02*
X939654D01*
X933154Y844032D02*
X934154Y843032D01*
X933154Y844032D02*
Y879352D01*
X936994Y883192D01*
X947154D01*
X1074994D02*
X1085154D01*
X1071154Y879352D02*
X1074994Y883192D01*
X1071154Y844032D02*
Y879352D01*
Y844032D02*
X1072154Y843032D01*
X1077654D01*
X1147154Y923577D02*
X1150154Y920577D01*
X1090287Y923577D02*
X1147154D01*
X1082154Y931710D02*
X1090287Y923577D01*
X1117154Y918032D02*
X1125154Y910032D01*
X1067048Y918032D02*
X1117154D01*
X1150154Y910032D02*
Y920577D01*
X820404Y595032D02*
X831154D01*
X819314Y593942D02*
X820404Y595032D01*
X819314Y562192D02*
Y593942D01*
X814754Y557632D02*
X819314Y562192D01*
X769154Y551944D02*
X774842Y557632D01*
X831154Y615032D02*
X831432Y615310D01*
X842052D01*
X848154Y621412D01*
Y627032D01*
X1083154Y729032D02*
X1146254D01*
X1152954Y735732D01*
X1035154Y736032D02*
X1035932Y736810D01*
X1081076D01*
X1083154Y734732D01*
Y729032D02*
Y734732D01*
X798682Y924032D02*
X866820D01*
X874154Y910032D02*
Y916698D01*
X831154Y705032D02*
X850154D01*
X778404Y675032D02*
X778404D01*
X778444Y675072D01*
X680154Y570032D02*
Y579999D01*
X686134Y585979D01*
X697154Y570032D02*
Y579999D01*
X691174Y585979D02*
X697154Y579999D01*
X691174Y585979D02*
Y595532D01*
X693580Y597938D01*
X686134Y585979D02*
Y597620D01*
X691492Y602978D01*
X745762D01*
X761904Y619120D01*
X750761Y607977D02*
X761904Y619120D01*
Y619120D02*
Y619120D01*
X688654Y525532D02*
Y538499D01*
X697154Y546999D01*
Y554032D01*
X682154Y525532D02*
Y544999D01*
X680154Y546999D02*
X682154Y544999D01*
X680154Y546999D02*
Y554032D01*
X693580Y597938D02*
X749060D01*
X666754Y554032D02*
X680154D01*
X680154Y554032D01*
X697154Y554032D02*
X710554D01*
X697154Y554032D02*
X697154Y554032D01*
X983154Y645032D02*
X1001154D01*
X1008154Y652032D01*
X983154Y640032D02*
X983182Y640060D01*
X1021826D01*
X1024154Y637732D01*
Y630032D02*
Y637732D01*
X1159794Y608082D02*
Y620532D01*
X964154Y660032D02*
X983154D01*
X964154Y660032D02*
X964154Y660032D01*
X983154Y670032D02*
X994154D01*
X996154Y672032D01*
X983154Y665032D02*
X994154D01*
X996154Y663032D01*
X778444Y675072D02*
X831154D01*
X780532Y670032D02*
X831154D01*
X810904Y635032D02*
X831154D01*
X809154Y636782D02*
X810904Y635032D01*
X821404Y640032D02*
X831154D01*
X811682Y649754D02*
X821404Y640032D01*
X811682Y649754D02*
Y653786D01*
X809436Y656032D02*
X811682Y653786D01*
X798154Y656032D02*
X809436D01*
X796654Y654532D02*
X798154Y656032D01*
X796654Y646532D02*
Y654532D01*
X983154Y600032D02*
X999072D01*
X1002822Y596282D01*
X747154Y616782D02*
X766055Y635683D01*
Y661933D01*
X766154Y662032D01*
X662654Y584032D02*
Y587843D01*
X1073626Y529252D02*
Y572504D01*
X1078154Y503432D02*
Y524724D01*
X1073626Y529252D02*
X1078154Y524724D01*
X1052154Y504032D02*
Y523164D01*
X1067154Y538164D01*
Y578032D01*
X995554Y519632D02*
X1010754Y504432D01*
X1026354D01*
X1039454Y491332D01*
X1028754Y531432D02*
X1050054D01*
X1061154Y542532D01*
X991032Y514354D02*
Y529032D01*
X995554Y519632D02*
Y531632D01*
X983154Y544032D02*
Y590032D01*
Y544032D02*
X995554Y531632D01*
X958126Y596214D02*
X975454Y578886D01*
Y544610D02*
Y578886D01*
Y544610D02*
X991032Y529032D01*
Y514354D02*
X1014054Y491332D01*
X1078154Y503432D02*
X1090254Y491332D01*
X1052154Y504032D02*
X1064854Y491332D01*
X1067154Y493632D01*
X1156744Y605032D02*
X1159794Y608082D01*
X1017900Y603254D02*
X1030408D01*
X1032182Y605028D01*
Y605032D01*
X1156744D01*
X983154D02*
X1000126D01*
Y605028D02*
Y605032D01*
Y605028D02*
X1001900Y603254D01*
X1017900D01*
X917154Y709532D02*
Y726032D01*
X765154Y936895D02*
X784517Y917532D01*
X765154Y936895D02*
Y1128675D01*
X783800Y1147321D01*
X874830Y851032D02*
X899814Y876016D01*
X905654Y855646D02*
Y1049032D01*
Y855646D02*
X910154Y851146D01*
Y841032D02*
Y851146D01*
X934545Y915032D02*
X982154D01*
X1054154Y1134567D02*
X1065130Y1145543D01*
X1054154Y930926D02*
X1067048Y918032D01*
X1054154Y930926D02*
Y1134567D01*
X1012154Y851032D02*
X1042154Y881032D01*
X1048154Y842032D02*
X1049154Y841032D01*
X1194154Y857578D02*
Y1049032D01*
X1187154Y850577D02*
X1194154Y857578D01*
X1187154Y841032D02*
Y850577D01*
X1048154Y842032D02*
Y1048032D01*
X1042154Y881032D02*
Y1102282D01*
X1028154Y1102532D02*
X1042404D01*
X1042154Y1102282D02*
X1042404Y1102532D01*
X1169154D02*
X1186101D01*
X1205154Y1181032D02*
Y1186030D01*
Y1183531D01*
X1190159D01*
X1192658Y1181032D01*
D40*
X972604Y826032D02*
X973154Y826582D01*
X835104Y825532D02*
Y840032D01*
X748154Y835532D02*
X749404Y834282D01*
X953154Y826032D02*
Y842532D01*
X1150204Y826532D02*
X1151704Y825032D01*
X1012204Y826532D02*
X1013704Y825032D01*
X874204Y826532D02*
X875704Y825032D01*
X1171358D02*
Y841018D01*
X596154Y818192D02*
Y859032D01*
X607154Y619032D02*
X616154D01*
X593154Y633032D02*
X607154Y619032D01*
X593154Y633032D02*
Y641872D01*
X717154Y653032D02*
Y663032D01*
X625314Y818032D02*
Y842883D01*
X710229Y897032D02*
X713488Y893772D01*
Y838866D02*
Y893772D01*
X709654Y835032D02*
X713488Y838866D01*
X703154Y897032D02*
X710229D01*
X760461Y893032D02*
X760517Y893089D01*
X767904D01*
X596154Y878032D02*
Y889032D01*
X1132744Y668032D02*
Y691351D01*
Y651144D02*
Y668032D01*
X1083154D02*
X1132744D01*
X1126063Y698032D02*
X1132744Y691351D01*
X1083154Y698032D02*
X1126063D01*
X1083154D02*
Y713032D01*
Y654032D02*
Y668032D01*
Y639032D02*
Y654032D01*
X665154Y897032D02*
X669651D01*
X684154Y911535D02*
X712151D01*
X669651Y897032D02*
X684154Y911535D01*
X712151D02*
X748154Y875532D01*
X854654Y851032D02*
X860504Y856882D01*
X853654Y850032D02*
X854654Y851032D01*
X809154Y853032D02*
Y861872D01*
Y853032D02*
X812154Y850032D01*
X853654D01*
X1132123Y851146D02*
X1136504Y855527D01*
X1132009Y851032D02*
X1132123Y851146D01*
X1087040D02*
X1132123D01*
X1084154Y854032D02*
Y861872D01*
Y854032D02*
X1087040Y851146D01*
X946154Y854032D02*
Y861872D01*
Y854032D02*
X949154Y851032D01*
X994154D01*
X1111104Y825532D02*
X1111154Y825582D01*
Y840032D01*
X973154Y826582D02*
Y840032D01*
X656654Y732032D02*
Y738782D01*
X697154Y732032D02*
Y744032D01*
X740654Y663032D02*
X741154Y662532D01*
Y652192D02*
Y662532D01*
X740654Y663032D02*
X746154D01*
X735154D02*
X740654D01*
X717154Y652192D02*
Y653032D01*
Y663032D02*
X722154D01*
X712154D02*
X717154D01*
X809436Y564032D02*
Y574314D01*
X810154Y575032D01*
X1049154Y824282D02*
Y841032D01*
X1049154Y841032D01*
X910154Y841032D02*
X910154Y841032D01*
X910154Y824032D02*
X910154Y824032D01*
X910154Y824032D02*
Y841032D01*
X625165Y843032D02*
X625314Y842883D01*
X612154Y843032D02*
X625165D01*
X626475Y844342D01*
X1157154Y825032D02*
X1167454D01*
X1151704D02*
X1157154D01*
X1013704D02*
X1029454D01*
X881154D02*
X891454D01*
X875704D02*
X881154D01*
X596154Y818192D02*
X596314Y818032D01*
X1187358Y825017D02*
Y841017D01*
X1187358Y841018D02*
X1187358Y841017D01*
X809180Y883192D02*
X809180Y883192D01*
Y902282D01*
X947154Y883192D02*
Y902282D01*
X947154Y883192D02*
X947154Y883192D01*
X1085154Y883192D02*
X1085154Y883192D01*
Y902282D01*
X1136504Y855527D02*
Y872532D01*
X1149204D02*
Y893982D01*
X1149154Y894032D02*
X1149204Y893982D01*
X1123804Y872532D02*
Y893682D01*
X1124154Y894032D01*
X1111104Y872532D02*
Y898309D01*
X1107381Y902032D02*
X1111104Y898309D01*
X1100154Y902032D02*
X1107381D01*
X1091154Y826032D02*
Y835032D01*
X1091154Y835032D01*
Y842532D01*
X1091154Y826032D02*
X1110604D01*
X953154D02*
X972604D01*
X998504Y855382D02*
Y872532D01*
X994154Y851032D02*
X998504Y855382D01*
X973104Y872532D02*
Y900386D01*
X971458Y902032D02*
X973104Y900386D01*
X962154Y902032D02*
X971458D01*
X816654Y825532D02*
X835104D01*
X816154Y826032D02*
X816654Y825532D01*
X860504Y856882D02*
Y872532D01*
X847804D02*
Y894032D01*
X873204Y872532D02*
Y893582D01*
X873654Y894032D01*
X835104Y872532D02*
Y901032D01*
X834104Y902032D02*
X835104Y901032D01*
X823154Y902032D02*
X834104D01*
X1011204Y872532D02*
Y894032D01*
X985804Y872532D02*
Y894032D01*
X793154Y591032D02*
X810154D01*
X789930Y826032D02*
X800154D01*
X596154Y859032D02*
Y860032D01*
X927904Y826032D02*
X937154D01*
X938154D01*
X1065904D02*
X1075154D01*
X1076154D01*
X1123804Y811682D02*
Y825532D01*
X1105154Y793032D02*
X1123804Y811682D01*
X1136504Y811682D02*
Y825532D01*
X1130554Y805732D02*
X1136504Y811682D01*
X1130554Y793032D02*
Y805732D01*
X1187154Y813232D02*
Y824032D01*
X1155954Y793032D02*
X1166954D01*
X1187154Y813232D01*
X965154Y801532D02*
X971154Y807532D01*
X981654D01*
X985804Y811682D01*
Y825532D01*
X992554Y802432D02*
X998504Y808382D01*
Y825532D01*
X1017954Y793032D02*
X1033858D01*
X1048904Y808077D01*
X829154Y793032D02*
Y801282D01*
X835904Y808032D01*
X841654D01*
X847804Y814182D01*
Y825532D01*
X854554Y793032D02*
Y803432D01*
X860504Y809382D01*
Y825532D01*
X879954Y793032D02*
X895154D01*
X910154Y808032D01*
Y824032D01*
X650154Y692032D02*
X668154D01*
X650154D02*
Y709032D01*
X650154Y709032D02*
X650154Y709032D01*
X690932Y716032D02*
X697154D01*
X687932Y713032D02*
X690932Y716032D01*
X678154Y713032D02*
X687932D01*
X697154Y732032D02*
X713154D01*
X668154Y692032D02*
Y701032D01*
X671404Y704282D01*
X711904D01*
X714154Y706532D01*
Y716032D01*
X597154Y732032D02*
X631654D01*
X592154Y727032D02*
X597154Y732032D01*
X592154Y718532D02*
Y727032D01*
X616154Y709032D02*
X634154D01*
X615154Y692032D02*
X634154D01*
X607654Y699532D02*
X615154Y692032D01*
X592154Y699532D02*
X607654D01*
X613154Y662532D02*
X621404D01*
X625154Y658782D01*
Y648532D02*
Y658782D01*
Y648532D02*
X630154Y643532D01*
X639154D01*
X613154Y636412D02*
Y643532D01*
Y636412D02*
X615784Y633782D01*
X628404D01*
X632154Y630032D01*
Y619032D02*
Y630032D01*
X593494Y662532D02*
X613154D01*
X593154Y662192D02*
X593494Y662532D01*
X592154Y688032D02*
Y699532D01*
X593154Y662192D02*
Y672032D01*
X581865Y683321D02*
X593154Y672032D01*
X581865Y683321D02*
Y714743D01*
X585654Y718532D01*
X592154D01*
X646154Y554032D02*
X653554D01*
X723754D02*
X731154D01*
X1024154Y611032D02*
Y630032D01*
X1008154Y652032D02*
Y671032D01*
X1008154Y671032D01*
X1024154Y652032D02*
X1024154Y652032D01*
X1134394Y620532D02*
Y641382D01*
X1147094Y641382D02*
X1148744Y643032D01*
X1134394Y562682D02*
Y573532D01*
X1127744Y556032D02*
X1134394Y562682D01*
X1127744Y540032D02*
Y556032D01*
X1147094Y563082D02*
Y573532D01*
Y563082D02*
X1153144Y557032D01*
Y540032D02*
Y557032D01*
X805654Y640282D02*
Y646532D01*
Y640282D02*
X809154Y636782D01*
Y629032D02*
Y636782D01*
X796654Y640032D02*
Y646532D01*
X793154Y636532D02*
X796654Y640032D01*
X793154Y629032D02*
Y636532D01*
X662654Y567982D02*
Y584032D01*
X629154D02*
X637654D01*
X629154Y584032D02*
X629154Y584032D01*
X1195154Y570232D02*
Y592282D01*
X1195154Y592282D02*
X1195154Y592282D01*
X1132744Y643032D02*
X1134394Y641382D01*
X1132744Y643032D02*
Y651144D01*
X996154Y631032D02*
X1007154D01*
X1008154Y630032D01*
X1060154Y729032D02*
X1067154D01*
X992554Y793032D02*
Y802432D01*
X965154Y793032D02*
Y801532D01*
X894154Y824032D02*
Y841032D01*
X894154Y841032D02*
X894154Y841032D01*
X1033359Y825032D02*
Y841018D01*
X1048904Y808077D02*
Y824032D01*
X649154Y897032D02*
X665154D01*
X665154Y897032D01*
X816154Y826032D02*
Y835032D01*
Y842532D01*
X1090154Y518832D02*
Y559532D01*
Y518832D02*
X1090254Y518732D01*
X696670Y745072D02*
X696932Y744810D01*
X662944Y745072D02*
X696670D01*
X656654Y738782D02*
X662944Y745072D01*
D41*
X717154Y653032D02*
X740314D01*
X689654D02*
X717154D01*
X634154Y881032D02*
X666154D01*
X769154Y522032D02*
X785154D01*
X769154Y497032D02*
Y522032D01*
Y497032D02*
X770154Y496032D01*
X800154Y522032D02*
X816154D01*
X800154Y511074D02*
Y522032D01*
X795554Y506474D02*
X800154Y511074D01*
X795554Y496032D02*
Y506474D01*
X820954Y496032D02*
X821245D01*
X833154Y507941D01*
Y522032D01*
X849154D01*
X864154Y503632D02*
Y522032D01*
Y503632D02*
X871754Y496032D01*
X632154Y619032D02*
X649154D01*
X665154D02*
X683904D01*
X689654Y624782D01*
Y653032D01*
X717154Y631872D02*
X729154D01*
X741154D01*
X747154Y909532D02*
X747598Y909089D01*
X748154Y908532D01*
X747598Y909089D02*
X767904D01*
D42*
X626475Y844342D02*
X634972D01*
D43*
X855554Y1114032D02*
X884154D01*
X1140203Y1113581D02*
X1169154D01*
Y1103631D02*
X1170154Y1102630D01*
X884154Y1114032D02*
Y1123532D01*
Y1102777D02*
Y1114032D01*
X854554Y1115032D02*
X855554Y1114032D01*
X999154Y1113032D02*
X1028154D01*
X1169154Y1113581D02*
Y1123532D01*
Y1103631D02*
Y1113581D01*
X1139654Y1113032D02*
X1140203Y1113581D01*
X1028154Y1113032D02*
Y1123532D01*
Y1102632D02*
Y1113032D01*
X884154Y1052532D02*
Y1073532D01*
Y1002332D02*
Y1023532D01*
X882654Y1000832D02*
X884154Y1002332D01*
X1028154Y1152532D02*
Y1192532D01*
Y1003184D02*
Y1023532D01*
X1027702Y1002732D02*
X1028154Y1003184D01*
X1169154Y1152532D02*
Y1192532D01*
Y1005032D02*
Y1023532D01*
Y1052532D02*
Y1073532D01*
D44*
X912154Y1134399D02*
X924314Y1146559D01*
X857389Y714734D02*
X864153Y707970D01*
X847154Y717850D02*
Y726032D01*
Y717850D02*
X850270Y714734D01*
X857389D01*
X831154Y710032D02*
X831404Y710282D01*
X853995D01*
X935386Y1168908D02*
X935714Y1168580D01*
X810154Y591032D02*
X810154Y591032D01*
X862154Y726032D02*
Y736032D01*
X904154Y778032D01*
X864153Y704532D02*
Y707970D01*
X857154Y726032D02*
Y738032D01*
X810154Y591032D02*
Y594532D01*
X820654Y605032D01*
X831154D01*
X853995Y710282D02*
X857245Y707032D01*
X857154Y738032D02*
X903677Y784555D01*
X956677D01*
X965154Y793032D01*
X904154Y778032D02*
X1031993D01*
X1046993Y793032D01*
X1105154D01*
D45*
X833154Y538032D02*
Y560032D01*
X847154Y574032D01*
D46*
X678154Y729032D02*
Y738032D01*
X684154Y692032D02*
X696154D01*
X701654Y525532D02*
X708654D01*
X674125Y844282D02*
X682844D01*
X634154Y881032D02*
X634154Y881032D01*
X634154Y863782D02*
Y881032D01*
X675654Y525532D02*
Y538032D01*
X671654Y542032D02*
X675654Y538032D01*
X644404Y542032D02*
X671654D01*
X636154Y550282D02*
X644404Y542032D01*
X646654Y568532D02*
Y570668D01*
X636154Y550282D02*
Y558032D01*
X646654Y568532D01*
X677972Y737850D02*
X678154Y738032D01*
X677972Y736032D02*
Y737850D01*
D47*
X651154Y662532D02*
X660654Y653032D01*
X639154Y662532D02*
X651154D01*
X690154Y834282D02*
Y844282D01*
X700404D01*
X682844D02*
X690154D01*
X673904Y818032D02*
X690154Y834282D01*
X700404Y844282D02*
X709654Y835032D01*
D48*
X748154Y835532D02*
Y875532D01*
D49*
X935754Y936110D02*
X940832Y931032D01*
X935754Y936110D02*
Y956222D01*
X1079754Y934110D02*
X1082154Y931710D01*
X1079754Y934110D02*
Y956222D01*
X924314Y1146559D02*
X937522Y1159767D01*
X1065130Y1145543D02*
X1080099Y1160512D01*
X791754Y931238D02*
Y956032D01*
Y931238D02*
X798682Y924310D01*
X783800Y1147321D02*
X792154Y1155675D01*
D50*
X937522Y1159767D02*
Y1169635D01*
X1080099Y1160512D02*
Y1170618D01*
D51*
X884154Y1152532D02*
Y1192532D01*
D52*
X1028154Y1052532D02*
Y1073532D01*
D53*
X980254Y493332D02*
D03*
Y518732D02*
D03*
X1090254Y493332D02*
D03*
Y518732D02*
D03*
D54*
X954854Y493332D02*
D03*
X929454D02*
D03*
X904054D02*
D03*
Y518732D02*
D03*
X929454D02*
D03*
X954854D02*
D03*
X627654Y1055032D02*
D03*
Y1228032D02*
D03*
X1064854Y493332D02*
D03*
X1039454D02*
D03*
X1014054D02*
D03*
Y518732D02*
D03*
X1039454D02*
D03*
X1064854D02*
D03*
D55*
X1155954Y793032D02*
D03*
X1130554D02*
D03*
X1015954D02*
D03*
X990554D02*
D03*
X879954D02*
D03*
X854554D02*
D03*
X1195154Y519432D02*
D03*
Y544832D02*
D03*
Y570232D02*
D03*
X1153144Y540032D02*
D03*
X795554Y496032D02*
D03*
X820954D02*
D03*
X846354D02*
D03*
X871754D02*
D03*
X725554Y777032D02*
D03*
X750954D02*
D03*
X776354D02*
D03*
X801754D02*
D03*
D56*
X1105154Y793032D02*
D03*
X965154D02*
D03*
X829154D02*
D03*
X1127744Y540032D02*
D03*
X770154Y496032D02*
D03*
X700154Y777032D02*
D03*
D57*
X773154Y594682D02*
D03*
D58*
Y607382D02*
D03*
D59*
X1195154Y494032D02*
D03*
D60*
X597154Y500032D02*
D03*
X1187154Y1295032D02*
D03*
X590497Y776032D02*
D03*
D61*
X702654Y1055032D02*
D03*
Y1228032D02*
D03*
D62*
X796654Y709532D02*
D03*
X805654D02*
D03*
X639154Y653032D02*
D03*
X616154Y619032D02*
D03*
X620986Y571032D02*
D03*
Y553632D02*
D03*
Y538032D02*
D03*
X603029Y571499D02*
D03*
Y554099D02*
D03*
Y538499D02*
D03*
X585654D02*
D03*
Y554099D02*
D03*
Y571499D02*
D03*
X899154Y712032D02*
D03*
X891154D02*
D03*
X1000154Y685032D02*
D03*
X927879Y704032D02*
D03*
X934879D02*
D03*
X941879D02*
D03*
X948879D02*
D03*
X955879D02*
D03*
X1194154Y622875D02*
D03*
X1172154D02*
D03*
X1171154Y642032D02*
D03*
X1150504Y716032D02*
D03*
X1150204Y698032D02*
D03*
Y677032D02*
D03*
Y659254D02*
D03*
X1171658Y716032D02*
D03*
X1171358Y698032D02*
D03*
Y677032D02*
D03*
Y659254D02*
D03*
X1194154Y642032D02*
D03*
Y659254D02*
D03*
Y677032D02*
D03*
Y698032D02*
D03*
X1194454Y716032D02*
D03*
X1082154Y612032D02*
D03*
X1083154Y624232D02*
D03*
X1100956Y612032D02*
D03*
Y624232D02*
D03*
Y639032D02*
D03*
X1117154D02*
D03*
Y654032D02*
D03*
X1002972Y572032D02*
D03*
X1018982Y558032D02*
D03*
X1002944Y557032D02*
D03*
X1047954Y624232D02*
D03*
X1067154Y588032D02*
D03*
Y627032D02*
D03*
X1100956Y654032D02*
D03*
X725154Y911032D02*
D03*
X645153Y907031D02*
D03*
X686154Y897032D02*
D03*
X681154Y863782D02*
D03*
X760461Y893032D02*
D03*
X906154Y1106032D02*
D03*
X1194154D02*
D03*
X596154Y889032D02*
D03*
X1024154Y671032D02*
D03*
X1083154Y668032D02*
D03*
X1083154Y683032D02*
D03*
X833154Y538032D02*
D03*
X800154D02*
D03*
X769154Y538032D02*
D03*
X696932Y744810D02*
D03*
X935654Y588032D02*
D03*
X919154Y588532D02*
D03*
X878153Y586532D02*
D03*
X887654Y587532D02*
D03*
X903154Y588032D02*
D03*
X906154Y710282D02*
D03*
X916154Y709532D02*
D03*
X996924Y651144D02*
D03*
X996154Y631032D02*
D03*
X997974Y621894D02*
D03*
X996153Y613533D02*
D03*
X887154Y562032D02*
D03*
X912154Y555032D02*
D03*
X818154Y623032D02*
D03*
X848154Y602032D02*
D03*
X847404Y663032D02*
D03*
X848154Y651032D02*
D03*
X766154Y662032D02*
D03*
X783154D02*
D03*
X964154Y644032D02*
D03*
Y628032D02*
D03*
X882654Y638282D02*
D03*
X894654D02*
D03*
X918654D02*
D03*
X930654D02*
D03*
X906654D02*
D03*
X882654Y661782D02*
D03*
X894654D02*
D03*
X918654D02*
D03*
X930654D02*
D03*
X906654D02*
D03*
X930654Y650032D02*
D03*
X918654D02*
D03*
X882654D02*
D03*
X894654D02*
D03*
X906654D02*
D03*
X882654Y626532D02*
D03*
X894654D02*
D03*
X918654D02*
D03*
X930654D02*
D03*
X906654D02*
D03*
Y673532D02*
D03*
X930654D02*
D03*
X918654D02*
D03*
X894654D02*
D03*
X882654D02*
D03*
X1111154Y840032D02*
D03*
X973154D02*
D03*
X835154D02*
D03*
X696154Y692032D02*
D03*
X712154Y663032D02*
D03*
X746154D02*
D03*
X735154D02*
D03*
X722154D02*
D03*
X708654Y525532D02*
D03*
X785154Y538032D02*
D03*
X864154Y538032D02*
D03*
X849154Y538032D02*
D03*
X816154D02*
D03*
X809436Y564032D02*
D03*
X895409Y555032D02*
D03*
X877154D02*
D03*
X1073626Y572504D02*
D03*
X1067154Y578032D02*
D03*
X1036404Y700032D02*
D03*
X1027654Y725532D02*
D03*
X1067154Y698032D02*
D03*
X1019654Y731212D02*
D03*
X885154Y707032D02*
D03*
X857154D02*
D03*
X871154D02*
D03*
X878153Y704532D02*
D03*
X910154Y824032D02*
D03*
X864153Y704532D02*
D03*
X781154Y575032D02*
D03*
X1013854Y705532D02*
D03*
X1000654Y713532D02*
D03*
X648404Y818032D02*
D03*
X596154Y818192D02*
D03*
X625314Y818032D02*
D03*
X881154Y825032D02*
D03*
X1157154D02*
D03*
X789930Y826032D02*
D03*
X927904D02*
D03*
X1171358Y833018D02*
D03*
X1091154Y835032D02*
D03*
X1065904Y826032D02*
D03*
X742154Y965032D02*
D03*
X1002038Y1154307D02*
D03*
Y1166753D02*
D03*
Y1180215D02*
D03*
X857842Y1154561D02*
D03*
Y1168531D02*
D03*
Y1181739D02*
D03*
X972320Y1167392D02*
D03*
X603029Y1289976D02*
D03*
Y1273790D02*
D03*
Y1256264D02*
D03*
X617730Y1289976D02*
D03*
Y1273790D02*
D03*
Y1256264D02*
D03*
X636797Y1289976D02*
D03*
Y1273790D02*
D03*
Y1256264D02*
D03*
X603029Y1308896D02*
D03*
X617730D02*
D03*
X636797D02*
D03*
X603029Y1178416D02*
D03*
Y1204902D02*
D03*
X617730Y1178416D02*
D03*
Y1204902D02*
D03*
X636797Y1178416D02*
D03*
Y1204902D02*
D03*
X603029Y1134290D02*
D03*
Y1086792D02*
D03*
Y1110414D02*
D03*
X617730Y1134290D02*
D03*
Y1086792D02*
D03*
Y1110414D02*
D03*
X636797Y1134290D02*
D03*
Y1086792D02*
D03*
Y1110414D02*
D03*
X603029Y1156950D02*
D03*
X617730D02*
D03*
X636797D02*
D03*
X652528Y972518D02*
D03*
Y1025350D02*
D03*
Y1011889D02*
D03*
X636763Y1025648D02*
D03*
Y1012062D02*
D03*
X617696Y1025848D02*
D03*
Y1012262D02*
D03*
X602964Y1026140D02*
D03*
Y1012553D02*
D03*
X652528Y959056D02*
D03*
Y999470D02*
D03*
Y985970D02*
D03*
X636763Y986278D02*
D03*
Y972816D02*
D03*
Y999730D02*
D03*
Y959230D02*
D03*
X617696Y986478D02*
D03*
Y973016D02*
D03*
Y999930D02*
D03*
Y959429D02*
D03*
X602964Y986770D02*
D03*
Y973308D02*
D03*
Y1000221D02*
D03*
Y959722D02*
D03*
X742154Y980032D02*
D03*
Y995032D02*
D03*
Y1010032D02*
D03*
X852938Y1105597D02*
D03*
Y1119097D02*
D03*
Y1132597D02*
D03*
X784682Y1105089D02*
D03*
X997974Y1108130D02*
D03*
Y1121630D02*
D03*
Y1135130D02*
D03*
X928366Y1106861D02*
D03*
X815562Y1195656D02*
D03*
X857842Y1194693D02*
D03*
X828378Y1195580D02*
D03*
X815562Y1182156D02*
D03*
X828378Y1182080D02*
D03*
X815562Y1168656D02*
D03*
X828378Y1168580D02*
D03*
X958720Y1194392D02*
D03*
X1002038Y1194439D02*
D03*
X972320Y1194392D02*
D03*
X958720Y1180892D02*
D03*
X972320D02*
D03*
X958720Y1167392D02*
D03*
X1074892Y1108841D02*
D03*
X1143472Y1111635D02*
D03*
X1142710Y1125859D02*
D03*
X1074638Y1121287D02*
D03*
X1144234Y1153808D02*
D03*
X1116040Y1167261D02*
D03*
X1144234Y1167308D02*
D03*
X1102440Y1167261D02*
D03*
X1116040Y1180761D02*
D03*
X1144234Y1180808D02*
D03*
X1102440Y1180761D02*
D03*
X1116040Y1194261D02*
D03*
X1144234Y1194308D02*
D03*
X1102440Y1194261D02*
D03*
X942682Y1034273D02*
D03*
Y1047773D02*
D03*
Y1061273D02*
D03*
Y1074773D02*
D03*
Y1088273D02*
D03*
X997082Y1034273D02*
D03*
X852522Y1046474D02*
D03*
X1085656Y1300357D02*
D03*
X1112856D02*
D03*
X1126456D02*
D03*
X1140055D02*
D03*
X1072056D02*
D03*
X1099256D02*
D03*
Y1286857D02*
D03*
X1072056D02*
D03*
X1140055D02*
D03*
X1126456D02*
D03*
X1112856D02*
D03*
X1085656D02*
D03*
X1099256Y1273357D02*
D03*
X1072056D02*
D03*
X1140055D02*
D03*
X1126456D02*
D03*
X1112856D02*
D03*
X1085656D02*
D03*
X1099256Y1259857D02*
D03*
X1072056D02*
D03*
X1140055D02*
D03*
X1126456D02*
D03*
X1112856D02*
D03*
X1085656D02*
D03*
X1099256Y1246357D02*
D03*
X1072056D02*
D03*
X1140055D02*
D03*
X1126456D02*
D03*
X1112856D02*
D03*
X1085656D02*
D03*
X937094Y1300762D02*
D03*
X964294D02*
D03*
X977894D02*
D03*
X991494D02*
D03*
X923494D02*
D03*
X950694D02*
D03*
Y1287262D02*
D03*
X923494D02*
D03*
X991494D02*
D03*
X977894D02*
D03*
X964294D02*
D03*
X937094D02*
D03*
X950694Y1273762D02*
D03*
X923494D02*
D03*
X991494D02*
D03*
X977894D02*
D03*
X964294D02*
D03*
X937094D02*
D03*
X950694Y1260262D02*
D03*
X923494D02*
D03*
X991494D02*
D03*
X977894D02*
D03*
X964294D02*
D03*
X937094D02*
D03*
X950694Y1246761D02*
D03*
X923494D02*
D03*
X991494D02*
D03*
X977894D02*
D03*
X964294D02*
D03*
X937094D02*
D03*
X799392Y1298755D02*
D03*
X826592D02*
D03*
X840192D02*
D03*
X853792D02*
D03*
X785792D02*
D03*
X812992D02*
D03*
Y1285255D02*
D03*
X785792D02*
D03*
X853792D02*
D03*
X840192D02*
D03*
X826592D02*
D03*
X799392D02*
D03*
X812992Y1271755D02*
D03*
X785792D02*
D03*
X853792D02*
D03*
X840192D02*
D03*
X826592D02*
D03*
X799392D02*
D03*
X812992Y1258255D02*
D03*
X785792D02*
D03*
X853792D02*
D03*
X840192D02*
D03*
X826592D02*
D03*
X799392D02*
D03*
X812992Y1244755D02*
D03*
X785792D02*
D03*
X853792D02*
D03*
X840192D02*
D03*
X826592D02*
D03*
X799392D02*
D03*
X969882Y1088273D02*
D03*
X983482D02*
D03*
X997082D02*
D03*
X929082D02*
D03*
X956282D02*
D03*
Y1074773D02*
D03*
X929082D02*
D03*
X997082D02*
D03*
X983482D02*
D03*
X969882D02*
D03*
X956282Y1061273D02*
D03*
X929082D02*
D03*
X997082D02*
D03*
X983482D02*
D03*
X969882D02*
D03*
X956282Y1047773D02*
D03*
X929082D02*
D03*
X997082D02*
D03*
X983482D02*
D03*
X969882D02*
D03*
X956282Y1034273D02*
D03*
X929082D02*
D03*
X983482D02*
D03*
X969882D02*
D03*
X1085792Y1085351D02*
D03*
X1112992D02*
D03*
X1126592D02*
D03*
X1140192D02*
D03*
X1072192D02*
D03*
X1099392D02*
D03*
Y1071851D02*
D03*
X1072192D02*
D03*
X1140192D02*
D03*
X1126592D02*
D03*
X1112992D02*
D03*
X1085792D02*
D03*
X1099392Y1058351D02*
D03*
X1072192D02*
D03*
X1140192D02*
D03*
X1126592D02*
D03*
X1112992D02*
D03*
X1085792D02*
D03*
X1099392Y1044851D02*
D03*
X1072192D02*
D03*
X1140192D02*
D03*
X1126592D02*
D03*
X1112992D02*
D03*
X1085792D02*
D03*
X1099392Y1031351D02*
D03*
X1072192D02*
D03*
X1140192D02*
D03*
X1126592D02*
D03*
X1112992D02*
D03*
X1085792D02*
D03*
X797922Y1032974D02*
D03*
X825322D02*
D03*
X838922D02*
D03*
X852522D02*
D03*
X811722D02*
D03*
X825322Y1046474D02*
D03*
X838922D02*
D03*
X784522D02*
D03*
X811722D02*
D03*
X797922Y1059974D02*
D03*
X825322D02*
D03*
X838922D02*
D03*
X852522D02*
D03*
X784522D02*
D03*
X797922Y1073474D02*
D03*
X825322D02*
D03*
X838922D02*
D03*
X852522D02*
D03*
X784522D02*
D03*
X811722D02*
D03*
Y1086974D02*
D03*
X784522D02*
D03*
X852522D02*
D03*
X838922D02*
D03*
X825322D02*
D03*
X797922D02*
D03*
X783928Y1123573D02*
D03*
X927998Y1121795D02*
D03*
X722886Y1134344D02*
D03*
X704138D02*
D03*
X722886Y1110468D02*
D03*
Y1086846D02*
D03*
X704138Y1110468D02*
D03*
Y1086846D02*
D03*
X736602Y1273790D02*
D03*
Y1308896D02*
D03*
Y1289976D02*
D03*
X717854Y1273790D02*
D03*
Y1308896D02*
D03*
Y1289976D02*
D03*
Y1256264D02*
D03*
X736602D02*
D03*
X899597Y1287838D02*
D03*
Y1246312D02*
D03*
Y1259898D02*
D03*
Y1273360D02*
D03*
X1032820Y1286002D02*
D03*
Y1244475D02*
D03*
Y1258062D02*
D03*
Y1271524D02*
D03*
X899597Y1300237D02*
D03*
X1032820Y1300454D02*
D03*
X704138Y1178470D02*
D03*
Y1157004D02*
D03*
X722886Y1178470D02*
D03*
Y1157004D02*
D03*
X704138Y1204956D02*
D03*
X722886D02*
D03*
X651498Y1156950D02*
D03*
Y1110414D02*
D03*
Y1086792D02*
D03*
Y1134290D02*
D03*
Y1204902D02*
D03*
Y1178416D02*
D03*
Y1308896D02*
D03*
Y1256264D02*
D03*
Y1273790D02*
D03*
Y1289976D02*
D03*
X769242Y1223141D02*
D03*
Y1256853D02*
D03*
Y1275773D02*
D03*
Y1240667D02*
D03*
X737824Y1204956D02*
D03*
Y1157004D02*
D03*
Y1178470D02*
D03*
Y1086846D02*
D03*
Y1110468D02*
D03*
Y1134344D02*
D03*
X882988Y1300023D02*
D03*
Y1273146D02*
D03*
Y1259684D02*
D03*
Y1246097D02*
D03*
Y1287624D02*
D03*
X1018497Y1288095D02*
D03*
Y1246569D02*
D03*
Y1260155D02*
D03*
Y1273617D02*
D03*
Y1300494D02*
D03*
X819154Y1002032D02*
D03*
Y987032D02*
D03*
Y972032D02*
D03*
Y957032D02*
D03*
Y942032D02*
D03*
X1143980Y1140591D02*
D03*
X811066Y1060266D02*
D03*
X798111Y1046550D02*
D03*
X784650Y1032928D02*
D03*
X769242Y1291267D02*
D03*
X860504Y825532D02*
D03*
X998504D02*
D03*
X1136504D02*
D03*
X848154Y627032D02*
D03*
X1067154Y713032D02*
D03*
X1067154Y683032D02*
D03*
X1067154Y668032D02*
D03*
Y654032D02*
D03*
Y639032D02*
D03*
X1152954Y735732D02*
D03*
X1035154Y736032D02*
D03*
X1048154Y824032D02*
D03*
X910154Y772032D02*
D03*
X592154Y688032D02*
D03*
X729154Y631872D02*
D03*
X731154Y554032D02*
D03*
X646154D02*
D03*
X1098154Y596282D02*
D03*
X1121694Y620532D02*
D03*
X964154Y660032D02*
D03*
X996154Y672032D02*
D03*
Y663032D02*
D03*
X860409Y555032D02*
D03*
X850154Y704532D02*
D03*
X629154Y584032D02*
D03*
X1132744Y651144D02*
D03*
X1060154Y729032D02*
D03*
X831154Y942032D02*
D03*
Y957032D02*
D03*
Y972032D02*
D03*
Y987032D02*
D03*
Y1002032D02*
D03*
X854154Y942032D02*
D03*
Y957032D02*
D03*
Y972032D02*
D03*
Y987032D02*
D03*
Y1002032D02*
D03*
X866154D02*
D03*
Y987032D02*
D03*
Y972032D02*
D03*
Y957032D02*
D03*
Y942032D02*
D03*
X890154D02*
D03*
Y957032D02*
D03*
Y972032D02*
D03*
Y987032D02*
D03*
Y1002032D02*
D03*
X878154D02*
D03*
Y987032D02*
D03*
Y972032D02*
D03*
Y957032D02*
D03*
Y942032D02*
D03*
X1022154D02*
D03*
Y957032D02*
D03*
Y972032D02*
D03*
Y987032D02*
D03*
Y1002032D02*
D03*
X1034154D02*
D03*
Y987032D02*
D03*
Y972032D02*
D03*
Y957032D02*
D03*
Y942032D02*
D03*
X1010154D02*
D03*
Y957032D02*
D03*
Y972032D02*
D03*
Y987032D02*
D03*
Y1002032D02*
D03*
X998154D02*
D03*
Y987032D02*
D03*
Y972032D02*
D03*
Y957032D02*
D03*
Y942032D02*
D03*
X975154Y1002032D02*
D03*
Y987032D02*
D03*
Y972032D02*
D03*
Y957032D02*
D03*
Y942032D02*
D03*
X963154D02*
D03*
Y957032D02*
D03*
Y972032D02*
D03*
Y987032D02*
D03*
Y1002032D02*
D03*
X1107154D02*
D03*
Y987032D02*
D03*
Y972032D02*
D03*
Y957032D02*
D03*
Y942032D02*
D03*
X1119154D02*
D03*
Y957032D02*
D03*
Y972032D02*
D03*
Y987032D02*
D03*
Y1002032D02*
D03*
X1142154Y942032D02*
D03*
Y957032D02*
D03*
Y972032D02*
D03*
Y987032D02*
D03*
Y1002032D02*
D03*
X1154154D02*
D03*
Y987032D02*
D03*
Y972032D02*
D03*
Y957032D02*
D03*
Y942032D02*
D03*
X1178154D02*
D03*
Y957032D02*
D03*
Y972032D02*
D03*
Y987032D02*
D03*
Y1002032D02*
D03*
X1166154D02*
D03*
Y987032D02*
D03*
Y972032D02*
D03*
Y957032D02*
D03*
Y942032D02*
D03*
X905654Y1049032D02*
D03*
X1194154D02*
D03*
X742154Y950032D02*
D03*
Y935032D02*
D03*
X866639Y765032D02*
D03*
X762154Y852032D02*
D03*
Y840032D02*
D03*
Y828032D02*
D03*
Y816032D02*
D03*
X816154Y835032D02*
D03*
X953154D02*
D03*
X894154Y824032D02*
D03*
X1033359Y825032D02*
D03*
X1048154Y1049032D02*
D03*
Y1106032D02*
D03*
X677154Y497032D02*
D03*
X700154D02*
D03*
X651154D02*
D03*
X726154D02*
D03*
X1090154Y584532D02*
D03*
X677972Y736032D02*
D03*
X1048154Y775032D02*
D03*
D63*
X1109154Y1125032D02*
D03*
X967154D02*
D03*
X824154D02*
D03*
M02*
