%FSLAX44Y44*%
%MOMM*%
G71*
G01*
G75*
%ADD10R,1.0000X0.9500*%
%ADD11R,1.6002X1.2700*%
%ADD12R,2.2000X1.1000*%
%ADD13R,0.9500X1.0000*%
%ADD14R,0.6500X0.4000*%
%ADD15O,0.6000X1.9000*%
%ADD16R,2.2000X1.4000*%
%ADD17R,0.9000X1.4000*%
%ADD18R,1.0000X0.4000*%
%ADD19R,0.8000X0.8000*%
%ADD20R,0.4000X1.4000*%
%ADD21R,2.3000X1.9000*%
%ADD22R,1.8000X1.9000*%
%ADD23R,1.1500X1.4000*%
%ADD24R,0.6000X1.2000*%
%ADD25R,0.8000X0.6000*%
%ADD26R,0.6000X0.8000*%
%ADD27R,0.5000X0.6000*%
%ADD28R,1.6000X3.9000*%
%ADD29R,2.1000X5.8000*%
%ADD30R,1.0000X0.6000*%
G04:AMPARAMS|DCode=31|XSize=1.05mm|YSize=3.82mm|CornerRadius=0.0525mm|HoleSize=0mm|Usage=FLASHONLY|Rotation=180.000|XOffset=0mm|YOffset=0mm|HoleType=Round|Shape=RoundedRectangle|*
%AMROUNDEDRECTD31*
21,1,1.0500,3.7150,0,0,180.0*
21,1,0.9450,3.8200,0,0,180.0*
1,1,0.1050,-0.4725,1.8575*
1,1,0.1050,0.4725,1.8575*
1,1,0.1050,0.4725,-1.8575*
1,1,0.1050,-0.4725,-1.8575*
%
%ADD31ROUNDEDRECTD31*%
G04:AMPARAMS|DCode=32|XSize=7.48mm|YSize=8.55mm|CornerRadius=0.0374mm|HoleSize=0mm|Usage=FLASHONLY|Rotation=90.000|XOffset=0mm|YOffset=0mm|HoleType=Round|Shape=RoundedRectangle|*
%AMROUNDEDRECTD32*
21,1,7.4800,8.4752,0,0,90.0*
21,1,7.4052,8.5500,0,0,90.0*
1,1,0.0748,4.2376,3.7026*
1,1,0.0748,4.2376,-3.7026*
1,1,0.0748,-4.2376,-3.7026*
1,1,0.0748,-4.2376,3.7026*
%
%ADD32ROUNDEDRECTD32*%
G04:AMPARAMS|DCode=33|XSize=0.6mm|YSize=1mm|CornerRadius=0.15mm|HoleSize=0mm|Usage=FLASHONLY|Rotation=90.000|XOffset=0mm|YOffset=0mm|HoleType=Round|Shape=RoundedRectangle|*
%AMROUNDEDRECTD33*
21,1,0.6000,0.7000,0,0,90.0*
21,1,0.3000,1.0000,0,0,90.0*
1,1,0.3000,0.3500,0.1500*
1,1,0.3000,0.3500,-0.1500*
1,1,0.3000,-0.3500,-0.1500*
1,1,0.3000,-0.3500,0.1500*
%
%ADD33ROUNDEDRECTD33*%
%ADD34R,1.8500X1.3000*%
%ADD35R,1.3000X1.8500*%
%ADD36O,1.6500X0.3000*%
%ADD37O,0.3000X1.6500*%
%ADD38R,7.0000X7.0000*%
%ADD39C,0.2500*%
%ADD40C,0.5000*%
%ADD41C,0.8000*%
%ADD42C,0.3500*%
%ADD43C,1.2000*%
%ADD44C,0.2540*%
%ADD45C,0.2032*%
%ADD46C,0.4000*%
%ADD47C,0.6000*%
%ADD48C,1.0000*%
%ADD49C,0.7500*%
%ADD50C,0.7620*%
%ADD51C,1.1000*%
%ADD52C,1.0160*%
%ADD53R,1.5500X1.5500*%
%ADD54C,1.5500*%
%ADD55C,1.5000*%
%ADD56R,1.5000X1.5000*%
%ADD57C,0.7000*%
%ADD58R,0.7000X0.7000*%
%ADD59R,1.5000X1.5000*%
%ADD60C,2.0000*%
G04:AMPARAMS|DCode=61|XSize=1.55mm|YSize=1.55mm|CornerRadius=0.0465mm|HoleSize=0mm|Usage=FLASHONLY|Rotation=180.000|XOffset=0mm|YOffset=0mm|HoleType=Round|Shape=RoundedRectangle|*
%AMROUNDEDRECTD61*
21,1,1.5500,1.4570,0,0,180.0*
21,1,1.4570,1.5500,0,0,180.0*
1,1,0.0930,-0.7285,0.7285*
1,1,0.0930,0.7285,0.7285*
1,1,0.0930,0.7285,-0.7285*
1,1,0.0930,-0.7285,-0.7285*
%
%ADD61ROUNDEDRECTD61*%
%ADD62C,0.6000*%
%ADD63C,5.0000*%
%ADD64R,1.9000X1.3000*%
%ADD65R,2.8000X1.0000*%
%ADD66R,0.8000X1.0000*%
%ADD67R,1.2000X0.7000*%
%ADD68R,1.2000X1.0000*%
%ADD69R,0.6000X1.0000*%
G04:AMPARAMS|DCode=70|XSize=0.6mm|YSize=1mm|CornerRadius=0.051mm|HoleSize=0mm|Usage=FLASHONLY|Rotation=180.000|XOffset=0mm|YOffset=0mm|HoleType=Round|Shape=RoundedRectangle|*
%AMROUNDEDRECTD70*
21,1,0.6000,0.8980,0,0,180.0*
21,1,0.4980,1.0000,0,0,180.0*
1,1,0.1020,-0.2490,0.4490*
1,1,0.1020,0.2490,0.4490*
1,1,0.1020,0.2490,-0.4490*
1,1,0.1020,-0.2490,-0.4490*
%
%ADD70ROUNDEDRECTD70*%
G04:AMPARAMS|DCode=71|XSize=3.1mm|YSize=4mm|CornerRadius=0.0465mm|HoleSize=0mm|Usage=FLASHONLY|Rotation=180.000|XOffset=0mm|YOffset=0mm|HoleType=Round|Shape=RoundedRectangle|*
%AMROUNDEDRECTD71*
21,1,3.1000,3.9070,0,0,180.0*
21,1,3.0070,4.0000,0,0,180.0*
1,1,0.0930,-1.5035,1.9535*
1,1,0.0930,1.5035,1.9535*
1,1,0.0930,1.5035,-1.9535*
1,1,0.0930,-1.5035,-1.9535*
%
%ADD71ROUNDEDRECTD71*%
%ADD72R,2.1590X2.7430*%
D10*
X1083154Y698032D02*
D03*
X1067154D02*
D03*
X1083154Y668032D02*
D03*
X1067154D02*
D03*
X1067154Y729032D02*
D03*
X1083154D02*
D03*
X1083154Y639032D02*
D03*
X1067154D02*
D03*
X807154Y902032D02*
D03*
X823154D02*
D03*
X816154Y826032D02*
D03*
X800154D02*
D03*
X894154Y824032D02*
D03*
X910154D02*
D03*
X1033154D02*
D03*
X1049154D02*
D03*
X1171154D02*
D03*
X1187154D02*
D03*
X612154Y859032D02*
D03*
X596154D02*
D03*
X596154Y843032D02*
D03*
X612154D02*
D03*
X646654Y567982D02*
D03*
X662654D02*
D03*
X1132744Y643032D02*
D03*
X1148744D02*
D03*
X1067154Y683032D02*
D03*
X1083154D02*
D03*
X946154Y902032D02*
D03*
X962154D02*
D03*
X1187154Y841032D02*
D03*
X1171154D02*
D03*
X1049154D02*
D03*
X1033154D02*
D03*
X910154D02*
D03*
X894154D02*
D03*
X1084154Y902032D02*
D03*
X1100154D02*
D03*
X665154Y619032D02*
D03*
X649154D02*
D03*
X668154Y692032D02*
D03*
X684154D02*
D03*
X650154Y709032D02*
D03*
X634154D02*
D03*
X634154Y692032D02*
D03*
X650154D02*
D03*
X1083154Y713032D02*
D03*
X1067154D02*
D03*
X1083154Y654032D02*
D03*
X1067154D02*
D03*
X1024154Y611032D02*
D03*
X1008154D02*
D03*
X1195154Y592282D02*
D03*
X1179154D02*
D03*
X1008154Y671032D02*
D03*
X1024154D02*
D03*
X1075154Y826032D02*
D03*
X1091154D02*
D03*
X937154D02*
D03*
X953154D02*
D03*
X632154Y619032D02*
D03*
X616154D02*
D03*
X612154Y878032D02*
D03*
X596154D02*
D03*
D11*
X717154Y631872D02*
D03*
Y652192D02*
D03*
X741154Y631872D02*
D03*
Y652192D02*
D03*
X593154Y641872D02*
D03*
Y662192D02*
D03*
X809154Y861872D02*
D03*
Y882192D02*
D03*
X946154Y861872D02*
D03*
Y882192D02*
D03*
X1084154Y861872D02*
D03*
Y882192D02*
D03*
D12*
X748154Y908532D02*
D03*
Y875532D02*
D03*
D13*
X767904Y909089D02*
D03*
Y893089D02*
D03*
X985804Y894032D02*
D03*
Y910032D02*
D03*
X1011204Y894032D02*
D03*
Y910032D02*
D03*
X702154Y897032D02*
D03*
Y881032D02*
D03*
X665154Y881032D02*
D03*
Y897032D02*
D03*
X634154Y881032D02*
D03*
Y897032D02*
D03*
X686154Y881032D02*
D03*
Y897032D02*
D03*
X769154Y538032D02*
D03*
Y522032D02*
D03*
X873654Y894032D02*
D03*
Y910032D02*
D03*
X800154Y538032D02*
D03*
Y522032D02*
D03*
X833154Y538032D02*
D03*
Y522032D02*
D03*
X785154Y538032D02*
D03*
Y522032D02*
D03*
X816154Y538032D02*
D03*
Y522032D02*
D03*
X849154Y538032D02*
D03*
Y522032D02*
D03*
X1149154Y894032D02*
D03*
Y910032D02*
D03*
X1124154Y894032D02*
D03*
Y910032D02*
D03*
X714154Y732032D02*
D03*
Y716032D02*
D03*
X864154Y522032D02*
D03*
Y538032D02*
D03*
X793154Y629032D02*
D03*
Y613032D02*
D03*
X809154Y629032D02*
D03*
Y613032D02*
D03*
X697154Y716032D02*
D03*
Y732032D02*
D03*
X847804Y910032D02*
D03*
Y894032D02*
D03*
X649154Y881032D02*
D03*
Y897032D02*
D03*
X793154Y591032D02*
D03*
Y575032D02*
D03*
X810154Y575032D02*
D03*
Y591032D02*
D03*
X697154Y554032D02*
D03*
Y570032D02*
D03*
X680154Y554032D02*
D03*
Y570032D02*
D03*
D14*
X938654Y843032D02*
D03*
X953654D02*
D03*
X1091654D02*
D03*
X1076654D02*
D03*
X816654D02*
D03*
X801654D02*
D03*
D15*
X1149204Y872532D02*
D03*
X1136504D02*
D03*
X1123804D02*
D03*
X1111104D02*
D03*
X1149204Y825532D02*
D03*
X1136504D02*
D03*
X1123804D02*
D03*
X1111104D02*
D03*
X1011204Y872532D02*
D03*
X998504D02*
D03*
X985804D02*
D03*
X973104D02*
D03*
X1011204Y825532D02*
D03*
X998504D02*
D03*
X985804D02*
D03*
X973104D02*
D03*
X873204Y872532D02*
D03*
X860504D02*
D03*
X847804D02*
D03*
X835104D02*
D03*
X873204Y825532D02*
D03*
X860504D02*
D03*
X847804D02*
D03*
X835104D02*
D03*
X1121694Y573532D02*
D03*
X1134394D02*
D03*
X1147094D02*
D03*
X1159794D02*
D03*
X1121694Y620532D02*
D03*
X1134394D02*
D03*
X1147094D02*
D03*
X1159794D02*
D03*
D16*
X672904Y818032D02*
D03*
D17*
X647404D02*
D03*
D18*
X633154Y844282D02*
D03*
Y850782D02*
D03*
Y857282D02*
D03*
Y863782D02*
D03*
X673125D02*
D03*
Y857282D02*
D03*
Y850782D02*
D03*
Y844282D02*
D03*
D19*
X678154Y729032D02*
D03*
Y713032D02*
D03*
D20*
X682154Y525532D02*
D03*
X695154D02*
D03*
X688654D02*
D03*
X701654D02*
D03*
X675654D02*
D03*
D21*
X651154Y497032D02*
D03*
X726154D02*
D03*
D22*
X677154D02*
D03*
X700154D02*
D03*
D23*
X1024154Y652032D02*
D03*
Y630032D02*
D03*
X1008154D02*
D03*
Y652032D02*
D03*
D24*
X805654Y646532D02*
D03*
Y709532D02*
D03*
X796654D02*
D03*
Y646532D02*
D03*
D25*
X631654Y732032D02*
D03*
X656654D02*
D03*
X637654Y584032D02*
D03*
X662654D02*
D03*
D26*
X1090154Y584532D02*
D03*
Y559532D02*
D03*
D27*
X723754Y554032D02*
D03*
X710554D02*
D03*
X653554D02*
D03*
X666754D02*
D03*
D28*
X660654Y653032D02*
D03*
X689654D02*
D03*
D29*
X708654Y834032D02*
D03*
X747654D02*
D03*
D30*
X613154Y643532D02*
D03*
Y662532D02*
D03*
X639154Y643532D02*
D03*
Y653032D02*
D03*
Y662532D02*
D03*
D31*
X792754Y1168032D02*
D03*
X843554D02*
D03*
X842554Y956032D02*
D03*
X791754D02*
D03*
X986554D02*
D03*
X935754D02*
D03*
X1130554D02*
D03*
X1079754D02*
D03*
X987554Y1169032D02*
D03*
X936754D02*
D03*
X1130554Y1170032D02*
D03*
X1079754D02*
D03*
D32*
X818154Y1271032D02*
D03*
X817154Y1059032D02*
D03*
X961154D02*
D03*
X1105154D02*
D03*
X962154Y1272032D02*
D03*
X1105154Y1273032D02*
D03*
D33*
X592154Y718532D02*
D03*
Y699532D02*
D03*
X616154Y709032D02*
D03*
D34*
X884154Y1192532D02*
D03*
Y1221532D02*
D03*
Y1023532D02*
D03*
Y1052532D02*
D03*
X1028154Y1192532D02*
D03*
Y1221532D02*
D03*
Y1023532D02*
D03*
Y1052532D02*
D03*
X1169154Y1192532D02*
D03*
Y1221532D02*
D03*
Y1023532D02*
D03*
Y1052532D02*
D03*
Y1152532D02*
D03*
Y1123532D02*
D03*
X1028154Y1152532D02*
D03*
Y1123532D02*
D03*
X884154Y1152532D02*
D03*
Y1123532D02*
D03*
X1169154Y1102532D02*
D03*
Y1073532D02*
D03*
X1028154Y1102532D02*
D03*
Y1073532D02*
D03*
X884154Y1102532D02*
D03*
Y1073532D02*
D03*
D35*
X624654Y818032D02*
D03*
X595654D02*
D03*
D36*
X831154Y710032D02*
D03*
Y705032D02*
D03*
Y700032D02*
D03*
Y695032D02*
D03*
Y690032D02*
D03*
Y685032D02*
D03*
Y680032D02*
D03*
Y675032D02*
D03*
Y670032D02*
D03*
Y665032D02*
D03*
Y660032D02*
D03*
Y655032D02*
D03*
Y650032D02*
D03*
Y645032D02*
D03*
Y640032D02*
D03*
Y635032D02*
D03*
Y630032D02*
D03*
Y625032D02*
D03*
Y620032D02*
D03*
Y615032D02*
D03*
Y610032D02*
D03*
Y605032D02*
D03*
Y600032D02*
D03*
Y595032D02*
D03*
Y590032D02*
D03*
X983154D02*
D03*
Y595032D02*
D03*
Y600032D02*
D03*
Y605032D02*
D03*
Y610032D02*
D03*
Y615032D02*
D03*
Y620032D02*
D03*
Y625032D02*
D03*
Y630032D02*
D03*
Y635032D02*
D03*
Y640032D02*
D03*
Y645032D02*
D03*
Y650032D02*
D03*
Y655032D02*
D03*
Y660032D02*
D03*
Y665032D02*
D03*
Y670032D02*
D03*
Y675032D02*
D03*
Y680032D02*
D03*
Y685032D02*
D03*
Y690032D02*
D03*
Y695032D02*
D03*
Y700032D02*
D03*
Y705032D02*
D03*
Y710032D02*
D03*
D37*
X847154Y574032D02*
D03*
X852154D02*
D03*
X857154D02*
D03*
X862154D02*
D03*
X867154D02*
D03*
X872154D02*
D03*
X877154D02*
D03*
X882154D02*
D03*
X887154D02*
D03*
X892154D02*
D03*
X897154D02*
D03*
X902154D02*
D03*
X907154D02*
D03*
X912154D02*
D03*
X917154D02*
D03*
X922154D02*
D03*
X927154D02*
D03*
X932154D02*
D03*
X937154D02*
D03*
X942154D02*
D03*
X947154D02*
D03*
X952154D02*
D03*
X957154D02*
D03*
X962154D02*
D03*
X967154D02*
D03*
Y726032D02*
D03*
X962154D02*
D03*
X957154D02*
D03*
X952154D02*
D03*
X947154D02*
D03*
X942154D02*
D03*
X937154D02*
D03*
X932154D02*
D03*
X927154D02*
D03*
X922154D02*
D03*
X917154D02*
D03*
X912154D02*
D03*
X907154D02*
D03*
X902154D02*
D03*
X897154D02*
D03*
X892154D02*
D03*
X887154D02*
D03*
X882154D02*
D03*
X877154D02*
D03*
X872154D02*
D03*
X867154D02*
D03*
X862154D02*
D03*
X857154D02*
D03*
X852154D02*
D03*
X847154D02*
D03*
D38*
X907154Y650032D02*
D03*
D53*
X980254Y493332D02*
D03*
Y518732D02*
D03*
X1090254Y493332D02*
D03*
Y518732D02*
D03*
D54*
X954854Y493332D02*
D03*
X929454D02*
D03*
X904054D02*
D03*
Y518732D02*
D03*
X929454D02*
D03*
X954854D02*
D03*
X627654Y1055032D02*
D03*
Y1228032D02*
D03*
X1064854Y493332D02*
D03*
X1039454D02*
D03*
X1014054D02*
D03*
Y518732D02*
D03*
X1039454D02*
D03*
X1064854D02*
D03*
D55*
X1155954Y793032D02*
D03*
X1130554D02*
D03*
X1015954D02*
D03*
X990554D02*
D03*
X879954D02*
D03*
X854554D02*
D03*
X1195154Y519432D02*
D03*
Y544832D02*
D03*
Y570232D02*
D03*
X1153144Y540032D02*
D03*
X795554Y496032D02*
D03*
X820954D02*
D03*
X846354D02*
D03*
X871754D02*
D03*
X725554Y777032D02*
D03*
X750954D02*
D03*
X776354D02*
D03*
X801754D02*
D03*
D56*
X1105154Y793032D02*
D03*
X965154D02*
D03*
X829154D02*
D03*
X1127744Y540032D02*
D03*
X770154Y496032D02*
D03*
X700154Y777032D02*
D03*
D57*
X773154Y594682D02*
D03*
D58*
Y607382D02*
D03*
D59*
X1195154Y494032D02*
D03*
D60*
X597154Y500032D02*
D03*
X1187154Y1295032D02*
D03*
X590497Y776032D02*
D03*
D61*
X702654Y1055032D02*
D03*
Y1228032D02*
D03*
M02*
